<?xml version="1.0" encoding="utf-8" standalone="no"?>
<!DOCTYPE svg PUBLIC "-//W3C//DTD SVG 1.1//EN"
  "http://www.w3.org/Graphics/SVG/1.1/DTD/svg11.dtd">
<!-- Created with matplotlib (https://matplotlib.org/) -->
<svg height="216pt" version="1.1" viewBox="0 0 648 216" width="648pt" xmlns="http://www.w3.org/2000/svg" xmlns:xlink="http://www.w3.org/1999/xlink">
 <metadata>
  <rdf:RDF xmlns:cc="http://creativecommons.org/ns#" xmlns:dc="http://purl.org/dc/elements/1.1/" xmlns:rdf="http://www.w3.org/1999/02/22-rdf-syntax-ns#">
   <cc:Work>
    <dc:type rdf:resource="http://purl.org/dc/dcmitype/StillImage"/>
    <dc:date>2021-04-22T11:29:24.250998</dc:date>
    <dc:format>image/svg+xml</dc:format>
    <dc:creator>
     <cc:Agent>
      <dc:title>Matplotlib v3.3.4, https://matplotlib.org/</dc:title>
     </cc:Agent>
    </dc:creator>
   </cc:Work>
  </rdf:RDF>
 </metadata>
 <defs>
  <style type="text/css">*{stroke-linecap:butt;stroke-linejoin:round;}</style>
 </defs>
 <g id="figure_1">
  <g id="patch_1">
   <path d="M 0 216 
L 648 216 
L 648 0 
L 0 0 
z
" style="fill:none;"/>
  </g>
  <g id="axes_1">
   <g id="patch_2">
    <path d="M 44.55 170.4 
L 179.295833 170.4 
L 179.295833 34.6 
L 44.55 34.6 
z
" style="fill:#ffffff;"/>
   </g>
   <g id="matplotlib.axis_1">
    <g id="xtick_1">
     <g id="line2d_1">
      <defs>
       <path d="M 0 0 
L 0 3.5 
" id="m4cdc01fb94" style="stroke:#000000;stroke-width:0.8;"/>
      </defs>
      <g>
       <use style="stroke:#000000;stroke-width:0.8;" x="44.55" xlink:href="#m4cdc01fb94" y="170.4"/>
      </g>
     </g>
     <g id="text_1">
      <!-- 0.000 -->
      <g transform="translate(30.235938 184.998437)scale(0.1 -0.1)">
       <defs>
        <path d="M 31.78125 66.40625 
Q 24.171875 66.40625 20.328125 58.90625 
Q 16.5 51.421875 16.5 36.375 
Q 16.5 21.390625 20.328125 13.890625 
Q 24.171875 6.390625 31.78125 6.390625 
Q 39.453125 6.390625 43.28125 13.890625 
Q 47.125 21.390625 47.125 36.375 
Q 47.125 51.421875 43.28125 58.90625 
Q 39.453125 66.40625 31.78125 66.40625 
z
M 31.78125 74.21875 
Q 44.046875 74.21875 50.515625 64.515625 
Q 56.984375 54.828125 56.984375 36.375 
Q 56.984375 17.96875 50.515625 8.265625 
Q 44.046875 -1.421875 31.78125 -1.421875 
Q 19.53125 -1.421875 13.0625 8.265625 
Q 6.59375 17.96875 6.59375 36.375 
Q 6.59375 54.828125 13.0625 64.515625 
Q 19.53125 74.21875 31.78125 74.21875 
z
" id="DejaVuSans-48"/>
        <path d="M 10.6875 12.40625 
L 21 12.40625 
L 21 0 
L 10.6875 0 
z
" id="DejaVuSans-46"/>
       </defs>
       <use xlink:href="#DejaVuSans-48"/>
       <use x="63.623047" xlink:href="#DejaVuSans-46"/>
       <use x="95.410156" xlink:href="#DejaVuSans-48"/>
       <use x="159.033203" xlink:href="#DejaVuSans-48"/>
       <use x="222.65625" xlink:href="#DejaVuSans-48"/>
      </g>
     </g>
    </g>
    <g id="xtick_2">
     <g id="line2d_2">
      <g>
       <use style="stroke:#000000;stroke-width:0.8;" x="78.236458" xlink:href="#m4cdc01fb94" y="170.4"/>
      </g>
     </g>
     <g id="text_2">
      <!-- 0.025 -->
      <g transform="translate(63.922396 184.998437)scale(0.1 -0.1)">
       <defs>
        <path d="M 19.1875 8.296875 
L 53.609375 8.296875 
L 53.609375 0 
L 7.328125 0 
L 7.328125 8.296875 
Q 12.9375 14.109375 22.625 23.890625 
Q 32.328125 33.6875 34.8125 36.53125 
Q 39.546875 41.84375 41.421875 45.53125 
Q 43.3125 49.21875 43.3125 52.78125 
Q 43.3125 58.59375 39.234375 62.25 
Q 35.15625 65.921875 28.609375 65.921875 
Q 23.96875 65.921875 18.8125 64.3125 
Q 13.671875 62.703125 7.8125 59.421875 
L 7.8125 69.390625 
Q 13.765625 71.78125 18.9375 73 
Q 24.125 74.21875 28.421875 74.21875 
Q 39.75 74.21875 46.484375 68.546875 
Q 53.21875 62.890625 53.21875 53.421875 
Q 53.21875 48.921875 51.53125 44.890625 
Q 49.859375 40.875 45.40625 35.40625 
Q 44.1875 33.984375 37.640625 27.21875 
Q 31.109375 20.453125 19.1875 8.296875 
z
" id="DejaVuSans-50"/>
        <path d="M 10.796875 72.90625 
L 49.515625 72.90625 
L 49.515625 64.59375 
L 19.828125 64.59375 
L 19.828125 46.734375 
Q 21.96875 47.46875 24.109375 47.828125 
Q 26.265625 48.1875 28.421875 48.1875 
Q 40.625 48.1875 47.75 41.5 
Q 54.890625 34.8125 54.890625 23.390625 
Q 54.890625 11.625 47.5625 5.09375 
Q 40.234375 -1.421875 26.90625 -1.421875 
Q 22.3125 -1.421875 17.546875 -0.640625 
Q 12.796875 0.140625 7.71875 1.703125 
L 7.71875 11.625 
Q 12.109375 9.234375 16.796875 8.0625 
Q 21.484375 6.890625 26.703125 6.890625 
Q 35.15625 6.890625 40.078125 11.328125 
Q 45.015625 15.765625 45.015625 23.390625 
Q 45.015625 31 40.078125 35.4375 
Q 35.15625 39.890625 26.703125 39.890625 
Q 22.75 39.890625 18.8125 39.015625 
Q 14.890625 38.140625 10.796875 36.28125 
z
" id="DejaVuSans-53"/>
       </defs>
       <use xlink:href="#DejaVuSans-48"/>
       <use x="63.623047" xlink:href="#DejaVuSans-46"/>
       <use x="95.410156" xlink:href="#DejaVuSans-48"/>
       <use x="159.033203" xlink:href="#DejaVuSans-50"/>
       <use x="222.65625" xlink:href="#DejaVuSans-53"/>
      </g>
     </g>
    </g>
    <g id="xtick_3">
     <g id="line2d_3">
      <g>
       <use style="stroke:#000000;stroke-width:0.8;" x="111.922917" xlink:href="#m4cdc01fb94" y="170.4"/>
      </g>
     </g>
     <g id="text_3">
      <!-- 0.050 -->
      <g transform="translate(97.608854 184.998437)scale(0.1 -0.1)">
       <use xlink:href="#DejaVuSans-48"/>
       <use x="63.623047" xlink:href="#DejaVuSans-46"/>
       <use x="95.410156" xlink:href="#DejaVuSans-48"/>
       <use x="159.033203" xlink:href="#DejaVuSans-53"/>
       <use x="222.65625" xlink:href="#DejaVuSans-48"/>
      </g>
     </g>
    </g>
    <g id="xtick_4">
     <g id="line2d_4">
      <g>
       <use style="stroke:#000000;stroke-width:0.8;" x="145.609375" xlink:href="#m4cdc01fb94" y="170.4"/>
      </g>
     </g>
     <g id="text_4">
      <!-- 0.075 -->
      <g transform="translate(131.295312 184.998437)scale(0.1 -0.1)">
       <defs>
        <path d="M 8.203125 72.90625 
L 55.078125 72.90625 
L 55.078125 68.703125 
L 28.609375 0 
L 18.3125 0 
L 43.21875 64.59375 
L 8.203125 64.59375 
z
" id="DejaVuSans-55"/>
       </defs>
       <use xlink:href="#DejaVuSans-48"/>
       <use x="63.623047" xlink:href="#DejaVuSans-46"/>
       <use x="95.410156" xlink:href="#DejaVuSans-48"/>
       <use x="159.033203" xlink:href="#DejaVuSans-55"/>
       <use x="222.65625" xlink:href="#DejaVuSans-53"/>
      </g>
     </g>
    </g>
    <g id="xtick_5">
     <g id="line2d_5">
      <g>
       <use style="stroke:#000000;stroke-width:0.8;" x="179.295833" xlink:href="#m4cdc01fb94" y="170.4"/>
      </g>
     </g>
     <g id="text_5">
      <!-- 0.100 -->
      <g transform="translate(164.981771 184.998437)scale(0.1 -0.1)">
       <defs>
        <path d="M 12.40625 8.296875 
L 28.515625 8.296875 
L 28.515625 63.921875 
L 10.984375 60.40625 
L 10.984375 69.390625 
L 28.421875 72.90625 
L 38.28125 72.90625 
L 38.28125 8.296875 
L 54.390625 8.296875 
L 54.390625 0 
L 12.40625 0 
z
" id="DejaVuSans-49"/>
       </defs>
       <use xlink:href="#DejaVuSans-48"/>
       <use x="63.623047" xlink:href="#DejaVuSans-46"/>
       <use x="95.410156" xlink:href="#DejaVuSans-49"/>
       <use x="159.033203" xlink:href="#DejaVuSans-48"/>
       <use x="222.65625" xlink:href="#DejaVuSans-48"/>
      </g>
     </g>
    </g>
    <g id="text_6">
     <!-- $\theta_0$ -->
     <g transform="translate(106.472917 198.676562)scale(0.1 -0.1)">
      <defs>
       <path d="M 45.515625 34.671875 
L 14.453125 34.671875 
Q 12.359375 20.0625 14.5 13.875 
Q 17.1875 6.25 24.46875 6.25 
Q 31.78125 6.25 37.359375 13.921875 
Q 42.234375 20.65625 45.515625 34.671875 
z
M 47.015625 42.96875 
Q 48.34375 56.84375 46.625 61.71875 
Q 43.953125 69.4375 36.765625 69.4375 
Q 29.296875 69.4375 23.828125 61.8125 
Q 19.53125 55.671875 16.15625 42.96875 
z
M 38.1875 76.765625 
Q 49.90625 76.765625 54.59375 66.40625 
Q 59.28125 56.109375 55.71875 37.84375 
Q 52.203125 19.625 43.453125 9.28125 
Q 34.765625 -1.125 23.046875 -1.125 
Q 11.28125 -1.125 6.640625 9.28125 
Q 2 19.625 5.515625 37.84375 
Q 9.078125 56.109375 17.71875 66.40625 
Q 26.421875 76.765625 38.1875 76.765625 
z
" id="DejaVuSans-Oblique-952"/>
      </defs>
      <use transform="translate(0 0.234375)" xlink:href="#DejaVuSans-Oblique-952"/>
      <use transform="translate(61.181641 -16.171875)scale(0.7)" xlink:href="#DejaVuSans-48"/>
     </g>
    </g>
   </g>
   <g id="matplotlib.axis_2">
    <g id="ytick_1">
     <g id="line2d_6">
      <defs>
       <path d="M 0 0 
L -3.5 0 
" id="m05955f1273" style="stroke:#000000;stroke-width:0.8;"/>
      </defs>
      <g>
       <use style="stroke:#000000;stroke-width:0.8;" x="44.55" xlink:href="#m05955f1273" y="153.598684"/>
      </g>
     </g>
     <g id="text_7">
      <!-- 4 -->
      <g transform="translate(31.1875 157.397903)scale(0.1 -0.1)">
       <defs>
        <path d="M 37.796875 64.3125 
L 12.890625 25.390625 
L 37.796875 25.390625 
z
M 35.203125 72.90625 
L 47.609375 72.90625 
L 47.609375 25.390625 
L 58.015625 25.390625 
L 58.015625 17.1875 
L 47.609375 17.1875 
L 47.609375 0 
L 37.796875 0 
L 37.796875 17.1875 
L 4.890625 17.1875 
L 4.890625 26.703125 
z
" id="DejaVuSans-52"/>
       </defs>
       <use xlink:href="#DejaVuSans-52"/>
      </g>
     </g>
    </g>
    <g id="ytick_2">
     <g id="line2d_7">
      <g>
       <use style="stroke:#000000;stroke-width:0.8;" x="44.55" xlink:href="#m05955f1273" y="125.093363"/>
      </g>
     </g>
     <g id="text_8">
      <!-- 6 -->
      <g transform="translate(31.1875 128.892582)scale(0.1 -0.1)">
       <defs>
        <path d="M 33.015625 40.375 
Q 26.375 40.375 22.484375 35.828125 
Q 18.609375 31.296875 18.609375 23.390625 
Q 18.609375 15.53125 22.484375 10.953125 
Q 26.375 6.390625 33.015625 6.390625 
Q 39.65625 6.390625 43.53125 10.953125 
Q 47.40625 15.53125 47.40625 23.390625 
Q 47.40625 31.296875 43.53125 35.828125 
Q 39.65625 40.375 33.015625 40.375 
z
M 52.59375 71.296875 
L 52.59375 62.3125 
Q 48.875 64.0625 45.09375 64.984375 
Q 41.3125 65.921875 37.59375 65.921875 
Q 27.828125 65.921875 22.671875 59.328125 
Q 17.53125 52.734375 16.796875 39.40625 
Q 19.671875 43.65625 24.015625 45.921875 
Q 28.375 48.1875 33.59375 48.1875 
Q 44.578125 48.1875 50.953125 41.515625 
Q 57.328125 34.859375 57.328125 23.390625 
Q 57.328125 12.15625 50.6875 5.359375 
Q 44.046875 -1.421875 33.015625 -1.421875 
Q 20.359375 -1.421875 13.671875 8.265625 
Q 6.984375 17.96875 6.984375 36.375 
Q 6.984375 53.65625 15.1875 63.9375 
Q 23.390625 74.21875 37.203125 74.21875 
Q 40.921875 74.21875 44.703125 73.484375 
Q 48.484375 72.75 52.59375 71.296875 
z
" id="DejaVuSans-54"/>
       </defs>
       <use xlink:href="#DejaVuSans-54"/>
      </g>
     </g>
    </g>
    <g id="ytick_3">
     <g id="line2d_8">
      <g>
       <use style="stroke:#000000;stroke-width:0.8;" x="44.55" xlink:href="#m05955f1273" y="96.588042"/>
      </g>
     </g>
     <g id="text_9">
      <!-- 8 -->
      <g transform="translate(31.1875 100.387261)scale(0.1 -0.1)">
       <defs>
        <path d="M 31.78125 34.625 
Q 24.75 34.625 20.71875 30.859375 
Q 16.703125 27.09375 16.703125 20.515625 
Q 16.703125 13.921875 20.71875 10.15625 
Q 24.75 6.390625 31.78125 6.390625 
Q 38.8125 6.390625 42.859375 10.171875 
Q 46.921875 13.96875 46.921875 20.515625 
Q 46.921875 27.09375 42.890625 30.859375 
Q 38.875 34.625 31.78125 34.625 
z
M 21.921875 38.8125 
Q 15.578125 40.375 12.03125 44.71875 
Q 8.5 49.078125 8.5 55.328125 
Q 8.5 64.0625 14.71875 69.140625 
Q 20.953125 74.21875 31.78125 74.21875 
Q 42.671875 74.21875 48.875 69.140625 
Q 55.078125 64.0625 55.078125 55.328125 
Q 55.078125 49.078125 51.53125 44.71875 
Q 48 40.375 41.703125 38.8125 
Q 48.828125 37.15625 52.796875 32.3125 
Q 56.78125 27.484375 56.78125 20.515625 
Q 56.78125 9.90625 50.3125 4.234375 
Q 43.84375 -1.421875 31.78125 -1.421875 
Q 19.734375 -1.421875 13.25 4.234375 
Q 6.78125 9.90625 6.78125 20.515625 
Q 6.78125 27.484375 10.78125 32.3125 
Q 14.796875 37.15625 21.921875 38.8125 
z
M 18.3125 54.390625 
Q 18.3125 48.734375 21.84375 45.5625 
Q 25.390625 42.390625 31.78125 42.390625 
Q 38.140625 42.390625 41.71875 45.5625 
Q 45.3125 48.734375 45.3125 54.390625 
Q 45.3125 60.0625 41.71875 63.234375 
Q 38.140625 66.40625 31.78125 66.40625 
Q 25.390625 66.40625 21.84375 63.234375 
Q 18.3125 60.0625 18.3125 54.390625 
z
" id="DejaVuSans-56"/>
       </defs>
       <use xlink:href="#DejaVuSans-56"/>
      </g>
     </g>
    </g>
    <g id="ytick_4">
     <g id="line2d_9">
      <g>
       <use style="stroke:#000000;stroke-width:0.8;" x="44.55" xlink:href="#m05955f1273" y="68.082721"/>
      </g>
     </g>
     <g id="text_10">
      <!-- 10 -->
      <g transform="translate(24.825 71.881939)scale(0.1 -0.1)">
       <use xlink:href="#DejaVuSans-49"/>
       <use x="63.623047" xlink:href="#DejaVuSans-48"/>
      </g>
     </g>
    </g>
    <g id="ytick_5">
     <g id="line2d_10">
      <g>
       <use style="stroke:#000000;stroke-width:0.8;" x="44.55" xlink:href="#m05955f1273" y="39.577399"/>
      </g>
     </g>
     <g id="text_11">
      <!-- 12 -->
      <g transform="translate(24.825 43.376618)scale(0.1 -0.1)">
       <use xlink:href="#DejaVuSans-49"/>
       <use x="63.623047" xlink:href="#DejaVuSans-50"/>
      </g>
     </g>
    </g>
    <g id="text_12">
     <!-- Posterior -->
     <g transform="translate(18.745313 124.59375)rotate(-90)scale(0.1 -0.1)">
      <defs>
       <path d="M 19.671875 64.796875 
L 19.671875 37.40625 
L 32.078125 37.40625 
Q 38.96875 37.40625 42.71875 40.96875 
Q 46.484375 44.53125 46.484375 51.125 
Q 46.484375 57.671875 42.71875 61.234375 
Q 38.96875 64.796875 32.078125 64.796875 
z
M 9.8125 72.90625 
L 32.078125 72.90625 
Q 44.34375 72.90625 50.609375 67.359375 
Q 56.890625 61.8125 56.890625 51.125 
Q 56.890625 40.328125 50.609375 34.8125 
Q 44.34375 29.296875 32.078125 29.296875 
L 19.671875 29.296875 
L 19.671875 0 
L 9.8125 0 
z
" id="DejaVuSans-80"/>
       <path d="M 30.609375 48.390625 
Q 23.390625 48.390625 19.1875 42.75 
Q 14.984375 37.109375 14.984375 27.296875 
Q 14.984375 17.484375 19.15625 11.84375 
Q 23.34375 6.203125 30.609375 6.203125 
Q 37.796875 6.203125 41.984375 11.859375 
Q 46.1875 17.53125 46.1875 27.296875 
Q 46.1875 37.015625 41.984375 42.703125 
Q 37.796875 48.390625 30.609375 48.390625 
z
M 30.609375 56 
Q 42.328125 56 49.015625 48.375 
Q 55.71875 40.765625 55.71875 27.296875 
Q 55.71875 13.875 49.015625 6.21875 
Q 42.328125 -1.421875 30.609375 -1.421875 
Q 18.84375 -1.421875 12.171875 6.21875 
Q 5.515625 13.875 5.515625 27.296875 
Q 5.515625 40.765625 12.171875 48.375 
Q 18.84375 56 30.609375 56 
z
" id="DejaVuSans-111"/>
       <path d="M 44.28125 53.078125 
L 44.28125 44.578125 
Q 40.484375 46.53125 36.375 47.5 
Q 32.28125 48.484375 27.875 48.484375 
Q 21.1875 48.484375 17.84375 46.4375 
Q 14.5 44.390625 14.5 40.28125 
Q 14.5 37.15625 16.890625 35.375 
Q 19.28125 33.59375 26.515625 31.984375 
L 29.59375 31.296875 
Q 39.15625 29.25 43.1875 25.515625 
Q 47.21875 21.78125 47.21875 15.09375 
Q 47.21875 7.46875 41.1875 3.015625 
Q 35.15625 -1.421875 24.609375 -1.421875 
Q 20.21875 -1.421875 15.453125 -0.5625 
Q 10.6875 0.296875 5.421875 2 
L 5.421875 11.28125 
Q 10.40625 8.6875 15.234375 7.390625 
Q 20.0625 6.109375 24.8125 6.109375 
Q 31.15625 6.109375 34.5625 8.28125 
Q 37.984375 10.453125 37.984375 14.40625 
Q 37.984375 18.0625 35.515625 20.015625 
Q 33.0625 21.96875 24.703125 23.78125 
L 21.578125 24.515625 
Q 13.234375 26.265625 9.515625 29.90625 
Q 5.8125 33.546875 5.8125 39.890625 
Q 5.8125 47.609375 11.28125 51.796875 
Q 16.75 56 26.8125 56 
Q 31.78125 56 36.171875 55.265625 
Q 40.578125 54.546875 44.28125 53.078125 
z
" id="DejaVuSans-115"/>
       <path d="M 18.3125 70.21875 
L 18.3125 54.6875 
L 36.8125 54.6875 
L 36.8125 47.703125 
L 18.3125 47.703125 
L 18.3125 18.015625 
Q 18.3125 11.328125 20.140625 9.421875 
Q 21.96875 7.515625 27.59375 7.515625 
L 36.8125 7.515625 
L 36.8125 0 
L 27.59375 0 
Q 17.1875 0 13.234375 3.875 
Q 9.28125 7.765625 9.28125 18.015625 
L 9.28125 47.703125 
L 2.6875 47.703125 
L 2.6875 54.6875 
L 9.28125 54.6875 
L 9.28125 70.21875 
z
" id="DejaVuSans-116"/>
       <path d="M 56.203125 29.59375 
L 56.203125 25.203125 
L 14.890625 25.203125 
Q 15.484375 15.921875 20.484375 11.0625 
Q 25.484375 6.203125 34.421875 6.203125 
Q 39.59375 6.203125 44.453125 7.46875 
Q 49.3125 8.734375 54.109375 11.28125 
L 54.109375 2.78125 
Q 49.265625 0.734375 44.1875 -0.34375 
Q 39.109375 -1.421875 33.890625 -1.421875 
Q 20.796875 -1.421875 13.15625 6.1875 
Q 5.515625 13.8125 5.515625 26.8125 
Q 5.515625 40.234375 12.765625 48.109375 
Q 20.015625 56 32.328125 56 
Q 43.359375 56 49.78125 48.890625 
Q 56.203125 41.796875 56.203125 29.59375 
z
M 47.21875 32.234375 
Q 47.125 39.59375 43.09375 43.984375 
Q 39.0625 48.390625 32.421875 48.390625 
Q 24.90625 48.390625 20.390625 44.140625 
Q 15.875 39.890625 15.1875 32.171875 
z
" id="DejaVuSans-101"/>
       <path d="M 41.109375 46.296875 
Q 39.59375 47.171875 37.8125 47.578125 
Q 36.03125 48 33.890625 48 
Q 26.265625 48 22.1875 43.046875 
Q 18.109375 38.09375 18.109375 28.8125 
L 18.109375 0 
L 9.078125 0 
L 9.078125 54.6875 
L 18.109375 54.6875 
L 18.109375 46.1875 
Q 20.953125 51.171875 25.484375 53.578125 
Q 30.03125 56 36.53125 56 
Q 37.453125 56 38.578125 55.875 
Q 39.703125 55.765625 41.0625 55.515625 
z
" id="DejaVuSans-114"/>
       <path d="M 9.421875 54.6875 
L 18.40625 54.6875 
L 18.40625 0 
L 9.421875 0 
z
M 9.421875 75.984375 
L 18.40625 75.984375 
L 18.40625 64.59375 
L 9.421875 64.59375 
z
" id="DejaVuSans-105"/>
      </defs>
      <use xlink:href="#DejaVuSans-80"/>
      <use x="56.677734" xlink:href="#DejaVuSans-111"/>
      <use x="117.859375" xlink:href="#DejaVuSans-115"/>
      <use x="169.958984" xlink:href="#DejaVuSans-116"/>
      <use x="209.167969" xlink:href="#DejaVuSans-101"/>
      <use x="270.691406" xlink:href="#DejaVuSans-114"/>
      <use x="311.804688" xlink:href="#DejaVuSans-105"/>
      <use x="339.587891" xlink:href="#DejaVuSans-111"/>
      <use x="400.769531" xlink:href="#DejaVuSans-114"/>
     </g>
    </g>
   </g>
   <g id="line2d_11">
    <path clip-path="url(#p4ac65f924d)" d="M 44.55 143.867994 
L 48.605895 122.030107 
L 50.859169 111.126668 
L 52.661789 103.412795 
L 54.464409 96.715339 
L 56.267029 91.052352 
L 57.618994 87.451573 
L 58.970959 84.354796 
L 60.322924 81.702396 
L 62.125543 78.739831 
L 63.928163 76.279676 
L 66.181438 73.666544 
L 70.237333 69.471134 
L 73.842572 65.61326 
L 77.447812 61.393921 
L 84.658292 52.796685 
L 87.812876 49.47025 
L 90.516806 46.92815 
L 93.220736 44.68513 
L 95.474011 43.087002 
L 97.27663 42.042061 
L 99.07925 41.26936 
L 100.431215 40.910245 
L 101.78318 40.772727 
L 103.135145 40.883133 
L 104.48711 41.262385 
L 105.839075 41.92411 
L 107.19104 42.873356 
L 108.543004 44.10596 
L 109.894969 45.608461 
L 111.697589 47.991636 
L 113.500209 50.737668 
L 116.204139 55.313357 
L 121.161343 63.797867 
L 122.963963 66.442937 
L 124.315928 68.138218 
L 125.667893 69.53579 
L 127.019858 70.603773 
L 128.371823 71.325873 
L 129.723788 71.70338 
L 131.075753 71.755945 
L 132.427717 71.520915 
L 133.779682 71.05121 
L 135.582302 70.173556 
L 140.088852 67.807006 
L 141.440817 67.334833 
L 142.792781 67.071808 
L 144.144746 67.054811 
L 145.496711 67.307831 
L 146.848676 67.84299 
L 148.200641 68.662429 
L 149.552606 69.760745 
L 150.904571 71.127686 
L 152.707191 73.346651 
L 154.50981 75.993329 
L 156.31243 79.048858 
L 158.11505 82.508705 
L 159.91767 86.384844 
L 161.72029 90.704539 
L 163.52291 95.505719 
L 165.32553 100.829248 
L 167.578804 108.267861 
L 169.832079 116.595655 
L 172.085354 125.756889 
L 175.239939 139.66758 
L 179.295833 158.236231 
L 179.295833 158.236231 
" style="fill:none;stroke:#1f77b4;stroke-linecap:square;stroke-width:1.5;"/>
   </g>
   <g id="line2d_12">
    <path clip-path="url(#p4ac65f924d)" d="M 98.448333 170.4 
L 98.448333 34.6 
" style="fill:none;stroke:#808080;stroke-dasharray:1.5,2.475;stroke-dashoffset:0;stroke-width:1.5;"/>
   </g>
   <g id="line2d_13">
    <path clip-path="url(#p4ac65f924d)" d="M 44.55 142.424458 
L 50.859169 105.092385 
L 53.112444 93.353608 
L 54.915064 85.058319 
L 56.717684 77.864461 
L 58.069649 73.219381 
L 59.421614 69.211574 
L 60.773579 65.815999 
L 62.125543 62.992632 
L 63.477508 60.689779 
L 64.829473 58.847362 
L 66.181438 57.400022 
L 67.533403 56.279943 
L 68.885368 55.419353 
L 70.687988 54.562847 
L 73.391918 53.617788 
L 77.447812 52.240029 
L 80.151742 51.037904 
L 82.855672 49.574684 
L 88.714186 46.285818 
L 90.516806 45.528198 
L 92.319426 44.998146 
L 94.122046 44.72558 
L 95.924666 44.711725 
L 97.727285 44.928873 
L 99.98056 45.442989 
L 106.740385 47.213791 
L 108.993659 47.450045 
L 111.246934 47.408648 
L 113.500209 47.131196 
L 118.908069 46.301558 
L 120.710688 46.324713 
L 122.062653 46.555163 
L 123.414618 47.014627 
L 124.766583 47.736961 
L 126.118548 48.746208 
L 127.470513 50.054818 
L 128.822478 51.662673 
L 130.625098 54.248203 
L 132.427717 57.279851 
L 134.680992 61.557354 
L 138.286232 69.032223 
L 143.694091 80.248417 
L 147.299331 87.178818 
L 151.355226 94.478237 
L 163.072255 115.19619 
L 165.32553 119.822075 
L 167.578804 125.02831 
L 169.381424 129.728445 
L 171.184044 134.969388 
L 173.437319 142.294939 
L 176.141249 152.066748 
L 179.295833 164.227273 
L 179.295833 164.227273 
" style="fill:none;stroke:#ff7f0e;stroke-linecap:square;stroke-width:1.5;"/>
   </g>
   <g id="line2d_14">
    <path clip-path="url(#p4ac65f924d)" d="M 98.448333 170.4 
L 98.448333 34.6 
" style="fill:none;stroke:#808080;stroke-dasharray:1.5,2.475;stroke-dashoffset:0;stroke-width:1.5;"/>
   </g>
   <g id="line2d_15">
    <path clip-path="url(#p4ac65f924d)" d="M 44.55 145.734272 
L 48.15524 129.449982 
L 50.408514 120.180446 
L 52.661789 111.800225 
L 54.915064 104.293001 
L 57.168339 97.541903 
L 59.872269 90.234183 
L 62.576198 83.631154 
L 64.829473 78.655376 
L 67.082748 74.243862 
L 68.885368 71.208739 
L 70.237333 69.267272 
L 71.589298 67.641236 
L 72.941263 66.348319 
L 74.293227 65.396454 
L 75.645192 64.782306 
L 76.997157 64.490534 
L 78.349122 64.493787 
L 79.701087 64.75338 
L 81.053052 65.220583 
L 82.855672 66.067174 
L 87.362221 68.356189 
L 89.164841 68.947946 
L 90.516806 69.153805 
L 91.868771 69.116685 
L 93.220736 68.816784 
L 94.572701 68.249613 
L 95.924666 67.426026 
L 97.27663 66.371172 
L 99.07925 64.670958 
L 101.78318 61.727259 
L 105.839075 57.262793 
L 108.092349 55.145092 
L 109.894969 53.752033 
L 111.697589 52.656893 
L 113.500209 51.862494 
L 115.302829 51.356396 
L 117.105449 51.119115 
L 118.908069 51.13025 
L 120.710688 51.371056 
L 122.513308 51.823202 
L 124.766583 52.65124 
L 127.470513 53.943028 
L 134.680992 57.606346 
L 136.934267 58.386182 
L 139.187542 58.904302 
L 142.342127 59.331435 
L 145.046056 59.720453 
L 146.848676 60.182395 
L 148.200641 60.715232 
L 149.552606 61.456058 
L 150.904571 62.442065 
L 152.256536 63.703385 
L 153.608501 65.262702 
L 154.960465 67.135608 
L 156.31243 69.331567 
L 158.11505 72.769675 
L 159.91767 76.792986 
L 161.72029 81.399983 
L 163.52291 86.588562 
L 165.32553 92.356728 
L 167.578804 100.374028 
L 169.832079 109.257968 
L 172.536009 120.948302 
L 175.690594 135.644879 
L 179.295833 152.919529 
L 179.295833 152.919529 
" style="fill:none;stroke:#2ca02c;stroke-linecap:square;stroke-width:1.5;"/>
   </g>
   <g id="line2d_16">
    <path clip-path="url(#p4ac65f924d)" d="M 98.448333 170.4 
L 98.448333 34.6 
" style="fill:none;stroke:#808080;stroke-dasharray:1.5,2.475;stroke-dashoffset:0;stroke-width:1.5;"/>
   </g>
   <g id="line2d_17">
    <path clip-path="url(#p4ac65f924d)" d="M 44.55 145.356083 
L 49.95786 117.199528 
L 52.211134 106.772903 
L 54.013754 99.434213 
L 55.816374 93.150543 
L 57.168339 89.183925 
L 58.520304 85.872697 
L 59.872269 83.210096 
L 61.224234 81.171436 
L 62.125543 80.139467 
L 63.026853 79.351484 
L 63.928163 78.789604 
L 64.829473 78.433943 
L 65.730783 78.262997 
L 67.082748 78.302933 
L 68.434713 78.627248 
L 70.237333 79.362078 
L 76.095847 82.132254 
L 77.898467 82.597838 
L 79.250432 82.735598 
L 80.602397 82.677535 
L 81.954362 82.421807 
L 83.306327 81.975275 
L 85.108946 81.107319 
L 86.911566 79.969292 
L 89.164841 78.246137 
L 91.868771 75.876023 
L 99.529905 68.928361 
L 101.78318 67.305025 
L 103.5858 66.299907 
L 104.937765 65.751389 
L 106.28973 65.394345 
L 107.641695 65.233049 
L 108.993659 65.261133 
L 110.796279 65.560628 
L 113.049554 66.246794 
L 118.006759 67.926197 
L 119.809378 68.196961 
L 121.161343 68.172261 
L 122.513308 67.918941 
L 123.865273 67.421416 
L 125.217238 66.67866 
L 126.569203 65.704271 
L 128.371823 64.09376 
L 130.625098 61.721679 
L 136.032957 55.83949 
L 137.835577 54.266139 
L 139.187542 53.316144 
L 140.539507 52.589216 
L 141.891472 52.096028 
L 143.243436 51.836083 
L 144.595401 51.799143 
L 145.947366 51.96746 
L 147.749986 52.472176 
L 149.552606 53.246354 
L 151.355226 54.244247 
L 153.608501 55.773907 
L 155.41112 57.240549 
L 157.21374 58.982369 
L 159.01636 61.094026 
L 160.368325 62.995131 
L 161.72029 65.235151 
L 163.072255 67.877136 
L 164.42422 70.982177 
L 165.776185 74.604752 
L 167.128149 78.78801 
L 168.480114 83.559345 
L 170.282734 90.846287 
L 172.085354 99.146045 
L 174.338629 110.755904 
L 177.042559 125.965105 
L 179.295833 139.079561 
L 179.295833 139.079561 
" style="fill:none;stroke:#d62728;stroke-linecap:square;stroke-width:1.5;"/>
   </g>
   <g id="line2d_18">
    <path clip-path="url(#p4ac65f924d)" d="M 98.448333 170.4 
L 98.448333 34.6 
" style="fill:none;stroke:#808080;stroke-dasharray:1.5,2.475;stroke-dashoffset:0;stroke-width:1.5;"/>
   </g>
   <g id="line2d_19">
    <path clip-path="url(#p4ac65f924d)" d="M 44.55 142.102139 
L 48.15524 124.662219 
L 50.408514 114.810465 
L 52.211134 107.814128 
L 54.013754 101.729993 
L 55.365719 97.79671 
L 56.717684 94.402359 
L 58.069649 91.52746 
L 59.421614 89.138315 
L 60.773579 87.19029 
L 62.125543 85.631213 
L 63.477508 84.404617 
L 64.829473 83.452647 
L 66.632093 82.512802 
L 68.434713 81.835 
L 71.589298 80.958345 
L 75.645192 79.835252 
L 78.349122 78.874887 
L 81.503707 77.517485 
L 88.714186 74.280535 
L 90.967461 73.548084 
L 93.220736 73.072633 
L 95.023356 72.905217 
L 96.825975 72.935156 
L 98.628595 73.154587 
L 100.88187 73.657479 
L 104.036455 74.629839 
L 107.641695 75.713311 
L 109.444314 76.061069 
L 111.246934 76.180092 
L 112.598899 76.082544 
L 113.950864 75.804065 
L 115.302829 75.333989 
L 116.654794 74.669949 
L 118.457414 73.49484 
L 120.260033 72.024744 
L 122.513308 69.867282 
L 130.625098 61.64993 
L 132.427717 60.23589 
L 134.230337 59.087581 
L 136.032957 58.215452 
L 137.835577 57.606489 
L 139.638197 57.228716 
L 141.891472 57.01395 
L 144.595401 57.01238 
L 148.200641 57.249778 
L 151.355226 57.636683 
L 153.608501 58.099183 
L 155.41112 58.671254 
L 157.21374 59.517094 
L 158.565705 60.395168 
L 159.91767 61.538997 
L 161.269635 63.004334 
L 162.6216 64.849474 
L 163.973565 67.13306 
L 165.32553 69.911235 
L 166.677494 73.234223 
L 168.029459 77.142479 
L 169.381424 81.662688 
L 171.184044 88.654409 
L 172.986664 96.711192 
L 174.789284 105.723333 
L 177.042559 118.047624 
L 179.295833 131.083675 
L 179.295833 131.083675 
" style="fill:none;stroke:#9467bd;stroke-linecap:square;stroke-width:1.5;"/>
   </g>
   <g id="line2d_20">
    <path clip-path="url(#p4ac65f924d)" d="M 98.448333 170.4 
L 98.448333 34.6 
" style="fill:none;stroke:#808080;stroke-dasharray:1.5,2.475;stroke-dashoffset:0;stroke-width:1.5;"/>
   </g>
   <g id="line2d_21">
    <path clip-path="url(#p4ac65f924d)" d="M 44.55 158.422969 
L 49.95786 133.847433 
L 53.112444 120.081156 
L 55.365719 111.051283 
L 57.618994 102.910447 
L 59.421614 97.122688 
L 61.224234 92.02324 
L 63.026853 87.635857 
L 64.378818 84.820164 
L 65.730783 82.412996 
L 67.082748 80.411671 
L 68.434713 78.808789 
L 69.786678 77.590901 
L 71.138643 76.737051 
L 72.490608 76.217481 
L 73.842572 75.992831 
L 75.194537 76.014111 
L 76.997157 76.324353 
L 83.306327 77.800378 
L 84.658292 77.803403 
L 86.010256 77.61091 
L 87.362221 77.21602 
L 89.164841 76.397746 
L 90.967461 75.318811 
L 96.375321 71.827379 
L 97.727285 71.21742 
L 99.07925 70.813687 
L 100.431215 70.643884 
L 101.78318 70.71819 
L 103.135145 71.028476 
L 104.48711 71.548949 
L 106.28973 72.496299 
L 112.148244 75.933533 
L 113.500209 76.431174 
L 114.852174 76.70968 
L 116.204139 76.740041 
L 117.556104 76.50862 
L 118.908069 76.017223 
L 120.260033 75.281967 
L 122.062653 73.972487 
L 123.865273 72.371386 
L 127.019858 69.182913 
L 131.526407 64.639203 
L 134.230337 62.255136 
L 136.934267 60.195924 
L 139.638197 58.42225 
L 142.792781 56.621824 
L 146.848676 54.587511 
L 150.904571 52.801052 
L 153.608501 51.821964 
L 155.41112 51.350585 
L 157.21374 51.120645 
L 158.565705 51.177273 
L 159.91767 51.499044 
L 160.81898 51.896164 
L 161.72029 52.466287 
L 162.6216 53.233631 
L 163.52291 54.222854 
L 164.42422 55.458425 
L 165.32553 56.963935 
L 166.677494 59.775722 
L 168.029459 63.306825 
L 169.381424 67.602384 
L 170.733389 72.684335 
L 172.085354 78.547257 
L 173.887974 87.513768 
L 175.690594 97.634277 
L 177.943868 111.50994 
L 179.295833 120.241455 
L 179.295833 120.241455 
" style="fill:none;stroke:#8c564b;stroke-linecap:square;stroke-width:1.5;"/>
   </g>
   <g id="line2d_22">
    <path clip-path="url(#p4ac65f924d)" d="M 98.448333 170.4 
L 98.448333 34.6 
" style="fill:none;stroke:#808080;stroke-dasharray:1.5,2.475;stroke-dashoffset:0;stroke-width:1.5;"/>
   </g>
   <g id="line2d_23">
    <path clip-path="url(#p4ac65f924d)" d="M 44.55 137.862449 
L 48.605895 117.358011 
L 50.859169 107.032234 
L 52.661789 99.64404 
L 54.464409 93.168016 
L 56.267029 87.671366 
L 57.618994 84.20122 
L 58.970959 81.277261 
L 60.322924 78.873082 
L 61.674889 76.951125 
L 63.026853 75.465121 
L 64.378818 74.362507 
L 65.730783 73.586708 
L 67.082748 73.079234 
L 68.434713 72.781592 
L 70.237333 72.6135 
L 73.391918 72.609706 
L 76.546502 72.539381 
L 78.799777 72.277826 
L 81.503707 71.70131 
L 88.263531 70.032399 
L 90.066151 69.92441 
L 91.418116 70.033832 
L 92.770081 70.333589 
L 94.122046 70.839139 
L 95.474011 71.556543 
L 96.825975 72.482105 
L 98.628595 74.015995 
L 100.431215 75.84145 
L 103.135145 78.959751 
L 109.444314 86.489733 
L 111.697589 88.799258 
L 113.950864 90.754019 
L 115.753484 92.029307 
L 117.556104 93.030929 
L 119.358724 93.746012 
L 121.161343 94.160072 
L 122.513308 94.262131 
L 123.865273 94.175243 
L 125.217238 93.889318 
L 126.569203 93.394424 
L 127.921168 92.682016 
L 129.273133 91.746307 
L 130.625098 90.585644 
L 132.427717 88.695461 
L 134.230337 86.439124 
L 136.483612 83.179145 
L 139.187542 78.812433 
L 145.046056 69.137821 
L 147.299331 65.899048 
L 149.101951 63.670835 
L 150.904571 61.823139 
L 152.256536 60.707571 
L 153.608501 59.832829 
L 154.960465 59.203413 
L 156.31243 58.8225 
L 157.664395 58.69433 
L 159.01636 58.826677 
L 160.368325 59.23313 
L 161.72029 59.934865 
L 163.072255 60.961651 
L 164.42422 62.351805 
L 165.776185 64.150968 
L 167.128149 66.409628 
L 168.480114 69.179507 
L 169.832079 72.509031 
L 171.184044 76.438263 
L 172.536009 80.993762 
L 174.338629 88.053327 
L 176.141249 96.196776 
L 178.394523 107.711953 
L 179.295833 112.655672 
L 179.295833 112.655672 
" style="fill:none;stroke:#e377c2;stroke-linecap:square;stroke-width:1.5;"/>
   </g>
   <g id="line2d_24">
    <path clip-path="url(#p4ac65f924d)" d="M 98.448333 170.4 
L 98.448333 34.6 
" style="fill:none;stroke:#808080;stroke-dasharray:1.5,2.475;stroke-dashoffset:0;stroke-width:1.5;"/>
   </g>
   <g id="line2d_25">
    <path clip-path="url(#p4ac65f924d)" d="M 44.55 145.156469 
L 50.408514 113.887078 
L 52.661789 103.133005 
L 54.464409 95.487127 
L 56.267029 88.840707 
L 57.618994 84.557159 
L 58.970959 80.884471 
L 60.322924 77.811312 
L 61.674889 75.309884 
L 63.026853 73.338626 
L 64.378818 71.845401 
L 65.730783 70.77093 
L 67.082748 70.052258 
L 68.434713 69.626006 
L 69.786678 69.431229 
L 71.589298 69.435371 
L 73.842572 69.706837 
L 85.108946 71.49517 
L 89.164841 71.731256 
L 93.220736 71.725576 
L 96.825975 71.492369 
L 100.431215 71.027341 
L 105.38842 70.117351 
L 110.796279 69.170026 
L 114.401519 68.786043 
L 118.006759 68.639382 
L 123.414618 68.695179 
L 130.625098 68.743595 
L 136.934267 68.529778 
L 141.440817 68.182911 
L 144.144746 67.786487 
L 146.848676 67.154676 
L 149.552606 66.26213 
L 155.41112 64.138038 
L 156.763085 63.902368 
L 158.11505 63.903973 
L 159.01636 64.076601 
L 159.91767 64.415152 
L 160.81898 64.944198 
L 161.72029 65.687717 
L 162.6216 66.668545 
L 163.52291 67.907825 
L 164.42422 69.424459 
L 165.776185 72.253883 
L 167.128149 75.783195 
L 168.480114 80.032989 
L 169.832079 85.001618 
L 171.634699 92.697014 
L 173.437319 101.494477 
L 175.690594 113.729909 
L 179.295833 134.891695 
L 179.295833 134.891695 
" style="fill:none;stroke:#7f7f7f;stroke-linecap:square;stroke-width:1.5;"/>
   </g>
   <g id="line2d_26">
    <path clip-path="url(#p4ac65f924d)" d="M 98.448333 170.4 
L 98.448333 34.6 
" style="fill:none;stroke:#808080;stroke-dasharray:1.5,2.475;stroke-dashoffset:0;stroke-width:1.5;"/>
   </g>
   <g id="line2d_27">
    <path clip-path="url(#p4ac65f924d)" d="M 44.55 134.085194 
L 47.704585 117.899237 
L 49.95786 107.467513 
L 51.760479 100.099543 
L 53.563099 93.735498 
L 54.915064 89.657727 
L 56.267029 86.179582 
L 57.618994 83.286354 
L 58.970959 80.949639 
L 60.322924 79.13032 
L 61.674889 77.781459 
L 63.026853 76.850916 
L 64.378818 76.283608 
L 65.730783 76.023367 
L 67.082748 76.014493 
L 68.434713 76.203052 
L 70.237333 76.673989 
L 73.391918 77.80623 
L 77.447812 79.252853 
L 80.151742 79.99546 
L 83.306327 80.616462 
L 87.812876 81.235354 
L 93.220736 81.775638 
L 95.924666 81.844817 
L 98.17794 81.687533 
L 99.98056 81.374809 
L 101.78318 80.874332 
L 104.036455 79.982234 
L 106.28973 78.827849 
L 109.444314 76.914719 
L 115.302829 73.284137 
L 118.457414 71.649119 
L 122.062653 70.074188 
L 127.470513 67.733259 
L 130.174443 66.306503 
L 133.329027 64.35948 
L 140.088852 60.009148 
L 141.891472 59.115402 
L 143.694091 58.45182 
L 145.496711 58.063473 
L 146.848676 57.970973 
L 148.200641 58.05622 
L 149.552606 58.320793 
L 150.904571 58.762719 
L 152.707191 59.62088 
L 154.50981 60.778341 
L 156.31243 62.234568 
L 158.11505 64.005766 
L 159.91767 66.131363 
L 161.72029 68.677021 
L 163.52291 71.732898 
L 164.874875 74.423968 
L 166.226839 77.510271 
L 167.578804 81.037485 
L 169.381424 86.492434 
L 171.184044 92.859971 
L 172.986664 100.149104 
L 174.789284 108.30529 
L 177.042559 119.526229 
L 179.295833 131.526541 
L 179.295833 131.526541 
" style="fill:none;stroke:#bcbd22;stroke-linecap:square;stroke-width:1.5;"/>
   </g>
   <g id="line2d_28">
    <path clip-path="url(#p4ac65f924d)" d="M 98.448333 170.4 
L 98.448333 34.6 
" style="fill:none;stroke:#808080;stroke-dasharray:1.5,2.475;stroke-dashoffset:0;stroke-width:1.5;"/>
   </g>
   <g id="line2d_29">
    <path clip-path="url(#p4ac65f924d)" d="M 44.55 138.174858 
L 47.704585 122.497976 
L 49.95786 112.374505 
L 51.760479 105.194014 
L 53.563099 98.937247 
L 55.365719 93.629565 
L 56.717684 90.251617 
L 58.069649 87.353852 
L 59.421614 84.890586 
L 60.773579 82.808567 
L 62.125543 81.050777 
L 63.928163 79.112513 
L 65.730783 77.520604 
L 67.984058 75.849297 
L 71.138643 73.817631 
L 76.095847 70.897034 
L 79.250432 69.258402 
L 81.503707 68.318546 
L 83.306327 67.767273 
L 85.108946 67.42865 
L 86.911566 67.31871 
L 88.714186 67.43585 
L 90.516806 67.761055 
L 92.770081 68.40769 
L 95.924666 69.600087 
L 101.332525 71.707786 
L 103.5858 72.364775 
L 105.839075 72.780656 
L 107.641695 72.897376 
L 109.444314 72.791723 
L 111.246934 72.440405 
L 113.049554 71.826301 
L 114.852174 70.941073 
L 116.654794 69.788548 
L 118.457414 68.388399 
L 120.710688 66.351042 
L 128.371823 58.994348 
L 130.174443 57.747428 
L 131.526407 57.06694 
L 132.878372 56.638956 
L 134.230337 56.483009 
L 135.582302 56.606422 
L 136.934267 57.003385 
L 138.286232 57.654904 
L 139.638197 58.529709 
L 141.440817 59.970216 
L 144.144746 62.47222 
L 147.749986 65.797192 
L 150.003261 67.565688 
L 152.256536 69.018418 
L 155.41112 70.708797 
L 157.664395 71.993257 
L 159.01636 72.954799 
L 160.368325 74.160094 
L 161.72029 75.692241 
L 163.072255 77.629808 
L 164.42422 80.042467 
L 165.776185 82.987073 
L 167.128149 86.504353 
L 168.480114 90.616336 
L 169.832079 95.324604 
L 171.634699 102.49269 
L 173.437319 110.578304 
L 175.690594 121.716451 
L 179.295833 140.853369 
L 179.295833 140.853369 
" style="fill:none;stroke:#17becf;stroke-linecap:square;stroke-width:1.5;"/>
   </g>
   <g id="line2d_30">
    <path clip-path="url(#p4ac65f924d)" d="M 98.448333 170.4 
L 98.448333 34.6 
" style="fill:none;stroke:#808080;stroke-dasharray:1.5,2.475;stroke-dashoffset:0;stroke-width:1.5;"/>
   </g>
   <g id="line2d_31">
    <path clip-path="url(#p4ac65f924d)" d="M 44.55 128.760676 
L 48.15524 107.66646 
L 50.408514 95.818069 
L 52.211134 87.438176 
L 54.013754 80.163828 
L 55.365719 75.452616 
L 56.717684 71.361749 
L 58.069649 67.852859 
L 59.421614 64.872822 
L 60.773579 62.359918 
L 62.125543 60.250022 
L 63.477508 58.482286 
L 64.829473 57.00384 
L 66.632093 55.41271 
L 68.434713 54.201865 
L 69.786678 53.529621 
L 71.138643 53.063469 
L 72.490608 52.815483 
L 73.842572 52.801628 
L 75.194537 53.037678 
L 76.546502 53.535264 
L 77.898467 54.298428 
L 79.250432 55.321004 
L 80.602397 56.585092 
L 82.405017 58.592812 
L 84.658292 61.473258 
L 90.066151 68.605605 
L 91.868771 70.613883 
L 93.671391 72.292768 
L 95.474011 73.611185 
L 97.27663 74.575842 
L 99.07925 75.223471 
L 100.88187 75.609033 
L 103.135145 75.813471 
L 105.839075 75.780852 
L 108.993659 75.481178 
L 111.697589 75.023059 
L 114.401519 74.358377 
L 117.105449 73.475206 
L 120.260033 72.198253 
L 124.766583 70.085748 
L 130.174443 67.57059 
L 132.878372 66.55649 
L 135.131647 65.961133 
L 136.934267 65.707321 
L 138.736887 65.693214 
L 140.539507 65.949473 
L 142.342127 66.495348 
L 144.144746 67.336613 
L 145.947366 68.46566 
L 147.749986 69.863964 
L 150.003261 71.952649 
L 152.256536 74.377036 
L 154.50981 77.112576 
L 156.763085 80.175939 
L 159.01636 83.63734 
L 160.81898 86.775156 
L 162.6216 90.330221 
L 164.42422 94.39443 
L 166.226839 99.055962 
L 168.029459 104.385367 
L 169.832079 110.421486 
L 171.634699 117.159308 
L 173.887974 126.476367 
L 176.591904 138.649743 
L 179.295833 151.323649 
L 179.295833 151.323649 
" style="fill:none;stroke:#1f77b4;stroke-linecap:square;stroke-width:1.5;"/>
   </g>
   <g id="line2d_32">
    <path clip-path="url(#p4ac65f924d)" d="M 98.448333 170.4 
L 98.448333 34.6 
" style="fill:none;stroke:#808080;stroke-dasharray:1.5,2.475;stroke-dashoffset:0;stroke-width:1.5;"/>
   </g>
   <g id="line2d_33">
    <path clip-path="url(#p4ac65f924d)" d="M 44.55 141.142814 
L 50.408514 109.95708 
L 53.112444 96.97997 
L 55.365719 87.336655 
L 57.168339 80.498107 
L 58.970959 74.483808 
L 60.773579 69.311268 
L 62.125543 65.984724 
L 63.477508 63.126213 
L 64.829473 60.725581 
L 66.181438 58.768041 
L 67.533403 57.233936 
L 68.885368 56.098575 
L 70.237333 55.3323 
L 71.589298 54.900916 
L 72.941263 54.766504 
L 74.293227 54.888582 
L 75.645192 55.225516 
L 77.447812 55.937859 
L 79.701087 57.122744 
L 83.306327 59.344997 
L 88.263531 62.366332 
L 91.418116 64.015026 
L 94.122046 65.189709 
L 96.825975 66.117435 
L 99.07925 66.685321 
L 101.332525 67.048866 
L 103.5858 67.186487 
L 105.839075 67.073868 
L 108.092349 66.690093 
L 110.345624 66.027647 
L 112.598899 65.104281 
L 115.302829 63.7296 
L 121.161343 60.621328 
L 122.963963 59.929694 
L 124.766583 59.492046 
L 126.118548 59.365675 
L 127.470513 59.432646 
L 128.822478 59.704751 
L 130.174443 60.187947 
L 131.526407 60.883 
L 132.878372 61.78644 
L 134.680992 63.30339 
L 136.483612 65.157287 
L 138.286232 67.322026 
L 140.539507 70.417368 
L 143.243436 74.596013 
L 151.805881 88.378835 
L 153.608501 90.65851 
L 154.960465 92.087815 
L 156.31243 93.260281 
L 157.664395 94.183734 
L 159.467015 95.087055 
L 162.170945 96.068564 
L 163.973565 96.821351 
L 165.32553 97.644726 
L 166.226839 98.389376 
L 167.128149 99.334299 
L 168.029459 100.514021 
L 168.930769 101.959075 
L 170.282734 104.677975 
L 171.634699 108.108181 
L 172.986664 112.271635 
L 174.338629 117.150694 
L 176.141249 124.665617 
L 178.394523 135.339112 
L 179.295833 139.879664 
L 179.295833 139.879664 
" style="fill:none;stroke:#ff7f0e;stroke-linecap:square;stroke-width:1.5;"/>
   </g>
   <g id="line2d_34">
    <path clip-path="url(#p4ac65f924d)" d="M 98.448333 170.4 
L 98.448333 34.6 
" style="fill:none;stroke:#808080;stroke-dasharray:1.5,2.475;stroke-dashoffset:0;stroke-width:1.5;"/>
   </g>
   <g id="line2d_35">
    <path clip-path="url(#p4ac65f924d)" d="M 44.55 132.771705 
L 48.15524 111.026241 
L 50.408514 98.708698 
L 52.211134 90.012774 
L 54.013754 82.536181 
L 55.365719 77.775646 
L 56.717684 73.738329 
L 58.069649 70.393002 
L 59.421614 67.687172 
L 60.773579 65.553127 
L 62.125543 63.914321 
L 63.477508 62.691511 
L 64.829473 61.808145 
L 66.181438 61.194648 
L 67.533403 60.791404 
L 69.336023 60.499558 
L 71.138643 60.416635 
L 73.391918 60.53847 
L 75.645192 60.881896 
L 77.898467 61.450913 
L 80.151742 62.260003 
L 82.405017 63.31186 
L 85.108946 64.858709 
L 89.164841 67.520128 
L 92.319426 69.524154 
L 94.572701 70.70541 
L 96.375321 71.404428 
L 98.17794 71.827583 
L 99.529905 71.940851 
L 100.88187 71.868526 
L 102.233835 71.607715 
L 103.5858 71.161817 
L 105.38842 70.296538 
L 107.19104 69.157176 
L 109.444314 67.427945 
L 112.598899 64.667175 
L 116.654794 61.120175 
L 118.908069 59.444578 
L 120.710688 58.379549 
L 122.062653 57.78475 
L 123.414618 57.391872 
L 124.766583 57.221496 
L 126.118548 57.290074 
L 127.470513 57.609397 
L 128.822478 58.186131 
L 130.174443 59.02142 
L 131.526407 60.110548 
L 132.878372 61.442681 
L 134.680992 63.566348 
L 136.483612 66.03278 
L 138.736887 69.478601 
L 146.398021 81.63056 
L 148.200641 84.002845 
L 150.003261 86.035047 
L 151.805881 87.708739 
L 153.608501 89.046237 
L 155.41112 90.111733 
L 161.72029 93.483904 
L 163.072255 94.592485 
L 164.42422 96.007696 
L 165.776185 97.802801 
L 167.128149 100.04318 
L 168.480114 102.782551 
L 169.832079 106.059322 
L 171.184044 109.893314 
L 172.536009 114.283194 
L 174.338629 120.956182 
L 176.141249 128.451852 
L 178.845178 140.815557 
L 179.295833 142.958525 
L 179.295833 142.958525 
" style="fill:none;stroke:#2ca02c;stroke-linecap:square;stroke-width:1.5;"/>
   </g>
   <g id="line2d_36">
    <path clip-path="url(#p4ac65f924d)" d="M 98.448333 170.4 
L 98.448333 34.6 
" style="fill:none;stroke:#808080;stroke-dasharray:1.5,2.475;stroke-dashoffset:0;stroke-width:1.5;"/>
   </g>
   <g id="line2d_37">
    <path clip-path="url(#p4ac65f924d)" d="M 44.55 138.953604 
L 49.95786 109.21635 
L 52.211134 98.048101 
L 54.013754 89.994546 
L 55.816374 82.841914 
L 57.618994 76.644943 
L 59.421614 71.413082 
L 60.773579 68.107118 
L 62.125543 65.306945 
L 63.477508 62.983908 
L 64.829473 61.104853 
L 66.181438 59.633789 
L 67.533403 58.533219 
L 68.885368 57.76519 
L 70.237333 57.29211 
L 71.589298 57.077461 
L 72.941263 57.086441 
L 74.293227 57.286625 
L 76.095847 57.800664 
L 77.898467 58.543314 
L 80.151742 59.723733 
L 82.855672 61.4316 
L 85.559601 63.397662 
L 89.164841 66.317369 
L 94.572701 70.729863 
L 96.825975 72.240735 
L 98.628595 73.175155 
L 100.431215 73.808729 
L 101.78318 74.068141 
L 103.135145 74.139144 
L 104.48711 74.027737 
L 106.28973 73.619654 
L 108.092349 72.959476 
L 110.345624 71.868343 
L 113.500209 70.050482 
L 119.809378 66.329437 
L 122.513308 64.974822 
L 125.217238 63.861741 
L 127.921168 62.996441 
L 131.526407 62.109388 
L 136.934267 60.779028 
L 141.891472 59.483492 
L 143.694091 59.270241 
L 145.046056 59.322035 
L 146.398021 59.619902 
L 147.749986 60.217744 
L 149.101951 61.160595 
L 150.453916 62.480743 
L 151.805881 64.195071 
L 153.157846 66.303939 
L 154.50981 68.791758 
L 156.31243 72.646095 
L 158.11505 77.025432 
L 160.368325 83.075 
L 163.52291 92.304879 
L 166.677494 102.22284 
L 169.381424 111.346059 
L 172.085354 121.23092 
L 174.789284 131.993195 
L 177.943868 145.510497 
L 179.295833 151.484151 
L 179.295833 151.484151 
" style="fill:none;stroke:#d62728;stroke-linecap:square;stroke-width:1.5;"/>
   </g>
   <g id="line2d_38">
    <path clip-path="url(#p4ac65f924d)" d="M 98.448333 170.4 
L 98.448333 34.6 
" style="fill:none;stroke:#808080;stroke-dasharray:1.5,2.475;stroke-dashoffset:0;stroke-width:1.5;"/>
   </g>
   <g id="line2d_39">
    <path clip-path="url(#p4ac65f924d)" d="M 44.55 129.728829 
L 47.704585 113.007849 
L 49.95786 102.258867 
L 51.760479 94.658802 
L 53.563099 88.06315 
L 54.915064 83.799228 
L 56.267029 80.113081 
L 57.618994 76.979292 
L 58.970959 74.358657 
L 60.322924 72.201827 
L 61.674889 70.453042 
L 63.026853 69.05374 
L 64.378818 67.945821 
L 65.730783 67.07446 
L 67.533403 66.196382 
L 69.336023 65.55523 
L 71.589298 64.981446 
L 74.293227 64.526316 
L 76.997157 64.289315 
L 79.701087 64.295535 
L 81.954362 64.519348 
L 84.207637 64.960331 
L 86.460911 65.614937 
L 89.164841 66.640982 
L 93.671391 68.662864 
L 96.825975 69.991987 
L 99.07925 70.71764 
L 100.88187 71.085828 
L 102.68449 71.217149 
L 104.48711 71.079515 
L 106.28973 70.657149 
L 108.092349 69.954263 
L 109.894969 68.997306 
L 112.148244 67.520426 
L 119.358724 62.469671 
L 121.161343 61.612468 
L 122.513308 61.179202 
L 123.865273 60.950669 
L 125.217238 60.940813 
L 126.569203 61.155228 
L 127.921168 61.591328 
L 129.273133 62.239018 
L 131.075753 63.402431 
L 132.878372 64.859587 
L 135.131647 66.999089 
L 138.286232 70.358941 
L 144.595401 77.170229 
L 147.299331 79.706711 
L 149.552606 81.505807 
L 151.805881 82.97581 
L 154.059156 84.12762 
L 156.763085 85.216939 
L 159.467015 86.30797 
L 161.269635 87.294431 
L 162.6216 88.30887 
L 163.973565 89.658417 
L 165.32553 91.432069 
L 166.677494 93.711712 
L 168.029459 96.565853 
L 169.381424 100.043683 
L 170.733389 104.170053 
L 172.085354 108.941885 
L 173.887974 116.247551 
L 175.690594 124.481702 
L 178.394523 138.038905 
L 179.295833 142.730078 
L 179.295833 142.730078 
" style="fill:none;stroke:#9467bd;stroke-linecap:square;stroke-width:1.5;"/>
   </g>
   <g id="line2d_40">
    <path clip-path="url(#p4ac65f924d)" d="M 98.448333 170.4 
L 98.448333 34.6 
" style="fill:none;stroke:#808080;stroke-dasharray:1.5,2.475;stroke-dashoffset:0;stroke-width:1.5;"/>
   </g>
   <g id="line2d_41">
    <path clip-path="url(#p4ac65f924d)" d="M 44.55 139.034657 
L 48.15524 120.856677 
L 50.408514 110.557873 
L 52.211134 103.182067 
L 54.013754 96.669757 
L 55.816374 91.039987 
L 57.618994 86.254538 
L 59.421614 82.231691 
L 61.224234 78.86276 
L 63.026853 76.028662 
L 64.829473 73.614326 
L 67.082748 71.035882 
L 69.336023 68.809714 
L 72.039953 66.477502 
L 74.743882 64.455239 
L 77.447812 62.740182 
L 79.701087 61.561382 
L 81.954362 60.621853 
L 84.207637 59.923401 
L 86.460911 59.457179 
L 88.714186 59.203594 
L 91.418116 59.135763 
L 95.023356 59.31668 
L 102.233835 59.757673 
L 109.894969 60.006857 
L 111.697589 60.324104 
L 113.500209 60.857619 
L 115.302829 61.644225 
L 117.105449 62.695894 
L 118.908069 63.996471 
L 121.161343 65.905225 
L 125.217238 69.737643 
L 128.822478 73.03335 
L 131.526407 75.204329 
L 134.230337 77.075996 
L 136.934267 78.682892 
L 139.638197 80.056004 
L 141.891472 80.999945 
L 144.144746 81.694286 
L 145.947366 82.007969 
L 147.749986 82.056436 
L 149.101951 81.900486 
L 150.904571 81.435447 
L 152.707191 80.713406 
L 158.565705 78.015543 
L 159.91767 77.787546 
L 160.81898 77.82633 
L 161.72029 78.053184 
L 162.6216 78.497398 
L 163.52291 79.186479 
L 164.42422 80.145436 
L 165.32553 81.396106 
L 166.226839 82.956533 
L 167.578804 85.906659 
L 168.930769 89.609158 
L 170.282734 94.063149 
L 171.634699 99.240072 
L 173.437319 107.166863 
L 175.690594 118.42528 
L 178.845178 135.723406 
L 179.295833 138.254223 
L 179.295833 138.254223 
" style="fill:none;stroke:#8c564b;stroke-linecap:square;stroke-width:1.5;"/>
   </g>
   <g id="line2d_42">
    <path clip-path="url(#p4ac65f924d)" d="M 98.448333 170.4 
L 98.448333 34.6 
" style="fill:none;stroke:#808080;stroke-dasharray:1.5,2.475;stroke-dashoffset:0;stroke-width:1.5;"/>
   </g>
   <g id="patch_3">
    <path d="M 44.55 170.4 
L 44.55 34.6 
" style="fill:none;stroke:#000000;stroke-linecap:square;stroke-linejoin:miter;stroke-width:0.8;"/>
   </g>
   <g id="patch_4">
    <path d="M 44.55 170.4 
L 179.295833 170.4 
" style="fill:none;stroke:#000000;stroke-linecap:square;stroke-linejoin:miter;stroke-width:0.8;"/>
   </g>
  </g>
  <g id="axes_2">
   <g id="patch_5">
    <path d="M 266.408333 170.4 
L 401.154167 170.4 
L 401.154167 34.6 
L 266.408333 34.6 
z
" style="fill:#ffffff;"/>
   </g>
   <g id="matplotlib.axis_3">
    <g id="xtick_6">
     <g id="line2d_43">
      <g>
       <use style="stroke:#000000;stroke-width:0.8;" x="266.408333" xlink:href="#m4cdc01fb94" y="170.4"/>
      </g>
     </g>
     <g id="text_13">
      <!-- 350 -->
      <g transform="translate(256.864583 184.998437)scale(0.1 -0.1)">
       <defs>
        <path d="M 40.578125 39.3125 
Q 47.65625 37.796875 51.625 33 
Q 55.609375 28.21875 55.609375 21.1875 
Q 55.609375 10.40625 48.1875 4.484375 
Q 40.765625 -1.421875 27.09375 -1.421875 
Q 22.515625 -1.421875 17.65625 -0.515625 
Q 12.796875 0.390625 7.625 2.203125 
L 7.625 11.71875 
Q 11.71875 9.328125 16.59375 8.109375 
Q 21.484375 6.890625 26.8125 6.890625 
Q 36.078125 6.890625 40.9375 10.546875 
Q 45.796875 14.203125 45.796875 21.1875 
Q 45.796875 27.640625 41.28125 31.265625 
Q 36.765625 34.90625 28.71875 34.90625 
L 20.21875 34.90625 
L 20.21875 43.015625 
L 29.109375 43.015625 
Q 36.375 43.015625 40.234375 45.921875 
Q 44.09375 48.828125 44.09375 54.296875 
Q 44.09375 59.90625 40.109375 62.90625 
Q 36.140625 65.921875 28.71875 65.921875 
Q 24.65625 65.921875 20.015625 65.03125 
Q 15.375 64.15625 9.8125 62.3125 
L 9.8125 71.09375 
Q 15.4375 72.65625 20.34375 73.4375 
Q 25.25 74.21875 29.59375 74.21875 
Q 40.828125 74.21875 47.359375 69.109375 
Q 53.90625 64.015625 53.90625 55.328125 
Q 53.90625 49.265625 50.4375 45.09375 
Q 46.96875 40.921875 40.578125 39.3125 
z
" id="DejaVuSans-51"/>
       </defs>
       <use xlink:href="#DejaVuSans-51"/>
       <use x="63.623047" xlink:href="#DejaVuSans-53"/>
       <use x="127.246094" xlink:href="#DejaVuSans-48"/>
      </g>
     </g>
    </g>
    <g id="xtick_7">
     <g id="line2d_44">
      <g>
       <use style="stroke:#000000;stroke-width:0.8;" x="300.094792" xlink:href="#m4cdc01fb94" y="170.4"/>
      </g>
     </g>
     <g id="text_14">
      <!-- 375 -->
      <g transform="translate(290.551042 184.998437)scale(0.1 -0.1)">
       <use xlink:href="#DejaVuSans-51"/>
       <use x="63.623047" xlink:href="#DejaVuSans-55"/>
       <use x="127.246094" xlink:href="#DejaVuSans-53"/>
      </g>
     </g>
    </g>
    <g id="xtick_8">
     <g id="line2d_45">
      <g>
       <use style="stroke:#000000;stroke-width:0.8;" x="333.78125" xlink:href="#m4cdc01fb94" y="170.4"/>
      </g>
     </g>
     <g id="text_15">
      <!-- 400 -->
      <g transform="translate(324.2375 184.998437)scale(0.1 -0.1)">
       <use xlink:href="#DejaVuSans-52"/>
       <use x="63.623047" xlink:href="#DejaVuSans-48"/>
       <use x="127.246094" xlink:href="#DejaVuSans-48"/>
      </g>
     </g>
    </g>
    <g id="xtick_9">
     <g id="line2d_46">
      <g>
       <use style="stroke:#000000;stroke-width:0.8;" x="367.467708" xlink:href="#m4cdc01fb94" y="170.4"/>
      </g>
     </g>
     <g id="text_16">
      <!-- 425 -->
      <g transform="translate(357.923958 184.998437)scale(0.1 -0.1)">
       <use xlink:href="#DejaVuSans-52"/>
       <use x="63.623047" xlink:href="#DejaVuSans-50"/>
       <use x="127.246094" xlink:href="#DejaVuSans-53"/>
      </g>
     </g>
    </g>
    <g id="xtick_10">
     <g id="line2d_47">
      <g>
       <use style="stroke:#000000;stroke-width:0.8;" x="401.154167" xlink:href="#m4cdc01fb94" y="170.4"/>
      </g>
     </g>
     <g id="text_17">
      <!-- 450 -->
      <g transform="translate(391.610417 184.998437)scale(0.1 -0.1)">
       <use xlink:href="#DejaVuSans-52"/>
       <use x="63.623047" xlink:href="#DejaVuSans-53"/>
       <use x="127.246094" xlink:href="#DejaVuSans-48"/>
      </g>
     </g>
    </g>
    <g id="text_18">
     <!-- $\theta_1$ -->
     <g transform="translate(328.33125 198.676562)scale(0.1 -0.1)">
      <use transform="translate(0 0.234375)" xlink:href="#DejaVuSans-Oblique-952"/>
      <use transform="translate(61.181641 -16.171875)scale(0.7)" xlink:href="#DejaVuSans-49"/>
     </g>
    </g>
   </g>
   <g id="matplotlib.axis_4">
    <g id="ytick_6">
     <g id="line2d_48">
      <g>
       <use style="stroke:#000000;stroke-width:0.8;" x="266.408333" xlink:href="#m05955f1273" y="128.262926"/>
      </g>
     </g>
     <g id="text_19">
      <!-- 0.0010 -->
      <g transform="translate(224.417708 132.062144)scale(0.1 -0.1)">
       <use xlink:href="#DejaVuSans-48"/>
       <use x="63.623047" xlink:href="#DejaVuSans-46"/>
       <use x="95.410156" xlink:href="#DejaVuSans-48"/>
       <use x="159.033203" xlink:href="#DejaVuSans-48"/>
       <use x="222.65625" xlink:href="#DejaVuSans-49"/>
       <use x="286.279297" xlink:href="#DejaVuSans-48"/>
      </g>
     </g>
    </g>
    <g id="ytick_7">
     <g id="line2d_49">
      <g>
       <use style="stroke:#000000;stroke-width:0.8;" x="266.408333" xlink:href="#m05955f1273" y="85.417402"/>
      </g>
     </g>
     <g id="text_20">
      <!-- 0.0011 -->
      <g transform="translate(224.417708 89.216621)scale(0.1 -0.1)">
       <use xlink:href="#DejaVuSans-48"/>
       <use x="63.623047" xlink:href="#DejaVuSans-46"/>
       <use x="95.410156" xlink:href="#DejaVuSans-48"/>
       <use x="159.033203" xlink:href="#DejaVuSans-48"/>
       <use x="222.65625" xlink:href="#DejaVuSans-49"/>
       <use x="286.279297" xlink:href="#DejaVuSans-49"/>
      </g>
     </g>
    </g>
    <g id="ytick_8">
     <g id="line2d_50">
      <g>
       <use style="stroke:#000000;stroke-width:0.8;" x="266.408333" xlink:href="#m05955f1273" y="42.571878"/>
      </g>
     </g>
     <g id="text_21">
      <!-- 0.0012 -->
      <g transform="translate(224.417708 46.371097)scale(0.1 -0.1)">
       <use xlink:href="#DejaVuSans-48"/>
       <use x="63.623047" xlink:href="#DejaVuSans-46"/>
       <use x="95.410156" xlink:href="#DejaVuSans-48"/>
       <use x="159.033203" xlink:href="#DejaVuSans-48"/>
       <use x="222.65625" xlink:href="#DejaVuSans-49"/>
       <use x="286.279297" xlink:href="#DejaVuSans-50"/>
      </g>
     </g>
    </g>
    <g id="text_22">
     <!-- Posterior -->
     <g transform="translate(218.338021 124.59375)rotate(-90)scale(0.1 -0.1)">
      <use xlink:href="#DejaVuSans-80"/>
      <use x="56.677734" xlink:href="#DejaVuSans-111"/>
      <use x="117.859375" xlink:href="#DejaVuSans-115"/>
      <use x="169.958984" xlink:href="#DejaVuSans-116"/>
      <use x="209.167969" xlink:href="#DejaVuSans-101"/>
      <use x="270.691406" xlink:href="#DejaVuSans-114"/>
      <use x="311.804688" xlink:href="#DejaVuSans-105"/>
      <use x="339.587891" xlink:href="#DejaVuSans-111"/>
      <use x="400.769531" xlink:href="#DejaVuSans-114"/>
     </g>
    </g>
   </g>
   <g id="line2d_51">
    <path clip-path="url(#pb81d5101c7)" d="M 266.408333 122.743474 
L 309.220555 120.791705 
L 328.598718 120.164143 
L 347.526226 119.77286 
L 371.410939 119.518936 
L 401.154167 119.182237 
L 401.154167 119.182237 
" style="fill:none;stroke:#1f77b4;stroke-linecap:square;stroke-width:1.5;"/>
   </g>
   <g id="line2d_52">
    <path clip-path="url(#pb81d5101c7)" d="M 333.78125 170.4 
L 333.78125 34.6 
" style="fill:none;stroke:#808080;stroke-dasharray:1.5,2.475;stroke-dashoffset:0;stroke-width:1.5;"/>
   </g>
   <g id="line2d_53">
    <path clip-path="url(#pb81d5101c7)" d="M 266.408333 69.544189 
L 300.65811 69.23936 
L 334.006577 69.186426 
L 395.746307 69.352711 
L 401.154167 69.396349 
L 401.154167 69.396349 
" style="fill:none;stroke:#ff7f0e;stroke-linecap:square;stroke-width:1.5;"/>
   </g>
   <g id="line2d_54">
    <path clip-path="url(#pb81d5101c7)" d="M 333.78125 170.4 
L 333.78125 34.6 
" style="fill:none;stroke:#808080;stroke-dasharray:1.5,2.475;stroke-dashoffset:0;stroke-width:1.5;"/>
   </g>
   <g id="line2d_55">
    <path clip-path="url(#pb81d5101c7)" d="M 266.408333 40.772727 
L 277.224052 40.891309 
L 288.490426 41.235412 
L 300.65811 41.826831 
L 313.727104 42.681523 
L 328.148063 43.85257 
L 343.470332 45.327298 
L 359.243255 47.07176 
L 375.016179 49.036349 
L 390.789103 51.222088 
L 401.154167 52.783036 
L 401.154167 52.783036 
" style="fill:none;stroke:#2ca02c;stroke-linecap:square;stroke-width:1.5;"/>
   </g>
   <g id="line2d_56">
    <path clip-path="url(#pb81d5101c7)" d="M 333.78125 170.4 
L 333.78125 34.6 
" style="fill:none;stroke:#808080;stroke-dasharray:1.5,2.475;stroke-dashoffset:0;stroke-width:1.5;"/>
   </g>
   <g id="line2d_57">
    <path clip-path="url(#pb81d5101c7)" d="M 266.408333 145.906376 
L 278.576017 144.595023 
L 291.645011 142.960513 
L 306.516625 140.873425 
L 325.894788 137.915806 
L 373.664214 130.532895 
L 391.239758 128.101406 
L 401.154167 126.837594 
L 401.154167 126.837594 
" style="fill:none;stroke:#d62728;stroke-linecap:square;stroke-width:1.5;"/>
   </g>
   <g id="line2d_58">
    <path clip-path="url(#pb81d5101c7)" d="M 333.78125 170.4 
L 333.78125 34.6 
" style="fill:none;stroke:#808080;stroke-dasharray:1.5,2.475;stroke-dashoffset:0;stroke-width:1.5;"/>
   </g>
   <g id="line2d_59">
    <path clip-path="url(#pb81d5101c7)" d="M 266.408333 92.208958 
L 274.520123 89.514629 
L 282.181257 87.199966 
L 289.842391 85.122942 
L 297.052871 83.396328 
L 304.26335 81.900318 
L 311.473829 80.642693 
L 318.233654 79.685908 
L 324.993478 78.948484 
L 331.753303 78.433475 
L 338.513127 78.142776 
L 345.272952 78.077082 
L 352.032776 78.235855 
L 358.7926 78.61729 
L 365.552425 79.218289 
L 372.312249 80.034436 
L 379.522729 81.135634 
L 386.733208 82.466427 
L 393.943687 84.016463 
L 401.154167 85.773722 
L 401.154167 85.773722 
" style="fill:none;stroke:#9467bd;stroke-linecap:square;stroke-width:1.5;"/>
   </g>
   <g id="line2d_60">
    <path clip-path="url(#pb81d5101c7)" d="M 333.78125 170.4 
L 333.78125 34.6 
" style="fill:none;stroke:#808080;stroke-dasharray:1.5,2.475;stroke-dashoffset:0;stroke-width:1.5;"/>
   </g>
   <g id="line2d_61">
    <path clip-path="url(#pb81d5101c7)" d="M 266.408333 143.714087 
L 296.602216 149.784645 
L 311.924484 152.623985 
L 325.444133 154.903342 
L 338.062472 156.803133 
L 350.230156 158.407018 
L 361.947185 159.730699 
L 373.664214 160.836024 
L 385.831898 161.757376 
L 397.999582 162.45823 
L 401.154167 162.605661 
L 401.154167 162.605661 
" style="fill:none;stroke:#8c564b;stroke-linecap:square;stroke-width:1.5;"/>
   </g>
   <g id="line2d_62">
    <path clip-path="url(#pb81d5101c7)" d="M 333.78125 170.4 
L 333.78125 34.6 
" style="fill:none;stroke:#808080;stroke-dasharray:1.5,2.475;stroke-dashoffset:0;stroke-width:1.5;"/>
   </g>
   <g id="line2d_63">
    <path clip-path="url(#pb81d5101c7)" d="M 266.408333 123.284474 
L 280.378637 127.620126 
L 297.503526 133.182332 
L 345.272952 148.841407 
L 358.7926 152.955317 
L 370.960284 156.428331 
L 382.226658 159.416085 
L 393.042377 162.056937 
L 401.154167 163.883338 
L 401.154167 163.883338 
" style="fill:none;stroke:#e377c2;stroke-linecap:square;stroke-width:1.5;"/>
   </g>
   <g id="line2d_64">
    <path clip-path="url(#pb81d5101c7)" d="M 333.78125 170.4 
L 333.78125 34.6 
" style="fill:none;stroke:#808080;stroke-dasharray:1.5,2.475;stroke-dashoffset:0;stroke-width:1.5;"/>
   </g>
   <g id="line2d_65">
    <path clip-path="url(#pb81d5101c7)" d="M 266.408333 58.924862 
L 274.970778 58.827384 
L 283.533222 58.948552 
L 292.095666 59.29718 
L 300.207455 59.845821 
L 308.319245 60.615383 
L 316.431034 61.614193 
L 324.092168 62.775251 
L 331.753303 64.154202 
L 339.414437 65.756493 
L 347.075571 67.586486 
L 354.736706 69.647161 
L 362.39784 71.939832 
L 370.058974 74.463876 
L 377.720109 77.216499 
L 385.831898 80.374406 
L 393.943687 83.773549 
L 401.154167 86.987501 
L 401.154167 86.987501 
" style="fill:none;stroke:#7f7f7f;stroke-linecap:square;stroke-width:1.5;"/>
   </g>
   <g id="line2d_66">
    <path clip-path="url(#pb81d5101c7)" d="M 333.78125 170.4 
L 333.78125 34.6 
" style="fill:none;stroke:#808080;stroke-dasharray:1.5,2.475;stroke-dashoffset:0;stroke-width:1.5;"/>
   </g>
   <g id="line2d_67">
    <path clip-path="url(#pb81d5101c7)" d="M 266.408333 102.108198 
L 281.279947 104.262264 
L 296.151561 106.643434 
L 311.473829 109.322353 
L 328.148063 112.471333 
L 347.075571 116.284908 
L 373.664214 121.899087 
L 401.154167 127.704141 
L 401.154167 127.704141 
" style="fill:none;stroke:#bcbd22;stroke-linecap:square;stroke-width:1.5;"/>
   </g>
   <g id="line2d_68">
    <path clip-path="url(#pb81d5101c7)" d="M 333.78125 170.4 
L 333.78125 34.6 
" style="fill:none;stroke:#808080;stroke-dasharray:1.5,2.475;stroke-dashoffset:0;stroke-width:1.5;"/>
   </g>
   <g id="line2d_69">
    <path clip-path="url(#pb81d5101c7)" d="M 266.408333 142.654795 
L 288.039771 141.598838 
L 344.371642 138.97292 
L 361.045875 137.897911 
L 376.368144 136.686227 
L 390.789103 135.32321 
L 401.154167 134.204826 
L 401.154167 134.204826 
" style="fill:none;stroke:#17becf;stroke-linecap:square;stroke-width:1.5;"/>
   </g>
   <g id="line2d_70">
    <path clip-path="url(#pb81d5101c7)" d="M 333.78125 170.4 
L 333.78125 34.6 
" style="fill:none;stroke:#808080;stroke-dasharray:1.5,2.475;stroke-dashoffset:0;stroke-width:1.5;"/>
   </g>
   <g id="line2d_71">
    <path clip-path="url(#pb81d5101c7)" d="M 266.408333 128.144902 
L 295.700906 125.488344 
L 319.585619 123.432439 
L 337.611817 122.106243 
L 354.736706 121.073371 
L 371.861594 120.263349 
L 390.338448 119.612635 
L 401.154167 119.322414 
L 401.154167 119.322414 
" style="fill:none;stroke:#1f77b4;stroke-linecap:square;stroke-width:1.5;"/>
   </g>
   <g id="line2d_72">
    <path clip-path="url(#pb81d5101c7)" d="M 333.78125 170.4 
L 333.78125 34.6 
" style="fill:none;stroke:#808080;stroke-dasharray:1.5,2.475;stroke-dashoffset:0;stroke-width:1.5;"/>
   </g>
   <g id="line2d_73">
    <path clip-path="url(#pb81d5101c7)" d="M 266.408333 140.460921 
L 281.730602 142.752205 
L 293.447631 144.291224 
L 303.812695 145.441082 
L 313.727104 146.318643 
L 323.190858 146.929642 
L 332.203958 147.291816 
L 341.217057 147.433514 
L 350.230156 147.355943 
L 359.69391 147.047939 
L 369.608319 146.496347 
L 380.424038 145.66361 
L 393.042377 144.455818 
L 401.154167 143.58834 
L 401.154167 143.58834 
" style="fill:none;stroke:#ff7f0e;stroke-linecap:square;stroke-width:1.5;"/>
   </g>
   <g id="line2d_74">
    <path clip-path="url(#pb81d5101c7)" d="M 333.78125 170.4 
L 333.78125 34.6 
" style="fill:none;stroke:#808080;stroke-dasharray:1.5,2.475;stroke-dashoffset:0;stroke-width:1.5;"/>
   </g>
   <g id="line2d_75">
    <path clip-path="url(#pb81d5101c7)" d="M 266.408333 155.444305 
L 272.717503 157.433103 
L 278.576017 159.056049 
L 284.434532 160.458827 
L 290.293046 161.638741 
L 296.151561 162.594904 
L 302.010075 163.328236 
L 307.86859 163.84143 
L 313.727104 164.138907 
L 319.585619 164.226753 
L 325.894788 164.095758 
L 332.203958 163.742095 
L 338.963782 163.13133 
L 345.723606 162.29897 
L 352.934086 161.190103 
L 360.59522 159.791695 
L 369.157664 158.002146 
L 379.072074 155.69587 
L 391.690412 152.52013 
L 401.154167 150.054866 
L 401.154167 150.054866 
" style="fill:none;stroke:#2ca02c;stroke-linecap:square;stroke-width:1.5;"/>
   </g>
   <g id="line2d_76">
    <path clip-path="url(#pb81d5101c7)" d="M 333.78125 170.4 
L 333.78125 34.6 
" style="fill:none;stroke:#808080;stroke-dasharray:1.5,2.475;stroke-dashoffset:0;stroke-width:1.5;"/>
   </g>
   <g id="line2d_77">
    <path clip-path="url(#pb81d5101c7)" d="M 266.408333 127.723019 
L 289.391736 136.005904 
L 302.010075 140.310565 
L 312.825794 143.770318 
L 322.740203 146.711527 
L 332.203958 149.285261 
L 341.217057 151.505443 
L 349.779501 153.394102 
L 358.341945 155.060472 
L 366.90439 156.500445 
L 375.466834 157.712707 
L 384.029278 158.698344 
L 392.591722 159.460455 
L 401.154167 160.003765 
L 401.154167 160.003765 
" style="fill:none;stroke:#d62728;stroke-linecap:square;stroke-width:1.5;"/>
   </g>
   <g id="line2d_78">
    <path clip-path="url(#pb81d5101c7)" d="M 333.78125 170.4 
L 333.78125 34.6 
" style="fill:none;stroke:#808080;stroke-dasharray:1.5,2.475;stroke-dashoffset:0;stroke-width:1.5;"/>
   </g>
   <g id="line2d_79">
    <path clip-path="url(#pb81d5101c7)" d="M 266.408333 114.045075 
L 274.970778 113.900939 
L 283.082567 113.988409 
L 291.194356 114.304538 
L 298.855491 114.818415 
L 306.96728 115.591476 
L 315.079069 116.59592 
L 323.190858 117.822167 
L 331.753303 119.340431 
L 340.766402 121.160695 
L 351.131466 123.489544 
L 363.749805 126.572637 
L 401.154167 135.964664 
L 401.154167 135.964664 
" style="fill:none;stroke:#9467bd;stroke-linecap:square;stroke-width:1.5;"/>
   </g>
   <g id="line2d_80">
    <path clip-path="url(#pb81d5101c7)" d="M 333.78125 170.4 
L 333.78125 34.6 
" style="fill:none;stroke:#808080;stroke-dasharray:1.5,2.475;stroke-dashoffset:0;stroke-width:1.5;"/>
   </g>
   <g id="line2d_81">
    <path clip-path="url(#pb81d5101c7)" d="M 266.408333 47.684069 
L 272.717503 48.016085 
L 279.026672 48.561748 
L 285.335842 49.318044 
L 292.095666 50.357778 
L 298.855491 51.629322 
L 305.615315 53.12605 
L 312.375139 54.840318 
L 319.585619 56.898836 
L 326.796098 59.183048 
L 334.457232 61.842313 
L 342.569022 64.899212 
L 351.131466 68.369169 
L 360.59522 72.457947 
L 370.960284 77.187807 
L 383.578623 83.20525 
L 401.154167 91.821359 
L 401.154167 91.821359 
" style="fill:none;stroke:#8c564b;stroke-linecap:square;stroke-width:1.5;"/>
   </g>
   <g id="line2d_82">
    <path clip-path="url(#pb81d5101c7)" d="M 333.78125 170.4 
L 333.78125 34.6 
" style="fill:none;stroke:#808080;stroke-dasharray:1.5,2.475;stroke-dashoffset:0;stroke-width:1.5;"/>
   </g>
   <g id="patch_6">
    <path d="M 266.408333 170.4 
L 266.408333 34.6 
" style="fill:none;stroke:#000000;stroke-linecap:square;stroke-linejoin:miter;stroke-width:0.8;"/>
   </g>
   <g id="patch_7">
    <path d="M 266.408333 170.4 
L 401.154167 170.4 
" style="fill:none;stroke:#000000;stroke-linecap:square;stroke-linejoin:miter;stroke-width:0.8;"/>
   </g>
  </g>
  <g id="axes_3">
   <g id="patch_8">
    <path d="M 488.266667 170.4 
L 623.0125 170.4 
L 623.0125 34.6 
L 488.266667 34.6 
z
" style="fill:#ffffff;"/>
   </g>
   <g id="matplotlib.axis_5">
    <g id="xtick_11">
     <g id="line2d_83">
      <g>
       <use style="stroke:#000000;stroke-width:0.8;" x="488.266667" xlink:href="#m4cdc01fb94" y="170.4"/>
      </g>
     </g>
     <g id="text_23">
      <!-- 0.000 -->
      <g transform="translate(473.952604 184.998437)scale(0.1 -0.1)">
       <use xlink:href="#DejaVuSans-48"/>
       <use x="63.623047" xlink:href="#DejaVuSans-46"/>
       <use x="95.410156" xlink:href="#DejaVuSans-48"/>
       <use x="159.033203" xlink:href="#DejaVuSans-48"/>
       <use x="222.65625" xlink:href="#DejaVuSans-48"/>
      </g>
     </g>
    </g>
    <g id="xtick_12">
     <g id="line2d_84">
      <g>
       <use style="stroke:#000000;stroke-width:0.8;" x="521.953125" xlink:href="#m4cdc01fb94" y="170.4"/>
      </g>
     </g>
     <g id="text_24">
      <!-- 0.025 -->
      <g transform="translate(507.639063 184.998437)scale(0.1 -0.1)">
       <use xlink:href="#DejaVuSans-48"/>
       <use x="63.623047" xlink:href="#DejaVuSans-46"/>
       <use x="95.410156" xlink:href="#DejaVuSans-48"/>
       <use x="159.033203" xlink:href="#DejaVuSans-50"/>
       <use x="222.65625" xlink:href="#DejaVuSans-53"/>
      </g>
     </g>
    </g>
    <g id="xtick_13">
     <g id="line2d_85">
      <g>
       <use style="stroke:#000000;stroke-width:0.8;" x="555.639583" xlink:href="#m4cdc01fb94" y="170.4"/>
      </g>
     </g>
     <g id="text_25">
      <!-- 0.050 -->
      <g transform="translate(541.325521 184.998437)scale(0.1 -0.1)">
       <use xlink:href="#DejaVuSans-48"/>
       <use x="63.623047" xlink:href="#DejaVuSans-46"/>
       <use x="95.410156" xlink:href="#DejaVuSans-48"/>
       <use x="159.033203" xlink:href="#DejaVuSans-53"/>
       <use x="222.65625" xlink:href="#DejaVuSans-48"/>
      </g>
     </g>
    </g>
    <g id="xtick_14">
     <g id="line2d_86">
      <g>
       <use style="stroke:#000000;stroke-width:0.8;" x="589.326042" xlink:href="#m4cdc01fb94" y="170.4"/>
      </g>
     </g>
     <g id="text_26">
      <!-- 0.075 -->
      <g transform="translate(575.011979 184.998437)scale(0.1 -0.1)">
       <use xlink:href="#DejaVuSans-48"/>
       <use x="63.623047" xlink:href="#DejaVuSans-46"/>
       <use x="95.410156" xlink:href="#DejaVuSans-48"/>
       <use x="159.033203" xlink:href="#DejaVuSans-55"/>
       <use x="222.65625" xlink:href="#DejaVuSans-53"/>
      </g>
     </g>
    </g>
    <g id="xtick_15">
     <g id="line2d_87">
      <g>
       <use style="stroke:#000000;stroke-width:0.8;" x="623.0125" xlink:href="#m4cdc01fb94" y="170.4"/>
      </g>
     </g>
     <g id="text_27">
      <!-- 0.100 -->
      <g transform="translate(608.698437 184.998437)scale(0.1 -0.1)">
       <use xlink:href="#DejaVuSans-48"/>
       <use x="63.623047" xlink:href="#DejaVuSans-46"/>
       <use x="95.410156" xlink:href="#DejaVuSans-49"/>
       <use x="159.033203" xlink:href="#DejaVuSans-48"/>
       <use x="222.65625" xlink:href="#DejaVuSans-48"/>
      </g>
     </g>
    </g>
    <g id="text_28">
     <!-- $\theta_2$ -->
     <g transform="translate(550.189583 198.676562)scale(0.1 -0.1)">
      <use transform="translate(0 0.234375)" xlink:href="#DejaVuSans-Oblique-952"/>
      <use transform="translate(61.181641 -16.171875)scale(0.7)" xlink:href="#DejaVuSans-50"/>
     </g>
    </g>
   </g>
   <g id="matplotlib.axis_6">
    <g id="ytick_9">
     <g id="line2d_88">
      <g>
       <use style="stroke:#000000;stroke-width:0.8;" x="488.266667" xlink:href="#m05955f1273" y="164.227273"/>
      </g>
     </g>
     <g id="text_29">
      <!-- 0 -->
      <g transform="translate(474.904167 168.026491)scale(0.1 -0.1)">
       <use xlink:href="#DejaVuSans-48"/>
      </g>
     </g>
    </g>
    <g id="ytick_10">
     <g id="line2d_89">
      <g>
       <use style="stroke:#000000;stroke-width:0.8;" x="488.266667" xlink:href="#m05955f1273" y="135.543236"/>
      </g>
     </g>
     <g id="text_30">
      <!-- 2000 -->
      <g transform="translate(455.816667 139.342454)scale(0.1 -0.1)">
       <use xlink:href="#DejaVuSans-50"/>
       <use x="63.623047" xlink:href="#DejaVuSans-48"/>
       <use x="127.246094" xlink:href="#DejaVuSans-48"/>
       <use x="190.869141" xlink:href="#DejaVuSans-48"/>
      </g>
     </g>
    </g>
    <g id="ytick_11">
     <g id="line2d_90">
      <g>
       <use style="stroke:#000000;stroke-width:0.8;" x="488.266667" xlink:href="#m05955f1273" y="106.859199"/>
      </g>
     </g>
     <g id="text_31">
      <!-- 4000 -->
      <g transform="translate(455.816667 110.658418)scale(0.1 -0.1)">
       <use xlink:href="#DejaVuSans-52"/>
       <use x="63.623047" xlink:href="#DejaVuSans-48"/>
       <use x="127.246094" xlink:href="#DejaVuSans-48"/>
       <use x="190.869141" xlink:href="#DejaVuSans-48"/>
      </g>
     </g>
    </g>
    <g id="ytick_12">
     <g id="line2d_91">
      <g>
       <use style="stroke:#000000;stroke-width:0.8;" x="488.266667" xlink:href="#m05955f1273" y="78.175162"/>
      </g>
     </g>
     <g id="text_32">
      <!-- 6000 -->
      <g transform="translate(455.816667 81.974381)scale(0.1 -0.1)">
       <use xlink:href="#DejaVuSans-54"/>
       <use x="63.623047" xlink:href="#DejaVuSans-48"/>
       <use x="127.246094" xlink:href="#DejaVuSans-48"/>
       <use x="190.869141" xlink:href="#DejaVuSans-48"/>
      </g>
     </g>
    </g>
    <g id="ytick_13">
     <g id="line2d_92">
      <g>
       <use style="stroke:#000000;stroke-width:0.8;" x="488.266667" xlink:href="#m05955f1273" y="49.491125"/>
      </g>
     </g>
     <g id="text_33">
      <!-- 8000 -->
      <g transform="translate(455.816667 53.290344)scale(0.1 -0.1)">
       <use xlink:href="#DejaVuSans-56"/>
       <use x="63.623047" xlink:href="#DejaVuSans-48"/>
       <use x="127.246094" xlink:href="#DejaVuSans-48"/>
       <use x="190.869141" xlink:href="#DejaVuSans-48"/>
      </g>
     </g>
    </g>
    <g id="text_34">
     <!-- Posterior -->
     <g transform="translate(449.736979 124.59375)rotate(-90)scale(0.1 -0.1)">
      <use xlink:href="#DejaVuSans-80"/>
      <use x="56.677734" xlink:href="#DejaVuSans-111"/>
      <use x="117.859375" xlink:href="#DejaVuSans-115"/>
      <use x="169.958984" xlink:href="#DejaVuSans-116"/>
      <use x="209.167969" xlink:href="#DejaVuSans-101"/>
      <use x="270.691406" xlink:href="#DejaVuSans-114"/>
      <use x="311.804688" xlink:href="#DejaVuSans-105"/>
      <use x="339.587891" xlink:href="#DejaVuSans-111"/>
      <use x="400.769531" xlink:href="#DejaVuSans-114"/>
     </g>
    </g>
   </g>
   <g id="line2d_93">
    <path clip-path="url(#p61100eb0ec)" d="M 488.266667 164.227273 
L 553.160981 164.121656 
L 574.792419 163.941618 
L 618.50595 163.98193 
L 623.0125 164.082848 
L 623.0125 164.082848 
" style="fill:none;stroke:#1f77b4;stroke-linecap:square;stroke-width:1.5;"/>
   </g>
   <g id="line2d_94">
    <path clip-path="url(#p61100eb0ec)" style="fill:none;stroke:#808080;stroke-dasharray:1.5,2.475;stroke-dashoffset:0;stroke-width:1.5;"/>
   </g>
   <g id="line2d_95">
    <path clip-path="url(#p61100eb0ec)" d="M 488.266667 164.227273 
L 582.904208 164.11893 
L 599.127787 163.730671 
L 618.055295 163.663069 
L 622.11119 163.934149 
L 623.0125 164.006539 
L 623.0125 164.006539 
" style="fill:none;stroke:#ff7f0e;stroke-linecap:square;stroke-width:1.5;"/>
   </g>
   <g id="line2d_96">
    <path clip-path="url(#p61100eb0ec)" style="fill:none;stroke:#808080;stroke-dasharray:1.5,2.475;stroke-dashoffset:0;stroke-width:1.5;"/>
   </g>
   <g id="line2d_97">
    <path clip-path="url(#p61100eb0ec)" d="M 488.266667 164.227273 
L 602.733027 164.15289 
L 604.986302 163.830102 
L 608.140886 163.33146 
L 610.844816 163.20499 
L 613.548746 163.026911 
L 615.802021 162.947888 
L 621.20988 163.235042 
L 622.561845 163.518644 
L 623.0125 163.659158 
L 623.0125 163.659158 
" style="fill:none;stroke:#2ca02c;stroke-linecap:square;stroke-width:1.5;"/>
   </g>
   <g id="line2d_98">
    <path clip-path="url(#p61100eb0ec)" style="fill:none;stroke:#808080;stroke-dasharray:1.5,2.475;stroke-dashoffset:0;stroke-width:1.5;"/>
   </g>
   <g id="line2d_99">
    <path clip-path="url(#p61100eb0ec)" d="M 488.266667 164.227273 
L 613.098091 164.130893 
L 613.548746 163.935184 
L 614.450056 163.151498 
L 615.351366 162.375944 
L 616.252676 161.925304 
L 618.055295 161.369353 
L 618.956605 161.517215 
L 619.857915 161.813667 
L 621.20988 162.372109 
L 622.11119 162.682719 
L 623.0125 163.498096 
L 623.0125 163.498096 
" style="fill:none;stroke:#d62728;stroke-linecap:square;stroke-width:1.5;"/>
   </g>
   <g id="line2d_100">
    <path clip-path="url(#p61100eb0ec)" style="fill:none;stroke:#808080;stroke-dasharray:1.5,2.475;stroke-dashoffset:0;stroke-width:1.5;"/>
   </g>
   <g id="line2d_101">
    <path clip-path="url(#p61100eb0ec)" d="M 488.266667 164.227273 
L 617.153986 164.221075 
L 617.60464 164.065448 
L 618.055295 162.977018 
L 618.50595 160.628937 
L 618.956605 159.2301 
L 619.40726 159.083547 
L 619.857915 159.181897 
L 620.759225 160.15 
L 621.660535 160.519298 
L 622.11119 161.138767 
L 623.0125 163.184737 
L 623.0125 163.184737 
" style="fill:none;stroke:#9467bd;stroke-linecap:square;stroke-width:1.5;"/>
   </g>
   <g id="line2d_102">
    <path clip-path="url(#p61100eb0ec)" style="fill:none;stroke:#808080;stroke-dasharray:1.5,2.475;stroke-dashoffset:0;stroke-width:1.5;"/>
   </g>
   <g id="line2d_103">
    <path clip-path="url(#p61100eb0ec)" d="M 488.266667 164.227273 
L 619.40726 164.222408 
L 619.857915 163.377543 
L 620.30857 157.531449 
L 620.759225 155.600542 
L 621.20988 156.443049 
L 621.660535 156.556269 
L 622.11119 158.134828 
L 623.0125 162.67526 
L 623.0125 162.67526 
" style="fill:none;stroke:#8c564b;stroke-linecap:square;stroke-width:1.5;"/>
   </g>
   <g id="line2d_104">
    <path clip-path="url(#p61100eb0ec)" style="fill:none;stroke:#808080;stroke-dasharray:1.5,2.475;stroke-dashoffset:0;stroke-width:1.5;"/>
   </g>
   <g id="line2d_105">
    <path clip-path="url(#p61100eb0ec)" d="M 488.266667 164.227273 
L 620.759225 164.20125 
L 621.20988 158.598466 
L 621.660535 149.195942 
L 622.11119 152.519129 
L 623.0125 161.786548 
L 623.0125 161.786548 
" style="fill:none;stroke:#e377c2;stroke-linecap:square;stroke-width:1.5;"/>
   </g>
   <g id="line2d_106">
    <path clip-path="url(#p61100eb0ec)" style="fill:none;stroke:#808080;stroke-dasharray:1.5,2.475;stroke-dashoffset:0;stroke-width:1.5;"/>
   </g>
   <g id="line2d_107">
    <path clip-path="url(#p61100eb0ec)" d="M 488.266667 164.227273 
L 621.20988 164.227271 
L 621.660535 162.279732 
L 622.11119 141.730857 
L 622.561845 148.843199 
L 623.0125 160.385223 
L 623.0125 160.385223 
" style="fill:none;stroke:#7f7f7f;stroke-linecap:square;stroke-width:1.5;"/>
   </g>
   <g id="line2d_108">
    <path clip-path="url(#p61100eb0ec)" style="fill:none;stroke:#808080;stroke-dasharray:1.5,2.475;stroke-dashoffset:0;stroke-width:1.5;"/>
   </g>
   <g id="line2d_109">
    <path clip-path="url(#p61100eb0ec)" d="M 488.266667 164.227273 
L 621.660535 164.22727 
L 622.11119 160.257385 
L 622.561845 134.667433 
L 623.0125 158.505626 
L 623.0125 158.505626 
" style="fill:none;stroke:#bcbd22;stroke-linecap:square;stroke-width:1.5;"/>
   </g>
   <g id="line2d_110">
    <path clip-path="url(#p61100eb0ec)" style="fill:none;stroke:#808080;stroke-dasharray:1.5,2.475;stroke-dashoffset:0;stroke-width:1.5;"/>
   </g>
   <g id="line2d_111">
    <path clip-path="url(#p61100eb0ec)" d="M 488.266667 164.227273 
L 622.11119 164.227271 
L 622.561845 134.877763 
L 623.0125 153.362428 
L 623.0125 153.362428 
" style="fill:none;stroke:#17becf;stroke-linecap:square;stroke-width:1.5;"/>
   </g>
   <g id="line2d_112">
    <path clip-path="url(#p61100eb0ec)" style="fill:none;stroke:#808080;stroke-dasharray:1.5,2.475;stroke-dashoffset:0;stroke-width:1.5;"/>
   </g>
   <g id="line2d_113">
    <path clip-path="url(#p61100eb0ec)" d="M 488.266667 164.227273 
L 622.11119 164.227273 
L 622.561845 160.276085 
L 623.0125 144.410421 
L 623.0125 144.410421 
" style="fill:none;stroke:#1f77b4;stroke-linecap:square;stroke-width:1.5;"/>
   </g>
   <g id="line2d_114">
    <path clip-path="url(#p61100eb0ec)" style="fill:none;stroke:#808080;stroke-dasharray:1.5,2.475;stroke-dashoffset:0;stroke-width:1.5;"/>
   </g>
   <g id="line2d_115">
    <path clip-path="url(#p61100eb0ec)" d="M 488.266667 164.227273 
L 622.561845 164.21904 
L 623.0125 127.920529 
L 623.0125 127.920529 
" style="fill:none;stroke:#ff7f0e;stroke-linecap:square;stroke-width:1.5;"/>
   </g>
   <g id="line2d_116">
    <path clip-path="url(#p61100eb0ec)" style="fill:none;stroke:#808080;stroke-dasharray:1.5,2.475;stroke-dashoffset:0;stroke-width:1.5;"/>
   </g>
   <g id="line2d_117">
    <path clip-path="url(#p61100eb0ec)" d="M 488.266667 164.227273 
L 622.561845 164.227273 
L 623.0125 120.897237 
L 623.0125 120.897237 
" style="fill:none;stroke:#2ca02c;stroke-linecap:square;stroke-width:1.5;"/>
   </g>
   <g id="line2d_118">
    <path clip-path="url(#p61100eb0ec)" style="fill:none;stroke:#808080;stroke-dasharray:1.5,2.475;stroke-dashoffset:0;stroke-width:1.5;"/>
   </g>
   <g id="line2d_119">
    <path clip-path="url(#p61100eb0ec)" d="M 488.266667 164.227273 
L 622.561845 164.227273 
L 623.0125 88.724145 
L 623.0125 88.724145 
" style="fill:none;stroke:#d62728;stroke-linecap:square;stroke-width:1.5;"/>
   </g>
   <g id="line2d_120">
    <path clip-path="url(#p61100eb0ec)" style="fill:none;stroke:#808080;stroke-dasharray:1.5,2.475;stroke-dashoffset:0;stroke-width:1.5;"/>
   </g>
   <g id="line2d_121">
    <path clip-path="url(#p61100eb0ec)" d="M 488.266667 164.227273 
L 622.561845 164.227273 
L 623.0125 73.151982 
L 623.0125 73.151982 
" style="fill:none;stroke:#9467bd;stroke-linecap:square;stroke-width:1.5;"/>
   </g>
   <g id="line2d_122">
    <path clip-path="url(#p61100eb0ec)" style="fill:none;stroke:#808080;stroke-dasharray:1.5,2.475;stroke-dashoffset:0;stroke-width:1.5;"/>
   </g>
   <g id="line2d_123">
    <path clip-path="url(#p61100eb0ec)" d="M 488.266667 164.227273 
L 622.561845 164.227273 
L 623.0125 40.772727 
L 623.0125 40.772727 
" style="fill:none;stroke:#8c564b;stroke-linecap:square;stroke-width:1.5;"/>
   </g>
   <g id="line2d_124">
    <path clip-path="url(#p61100eb0ec)" style="fill:none;stroke:#808080;stroke-dasharray:1.5,2.475;stroke-dashoffset:0;stroke-width:1.5;"/>
   </g>
   <g id="patch_9">
    <path d="M 488.266667 170.4 
L 488.266667 34.6 
" style="fill:none;stroke:#000000;stroke-linecap:square;stroke-linejoin:miter;stroke-width:0.8;"/>
   </g>
   <g id="patch_10">
    <path d="M 488.266667 170.4 
L 623.0125 170.4 
" style="fill:none;stroke:#000000;stroke-linecap:square;stroke-linejoin:miter;stroke-width:0.8;"/>
   </g>
  </g>
  <g id="text_35">
   <!-- adaptive, linear model, normalized -->
   <g transform="translate(219.23625 13.438125)scale(0.12 -0.12)">
    <defs>
     <path d="M 34.28125 27.484375 
Q 23.390625 27.484375 19.1875 25 
Q 14.984375 22.515625 14.984375 16.5 
Q 14.984375 11.71875 18.140625 8.90625 
Q 21.296875 6.109375 26.703125 6.109375 
Q 34.1875 6.109375 38.703125 11.40625 
Q 43.21875 16.703125 43.21875 25.484375 
L 43.21875 27.484375 
z
M 52.203125 31.203125 
L 52.203125 0 
L 43.21875 0 
L 43.21875 8.296875 
Q 40.140625 3.328125 35.546875 0.953125 
Q 30.953125 -1.421875 24.3125 -1.421875 
Q 15.921875 -1.421875 10.953125 3.296875 
Q 6 8.015625 6 15.921875 
Q 6 25.140625 12.171875 29.828125 
Q 18.359375 34.515625 30.609375 34.515625 
L 43.21875 34.515625 
L 43.21875 35.40625 
Q 43.21875 41.609375 39.140625 45 
Q 35.0625 48.390625 27.6875 48.390625 
Q 23 48.390625 18.546875 47.265625 
Q 14.109375 46.140625 10.015625 43.890625 
L 10.015625 52.203125 
Q 14.9375 54.109375 19.578125 55.046875 
Q 24.21875 56 28.609375 56 
Q 40.484375 56 46.34375 49.84375 
Q 52.203125 43.703125 52.203125 31.203125 
z
" id="DejaVuSans-97"/>
     <path d="M 45.40625 46.390625 
L 45.40625 75.984375 
L 54.390625 75.984375 
L 54.390625 0 
L 45.40625 0 
L 45.40625 8.203125 
Q 42.578125 3.328125 38.25 0.953125 
Q 33.9375 -1.421875 27.875 -1.421875 
Q 17.96875 -1.421875 11.734375 6.484375 
Q 5.515625 14.40625 5.515625 27.296875 
Q 5.515625 40.1875 11.734375 48.09375 
Q 17.96875 56 27.875 56 
Q 33.9375 56 38.25 53.625 
Q 42.578125 51.265625 45.40625 46.390625 
z
M 14.796875 27.296875 
Q 14.796875 17.390625 18.875 11.75 
Q 22.953125 6.109375 30.078125 6.109375 
Q 37.203125 6.109375 41.296875 11.75 
Q 45.40625 17.390625 45.40625 27.296875 
Q 45.40625 37.203125 41.296875 42.84375 
Q 37.203125 48.484375 30.078125 48.484375 
Q 22.953125 48.484375 18.875 42.84375 
Q 14.796875 37.203125 14.796875 27.296875 
z
" id="DejaVuSans-100"/>
     <path d="M 18.109375 8.203125 
L 18.109375 -20.796875 
L 9.078125 -20.796875 
L 9.078125 54.6875 
L 18.109375 54.6875 
L 18.109375 46.390625 
Q 20.953125 51.265625 25.265625 53.625 
Q 29.59375 56 35.59375 56 
Q 45.5625 56 51.78125 48.09375 
Q 58.015625 40.1875 58.015625 27.296875 
Q 58.015625 14.40625 51.78125 6.484375 
Q 45.5625 -1.421875 35.59375 -1.421875 
Q 29.59375 -1.421875 25.265625 0.953125 
Q 20.953125 3.328125 18.109375 8.203125 
z
M 48.6875 27.296875 
Q 48.6875 37.203125 44.609375 42.84375 
Q 40.53125 48.484375 33.40625 48.484375 
Q 26.265625 48.484375 22.1875 42.84375 
Q 18.109375 37.203125 18.109375 27.296875 
Q 18.109375 17.390625 22.1875 11.75 
Q 26.265625 6.109375 33.40625 6.109375 
Q 40.53125 6.109375 44.609375 11.75 
Q 48.6875 17.390625 48.6875 27.296875 
z
" id="DejaVuSans-112"/>
     <path d="M 2.984375 54.6875 
L 12.5 54.6875 
L 29.59375 8.796875 
L 46.6875 54.6875 
L 56.203125 54.6875 
L 35.6875 0 
L 23.484375 0 
z
" id="DejaVuSans-118"/>
     <path d="M 11.71875 12.40625 
L 22.015625 12.40625 
L 22.015625 4 
L 14.015625 -11.625 
L 7.71875 -11.625 
L 11.71875 4 
z
" id="DejaVuSans-44"/>
     <path id="DejaVuSans-32"/>
     <path d="M 9.421875 75.984375 
L 18.40625 75.984375 
L 18.40625 0 
L 9.421875 0 
z
" id="DejaVuSans-108"/>
     <path d="M 54.890625 33.015625 
L 54.890625 0 
L 45.90625 0 
L 45.90625 32.71875 
Q 45.90625 40.484375 42.875 44.328125 
Q 39.84375 48.1875 33.796875 48.1875 
Q 26.515625 48.1875 22.3125 43.546875 
Q 18.109375 38.921875 18.109375 30.90625 
L 18.109375 0 
L 9.078125 0 
L 9.078125 54.6875 
L 18.109375 54.6875 
L 18.109375 46.1875 
Q 21.34375 51.125 25.703125 53.5625 
Q 30.078125 56 35.796875 56 
Q 45.21875 56 50.046875 50.171875 
Q 54.890625 44.34375 54.890625 33.015625 
z
" id="DejaVuSans-110"/>
     <path d="M 52 44.1875 
Q 55.375 50.25 60.0625 53.125 
Q 64.75 56 71.09375 56 
Q 79.640625 56 84.28125 50.015625 
Q 88.921875 44.046875 88.921875 33.015625 
L 88.921875 0 
L 79.890625 0 
L 79.890625 32.71875 
Q 79.890625 40.578125 77.09375 44.375 
Q 74.3125 48.1875 68.609375 48.1875 
Q 61.625 48.1875 57.5625 43.546875 
Q 53.515625 38.921875 53.515625 30.90625 
L 53.515625 0 
L 44.484375 0 
L 44.484375 32.71875 
Q 44.484375 40.625 41.703125 44.40625 
Q 38.921875 48.1875 33.109375 48.1875 
Q 26.21875 48.1875 22.15625 43.53125 
Q 18.109375 38.875 18.109375 30.90625 
L 18.109375 0 
L 9.078125 0 
L 9.078125 54.6875 
L 18.109375 54.6875 
L 18.109375 46.1875 
Q 21.1875 51.21875 25.484375 53.609375 
Q 29.78125 56 35.6875 56 
Q 41.65625 56 45.828125 52.96875 
Q 50 49.953125 52 44.1875 
z
" id="DejaVuSans-109"/>
     <path d="M 5.515625 54.6875 
L 48.1875 54.6875 
L 48.1875 46.484375 
L 14.40625 7.171875 
L 48.1875 7.171875 
L 48.1875 0 
L 4.296875 0 
L 4.296875 8.203125 
L 38.09375 47.515625 
L 5.515625 47.515625 
z
" id="DejaVuSans-122"/>
    </defs>
    <use xlink:href="#DejaVuSans-97"/>
    <use x="61.279297" xlink:href="#DejaVuSans-100"/>
    <use x="124.755859" xlink:href="#DejaVuSans-97"/>
    <use x="186.035156" xlink:href="#DejaVuSans-112"/>
    <use x="249.511719" xlink:href="#DejaVuSans-116"/>
    <use x="288.720703" xlink:href="#DejaVuSans-105"/>
    <use x="316.503906" xlink:href="#DejaVuSans-118"/>
    <use x="375.683594" xlink:href="#DejaVuSans-101"/>
    <use x="437.207031" xlink:href="#DejaVuSans-44"/>
    <use x="468.994141" xlink:href="#DejaVuSans-32"/>
    <use x="500.78125" xlink:href="#DejaVuSans-108"/>
    <use x="528.564453" xlink:href="#DejaVuSans-105"/>
    <use x="556.347656" xlink:href="#DejaVuSans-110"/>
    <use x="619.726562" xlink:href="#DejaVuSans-101"/>
    <use x="681.25" xlink:href="#DejaVuSans-97"/>
    <use x="742.529297" xlink:href="#DejaVuSans-114"/>
    <use x="783.642578" xlink:href="#DejaVuSans-32"/>
    <use x="815.429688" xlink:href="#DejaVuSans-109"/>
    <use x="912.841797" xlink:href="#DejaVuSans-111"/>
    <use x="974.023438" xlink:href="#DejaVuSans-100"/>
    <use x="1037.5" xlink:href="#DejaVuSans-101"/>
    <use x="1099.023438" xlink:href="#DejaVuSans-108"/>
    <use x="1126.806641" xlink:href="#DejaVuSans-44"/>
    <use x="1158.59375" xlink:href="#DejaVuSans-32"/>
    <use x="1190.380859" xlink:href="#DejaVuSans-110"/>
    <use x="1253.759766" xlink:href="#DejaVuSans-111"/>
    <use x="1314.941406" xlink:href="#DejaVuSans-114"/>
    <use x="1354.304688" xlink:href="#DejaVuSans-109"/>
    <use x="1451.716797" xlink:href="#DejaVuSans-97"/>
    <use x="1512.996094" xlink:href="#DejaVuSans-108"/>
    <use x="1540.779297" xlink:href="#DejaVuSans-105"/>
    <use x="1568.5625" xlink:href="#DejaVuSans-122"/>
    <use x="1621.052734" xlink:href="#DejaVuSans-101"/>
    <use x="1682.576172" xlink:href="#DejaVuSans-100"/>
   </g>
  </g>
 </g>
 <defs>
  <clipPath id="p4ac65f924d">
   <rect height="135.8" width="134.745833" x="44.55" y="34.6"/>
  </clipPath>
  <clipPath id="pb81d5101c7">
   <rect height="135.8" width="134.745833" x="266.408333" y="34.6"/>
  </clipPath>
  <clipPath id="p61100eb0ec">
   <rect height="135.8" width="134.745833" x="488.266667" y="34.6"/>
  </clipPath>
 </defs>
</svg>
