<?xml version="1.0" encoding="utf-8" standalone="no"?>
<!DOCTYPE svg PUBLIC "-//W3C//DTD SVG 1.1//EN"
  "http://www.w3.org/Graphics/SVG/1.1/DTD/svg11.dtd">
<!-- Created with matplotlib (https://matplotlib.org/) -->
<svg height="216pt" version="1.1" viewBox="0 0 648 216" width="648pt" xmlns="http://www.w3.org/2000/svg" xmlns:xlink="http://www.w3.org/1999/xlink">
 <metadata>
  <rdf:RDF xmlns:cc="http://creativecommons.org/ns#" xmlns:dc="http://purl.org/dc/elements/1.1/" xmlns:rdf="http://www.w3.org/1999/02/22-rdf-syntax-ns#">
   <cc:Work>
    <dc:type rdf:resource="http://purl.org/dc/dcmitype/StillImage"/>
    <dc:date>2021-04-22T11:29:26.518418</dc:date>
    <dc:format>image/svg+xml</dc:format>
    <dc:creator>
     <cc:Agent>
      <dc:title>Matplotlib v3.3.4, https://matplotlib.org/</dc:title>
     </cc:Agent>
    </dc:creator>
   </cc:Work>
  </rdf:RDF>
 </metadata>
 <defs>
  <style type="text/css">*{stroke-linecap:butt;stroke-linejoin:round;}</style>
 </defs>
 <g id="figure_1">
  <g id="patch_1">
   <path d="M 0 216 
L 648 216 
L 648 0 
L 0 0 
z
" style="fill:none;"/>
  </g>
  <g id="axes_1">
   <g id="patch_2">
    <path d="M 44.425 170.4 
L 191.795833 170.4 
L 191.795833 36.725977 
L 44.425 36.725977 
z
" style="fill:#ffffff;"/>
   </g>
   <g id="matplotlib.axis_1">
    <g id="xtick_1">
     <g id="line2d_1">
      <defs>
       <path d="M 0 0 
L 0 3.5 
" id="md0d57f508a" style="stroke:#000000;stroke-width:0.8;"/>
      </defs>
      <g>
       <use style="stroke:#000000;stroke-width:0.8;" x="44.425" xlink:href="#md0d57f508a" y="170.4"/>
      </g>
     </g>
     <g id="text_1">
      <!-- 0.000 -->
      <g transform="translate(30.110938 184.998437)scale(0.1 -0.1)">
       <defs>
        <path d="M 31.78125 66.40625 
Q 24.171875 66.40625 20.328125 58.90625 
Q 16.5 51.421875 16.5 36.375 
Q 16.5 21.390625 20.328125 13.890625 
Q 24.171875 6.390625 31.78125 6.390625 
Q 39.453125 6.390625 43.28125 13.890625 
Q 47.125 21.390625 47.125 36.375 
Q 47.125 51.421875 43.28125 58.90625 
Q 39.453125 66.40625 31.78125 66.40625 
z
M 31.78125 74.21875 
Q 44.046875 74.21875 50.515625 64.515625 
Q 56.984375 54.828125 56.984375 36.375 
Q 56.984375 17.96875 50.515625 8.265625 
Q 44.046875 -1.421875 31.78125 -1.421875 
Q 19.53125 -1.421875 13.0625 8.265625 
Q 6.59375 17.96875 6.59375 36.375 
Q 6.59375 54.828125 13.0625 64.515625 
Q 19.53125 74.21875 31.78125 74.21875 
z
" id="DejaVuSans-48"/>
        <path d="M 10.6875 12.40625 
L 21 12.40625 
L 21 0 
L 10.6875 0 
z
" id="DejaVuSans-46"/>
       </defs>
       <use xlink:href="#DejaVuSans-48"/>
       <use x="63.623047" xlink:href="#DejaVuSans-46"/>
       <use x="95.410156" xlink:href="#DejaVuSans-48"/>
       <use x="159.033203" xlink:href="#DejaVuSans-48"/>
       <use x="222.65625" xlink:href="#DejaVuSans-48"/>
      </g>
     </g>
    </g>
    <g id="xtick_2">
     <g id="line2d_2">
      <g>
       <use style="stroke:#000000;stroke-width:0.8;" x="81.267708" xlink:href="#md0d57f508a" y="170.4"/>
      </g>
     </g>
     <g id="text_2">
      <!-- 0.025 -->
      <g transform="translate(66.953646 184.998437)scale(0.1 -0.1)">
       <defs>
        <path d="M 19.1875 8.296875 
L 53.609375 8.296875 
L 53.609375 0 
L 7.328125 0 
L 7.328125 8.296875 
Q 12.9375 14.109375 22.625 23.890625 
Q 32.328125 33.6875 34.8125 36.53125 
Q 39.546875 41.84375 41.421875 45.53125 
Q 43.3125 49.21875 43.3125 52.78125 
Q 43.3125 58.59375 39.234375 62.25 
Q 35.15625 65.921875 28.609375 65.921875 
Q 23.96875 65.921875 18.8125 64.3125 
Q 13.671875 62.703125 7.8125 59.421875 
L 7.8125 69.390625 
Q 13.765625 71.78125 18.9375 73 
Q 24.125 74.21875 28.421875 74.21875 
Q 39.75 74.21875 46.484375 68.546875 
Q 53.21875 62.890625 53.21875 53.421875 
Q 53.21875 48.921875 51.53125 44.890625 
Q 49.859375 40.875 45.40625 35.40625 
Q 44.1875 33.984375 37.640625 27.21875 
Q 31.109375 20.453125 19.1875 8.296875 
z
" id="DejaVuSans-50"/>
        <path d="M 10.796875 72.90625 
L 49.515625 72.90625 
L 49.515625 64.59375 
L 19.828125 64.59375 
L 19.828125 46.734375 
Q 21.96875 47.46875 24.109375 47.828125 
Q 26.265625 48.1875 28.421875 48.1875 
Q 40.625 48.1875 47.75 41.5 
Q 54.890625 34.8125 54.890625 23.390625 
Q 54.890625 11.625 47.5625 5.09375 
Q 40.234375 -1.421875 26.90625 -1.421875 
Q 22.3125 -1.421875 17.546875 -0.640625 
Q 12.796875 0.140625 7.71875 1.703125 
L 7.71875 11.625 
Q 12.109375 9.234375 16.796875 8.0625 
Q 21.484375 6.890625 26.703125 6.890625 
Q 35.15625 6.890625 40.078125 11.328125 
Q 45.015625 15.765625 45.015625 23.390625 
Q 45.015625 31 40.078125 35.4375 
Q 35.15625 39.890625 26.703125 39.890625 
Q 22.75 39.890625 18.8125 39.015625 
Q 14.890625 38.140625 10.796875 36.28125 
z
" id="DejaVuSans-53"/>
       </defs>
       <use xlink:href="#DejaVuSans-48"/>
       <use x="63.623047" xlink:href="#DejaVuSans-46"/>
       <use x="95.410156" xlink:href="#DejaVuSans-48"/>
       <use x="159.033203" xlink:href="#DejaVuSans-50"/>
       <use x="222.65625" xlink:href="#DejaVuSans-53"/>
      </g>
     </g>
    </g>
    <g id="xtick_3">
     <g id="line2d_3">
      <g>
       <use style="stroke:#000000;stroke-width:0.8;" x="118.110417" xlink:href="#md0d57f508a" y="170.4"/>
      </g>
     </g>
     <g id="text_3">
      <!-- 0.050 -->
      <g transform="translate(103.796354 184.998437)scale(0.1 -0.1)">
       <use xlink:href="#DejaVuSans-48"/>
       <use x="63.623047" xlink:href="#DejaVuSans-46"/>
       <use x="95.410156" xlink:href="#DejaVuSans-48"/>
       <use x="159.033203" xlink:href="#DejaVuSans-53"/>
       <use x="222.65625" xlink:href="#DejaVuSans-48"/>
      </g>
     </g>
    </g>
    <g id="xtick_4">
     <g id="line2d_4">
      <g>
       <use style="stroke:#000000;stroke-width:0.8;" x="154.953125" xlink:href="#md0d57f508a" y="170.4"/>
      </g>
     </g>
     <g id="text_4">
      <!-- 0.075 -->
      <g transform="translate(140.639063 184.998437)scale(0.1 -0.1)">
       <defs>
        <path d="M 8.203125 72.90625 
L 55.078125 72.90625 
L 55.078125 68.703125 
L 28.609375 0 
L 18.3125 0 
L 43.21875 64.59375 
L 8.203125 64.59375 
z
" id="DejaVuSans-55"/>
       </defs>
       <use xlink:href="#DejaVuSans-48"/>
       <use x="63.623047" xlink:href="#DejaVuSans-46"/>
       <use x="95.410156" xlink:href="#DejaVuSans-48"/>
       <use x="159.033203" xlink:href="#DejaVuSans-55"/>
       <use x="222.65625" xlink:href="#DejaVuSans-53"/>
      </g>
     </g>
    </g>
    <g id="xtick_5">
     <g id="line2d_5">
      <g>
       <use style="stroke:#000000;stroke-width:0.8;" x="191.795833" xlink:href="#md0d57f508a" y="170.4"/>
      </g>
     </g>
     <g id="text_5">
      <!-- 0.100 -->
      <g transform="translate(177.481771 184.998437)scale(0.1 -0.1)">
       <defs>
        <path d="M 12.40625 8.296875 
L 28.515625 8.296875 
L 28.515625 63.921875 
L 10.984375 60.40625 
L 10.984375 69.390625 
L 28.421875 72.90625 
L 38.28125 72.90625 
L 38.28125 8.296875 
L 54.390625 8.296875 
L 54.390625 0 
L 12.40625 0 
z
" id="DejaVuSans-49"/>
       </defs>
       <use xlink:href="#DejaVuSans-48"/>
       <use x="63.623047" xlink:href="#DejaVuSans-46"/>
       <use x="95.410156" xlink:href="#DejaVuSans-49"/>
       <use x="159.033203" xlink:href="#DejaVuSans-48"/>
       <use x="222.65625" xlink:href="#DejaVuSans-48"/>
      </g>
     </g>
    </g>
    <g id="text_6">
     <!-- $\theta_0$ -->
     <g transform="translate(112.660417 198.676562)scale(0.1 -0.1)">
      <defs>
       <path d="M 45.515625 34.671875 
L 14.453125 34.671875 
Q 12.359375 20.0625 14.5 13.875 
Q 17.1875 6.25 24.46875 6.25 
Q 31.78125 6.25 37.359375 13.921875 
Q 42.234375 20.65625 45.515625 34.671875 
z
M 47.015625 42.96875 
Q 48.34375 56.84375 46.625 61.71875 
Q 43.953125 69.4375 36.765625 69.4375 
Q 29.296875 69.4375 23.828125 61.8125 
Q 19.53125 55.671875 16.15625 42.96875 
z
M 38.1875 76.765625 
Q 49.90625 76.765625 54.59375 66.40625 
Q 59.28125 56.109375 55.71875 37.84375 
Q 52.203125 19.625 43.453125 9.28125 
Q 34.765625 -1.125 23.046875 -1.125 
Q 11.28125 -1.125 6.640625 9.28125 
Q 2 19.625 5.515625 37.84375 
Q 9.078125 56.109375 17.71875 66.40625 
Q 26.421875 76.765625 38.1875 76.765625 
z
" id="DejaVuSans-Oblique-952"/>
      </defs>
      <use transform="translate(0 0.234375)" xlink:href="#DejaVuSans-Oblique-952"/>
      <use transform="translate(61.181641 -16.171875)scale(0.7)" xlink:href="#DejaVuSans-48"/>
     </g>
    </g>
   </g>
   <g id="matplotlib.axis_2">
    <g id="ytick_1">
     <g id="line2d_6">
      <defs>
       <path d="M 0 0 
L -3.5 0 
" id="mbe4c824196" style="stroke:#000000;stroke-width:0.8;"/>
      </defs>
      <g>
       <use style="stroke:#000000;stroke-width:0.8;" x="44.425" xlink:href="#mbe4c824196" y="164.323908"/>
      </g>
     </g>
     <g id="text_7">
      <!-- 0 -->
      <g transform="translate(31.0625 168.123127)scale(0.1 -0.1)">
       <use xlink:href="#DejaVuSans-48"/>
      </g>
     </g>
    </g>
    <g id="ytick_2">
     <g id="line2d_7">
      <g>
       <use style="stroke:#000000;stroke-width:0.8;" x="44.425" xlink:href="#mbe4c824196" y="131.896485"/>
      </g>
     </g>
     <g id="text_8">
      <!-- 10 -->
      <g transform="translate(24.7 135.695704)scale(0.1 -0.1)">
       <use xlink:href="#DejaVuSans-49"/>
       <use x="63.623047" xlink:href="#DejaVuSans-48"/>
      </g>
     </g>
    </g>
    <g id="ytick_3">
     <g id="line2d_8">
      <g>
       <use style="stroke:#000000;stroke-width:0.8;" x="44.425" xlink:href="#mbe4c824196" y="99.469062"/>
      </g>
     </g>
     <g id="text_9">
      <!-- 20 -->
      <g transform="translate(24.7 103.26828)scale(0.1 -0.1)">
       <use xlink:href="#DejaVuSans-50"/>
       <use x="63.623047" xlink:href="#DejaVuSans-48"/>
      </g>
     </g>
    </g>
    <g id="ytick_4">
     <g id="line2d_9">
      <g>
       <use style="stroke:#000000;stroke-width:0.8;" x="44.425" xlink:href="#mbe4c824196" y="67.041638"/>
      </g>
     </g>
     <g id="text_10">
      <!-- 30 -->
      <g transform="translate(24.7 70.840857)scale(0.1 -0.1)">
       <defs>
        <path d="M 40.578125 39.3125 
Q 47.65625 37.796875 51.625 33 
Q 55.609375 28.21875 55.609375 21.1875 
Q 55.609375 10.40625 48.1875 4.484375 
Q 40.765625 -1.421875 27.09375 -1.421875 
Q 22.515625 -1.421875 17.65625 -0.515625 
Q 12.796875 0.390625 7.625 2.203125 
L 7.625 11.71875 
Q 11.71875 9.328125 16.59375 8.109375 
Q 21.484375 6.890625 26.8125 6.890625 
Q 36.078125 6.890625 40.9375 10.546875 
Q 45.796875 14.203125 45.796875 21.1875 
Q 45.796875 27.640625 41.28125 31.265625 
Q 36.765625 34.90625 28.71875 34.90625 
L 20.21875 34.90625 
L 20.21875 43.015625 
L 29.109375 43.015625 
Q 36.375 43.015625 40.234375 45.921875 
Q 44.09375 48.828125 44.09375 54.296875 
Q 44.09375 59.90625 40.109375 62.90625 
Q 36.140625 65.921875 28.71875 65.921875 
Q 24.65625 65.921875 20.015625 65.03125 
Q 15.375 64.15625 9.8125 62.3125 
L 9.8125 71.09375 
Q 15.4375 72.65625 20.34375 73.4375 
Q 25.25 74.21875 29.59375 74.21875 
Q 40.828125 74.21875 47.359375 69.109375 
Q 53.90625 64.015625 53.90625 55.328125 
Q 53.90625 49.265625 50.4375 45.09375 
Q 46.96875 40.921875 40.578125 39.3125 
z
" id="DejaVuSans-51"/>
       </defs>
       <use xlink:href="#DejaVuSans-51"/>
       <use x="63.623047" xlink:href="#DejaVuSans-48"/>
      </g>
     </g>
    </g>
    <g id="text_11">
     <!-- Posterior -->
     <g transform="translate(18.620313 125.656738)rotate(-90)scale(0.1 -0.1)">
      <defs>
       <path d="M 19.671875 64.796875 
L 19.671875 37.40625 
L 32.078125 37.40625 
Q 38.96875 37.40625 42.71875 40.96875 
Q 46.484375 44.53125 46.484375 51.125 
Q 46.484375 57.671875 42.71875 61.234375 
Q 38.96875 64.796875 32.078125 64.796875 
z
M 9.8125 72.90625 
L 32.078125 72.90625 
Q 44.34375 72.90625 50.609375 67.359375 
Q 56.890625 61.8125 56.890625 51.125 
Q 56.890625 40.328125 50.609375 34.8125 
Q 44.34375 29.296875 32.078125 29.296875 
L 19.671875 29.296875 
L 19.671875 0 
L 9.8125 0 
z
" id="DejaVuSans-80"/>
       <path d="M 30.609375 48.390625 
Q 23.390625 48.390625 19.1875 42.75 
Q 14.984375 37.109375 14.984375 27.296875 
Q 14.984375 17.484375 19.15625 11.84375 
Q 23.34375 6.203125 30.609375 6.203125 
Q 37.796875 6.203125 41.984375 11.859375 
Q 46.1875 17.53125 46.1875 27.296875 
Q 46.1875 37.015625 41.984375 42.703125 
Q 37.796875 48.390625 30.609375 48.390625 
z
M 30.609375 56 
Q 42.328125 56 49.015625 48.375 
Q 55.71875 40.765625 55.71875 27.296875 
Q 55.71875 13.875 49.015625 6.21875 
Q 42.328125 -1.421875 30.609375 -1.421875 
Q 18.84375 -1.421875 12.171875 6.21875 
Q 5.515625 13.875 5.515625 27.296875 
Q 5.515625 40.765625 12.171875 48.375 
Q 18.84375 56 30.609375 56 
z
" id="DejaVuSans-111"/>
       <path d="M 44.28125 53.078125 
L 44.28125 44.578125 
Q 40.484375 46.53125 36.375 47.5 
Q 32.28125 48.484375 27.875 48.484375 
Q 21.1875 48.484375 17.84375 46.4375 
Q 14.5 44.390625 14.5 40.28125 
Q 14.5 37.15625 16.890625 35.375 
Q 19.28125 33.59375 26.515625 31.984375 
L 29.59375 31.296875 
Q 39.15625 29.25 43.1875 25.515625 
Q 47.21875 21.78125 47.21875 15.09375 
Q 47.21875 7.46875 41.1875 3.015625 
Q 35.15625 -1.421875 24.609375 -1.421875 
Q 20.21875 -1.421875 15.453125 -0.5625 
Q 10.6875 0.296875 5.421875 2 
L 5.421875 11.28125 
Q 10.40625 8.6875 15.234375 7.390625 
Q 20.0625 6.109375 24.8125 6.109375 
Q 31.15625 6.109375 34.5625 8.28125 
Q 37.984375 10.453125 37.984375 14.40625 
Q 37.984375 18.0625 35.515625 20.015625 
Q 33.0625 21.96875 24.703125 23.78125 
L 21.578125 24.515625 
Q 13.234375 26.265625 9.515625 29.90625 
Q 5.8125 33.546875 5.8125 39.890625 
Q 5.8125 47.609375 11.28125 51.796875 
Q 16.75 56 26.8125 56 
Q 31.78125 56 36.171875 55.265625 
Q 40.578125 54.546875 44.28125 53.078125 
z
" id="DejaVuSans-115"/>
       <path d="M 18.3125 70.21875 
L 18.3125 54.6875 
L 36.8125 54.6875 
L 36.8125 47.703125 
L 18.3125 47.703125 
L 18.3125 18.015625 
Q 18.3125 11.328125 20.140625 9.421875 
Q 21.96875 7.515625 27.59375 7.515625 
L 36.8125 7.515625 
L 36.8125 0 
L 27.59375 0 
Q 17.1875 0 13.234375 3.875 
Q 9.28125 7.765625 9.28125 18.015625 
L 9.28125 47.703125 
L 2.6875 47.703125 
L 2.6875 54.6875 
L 9.28125 54.6875 
L 9.28125 70.21875 
z
" id="DejaVuSans-116"/>
       <path d="M 56.203125 29.59375 
L 56.203125 25.203125 
L 14.890625 25.203125 
Q 15.484375 15.921875 20.484375 11.0625 
Q 25.484375 6.203125 34.421875 6.203125 
Q 39.59375 6.203125 44.453125 7.46875 
Q 49.3125 8.734375 54.109375 11.28125 
L 54.109375 2.78125 
Q 49.265625 0.734375 44.1875 -0.34375 
Q 39.109375 -1.421875 33.890625 -1.421875 
Q 20.796875 -1.421875 13.15625 6.1875 
Q 5.515625 13.8125 5.515625 26.8125 
Q 5.515625 40.234375 12.765625 48.109375 
Q 20.015625 56 32.328125 56 
Q 43.359375 56 49.78125 48.890625 
Q 56.203125 41.796875 56.203125 29.59375 
z
M 47.21875 32.234375 
Q 47.125 39.59375 43.09375 43.984375 
Q 39.0625 48.390625 32.421875 48.390625 
Q 24.90625 48.390625 20.390625 44.140625 
Q 15.875 39.890625 15.1875 32.171875 
z
" id="DejaVuSans-101"/>
       <path d="M 41.109375 46.296875 
Q 39.59375 47.171875 37.8125 47.578125 
Q 36.03125 48 33.890625 48 
Q 26.265625 48 22.1875 43.046875 
Q 18.109375 38.09375 18.109375 28.8125 
L 18.109375 0 
L 9.078125 0 
L 9.078125 54.6875 
L 18.109375 54.6875 
L 18.109375 46.1875 
Q 20.953125 51.171875 25.484375 53.578125 
Q 30.03125 56 36.53125 56 
Q 37.453125 56 38.578125 55.875 
Q 39.703125 55.765625 41.0625 55.515625 
z
" id="DejaVuSans-114"/>
       <path d="M 9.421875 54.6875 
L 18.40625 54.6875 
L 18.40625 0 
L 9.421875 0 
z
M 9.421875 75.984375 
L 18.40625 75.984375 
L 18.40625 64.59375 
L 9.421875 64.59375 
z
" id="DejaVuSans-105"/>
      </defs>
      <use xlink:href="#DejaVuSans-80"/>
      <use x="56.677734" xlink:href="#DejaVuSans-111"/>
      <use x="117.859375" xlink:href="#DejaVuSans-115"/>
      <use x="169.958984" xlink:href="#DejaVuSans-116"/>
      <use x="209.167969" xlink:href="#DejaVuSans-101"/>
      <use x="270.691406" xlink:href="#DejaVuSans-114"/>
      <use x="311.804688" xlink:href="#DejaVuSans-105"/>
      <use x="339.587891" xlink:href="#DejaVuSans-111"/>
      <use x="400.769531" xlink:href="#DejaVuSans-114"/>
     </g>
    </g>
   </g>
   <g id="line2d_10">
    <path clip-path="url(#p2daddc9a15)" d="M 44.425 150.256552 
L 48.368032 144.098521 
L 51.818186 138.799341 
L 54.282581 135.392923 
L 56.254097 132.999862 
L 58.225613 130.935199 
L 60.197129 129.197054 
L 62.168645 127.75854 
L 64.140162 126.575789 
L 66.604557 125.377955 
L 69.561831 124.223738 
L 73.504863 122.959098 
L 79.419412 121.333673 
L 85.33396 119.67652 
L 89.276993 118.319875 
L 96.670178 115.656866 
L 98.641695 115.199897 
L 100.613211 114.95128 
L 102.584727 114.931332 
L 104.556243 115.131739 
L 107.020638 115.639624 
L 109.977912 116.497299 
L 116.38534 118.659644 
L 120.821251 120.328442 
L 123.778526 121.659154 
L 126.7358 123.211883 
L 131.66459 126.114492 
L 137.579139 129.527509 
L 143.986566 133.177796 
L 146.943841 135.124182 
L 150.393994 137.690459 
L 161.730212 146.488734 
L 165.673244 149.070327 
L 182.431132 159.459714 
L 185.388406 160.887316 
L 187.852801 161.843217 
L 190.317196 162.587688 
L 191.795833 162.941752 
L 191.795833 162.941752 
" style="fill:none;stroke:#1f77b4;stroke-linecap:square;stroke-width:1.5;"/>
   </g>
   <g id="line2d_11">
    <path clip-path="url(#p2daddc9a15)" d="M 103.373333 170.4 
L 103.373333 36.725977 
" style="fill:none;stroke:#808080;stroke-dasharray:1.5,2.475;stroke-dashoffset:0;stroke-width:1.5;"/>
   </g>
   <g id="line2d_12">
    <path clip-path="url(#p2daddc9a15)" d="M 44.425 158.612677 
L 46.889395 156.64593 
L 49.846669 154.02553 
L 53.296823 150.674701 
L 56.254097 147.512484 
L 59.211371 143.987391 
L 61.675766 140.714787 
L 64.633041 136.388367 
L 74.490622 121.377468 
L 77.447896 117.578125 
L 80.40517 114.157831 
L 83.855323 110.540109 
L 86.812598 107.737804 
L 89.769872 105.220339 
L 92.727146 102.998689 
L 95.191541 101.43104 
L 97.163057 100.450697 
L 98.641695 99.935691 
L 100.120332 99.654034 
L 101.598969 99.636282 
L 103.077606 99.89567 
L 104.556243 100.422741 
L 106.03488 101.18404 
L 108.006396 102.467725 
L 114.906703 107.264228 
L 117.863977 108.836243 
L 122.299889 111.130617 
L 124.271405 112.405317 
L 126.242921 113.941059 
L 128.214437 115.757789 
L 130.185953 117.844126 
L 132.650348 120.788338 
L 135.607623 124.72537 
L 139.550655 130.418637 
L 144.972324 138.223905 
L 147.929599 142.046493 
L 150.393994 144.901838 
L 153.351268 147.968896 
L 156.308542 150.722045 
L 159.265817 153.183019 
L 161.730212 154.959471 
L 164.194607 156.430389 
L 166.659002 157.594279 
L 169.616276 158.69684 
L 182.924011 163.112659 
L 185.881285 163.70833 
L 188.838559 164.05469 
L 191.795833 164.223002 
L 191.795833 164.223002 
" style="fill:none;stroke:#ff7f0e;stroke-linecap:square;stroke-width:1.5;"/>
   </g>
   <g id="line2d_13">
    <path clip-path="url(#p2daddc9a15)" d="M 103.373333 170.4 
L 103.373333 36.725977 
" style="fill:none;stroke:#808080;stroke-dasharray:1.5,2.475;stroke-dashoffset:0;stroke-width:1.5;"/>
   </g>
   <g id="line2d_14">
    <path clip-path="url(#p2daddc9a15)" d="M 44.425 161.644956 
L 50.832428 159.648502 
L 52.803944 158.73209 
L 54.282581 157.797367 
L 55.761218 156.594601 
L 57.239855 155.102378 
L 58.718492 153.333781 
L 60.690008 150.631407 
L 68.576073 139.319544 
L 76.462138 129.185182 
L 78.433654 125.956303 
L 80.40517 122.285278 
L 83.362444 116.192267 
L 88.291235 105.975542 
L 91.248509 100.397707 
L 93.712904 96.138811 
L 95.68442 93.105419 
L 97.163057 91.1733 
L 98.641695 89.643995 
L 99.627453 88.888714 
L 100.613211 88.360289 
L 101.598969 88.057596 
L 102.584727 87.964789 
L 103.570485 88.051438 
L 105.049122 88.421237 
L 108.499275 89.470544 
L 109.977912 89.628715 
L 111.45655 89.513335 
L 113.428066 89.034019 
L 115.892461 88.420232 
L 116.878219 88.360487 
L 117.863977 88.496018 
L 118.849735 88.876492 
L 119.835493 89.539694 
L 120.821251 90.50923 
L 121.807009 91.793448 
L 122.792768 93.385564 
L 124.271405 96.302535 
L 125.750042 99.746921 
L 128.214437 106.243158 
L 134.128986 122.301539 
L 137.08626 129.565017 
L 139.550655 135.069269 
L 141.522171 139.008813 
L 143.493687 142.421847 
L 144.972324 144.588445 
L 146.450962 146.413821 
L 147.929599 147.932116 
L 149.901115 149.601374 
L 156.308542 154.626974 
L 161.730212 159.36478 
L 163.701728 160.664378 
L 165.180365 161.394004 
L 166.659002 161.924918 
L 168.630518 162.389735 
L 171.587793 162.803946 
L 184.402648 164.176638 
L 189.331438 164.302441 
L 191.795833 164.317405 
L 191.795833 164.317405 
" style="fill:none;stroke:#2ca02c;stroke-linecap:square;stroke-width:1.5;"/>
   </g>
   <g id="line2d_15">
    <path clip-path="url(#p2daddc9a15)" d="M 103.373333 170.4 
L 103.373333 36.725977 
" style="fill:none;stroke:#808080;stroke-dasharray:1.5,2.475;stroke-dashoffset:0;stroke-width:1.5;"/>
   </g>
   <g id="line2d_16">
    <path clip-path="url(#p2daddc9a15)" d="M 44.425 163.744658 
L 46.889395 163.229349 
L 49.35379 162.505658 
L 52.311065 161.382855 
L 54.77546 160.207541 
L 56.746976 159.038898 
L 58.718492 157.583683 
L 60.690008 155.767182 
L 62.661525 153.539247 
L 64.633041 150.894827 
L 67.097436 147.104032 
L 74.490622 134.864607 
L 76.955017 130.452112 
L 78.926533 126.372764 
L 80.898049 121.680369 
L 83.362444 115.08469 
L 91.248509 93.138413 
L 93.220025 88.350252 
L 95.191541 84.168395 
L 96.670178 81.554885 
L 98.148815 79.487186 
L 99.134574 78.449439 
L 100.120332 77.703682 
L 101.10609 77.259119 
L 102.091848 77.116848 
L 103.077606 77.268894 
L 104.063364 77.697795 
L 105.049122 78.37686 
L 106.527759 79.786301 
L 108.006396 81.535783 
L 114.413824 89.590294 
L 116.878219 92.043443 
L 119.835493 94.923885 
L 121.31413 96.627031 
L 122.792768 98.6579 
L 124.271405 101.081103 
L 125.750042 103.904386 
L 127.721558 108.201873 
L 130.678832 115.313597 
L 134.621865 124.69349 
L 137.08626 129.900724 
L 139.057776 133.561613 
L 141.029292 136.761409 
L 143.000808 139.53787 
L 144.972324 141.964423 
L 147.929599 145.192503 
L 151.379752 148.942473 
L 153.844147 151.96812 
L 159.265817 158.946726 
L 160.744454 160.481454 
L 162.223091 161.721285 
L 163.701728 162.656884 
L 165.180365 163.316032 
L 166.659002 163.749543 
L 168.630518 164.076859 
L 171.094914 164.250112 
L 176.023704 164.320003 
L 191.795833 164.323908 
L 191.795833 164.323908 
" style="fill:none;stroke:#d62728;stroke-linecap:square;stroke-width:1.5;"/>
   </g>
   <g id="line2d_17">
    <path clip-path="url(#p2daddc9a15)" d="M 103.373333 170.4 
L 103.373333 36.725977 
" style="fill:none;stroke:#808080;stroke-dasharray:1.5,2.475;stroke-dashoffset:0;stroke-width:1.5;"/>
   </g>
   <g id="line2d_18">
    <path clip-path="url(#p2daddc9a15)" d="M 44.425 164.219242 
L 46.889395 164.00014 
L 48.860911 163.618952 
L 50.339548 163.145131 
L 51.818186 162.460285 
L 53.296823 161.527046 
L 54.77546 160.320531 
L 56.254097 158.829396 
L 57.732734 157.053406 
L 59.70425 154.257928 
L 61.675766 151.021416 
L 64.633041 145.59572 
L 68.576073 138.289416 
L 71.533347 133.287898 
L 75.969259 125.878654 
L 78.926533 120.44129 
L 83.362444 111.696234 
L 88.291235 102.123291 
L 95.68442 88.042473 
L 100.613211 78.314666 
L 102.091848 75.788817 
L 103.570485 73.66529 
L 104.556243 72.523176 
L 105.542001 71.625504 
L 106.527759 70.987886 
L 107.513517 70.622569 
L 108.499275 70.540781 
L 109.485033 70.754384 
L 110.470792 71.276115 
L 111.45655 72.118173 
L 112.442308 73.289449 
L 113.428066 74.792222 
L 114.413824 76.619348 
L 115.892461 79.926081 
L 117.371098 83.818529 
L 119.342614 89.690869 
L 122.299889 99.33599 
L 126.7358 113.923842 
L 128.707316 119.753884 
L 130.678832 124.839437 
L 132.157469 128.112037 
L 133.636106 130.950423 
L 135.607623 134.19383 
L 138.072018 137.730067 
L 142.01505 143.351416 
L 144.479445 147.311287 
L 148.915357 154.584181 
L 150.393994 156.595849 
L 151.872631 158.236178 
L 153.351268 159.488276 
L 154.829905 160.397395 
L 156.308542 161.051006 
L 158.772938 161.83669 
L 164.687486 163.379766 
L 167.64476 163.909459 
L 170.602035 164.184954 
L 174.545067 164.302906 
L 187.359922 164.323907 
L 191.795833 164.323908 
L 191.795833 164.323908 
" style="fill:none;stroke:#9467bd;stroke-linecap:square;stroke-width:1.5;"/>
   </g>
   <g id="line2d_19">
    <path clip-path="url(#p2daddc9a15)" d="M 103.373333 170.4 
L 103.373333 36.725977 
" style="fill:none;stroke:#808080;stroke-dasharray:1.5,2.475;stroke-dashoffset:0;stroke-width:1.5;"/>
   </g>
   <g id="line2d_20">
    <path clip-path="url(#p2daddc9a15)" d="M 44.425 164.311468 
L 48.860911 164.159284 
L 50.832428 163.906422 
L 52.311065 163.552906 
L 53.789702 162.996211 
L 55.268339 162.185754 
L 56.746976 161.091937 
L 58.225613 159.717554 
L 60.197129 157.516404 
L 62.661525 154.383089 
L 67.097436 148.344185 
L 70.05471 143.983148 
L 72.026226 140.62099 
L 73.504863 137.675984 
L 74.983501 134.257672 
L 76.462138 130.324945 
L 78.433654 124.368451 
L 86.812598 97.675124 
L 89.769872 89.400832 
L 92.234267 83.080178 
L 93.712904 79.741994 
L 95.191541 76.906184 
L 96.670178 74.659628 
L 97.655936 73.493399 
L 98.641695 72.566472 
L 100.120332 71.531223 
L 102.091848 70.539748 
L 106.03488 68.911979 
L 107.513517 68.552761 
L 108.499275 68.535269 
L 109.485033 68.776894 
L 110.470792 69.341483 
L 111.45655 70.279727 
L 112.442308 71.624495 
L 113.428066 73.388742 
L 114.413824 75.565792 
L 115.892461 79.548116 
L 117.371098 84.260454 
L 119.342614 91.342332 
L 124.764284 111.36241 
L 126.7358 117.455169 
L 128.214437 121.368016 
L 129.693074 124.740728 
L 131.171711 127.66279 
L 133.143227 131.083523 
L 137.08626 137.340571 
L 140.536413 142.533108 
L 143.000808 145.803984 
L 149.408236 153.882834 
L 152.858389 158.541013 
L 154.337026 160.242973 
L 155.815663 161.623879 
L 157.2943 162.65486 
L 158.772938 163.362486 
L 160.251575 163.808897 
L 162.223091 164.124332 
L 165.180365 164.286546 
L 172.080672 164.323686 
L 191.795833 164.323908 
L 191.795833 164.323908 
" style="fill:none;stroke:#8c564b;stroke-linecap:square;stroke-width:1.5;"/>
   </g>
   <g id="line2d_21">
    <path clip-path="url(#p2daddc9a15)" d="M 103.373333 170.4 
L 103.373333 36.725977 
" style="fill:none;stroke:#808080;stroke-dasharray:1.5,2.475;stroke-dashoffset:0;stroke-width:1.5;"/>
   </g>
   <g id="line2d_22">
    <path clip-path="url(#p2daddc9a15)" d="M 44.425 164.323897 
L 54.77546 164.228601 
L 56.746976 164.029515 
L 58.225613 163.715859 
L 59.70425 163.187058 
L 61.182887 162.39052 
L 62.661525 161.313058 
L 64.633041 159.508001 
L 67.097436 156.877398 
L 69.068952 154.526149 
L 70.547589 152.493876 
L 72.026226 150.053478 
L 73.504863 147.029902 
L 74.983501 143.284548 
L 76.462138 138.745992 
L 77.940775 133.420068 
L 79.912291 125.242894 
L 82.376686 113.846741 
L 86.812598 93.100552 
L 89.276993 82.819924 
L 91.741388 73.682141 
L 93.712904 67.119674 
L 95.191541 62.720905 
L 96.670178 58.977278 
L 97.655936 56.958296 
L 98.641695 55.377827 
L 99.627453 54.248136 
L 100.613211 53.5447 
L 101.598969 53.215498 
L 102.584727 53.199395 
L 103.570485 53.446985 
L 104.556243 53.936468 
L 105.542001 54.679188 
L 106.527759 55.71324 
L 107.513517 57.087564 
L 108.499275 58.841797 
L 109.485033 60.988193 
L 110.963671 64.876309 
L 112.935187 70.906139 
L 116.878219 83.260052 
L 120.328372 93.159421 
L 124.271405 104.544273 
L 126.242921 110.957901 
L 128.214437 118.248663 
L 133.143227 137.549351 
L 134.621865 141.948816 
L 135.607623 144.232306 
L 136.593381 146.004697 
L 137.579139 147.333229 
L 138.564897 148.324637 
L 140.043534 149.460276 
L 142.01505 150.946366 
L 143.493687 152.377612 
L 144.972324 154.131646 
L 149.408236 159.709373 
L 150.886873 161.123388 
L 152.36551 162.2123 
L 153.844147 163.004671 
L 155.322784 163.549807 
L 157.2943 163.984853 
L 159.758696 164.226489 
L 163.701728 164.316401 
L 188.34568 164.323908 
L 191.795833 164.323908 
L 191.795833 164.323908 
" style="fill:none;stroke:#e377c2;stroke-linecap:square;stroke-width:1.5;"/>
   </g>
   <g id="line2d_23">
    <path clip-path="url(#p2daddc9a15)" d="M 103.373333 170.4 
L 103.373333 36.725977 
" style="fill:none;stroke:#808080;stroke-dasharray:1.5,2.475;stroke-dashoffset:0;stroke-width:1.5;"/>
   </g>
   <g id="line2d_24">
    <path clip-path="url(#p2daddc9a15)" d="M 44.425 164.311585 
L 48.368032 164.190117 
L 50.339548 163.956485 
L 51.818186 163.599549 
L 53.296823 162.988419 
L 54.282581 162.388595 
L 55.268339 161.600056 
L 56.254097 160.599359 
L 57.732734 158.677717 
L 59.211371 156.283596 
L 61.675766 151.638335 
L 63.647283 147.985837 
L 65.12592 145.69593 
L 66.111678 144.489958 
L 67.097436 143.567176 
L 68.083194 142.917585 
L 69.068952 142.503094 
L 70.547589 142.182217 
L 73.011984 141.749651 
L 73.997742 141.35411 
L 74.983501 140.712222 
L 75.969259 139.76234 
L 76.955017 138.459835 
L 77.940775 136.778515 
L 78.926533 134.710665 
L 80.40517 130.908987 
L 81.883807 126.353038 
L 83.855323 119.349698 
L 86.319719 109.652064 
L 91.248509 90.049127 
L 93.220025 83.136805 
L 95.191541 77.102723 
L 97.163057 71.952065 
L 99.134574 67.568634 
L 101.10609 63.843335 
L 102.584727 61.48588 
L 104.063364 59.577662 
L 105.049122 58.612434 
L 106.03488 57.941361 
L 107.020638 57.607768 
L 108.006396 57.652297 
L 108.992154 58.109461 
L 109.977912 59.004814 
L 110.963671 60.35289 
L 111.949429 62.155968 
L 112.935187 64.403608 
L 114.413824 68.555156 
L 115.892461 73.526682 
L 117.863977 81.122512 
L 124.764284 109.20788 
L 126.242921 114.161497 
L 127.721558 118.408458 
L 129.200195 121.906613 
L 130.678832 124.711289 
L 132.157469 126.993075 
L 135.607623 131.909698 
L 137.08626 134.56052 
L 138.564897 137.779349 
L 140.536413 142.834755 
L 144.479445 153.301636 
L 145.958082 156.502424 
L 147.43672 159.058086 
L 148.422478 160.396465 
L 149.408236 161.463279 
L 150.393994 162.289228 
L 151.379752 162.910744 
L 152.858389 163.541747 
L 154.337026 163.913745 
L 156.308542 164.164559 
L 159.265817 164.291845 
L 167.64476 164.323813 
L 191.795833 164.323908 
L 191.795833 164.323908 
" style="fill:none;stroke:#7f7f7f;stroke-linecap:square;stroke-width:1.5;"/>
   </g>
   <g id="line2d_25">
    <path clip-path="url(#p2daddc9a15)" d="M 103.373333 170.4 
L 103.373333 36.725977 
" style="fill:none;stroke:#808080;stroke-dasharray:1.5,2.475;stroke-dashoffset:0;stroke-width:1.5;"/>
   </g>
   <g id="line2d_26">
    <path clip-path="url(#p2daddc9a15)" d="M 44.425 164.323301 
L 53.296823 164.225816 
L 56.254097 163.975474 
L 58.225613 163.59798 
L 59.70425 163.132636 
L 61.182887 162.454372 
L 62.661525 161.510129 
L 64.140162 160.24939 
L 65.618799 158.627319 
L 67.097436 156.606429 
L 68.576073 154.157507 
L 70.05471 151.261527 
L 71.533347 147.914228 
L 73.504863 142.784092 
L 75.47638 137.013451 
L 79.419412 124.525486 
L 82.869565 113.948733 
L 85.826839 105.652544 
L 90.262751 94.002014 
L 94.698662 82.93128 
L 98.148815 74.919453 
L 100.613211 69.69163 
L 102.091848 66.948506 
L 103.570485 64.699827 
L 104.556243 63.56916 
L 105.542001 62.794701 
L 106.527759 62.418498 
L 107.513517 62.468374 
L 108.499275 62.955379 
L 109.485033 63.873135 
L 110.470792 65.198983 
L 111.45655 66.896571 
L 112.935187 70.036687 
L 114.413824 73.730491 
L 116.878219 80.657325 
L 120.821251 92.647486 
L 124.764284 105.329473 
L 130.185953 122.889753 
L 132.157469 128.606636 
L 134.128986 133.711228 
L 136.100502 138.161544 
L 138.072018 141.966568 
L 139.550655 144.407225 
L 141.029292 146.494219 
L 142.507929 148.218261 
L 143.986566 149.5633 
L 145.465203 150.514108 
L 146.450962 150.927462 
L 147.43672 151.171646 
L 148.915357 151.258479 
L 150.886873 151.02203 
L 153.351268 150.711568 
L 154.337026 150.76199 
L 155.322784 150.983944 
L 156.308542 151.406314 
L 157.2943 152.038759 
L 158.772938 153.352413 
L 160.251575 154.99791 
L 164.687486 160.180115 
L 166.166123 161.499706 
L 167.64476 162.50731 
L 169.123397 163.221613 
L 170.602035 163.693117 
L 172.573551 164.050423 
L 175.037946 164.240883 
L 179.966736 164.319232 
L 191.795833 164.323908 
L 191.795833 164.323908 
" style="fill:none;stroke:#bcbd22;stroke-linecap:square;stroke-width:1.5;"/>
   </g>
   <g id="line2d_27">
    <path clip-path="url(#p2daddc9a15)" d="M 103.373333 170.4 
L 103.373333 36.725977 
" style="fill:none;stroke:#808080;stroke-dasharray:1.5,2.475;stroke-dashoffset:0;stroke-width:1.5;"/>
   </g>
   <g id="line2d_28">
    <path clip-path="url(#p2daddc9a15)" d="M 44.425 164.323892 
L 54.77546 164.229005 
L 57.239855 163.97629 
L 59.211371 163.510968 
L 60.690008 162.929481 
L 62.168645 162.096764 
L 63.647283 160.969787 
L 65.12592 159.504184 
L 66.604557 157.658519 
L 68.083194 155.415224 
L 69.561831 152.805619 
L 71.533347 148.892952 
L 73.997742 143.457673 
L 75.47638 139.71796 
L 76.955017 135.264299 
L 78.433654 129.756524 
L 79.912291 123.003623 
L 81.390928 115.105707 
L 86.812598 84.46011 
L 88.291235 77.951124 
L 89.769872 72.731165 
L 90.75563 69.961692 
L 91.741388 67.719721 
L 92.727146 65.944973 
L 93.712904 64.557958 
L 94.698662 63.466266 
L 96.177299 62.177529 
L 98.641695 60.396187 
L 100.613211 59.201409 
L 101.598969 58.805199 
L 102.584727 58.635298 
L 103.570485 58.74595 
L 104.556243 59.160221 
L 105.542001 59.862895 
L 107.020638 61.343719 
L 108.992154 63.765149 
L 110.963671 66.453112 
L 112.442308 68.805707 
L 113.428066 70.685932 
L 114.413824 72.910486 
L 115.399582 75.530547 
L 116.878219 80.212687 
L 118.356856 85.656901 
L 125.750042 114.281215 
L 128.214437 122.129702 
L 130.678832 129.133578 
L 132.650348 134.127813 
L 134.621865 138.564756 
L 137.579139 144.54652 
L 142.507929 154.066545 
L 143.986566 156.534766 
L 145.465203 158.634193 
L 146.943841 160.334423 
L 148.422478 161.653565 
L 149.901115 162.632924 
L 151.379752 163.321823 
L 152.858389 163.774163 
L 154.829905 164.108398 
L 157.2943 164.271371 
L 162.71597 164.323062 
L 191.795833 164.323908 
L 191.795833 164.323908 
" style="fill:none;stroke:#17becf;stroke-linecap:square;stroke-width:1.5;"/>
   </g>
   <g id="line2d_29">
    <path clip-path="url(#p2daddc9a15)" d="M 103.373333 170.4 
L 103.373333 36.725977 
" style="fill:none;stroke:#808080;stroke-dasharray:1.5,2.475;stroke-dashoffset:0;stroke-width:1.5;"/>
   </g>
   <g id="line2d_30">
    <path clip-path="url(#p2daddc9a15)" d="M 44.425 164.323874 
L 53.789702 164.224487 
L 56.254097 163.953113 
L 58.225613 163.47582 
L 60.197129 162.716415 
L 62.661525 161.481147 
L 67.097436 158.989922 
L 68.576073 157.967741 
L 70.05471 156.66454 
L 71.040468 155.543214 
L 72.026226 154.125512 
L 73.011984 152.309791 
L 73.997742 149.984617 
L 74.983501 147.044161 
L 75.969259 143.407159 
L 76.955017 139.034521 
L 78.433654 131.145332 
L 79.912291 121.945217 
L 84.348202 93.059793 
L 85.33396 87.945845 
L 86.319719 83.752039 
L 87.305477 80.541441 
L 88.291235 78.256956 
L 89.276993 76.723251 
L 90.262751 75.674232 
L 92.234267 73.807299 
L 93.220025 72.46071 
L 94.205783 70.624067 
L 95.191541 68.266785 
L 96.670178 63.922165 
L 100.120332 53.045723 
L 101.10609 50.620785 
L 102.091848 48.776081 
L 103.077606 47.58545 
L 103.570485 47.244096 
L 104.063364 47.070876 
L 104.556243 47.062057 
L 105.049122 47.212325 
L 105.542001 47.515419 
L 106.527759 48.554082 
L 107.513517 50.131228 
L 108.499275 52.21468 
L 109.485033 54.786664 
L 110.963671 59.5229 
L 112.442308 65.179307 
L 118.356856 89.265645 
L 120.328372 95.684596 
L 125.257163 111.159108 
L 128.707316 123.194848 
L 132.157469 135.163361 
L 133.636106 139.714104 
L 135.114744 143.633308 
L 136.593381 146.847298 
L 138.072018 149.45466 
L 140.043534 152.396641 
L 145.465203 159.922798 
L 146.943841 161.51055 
L 148.422478 162.684555 
L 149.901115 163.457247 
L 151.379752 163.90971 
L 153.351268 164.192268 
L 156.308542 164.30742 
L 168.137639 164.323908 
L 191.795833 164.323908 
L 191.795833 164.323908 
" style="fill:none;stroke:#1f77b4;stroke-linecap:square;stroke-width:1.5;"/>
   </g>
   <g id="line2d_31">
    <path clip-path="url(#p2daddc9a15)" d="M 103.373333 170.4 
L 103.373333 36.725977 
" style="fill:none;stroke:#808080;stroke-dasharray:1.5,2.475;stroke-dashoffset:0;stroke-width:1.5;"/>
   </g>
   <g id="line2d_32">
    <path clip-path="url(#p2daddc9a15)" d="M 44.425 164.306274 
L 48.860911 164.152358 
L 50.832428 163.911941 
L 52.311065 163.571156 
L 53.789702 163.010683 
L 55.268339 162.135972 
L 56.254097 161.326163 
L 57.239855 160.298724 
L 58.225613 159.026412 
L 59.211371 157.489122 
L 60.690008 154.66946 
L 62.168645 151.264961 
L 64.140162 146.023873 
L 68.083194 135.108674 
L 69.561831 131.613005 
L 71.040468 128.693804 
L 72.519105 126.355227 
L 73.997742 124.480289 
L 78.433654 119.377885 
L 79.912291 117.082453 
L 81.390928 114.241982 
L 82.869565 110.827413 
L 84.348202 106.880295 
L 86.319719 100.951798 
L 89.769872 89.589152 
L 92.727146 79.97204 
L 94.698662 74.199503 
L 96.177299 70.424601 
L 97.655936 67.250388 
L 98.641695 65.512857 
L 99.627453 64.10163 
L 100.613211 63.030045 
L 101.598969 62.305486 
L 102.584727 61.929804 
L 103.570485 61.899972 
L 104.556243 62.208843 
L 105.542001 62.845872 
L 106.527759 63.797663 
L 107.513517 65.048314 
L 108.499275 66.579536 
L 109.977912 69.356506 
L 111.45655 72.637477 
L 113.428066 77.636363 
L 115.892461 84.553055 
L 131.171711 129.381796 
L 136.100502 144.298491 
L 138.072018 149.560016 
L 139.550655 152.997309 
L 141.029292 155.920899 
L 142.507929 158.306246 
L 143.986566 160.170477 
L 145.465203 161.564621 
L 146.943841 162.561505 
L 148.422478 163.242691 
L 149.901115 163.687315 
L 151.872631 164.029583 
L 154.337026 164.223047 
L 158.772938 164.313089 
L 181.938253 164.323908 
L 191.795833 164.323908 
L 191.795833 164.323908 
" style="fill:none;stroke:#ff7f0e;stroke-linecap:square;stroke-width:1.5;"/>
   </g>
   <g id="line2d_33">
    <path clip-path="url(#p2daddc9a15)" d="M 103.373333 170.4 
L 103.373333 36.725977 
" style="fill:none;stroke:#808080;stroke-dasharray:1.5,2.475;stroke-dashoffset:0;stroke-width:1.5;"/>
   </g>
   <g id="line2d_34">
    <path clip-path="url(#p2daddc9a15)" d="M 44.425 164.323908 
L 58.718492 164.236391 
L 60.690008 164.026292 
L 62.168645 163.672978 
L 63.647283 163.048694 
L 65.12592 162.069933 
L 66.604557 160.694866 
L 68.083194 158.934434 
L 69.561831 156.822703 
L 71.040468 154.350218 
L 72.519105 151.395224 
L 73.504863 149.036367 
L 74.490622 146.257819 
L 75.47638 142.974298 
L 76.955017 137.014666 
L 78.433654 129.960983 
L 81.883807 112.900384 
L 82.869565 108.979428 
L 83.855323 105.766703 
L 84.841081 103.233986 
L 85.826839 101.234654 
L 88.784114 95.983187 
L 89.769872 93.671137 
L 90.75563 90.81645 
L 91.741388 87.39022 
L 93.220025 81.311557 
L 95.68442 69.75684 
L 98.148815 58.35424 
L 99.627453 52.409635 
L 100.613211 49.07934 
L 101.598969 46.393451 
L 102.584727 44.438672 
L 103.077606 43.748815 
L 103.570485 43.25013 
L 104.063364 42.93741 
L 104.556243 42.802069 
L 105.049122 42.832848 
L 105.542001 43.01673 
L 106.527759 43.78889 
L 107.513517 45.015725 
L 108.499275 46.619251 
L 109.977912 49.634241 
L 111.45655 53.301035 
L 113.428066 58.938625 
L 119.342614 76.770792 
L 120.821251 82.398045 
L 122.299889 89.329159 
L 123.778526 97.453587 
L 127.721558 119.928626 
L 129.200195 126.853976 
L 130.678832 132.624536 
L 132.157469 137.387859 
L 133.636106 141.388281 
L 135.607623 146.020912 
L 140.043534 155.703159 
L 141.522171 158.520888 
L 143.000808 160.780978 
L 143.986566 161.919983 
L 144.972324 162.771522 
L 145.958082 163.371192 
L 146.943841 163.768859 
L 148.422478 164.100425 
L 150.393994 164.268873 
L 154.829905 164.322852 
L 191.795833 164.323908 
L 191.795833 164.323908 
" style="fill:none;stroke:#2ca02c;stroke-linecap:square;stroke-width:1.5;"/>
   </g>
   <g id="line2d_35">
    <path clip-path="url(#p2daddc9a15)" d="M 103.373333 170.4 
L 103.373333 36.725977 
" style="fill:none;stroke:#808080;stroke-dasharray:1.5,2.475;stroke-dashoffset:0;stroke-width:1.5;"/>
   </g>
   <g id="line2d_36">
    <path clip-path="url(#p2daddc9a15)" d="M 44.425 164.323468 
L 51.325307 164.238107 
L 53.296823 164.048454 
L 54.77546 163.725158 
L 56.254097 163.126933 
L 57.239855 162.510063 
L 58.225613 161.674063 
L 59.211371 160.590522 
L 60.197129 159.248755 
L 61.675766 156.79145 
L 64.140162 152.015321 
L 66.111678 148.401627 
L 67.590315 146.213608 
L 69.068952 144.506005 
L 72.026226 141.469795 
L 73.011984 140.148187 
L 73.997742 138.510757 
L 74.983501 136.514071 
L 76.462138 132.853547 
L 77.940775 128.5245 
L 79.912291 122.065921 
L 82.869565 111.525737 
L 85.33396 101.917335 
L 88.291235 89.247032 
L 91.248509 76.57098 
L 92.727146 70.97066 
L 94.205783 66.17171 
L 95.68442 62.2145 
L 97.163057 58.972487 
L 98.641695 56.225487 
L 100.613211 53.021379 
L 102.091848 50.949435 
L 103.077606 49.833257 
L 104.063364 49.046243 
L 104.556243 48.811098 
L 105.049122 48.699114 
L 105.542001 48.721615 
L 106.03488 48.887701 
L 106.527759 49.203749 
L 107.513517 50.295758 
L 108.499275 51.985417 
L 109.485033 54.212684 
L 110.963671 58.349056 
L 112.935187 64.793341 
L 115.399582 73.606082 
L 117.371098 81.296261 
L 119.342614 89.905915 
L 121.31413 99.516601 
L 126.242921 124.348129 
L 127.721558 130.676411 
L 129.200195 136.06772 
L 130.678832 140.454504 
L 131.66459 142.835787 
L 132.650348 144.821649 
L 134.128986 147.182032 
L 135.607623 149.02207 
L 140.536413 154.581289 
L 144.972324 160.17805 
L 146.450962 161.614075 
L 147.929599 162.684476 
L 149.408236 163.40795 
L 150.886873 163.85205 
L 152.858389 164.152472 
L 155.815663 164.29547 
L 164.194607 164.32388 
L 191.795833 164.323908 
L 191.795833 164.323908 
" style="fill:none;stroke:#d62728;stroke-linecap:square;stroke-width:1.5;"/>
   </g>
   <g id="line2d_37">
    <path clip-path="url(#p2daddc9a15)" d="M 103.373333 170.4 
L 103.373333 36.725977 
" style="fill:none;stroke:#808080;stroke-dasharray:1.5,2.475;stroke-dashoffset:0;stroke-width:1.5;"/>
   </g>
   <g id="patch_3">
    <path d="M 44.425 170.4 
L 44.425 36.725977 
" style="fill:none;stroke:#000000;stroke-linecap:square;stroke-linejoin:miter;stroke-width:0.8;"/>
   </g>
   <g id="patch_4">
    <path d="M 44.425 170.4 
L 191.795833 170.4 
" style="fill:none;stroke:#000000;stroke-linecap:square;stroke-linejoin:miter;stroke-width:0.8;"/>
   </g>
  </g>
  <g id="axes_2">
   <g id="patch_5">
    <path d="M 260.033333 170.4 
L 407.404167 170.4 
L 407.404167 36.725977 
L 260.033333 36.725977 
z
" style="fill:#ffffff;"/>
   </g>
   <g id="matplotlib.axis_3">
    <g id="xtick_6">
     <g id="line2d_38">
      <g>
       <use style="stroke:#000000;stroke-width:0.8;" x="260.033333" xlink:href="#md0d57f508a" y="170.4"/>
      </g>
     </g>
     <g id="text_12">
      <!-- 350 -->
      <g transform="translate(250.489583 184.998437)scale(0.1 -0.1)">
       <use xlink:href="#DejaVuSans-51"/>
       <use x="63.623047" xlink:href="#DejaVuSans-53"/>
       <use x="127.246094" xlink:href="#DejaVuSans-48"/>
      </g>
     </g>
    </g>
    <g id="xtick_7">
     <g id="line2d_39">
      <g>
       <use style="stroke:#000000;stroke-width:0.8;" x="296.876042" xlink:href="#md0d57f508a" y="170.4"/>
      </g>
     </g>
     <g id="text_13">
      <!-- 375 -->
      <g transform="translate(287.332292 184.998437)scale(0.1 -0.1)">
       <use xlink:href="#DejaVuSans-51"/>
       <use x="63.623047" xlink:href="#DejaVuSans-55"/>
       <use x="127.246094" xlink:href="#DejaVuSans-53"/>
      </g>
     </g>
    </g>
    <g id="xtick_8">
     <g id="line2d_40">
      <g>
       <use style="stroke:#000000;stroke-width:0.8;" x="333.71875" xlink:href="#md0d57f508a" y="170.4"/>
      </g>
     </g>
     <g id="text_14">
      <!-- 400 -->
      <g transform="translate(324.175 184.998437)scale(0.1 -0.1)">
       <defs>
        <path d="M 37.796875 64.3125 
L 12.890625 25.390625 
L 37.796875 25.390625 
z
M 35.203125 72.90625 
L 47.609375 72.90625 
L 47.609375 25.390625 
L 58.015625 25.390625 
L 58.015625 17.1875 
L 47.609375 17.1875 
L 47.609375 0 
L 37.796875 0 
L 37.796875 17.1875 
L 4.890625 17.1875 
L 4.890625 26.703125 
z
" id="DejaVuSans-52"/>
       </defs>
       <use xlink:href="#DejaVuSans-52"/>
       <use x="63.623047" xlink:href="#DejaVuSans-48"/>
       <use x="127.246094" xlink:href="#DejaVuSans-48"/>
      </g>
     </g>
    </g>
    <g id="xtick_9">
     <g id="line2d_41">
      <g>
       <use style="stroke:#000000;stroke-width:0.8;" x="370.561458" xlink:href="#md0d57f508a" y="170.4"/>
      </g>
     </g>
     <g id="text_15">
      <!-- 425 -->
      <g transform="translate(361.017708 184.998437)scale(0.1 -0.1)">
       <use xlink:href="#DejaVuSans-52"/>
       <use x="63.623047" xlink:href="#DejaVuSans-50"/>
       <use x="127.246094" xlink:href="#DejaVuSans-53"/>
      </g>
     </g>
    </g>
    <g id="xtick_10">
     <g id="line2d_42">
      <g>
       <use style="stroke:#000000;stroke-width:0.8;" x="407.404167" xlink:href="#md0d57f508a" y="170.4"/>
      </g>
     </g>
     <g id="text_16">
      <!-- 450 -->
      <g transform="translate(397.860417 184.998437)scale(0.1 -0.1)">
       <use xlink:href="#DejaVuSans-52"/>
       <use x="63.623047" xlink:href="#DejaVuSans-53"/>
       <use x="127.246094" xlink:href="#DejaVuSans-48"/>
      </g>
     </g>
    </g>
    <g id="text_17">
     <!-- $\theta_1$ -->
     <g transform="translate(328.26875 198.676562)scale(0.1 -0.1)">
      <use transform="translate(0 0.234375)" xlink:href="#DejaVuSans-Oblique-952"/>
      <use transform="translate(61.181641 -16.171875)scale(0.7)" xlink:href="#DejaVuSans-49"/>
     </g>
    </g>
   </g>
   <g id="matplotlib.axis_4">
    <g id="ytick_5">
     <g id="line2d_43">
      <g>
       <use style="stroke:#000000;stroke-width:0.8;" x="260.033333" xlink:href="#mbe4c824196" y="164.323908"/>
      </g>
     </g>
     <g id="text_18">
      <!-- 0.0 -->
      <g transform="translate(237.130208 168.123127)scale(0.1 -0.1)">
       <use xlink:href="#DejaVuSans-48"/>
       <use x="63.623047" xlink:href="#DejaVuSans-46"/>
       <use x="95.410156" xlink:href="#DejaVuSans-48"/>
      </g>
     </g>
    </g>
    <g id="ytick_6">
     <g id="line2d_44">
      <g>
       <use style="stroke:#000000;stroke-width:0.8;" x="260.033333" xlink:href="#mbe4c824196" y="124.261063"/>
      </g>
     </g>
     <g id="text_19">
      <!-- 0.1 -->
      <g transform="translate(237.130208 128.060282)scale(0.1 -0.1)">
       <use xlink:href="#DejaVuSans-48"/>
       <use x="63.623047" xlink:href="#DejaVuSans-46"/>
       <use x="95.410156" xlink:href="#DejaVuSans-49"/>
      </g>
     </g>
    </g>
    <g id="ytick_7">
     <g id="line2d_45">
      <g>
       <use style="stroke:#000000;stroke-width:0.8;" x="260.033333" xlink:href="#mbe4c824196" y="84.198218"/>
      </g>
     </g>
     <g id="text_20">
      <!-- 0.2 -->
      <g transform="translate(237.130208 87.997437)scale(0.1 -0.1)">
       <use xlink:href="#DejaVuSans-48"/>
       <use x="63.623047" xlink:href="#DejaVuSans-46"/>
       <use x="95.410156" xlink:href="#DejaVuSans-50"/>
      </g>
     </g>
    </g>
    <g id="ytick_8">
     <g id="line2d_46">
      <g>
       <use style="stroke:#000000;stroke-width:0.8;" x="260.033333" xlink:href="#mbe4c824196" y="44.135373"/>
      </g>
     </g>
     <g id="text_21">
      <!-- 0.3 -->
      <g transform="translate(237.130208 47.934592)scale(0.1 -0.1)">
       <use xlink:href="#DejaVuSans-48"/>
       <use x="63.623047" xlink:href="#DejaVuSans-46"/>
       <use x="95.410156" xlink:href="#DejaVuSans-51"/>
      </g>
     </g>
    </g>
    <g id="text_22">
     <!-- Posterior -->
     <g transform="translate(231.050521 125.656738)rotate(-90)scale(0.1 -0.1)">
      <use xlink:href="#DejaVuSans-80"/>
      <use x="56.677734" xlink:href="#DejaVuSans-111"/>
      <use x="117.859375" xlink:href="#DejaVuSans-115"/>
      <use x="169.958984" xlink:href="#DejaVuSans-116"/>
      <use x="209.167969" xlink:href="#DejaVuSans-101"/>
      <use x="270.691406" xlink:href="#DejaVuSans-114"/>
      <use x="311.804688" xlink:href="#DejaVuSans-105"/>
      <use x="339.587891" xlink:href="#DejaVuSans-111"/>
      <use x="400.769531" xlink:href="#DejaVuSans-114"/>
     </g>
    </g>
   </g>
   <g id="line2d_47">
    <path clip-path="url(#pe0d496dc36)" d="M 260.033333 163.714837 
L 407.404167 163.722619 
L 407.404167 163.722619 
" style="fill:none;stroke:#1f77b4;stroke-linecap:square;stroke-width:1.5;"/>
   </g>
   <g id="line2d_48">
    <path clip-path="url(#pe0d496dc36)" d="M 333.71875 170.4 
L 333.71875 36.725977 
" style="fill:none;stroke:#808080;stroke-dasharray:1.5,2.475;stroke-dashoffset:0;stroke-width:1.5;"/>
   </g>
   <g id="line2d_49">
    <path clip-path="url(#pe0d496dc36)" d="M 260.033333 163.531801 
L 407.404167 163.424221 
L 407.404167 163.424221 
" style="fill:none;stroke:#ff7f0e;stroke-linecap:square;stroke-width:1.5;"/>
   </g>
   <g id="line2d_50">
    <path clip-path="url(#pe0d496dc36)" d="M 333.71875 170.4 
L 333.71875 36.725977 
" style="fill:none;stroke:#808080;stroke-dasharray:1.5,2.475;stroke-dashoffset:0;stroke-width:1.5;"/>
   </g>
   <g id="line2d_51">
    <path clip-path="url(#pe0d496dc36)" d="M 260.033333 163.179975 
L 407.404167 163.106711 
L 407.404167 163.106711 
" style="fill:none;stroke:#2ca02c;stroke-linecap:square;stroke-width:1.5;"/>
   </g>
   <g id="line2d_52">
    <path clip-path="url(#pe0d496dc36)" d="M 333.71875 170.4 
L 333.71875 36.725977 
" style="fill:none;stroke:#808080;stroke-dasharray:1.5,2.475;stroke-dashoffset:0;stroke-width:1.5;"/>
   </g>
   <g id="line2d_53">
    <path clip-path="url(#pe0d496dc36)" d="M 260.033333 162.781478 
L 337.415343 162.501014 
L 375.859908 162.614505 
L 407.404167 162.805759 
L 407.404167 162.805759 
" style="fill:none;stroke:#d62728;stroke-linecap:square;stroke-width:1.5;"/>
   </g>
   <g id="line2d_54">
    <path clip-path="url(#pe0d496dc36)" d="M 333.71875 170.4 
L 333.71875 36.725977 
" style="fill:none;stroke:#808080;stroke-dasharray:1.5,2.475;stroke-dashoffset:0;stroke-width:1.5;"/>
   </g>
   <g id="line2d_55">
    <path clip-path="url(#pe0d496dc36)" d="M 260.033333 162.365302 
L 286.648802 161.89617 
L 308.828358 161.569169 
L 332.979431 161.473515 
L 363.045053 161.556729 
L 386.210368 161.84532 
L 407.404167 162.224868 
L 407.404167 162.224868 
" style="fill:none;stroke:#9467bd;stroke-linecap:square;stroke-width:1.5;"/>
   </g>
   <g id="line2d_56">
    <path clip-path="url(#pe0d496dc36)" d="M 333.71875 170.4 
L 333.71875 36.725977 
" style="fill:none;stroke:#808080;stroke-dasharray:1.5,2.475;stroke-dashoffset:0;stroke-width:1.5;"/>
   </g>
   <g id="line2d_57">
    <path clip-path="url(#pe0d496dc36)" d="M 260.033333 162.430003 
L 283.691527 161.266366 
L 303.899568 160.492858 
L 317.207302 160.233756 
L 331.500794 160.175226 
L 351.708835 160.348483 
L 373.888392 160.711803 
L 385.717489 161.154986 
L 403.461134 162.09552 
L 407.404167 162.309099 
L 407.404167 162.309099 
" style="fill:none;stroke:#8c564b;stroke-linecap:square;stroke-width:1.5;"/>
   </g>
   <g id="line2d_58">
    <path clip-path="url(#pe0d496dc36)" d="M 333.71875 170.4 
L 333.71875 36.725977 
" style="fill:none;stroke:#808080;stroke-dasharray:1.5,2.475;stroke-dashoffset:0;stroke-width:1.5;"/>
   </g>
   <g id="line2d_59">
    <path clip-path="url(#pe0d496dc36)" d="M 260.033333 164.237119 
L 265.947882 163.994577 
L 270.876672 163.582442 
L 277.2841 162.795223 
L 306.856842 158.8414 
L 311.785633 158.560802 
L 325.586246 157.925933 
L 337.415343 157.173708 
L 342.344133 157.13011 
L 347.272924 157.337372 
L 354.17323 157.900799 
L 366.495206 159.092996 
L 371.423997 159.868544 
L 383.745973 161.997321 
L 390.1534 162.750943 
L 399.518102 163.633568 
L 406.418409 164.068174 
L 407.404167 164.109843 
L 407.404167 164.109843 
" style="fill:none;stroke:#e377c2;stroke-linecap:square;stroke-width:1.5;"/>
   </g>
   <g id="line2d_60">
    <path clip-path="url(#pe0d496dc36)" d="M 333.71875 170.4 
L 333.71875 36.725977 
" style="fill:none;stroke:#808080;stroke-dasharray:1.5,2.475;stroke-dashoffset:0;stroke-width:1.5;"/>
   </g>
   <g id="line2d_61">
    <path clip-path="url(#pe0d496dc36)" d="M 260.033333 164.323908 
L 283.198648 164.219512 
L 287.141681 163.968942 
L 290.591834 163.524033 
L 294.041987 162.844975 
L 297.98502 161.824981 
L 301.928052 160.576805 
L 305.871084 159.077539 
L 313.26427 156.142862 
L 315.728665 155.454936 
L 318.685939 154.875898 
L 322.136093 154.430276 
L 326.079125 154.127783 
L 331.993673 153.931629 
L 337.415343 153.931035 
L 340.372617 154.125191 
L 343.329891 154.525332 
L 347.272924 155.315474 
L 356.144746 157.180039 
L 360.580658 158.188114 
L 364.030811 159.241311 
L 369.45248 161.227582 
L 373.395513 162.555731 
L 376.352787 163.318664 
L 379.310061 163.833324 
L 382.267336 164.123222 
L 386.210368 164.279043 
L 395.082191 164.323532 
L 407.404167 164.323908 
L 407.404167 164.323908 
" style="fill:none;stroke:#7f7f7f;stroke-linecap:square;stroke-width:1.5;"/>
   </g>
   <g id="line2d_62">
    <path clip-path="url(#pe0d496dc36)" d="M 333.71875 170.4 
L 333.71875 36.725977 
" style="fill:none;stroke:#808080;stroke-dasharray:1.5,2.475;stroke-dashoffset:0;stroke-width:1.5;"/>
   </g>
   <g id="line2d_63">
    <path clip-path="url(#pe0d496dc36)" d="M 260.033333 164.323908 
L 302.91381 164.24038 
L 305.378205 163.983071 
L 306.856842 163.638265 
L 308.335479 163.071593 
L 309.814116 162.231537 
L 311.292754 161.106205 
L 313.26427 159.246621 
L 318.19306 154.344045 
L 319.671697 153.204944 
L 321.150334 152.29698 
L 323.121851 151.363416 
L 327.064883 149.619487 
L 328.54352 148.735096 
L 330.515036 147.231496 
L 332.979431 145.22777 
L 333.96519 144.661278 
L 334.950948 144.370458 
L 335.936706 144.404202 
L 336.922464 144.755981 
L 337.908222 145.36881 
L 339.386859 146.588234 
L 342.837012 149.598302 
L 344.808528 151.004106 
L 347.272924 152.396121 
L 349.24444 153.551632 
L 350.723077 154.698517 
L 352.201714 156.142962 
L 356.637625 160.86369 
L 358.116263 162.048132 
L 359.5949 162.936018 
L 361.073537 163.549247 
L 362.552174 163.934348 
L 364.52369 164.194866 
L 367.480964 164.308376 
L 379.310061 164.323908 
L 407.404167 164.323908 
L 407.404167 164.323908 
" style="fill:none;stroke:#bcbd22;stroke-linecap:square;stroke-width:1.5;"/>
   </g>
   <g id="line2d_64">
    <path clip-path="url(#pe0d496dc36)" d="M 333.71875 170.4 
L 333.71875 36.725977 
" style="fill:none;stroke:#808080;stroke-dasharray:1.5,2.475;stroke-dashoffset:0;stroke-width:1.5;"/>
   </g>
   <g id="line2d_65">
    <path clip-path="url(#pe0d496dc36)" d="M 260.033333 164.323908 
L 313.757149 164.250566 
L 315.728665 163.960555 
L 317.207302 163.485084 
L 318.19306 162.869667 
L 318.685939 162.385887 
L 319.671697 160.915653 
L 320.657455 158.737645 
L 322.628972 153.280203 
L 326.079125 143.958512 
L 328.050641 139.027666 
L 329.036399 137.101737 
L 330.022157 135.789488 
L 331.007915 135.087031 
L 331.993673 134.80533 
L 335.443827 134.488453 
L 336.429585 134.66716 
L 336.922464 134.960649 
L 337.415343 135.433292 
L 338.401101 136.901998 
L 339.879738 139.886172 
L 341.851254 144.39811 
L 343.82277 149.637799 
L 345.794287 154.700034 
L 347.272924 157.872971 
L 348.751561 160.635779 
L 349.737319 162.162267 
L 350.723077 163.265214 
L 351.708835 163.904386 
L 352.694593 164.192312 
L 354.17323 164.30942 
L 361.073537 164.323908 
L 407.404167 164.323908 
L 407.404167 164.323908 
" style="fill:none;stroke:#17becf;stroke-linecap:square;stroke-width:1.5;"/>
   </g>
   <g id="line2d_66">
    <path clip-path="url(#pe0d496dc36)" d="M 333.71875 170.4 
L 333.71875 36.725977 
" style="fill:none;stroke:#808080;stroke-dasharray:1.5,2.475;stroke-dashoffset:0;stroke-width:1.5;"/>
   </g>
   <g id="line2d_67">
    <path clip-path="url(#pe0d496dc36)" d="M 260.033333 164.323908 
L 321.150334 164.224562 
L 322.136093 163.915586 
L 322.628972 163.603461 
L 323.121851 163.096205 
L 323.61473 162.256675 
L 324.107609 160.921481 
L 324.600488 158.99648 
L 325.586246 153.748361 
L 330.022157 127.998943 
L 331.007915 122.542781 
L 331.993673 115.877503 
L 332.486552 113.323829 
L 332.979431 112.073004 
L 333.47231 112.107274 
L 333.96519 112.923066 
L 335.443827 116.152715 
L 335.936706 117.853967 
L 336.922464 123.231421 
L 337.908222 129.08423 
L 339.879738 138.744776 
L 342.344133 156.820838 
L 342.837012 159.044319 
L 343.329891 160.739037 
L 343.82277 162.001363 
L 344.315649 162.888524 
L 344.808528 163.451273 
L 345.301407 163.765967 
L 346.287166 164.030176 
L 348.258682 164.290199 
L 351.215956 164.323901 
L 407.404167 164.323908 
L 407.404167 164.323908 
" style="fill:none;stroke:#1f77b4;stroke-linecap:square;stroke-width:1.5;"/>
   </g>
   <g id="line2d_68">
    <path clip-path="url(#pe0d496dc36)" d="M 333.71875 170.4 
L 333.71875 36.725977 
" style="fill:none;stroke:#808080;stroke-dasharray:1.5,2.475;stroke-dashoffset:0;stroke-width:1.5;"/>
   </g>
   <g id="line2d_69">
    <path clip-path="url(#pe0d496dc36)" d="M 260.033333 164.323908 
L 324.600488 164.263137 
L 325.093367 164.139255 
L 325.586246 163.854402 
L 326.079125 163.302155 
L 326.572004 162.365379 
L 327.064883 160.910715 
L 327.557762 158.761009 
L 328.050641 155.693261 
L 328.54352 151.517591 
L 329.529278 140.03213 
L 331.500794 111.879656 
L 332.486552 98.177296 
L 333.47231 88.537491 
L 334.458069 80.519514 
L 334.950948 79.144038 
L 335.443827 82.221001 
L 335.936706 89.966043 
L 337.908222 130.609417 
L 338.89398 144.890722 
L 339.879738 155.036762 
L 340.372617 158.444971 
L 340.865496 160.708357 
L 341.358375 162.062964 
L 341.851254 162.875952 
L 342.837012 163.83016 
L 343.82277 164.236119 
L 345.301407 164.322574 
L 394.589312 164.323908 
L 407.404167 164.323908 
L 407.404167 164.323908 
" style="fill:none;stroke:#ff7f0e;stroke-linecap:square;stroke-width:1.5;"/>
   </g>
   <g id="line2d_70">
    <path clip-path="url(#pe0d496dc36)" d="M 333.71875 170.4 
L 333.71875 36.725977 
" style="fill:none;stroke:#808080;stroke-dasharray:1.5,2.475;stroke-dashoffset:0;stroke-width:1.5;"/>
   </g>
   <g id="line2d_71">
    <path clip-path="url(#pe0d496dc36)" d="M 260.033333 164.323908 
L 326.079125 164.313797 
L 326.572004 164.194573 
L 327.064883 163.490397 
L 327.557762 161.520471 
L 328.050641 159.001426 
L 329.036399 156.270915 
L 329.529278 153.026926 
L 330.022157 146.64109 
L 331.007915 126.874551 
L 331.500794 112.933892 
L 332.486552 74.589153 
L 332.979431 61.645598 
L 333.47231 54.437092 
L 333.96519 52.648297 
L 334.458069 57.187057 
L 334.950948 68.098643 
L 336.429585 106.640559 
L 338.89398 157.600616 
L 339.386859 161.637859 
L 339.879738 163.563043 
L 340.372617 164.196075 
L 341.358375 164.323392 
L 407.404167 164.323908 
L 407.404167 164.323908 
" style="fill:none;stroke:#2ca02c;stroke-linecap:square;stroke-width:1.5;"/>
   </g>
   <g id="line2d_72">
    <path clip-path="url(#pe0d496dc36)" d="M 333.71875 170.4 
L 333.71875 36.725977 
" style="fill:none;stroke:#808080;stroke-dasharray:1.5,2.475;stroke-dashoffset:0;stroke-width:1.5;"/>
   </g>
   <g id="line2d_73">
    <path clip-path="url(#pe0d496dc36)" d="M 260.033333 164.323908 
L 327.557762 164.249381 
L 328.050641 163.776858 
L 328.54352 162.25449 
L 329.036399 159.650463 
L 329.529278 156.237387 
L 330.022157 151.309242 
L 330.515036 143.439045 
L 331.007915 131.485298 
L 331.500794 115.869491 
L 332.979431 52.178524 
L 333.47231 42.802069 
L 333.96519 43.332221 
L 334.458069 46.311779 
L 334.950948 51.808869 
L 335.443827 63.502018 
L 335.936706 84.260689 
L 336.922464 131.770181 
L 337.415343 143.562169 
L 337.908222 149.270767 
L 339.386859 162.368684 
L 339.879738 163.944056 
L 340.372617 164.284565 
L 342.344133 164.323908 
L 407.404167 164.323908 
L 407.404167 164.323908 
" style="fill:none;stroke:#d62728;stroke-linecap:square;stroke-width:1.5;"/>
   </g>
   <g id="line2d_74">
    <path clip-path="url(#pe0d496dc36)" d="M 333.71875 170.4 
L 333.71875 36.725977 
" style="fill:none;stroke:#808080;stroke-dasharray:1.5,2.475;stroke-dashoffset:0;stroke-width:1.5;"/>
   </g>
   <g id="patch_6">
    <path d="M 260.033333 170.4 
L 260.033333 36.725977 
" style="fill:none;stroke:#000000;stroke-linecap:square;stroke-linejoin:miter;stroke-width:0.8;"/>
   </g>
   <g id="patch_7">
    <path d="M 260.033333 170.4 
L 407.404167 170.4 
" style="fill:none;stroke:#000000;stroke-linecap:square;stroke-linejoin:miter;stroke-width:0.8;"/>
   </g>
  </g>
  <g id="axes_3">
   <g id="patch_8">
    <path d="M 475.641667 170.4 
L 623.0125 170.4 
L 623.0125 36.725977 
L 475.641667 36.725977 
z
" style="fill:#ffffff;"/>
   </g>
   <g id="matplotlib.axis_5">
    <g id="xtick_11">
     <g id="line2d_75">
      <g>
       <use style="stroke:#000000;stroke-width:0.8;" x="475.641667" xlink:href="#md0d57f508a" y="170.4"/>
      </g>
     </g>
     <g id="text_23">
      <!-- 0.000 -->
      <g transform="translate(461.327604 184.998437)scale(0.1 -0.1)">
       <use xlink:href="#DejaVuSans-48"/>
       <use x="63.623047" xlink:href="#DejaVuSans-46"/>
       <use x="95.410156" xlink:href="#DejaVuSans-48"/>
       <use x="159.033203" xlink:href="#DejaVuSans-48"/>
       <use x="222.65625" xlink:href="#DejaVuSans-48"/>
      </g>
     </g>
    </g>
    <g id="xtick_12">
     <g id="line2d_76">
      <g>
       <use style="stroke:#000000;stroke-width:0.8;" x="512.484375" xlink:href="#md0d57f508a" y="170.4"/>
      </g>
     </g>
     <g id="text_24">
      <!-- 0.025 -->
      <g transform="translate(498.170313 184.998437)scale(0.1 -0.1)">
       <use xlink:href="#DejaVuSans-48"/>
       <use x="63.623047" xlink:href="#DejaVuSans-46"/>
       <use x="95.410156" xlink:href="#DejaVuSans-48"/>
       <use x="159.033203" xlink:href="#DejaVuSans-50"/>
       <use x="222.65625" xlink:href="#DejaVuSans-53"/>
      </g>
     </g>
    </g>
    <g id="xtick_13">
     <g id="line2d_77">
      <g>
       <use style="stroke:#000000;stroke-width:0.8;" x="549.327083" xlink:href="#md0d57f508a" y="170.4"/>
      </g>
     </g>
     <g id="text_25">
      <!-- 0.050 -->
      <g transform="translate(535.013021 184.998437)scale(0.1 -0.1)">
       <use xlink:href="#DejaVuSans-48"/>
       <use x="63.623047" xlink:href="#DejaVuSans-46"/>
       <use x="95.410156" xlink:href="#DejaVuSans-48"/>
       <use x="159.033203" xlink:href="#DejaVuSans-53"/>
       <use x="222.65625" xlink:href="#DejaVuSans-48"/>
      </g>
     </g>
    </g>
    <g id="xtick_14">
     <g id="line2d_78">
      <g>
       <use style="stroke:#000000;stroke-width:0.8;" x="586.169792" xlink:href="#md0d57f508a" y="170.4"/>
      </g>
     </g>
     <g id="text_26">
      <!-- 0.075 -->
      <g transform="translate(571.855729 184.998437)scale(0.1 -0.1)">
       <use xlink:href="#DejaVuSans-48"/>
       <use x="63.623047" xlink:href="#DejaVuSans-46"/>
       <use x="95.410156" xlink:href="#DejaVuSans-48"/>
       <use x="159.033203" xlink:href="#DejaVuSans-55"/>
       <use x="222.65625" xlink:href="#DejaVuSans-53"/>
      </g>
     </g>
    </g>
    <g id="xtick_15">
     <g id="line2d_79">
      <g>
       <use style="stroke:#000000;stroke-width:0.8;" x="623.0125" xlink:href="#md0d57f508a" y="170.4"/>
      </g>
     </g>
     <g id="text_27">
      <!-- 0.100 -->
      <g transform="translate(608.698438 184.998437)scale(0.1 -0.1)">
       <use xlink:href="#DejaVuSans-48"/>
       <use x="63.623047" xlink:href="#DejaVuSans-46"/>
       <use x="95.410156" xlink:href="#DejaVuSans-49"/>
       <use x="159.033203" xlink:href="#DejaVuSans-48"/>
       <use x="222.65625" xlink:href="#DejaVuSans-48"/>
      </g>
     </g>
    </g>
    <g id="text_28">
     <!-- $\theta_2$ -->
     <g transform="translate(543.877083 198.676562)scale(0.1 -0.1)">
      <use transform="translate(0 0.234375)" xlink:href="#DejaVuSans-Oblique-952"/>
      <use transform="translate(61.181641 -16.171875)scale(0.7)" xlink:href="#DejaVuSans-50"/>
     </g>
    </g>
   </g>
   <g id="matplotlib.axis_6">
    <g id="ytick_9">
     <g id="line2d_80">
      <g>
       <use style="stroke:#000000;stroke-width:0.8;" x="475.641667" xlink:href="#mbe4c824196" y="164.323908"/>
      </g>
     </g>
     <g id="text_29">
      <!-- 0 -->
      <g transform="translate(462.279167 168.123127)scale(0.1 -0.1)">
       <use xlink:href="#DejaVuSans-48"/>
      </g>
     </g>
    </g>
    <g id="ytick_10">
     <g id="line2d_81">
      <g>
       <use style="stroke:#000000;stroke-width:0.8;" x="475.641667" xlink:href="#mbe4c824196" y="128.306244"/>
      </g>
     </g>
     <g id="text_30">
      <!-- 20 -->
      <g transform="translate(455.916667 132.105463)scale(0.1 -0.1)">
       <use xlink:href="#DejaVuSans-50"/>
       <use x="63.623047" xlink:href="#DejaVuSans-48"/>
      </g>
     </g>
    </g>
    <g id="ytick_11">
     <g id="line2d_82">
      <g>
       <use style="stroke:#000000;stroke-width:0.8;" x="475.641667" xlink:href="#mbe4c824196" y="92.28858"/>
      </g>
     </g>
     <g id="text_31">
      <!-- 40 -->
      <g transform="translate(455.916667 96.087798)scale(0.1 -0.1)">
       <use xlink:href="#DejaVuSans-52"/>
       <use x="63.623047" xlink:href="#DejaVuSans-48"/>
      </g>
     </g>
    </g>
    <g id="ytick_12">
     <g id="line2d_83">
      <g>
       <use style="stroke:#000000;stroke-width:0.8;" x="475.641667" xlink:href="#mbe4c824196" y="56.270915"/>
      </g>
     </g>
     <g id="text_32">
      <!-- 60 -->
      <g transform="translate(455.916667 60.070134)scale(0.1 -0.1)">
       <defs>
        <path d="M 33.015625 40.375 
Q 26.375 40.375 22.484375 35.828125 
Q 18.609375 31.296875 18.609375 23.390625 
Q 18.609375 15.53125 22.484375 10.953125 
Q 26.375 6.390625 33.015625 6.390625 
Q 39.65625 6.390625 43.53125 10.953125 
Q 47.40625 15.53125 47.40625 23.390625 
Q 47.40625 31.296875 43.53125 35.828125 
Q 39.65625 40.375 33.015625 40.375 
z
M 52.59375 71.296875 
L 52.59375 62.3125 
Q 48.875 64.0625 45.09375 64.984375 
Q 41.3125 65.921875 37.59375 65.921875 
Q 27.828125 65.921875 22.671875 59.328125 
Q 17.53125 52.734375 16.796875 39.40625 
Q 19.671875 43.65625 24.015625 45.921875 
Q 28.375 48.1875 33.59375 48.1875 
Q 44.578125 48.1875 50.953125 41.515625 
Q 57.328125 34.859375 57.328125 23.390625 
Q 57.328125 12.15625 50.6875 5.359375 
Q 44.046875 -1.421875 33.015625 -1.421875 
Q 20.359375 -1.421875 13.671875 8.265625 
Q 6.984375 17.96875 6.984375 36.375 
Q 6.984375 53.65625 15.1875 63.9375 
Q 23.390625 74.21875 37.203125 74.21875 
Q 40.921875 74.21875 44.703125 73.484375 
Q 48.484375 72.75 52.59375 71.296875 
z
" id="DejaVuSans-54"/>
       </defs>
       <use xlink:href="#DejaVuSans-54"/>
       <use x="63.623047" xlink:href="#DejaVuSans-48"/>
      </g>
     </g>
    </g>
    <g id="text_33">
     <!-- Posterior -->
     <g transform="translate(449.836979 125.656738)rotate(-90)scale(0.1 -0.1)">
      <use xlink:href="#DejaVuSans-80"/>
      <use x="56.677734" xlink:href="#DejaVuSans-111"/>
      <use x="117.859375" xlink:href="#DejaVuSans-115"/>
      <use x="169.958984" xlink:href="#DejaVuSans-116"/>
      <use x="209.167969" xlink:href="#DejaVuSans-101"/>
      <use x="270.691406" xlink:href="#DejaVuSans-114"/>
      <use x="311.804688" xlink:href="#DejaVuSans-105"/>
      <use x="339.587891" xlink:href="#DejaVuSans-111"/>
      <use x="400.769531" xlink:href="#DejaVuSans-114"/>
     </g>
    </g>
   </g>
   <g id="line2d_84">
    <path clip-path="url(#pd30fe59ddd)" d="M 475.641667 157.677984 
L 481.556215 154.842145 
L 484.513489 153.67021 
L 487.470764 152.757922 
L 490.428038 152.115701 
L 493.385312 151.699459 
L 498.806982 151.221108 
L 503.242893 150.739295 
L 506.693046 150.154701 
L 510.636079 149.260412 
L 520.493659 146.889323 
L 523.943813 146.366338 
L 527.393966 146.093845 
L 530.844119 146.046249 
L 536.265789 146.231661 
L 542.180337 146.376685 
L 546.12337 146.255459 
L 550.559281 145.887942 
L 567.317168 144.201551 
L 571.75308 144.1059 
L 576.68187 144.220885 
L 591.468241 144.755775 
L 603.790217 144.720801 
L 606.747492 145.033575 
L 609.211887 145.51374 
L 611.676282 146.238826 
L 614.140677 147.236628 
L 616.605072 148.512352 
L 619.069468 150.042299 
L 622.026742 152.135279 
L 623.0125 152.873126 
L 623.0125 152.873126 
" style="fill:none;stroke:#1f77b4;stroke-linecap:square;stroke-width:1.5;"/>
   </g>
   <g id="line2d_85">
    <path clip-path="url(#pd30fe59ddd)" style="fill:none;stroke:#808080;stroke-dasharray:1.5,2.475;stroke-dashoffset:0;stroke-width:1.5;"/>
   </g>
   <g id="line2d_86">
    <path clip-path="url(#pd30fe59ddd)" d="M 475.641667 161.732867 
L 484.513489 159.969852 
L 493.878191 158.426662 
L 499.79274 157.332956 
L 504.228651 156.279667 
L 508.664562 154.977003 
L 520.493659 151.275301 
L 523.943813 150.518505 
L 527.886845 149.90313 
L 533.801394 149.274342 
L 539.715942 148.581242 
L 544.151853 147.809192 
L 548.587765 146.806362 
L 554.995192 145.112288 
L 564.359894 142.388691 
L 570.767322 140.602363 
L 574.710354 139.721067 
L 579.146265 138.976611 
L 588.510967 137.764779 
L 600.832943 136.110709 
L 603.297338 136.099384 
L 605.268855 136.29721 
L 607.240371 136.729738 
L 609.211887 137.437726 
L 611.183403 138.450606 
L 613.154919 139.781281 
L 615.126435 141.421786 
L 617.097952 143.340761 
L 619.562347 146.045911 
L 623.0125 150.129407 
L 623.0125 150.129407 
" style="fill:none;stroke:#ff7f0e;stroke-linecap:square;stroke-width:1.5;"/>
   </g>
   <g id="line2d_87">
    <path clip-path="url(#pd30fe59ddd)" style="fill:none;stroke:#808080;stroke-dasharray:1.5,2.475;stroke-dashoffset:0;stroke-width:1.5;"/>
   </g>
   <g id="line2d_88">
    <path clip-path="url(#pd30fe59ddd)" d="M 475.641667 163.687703 
L 481.063336 163.146216 
L 485.992127 162.453626 
L 490.920917 161.529286 
L 495.356828 160.472015 
L 499.79274 159.187631 
L 504.228651 157.668529 
L 509.650321 155.538724 
L 516.550627 152.822028 
L 520.00078 151.732813 
L 522.958055 151.025638 
L 526.408208 150.443341 
L 539.715942 148.525494 
L 544.151853 147.461228 
L 553.023676 145.255777 
L 556.966708 144.56603 
L 561.40262 144.036656 
L 568.302926 143.224478 
L 571.75308 142.570158 
L 575.203233 141.681137 
L 579.146265 140.414311 
L 584.075056 138.583039 
L 594.425516 134.667338 
L 597.38279 133.805303 
L 599.847185 133.278567 
L 602.31158 132.977667 
L 604.283096 132.935878 
L 606.254613 133.106514 
L 608.226129 133.528159 
L 609.704766 134.034264 
L 611.183403 134.722205 
L 612.66204 135.606416 
L 614.140677 136.696369 
L 616.112193 138.472207 
L 618.08371 140.595924 
L 620.548105 143.654834 
L 623.0125 146.999002 
L 623.0125 146.999002 
" style="fill:none;stroke:#2ca02c;stroke-linecap:square;stroke-width:1.5;"/>
   </g>
   <g id="line2d_89">
    <path clip-path="url(#pd30fe59ddd)" style="fill:none;stroke:#808080;stroke-dasharray:1.5,2.475;stroke-dashoffset:0;stroke-width:1.5;"/>
   </g>
   <g id="line2d_90">
    <path clip-path="url(#pd30fe59ddd)" d="M 475.641667 164.323683 
L 491.413796 164.211606 
L 495.849707 163.953733 
L 499.299861 163.521047 
L 502.257135 162.915806 
L 505.214409 162.064525 
L 508.171683 160.988019 
L 513.593353 158.707403 
L 517.536385 157.154896 
L 520.493659 156.220004 
L 523.450934 155.515984 
L 528.379724 154.643143 
L 531.829877 153.929957 
L 534.294273 153.216328 
L 536.758668 152.288615 
L 539.715942 150.917903 
L 544.151853 148.548213 
L 550.066402 145.397805 
L 553.516555 143.803794 
L 556.473829 142.662359 
L 559.431104 141.744424 
L 563.374136 140.776135 
L 568.795805 139.432103 
L 572.245959 138.308355 
L 576.68187 136.587091 
L 583.089298 134.103102 
L 587.03233 132.807178 
L 590.482483 131.894563 
L 593.932637 131.203669 
L 603.297338 129.71894 
L 606.254613 129.330821 
L 608.226129 129.281221 
L 609.704766 129.452394 
L 611.183403 129.876004 
L 612.66204 130.615316 
L 614.140677 131.721368 
L 615.619314 133.224236 
L 617.097952 135.125868 
L 618.576589 137.39598 
L 620.548105 140.883986 
L 623.0125 145.66448 
L 623.0125 145.66448 
" style="fill:none;stroke:#d62728;stroke-linecap:square;stroke-width:1.5;"/>
   </g>
   <g id="line2d_91">
    <path clip-path="url(#pd30fe59ddd)" style="fill:none;stroke:#808080;stroke-dasharray:1.5,2.475;stroke-dashoffset:0;stroke-width:1.5;"/>
   </g>
   <g id="line2d_92">
    <path clip-path="url(#pd30fe59ddd)" d="M 475.641667 164.323906 
L 498.314103 164.228027 
L 502.750014 163.996687 
L 506.200167 163.607777 
L 509.157441 163.06293 
L 512.114716 162.284113 
L 515.07199 161.255677 
L 518.029264 159.9857 
L 521.479418 158.247692 
L 527.886845 154.677982 
L 532.815635 152.065101 
L 539.715942 148.718412 
L 547.109128 145.280074 
L 550.066402 144.128831 
L 553.023676 143.220698 
L 555.98095 142.555487 
L 560.909741 141.743494 
L 564.852773 141.012568 
L 568.302926 140.137178 
L 572.245959 138.884963 
L 577.174749 137.088216 
L 581.117781 135.448678 
L 585.553693 133.334188 
L 591.468241 130.472866 
L 594.425516 129.296199 
L 596.889911 128.539959 
L 599.354306 128.018481 
L 601.818701 127.743709 
L 604.283096 127.727919 
L 606.254613 127.927888 
L 608.226129 128.366669 
L 609.704766 128.89714 
L 611.183403 129.644365 
L 612.66204 130.650633 
L 614.140677 131.953614 
L 615.619314 133.578685 
L 617.097952 135.531638 
L 619.069468 138.608543 
L 621.533863 143.032116 
L 623.0125 145.846566 
L 623.0125 145.846566 
" style="fill:none;stroke:#9467bd;stroke-linecap:square;stroke-width:1.5;"/>
   </g>
   <g id="line2d_93">
    <path clip-path="url(#pd30fe59ddd)" style="fill:none;stroke:#808080;stroke-dasharray:1.5,2.475;stroke-dashoffset:0;stroke-width:1.5;"/>
   </g>
   <g id="line2d_94">
    <path clip-path="url(#pd30fe59ddd)" d="M 475.641667 164.323908 
L 520.493659 164.231305 
L 524.436692 163.970455 
L 527.393966 163.545426 
L 530.35124 162.864107 
L 533.308514 161.918796 
L 536.265789 160.707453 
L 538.730184 159.466443 
L 541.194579 157.979979 
L 543.658974 156.245193 
L 547.109128 153.518933 
L 552.037918 149.635814 
L 555.488071 147.261884 
L 560.416862 143.9278 
L 562.881257 141.921525 
L 565.345652 139.60213 
L 571.75308 133.34358 
L 573.724596 131.767474 
L 575.696112 130.43872 
L 577.667628 129.362995 
L 579.639144 128.559939 
L 581.117781 128.155703 
L 582.596419 127.928255 
L 584.567935 127.871205 
L 590.482483 128.045143 
L 591.96112 127.788809 
L 593.439758 127.330685 
L 595.411274 126.432039 
L 597.875669 124.989899 
L 603.790217 121.366378 
L 606.254613 120.16358 
L 608.226129 119.47977 
L 609.704766 119.228543 
L 610.690524 119.237702 
L 611.676282 119.427524 
L 612.66204 119.834406 
L 613.647798 120.494502 
L 614.633556 121.440715 
L 615.619314 122.699304 
L 616.605072 124.286395 
L 617.590831 126.204768 
L 619.069468 129.670212 
L 620.548105 133.731161 
L 623.0125 141.260468 
L 623.0125 141.260468 
" style="fill:none;stroke:#8c564b;stroke-linecap:square;stroke-width:1.5;"/>
   </g>
   <g id="line2d_95">
    <path clip-path="url(#pd30fe59ddd)" style="fill:none;stroke:#808080;stroke-dasharray:1.5,2.475;stroke-dashoffset:0;stroke-width:1.5;"/>
   </g>
   <g id="line2d_96">
    <path clip-path="url(#pd30fe59ddd)" d="M 475.641667 164.323908 
L 534.294273 164.219601 
L 537.251547 163.967528 
L 539.223063 163.610009 
L 541.194579 163.015913 
L 542.673216 162.370991 
L 544.151853 161.528102 
L 545.630491 160.475862 
L 547.602007 158.762917 
L 550.066402 156.252433 
L 554.009434 152.139006 
L 555.98095 150.375848 
L 557.952467 148.876397 
L 565.345652 143.623583 
L 567.810047 141.425387 
L 571.260201 138.009742 
L 575.696112 133.211943 
L 578.160507 130.738028 
L 579.639144 129.532256 
L 581.117781 128.602888 
L 582.596419 127.930937 
L 588.018088 125.876277 
L 589.496725 124.950652 
L 591.96112 123.063945 
L 594.918395 120.844202 
L 596.889911 119.660594 
L 606.254613 114.804995 
L 607.73325 114.245882 
L 609.211887 113.92296 
L 610.690524 113.88611 
L 611.676282 114.045282 
L 612.66204 114.37652 
L 613.647798 114.912099 
L 614.633556 115.69529 
L 615.619314 116.77815 
L 616.605072 118.215661 
L 617.590831 120.056747 
L 618.576589 122.333623 
L 619.562347 125.051578 
L 621.040984 129.881777 
L 623.0125 137.293571 
L 623.0125 137.293571 
" style="fill:none;stroke:#e377c2;stroke-linecap:square;stroke-width:1.5;"/>
   </g>
   <g id="line2d_97">
    <path clip-path="url(#pd30fe59ddd)" style="fill:none;stroke:#808080;stroke-dasharray:1.5,2.475;stroke-dashoffset:0;stroke-width:1.5;"/>
   </g>
   <g id="line2d_98">
    <path clip-path="url(#pd30fe59ddd)" d="M 475.641667 164.323908 
L 544.644732 164.216562 
L 547.109128 163.980977 
L 549.080644 163.560894 
L 550.559281 163.0328 
L 552.037918 162.269896 
L 553.516555 161.245719 
L 554.995192 159.967168 
L 556.966708 157.951236 
L 562.881257 151.594205 
L 565.345652 149.351815 
L 569.781564 145.696849 
L 572.738838 143.149652 
L 574.710354 141.184687 
L 576.68187 138.90448 
L 579.639144 135.029595 
L 582.10354 131.863772 
L 584.075056 129.707348 
L 586.046572 127.943543 
L 590.975362 123.907492 
L 592.946878 121.884264 
L 595.411274 118.996286 
L 602.804459 109.781883 
L 607.73325 103.547054 
L 609.211887 102.088938 
L 610.197645 101.381009 
L 611.183403 100.952789 
L 612.169161 100.861961 
L 613.154919 101.164325 
L 614.140677 101.913255 
L 615.126435 103.158436 
L 616.112193 104.942828 
L 617.097952 107.29729 
L 618.08371 110.233173 
L 619.069468 113.734184 
L 620.548105 119.923949 
L 622.519621 129.371564 
L 623.0125 131.826311 
L 623.0125 131.826311 
" style="fill:none;stroke:#7f7f7f;stroke-linecap:square;stroke-width:1.5;"/>
   </g>
   <g id="line2d_99">
    <path clip-path="url(#pd30fe59ddd)" style="fill:none;stroke:#808080;stroke-dasharray:1.5,2.475;stroke-dashoffset:0;stroke-width:1.5;"/>
   </g>
   <g id="line2d_100">
    <path clip-path="url(#pd30fe59ddd)" d="M 475.641667 164.323908 
L 546.616249 164.23056 
L 549.573523 163.967229 
L 551.545039 163.565618 
L 553.023676 163.080408 
L 554.502313 162.401977 
L 555.98095 161.518652 
L 557.952467 160.054279 
L 560.909741 157.488207 
L 568.302926 150.732381 
L 570.767322 148.071641 
L 574.217475 143.950229 
L 578.160507 139.317464 
L 581.117781 136.2108 
L 586.539451 130.685329 
L 588.510967 128.3136 
L 590.975362 124.965216 
L 595.411274 118.755376 
L 597.38279 116.400011 
L 599.354306 114.44825 
L 601.325822 112.872738 
L 606.747492 108.951795 
L 608.226129 107.318248 
L 609.704766 105.168882 
L 611.183403 102.520174 
L 614.140677 96.983606 
L 615.126435 95.737494 
L 615.619314 95.359187 
L 616.112193 95.184118 
L 616.605072 95.239877 
L 617.097952 95.550773 
L 617.590831 96.136795 
L 618.08371 97.012697 
L 618.576589 98.187231 
L 619.562347 101.434109 
L 620.548105 105.812445 
L 621.533863 111.151862 
L 623.0125 120.384508 
L 623.0125 120.384508 
" style="fill:none;stroke:#bcbd22;stroke-linecap:square;stroke-width:1.5;"/>
   </g>
   <g id="line2d_101">
    <path clip-path="url(#pd30fe59ddd)" style="fill:none;stroke:#808080;stroke-dasharray:1.5,2.475;stroke-dashoffset:0;stroke-width:1.5;"/>
   </g>
   <g id="line2d_102">
    <path clip-path="url(#pd30fe59ddd)" d="M 475.641667 164.323908 
L 560.909741 164.213573 
L 562.388378 164.024835 
L 563.867015 163.608617 
L 564.852773 163.128531 
L 565.838531 162.428879 
L 566.824289 161.469566 
L 567.810047 160.230992 
L 569.288685 157.879289 
L 571.260201 154.094661 
L 576.68187 142.85838 
L 582.10354 131.3131 
L 584.075056 127.957743 
L 586.539451 124.328759 
L 588.510967 121.756139 
L 589.989604 120.161026 
L 591.468241 118.945424 
L 592.946878 118.06936 
L 594.918395 117.247133 
L 596.889911 116.677228 
L 598.861427 116.147147 
L 599.847185 115.690761 
L 600.832943 114.9218 
L 601.818701 113.695709 
L 602.804459 111.911109 
L 603.790217 109.545466 
L 605.268855 105.094994 
L 608.226129 95.434878 
L 609.211887 92.80863 
L 610.197645 90.732747 
L 611.183403 89.251068 
L 612.169161 88.347763 
L 612.66204 88.098974 
L 613.154919 87.977396 
L 613.647798 87.97867 
L 614.140677 88.101005 
L 614.633556 88.346016 
L 615.619314 89.230856 
L 616.605072 90.729291 
L 617.590831 92.995936 
L 618.576589 96.211442 
L 619.562347 100.528073 
L 620.548105 106.004969 
L 622.026742 116.153355 
L 623.0125 123.769425 
L 623.0125 123.769425 
" style="fill:none;stroke:#17becf;stroke-linecap:square;stroke-width:1.5;"/>
   </g>
   <g id="line2d_103">
    <path clip-path="url(#pd30fe59ddd)" style="fill:none;stroke:#808080;stroke-dasharray:1.5,2.475;stroke-dashoffset:0;stroke-width:1.5;"/>
   </g>
   <g id="line2d_104">
    <path clip-path="url(#pd30fe59ddd)" d="M 475.641667 164.323908 
L 565.838531 164.230982 
L 567.810047 163.957169 
L 569.288685 163.476319 
L 570.274443 162.962268 
L 571.260201 162.265843 
L 572.245959 161.375042 
L 573.724596 159.65626 
L 575.203233 157.426877 
L 576.68187 154.609307 
L 578.160507 151.244179 
L 581.117781 144.321237 
L 582.10354 142.472127 
L 583.089298 140.95934 
L 584.567935 139.163968 
L 586.539451 136.879939 
L 587.525209 135.427673 
L 588.510967 133.622833 
L 589.989604 130.230766 
L 593.932637 120.097875 
L 595.411274 117.216556 
L 598.861427 111.220571 
L 600.340064 107.858149 
L 602.31158 102.586086 
L 604.775975 95.997415 
L 606.254613 92.560288 
L 608.226129 88.630496 
L 610.197645 85.217616 
L 612.169161 82.206623 
L 614.140677 79.560268 
L 615.619314 77.899968 
L 616.112193 77.502601 
L 616.605072 77.252937 
L 617.097952 77.211859 
L 617.590831 77.450825 
L 618.08371 78.047916 
L 618.576589 79.082205 
L 619.069468 80.626888 
L 619.562347 82.741831 
L 620.548105 88.813381 
L 621.533863 97.271337 
L 623.0125 113.186183 
L 623.0125 113.186183 
" style="fill:none;stroke:#1f77b4;stroke-linecap:square;stroke-width:1.5;"/>
   </g>
   <g id="line2d_105">
    <path clip-path="url(#pd30fe59ddd)" style="fill:none;stroke:#808080;stroke-dasharray:1.5,2.475;stroke-dashoffset:0;stroke-width:1.5;"/>
   </g>
   <g id="line2d_106">
    <path clip-path="url(#pd30fe59ddd)" d="M 475.641667 164.323908 
L 561.895499 164.23215 
L 563.867015 164.032731 
L 565.345652 163.691197 
L 566.33141 163.306774 
L 567.317168 162.743384 
L 568.302926 161.949519 
L 569.288685 160.874644 
L 570.274443 159.47722 
L 571.260201 157.734318 
L 572.738838 154.493185 
L 574.710354 149.313347 
L 577.174749 142.741368 
L 578.653386 139.529608 
L 579.639144 137.881186 
L 580.624902 136.647359 
L 581.610661 135.782803 
L 582.596419 135.194556 
L 586.046572 133.471329 
L 587.03233 132.605395 
L 588.018088 131.456996 
L 589.003846 130.027879 
L 590.482483 127.445564 
L 593.439758 121.543391 
L 595.904153 116.857237 
L 598.368548 112.725831 
L 602.804459 105.524843 
L 605.268855 101.030389 
L 610.690524 90.73699 
L 611.676282 89.231785 
L 612.66204 88.043778 
L 613.647798 87.294856 
L 614.140677 87.127013 
L 614.633556 87.120121 
L 615.126435 87.291383 
L 615.619314 87.657235 
L 616.112193 88.232787 
L 616.605072 89.03123 
L 617.590831 91.336429 
L 618.576589 94.618303 
L 619.562347 98.858782 
L 620.548105 103.968423 
L 622.026742 112.897689 
L 623.0125 119.361412 
L 623.0125 119.361412 
" style="fill:none;stroke:#ff7f0e;stroke-linecap:square;stroke-width:1.5;"/>
   </g>
   <g id="line2d_107">
    <path clip-path="url(#pd30fe59ddd)" style="fill:none;stroke:#808080;stroke-dasharray:1.5,2.475;stroke-dashoffset:0;stroke-width:1.5;"/>
   </g>
   <g id="line2d_108">
    <path clip-path="url(#pd30fe59ddd)" d="M 475.641667 164.323908 
L 573.231717 164.218814 
L 574.710354 163.953142 
L 575.696112 163.561619 
L 576.68187 162.892841 
L 577.667628 161.85756 
L 578.653386 160.396605 
L 579.639144 158.503881 
L 581.117781 154.994772 
L 585.060814 144.908355 
L 588.510967 137.071678 
L 589.989604 132.847707 
L 591.96112 127.059541 
L 592.946878 124.68089 
L 593.932637 122.809747 
L 595.411274 120.66344 
L 596.889911 118.549957 
L 597.875669 116.838654 
L 599.354306 113.751381 
L 600.832943 110.137445 
L 602.31158 105.829151 
L 603.790217 100.550082 
L 612.66204 65.840045 
L 613.647798 62.958864 
L 614.140677 61.893001 
L 614.633556 61.124166 
L 615.126435 60.678812 
L 615.619314 60.57659 
L 616.112193 60.831589 
L 616.605072 61.454287 
L 617.097952 62.454092 
L 617.590831 63.84222 
L 618.08371 65.634434 
L 619.069468 70.526573 
L 620.055226 77.371963 
L 621.040984 86.38383 
L 622.026742 97.500612 
L 623.0125 110.154696 
L 623.0125 110.154696 
" style="fill:none;stroke:#2ca02c;stroke-linecap:square;stroke-width:1.5;"/>
   </g>
   <g id="line2d_109">
    <path clip-path="url(#pd30fe59ddd)" style="fill:none;stroke:#808080;stroke-dasharray:1.5,2.475;stroke-dashoffset:0;stroke-width:1.5;"/>
   </g>
   <g id="line2d_110">
    <path clip-path="url(#pd30fe59ddd)" d="M 475.641667 164.323908 
L 580.132023 164.241283 
L 581.610661 163.982785 
L 582.596419 163.556726 
L 583.582177 162.772523 
L 584.567935 161.497591 
L 585.553693 159.67101 
L 587.03233 156.101365 
L 589.496725 149.867443 
L 591.468241 145.167505 
L 592.453999 142.229902 
L 593.439758 138.571831 
L 594.918395 131.833489 
L 597.875669 116.457982 
L 599.847185 106.39475 
L 600.832943 102.134363 
L 601.818701 98.883398 
L 602.804459 96.717199 
L 604.775975 93.629647 
L 605.268855 92.532403 
L 606.254613 89.414224 
L 607.240371 85.021442 
L 608.719008 76.809204 
L 613.154919 50.955618 
L 614.140677 46.701694 
L 614.633556 45.090611 
L 615.126435 43.883914 
L 615.619314 43.113258 
L 616.112193 42.802069 
L 616.605072 42.970734 
L 617.097952 43.642897 
L 617.590831 44.851197 
L 618.08371 46.64079 
L 618.576589 49.069262 
L 619.069468 52.202092 
L 620.055226 60.82481 
L 621.040984 72.775649 
L 622.026742 87.683812 
L 623.0125 104.339938 
L 623.0125 104.339938 
" style="fill:none;stroke:#d62728;stroke-linecap:square;stroke-width:1.5;"/>
   </g>
   <g id="line2d_111">
    <path clip-path="url(#pd30fe59ddd)" style="fill:none;stroke:#808080;stroke-dasharray:1.5,2.475;stroke-dashoffset:0;stroke-width:1.5;"/>
   </g>
   <g id="patch_9">
    <path d="M 475.641667 170.4 
L 475.641667 36.725977 
" style="fill:none;stroke:#000000;stroke-linecap:square;stroke-linejoin:miter;stroke-width:0.8;"/>
   </g>
   <g id="patch_10">
    <path d="M 475.641667 170.4 
L 623.0125 170.4 
" style="fill:none;stroke:#000000;stroke-linecap:square;stroke-linejoin:miter;stroke-width:0.8;"/>
   </g>
  </g>
  <g id="text_34">
   <!-- adaptive, linear model, normalized, 2 fits, bias correction -->
   <g transform="translate(152.295 13.438125)scale(0.12 -0.12)">
    <defs>
     <path d="M 34.28125 27.484375 
Q 23.390625 27.484375 19.1875 25 
Q 14.984375 22.515625 14.984375 16.5 
Q 14.984375 11.71875 18.140625 8.90625 
Q 21.296875 6.109375 26.703125 6.109375 
Q 34.1875 6.109375 38.703125 11.40625 
Q 43.21875 16.703125 43.21875 25.484375 
L 43.21875 27.484375 
z
M 52.203125 31.203125 
L 52.203125 0 
L 43.21875 0 
L 43.21875 8.296875 
Q 40.140625 3.328125 35.546875 0.953125 
Q 30.953125 -1.421875 24.3125 -1.421875 
Q 15.921875 -1.421875 10.953125 3.296875 
Q 6 8.015625 6 15.921875 
Q 6 25.140625 12.171875 29.828125 
Q 18.359375 34.515625 30.609375 34.515625 
L 43.21875 34.515625 
L 43.21875 35.40625 
Q 43.21875 41.609375 39.140625 45 
Q 35.0625 48.390625 27.6875 48.390625 
Q 23 48.390625 18.546875 47.265625 
Q 14.109375 46.140625 10.015625 43.890625 
L 10.015625 52.203125 
Q 14.9375 54.109375 19.578125 55.046875 
Q 24.21875 56 28.609375 56 
Q 40.484375 56 46.34375 49.84375 
Q 52.203125 43.703125 52.203125 31.203125 
z
" id="DejaVuSans-97"/>
     <path d="M 45.40625 46.390625 
L 45.40625 75.984375 
L 54.390625 75.984375 
L 54.390625 0 
L 45.40625 0 
L 45.40625 8.203125 
Q 42.578125 3.328125 38.25 0.953125 
Q 33.9375 -1.421875 27.875 -1.421875 
Q 17.96875 -1.421875 11.734375 6.484375 
Q 5.515625 14.40625 5.515625 27.296875 
Q 5.515625 40.1875 11.734375 48.09375 
Q 17.96875 56 27.875 56 
Q 33.9375 56 38.25 53.625 
Q 42.578125 51.265625 45.40625 46.390625 
z
M 14.796875 27.296875 
Q 14.796875 17.390625 18.875 11.75 
Q 22.953125 6.109375 30.078125 6.109375 
Q 37.203125 6.109375 41.296875 11.75 
Q 45.40625 17.390625 45.40625 27.296875 
Q 45.40625 37.203125 41.296875 42.84375 
Q 37.203125 48.484375 30.078125 48.484375 
Q 22.953125 48.484375 18.875 42.84375 
Q 14.796875 37.203125 14.796875 27.296875 
z
" id="DejaVuSans-100"/>
     <path d="M 18.109375 8.203125 
L 18.109375 -20.796875 
L 9.078125 -20.796875 
L 9.078125 54.6875 
L 18.109375 54.6875 
L 18.109375 46.390625 
Q 20.953125 51.265625 25.265625 53.625 
Q 29.59375 56 35.59375 56 
Q 45.5625 56 51.78125 48.09375 
Q 58.015625 40.1875 58.015625 27.296875 
Q 58.015625 14.40625 51.78125 6.484375 
Q 45.5625 -1.421875 35.59375 -1.421875 
Q 29.59375 -1.421875 25.265625 0.953125 
Q 20.953125 3.328125 18.109375 8.203125 
z
M 48.6875 27.296875 
Q 48.6875 37.203125 44.609375 42.84375 
Q 40.53125 48.484375 33.40625 48.484375 
Q 26.265625 48.484375 22.1875 42.84375 
Q 18.109375 37.203125 18.109375 27.296875 
Q 18.109375 17.390625 22.1875 11.75 
Q 26.265625 6.109375 33.40625 6.109375 
Q 40.53125 6.109375 44.609375 11.75 
Q 48.6875 17.390625 48.6875 27.296875 
z
" id="DejaVuSans-112"/>
     <path d="M 2.984375 54.6875 
L 12.5 54.6875 
L 29.59375 8.796875 
L 46.6875 54.6875 
L 56.203125 54.6875 
L 35.6875 0 
L 23.484375 0 
z
" id="DejaVuSans-118"/>
     <path d="M 11.71875 12.40625 
L 22.015625 12.40625 
L 22.015625 4 
L 14.015625 -11.625 
L 7.71875 -11.625 
L 11.71875 4 
z
" id="DejaVuSans-44"/>
     <path id="DejaVuSans-32"/>
     <path d="M 9.421875 75.984375 
L 18.40625 75.984375 
L 18.40625 0 
L 9.421875 0 
z
" id="DejaVuSans-108"/>
     <path d="M 54.890625 33.015625 
L 54.890625 0 
L 45.90625 0 
L 45.90625 32.71875 
Q 45.90625 40.484375 42.875 44.328125 
Q 39.84375 48.1875 33.796875 48.1875 
Q 26.515625 48.1875 22.3125 43.546875 
Q 18.109375 38.921875 18.109375 30.90625 
L 18.109375 0 
L 9.078125 0 
L 9.078125 54.6875 
L 18.109375 54.6875 
L 18.109375 46.1875 
Q 21.34375 51.125 25.703125 53.5625 
Q 30.078125 56 35.796875 56 
Q 45.21875 56 50.046875 50.171875 
Q 54.890625 44.34375 54.890625 33.015625 
z
" id="DejaVuSans-110"/>
     <path d="M 52 44.1875 
Q 55.375 50.25 60.0625 53.125 
Q 64.75 56 71.09375 56 
Q 79.640625 56 84.28125 50.015625 
Q 88.921875 44.046875 88.921875 33.015625 
L 88.921875 0 
L 79.890625 0 
L 79.890625 32.71875 
Q 79.890625 40.578125 77.09375 44.375 
Q 74.3125 48.1875 68.609375 48.1875 
Q 61.625 48.1875 57.5625 43.546875 
Q 53.515625 38.921875 53.515625 30.90625 
L 53.515625 0 
L 44.484375 0 
L 44.484375 32.71875 
Q 44.484375 40.625 41.703125 44.40625 
Q 38.921875 48.1875 33.109375 48.1875 
Q 26.21875 48.1875 22.15625 43.53125 
Q 18.109375 38.875 18.109375 30.90625 
L 18.109375 0 
L 9.078125 0 
L 9.078125 54.6875 
L 18.109375 54.6875 
L 18.109375 46.1875 
Q 21.1875 51.21875 25.484375 53.609375 
Q 29.78125 56 35.6875 56 
Q 41.65625 56 45.828125 52.96875 
Q 50 49.953125 52 44.1875 
z
" id="DejaVuSans-109"/>
     <path d="M 5.515625 54.6875 
L 48.1875 54.6875 
L 48.1875 46.484375 
L 14.40625 7.171875 
L 48.1875 7.171875 
L 48.1875 0 
L 4.296875 0 
L 4.296875 8.203125 
L 38.09375 47.515625 
L 5.515625 47.515625 
z
" id="DejaVuSans-122"/>
     <path d="M 37.109375 75.984375 
L 37.109375 68.5 
L 28.515625 68.5 
Q 23.6875 68.5 21.796875 66.546875 
Q 19.921875 64.59375 19.921875 59.515625 
L 19.921875 54.6875 
L 34.71875 54.6875 
L 34.71875 47.703125 
L 19.921875 47.703125 
L 19.921875 0 
L 10.890625 0 
L 10.890625 47.703125 
L 2.296875 47.703125 
L 2.296875 54.6875 
L 10.890625 54.6875 
L 10.890625 58.5 
Q 10.890625 67.625 15.140625 71.796875 
Q 19.390625 75.984375 28.609375 75.984375 
z
" id="DejaVuSans-102"/>
     <path d="M 48.6875 27.296875 
Q 48.6875 37.203125 44.609375 42.84375 
Q 40.53125 48.484375 33.40625 48.484375 
Q 26.265625 48.484375 22.1875 42.84375 
Q 18.109375 37.203125 18.109375 27.296875 
Q 18.109375 17.390625 22.1875 11.75 
Q 26.265625 6.109375 33.40625 6.109375 
Q 40.53125 6.109375 44.609375 11.75 
Q 48.6875 17.390625 48.6875 27.296875 
z
M 18.109375 46.390625 
Q 20.953125 51.265625 25.265625 53.625 
Q 29.59375 56 35.59375 56 
Q 45.5625 56 51.78125 48.09375 
Q 58.015625 40.1875 58.015625 27.296875 
Q 58.015625 14.40625 51.78125 6.484375 
Q 45.5625 -1.421875 35.59375 -1.421875 
Q 29.59375 -1.421875 25.265625 0.953125 
Q 20.953125 3.328125 18.109375 8.203125 
L 18.109375 0 
L 9.078125 0 
L 9.078125 75.984375 
L 18.109375 75.984375 
z
" id="DejaVuSans-98"/>
     <path d="M 48.78125 52.59375 
L 48.78125 44.1875 
Q 44.96875 46.296875 41.140625 47.34375 
Q 37.3125 48.390625 33.40625 48.390625 
Q 24.65625 48.390625 19.8125 42.84375 
Q 14.984375 37.3125 14.984375 27.296875 
Q 14.984375 17.28125 19.8125 11.734375 
Q 24.65625 6.203125 33.40625 6.203125 
Q 37.3125 6.203125 41.140625 7.25 
Q 44.96875 8.296875 48.78125 10.40625 
L 48.78125 2.09375 
Q 45.015625 0.34375 40.984375 -0.53125 
Q 36.96875 -1.421875 32.421875 -1.421875 
Q 20.0625 -1.421875 12.78125 6.34375 
Q 5.515625 14.109375 5.515625 27.296875 
Q 5.515625 40.671875 12.859375 48.328125 
Q 20.21875 56 33.015625 56 
Q 37.15625 56 41.109375 55.140625 
Q 45.0625 54.296875 48.78125 52.59375 
z
" id="DejaVuSans-99"/>
    </defs>
    <use xlink:href="#DejaVuSans-97"/>
    <use x="61.279297" xlink:href="#DejaVuSans-100"/>
    <use x="124.755859" xlink:href="#DejaVuSans-97"/>
    <use x="186.035156" xlink:href="#DejaVuSans-112"/>
    <use x="249.511719" xlink:href="#DejaVuSans-116"/>
    <use x="288.720703" xlink:href="#DejaVuSans-105"/>
    <use x="316.503906" xlink:href="#DejaVuSans-118"/>
    <use x="375.683594" xlink:href="#DejaVuSans-101"/>
    <use x="437.207031" xlink:href="#DejaVuSans-44"/>
    <use x="468.994141" xlink:href="#DejaVuSans-32"/>
    <use x="500.78125" xlink:href="#DejaVuSans-108"/>
    <use x="528.564453" xlink:href="#DejaVuSans-105"/>
    <use x="556.347656" xlink:href="#DejaVuSans-110"/>
    <use x="619.726562" xlink:href="#DejaVuSans-101"/>
    <use x="681.25" xlink:href="#DejaVuSans-97"/>
    <use x="742.529297" xlink:href="#DejaVuSans-114"/>
    <use x="783.642578" xlink:href="#DejaVuSans-32"/>
    <use x="815.429688" xlink:href="#DejaVuSans-109"/>
    <use x="912.841797" xlink:href="#DejaVuSans-111"/>
    <use x="974.023438" xlink:href="#DejaVuSans-100"/>
    <use x="1037.5" xlink:href="#DejaVuSans-101"/>
    <use x="1099.023438" xlink:href="#DejaVuSans-108"/>
    <use x="1126.806641" xlink:href="#DejaVuSans-44"/>
    <use x="1158.59375" xlink:href="#DejaVuSans-32"/>
    <use x="1190.380859" xlink:href="#DejaVuSans-110"/>
    <use x="1253.759766" xlink:href="#DejaVuSans-111"/>
    <use x="1314.941406" xlink:href="#DejaVuSans-114"/>
    <use x="1354.304688" xlink:href="#DejaVuSans-109"/>
    <use x="1451.716797" xlink:href="#DejaVuSans-97"/>
    <use x="1512.996094" xlink:href="#DejaVuSans-108"/>
    <use x="1540.779297" xlink:href="#DejaVuSans-105"/>
    <use x="1568.5625" xlink:href="#DejaVuSans-122"/>
    <use x="1621.052734" xlink:href="#DejaVuSans-101"/>
    <use x="1682.576172" xlink:href="#DejaVuSans-100"/>
    <use x="1746.052734" xlink:href="#DejaVuSans-44"/>
    <use x="1777.839844" xlink:href="#DejaVuSans-32"/>
    <use x="1809.626953" xlink:href="#DejaVuSans-50"/>
    <use x="1873.25" xlink:href="#DejaVuSans-32"/>
    <use x="1905.037109" xlink:href="#DejaVuSans-102"/>
    <use x="1940.242188" xlink:href="#DejaVuSans-105"/>
    <use x="1968.025391" xlink:href="#DejaVuSans-116"/>
    <use x="2007.234375" xlink:href="#DejaVuSans-115"/>
    <use x="2059.333984" xlink:href="#DejaVuSans-44"/>
    <use x="2091.121094" xlink:href="#DejaVuSans-32"/>
    <use x="2122.908203" xlink:href="#DejaVuSans-98"/>
    <use x="2186.384766" xlink:href="#DejaVuSans-105"/>
    <use x="2214.167969" xlink:href="#DejaVuSans-97"/>
    <use x="2275.447266" xlink:href="#DejaVuSans-115"/>
    <use x="2327.546875" xlink:href="#DejaVuSans-32"/>
    <use x="2359.333984" xlink:href="#DejaVuSans-99"/>
    <use x="2414.314453" xlink:href="#DejaVuSans-111"/>
    <use x="2475.496094" xlink:href="#DejaVuSans-114"/>
    <use x="2514.859375" xlink:href="#DejaVuSans-114"/>
    <use x="2553.722656" xlink:href="#DejaVuSans-101"/>
    <use x="2615.246094" xlink:href="#DejaVuSans-99"/>
    <use x="2670.226562" xlink:href="#DejaVuSans-116"/>
    <use x="2709.435547" xlink:href="#DejaVuSans-105"/>
    <use x="2737.21875" xlink:href="#DejaVuSans-111"/>
    <use x="2798.400391" xlink:href="#DejaVuSans-110"/>
   </g>
  </g>
 </g>
 <defs>
  <clipPath id="p2daddc9a15">
   <rect height="133.674023" width="147.370833" x="44.425" y="36.725977"/>
  </clipPath>
  <clipPath id="pe0d496dc36">
   <rect height="133.674023" width="147.370833" x="260.033333" y="36.725977"/>
  </clipPath>
  <clipPath id="pd30fe59ddd">
   <rect height="133.674023" width="147.370833" x="475.641667" y="36.725977"/>
  </clipPath>
 </defs>
</svg>
