<?xml version="1.0" encoding="utf-8" standalone="no"?>
<!DOCTYPE svg PUBLIC "-//W3C//DTD SVG 1.1//EN"
  "http://www.w3.org/Graphics/SVG/1.1/DTD/svg11.dtd">
<!-- Created with matplotlib (https://matplotlib.org/) -->
<svg height="216pt" version="1.1" viewBox="0 0 648 216" width="648pt" xmlns="http://www.w3.org/2000/svg" xmlns:xlink="http://www.w3.org/1999/xlink">
 <metadata>
  <rdf:RDF xmlns:cc="http://creativecommons.org/ns#" xmlns:dc="http://purl.org/dc/elements/1.1/" xmlns:rdf="http://www.w3.org/1999/02/22-rdf-syntax-ns#">
   <cc:Work>
    <dc:type rdf:resource="http://purl.org/dc/dcmitype/StillImage"/>
    <dc:date>2021-04-22T11:29:16.873225</dc:date>
    <dc:format>image/svg+xml</dc:format>
    <dc:creator>
     <cc:Agent>
      <dc:title>Matplotlib v3.3.4, https://matplotlib.org/</dc:title>
     </cc:Agent>
    </dc:creator>
   </cc:Work>
  </rdf:RDF>
 </metadata>
 <defs>
  <style type="text/css">*{stroke-linecap:butt;stroke-linejoin:round;}</style>
 </defs>
 <g id="figure_1">
  <g id="patch_1">
   <path d="M 0 216 
L 648 216 
L 648 0 
L 0 0 
z
" style="fill:none;"/>
  </g>
  <g id="axes_1">
   <g id="patch_2">
    <path d="M 44.55 170.4 
L 187.7125 170.4 
L 187.7125 37.497202 
L 44.55 37.497202 
z
" style="fill:#ffffff;"/>
   </g>
   <g id="matplotlib.axis_1">
    <g id="xtick_1">
     <g id="line2d_1">
      <defs>
       <path d="M 0 0 
L 0 3.5 
" id="m4a63627529" style="stroke:#000000;stroke-width:0.8;"/>
      </defs>
      <g>
       <use style="stroke:#000000;stroke-width:0.8;" x="44.55" xlink:href="#m4a63627529" y="170.4"/>
      </g>
     </g>
     <g id="text_1">
      <!-- 0.000 -->
      <g transform="translate(30.235938 184.998437)scale(0.1 -0.1)">
       <defs>
        <path d="M 31.78125 66.40625 
Q 24.171875 66.40625 20.328125 58.90625 
Q 16.5 51.421875 16.5 36.375 
Q 16.5 21.390625 20.328125 13.890625 
Q 24.171875 6.390625 31.78125 6.390625 
Q 39.453125 6.390625 43.28125 13.890625 
Q 47.125 21.390625 47.125 36.375 
Q 47.125 51.421875 43.28125 58.90625 
Q 39.453125 66.40625 31.78125 66.40625 
z
M 31.78125 74.21875 
Q 44.046875 74.21875 50.515625 64.515625 
Q 56.984375 54.828125 56.984375 36.375 
Q 56.984375 17.96875 50.515625 8.265625 
Q 44.046875 -1.421875 31.78125 -1.421875 
Q 19.53125 -1.421875 13.0625 8.265625 
Q 6.59375 17.96875 6.59375 36.375 
Q 6.59375 54.828125 13.0625 64.515625 
Q 19.53125 74.21875 31.78125 74.21875 
z
" id="DejaVuSans-48"/>
        <path d="M 10.6875 12.40625 
L 21 12.40625 
L 21 0 
L 10.6875 0 
z
" id="DejaVuSans-46"/>
       </defs>
       <use xlink:href="#DejaVuSans-48"/>
       <use x="63.623047" xlink:href="#DejaVuSans-46"/>
       <use x="95.410156" xlink:href="#DejaVuSans-48"/>
       <use x="159.033203" xlink:href="#DejaVuSans-48"/>
       <use x="222.65625" xlink:href="#DejaVuSans-48"/>
      </g>
     </g>
    </g>
    <g id="xtick_2">
     <g id="line2d_2">
      <g>
       <use style="stroke:#000000;stroke-width:0.8;" x="80.340625" xlink:href="#m4a63627529" y="170.4"/>
      </g>
     </g>
     <g id="text_2">
      <!-- 0.025 -->
      <g transform="translate(66.026562 184.998437)scale(0.1 -0.1)">
       <defs>
        <path d="M 19.1875 8.296875 
L 53.609375 8.296875 
L 53.609375 0 
L 7.328125 0 
L 7.328125 8.296875 
Q 12.9375 14.109375 22.625 23.890625 
Q 32.328125 33.6875 34.8125 36.53125 
Q 39.546875 41.84375 41.421875 45.53125 
Q 43.3125 49.21875 43.3125 52.78125 
Q 43.3125 58.59375 39.234375 62.25 
Q 35.15625 65.921875 28.609375 65.921875 
Q 23.96875 65.921875 18.8125 64.3125 
Q 13.671875 62.703125 7.8125 59.421875 
L 7.8125 69.390625 
Q 13.765625 71.78125 18.9375 73 
Q 24.125 74.21875 28.421875 74.21875 
Q 39.75 74.21875 46.484375 68.546875 
Q 53.21875 62.890625 53.21875 53.421875 
Q 53.21875 48.921875 51.53125 44.890625 
Q 49.859375 40.875 45.40625 35.40625 
Q 44.1875 33.984375 37.640625 27.21875 
Q 31.109375 20.453125 19.1875 8.296875 
z
" id="DejaVuSans-50"/>
        <path d="M 10.796875 72.90625 
L 49.515625 72.90625 
L 49.515625 64.59375 
L 19.828125 64.59375 
L 19.828125 46.734375 
Q 21.96875 47.46875 24.109375 47.828125 
Q 26.265625 48.1875 28.421875 48.1875 
Q 40.625 48.1875 47.75 41.5 
Q 54.890625 34.8125 54.890625 23.390625 
Q 54.890625 11.625 47.5625 5.09375 
Q 40.234375 -1.421875 26.90625 -1.421875 
Q 22.3125 -1.421875 17.546875 -0.640625 
Q 12.796875 0.140625 7.71875 1.703125 
L 7.71875 11.625 
Q 12.109375 9.234375 16.796875 8.0625 
Q 21.484375 6.890625 26.703125 6.890625 
Q 35.15625 6.890625 40.078125 11.328125 
Q 45.015625 15.765625 45.015625 23.390625 
Q 45.015625 31 40.078125 35.4375 
Q 35.15625 39.890625 26.703125 39.890625 
Q 22.75 39.890625 18.8125 39.015625 
Q 14.890625 38.140625 10.796875 36.28125 
z
" id="DejaVuSans-53"/>
       </defs>
       <use xlink:href="#DejaVuSans-48"/>
       <use x="63.623047" xlink:href="#DejaVuSans-46"/>
       <use x="95.410156" xlink:href="#DejaVuSans-48"/>
       <use x="159.033203" xlink:href="#DejaVuSans-50"/>
       <use x="222.65625" xlink:href="#DejaVuSans-53"/>
      </g>
     </g>
    </g>
    <g id="xtick_3">
     <g id="line2d_3">
      <g>
       <use style="stroke:#000000;stroke-width:0.8;" x="116.13125" xlink:href="#m4a63627529" y="170.4"/>
      </g>
     </g>
     <g id="text_3">
      <!-- 0.050 -->
      <g transform="translate(101.817187 184.998437)scale(0.1 -0.1)">
       <use xlink:href="#DejaVuSans-48"/>
       <use x="63.623047" xlink:href="#DejaVuSans-46"/>
       <use x="95.410156" xlink:href="#DejaVuSans-48"/>
       <use x="159.033203" xlink:href="#DejaVuSans-53"/>
       <use x="222.65625" xlink:href="#DejaVuSans-48"/>
      </g>
     </g>
    </g>
    <g id="xtick_4">
     <g id="line2d_4">
      <g>
       <use style="stroke:#000000;stroke-width:0.8;" x="151.921875" xlink:href="#m4a63627529" y="170.4"/>
      </g>
     </g>
     <g id="text_4">
      <!-- 0.075 -->
      <g transform="translate(137.607813 184.998437)scale(0.1 -0.1)">
       <defs>
        <path d="M 8.203125 72.90625 
L 55.078125 72.90625 
L 55.078125 68.703125 
L 28.609375 0 
L 18.3125 0 
L 43.21875 64.59375 
L 8.203125 64.59375 
z
" id="DejaVuSans-55"/>
       </defs>
       <use xlink:href="#DejaVuSans-48"/>
       <use x="63.623047" xlink:href="#DejaVuSans-46"/>
       <use x="95.410156" xlink:href="#DejaVuSans-48"/>
       <use x="159.033203" xlink:href="#DejaVuSans-55"/>
       <use x="222.65625" xlink:href="#DejaVuSans-53"/>
      </g>
     </g>
    </g>
    <g id="xtick_5">
     <g id="line2d_5">
      <g>
       <use style="stroke:#000000;stroke-width:0.8;" x="187.7125" xlink:href="#m4a63627529" y="170.4"/>
      </g>
     </g>
     <g id="text_5">
      <!-- 0.100 -->
      <g transform="translate(173.398438 184.998437)scale(0.1 -0.1)">
       <defs>
        <path d="M 12.40625 8.296875 
L 28.515625 8.296875 
L 28.515625 63.921875 
L 10.984375 60.40625 
L 10.984375 69.390625 
L 28.421875 72.90625 
L 38.28125 72.90625 
L 38.28125 8.296875 
L 54.390625 8.296875 
L 54.390625 0 
L 12.40625 0 
z
" id="DejaVuSans-49"/>
       </defs>
       <use xlink:href="#DejaVuSans-48"/>
       <use x="63.623047" xlink:href="#DejaVuSans-46"/>
       <use x="95.410156" xlink:href="#DejaVuSans-49"/>
       <use x="159.033203" xlink:href="#DejaVuSans-48"/>
       <use x="222.65625" xlink:href="#DejaVuSans-48"/>
      </g>
     </g>
    </g>
    <g id="text_6">
     <!-- $\theta_0$ -->
     <g transform="translate(110.68125 198.676562)scale(0.1 -0.1)">
      <defs>
       <path d="M 45.515625 34.671875 
L 14.453125 34.671875 
Q 12.359375 20.0625 14.5 13.875 
Q 17.1875 6.25 24.46875 6.25 
Q 31.78125 6.25 37.359375 13.921875 
Q 42.234375 20.65625 45.515625 34.671875 
z
M 47.015625 42.96875 
Q 48.34375 56.84375 46.625 61.71875 
Q 43.953125 69.4375 36.765625 69.4375 
Q 29.296875 69.4375 23.828125 61.8125 
Q 19.53125 55.671875 16.15625 42.96875 
z
M 38.1875 76.765625 
Q 49.90625 76.765625 54.59375 66.40625 
Q 59.28125 56.109375 55.71875 37.84375 
Q 52.203125 19.625 43.453125 9.28125 
Q 34.765625 -1.125 23.046875 -1.125 
Q 11.28125 -1.125 6.640625 9.28125 
Q 2 19.625 5.515625 37.84375 
Q 9.078125 56.109375 17.71875 66.40625 
Q 26.421875 76.765625 38.1875 76.765625 
z
" id="DejaVuSans-Oblique-952"/>
      </defs>
      <use transform="translate(0 0.234375)" xlink:href="#DejaVuSans-Oblique-952"/>
      <use transform="translate(61.181641 -16.171875)scale(0.7)" xlink:href="#DejaVuSans-48"/>
     </g>
    </g>
   </g>
   <g id="matplotlib.axis_2">
    <g id="ytick_1">
     <g id="line2d_6">
      <defs>
       <path d="M 0 0 
L -3.5 0 
" id="m3a7918557a" style="stroke:#000000;stroke-width:0.8;"/>
      </defs>
      <g>
       <use style="stroke:#000000;stroke-width:0.8;" x="44.55" xlink:href="#m3a7918557a" y="164.358964"/>
      </g>
     </g>
     <g id="text_7">
      <!-- 0 -->
      <g transform="translate(31.1875 168.158182)scale(0.1 -0.1)">
       <use xlink:href="#DejaVuSans-48"/>
      </g>
     </g>
    </g>
    <g id="ytick_2">
     <g id="line2d_7">
      <g>
       <use style="stroke:#000000;stroke-width:0.8;" x="44.55" xlink:href="#m3a7918557a" y="126.252094"/>
      </g>
     </g>
     <g id="text_8">
      <!-- 10 -->
      <g transform="translate(24.825 130.051312)scale(0.1 -0.1)">
       <use xlink:href="#DejaVuSans-49"/>
       <use x="63.623047" xlink:href="#DejaVuSans-48"/>
      </g>
     </g>
    </g>
    <g id="ytick_3">
     <g id="line2d_8">
      <g>
       <use style="stroke:#000000;stroke-width:0.8;" x="44.55" xlink:href="#m3a7918557a" y="88.145224"/>
      </g>
     </g>
     <g id="text_9">
      <!-- 20 -->
      <g transform="translate(24.825 91.944442)scale(0.1 -0.1)">
       <use xlink:href="#DejaVuSans-50"/>
       <use x="63.623047" xlink:href="#DejaVuSans-48"/>
      </g>
     </g>
    </g>
    <g id="ytick_4">
     <g id="line2d_9">
      <g>
       <use style="stroke:#000000;stroke-width:0.8;" x="44.55" xlink:href="#m3a7918557a" y="50.038354"/>
      </g>
     </g>
     <g id="text_10">
      <!-- 30 -->
      <g transform="translate(24.825 53.837572)scale(0.1 -0.1)">
       <defs>
        <path d="M 40.578125 39.3125 
Q 47.65625 37.796875 51.625 33 
Q 55.609375 28.21875 55.609375 21.1875 
Q 55.609375 10.40625 48.1875 4.484375 
Q 40.765625 -1.421875 27.09375 -1.421875 
Q 22.515625 -1.421875 17.65625 -0.515625 
Q 12.796875 0.390625 7.625 2.203125 
L 7.625 11.71875 
Q 11.71875 9.328125 16.59375 8.109375 
Q 21.484375 6.890625 26.8125 6.890625 
Q 36.078125 6.890625 40.9375 10.546875 
Q 45.796875 14.203125 45.796875 21.1875 
Q 45.796875 27.640625 41.28125 31.265625 
Q 36.765625 34.90625 28.71875 34.90625 
L 20.21875 34.90625 
L 20.21875 43.015625 
L 29.109375 43.015625 
Q 36.375 43.015625 40.234375 45.921875 
Q 44.09375 48.828125 44.09375 54.296875 
Q 44.09375 59.90625 40.109375 62.90625 
Q 36.140625 65.921875 28.71875 65.921875 
Q 24.65625 65.921875 20.015625 65.03125 
Q 15.375 64.15625 9.8125 62.3125 
L 9.8125 71.09375 
Q 15.4375 72.65625 20.34375 73.4375 
Q 25.25 74.21875 29.59375 74.21875 
Q 40.828125 74.21875 47.359375 69.109375 
Q 53.90625 64.015625 53.90625 55.328125 
Q 53.90625 49.265625 50.4375 45.09375 
Q 46.96875 40.921875 40.578125 39.3125 
z
" id="DejaVuSans-51"/>
       </defs>
       <use xlink:href="#DejaVuSans-51"/>
       <use x="63.623047" xlink:href="#DejaVuSans-48"/>
      </g>
     </g>
    </g>
    <g id="text_11">
     <!-- Posterior -->
     <g transform="translate(18.745313 126.042351)rotate(-90)scale(0.1 -0.1)">
      <defs>
       <path d="M 19.671875 64.796875 
L 19.671875 37.40625 
L 32.078125 37.40625 
Q 38.96875 37.40625 42.71875 40.96875 
Q 46.484375 44.53125 46.484375 51.125 
Q 46.484375 57.671875 42.71875 61.234375 
Q 38.96875 64.796875 32.078125 64.796875 
z
M 9.8125 72.90625 
L 32.078125 72.90625 
Q 44.34375 72.90625 50.609375 67.359375 
Q 56.890625 61.8125 56.890625 51.125 
Q 56.890625 40.328125 50.609375 34.8125 
Q 44.34375 29.296875 32.078125 29.296875 
L 19.671875 29.296875 
L 19.671875 0 
L 9.8125 0 
z
" id="DejaVuSans-80"/>
       <path d="M 30.609375 48.390625 
Q 23.390625 48.390625 19.1875 42.75 
Q 14.984375 37.109375 14.984375 27.296875 
Q 14.984375 17.484375 19.15625 11.84375 
Q 23.34375 6.203125 30.609375 6.203125 
Q 37.796875 6.203125 41.984375 11.859375 
Q 46.1875 17.53125 46.1875 27.296875 
Q 46.1875 37.015625 41.984375 42.703125 
Q 37.796875 48.390625 30.609375 48.390625 
z
M 30.609375 56 
Q 42.328125 56 49.015625 48.375 
Q 55.71875 40.765625 55.71875 27.296875 
Q 55.71875 13.875 49.015625 6.21875 
Q 42.328125 -1.421875 30.609375 -1.421875 
Q 18.84375 -1.421875 12.171875 6.21875 
Q 5.515625 13.875 5.515625 27.296875 
Q 5.515625 40.765625 12.171875 48.375 
Q 18.84375 56 30.609375 56 
z
" id="DejaVuSans-111"/>
       <path d="M 44.28125 53.078125 
L 44.28125 44.578125 
Q 40.484375 46.53125 36.375 47.5 
Q 32.28125 48.484375 27.875 48.484375 
Q 21.1875 48.484375 17.84375 46.4375 
Q 14.5 44.390625 14.5 40.28125 
Q 14.5 37.15625 16.890625 35.375 
Q 19.28125 33.59375 26.515625 31.984375 
L 29.59375 31.296875 
Q 39.15625 29.25 43.1875 25.515625 
Q 47.21875 21.78125 47.21875 15.09375 
Q 47.21875 7.46875 41.1875 3.015625 
Q 35.15625 -1.421875 24.609375 -1.421875 
Q 20.21875 -1.421875 15.453125 -0.5625 
Q 10.6875 0.296875 5.421875 2 
L 5.421875 11.28125 
Q 10.40625 8.6875 15.234375 7.390625 
Q 20.0625 6.109375 24.8125 6.109375 
Q 31.15625 6.109375 34.5625 8.28125 
Q 37.984375 10.453125 37.984375 14.40625 
Q 37.984375 18.0625 35.515625 20.015625 
Q 33.0625 21.96875 24.703125 23.78125 
L 21.578125 24.515625 
Q 13.234375 26.265625 9.515625 29.90625 
Q 5.8125 33.546875 5.8125 39.890625 
Q 5.8125 47.609375 11.28125 51.796875 
Q 16.75 56 26.8125 56 
Q 31.78125 56 36.171875 55.265625 
Q 40.578125 54.546875 44.28125 53.078125 
z
" id="DejaVuSans-115"/>
       <path d="M 18.3125 70.21875 
L 18.3125 54.6875 
L 36.8125 54.6875 
L 36.8125 47.703125 
L 18.3125 47.703125 
L 18.3125 18.015625 
Q 18.3125 11.328125 20.140625 9.421875 
Q 21.96875 7.515625 27.59375 7.515625 
L 36.8125 7.515625 
L 36.8125 0 
L 27.59375 0 
Q 17.1875 0 13.234375 3.875 
Q 9.28125 7.765625 9.28125 18.015625 
L 9.28125 47.703125 
L 2.6875 47.703125 
L 2.6875 54.6875 
L 9.28125 54.6875 
L 9.28125 70.21875 
z
" id="DejaVuSans-116"/>
       <path d="M 56.203125 29.59375 
L 56.203125 25.203125 
L 14.890625 25.203125 
Q 15.484375 15.921875 20.484375 11.0625 
Q 25.484375 6.203125 34.421875 6.203125 
Q 39.59375 6.203125 44.453125 7.46875 
Q 49.3125 8.734375 54.109375 11.28125 
L 54.109375 2.78125 
Q 49.265625 0.734375 44.1875 -0.34375 
Q 39.109375 -1.421875 33.890625 -1.421875 
Q 20.796875 -1.421875 13.15625 6.1875 
Q 5.515625 13.8125 5.515625 26.8125 
Q 5.515625 40.234375 12.765625 48.109375 
Q 20.015625 56 32.328125 56 
Q 43.359375 56 49.78125 48.890625 
Q 56.203125 41.796875 56.203125 29.59375 
z
M 47.21875 32.234375 
Q 47.125 39.59375 43.09375 43.984375 
Q 39.0625 48.390625 32.421875 48.390625 
Q 24.90625 48.390625 20.390625 44.140625 
Q 15.875 39.890625 15.1875 32.171875 
z
" id="DejaVuSans-101"/>
       <path d="M 41.109375 46.296875 
Q 39.59375 47.171875 37.8125 47.578125 
Q 36.03125 48 33.890625 48 
Q 26.265625 48 22.1875 43.046875 
Q 18.109375 38.09375 18.109375 28.8125 
L 18.109375 0 
L 9.078125 0 
L 9.078125 54.6875 
L 18.109375 54.6875 
L 18.109375 46.1875 
Q 20.953125 51.171875 25.484375 53.578125 
Q 30.03125 56 36.53125 56 
Q 37.453125 56 38.578125 55.875 
Q 39.703125 55.765625 41.0625 55.515625 
z
" id="DejaVuSans-114"/>
       <path d="M 9.421875 54.6875 
L 18.40625 54.6875 
L 18.40625 0 
L 9.421875 0 
z
M 9.421875 75.984375 
L 18.40625 75.984375 
L 18.40625 64.59375 
L 9.421875 64.59375 
z
" id="DejaVuSans-105"/>
      </defs>
      <use xlink:href="#DejaVuSans-80"/>
      <use x="56.677734" xlink:href="#DejaVuSans-111"/>
      <use x="117.859375" xlink:href="#DejaVuSans-115"/>
      <use x="169.958984" xlink:href="#DejaVuSans-116"/>
      <use x="209.167969" xlink:href="#DejaVuSans-101"/>
      <use x="270.691406" xlink:href="#DejaVuSans-114"/>
      <use x="311.804688" xlink:href="#DejaVuSans-105"/>
      <use x="339.587891" xlink:href="#DejaVuSans-111"/>
      <use x="400.769531" xlink:href="#DejaVuSans-114"/>
     </g>
    </g>
   </g>
   <g id="line2d_10">
    <path clip-path="url(#pccbd89a30f)" d="M 44.55 146.860979 
L 49.816848 139.243831 
L 52.689674 135.486774 
L 55.083696 132.680938 
L 57.477717 130.179571 
L 59.871739 127.965177 
L 62.265761 126.014549 
L 64.659783 124.310663 
L 67.053804 122.84542 
L 69.447826 121.614378 
L 71.841848 120.607349 
L 74.714674 119.658585 
L 78.066304 118.808637 
L 89.078804 116.218328 
L 93.388043 115.205096 
L 96.26087 114.77642 
L 98.654891 114.65135 
L 101.048913 114.749505 
L 103.921739 115.114693 
L 108.709783 116.026615 
L 113.497826 116.877956 
L 117.807065 117.410019 
L 130.255978 118.705392 
L 133.128804 119.322374 
L 136.00163 120.17499 
L 138.874457 121.271689 
L 142.226087 122.827995 
L 145.577717 124.630682 
L 149.408152 126.960681 
L 152.759783 129.262485 
L 156.111413 131.858281 
L 159.463043 134.766912 
L 163.293478 138.41759 
L 175.742391 150.633282 
L 179.094022 153.505033 
L 182.445652 156.078621 
L 185.318478 158.021198 
L 187.7125 159.437976 
L 187.7125 159.437976 
" style="fill:none;stroke:#1f77b4;stroke-linecap:square;stroke-width:1.5;"/>
   </g>
   <g id="line2d_11">
    <path clip-path="url(#pccbd89a30f)" d="M 101.815 170.4 
L 101.815 37.497202 
" style="fill:none;stroke:#808080;stroke-dasharray:1.5,2.475;stroke-dashoffset:0;stroke-width:1.5;"/>
   </g>
   <g id="line2d_12">
    <path clip-path="url(#pccbd89a30f)" d="M 44.55 152.396485 
L 47.422826 148.326924 
L 58.91413 131.477699 
L 61.786957 127.900388 
L 64.180978 125.245158 
L 66.575 122.900702 
L 68.969022 120.853759 
L 71.363043 119.066981 
L 74.23587 117.19243 
L 78.066304 115.002311 
L 82.854348 112.546797 
L 94.824457 106.540152 
L 102.006522 102.744345 
L 104.400543 101.78228 
L 106.315761 101.249499 
L 108.230978 100.980076 
L 109.667391 100.970707 
L 111.103804 101.133606 
L 113.019022 101.615546 
L 114.934239 102.378814 
L 116.849457 103.383975 
L 119.243478 104.904895 
L 122.116304 106.995138 
L 125.946739 110.07918 
L 129.29837 113.074514 
L 132.171196 115.954232 
L 135.044022 119.159594 
L 138.874457 123.809066 
L 145.098913 131.37842 
L 148.929348 135.657023 
L 154.196196 141.17279 
L 159.463043 146.398167 
L 162.814674 149.435022 
L 165.6875 151.758699 
L 168.560326 153.788337 
L 171.433152 155.530966 
L 174.305978 157.027222 
L 178.136413 158.745798 
L 182.924457 160.626132 
L 187.233696 162.087202 
L 187.7125 162.230655 
L 187.7125 162.230655 
" style="fill:none;stroke:#ff7f0e;stroke-linecap:square;stroke-width:1.5;"/>
   </g>
   <g id="line2d_13">
    <path clip-path="url(#pccbd89a30f)" d="M 101.815 170.4 
L 101.815 37.497202 
" style="fill:none;stroke:#808080;stroke-dasharray:1.5,2.475;stroke-dashoffset:0;stroke-width:1.5;"/>
   </g>
   <g id="line2d_14">
    <path clip-path="url(#pccbd89a30f)" d="M 44.55 160.078659 
L 46.944022 158.210213 
L 49.338043 156.039896 
L 52.21087 153.100977 
L 54.604891 150.358154 
L 56.998913 147.270367 
L 59.392935 143.748322 
L 61.786957 139.745766 
L 64.180978 135.293995 
L 67.532609 128.5113 
L 78.066304 106.666812 
L 80.93913 101.298012 
L 83.333152 97.22026 
L 85.24837 94.308365 
L 87.163587 91.808512 
L 88.6 90.273442 
L 90.036413 89.08556 
L 90.994022 88.507625 
L 91.95163 88.110692 
L 92.909239 87.897597 
L 93.866848 87.865173 
L 94.824457 88.003801 
L 96.26087 88.496085 
L 97.697283 89.260365 
L 100.091304 90.885929 
L 103.921739 93.546948 
L 106.315761 94.941414 
L 114.455435 99.391223 
L 117.328261 101.422874 
L 120.201087 103.779196 
L 122.595109 106.013857 
L 124.98913 108.517048 
L 127.861957 111.843067 
L 136.959239 122.716022 
L 144.620109 131.36076 
L 148.450543 136.196054 
L 154.196196 143.467298 
L 158.02663 147.903658 
L 162.814674 153.073197 
L 166.645109 156.902916 
L 169.03913 159.009849 
L 170.954348 160.452121 
L 172.869565 161.638583 
L 174.784783 162.559548 
L 176.7 163.231709 
L 178.615217 163.691829 
L 181.009239 164.040274 
L 184.36087 164.262496 
L 187.7125 164.334897 
L 187.7125 164.334897 
" style="fill:none;stroke:#2ca02c;stroke-linecap:square;stroke-width:1.5;"/>
   </g>
   <g id="line2d_15">
    <path clip-path="url(#pccbd89a30f)" d="M 101.815 170.4 
L 101.815 37.497202 
" style="fill:none;stroke:#808080;stroke-dasharray:1.5,2.475;stroke-dashoffset:0;stroke-width:1.5;"/>
   </g>
   <g id="line2d_16">
    <path clip-path="url(#pccbd89a30f)" d="M 44.55 155.883227 
L 48.380435 151.891035 
L 50.774457 149.762181 
L 53.168478 147.969381 
L 56.998913 145.181421 
L 58.91413 143.426426 
L 60.350543 141.82327 
L 61.786957 139.940001 
L 63.702174 136.998821 
L 65.617391 133.636811 
L 68.490217 128.086781 
L 74.714674 115.877381 
L 78.066304 109.834225 
L 82.375543 102.549345 
L 88.121196 93.290533 
L 90.994022 88.999018 
L 92.909239 86.437685 
L 94.824457 84.255672 
L 96.26087 82.943372 
L 97.697283 81.958728 
L 99.133696 81.330867 
L 100.091304 81.115981 
L 101.048913 81.061542 
L 102.485326 81.264302 
L 103.921739 81.771972 
L 105.358152 82.531221 
L 107.27337 83.831947 
L 110.146196 86.143491 
L 113.97663 89.542228 
L 116.849457 92.392839 
L 118.764674 94.574282 
L 120.679891 97.077311 
L 122.595109 99.960113 
L 124.510326 103.245144 
L 126.904348 107.889981 
L 129.29837 113.032489 
L 133.607609 122.970891 
L 137.438043 131.627387 
L 139.832065 136.526975 
L 141.747283 140.040552 
L 143.6625 143.160942 
L 145.577717 145.892991 
L 147.492935 148.261426 
L 149.408152 150.297712 
L 151.32337 152.031665 
L 153.238587 153.48984 
L 155.153804 154.698673 
L 157.547826 155.905985 
L 159.941848 156.844408 
L 163.293478 157.869489 
L 170.954348 160.062401 
L 180.530435 163.124917 
L 183.403261 163.69837 
L 186.276087 164.049377 
L 187.7125 164.157678 
L 187.7125 164.157678 
" style="fill:none;stroke:#d62728;stroke-linecap:square;stroke-width:1.5;"/>
   </g>
   <g id="line2d_17">
    <path clip-path="url(#pccbd89a30f)" d="M 101.815 170.4 
L 101.815 37.497202 
" style="fill:none;stroke:#808080;stroke-dasharray:1.5,2.475;stroke-dashoffset:0;stroke-width:1.5;"/>
   </g>
   <g id="line2d_18">
    <path clip-path="url(#pccbd89a30f)" d="M 44.55 163.227256 
L 46.944022 162.403642 
L 49.338043 161.352765 
L 51.732065 160.086469 
L 54.126087 158.553851 
L 56.520109 156.693764 
L 58.91413 154.494902 
L 60.829348 152.463746 
L 62.744565 150.064449 
L 64.180978 147.888591 
L 65.617391 145.267122 
L 67.053804 142.112944 
L 68.490217 138.394228 
L 70.405435 132.639289 
L 72.799457 124.593517 
L 77.108696 110.036364 
L 79.502717 102.832342 
L 81.896739 96.403418 
L 84.290761 90.633078 
L 87.163587 84.350734 
L 94.345652 69.105913 
L 97.697283 61.85756 
L 99.133696 59.21321 
L 100.091304 57.748189 
L 101.048913 56.58297 
L 102.006522 55.759126 
L 102.96413 55.305153 
L 103.921739 55.235312 
L 104.879348 55.550093 
L 105.836957 56.238043 
L 106.794565 57.278526 
L 107.752174 58.64492 
L 109.188587 61.24113 
L 110.625 64.407285 
L 112.061413 68.060774 
L 113.97663 73.587881 
L 115.891848 79.781767 
L 118.28587 88.328757 
L 124.98913 113.021212 
L 126.904348 118.701159 
L 128.340761 122.332306 
L 130.255978 126.459142 
L 132.171196 130.007712 
L 134.565217 133.951345 
L 136.959239 137.459646 
L 138.874457 139.894146 
L 140.789674 141.973929 
L 147.01413 148.26237 
L 148.929348 150.859582 
L 155.153804 159.908146 
L 156.590217 161.37423 
L 158.02663 162.473484 
L 159.463043 163.238915 
L 160.899457 163.734142 
L 162.814674 164.09924 
L 165.208696 164.285308 
L 169.996739 164.355558 
L 187.7125 164.358964 
L 187.7125 164.358964 
" style="fill:none;stroke:#9467bd;stroke-linecap:square;stroke-width:1.5;"/>
   </g>
   <g id="line2d_19">
    <path clip-path="url(#pccbd89a30f)" d="M 101.815 170.4 
L 101.815 37.497202 
" style="fill:none;stroke:#808080;stroke-dasharray:1.5,2.475;stroke-dashoffset:0;stroke-width:1.5;"/>
   </g>
   <g id="line2d_20">
    <path clip-path="url(#pccbd89a30f)" d="M 44.55 163.360147 
L 45.986413 162.687883 
L 47.422826 161.726407 
L 48.859239 160.445041 
L 50.295652 158.852065 
L 52.21087 156.343683 
L 56.998913 149.740988 
L 58.91413 147.590787 
L 60.829348 145.812573 
L 64.180978 142.875848 
L 65.617391 141.254726 
L 67.053804 139.181078 
L 68.490217 136.563787 
L 69.92663 133.390898 
L 71.363043 129.71637 
L 73.278261 124.18455 
L 75.672283 116.506589 
L 79.023913 104.873811 
L 81.896739 95.10323 
L 83.811957 89.404029 
L 85.24837 85.743622 
L 86.684783 82.583815 
L 88.6 78.91073 
L 93.388043 70.056381 
L 96.26087 64.658712 
L 97.697283 62.343077 
L 99.133696 60.512856 
L 100.091304 59.625041 
L 101.048913 59.029705 
L 102.006522 58.736176 
L 102.96413 58.7432 
L 103.921739 59.040983 
L 104.879348 59.613508 
L 105.836957 60.440811 
L 106.794565 61.501018 
L 108.230978 63.479965 
L 109.667391 65.864673 
L 111.582609 69.580594 
L 113.497826 73.835031 
L 115.413043 78.602718 
L 117.328261 83.896717 
L 119.722283 91.230801 
L 126.904348 114.094389 
L 128.819565 119.11932 
L 131.213587 124.66019 
L 137.916848 139.535925 
L 142.226087 149.533485 
L 144.141304 153.405355 
L 145.577717 155.894911 
L 147.01413 157.992711 
L 148.450543 159.70399 
L 149.886957 161.057828 
L 151.32337 162.096121 
L 152.759783 162.865845 
L 154.196196 163.414802 
L 156.111413 163.882938 
L 158.505435 164.181588 
L 161.857065 164.324935 
L 170.475543 164.358863 
L 187.7125 164.358964 
L 187.7125 164.358964 
" style="fill:none;stroke:#8c564b;stroke-linecap:square;stroke-width:1.5;"/>
   </g>
   <g id="line2d_21">
    <path clip-path="url(#pccbd89a30f)" d="M 101.815 170.4 
L 101.815 37.497202 
" style="fill:none;stroke:#808080;stroke-dasharray:1.5,2.475;stroke-dashoffset:0;stroke-width:1.5;"/>
   </g>
   <g id="line2d_22">
    <path clip-path="url(#pccbd89a30f)" d="M 44.55 163.699623 
L 46.465217 163.098026 
L 48.380435 162.220354 
L 50.774457 160.809814 
L 54.604891 158.235249 
L 56.520109 156.750821 
L 57.956522 155.377034 
L 59.392935 153.642036 
L 60.829348 151.455608 
L 62.265761 148.793251 
L 64.180978 144.596316 
L 66.575 138.693141 
L 71.841848 125.556303 
L 77.108696 112.742059 
L 79.502717 106.147688 
L 81.896739 98.86992 
L 86.205978 84.824754 
L 90.994022 69.416461 
L 92.909239 63.859985 
L 94.345652 60.235312 
L 95.782065 57.280035 
L 96.739674 55.755346 
L 97.697283 54.614095 
L 98.654891 53.852881 
L 99.6125 53.441707 
L 100.570109 53.325277 
L 101.527717 53.428523 
L 103.442935 53.955132 
L 105.358152 54.44683 
L 108.709783 55.092198 
L 109.667391 55.556103 
L 110.625 56.337677 
L 111.582609 57.537197 
L 112.540217 59.231984 
L 113.497826 61.468657 
L 114.455435 64.260476 
L 115.891848 69.441532 
L 117.328261 75.655668 
L 119.243478 85.093981 
L 124.510326 112.147358 
L 126.425543 120.51789 
L 127.861957 125.961968 
L 129.29837 130.705895 
L 130.734783 134.822259 
L 132.171196 138.398573 
L 133.607609 141.507569 
L 135.044022 144.196902 
L 136.480435 146.498893 
L 137.916848 148.450009 
L 139.832065 150.604497 
L 142.226087 152.839512 
L 151.32337 160.610682 
L 153.238587 161.940998 
L 155.153804 162.95237 
L 156.590217 163.488895 
L 158.505435 163.946077 
L 160.899457 164.222636 
L 164.251087 164.338432 
L 175.742391 164.358962 
L 187.7125 164.358964 
L 187.7125 164.358964 
" style="fill:none;stroke:#e377c2;stroke-linecap:square;stroke-width:1.5;"/>
   </g>
   <g id="line2d_23">
    <path clip-path="url(#pccbd89a30f)" d="M 101.815 170.4 
L 101.815 37.497202 
" style="fill:none;stroke:#808080;stroke-dasharray:1.5,2.475;stroke-dashoffset:0;stroke-width:1.5;"/>
   </g>
   <g id="line2d_24">
    <path clip-path="url(#pccbd89a30f)" d="M 44.55 164.348699 
L 48.859239 164.229189 
L 51.253261 163.954102 
L 53.168478 163.473455 
L 54.604891 162.873345 
L 56.041304 162.002783 
L 57.477717 160.815674 
L 58.91413 159.290417 
L 60.350543 157.437159 
L 62.265761 154.525348 
L 64.659783 150.341734 
L 67.053804 145.644536 
L 68.969022 141.446077 
L 70.884239 136.774961 
L 73.278261 130.328211 
L 81.896739 105.773565 
L 83.811957 99.71065 
L 85.727174 92.832317 
L 87.642391 85.081221 
L 91.95163 67.062005 
L 93.388043 62.109633 
L 94.824457 58.115588 
L 95.782065 56.002948 
L 96.739674 54.297679 
L 97.697283 52.950624 
L 98.654891 51.908224 
L 99.6125 51.124608 
L 100.570109 50.56981 
L 101.527717 50.232496 
L 102.485326 50.117002 
L 103.442935 50.235964 
L 104.400543 50.60092 
L 105.358152 51.213686 
L 106.315761 52.061044 
L 107.752174 53.705887 
L 109.667391 56.383332 
L 112.061413 60.179888 
L 113.97663 63.632395 
L 115.413043 66.657962 
L 116.849457 70.212754 
L 118.28587 74.37862 
L 119.722283 79.159312 
L 121.6375 86.354903 
L 128.340761 112.714267 
L 130.255978 118.762565 
L 132.65 125.437266 
L 136.959239 137.293648 
L 142.226087 152.184916 
L 143.6625 155.56239 
L 145.098913 158.360277 
L 146.535326 160.519281 
L 147.492935 161.612141 
L 148.450543 162.454691 
L 149.408152 163.080908 
L 150.844565 163.698923 
L 152.280978 164.043445 
L 154.196196 164.254726 
L 157.547826 164.34837 
L 175.263587 164.358964 
L 187.7125 164.358964 
L 187.7125 164.358964 
" style="fill:none;stroke:#7f7f7f;stroke-linecap:square;stroke-width:1.5;"/>
   </g>
   <g id="line2d_25">
    <path clip-path="url(#pccbd89a30f)" d="M 101.815 170.4 
L 101.815 37.497202 
" style="fill:none;stroke:#808080;stroke-dasharray:1.5,2.475;stroke-dashoffset:0;stroke-width:1.5;"/>
   </g>
   <g id="line2d_26">
    <path clip-path="url(#pccbd89a30f)" d="M 44.55 164.35829 
L 51.253261 164.245655 
L 53.168478 164.028596 
L 54.604891 163.699901 
L 56.041304 163.161208 
L 57.477717 162.367894 
L 58.91413 161.311832 
L 60.829348 159.546937 
L 62.744565 157.418274 
L 64.180978 155.482593 
L 65.138587 153.91835 
L 66.096196 152.03329 
L 67.053804 149.735971 
L 68.011413 146.95134 
L 68.969022 143.638999 
L 70.405435 137.711955 
L 72.320652 128.454593 
L 76.151087 109.262748 
L 78.066304 100.8322 
L 80.460326 91.399827 
L 84.290761 77.371779 
L 87.163587 67.477457 
L 89.078804 61.515172 
L 90.994022 56.298426 
L 92.430435 52.938542 
L 93.866848 50.053262 
L 95.303261 47.631884 
L 96.739674 45.697025 
L 97.697283 44.713368 
L 98.654891 44.010371 
L 99.6125 43.615359 
L 100.570109 43.541437 
L 101.527717 43.780045 
L 102.485326 44.299708 
L 103.442935 45.052215 
L 104.879348 46.504747 
L 106.315761 48.244398 
L 107.752174 50.282314 
L 109.188587 52.769041 
L 110.146196 54.784818 
L 111.103804 57.158163 
L 112.540217 61.468236 
L 113.97663 66.683198 
L 115.891848 74.827807 
L 118.764674 88.523131 
L 122.116304 104.488837 
L 124.510326 114.709168 
L 126.425543 121.976381 
L 128.819565 130.226781 
L 132.171196 141.020957 
L 134.086413 146.665797 
L 135.522826 150.332165 
L 136.959239 153.291208 
L 137.916848 154.817125 
L 138.874457 155.991643 
L 139.832065 156.856751 
L 140.789674 157.481731 
L 142.704891 158.35492 
L 144.620109 159.230766 
L 146.535326 160.385293 
L 149.886957 162.571719 
L 151.32337 163.273121 
L 152.759783 163.760702 
L 154.675 164.127335 
L 157.069022 164.303848 
L 161.857065 164.357611 
L 187.7125 164.358964 
L 187.7125 164.358964 
" style="fill:none;stroke:#bcbd22;stroke-linecap:square;stroke-width:1.5;"/>
   </g>
   <g id="line2d_27">
    <path clip-path="url(#pccbd89a30f)" d="M 101.815 170.4 
L 101.815 37.497202 
" style="fill:none;stroke:#808080;stroke-dasharray:1.5,2.475;stroke-dashoffset:0;stroke-width:1.5;"/>
   </g>
   <g id="patch_3">
    <path d="M 44.55 170.4 
L 44.55 37.497202 
" style="fill:none;stroke:#000000;stroke-linecap:square;stroke-linejoin:miter;stroke-width:0.8;"/>
   </g>
   <g id="patch_4">
    <path d="M 44.55 170.4 
L 187.7125 170.4 
" style="fill:none;stroke:#000000;stroke-linecap:square;stroke-linejoin:miter;stroke-width:0.8;"/>
   </g>
  </g>
  <g id="axes_2">
   <g id="patch_5">
    <path d="M 262.2 170.4 
L 405.3625 170.4 
L 405.3625 37.497202 
L 262.2 37.497202 
z
" style="fill:#ffffff;"/>
   </g>
   <g id="matplotlib.axis_3">
    <g id="xtick_6">
     <g id="line2d_28">
      <g>
       <use style="stroke:#000000;stroke-width:0.8;" x="262.2" xlink:href="#m4a63627529" y="170.4"/>
      </g>
     </g>
     <g id="text_12">
      <!-- 350 -->
      <g transform="translate(252.65625 184.998437)scale(0.1 -0.1)">
       <use xlink:href="#DejaVuSans-51"/>
       <use x="63.623047" xlink:href="#DejaVuSans-53"/>
       <use x="127.246094" xlink:href="#DejaVuSans-48"/>
      </g>
     </g>
    </g>
    <g id="xtick_7">
     <g id="line2d_29">
      <g>
       <use style="stroke:#000000;stroke-width:0.8;" x="297.990625" xlink:href="#m4a63627529" y="170.4"/>
      </g>
     </g>
     <g id="text_13">
      <!-- 375 -->
      <g transform="translate(288.446875 184.998437)scale(0.1 -0.1)">
       <use xlink:href="#DejaVuSans-51"/>
       <use x="63.623047" xlink:href="#DejaVuSans-55"/>
       <use x="127.246094" xlink:href="#DejaVuSans-53"/>
      </g>
     </g>
    </g>
    <g id="xtick_8">
     <g id="line2d_30">
      <g>
       <use style="stroke:#000000;stroke-width:0.8;" x="333.78125" xlink:href="#m4a63627529" y="170.4"/>
      </g>
     </g>
     <g id="text_14">
      <!-- 400 -->
      <g transform="translate(324.2375 184.998437)scale(0.1 -0.1)">
       <defs>
        <path d="M 37.796875 64.3125 
L 12.890625 25.390625 
L 37.796875 25.390625 
z
M 35.203125 72.90625 
L 47.609375 72.90625 
L 47.609375 25.390625 
L 58.015625 25.390625 
L 58.015625 17.1875 
L 47.609375 17.1875 
L 47.609375 0 
L 37.796875 0 
L 37.796875 17.1875 
L 4.890625 17.1875 
L 4.890625 26.703125 
z
" id="DejaVuSans-52"/>
       </defs>
       <use xlink:href="#DejaVuSans-52"/>
       <use x="63.623047" xlink:href="#DejaVuSans-48"/>
       <use x="127.246094" xlink:href="#DejaVuSans-48"/>
      </g>
     </g>
    </g>
    <g id="xtick_9">
     <g id="line2d_31">
      <g>
       <use style="stroke:#000000;stroke-width:0.8;" x="369.571875" xlink:href="#m4a63627529" y="170.4"/>
      </g>
     </g>
     <g id="text_15">
      <!-- 425 -->
      <g transform="translate(360.028125 184.998437)scale(0.1 -0.1)">
       <use xlink:href="#DejaVuSans-52"/>
       <use x="63.623047" xlink:href="#DejaVuSans-50"/>
       <use x="127.246094" xlink:href="#DejaVuSans-53"/>
      </g>
     </g>
    </g>
    <g id="xtick_10">
     <g id="line2d_32">
      <g>
       <use style="stroke:#000000;stroke-width:0.8;" x="405.3625" xlink:href="#m4a63627529" y="170.4"/>
      </g>
     </g>
     <g id="text_16">
      <!-- 450 -->
      <g transform="translate(395.81875 184.998437)scale(0.1 -0.1)">
       <use xlink:href="#DejaVuSans-52"/>
       <use x="63.623047" xlink:href="#DejaVuSans-53"/>
       <use x="127.246094" xlink:href="#DejaVuSans-48"/>
      </g>
     </g>
    </g>
    <g id="text_17">
     <!-- $\theta_1$ -->
     <g transform="translate(328.33125 198.676562)scale(0.1 -0.1)">
      <use transform="translate(0 0.234375)" xlink:href="#DejaVuSans-Oblique-952"/>
      <use transform="translate(61.181641 -16.171875)scale(0.7)" xlink:href="#DejaVuSans-49"/>
     </g>
    </g>
   </g>
   <g id="matplotlib.axis_4">
    <g id="ytick_5">
     <g id="line2d_33">
      <g>
       <use style="stroke:#000000;stroke-width:0.8;" x="262.2" xlink:href="#m3a7918557a" y="164.362263"/>
      </g>
     </g>
     <g id="text_18">
      <!-- 0.000 -->
      <g transform="translate(226.571875 168.161482)scale(0.1 -0.1)">
       <use xlink:href="#DejaVuSans-48"/>
       <use x="63.623047" xlink:href="#DejaVuSans-46"/>
       <use x="95.410156" xlink:href="#DejaVuSans-48"/>
       <use x="159.033203" xlink:href="#DejaVuSans-48"/>
       <use x="222.65625" xlink:href="#DejaVuSans-48"/>
      </g>
     </g>
    </g>
    <g id="ytick_6">
     <g id="line2d_34">
      <g>
       <use style="stroke:#000000;stroke-width:0.8;" x="262.2" xlink:href="#m3a7918557a" y="139.168997"/>
      </g>
     </g>
     <g id="text_19">
      <!-- 0.005 -->
      <g transform="translate(226.571875 142.968216)scale(0.1 -0.1)">
       <use xlink:href="#DejaVuSans-48"/>
       <use x="63.623047" xlink:href="#DejaVuSans-46"/>
       <use x="95.410156" xlink:href="#DejaVuSans-48"/>
       <use x="159.033203" xlink:href="#DejaVuSans-48"/>
       <use x="222.65625" xlink:href="#DejaVuSans-53"/>
      </g>
     </g>
    </g>
    <g id="ytick_7">
     <g id="line2d_35">
      <g>
       <use style="stroke:#000000;stroke-width:0.8;" x="262.2" xlink:href="#m3a7918557a" y="113.975731"/>
      </g>
     </g>
     <g id="text_20">
      <!-- 0.010 -->
      <g transform="translate(226.571875 117.77495)scale(0.1 -0.1)">
       <use xlink:href="#DejaVuSans-48"/>
       <use x="63.623047" xlink:href="#DejaVuSans-46"/>
       <use x="95.410156" xlink:href="#DejaVuSans-48"/>
       <use x="159.033203" xlink:href="#DejaVuSans-49"/>
       <use x="222.65625" xlink:href="#DejaVuSans-48"/>
      </g>
     </g>
    </g>
    <g id="ytick_8">
     <g id="line2d_36">
      <g>
       <use style="stroke:#000000;stroke-width:0.8;" x="262.2" xlink:href="#m3a7918557a" y="88.782465"/>
      </g>
     </g>
     <g id="text_21">
      <!-- 0.015 -->
      <g transform="translate(226.571875 92.581684)scale(0.1 -0.1)">
       <use xlink:href="#DejaVuSans-48"/>
       <use x="63.623047" xlink:href="#DejaVuSans-46"/>
       <use x="95.410156" xlink:href="#DejaVuSans-48"/>
       <use x="159.033203" xlink:href="#DejaVuSans-49"/>
       <use x="222.65625" xlink:href="#DejaVuSans-53"/>
      </g>
     </g>
    </g>
    <g id="ytick_9">
     <g id="line2d_37">
      <g>
       <use style="stroke:#000000;stroke-width:0.8;" x="262.2" xlink:href="#m3a7918557a" y="63.589199"/>
      </g>
     </g>
     <g id="text_22">
      <!-- 0.020 -->
      <g transform="translate(226.571875 67.388417)scale(0.1 -0.1)">
       <use xlink:href="#DejaVuSans-48"/>
       <use x="63.623047" xlink:href="#DejaVuSans-46"/>
       <use x="95.410156" xlink:href="#DejaVuSans-48"/>
       <use x="159.033203" xlink:href="#DejaVuSans-50"/>
       <use x="222.65625" xlink:href="#DejaVuSans-48"/>
      </g>
     </g>
    </g>
    <g id="ytick_10">
     <g id="line2d_38">
      <g>
       <use style="stroke:#000000;stroke-width:0.8;" x="262.2" xlink:href="#m3a7918557a" y="38.395932"/>
      </g>
     </g>
     <g id="text_23">
      <!-- 0.025 -->
      <g transform="translate(226.571875 42.195151)scale(0.1 -0.1)">
       <use xlink:href="#DejaVuSans-48"/>
       <use x="63.623047" xlink:href="#DejaVuSans-46"/>
       <use x="95.410156" xlink:href="#DejaVuSans-48"/>
       <use x="159.033203" xlink:href="#DejaVuSans-50"/>
       <use x="222.65625" xlink:href="#DejaVuSans-53"/>
      </g>
     </g>
    </g>
    <g id="text_24">
     <!-- Posterior -->
     <g transform="translate(220.492188 126.042351)rotate(-90)scale(0.1 -0.1)">
      <use xlink:href="#DejaVuSans-80"/>
      <use x="56.677734" xlink:href="#DejaVuSans-111"/>
      <use x="117.859375" xlink:href="#DejaVuSans-115"/>
      <use x="169.958984" xlink:href="#DejaVuSans-116"/>
      <use x="209.167969" xlink:href="#DejaVuSans-101"/>
      <use x="270.691406" xlink:href="#DejaVuSans-114"/>
      <use x="311.804688" xlink:href="#DejaVuSans-105"/>
      <use x="339.587891" xlink:href="#DejaVuSans-111"/>
      <use x="400.769531" xlink:href="#DejaVuSans-114"/>
     </g>
    </g>
   </g>
   <g id="line2d_39">
    <path clip-path="url(#p02a33ab444)" d="M 262.2 157.994515 
L 405.3625 157.920503 
L 405.3625 157.920503 
" style="fill:none;stroke:#1f77b4;stroke-linecap:square;stroke-width:1.5;"/>
   </g>
   <g id="line2d_40">
    <path clip-path="url(#p02a33ab444)" d="M 333.78125 170.4 
L 333.78125 37.497202 
" style="fill:none;stroke:#808080;stroke-dasharray:1.5,2.475;stroke-dashoffset:0;stroke-width:1.5;"/>
   </g>
   <g id="line2d_41">
    <path clip-path="url(#p02a33ab444)" d="M 262.2 156.33897 
L 329.232609 155.654575 
L 364.66413 155.53513 
L 401.532065 155.638561 
L 405.3625 155.660111 
L 405.3625 155.660111 
" style="fill:none;stroke:#ff7f0e;stroke-linecap:square;stroke-width:1.5;"/>
   </g>
   <g id="line2d_42">
    <path clip-path="url(#p02a33ab444)" d="M 333.78125 170.4 
L 333.78125 37.497202 
" style="fill:none;stroke:#808080;stroke-dasharray:1.5,2.475;stroke-dashoffset:0;stroke-width:1.5;"/>
   </g>
   <g id="line2d_43">
    <path clip-path="url(#p02a33ab444)" d="M 262.2 152.497527 
L 310.559239 152.209731 
L 340.723913 152.241549 
L 367.536957 152.48918 
L 396.744022 152.989736 
L 405.3625 153.173182 
L 405.3625 153.173182 
" style="fill:none;stroke:#2ca02c;stroke-linecap:square;stroke-width:1.5;"/>
   </g>
   <g id="line2d_44">
    <path clip-path="url(#p02a33ab444)" d="M 333.78125 170.4 
L 333.78125 37.497202 
" style="fill:none;stroke:#808080;stroke-dasharray:1.5,2.475;stroke-dashoffset:0;stroke-width:1.5;"/>
   </g>
   <g id="line2d_45">
    <path clip-path="url(#p02a33ab444)" d="M 262.2 148.710951 
L 282.788587 148.593421 
L 306.25 148.690882 
L 336.893478 149.057697 
L 376.155435 149.750526 
L 405.3625 150.451393 
L 405.3625 150.451393 
" style="fill:none;stroke:#d62728;stroke-linecap:square;stroke-width:1.5;"/>
   </g>
   <g id="line2d_46">
    <path clip-path="url(#p02a33ab444)" d="M 333.78125 170.4 
L 333.78125 37.497202 
" style="fill:none;stroke:#808080;stroke-dasharray:1.5,2.475;stroke-dashoffset:0;stroke-width:1.5;"/>
   </g>
   <g id="line2d_47">
    <path clip-path="url(#p02a33ab444)" d="M 262.2 145.146923 
L 316.783696 142.894059 
L 355.088043 141.516662 
L 367.536957 141.272496 
L 377.113043 141.307048 
L 385.731522 141.563054 
L 394.35 142.049177 
L 403.447283 142.790017 
L 405.3625 142.970988 
L 405.3625 142.970988 
" style="fill:none;stroke:#9467bd;stroke-linecap:square;stroke-width:1.5;"/>
   </g>
   <g id="line2d_48">
    <path clip-path="url(#p02a33ab444)" d="M 333.78125 170.4 
L 333.78125 37.497202 
" style="fill:none;stroke:#808080;stroke-dasharray:1.5,2.475;stroke-dashoffset:0;stroke-width:1.5;"/>
   </g>
   <g id="line2d_49">
    <path clip-path="url(#p02a33ab444)" d="M 262.2 140.597116 
L 273.2125 139.189241 
L 293.801087 136.441546 
L 300.025543 135.910506 
L 306.25 135.612426 
L 312.953261 135.519512 
L 335.93587 135.41432 
L 343.117935 135.002649 
L 355.088043 134.025561 
L 362.748913 133.529448 
L 368.494565 133.386029 
L 373.761413 133.486373 
L 379.028261 133.827035 
L 384.295109 134.399899 
L 390.040761 135.256843 
L 396.744022 136.494937 
L 405.3625 138.323722 
L 405.3625 138.323722 
" style="fill:none;stroke:#8c564b;stroke-linecap:square;stroke-width:1.5;"/>
   </g>
   <g id="line2d_50">
    <path clip-path="url(#p02a33ab444)" d="M 333.78125 170.4 
L 333.78125 37.497202 
" style="fill:none;stroke:#808080;stroke-dasharray:1.5,2.475;stroke-dashoffset:0;stroke-width:1.5;"/>
   </g>
   <g id="line2d_51">
    <path clip-path="url(#p02a33ab444)" d="M 262.2 142.126703 
L 266.030435 139.728195 
L 270.818478 136.446046 
L 283.746196 127.377488 
L 287.57663 125.041825 
L 291.407065 122.979818 
L 295.2375 121.201415 
L 299.067935 119.69302 
L 302.89837 118.432919 
L 306.728804 117.405384 
L 310.559239 116.608318 
L 314.389674 116.05237 
L 317.741304 115.775819 
L 321.092935 115.701908 
L 324.92337 115.860036 
L 328.753804 116.248606 
L 333.541848 116.971352 
L 345.511957 118.913458 
L 349.821196 119.339591 
L 354.609239 119.590007 
L 367.058152 120.095014 
L 370.409783 120.506774 
L 373.761413 121.136169 
L 377.113043 122.010942 
L 380.464674 123.146088 
L 383.816304 124.548092 
L 387.167935 126.216865 
L 390.519565 128.143559 
L 394.35 130.63064 
L 398.659239 133.708612 
L 405.3625 138.721123 
L 405.3625 138.721123 
" style="fill:none;stroke:#e377c2;stroke-linecap:square;stroke-width:1.5;"/>
   </g>
   <g id="line2d_52">
    <path clip-path="url(#p02a33ab444)" d="M 333.78125 170.4 
L 333.78125 37.497202 
" style="fill:none;stroke:#808080;stroke-dasharray:1.5,2.475;stroke-dashoffset:0;stroke-width:1.5;"/>
   </g>
   <g id="line2d_53">
    <path clip-path="url(#p02a33ab444)" d="M 262.2 150.201715 
L 267.945652 145.141263 
L 273.691304 139.812974 
L 277.521739 135.988573 
L 280.87337 132.366439 
L 284.703804 127.88023 
L 289.970652 121.282408 
L 295.2375 114.762948 
L 298.110326 111.530554 
L 300.504348 109.113091 
L 302.89837 106.974661 
L 305.292391 105.100297 
L 308.165217 103.119139 
L 316.783696 97.400812 
L 321.092935 94.074043 
L 324.444565 91.546533 
L 326.359783 90.321157 
L 328.275 89.377369 
L 329.711413 88.906526 
L 331.147826 88.66956 
L 332.584239 88.6827 
L 334.020652 88.949987 
L 335.457065 89.462922 
L 336.893478 90.201281 
L 338.808696 91.483314 
L 341.202717 93.435201 
L 346.469565 98.218212 
L 349.821196 101.059688 
L 352.694022 103.210768 
L 356.045652 105.43243 
L 364.185326 110.649751 
L 367.058152 112.800932 
L 370.409783 115.609502 
L 374.240217 119.128194 
L 381.422283 126.09687 
L 390.99837 135.636731 
L 404.404891 149.141929 
L 405.3625 150.035936 
L 405.3625 150.035936 
" style="fill:none;stroke:#7f7f7f;stroke-linecap:square;stroke-width:1.5;"/>
   </g>
   <g id="line2d_54">
    <path clip-path="url(#p02a33ab444)" d="M 333.78125 170.4 
L 333.78125 37.497202 
" style="fill:none;stroke:#808080;stroke-dasharray:1.5,2.475;stroke-dashoffset:0;stroke-width:1.5;"/>
   </g>
   <g id="line2d_55">
    <path clip-path="url(#p02a33ab444)" d="M 262.2 164.340986 
L 266.988043 164.197545 
L 269.86087 163.905016 
L 271.776087 163.525494 
L 273.691304 162.914039 
L 275.127717 162.250352 
L 276.56413 161.36631 
L 278.000543 160.222301 
L 279.436957 158.78292 
L 280.87337 157.020904 
L 282.309783 154.920905 
L 283.746196 152.48253 
L 285.661413 148.735797 
L 287.57663 144.504535 
L 290.449457 137.555227 
L 295.2375 125.8814 
L 297.631522 120.658065 
L 300.504348 114.995071 
L 303.377174 109.304201 
L 305.292391 104.935473 
L 306.728804 101.146112 
L 308.644022 95.316415 
L 310.559239 88.70352 
L 316.304891 68.220332 
L 317.741304 64.046081 
L 319.177717 60.540212 
L 320.61413 57.718723 
L 322.050543 55.512661 
L 323.486957 53.782421 
L 325.402174 51.901191 
L 328.753804 48.716723 
L 332.584239 44.902088 
L 333.541848 44.197753 
L 334.499457 43.723049 
L 335.457065 43.538238 
L 336.414674 43.689332 
L 337.372283 44.202588 
L 338.329891 45.081335 
L 339.2875 46.305622 
L 340.723913 48.696582 
L 342.160326 51.574468 
L 345.511957 59.018314 
L 353.65163 77.320252 
L 356.045652 83.577292 
L 367.058152 113.336294 
L 371.846196 125.85604 
L 379.98587 147.648612 
L 381.901087 151.94028 
L 383.3375 154.724657 
L 384.773913 157.09454 
L 386.210326 159.041631 
L 387.646739 160.584204 
L 389.083152 161.762001 
L 390.519565 162.628582 
L 391.955978 163.243087 
L 393.871196 163.769072 
L 396.265217 164.115926 
L 399.616848 164.301499 
L 405.3625 164.358964 
L 405.3625 164.358964 
" style="fill:none;stroke:#bcbd22;stroke-linecap:square;stroke-width:1.5;"/>
   </g>
   <g id="line2d_56">
    <path clip-path="url(#p02a33ab444)" d="M 333.78125 170.4 
L 333.78125 37.497202 
" style="fill:none;stroke:#808080;stroke-dasharray:1.5,2.475;stroke-dashoffset:0;stroke-width:1.5;"/>
   </g>
   <g id="patch_6">
    <path d="M 262.2 170.4 
L 262.2 37.497202 
" style="fill:none;stroke:#000000;stroke-linecap:square;stroke-linejoin:miter;stroke-width:0.8;"/>
   </g>
   <g id="patch_7">
    <path d="M 262.2 170.4 
L 405.3625 170.4 
" style="fill:none;stroke:#000000;stroke-linecap:square;stroke-linejoin:miter;stroke-width:0.8;"/>
   </g>
  </g>
  <g id="axes_3">
   <g id="patch_8">
    <path d="M 479.85 170.4 
L 623.0125 170.4 
L 623.0125 37.497202 
L 479.85 37.497202 
z
" style="fill:#ffffff;"/>
   </g>
   <g id="matplotlib.axis_5">
    <g id="xtick_11">
     <g id="line2d_57">
      <g>
       <use style="stroke:#000000;stroke-width:0.8;" x="479.85" xlink:href="#m4a63627529" y="170.4"/>
      </g>
     </g>
     <g id="text_25">
      <!-- 0.000 -->
      <g transform="translate(465.535938 184.998437)scale(0.1 -0.1)">
       <use xlink:href="#DejaVuSans-48"/>
       <use x="63.623047" xlink:href="#DejaVuSans-46"/>
       <use x="95.410156" xlink:href="#DejaVuSans-48"/>
       <use x="159.033203" xlink:href="#DejaVuSans-48"/>
       <use x="222.65625" xlink:href="#DejaVuSans-48"/>
      </g>
     </g>
    </g>
    <g id="xtick_12">
     <g id="line2d_58">
      <g>
       <use style="stroke:#000000;stroke-width:0.8;" x="515.640625" xlink:href="#m4a63627529" y="170.4"/>
      </g>
     </g>
     <g id="text_26">
      <!-- 0.025 -->
      <g transform="translate(501.326563 184.998437)scale(0.1 -0.1)">
       <use xlink:href="#DejaVuSans-48"/>
       <use x="63.623047" xlink:href="#DejaVuSans-46"/>
       <use x="95.410156" xlink:href="#DejaVuSans-48"/>
       <use x="159.033203" xlink:href="#DejaVuSans-50"/>
       <use x="222.65625" xlink:href="#DejaVuSans-53"/>
      </g>
     </g>
    </g>
    <g id="xtick_13">
     <g id="line2d_59">
      <g>
       <use style="stroke:#000000;stroke-width:0.8;" x="551.43125" xlink:href="#m4a63627529" y="170.4"/>
      </g>
     </g>
     <g id="text_27">
      <!-- 0.050 -->
      <g transform="translate(537.117188 184.998437)scale(0.1 -0.1)">
       <use xlink:href="#DejaVuSans-48"/>
       <use x="63.623047" xlink:href="#DejaVuSans-46"/>
       <use x="95.410156" xlink:href="#DejaVuSans-48"/>
       <use x="159.033203" xlink:href="#DejaVuSans-53"/>
       <use x="222.65625" xlink:href="#DejaVuSans-48"/>
      </g>
     </g>
    </g>
    <g id="xtick_14">
     <g id="line2d_60">
      <g>
       <use style="stroke:#000000;stroke-width:0.8;" x="587.221875" xlink:href="#m4a63627529" y="170.4"/>
      </g>
     </g>
     <g id="text_28">
      <!-- 0.075 -->
      <g transform="translate(572.907813 184.998437)scale(0.1 -0.1)">
       <use xlink:href="#DejaVuSans-48"/>
       <use x="63.623047" xlink:href="#DejaVuSans-46"/>
       <use x="95.410156" xlink:href="#DejaVuSans-48"/>
       <use x="159.033203" xlink:href="#DejaVuSans-55"/>
       <use x="222.65625" xlink:href="#DejaVuSans-53"/>
      </g>
     </g>
    </g>
    <g id="xtick_15">
     <g id="line2d_61">
      <g>
       <use style="stroke:#000000;stroke-width:0.8;" x="623.0125" xlink:href="#m4a63627529" y="170.4"/>
      </g>
     </g>
     <g id="text_29">
      <!-- 0.100 -->
      <g transform="translate(608.698438 184.998437)scale(0.1 -0.1)">
       <use xlink:href="#DejaVuSans-48"/>
       <use x="63.623047" xlink:href="#DejaVuSans-46"/>
       <use x="95.410156" xlink:href="#DejaVuSans-49"/>
       <use x="159.033203" xlink:href="#DejaVuSans-48"/>
       <use x="222.65625" xlink:href="#DejaVuSans-48"/>
      </g>
     </g>
    </g>
    <g id="text_30">
     <!-- $\theta_2$ -->
     <g transform="translate(545.98125 198.676562)scale(0.1 -0.1)">
      <use transform="translate(0 0.234375)" xlink:href="#DejaVuSans-Oblique-952"/>
      <use transform="translate(61.181641 -16.171875)scale(0.7)" xlink:href="#DejaVuSans-50"/>
     </g>
    </g>
   </g>
   <g id="matplotlib.axis_6">
    <g id="ytick_11">
     <g id="line2d_62">
      <g>
       <use style="stroke:#000000;stroke-width:0.8;" x="479.85" xlink:href="#m3a7918557a" y="164.358964"/>
      </g>
     </g>
     <g id="text_31">
      <!-- 0 -->
      <g transform="translate(466.4875 168.158182)scale(0.1 -0.1)">
       <use xlink:href="#DejaVuSans-48"/>
      </g>
     </g>
    </g>
    <g id="ytick_12">
     <g id="line2d_63">
      <g>
       <use style="stroke:#000000;stroke-width:0.8;" x="479.85" xlink:href="#m3a7918557a" y="122.854644"/>
      </g>
     </g>
     <g id="text_32">
      <!-- 10 -->
      <g transform="translate(460.125 126.653862)scale(0.1 -0.1)">
       <use xlink:href="#DejaVuSans-49"/>
       <use x="63.623047" xlink:href="#DejaVuSans-48"/>
      </g>
     </g>
    </g>
    <g id="ytick_13">
     <g id="line2d_64">
      <g>
       <use style="stroke:#000000;stroke-width:0.8;" x="479.85" xlink:href="#m3a7918557a" y="81.350324"/>
      </g>
     </g>
     <g id="text_33">
      <!-- 20 -->
      <g transform="translate(460.125 85.149542)scale(0.1 -0.1)">
       <use xlink:href="#DejaVuSans-50"/>
       <use x="63.623047" xlink:href="#DejaVuSans-48"/>
      </g>
     </g>
    </g>
    <g id="ytick_14">
     <g id="line2d_65">
      <g>
       <use style="stroke:#000000;stroke-width:0.8;" x="479.85" xlink:href="#m3a7918557a" y="39.846004"/>
      </g>
     </g>
     <g id="text_34">
      <!-- 30 -->
      <g transform="translate(460.125 43.645222)scale(0.1 -0.1)">
       <use xlink:href="#DejaVuSans-51"/>
       <use x="63.623047" xlink:href="#DejaVuSans-48"/>
      </g>
     </g>
    </g>
    <g id="text_35">
     <!-- Posterior -->
     <g transform="translate(454.045313 126.042351)rotate(-90)scale(0.1 -0.1)">
      <use xlink:href="#DejaVuSans-80"/>
      <use x="56.677734" xlink:href="#DejaVuSans-111"/>
      <use x="117.859375" xlink:href="#DejaVuSans-115"/>
      <use x="169.958984" xlink:href="#DejaVuSans-116"/>
      <use x="209.167969" xlink:href="#DejaVuSans-101"/>
      <use x="270.691406" xlink:href="#DejaVuSans-114"/>
      <use x="311.804688" xlink:href="#DejaVuSans-105"/>
      <use x="339.587891" xlink:href="#DejaVuSans-111"/>
      <use x="400.769531" xlink:href="#DejaVuSans-114"/>
     </g>
    </g>
   </g>
   <g id="line2d_66">
    <path clip-path="url(#p836cf43594)" d="M 479.85 147.118317 
L 483.680435 142.564282 
L 486.074457 140.042196 
L 487.989674 138.284479 
L 489.904891 136.781187 
L 491.820109 135.528739 
L 493.735326 134.502691 
L 496.129348 133.477013 
L 499.002174 132.499008 
L 504.747826 130.849065 
L 511.451087 129.085071 
L 514.802717 128.4385 
L 517.675543 128.097307 
L 521.027174 127.946794 
L 525.336413 128.019268 
L 532.997283 128.179018 
L 536.827717 128.005909 
L 540.179348 127.625356 
L 543.052174 127.088994 
L 545.925 126.330586 
L 548.797826 125.339034 
L 551.670652 124.127883 
L 555.501087 122.248309 
L 564.59837 117.60207 
L 567.471196 116.424094 
L 569.865217 115.64299 
L 572.259239 115.066536 
L 574.653261 114.696382 
L 577.526087 114.498984 
L 580.877717 114.5324 
L 585.665761 114.858632 
L 591.890217 115.499471 
L 595.720652 116.090607 
L 598.593478 116.743715 
L 600.9875 117.490117 
L 603.381522 118.472884 
L 605.296739 119.464306 
L 607.211957 120.668519 
L 609.127174 122.113698 
L 611.042391 123.825492 
L 612.957609 125.822998 
L 614.872826 128.113804 
L 617.266848 131.374369 
L 619.66087 135.015717 
L 623.0125 140.527747 
L 623.0125 140.527747 
" style="fill:none;stroke:#1f77b4;stroke-linecap:square;stroke-width:1.5;"/>
   </g>
   <g id="line2d_67">
    <path clip-path="url(#p836cf43594)" style="fill:none;stroke:#808080;stroke-dasharray:1.5,2.475;stroke-dashoffset:0;stroke-width:1.5;"/>
   </g>
   <g id="line2d_68">
    <path clip-path="url(#p836cf43594)" d="M 479.85 150.846101 
L 487.51087 142.869436 
L 490.383696 140.22553 
L 493.256522 137.907421 
L 495.650543 136.246808 
L 498.044565 134.831747 
L 500.438587 133.646343 
L 503.311413 132.487578 
L 506.663043 131.419725 
L 510.493478 130.450608 
L 515.281522 129.477094 
L 519.590761 128.812121 
L 523.9 128.376933 
L 534.433696 127.507291 
L 537.785326 126.8958 
L 541.136957 126.033486 
L 544.967391 124.806036 
L 555.979891 121.11214 
L 559.810326 120.137138 
L 564.119565 119.282408 
L 573.695652 117.507003 
L 577.047283 116.582436 
L 580.398913 115.408257 
L 584.708152 113.632417 
L 589.496196 111.705413 
L 591.890217 110.959267 
L 593.805435 110.546136 
L 595.720652 110.340311 
L 597.63587 110.377409 
L 599.551087 110.688353 
L 600.9875 111.117604 
L 602.423913 111.726294 
L 603.860326 112.523734 
L 605.296739 113.518287 
L 607.211957 115.162966 
L 609.127174 117.181683 
L 611.042391 119.57606 
L 612.957609 122.333854 
L 615.35163 126.244464 
L 618.224457 131.473791 
L 623.0125 140.755737 
L 623.0125 140.755737 
" style="fill:none;stroke:#ff7f0e;stroke-linecap:square;stroke-width:1.5;"/>
   </g>
   <g id="line2d_69">
    <path clip-path="url(#p836cf43594)" style="fill:none;stroke:#808080;stroke-dasharray:1.5,2.475;stroke-dashoffset:0;stroke-width:1.5;"/>
   </g>
   <g id="line2d_70">
    <path clip-path="url(#p836cf43594)" d="M 479.85 153.534174 
L 485.595652 148.546877 
L 488.468478 146.36738 
L 490.8625 144.813261 
L 493.256522 143.506593 
L 496.129348 142.221668 
L 499.480978 140.986007 
L 510.493478 137.112618 
L 517.675543 134.454743 
L 521.505978 133.304341 
L 524.857609 132.52261 
L 529.645652 131.664938 
L 534.9125 130.687045 
L 538.26413 129.817037 
L 541.136957 128.844817 
L 544.488587 127.448145 
L 548.319022 125.589622 
L 573.216848 112.959098 
L 576.089674 111.814263 
L 578.483696 111.06829 
L 580.877717 110.544696 
L 583.271739 110.242352 
L 586.144565 110.117978 
L 596.199457 109.983702 
L 603.860326 109.428695 
L 605.775543 109.625861 
L 607.211957 109.982072 
L 608.64837 110.563035 
L 610.084783 111.405504 
L 611.521196 112.538994 
L 612.957609 113.98344 
L 614.394022 115.747336 
L 615.830435 117.826502 
L 617.745652 121.057332 
L 619.66087 124.740399 
L 622.533696 130.863826 
L 623.0125 131.926811 
L 623.0125 131.926811 
" style="fill:none;stroke:#2ca02c;stroke-linecap:square;stroke-width:1.5;"/>
   </g>
   <g id="line2d_71">
    <path clip-path="url(#p836cf43594)" style="fill:none;stroke:#808080;stroke-dasharray:1.5,2.475;stroke-dashoffset:0;stroke-width:1.5;"/>
   </g>
   <g id="line2d_72">
    <path clip-path="url(#p836cf43594)" d="M 479.85 157.659572 
L 482.722826 155.655777 
L 486.074457 153.037949 
L 490.8625 148.962796 
L 497.565761 143.240413 
L 500.438587 141.062025 
L 502.832609 139.488393 
L 505.22663 138.188257 
L 507.620652 137.187594 
L 510.014674 136.48029 
L 512.408696 136.025527 
L 515.281522 135.712249 
L 522.942391 135.010906 
L 525.815217 134.473664 
L 529.166848 133.595121 
L 533.476087 132.195442 
L 541.136957 129.672643 
L 545.925 128.354771 
L 554.064674 126.163385 
L 556.9375 125.137257 
L 559.331522 124.082588 
L 561.725543 122.813423 
L 564.119565 121.322466 
L 566.992391 119.271869 
L 571.30163 115.865467 
L 576.089674 112.135263 
L 578.9625 110.178737 
L 581.356522 108.782905 
L 583.750543 107.605507 
L 586.62337 106.439126 
L 590.453804 105.156564 
L 596.199457 103.480931 
L 599.551087 102.708599 
L 601.466304 102.454784 
L 603.381522 102.43399 
L 604.817935 102.625875 
L 606.254348 103.039478 
L 607.690761 103.712515 
L 609.127174 104.678344 
L 610.563587 105.963434 
L 612 107.585059 
L 613.436413 109.549401 
L 614.872826 111.850242 
L 616.788043 115.406447 
L 618.703261 119.445039 
L 621.576087 126.148389 
L 623.0125 129.659159 
L 623.0125 129.659159 
" style="fill:none;stroke:#d62728;stroke-linecap:square;stroke-width:1.5;"/>
   </g>
   <g id="line2d_73">
    <path clip-path="url(#p836cf43594)" style="fill:none;stroke:#808080;stroke-dasharray:1.5,2.475;stroke-dashoffset:0;stroke-width:1.5;"/>
   </g>
   <g id="line2d_74">
    <path clip-path="url(#p836cf43594)" d="M 479.85 158.645724 
L 487.51087 155.01467 
L 491.341304 153.486244 
L 495.650543 152.020827 
L 506.184239 148.606543 
L 509.057065 147.410586 
L 511.929891 145.964618 
L 514.802717 144.228351 
L 517.675543 142.224748 
L 526.772826 135.582175 
L 529.166848 134.196949 
L 531.56087 133.051205 
L 534.433696 131.941031 
L 546.403804 127.70956 
L 552.149457 125.134646 
L 558.852717 121.938605 
L 562.204348 120.117485 
L 565.077174 118.317649 
L 567.95 116.254185 
L 571.30163 113.543195 
L 581.835326 104.687227 
L 585.186957 102.306174 
L 589.017391 99.865212 
L 593.32663 97.36723 
L 596.199457 95.896856 
L 598.593478 94.907187 
L 600.508696 94.365535 
L 601.945109 94.160526 
L 603.381522 94.171621 
L 604.817935 94.439369 
L 606.254348 95.003672 
L 607.690761 95.901804 
L 609.127174 97.166207 
L 610.563587 98.822112 
L 612 100.88513 
L 613.436413 103.358957 
L 614.872826 106.233446 
L 616.788043 110.643372 
L 618.703261 115.61594 
L 621.576087 123.795245 
L 623.0125 128.037 
L 623.0125 128.037 
" style="fill:none;stroke:#9467bd;stroke-linecap:square;stroke-width:1.5;"/>
   </g>
   <g id="line2d_75">
    <path clip-path="url(#p836cf43594)" style="fill:none;stroke:#808080;stroke-dasharray:1.5,2.475;stroke-dashoffset:0;stroke-width:1.5;"/>
   </g>
   <g id="line2d_76">
    <path clip-path="url(#p836cf43594)" d="M 479.85 163.790685 
L 484.638043 163.349304 
L 487.989674 162.854342 
L 490.8625 162.234543 
L 493.735326 161.381519 
L 496.608152 160.269878 
L 499.480978 158.911868 
L 503.311413 156.813698 
L 515.760326 149.498742 
L 519.590761 147.02346 
L 523.421196 144.260631 
L 541.136957 130.767381 
L 545.925 127.182611 
L 548.797826 125.308996 
L 551.670652 123.720939 
L 555.022283 122.165988 
L 560.767935 119.581183 
L 563.161957 118.219484 
L 565.077174 116.89911 
L 566.992391 115.332194 
L 568.907609 113.502155 
L 571.30163 110.859872 
L 574.174457 107.277871 
L 580.877717 98.678767 
L 582.792935 96.601995 
L 584.708152 94.840738 
L 586.62337 93.429617 
L 588.538587 92.367584 
L 590.453804 91.621026 
L 592.369022 91.132155 
L 594.763043 90.776161 
L 598.593478 90.49345 
L 604.33913 90.288894 
L 606.254348 90.408695 
L 607.690761 90.666517 
L 609.127174 91.142979 
L 610.563587 91.915576 
L 611.521196 92.63554 
L 612.478804 93.547364 
L 613.436413 94.6733 
L 614.872826 96.805104 
L 616.309239 99.508745 
L 617.745652 102.802549 
L 619.182065 106.669278 
L 621.097283 112.613694 
L 623.0125 119.2375 
L 623.0125 119.2375 
" style="fill:none;stroke:#8c564b;stroke-linecap:square;stroke-width:1.5;"/>
   </g>
   <g id="line2d_77">
    <path clip-path="url(#p836cf43594)" style="fill:none;stroke:#808080;stroke-dasharray:1.5,2.475;stroke-dashoffset:0;stroke-width:1.5;"/>
   </g>
   <g id="line2d_78">
    <path clip-path="url(#p836cf43594)" d="M 479.85 164.27597 
L 484.159239 164.049382 
L 487.032065 163.711058 
L 489.904891 163.14348 
L 492.777717 162.309499 
L 496.129348 161.045333 
L 503.790217 157.981344 
L 510.972283 155.407328 
L 512.8875 154.457786 
L 514.802717 153.290075 
L 516.717935 151.896281 
L 519.111957 149.890235 
L 526.294022 143.592908 
L 528.688043 141.877687 
L 531.082065 140.439064 
L 533.954891 139.000011 
L 544.488587 134.063559 
L 547.361413 132.313965 
L 550.234239 130.288467 
L 553.107065 127.984168 
L 555.979891 125.416253 
L 559.331522 122.134905 
L 569.865217 111.503879 
L 573.695652 108.141358 
L 585.665761 97.969671 
L 589.017391 94.688431 
L 592.369022 91.039336 
L 597.157065 85.38113 
L 600.508696 81.551791 
L 602.423913 79.64561 
L 603.860326 78.454229 
L 605.296739 77.547199 
L 606.254348 77.141816 
L 607.211957 76.927843 
L 608.169565 76.934422 
L 609.127174 77.191412 
L 610.084783 77.728343 
L 611.042391 78.573127 
L 612 79.750584 
L 612.957609 81.280876 
L 613.915217 83.177933 
L 614.872826 85.448011 
L 616.309239 89.544186 
L 617.745652 94.421296 
L 619.66087 101.957835 
L 622.054891 112.507476 
L 623.0125 116.892406 
L 623.0125 116.892406 
" style="fill:none;stroke:#e377c2;stroke-linecap:square;stroke-width:1.5;"/>
   </g>
   <g id="line2d_79">
    <path clip-path="url(#p836cf43594)" style="fill:none;stroke:#808080;stroke-dasharray:1.5,2.475;stroke-dashoffset:0;stroke-width:1.5;"/>
   </g>
   <g id="line2d_80">
    <path clip-path="url(#p836cf43594)" d="M 479.85 164.358964 
L 504.269022 164.253505 
L 508.099457 163.99071 
L 510.972283 163.555452 
L 513.366304 162.964984 
L 515.760326 162.141613 
L 518.633152 160.885732 
L 525.815217 157.321102 
L 529.166848 155.546382 
L 531.082065 154.309551 
L 532.997283 152.783715 
L 534.9125 150.901392 
L 536.827717 148.653711 
L 539.221739 145.421761 
L 546.403804 135.23823 
L 548.319022 132.973383 
L 550.234239 131.028739 
L 552.149457 129.39395 
L 554.543478 127.685233 
L 559.810326 124.147569 
L 562.204348 122.164313 
L 564.59837 119.869861 
L 581.356522 102.740091 
L 584.229348 99.276978 
L 587.102174 95.447975 
L 589.496196 91.883917 
L 591.890217 87.908796 
L 594.284239 83.51843 
L 597.157065 77.801101 
L 605.775543 60.269576 
L 607.211957 57.962806 
L 608.169565 56.697415 
L 609.127174 55.718134 
L 610.084783 55.090667 
L 611.042391 54.885101 
L 611.521196 54.962922 
L 612 55.172945 
L 612.478804 55.523691 
L 613.436413 56.679066 
L 614.394022 58.485494 
L 615.35163 60.984606 
L 616.309239 64.198298 
L 617.266848 68.124585 
L 618.703261 75.279746 
L 620.139674 83.753944 
L 622.054891 96.501234 
L 623.0125 103.202216 
L 623.0125 103.202216 
" style="fill:none;stroke:#7f7f7f;stroke-linecap:square;stroke-width:1.5;"/>
   </g>
   <g id="line2d_81">
    <path clip-path="url(#p836cf43594)" style="fill:none;stroke:#808080;stroke-dasharray:1.5,2.475;stroke-dashoffset:0;stroke-width:1.5;"/>
   </g>
   <g id="line2d_82">
    <path clip-path="url(#p836cf43594)" d="M 479.85 164.358964 
L 510.014674 164.258739 
L 513.366304 164.003157 
L 515.760326 163.616044 
L 518.154348 163.003658 
L 521.027174 161.995172 
L 527.730435 159.237184 
L 531.56087 157.53523 
L 535.870109 155.331385 
L 540.658152 152.947015 
L 544.488587 151.035718 
L 546.882609 149.560049 
L 548.797826 148.096114 
L 550.713043 146.307908 
L 552.628261 144.133792 
L 554.543478 141.517408 
L 556.458696 138.424572 
L 558.373913 134.875345 
L 561.246739 128.957954 
L 564.59837 122.086701 
L 566.513587 118.663498 
L 568.428804 115.762434 
L 570.344022 113.308985 
L 576.568478 105.827993 
L 584.229348 95.645168 
L 588.538587 90.504216 
L 589.975 88.462854 
L 591.411413 86.100231 
L 592.847826 83.386308 
L 594.763043 79.279421 
L 598.114674 71.359158 
L 601.945109 62.457138 
L 605.296739 55.22588 
L 608.169565 49.457189 
L 609.605978 46.921215 
L 610.563587 45.492324 
L 611.521196 44.377409 
L 612.478804 43.686478 
L 612.957609 43.538238 
L 613.436413 43.54298 
L 613.915217 43.717048 
L 614.394022 44.076574 
L 614.872826 44.637117 
L 615.35163 45.413276 
L 616.309239 47.663617 
L 617.266848 50.909953 
L 618.224457 55.194445 
L 619.182065 60.509438 
L 620.618478 70.260695 
L 622.054891 81.732138 
L 623.0125 90.010671 
L 623.0125 90.010671 
" style="fill:none;stroke:#bcbd22;stroke-linecap:square;stroke-width:1.5;"/>
   </g>
   <g id="line2d_83">
    <path clip-path="url(#p836cf43594)" style="fill:none;stroke:#808080;stroke-dasharray:1.5,2.475;stroke-dashoffset:0;stroke-width:1.5;"/>
   </g>
   <g id="patch_9">
    <path d="M 479.85 170.4 
L 479.85 37.497202 
" style="fill:none;stroke:#000000;stroke-linecap:square;stroke-linejoin:miter;stroke-width:0.8;"/>
   </g>
   <g id="patch_10">
    <path d="M 479.85 170.4 
L 623.0125 170.4 
" style="fill:none;stroke:#000000;stroke-linecap:square;stroke-linejoin:miter;stroke-width:0.8;"/>
   </g>
  </g>
  <g id="text_36">
   <!-- adaptive -->
   <g transform="translate(297.765938 13.438125)scale(0.12 -0.12)">
    <defs>
     <path d="M 34.28125 27.484375 
Q 23.390625 27.484375 19.1875 25 
Q 14.984375 22.515625 14.984375 16.5 
Q 14.984375 11.71875 18.140625 8.90625 
Q 21.296875 6.109375 26.703125 6.109375 
Q 34.1875 6.109375 38.703125 11.40625 
Q 43.21875 16.703125 43.21875 25.484375 
L 43.21875 27.484375 
z
M 52.203125 31.203125 
L 52.203125 0 
L 43.21875 0 
L 43.21875 8.296875 
Q 40.140625 3.328125 35.546875 0.953125 
Q 30.953125 -1.421875 24.3125 -1.421875 
Q 15.921875 -1.421875 10.953125 3.296875 
Q 6 8.015625 6 15.921875 
Q 6 25.140625 12.171875 29.828125 
Q 18.359375 34.515625 30.609375 34.515625 
L 43.21875 34.515625 
L 43.21875 35.40625 
Q 43.21875 41.609375 39.140625 45 
Q 35.0625 48.390625 27.6875 48.390625 
Q 23 48.390625 18.546875 47.265625 
Q 14.109375 46.140625 10.015625 43.890625 
L 10.015625 52.203125 
Q 14.9375 54.109375 19.578125 55.046875 
Q 24.21875 56 28.609375 56 
Q 40.484375 56 46.34375 49.84375 
Q 52.203125 43.703125 52.203125 31.203125 
z
" id="DejaVuSans-97"/>
     <path d="M 45.40625 46.390625 
L 45.40625 75.984375 
L 54.390625 75.984375 
L 54.390625 0 
L 45.40625 0 
L 45.40625 8.203125 
Q 42.578125 3.328125 38.25 0.953125 
Q 33.9375 -1.421875 27.875 -1.421875 
Q 17.96875 -1.421875 11.734375 6.484375 
Q 5.515625 14.40625 5.515625 27.296875 
Q 5.515625 40.1875 11.734375 48.09375 
Q 17.96875 56 27.875 56 
Q 33.9375 56 38.25 53.625 
Q 42.578125 51.265625 45.40625 46.390625 
z
M 14.796875 27.296875 
Q 14.796875 17.390625 18.875 11.75 
Q 22.953125 6.109375 30.078125 6.109375 
Q 37.203125 6.109375 41.296875 11.75 
Q 45.40625 17.390625 45.40625 27.296875 
Q 45.40625 37.203125 41.296875 42.84375 
Q 37.203125 48.484375 30.078125 48.484375 
Q 22.953125 48.484375 18.875 42.84375 
Q 14.796875 37.203125 14.796875 27.296875 
z
" id="DejaVuSans-100"/>
     <path d="M 18.109375 8.203125 
L 18.109375 -20.796875 
L 9.078125 -20.796875 
L 9.078125 54.6875 
L 18.109375 54.6875 
L 18.109375 46.390625 
Q 20.953125 51.265625 25.265625 53.625 
Q 29.59375 56 35.59375 56 
Q 45.5625 56 51.78125 48.09375 
Q 58.015625 40.1875 58.015625 27.296875 
Q 58.015625 14.40625 51.78125 6.484375 
Q 45.5625 -1.421875 35.59375 -1.421875 
Q 29.59375 -1.421875 25.265625 0.953125 
Q 20.953125 3.328125 18.109375 8.203125 
z
M 48.6875 27.296875 
Q 48.6875 37.203125 44.609375 42.84375 
Q 40.53125 48.484375 33.40625 48.484375 
Q 26.265625 48.484375 22.1875 42.84375 
Q 18.109375 37.203125 18.109375 27.296875 
Q 18.109375 17.390625 22.1875 11.75 
Q 26.265625 6.109375 33.40625 6.109375 
Q 40.53125 6.109375 44.609375 11.75 
Q 48.6875 17.390625 48.6875 27.296875 
z
" id="DejaVuSans-112"/>
     <path d="M 2.984375 54.6875 
L 12.5 54.6875 
L 29.59375 8.796875 
L 46.6875 54.6875 
L 56.203125 54.6875 
L 35.6875 0 
L 23.484375 0 
z
" id="DejaVuSans-118"/>
    </defs>
    <use xlink:href="#DejaVuSans-97"/>
    <use x="61.279297" xlink:href="#DejaVuSans-100"/>
    <use x="124.755859" xlink:href="#DejaVuSans-97"/>
    <use x="186.035156" xlink:href="#DejaVuSans-112"/>
    <use x="249.511719" xlink:href="#DejaVuSans-116"/>
    <use x="288.720703" xlink:href="#DejaVuSans-105"/>
    <use x="316.503906" xlink:href="#DejaVuSans-118"/>
    <use x="375.683594" xlink:href="#DejaVuSans-101"/>
   </g>
  </g>
 </g>
 <defs>
  <clipPath id="pccbd89a30f">
   <rect height="132.902798" width="143.1625" x="44.55" y="37.497202"/>
  </clipPath>
  <clipPath id="p02a33ab444">
   <rect height="132.902798" width="143.1625" x="262.2" y="37.497202"/>
  </clipPath>
  <clipPath id="p836cf43594">
   <rect height="132.902798" width="143.1625" x="479.85" y="37.497202"/>
  </clipPath>
 </defs>
</svg>
