<?xml version="1.0" encoding="utf-8" standalone="no"?>
<!DOCTYPE svg PUBLIC "-//W3C//DTD SVG 1.1//EN"
  "http://www.w3.org/Graphics/SVG/1.1/DTD/svg11.dtd">
<!-- Created with matplotlib (https://matplotlib.org/) -->
<svg height="216pt" version="1.1" viewBox="0 0 648 216" width="648pt" xmlns="http://www.w3.org/2000/svg" xmlns:xlink="http://www.w3.org/1999/xlink">
 <metadata>
  <rdf:RDF xmlns:cc="http://creativecommons.org/ns#" xmlns:dc="http://purl.org/dc/elements/1.1/" xmlns:rdf="http://www.w3.org/1999/02/22-rdf-syntax-ns#">
   <cc:Work>
    <dc:type rdf:resource="http://purl.org/dc/dcmitype/StillImage"/>
    <dc:date>2021-04-22T11:29:20.986820</dc:date>
    <dc:format>image/svg+xml</dc:format>
    <dc:creator>
     <cc:Agent>
      <dc:title>Matplotlib v3.3.4, https://matplotlib.org/</dc:title>
     </cc:Agent>
    </dc:creator>
   </cc:Work>
  </rdf:RDF>
 </metadata>
 <defs>
  <style type="text/css">*{stroke-linecap:butt;stroke-linejoin:round;}</style>
 </defs>
 <g id="figure_1">
  <g id="patch_1">
   <path d="M 0 216 
L 648 216 
L 648 0 
L 0 0 
z
" style="fill:none;"/>
  </g>
  <g id="axes_1">
   <g id="patch_2">
    <path d="M 44.55 170.4 
L 187.795833 170.4 
L 187.795833 34.6 
L 44.55 34.6 
z
" style="fill:#ffffff;"/>
   </g>
   <g id="matplotlib.axis_1">
    <g id="xtick_1">
     <g id="line2d_1">
      <defs>
       <path d="M 0 0 
L 0 3.5 
" id="m6041b9fb60" style="stroke:#000000;stroke-width:0.8;"/>
      </defs>
      <g>
       <use style="stroke:#000000;stroke-width:0.8;" x="44.55" xlink:href="#m6041b9fb60" y="170.4"/>
      </g>
     </g>
     <g id="text_1">
      <!-- 0.000 -->
      <g transform="translate(30.235938 184.998437)scale(0.1 -0.1)">
       <defs>
        <path d="M 31.78125 66.40625 
Q 24.171875 66.40625 20.328125 58.90625 
Q 16.5 51.421875 16.5 36.375 
Q 16.5 21.390625 20.328125 13.890625 
Q 24.171875 6.390625 31.78125 6.390625 
Q 39.453125 6.390625 43.28125 13.890625 
Q 47.125 21.390625 47.125 36.375 
Q 47.125 51.421875 43.28125 58.90625 
Q 39.453125 66.40625 31.78125 66.40625 
z
M 31.78125 74.21875 
Q 44.046875 74.21875 50.515625 64.515625 
Q 56.984375 54.828125 56.984375 36.375 
Q 56.984375 17.96875 50.515625 8.265625 
Q 44.046875 -1.421875 31.78125 -1.421875 
Q 19.53125 -1.421875 13.0625 8.265625 
Q 6.59375 17.96875 6.59375 36.375 
Q 6.59375 54.828125 13.0625 64.515625 
Q 19.53125 74.21875 31.78125 74.21875 
z
" id="DejaVuSans-48"/>
        <path d="M 10.6875 12.40625 
L 21 12.40625 
L 21 0 
L 10.6875 0 
z
" id="DejaVuSans-46"/>
       </defs>
       <use xlink:href="#DejaVuSans-48"/>
       <use x="63.623047" xlink:href="#DejaVuSans-46"/>
       <use x="95.410156" xlink:href="#DejaVuSans-48"/>
       <use x="159.033203" xlink:href="#DejaVuSans-48"/>
       <use x="222.65625" xlink:href="#DejaVuSans-48"/>
      </g>
     </g>
    </g>
    <g id="xtick_2">
     <g id="line2d_2">
      <g>
       <use style="stroke:#000000;stroke-width:0.8;" x="80.361458" xlink:href="#m6041b9fb60" y="170.4"/>
      </g>
     </g>
     <g id="text_2">
      <!-- 0.025 -->
      <g transform="translate(66.047396 184.998437)scale(0.1 -0.1)">
       <defs>
        <path d="M 19.1875 8.296875 
L 53.609375 8.296875 
L 53.609375 0 
L 7.328125 0 
L 7.328125 8.296875 
Q 12.9375 14.109375 22.625 23.890625 
Q 32.328125 33.6875 34.8125 36.53125 
Q 39.546875 41.84375 41.421875 45.53125 
Q 43.3125 49.21875 43.3125 52.78125 
Q 43.3125 58.59375 39.234375 62.25 
Q 35.15625 65.921875 28.609375 65.921875 
Q 23.96875 65.921875 18.8125 64.3125 
Q 13.671875 62.703125 7.8125 59.421875 
L 7.8125 69.390625 
Q 13.765625 71.78125 18.9375 73 
Q 24.125 74.21875 28.421875 74.21875 
Q 39.75 74.21875 46.484375 68.546875 
Q 53.21875 62.890625 53.21875 53.421875 
Q 53.21875 48.921875 51.53125 44.890625 
Q 49.859375 40.875 45.40625 35.40625 
Q 44.1875 33.984375 37.640625 27.21875 
Q 31.109375 20.453125 19.1875 8.296875 
z
" id="DejaVuSans-50"/>
        <path d="M 10.796875 72.90625 
L 49.515625 72.90625 
L 49.515625 64.59375 
L 19.828125 64.59375 
L 19.828125 46.734375 
Q 21.96875 47.46875 24.109375 47.828125 
Q 26.265625 48.1875 28.421875 48.1875 
Q 40.625 48.1875 47.75 41.5 
Q 54.890625 34.8125 54.890625 23.390625 
Q 54.890625 11.625 47.5625 5.09375 
Q 40.234375 -1.421875 26.90625 -1.421875 
Q 22.3125 -1.421875 17.546875 -0.640625 
Q 12.796875 0.140625 7.71875 1.703125 
L 7.71875 11.625 
Q 12.109375 9.234375 16.796875 8.0625 
Q 21.484375 6.890625 26.703125 6.890625 
Q 35.15625 6.890625 40.078125 11.328125 
Q 45.015625 15.765625 45.015625 23.390625 
Q 45.015625 31 40.078125 35.4375 
Q 35.15625 39.890625 26.703125 39.890625 
Q 22.75 39.890625 18.8125 39.015625 
Q 14.890625 38.140625 10.796875 36.28125 
z
" id="DejaVuSans-53"/>
       </defs>
       <use xlink:href="#DejaVuSans-48"/>
       <use x="63.623047" xlink:href="#DejaVuSans-46"/>
       <use x="95.410156" xlink:href="#DejaVuSans-48"/>
       <use x="159.033203" xlink:href="#DejaVuSans-50"/>
       <use x="222.65625" xlink:href="#DejaVuSans-53"/>
      </g>
     </g>
    </g>
    <g id="xtick_3">
     <g id="line2d_3">
      <g>
       <use style="stroke:#000000;stroke-width:0.8;" x="116.172917" xlink:href="#m6041b9fb60" y="170.4"/>
      </g>
     </g>
     <g id="text_3">
      <!-- 0.050 -->
      <g transform="translate(101.858854 184.998437)scale(0.1 -0.1)">
       <use xlink:href="#DejaVuSans-48"/>
       <use x="63.623047" xlink:href="#DejaVuSans-46"/>
       <use x="95.410156" xlink:href="#DejaVuSans-48"/>
       <use x="159.033203" xlink:href="#DejaVuSans-53"/>
       <use x="222.65625" xlink:href="#DejaVuSans-48"/>
      </g>
     </g>
    </g>
    <g id="xtick_4">
     <g id="line2d_4">
      <g>
       <use style="stroke:#000000;stroke-width:0.8;" x="151.984375" xlink:href="#m6041b9fb60" y="170.4"/>
      </g>
     </g>
     <g id="text_4">
      <!-- 0.075 -->
      <g transform="translate(137.670313 184.998437)scale(0.1 -0.1)">
       <defs>
        <path d="M 8.203125 72.90625 
L 55.078125 72.90625 
L 55.078125 68.703125 
L 28.609375 0 
L 18.3125 0 
L 43.21875 64.59375 
L 8.203125 64.59375 
z
" id="DejaVuSans-55"/>
       </defs>
       <use xlink:href="#DejaVuSans-48"/>
       <use x="63.623047" xlink:href="#DejaVuSans-46"/>
       <use x="95.410156" xlink:href="#DejaVuSans-48"/>
       <use x="159.033203" xlink:href="#DejaVuSans-55"/>
       <use x="222.65625" xlink:href="#DejaVuSans-53"/>
      </g>
     </g>
    </g>
    <g id="xtick_5">
     <g id="line2d_5">
      <g>
       <use style="stroke:#000000;stroke-width:0.8;" x="187.795833" xlink:href="#m6041b9fb60" y="170.4"/>
      </g>
     </g>
     <g id="text_5">
      <!-- 0.100 -->
      <g transform="translate(173.481771 184.998437)scale(0.1 -0.1)">
       <defs>
        <path d="M 12.40625 8.296875 
L 28.515625 8.296875 
L 28.515625 63.921875 
L 10.984375 60.40625 
L 10.984375 69.390625 
L 28.421875 72.90625 
L 38.28125 72.90625 
L 38.28125 8.296875 
L 54.390625 8.296875 
L 54.390625 0 
L 12.40625 0 
z
" id="DejaVuSans-49"/>
       </defs>
       <use xlink:href="#DejaVuSans-48"/>
       <use x="63.623047" xlink:href="#DejaVuSans-46"/>
       <use x="95.410156" xlink:href="#DejaVuSans-49"/>
       <use x="159.033203" xlink:href="#DejaVuSans-48"/>
       <use x="222.65625" xlink:href="#DejaVuSans-48"/>
      </g>
     </g>
    </g>
    <g id="text_6">
     <!-- $\theta_0$ -->
     <g transform="translate(110.722917 198.676562)scale(0.1 -0.1)">
      <defs>
       <path d="M 45.515625 34.671875 
L 14.453125 34.671875 
Q 12.359375 20.0625 14.5 13.875 
Q 17.1875 6.25 24.46875 6.25 
Q 31.78125 6.25 37.359375 13.921875 
Q 42.234375 20.65625 45.515625 34.671875 
z
M 47.015625 42.96875 
Q 48.34375 56.84375 46.625 61.71875 
Q 43.953125 69.4375 36.765625 69.4375 
Q 29.296875 69.4375 23.828125 61.8125 
Q 19.53125 55.671875 16.15625 42.96875 
z
M 38.1875 76.765625 
Q 49.90625 76.765625 54.59375 66.40625 
Q 59.28125 56.109375 55.71875 37.84375 
Q 52.203125 19.625 43.453125 9.28125 
Q 34.765625 -1.125 23.046875 -1.125 
Q 11.28125 -1.125 6.640625 9.28125 
Q 2 19.625 5.515625 37.84375 
Q 9.078125 56.109375 17.71875 66.40625 
Q 26.421875 76.765625 38.1875 76.765625 
z
" id="DejaVuSans-Oblique-952"/>
      </defs>
      <use transform="translate(0 0.234375)" xlink:href="#DejaVuSans-Oblique-952"/>
      <use transform="translate(61.181641 -16.171875)scale(0.7)" xlink:href="#DejaVuSans-48"/>
     </g>
    </g>
   </g>
   <g id="matplotlib.axis_2">
    <g id="ytick_1">
     <g id="line2d_6">
      <defs>
       <path d="M 0 0 
L -3.5 0 
" id="m00f322701c" style="stroke:#000000;stroke-width:0.8;"/>
      </defs>
      <g>
       <use style="stroke:#000000;stroke-width:0.8;" x="44.55" xlink:href="#m00f322701c" y="164.227273"/>
      </g>
     </g>
     <g id="text_7">
      <!-- 0 -->
      <g transform="translate(31.1875 168.026491)scale(0.1 -0.1)">
       <use xlink:href="#DejaVuSans-48"/>
      </g>
     </g>
    </g>
    <g id="ytick_2">
     <g id="line2d_7">
      <g>
       <use style="stroke:#000000;stroke-width:0.8;" x="44.55" xlink:href="#m00f322701c" y="129.192682"/>
      </g>
     </g>
     <g id="text_8">
      <!-- 10 -->
      <g transform="translate(24.825 132.991901)scale(0.1 -0.1)">
       <use xlink:href="#DejaVuSans-49"/>
       <use x="63.623047" xlink:href="#DejaVuSans-48"/>
      </g>
     </g>
    </g>
    <g id="ytick_3">
     <g id="line2d_8">
      <g>
       <use style="stroke:#000000;stroke-width:0.8;" x="44.55" xlink:href="#m00f322701c" y="94.158091"/>
      </g>
     </g>
     <g id="text_9">
      <!-- 20 -->
      <g transform="translate(24.825 97.95731)scale(0.1 -0.1)">
       <use xlink:href="#DejaVuSans-50"/>
       <use x="63.623047" xlink:href="#DejaVuSans-48"/>
      </g>
     </g>
    </g>
    <g id="ytick_4">
     <g id="line2d_9">
      <g>
       <use style="stroke:#000000;stroke-width:0.8;" x="44.55" xlink:href="#m00f322701c" y="59.1235"/>
      </g>
     </g>
     <g id="text_10">
      <!-- 30 -->
      <g transform="translate(24.825 62.922719)scale(0.1 -0.1)">
       <defs>
        <path d="M 40.578125 39.3125 
Q 47.65625 37.796875 51.625 33 
Q 55.609375 28.21875 55.609375 21.1875 
Q 55.609375 10.40625 48.1875 4.484375 
Q 40.765625 -1.421875 27.09375 -1.421875 
Q 22.515625 -1.421875 17.65625 -0.515625 
Q 12.796875 0.390625 7.625 2.203125 
L 7.625 11.71875 
Q 11.71875 9.328125 16.59375 8.109375 
Q 21.484375 6.890625 26.8125 6.890625 
Q 36.078125 6.890625 40.9375 10.546875 
Q 45.796875 14.203125 45.796875 21.1875 
Q 45.796875 27.640625 41.28125 31.265625 
Q 36.765625 34.90625 28.71875 34.90625 
L 20.21875 34.90625 
L 20.21875 43.015625 
L 29.109375 43.015625 
Q 36.375 43.015625 40.234375 45.921875 
Q 44.09375 48.828125 44.09375 54.296875 
Q 44.09375 59.90625 40.109375 62.90625 
Q 36.140625 65.921875 28.71875 65.921875 
Q 24.65625 65.921875 20.015625 65.03125 
Q 15.375 64.15625 9.8125 62.3125 
L 9.8125 71.09375 
Q 15.4375 72.65625 20.34375 73.4375 
Q 25.25 74.21875 29.59375 74.21875 
Q 40.828125 74.21875 47.359375 69.109375 
Q 53.90625 64.015625 53.90625 55.328125 
Q 53.90625 49.265625 50.4375 45.09375 
Q 46.96875 40.921875 40.578125 39.3125 
z
" id="DejaVuSans-51"/>
       </defs>
       <use xlink:href="#DejaVuSans-51"/>
       <use x="63.623047" xlink:href="#DejaVuSans-48"/>
      </g>
     </g>
    </g>
    <g id="text_11">
     <!-- Posterior -->
     <g transform="translate(18.745313 124.59375)rotate(-90)scale(0.1 -0.1)">
      <defs>
       <path d="M 19.671875 64.796875 
L 19.671875 37.40625 
L 32.078125 37.40625 
Q 38.96875 37.40625 42.71875 40.96875 
Q 46.484375 44.53125 46.484375 51.125 
Q 46.484375 57.671875 42.71875 61.234375 
Q 38.96875 64.796875 32.078125 64.796875 
z
M 9.8125 72.90625 
L 32.078125 72.90625 
Q 44.34375 72.90625 50.609375 67.359375 
Q 56.890625 61.8125 56.890625 51.125 
Q 56.890625 40.328125 50.609375 34.8125 
Q 44.34375 29.296875 32.078125 29.296875 
L 19.671875 29.296875 
L 19.671875 0 
L 9.8125 0 
z
" id="DejaVuSans-80"/>
       <path d="M 30.609375 48.390625 
Q 23.390625 48.390625 19.1875 42.75 
Q 14.984375 37.109375 14.984375 27.296875 
Q 14.984375 17.484375 19.15625 11.84375 
Q 23.34375 6.203125 30.609375 6.203125 
Q 37.796875 6.203125 41.984375 11.859375 
Q 46.1875 17.53125 46.1875 27.296875 
Q 46.1875 37.015625 41.984375 42.703125 
Q 37.796875 48.390625 30.609375 48.390625 
z
M 30.609375 56 
Q 42.328125 56 49.015625 48.375 
Q 55.71875 40.765625 55.71875 27.296875 
Q 55.71875 13.875 49.015625 6.21875 
Q 42.328125 -1.421875 30.609375 -1.421875 
Q 18.84375 -1.421875 12.171875 6.21875 
Q 5.515625 13.875 5.515625 27.296875 
Q 5.515625 40.765625 12.171875 48.375 
Q 18.84375 56 30.609375 56 
z
" id="DejaVuSans-111"/>
       <path d="M 44.28125 53.078125 
L 44.28125 44.578125 
Q 40.484375 46.53125 36.375 47.5 
Q 32.28125 48.484375 27.875 48.484375 
Q 21.1875 48.484375 17.84375 46.4375 
Q 14.5 44.390625 14.5 40.28125 
Q 14.5 37.15625 16.890625 35.375 
Q 19.28125 33.59375 26.515625 31.984375 
L 29.59375 31.296875 
Q 39.15625 29.25 43.1875 25.515625 
Q 47.21875 21.78125 47.21875 15.09375 
Q 47.21875 7.46875 41.1875 3.015625 
Q 35.15625 -1.421875 24.609375 -1.421875 
Q 20.21875 -1.421875 15.453125 -0.5625 
Q 10.6875 0.296875 5.421875 2 
L 5.421875 11.28125 
Q 10.40625 8.6875 15.234375 7.390625 
Q 20.0625 6.109375 24.8125 6.109375 
Q 31.15625 6.109375 34.5625 8.28125 
Q 37.984375 10.453125 37.984375 14.40625 
Q 37.984375 18.0625 35.515625 20.015625 
Q 33.0625 21.96875 24.703125 23.78125 
L 21.578125 24.515625 
Q 13.234375 26.265625 9.515625 29.90625 
Q 5.8125 33.546875 5.8125 39.890625 
Q 5.8125 47.609375 11.28125 51.796875 
Q 16.75 56 26.8125 56 
Q 31.78125 56 36.171875 55.265625 
Q 40.578125 54.546875 44.28125 53.078125 
z
" id="DejaVuSans-115"/>
       <path d="M 18.3125 70.21875 
L 18.3125 54.6875 
L 36.8125 54.6875 
L 36.8125 47.703125 
L 18.3125 47.703125 
L 18.3125 18.015625 
Q 18.3125 11.328125 20.140625 9.421875 
Q 21.96875 7.515625 27.59375 7.515625 
L 36.8125 7.515625 
L 36.8125 0 
L 27.59375 0 
Q 17.1875 0 13.234375 3.875 
Q 9.28125 7.765625 9.28125 18.015625 
L 9.28125 47.703125 
L 2.6875 47.703125 
L 2.6875 54.6875 
L 9.28125 54.6875 
L 9.28125 70.21875 
z
" id="DejaVuSans-116"/>
       <path d="M 56.203125 29.59375 
L 56.203125 25.203125 
L 14.890625 25.203125 
Q 15.484375 15.921875 20.484375 11.0625 
Q 25.484375 6.203125 34.421875 6.203125 
Q 39.59375 6.203125 44.453125 7.46875 
Q 49.3125 8.734375 54.109375 11.28125 
L 54.109375 2.78125 
Q 49.265625 0.734375 44.1875 -0.34375 
Q 39.109375 -1.421875 33.890625 -1.421875 
Q 20.796875 -1.421875 13.15625 6.1875 
Q 5.515625 13.8125 5.515625 26.8125 
Q 5.515625 40.234375 12.765625 48.109375 
Q 20.015625 56 32.328125 56 
Q 43.359375 56 49.78125 48.890625 
Q 56.203125 41.796875 56.203125 29.59375 
z
M 47.21875 32.234375 
Q 47.125 39.59375 43.09375 43.984375 
Q 39.0625 48.390625 32.421875 48.390625 
Q 24.90625 48.390625 20.390625 44.140625 
Q 15.875 39.890625 15.1875 32.171875 
z
" id="DejaVuSans-101"/>
       <path d="M 41.109375 46.296875 
Q 39.59375 47.171875 37.8125 47.578125 
Q 36.03125 48 33.890625 48 
Q 26.265625 48 22.1875 43.046875 
Q 18.109375 38.09375 18.109375 28.8125 
L 18.109375 0 
L 9.078125 0 
L 9.078125 54.6875 
L 18.109375 54.6875 
L 18.109375 46.1875 
Q 20.953125 51.171875 25.484375 53.578125 
Q 30.03125 56 36.53125 56 
Q 37.453125 56 38.578125 55.875 
Q 39.703125 55.765625 41.0625 55.515625 
z
" id="DejaVuSans-114"/>
       <path d="M 9.421875 54.6875 
L 18.40625 54.6875 
L 18.40625 0 
L 9.421875 0 
z
M 9.421875 75.984375 
L 18.40625 75.984375 
L 18.40625 64.59375 
L 9.421875 64.59375 
z
" id="DejaVuSans-105"/>
      </defs>
      <use xlink:href="#DejaVuSans-80"/>
      <use x="56.677734" xlink:href="#DejaVuSans-111"/>
      <use x="117.859375" xlink:href="#DejaVuSans-115"/>
      <use x="169.958984" xlink:href="#DejaVuSans-116"/>
      <use x="209.167969" xlink:href="#DejaVuSans-101"/>
      <use x="270.691406" xlink:href="#DejaVuSans-114"/>
      <use x="311.804688" xlink:href="#DejaVuSans-105"/>
      <use x="339.587891" xlink:href="#DejaVuSans-111"/>
      <use x="400.769531" xlink:href="#DejaVuSans-114"/>
     </g>
    </g>
   </g>
   <g id="line2d_10">
    <path clip-path="url(#p05086c7258)" d="M 44.55 147.954948 
L 50.298997 141.231873 
L 53.652578 137.697314 
L 56.527076 134.986137 
L 59.401575 132.567776 
L 62.276073 130.428499 
L 65.150571 128.568057 
L 68.02507 127.005534 
L 70.420485 125.949609 
L 72.8159 125.125898 
L 75.211315 124.527429 
L 78.085814 124.072943 
L 80.960312 123.846622 
L 84.792977 123.784951 
L 89.583807 123.944545 
L 94.374638 124.312955 
L 99.165468 124.907764 
L 103.956299 125.72159 
L 109.705295 126.925249 
L 121.203289 129.412957 
L 125.035953 129.937033 
L 128.868618 130.208733 
L 133.659448 130.284911 
L 141.324777 130.382905 
L 146.594691 130.715207 
L 162.404431 132.075853 
L 165.27893 132.616206 
L 167.674345 133.290125 
L 170.06976 134.220112 
L 172.465176 135.443669 
L 174.860591 136.983292 
L 177.256006 138.84303 
L 179.651421 141.004648 
L 182.52592 143.933271 
L 186.837667 148.72976 
L 187.795833 149.810797 
L 187.795833 149.810797 
" style="fill:none;stroke:#1f77b4;stroke-linecap:square;stroke-width:1.5;"/>
   </g>
   <g id="line2d_11">
    <path clip-path="url(#p05086c7258)" d="M 101.848333 170.4 
L 101.848333 34.6 
" style="fill:none;stroke:#808080;stroke-dasharray:1.5,2.475;stroke-dashoffset:0;stroke-width:1.5;"/>
   </g>
   <g id="line2d_12">
    <path clip-path="url(#p05086c7258)" d="M 44.55 147.802019 
L 51.736246 137.882198 
L 54.131661 135.011987 
L 56.527076 132.531834 
L 58.443409 130.853896 
L 60.359741 129.447984 
L 62.276073 128.30065 
L 64.192405 127.391359 
L 66.108737 126.697104 
L 68.504153 126.097676 
L 70.899568 125.758861 
L 73.294983 125.640788 
L 76.169482 125.725529 
L 80.960312 126.145812 
L 85.27206 126.428874 
L 88.146558 126.402927 
L 91.500139 126.120575 
L 96.770053 125.368262 
L 100.602717 124.918818 
L 103.477216 124.785856 
L 106.351714 124.85987 
L 110.184378 125.213544 
L 118.32879 126.091324 
L 122.161455 126.246765 
L 136.054863 126.540801 
L 140.366611 127.05793 
L 145.157441 127.874145 
L 150.906438 129.074967 
L 155.697269 130.27834 
L 159.05085 131.328814 
L 161.925348 132.449985 
L 164.799847 133.839083 
L 167.195262 135.232696 
L 169.590677 136.852187 
L 172.465176 139.085832 
L 175.339674 141.602156 
L 179.172338 145.289666 
L 187.795833 153.86729 
L 187.795833 153.86729 
" style="fill:none;stroke:#ff7f0e;stroke-linecap:square;stroke-width:1.5;"/>
   </g>
   <g id="line2d_13">
    <path clip-path="url(#p05086c7258)" d="M 101.848333 170.4 
L 101.848333 34.6 
" style="fill:none;stroke:#808080;stroke-dasharray:1.5,2.475;stroke-dashoffset:0;stroke-width:1.5;"/>
   </g>
   <g id="line2d_14">
    <path clip-path="url(#p05086c7258)" d="M 44.55 148.079521 
L 49.819914 141.358254 
L 52.694412 138.08164 
L 55.089827 135.686536 
L 57.485242 133.612108 
L 59.880658 131.824641 
L 62.755156 129.956876 
L 72.8159 123.702128 
L 79.523063 119.238819 
L 81.918478 117.967472 
L 83.83481 117.192865 
L 85.751143 116.670767 
L 87.667475 116.412336 
L 89.583807 116.406231 
L 91.500139 116.62129 
L 93.895555 117.130408 
L 97.249136 118.100596 
L 102.51905 119.642035 
L 105.872631 120.379626 
L 109.226212 120.892286 
L 114.496126 121.436048 
L 121.203289 122.162525 
L 126.473202 122.969097 
L 130.78495 123.835374 
L 135.096697 124.932306 
L 138.929362 126.125999 
L 142.762026 127.55896 
L 146.115608 129.068408 
L 148.990106 130.606497 
L 151.864604 132.399323 
L 155.218186 134.795573 
L 159.529933 138.212765 
L 171.027926 147.505873 
L 176.29784 151.427995 
L 180.609588 154.362101 
L 184.442252 156.708056 
L 187.795833 158.535253 
L 187.795833 158.535253 
" style="fill:none;stroke:#2ca02c;stroke-linecap:square;stroke-width:1.5;"/>
   </g>
   <g id="line2d_15">
    <path clip-path="url(#p05086c7258)" d="M 101.848333 170.4 
L 101.848333 34.6 
" style="fill:none;stroke:#808080;stroke-dasharray:1.5,2.475;stroke-dashoffset:0;stroke-width:1.5;"/>
   </g>
   <g id="line2d_16">
    <path clip-path="url(#p05086c7258)" d="M 44.55 149.80453 
L 48.861747 142.988135 
L 52.215329 137.873679 
L 54.610744 134.596633 
L 57.006159 131.706695 
L 59.401575 129.18344 
L 61.79699 126.958626 
L 64.671488 124.573141 
L 68.02507 122.067962 
L 71.378651 119.835986 
L 74.253149 118.191659 
L 76.648565 117.062129 
L 79.04398 116.187348 
L 81.439395 115.582435 
L 83.83481 115.236329 
L 86.230226 115.110554 
L 89.583807 115.19197 
L 104.435382 115.949301 
L 109.226212 115.792736 
L 114.496126 115.618486 
L 116.891541 115.752597 
L 118.807873 116.046386 
L 120.724206 116.547484 
L 122.640538 117.277435 
L 124.55687 118.238158 
L 126.952285 119.734522 
L 129.826784 121.865613 
L 134.617614 125.799362 
L 139.408445 129.625725 
L 142.762026 132.039363 
L 146.594691 134.502682 
L 151.864604 137.551849 
L 156.655435 140.389244 
L 160.009016 142.655632 
L 163.362598 145.21836 
L 169.111594 150.002833 
L 173.423342 153.437219 
L 176.776923 155.794002 
L 179.651421 157.555955 
L 182.52592 159.087877 
L 185.879501 160.602613 
L 187.795833 161.339212 
L 187.795833 161.339212 
" style="fill:none;stroke:#d62728;stroke-linecap:square;stroke-width:1.5;"/>
   </g>
   <g id="line2d_17">
    <path clip-path="url(#p05086c7258)" d="M 101.848333 170.4 
L 101.848333 34.6 
" style="fill:none;stroke:#808080;stroke-dasharray:1.5,2.475;stroke-dashoffset:0;stroke-width:1.5;"/>
   </g>
   <g id="line2d_18">
    <path clip-path="url(#p05086c7258)" d="M 44.55 147.312323 
L 51.257163 136.582725 
L 54.131661 132.51886 
L 56.527076 129.48874 
L 58.922492 126.77844 
L 61.317907 124.36469 
L 64.192405 121.815489 
L 67.066904 119.589477 
L 69.941402 117.634108 
L 72.8159 115.915943 
L 75.690399 114.420351 
L 79.04398 112.937027 
L 82.876644 111.523168 
L 86.709309 110.349906 
L 89.583807 109.677493 
L 91.979222 109.338839 
L 93.895555 109.263646 
L 95.811887 109.386265 
L 97.728219 109.70503 
L 100.123634 110.337421 
L 103.477216 111.49471 
L 112.579794 114.981261 
L 115.933375 116.509431 
L 119.286957 118.310134 
L 123.598704 120.936063 
L 131.264033 125.930703 
L 138.929362 131.157226 
L 146.115608 136.295375 
L 150.427355 139.627961 
L 154.26002 142.86927 
L 160.009016 148.088367 
L 164.799847 152.315966 
L 168.153428 154.98168 
L 171.027926 157.016326 
L 173.902425 158.804082 
L 176.776923 160.332017 
L 179.651421 161.583826 
L 182.046837 162.408548 
L 184.921335 163.143609 
L 187.795833 163.632749 
L 187.795833 163.632749 
" style="fill:none;stroke:#9467bd;stroke-linecap:square;stroke-width:1.5;"/>
   </g>
   <g id="line2d_19">
    <path clip-path="url(#p05086c7258)" d="M 101.848333 170.4 
L 101.848333 34.6 
" style="fill:none;stroke:#808080;stroke-dasharray:1.5,2.475;stroke-dashoffset:0;stroke-width:1.5;"/>
   </g>
   <g id="line2d_20">
    <path clip-path="url(#p05086c7258)" d="M 44.55 151.798567 
L 48.382664 145.532096 
L 51.736246 140.210588 
L 54.131661 136.776566 
L 57.006159 133.088163 
L 60.838824 128.621647 
L 64.671488 124.085495 
L 67.066904 120.930619 
L 69.462319 117.431159 
L 73.294983 111.337539 
L 76.169482 106.935655 
L 78.085814 104.41831 
L 79.523063 102.858044 
L 80.960312 101.619877 
L 82.397561 100.712763 
L 83.83481 100.121074 
L 85.27206 99.810214 
L 86.709309 99.734855 
L 88.625641 99.919859 
L 90.541973 100.346514 
L 92.937389 101.13203 
L 95.332804 102.155048 
L 98.207302 103.663325 
L 102.998133 106.551081 
L 106.351714 108.436222 
L 109.226212 109.776871 
L 113.53796 111.45953 
L 116.891541 112.871948 
L 119.286957 114.123638 
L 121.682372 115.625391 
L 124.55687 117.701663 
L 129.347701 121.487846 
L 133.180365 124.741332 
L 135.57578 127.0377 
L 137.971196 129.667057 
L 140.366611 132.677647 
L 143.241109 136.732739 
L 151.385521 148.664332 
L 153.780936 151.591176 
L 155.697269 153.592477 
L 157.613601 155.277791 
L 159.529933 156.666239 
L 161.446265 157.802016 
L 163.841681 158.957592 
L 167.195262 160.287572 
L 171.986093 161.916408 
L 175.339674 162.851203 
L 178.214172 163.445748 
L 181.088671 163.835168 
L 184.921335 164.099873 
L 187.795833 164.180501 
L 187.795833 164.180501 
" style="fill:none;stroke:#8c564b;stroke-linecap:square;stroke-width:1.5;"/>
   </g>
   <g id="line2d_21">
    <path clip-path="url(#p05086c7258)" d="M 101.848333 170.4 
L 101.848333 34.6 
" style="fill:none;stroke:#808080;stroke-dasharray:1.5,2.475;stroke-dashoffset:0;stroke-width:1.5;"/>
   </g>
   <g id="line2d_22">
    <path clip-path="url(#p05086c7258)" d="M 44.55 156.543243 
L 46.945415 153.842157 
L 49.819914 150.210185 
L 52.215329 146.859224 
L 54.610744 143.178531 
L 57.485242 138.318325 
L 61.317907 131.303098 
L 66.108737 122.549208 
L 69.462319 116.928797 
L 72.8159 111.766526 
L 76.169482 106.973435 
L 79.04398 103.246424 
L 80.960312 101.060781 
L 82.876644 99.177049 
L 84.792977 97.611948 
L 86.709309 96.340594 
L 88.625641 95.309207 
L 91.021056 94.272518 
L 93.416472 93.46503 
L 95.811887 92.909597 
L 97.728219 92.697515 
L 99.644551 92.739716 
L 101.0818 92.961707 
L 102.51905 93.362402 
L 103.956299 93.953493 
L 105.393548 94.743492 
L 106.830797 95.735812 
L 108.747129 97.366778 
L 110.663462 99.324577 
L 112.579794 101.572437 
L 114.975209 104.741397 
L 117.370624 108.266782 
L 120.724206 113.644273 
L 124.55687 119.764303 
L 126.473202 122.479498 
L 128.389535 124.840885 
L 130.305867 126.860154 
L 133.180365 129.47812 
L 136.533946 132.530372 
L 138.929362 135.069022 
L 141.324777 138.01448 
L 144.199275 141.992567 
L 150.427355 150.86346 
L 152.82277 153.799985 
L 154.739103 155.814756 
L 156.655435 157.517524 
L 158.571767 158.931929 
L 160.488099 160.102167 
L 162.883514 161.291559 
L 165.27893 162.235681 
L 167.674345 162.963978 
L 170.06976 163.490533 
L 172.944259 163.888093 
L 176.29784 164.11442 
L 181.567754 164.214572 
L 187.795833 164.226817 
L 187.795833 164.226817 
" style="fill:none;stroke:#e377c2;stroke-linecap:square;stroke-width:1.5;"/>
   </g>
   <g id="line2d_23">
    <path clip-path="url(#p05086c7258)" d="M 101.848333 170.4 
L 101.848333 34.6 
" style="fill:none;stroke:#808080;stroke-dasharray:1.5,2.475;stroke-dashoffset:0;stroke-width:1.5;"/>
   </g>
   <g id="line2d_24">
    <path clip-path="url(#p05086c7258)" d="M 44.55 160.792336 
L 46.466332 159.684756 
L 48.382664 158.317842 
L 50.298997 156.620143 
L 51.736246 155.082123 
L 53.173495 153.283632 
L 54.610744 151.203868 
L 56.527076 147.982907 
L 58.443409 144.278194 
L 60.838824 139.090067 
L 64.671488 130.086451 
L 68.504153 121.21709 
L 70.899568 116.156883 
L 73.294983 111.602288 
L 75.690399 107.551658 
L 78.085814 103.952692 
L 80.481229 100.763039 
L 82.876644 97.973487 
L 85.27206 95.575198 
L 87.667475 93.512078 
L 90.541973 91.331287 
L 93.895555 89.034387 
L 96.29097 87.640059 
L 97.728219 87.001972 
L 99.165468 86.592066 
L 100.602717 86.477324 
L 101.560884 86.593487 
L 102.51905 86.878305 
L 103.477216 87.338278 
L 104.914465 88.355409 
L 106.351714 89.738857 
L 107.788963 91.431405 
L 109.705295 94.030324 
L 117.849707 105.582981 
L 126.473202 116.959424 
L 128.868618 120.62297 
L 131.743116 125.485946 
L 135.57578 132.557358 
L 139.887528 140.485119 
L 142.282943 144.497137 
L 144.678358 148.116055 
L 147.073774 151.34678 
L 149.469189 154.202242 
L 151.385521 156.187042 
L 153.301853 157.841281 
L 154.739103 158.818766 
L 156.176352 159.539621 
L 157.613601 159.990967 
L 159.05085 160.18187 
L 160.488099 160.147403 
L 162.404431 159.858085 
L 166.237096 159.181626 
L 167.674345 159.131901 
L 169.111594 159.265929 
L 170.548843 159.586127 
L 172.465176 160.251241 
L 179.651421 163.11799 
L 182.046837 163.661475 
L 184.442252 163.972415 
L 187.795833 164.159561 
L 187.795833 164.159561 
" style="fill:none;stroke:#7f7f7f;stroke-linecap:square;stroke-width:1.5;"/>
   </g>
   <g id="line2d_25">
    <path clip-path="url(#p05086c7258)" d="M 101.848333 170.4 
L 101.848333 34.6 
" style="fill:none;stroke:#808080;stroke-dasharray:1.5,2.475;stroke-dashoffset:0;stroke-width:1.5;"/>
   </g>
   <g id="line2d_26">
    <path clip-path="url(#p05086c7258)" d="M 44.55 158.526927 
L 46.466332 156.522683 
L 48.382664 154.198842 
L 50.77808 150.883968 
L 53.173495 147.187879 
L 57.006159 140.794183 
L 62.276073 132.01191 
L 65.150571 127.60663 
L 68.02507 123.599977 
L 75.211315 114.002326 
L 77.127648 110.852184 
L 79.04398 107.286165 
L 81.918478 101.38621 
L 85.27206 94.501528 
L 87.188392 90.988221 
L 89.104724 87.980143 
L 90.541973 86.113286 
L 91.979222 84.605646 
L 93.416472 83.467523 
L 94.853721 82.698702 
L 96.29097 82.2878 
L 97.728219 82.210824 
L 99.165468 82.430765 
L 100.602717 82.900121 
L 102.51905 83.825487 
L 104.435382 85.001979 
L 106.830797 86.769524 
L 108.747129 88.477482 
L 110.184378 89.997746 
L 111.621628 91.774707 
L 113.058877 93.838289 
L 114.975209 97.037009 
L 116.891541 100.674313 
L 120.245123 107.638583 
L 124.55687 116.517377 
L 127.431368 121.929993 
L 130.78495 127.774061 
L 137.492113 139.288674 
L 141.80386 147.301659 
L 144.678358 152.471492 
L 146.594691 155.451565 
L 148.03194 157.300958 
L 149.469189 158.765203 
L 150.906438 159.83799 
L 152.343687 160.554236 
L 153.780936 160.983065 
L 155.697269 161.26421 
L 160.967182 161.812156 
L 163.841681 162.432071 
L 168.632511 163.51828 
L 171.507009 163.918653 
L 174.860591 164.137386 
L 180.609588 164.221672 
L 187.795833 164.227219 
L 187.795833 164.227219 
" style="fill:none;stroke:#bcbd22;stroke-linecap:square;stroke-width:1.5;"/>
   </g>
   <g id="line2d_27">
    <path clip-path="url(#p05086c7258)" d="M 101.848333 170.4 
L 101.848333 34.6 
" style="fill:none;stroke:#808080;stroke-dasharray:1.5,2.475;stroke-dashoffset:0;stroke-width:1.5;"/>
   </g>
   <g id="line2d_28">
    <path clip-path="url(#p05086c7258)" d="M 44.55 161.605734 
L 46.466332 160.576153 
L 48.382664 159.288213 
L 50.298997 157.719463 
L 52.694412 155.396522 
L 56.047993 151.723512 
L 60.838824 146.158193 
L 63.234239 143.011774 
L 65.150571 140.054361 
L 66.587821 137.478647 
L 68.02507 134.54861 
L 69.941402 130.064381 
L 71.857734 124.940144 
L 74.253149 117.733089 
L 77.127648 108.176933 
L 81.918478 91.960675 
L 83.355727 87.736193 
L 84.792977 84.115936 
L 86.230226 81.20975 
L 87.188392 79.684935 
L 88.146558 78.473438 
L 89.104724 77.540227 
L 90.06289 76.835483 
L 91.500139 76.075826 
L 96.770053 73.72608 
L 99.644551 72.243847 
L 101.0818 71.789956 
L 102.039967 71.695347 
L 102.998133 71.806459 
L 103.956299 72.144961 
L 104.914465 72.721351 
L 105.872631 73.536006 
L 106.830797 74.581117 
L 108.268046 76.549939 
L 109.705295 78.946752 
L 111.621628 82.702137 
L 113.53796 86.988626 
L 115.933375 92.992272 
L 118.32879 99.676333 
L 121.203289 108.504593 
L 127.431368 128.091824 
L 129.347701 133.17926 
L 130.78495 136.4862 
L 132.222199 139.351623 
L 133.659448 141.817741 
L 135.57578 144.598536 
L 137.492113 146.928306 
L 139.408445 148.878633 
L 141.324777 150.464357 
L 143.241109 151.72361 
L 148.990106 155.151564 
L 150.906438 156.715618 
L 156.176352 161.300057 
L 157.613601 162.232723 
L 159.05085 162.94579 
L 160.488099 163.452009 
L 162.404431 163.866688 
L 164.799847 164.10875 
L 168.632511 164.213405 
L 184.921335 164.227273 
L 187.795833 164.227273 
L 187.795833 164.227273 
" style="fill:none;stroke:#17becf;stroke-linecap:square;stroke-width:1.5;"/>
   </g>
   <g id="line2d_29">
    <path clip-path="url(#p05086c7258)" d="M 101.848333 170.4 
L 101.848333 34.6 
" style="fill:none;stroke:#808080;stroke-dasharray:1.5,2.475;stroke-dashoffset:0;stroke-width:1.5;"/>
   </g>
   <g id="line2d_30">
    <path clip-path="url(#p05086c7258)" d="M 44.55 164.18313 
L 47.424498 164.009271 
L 49.340831 163.683494 
L 50.77808 163.227581 
L 52.215329 162.502719 
L 53.652578 161.429534 
L 55.089827 159.947989 
L 56.527076 158.03767 
L 57.964326 155.731828 
L 59.880658 152.198916 
L 70.899568 130.605473 
L 72.8159 126.09652 
L 75.211315 119.908488 
L 78.085814 111.884831 
L 80.960312 103.163972 
L 83.83481 93.683101 
L 87.667475 81.026685 
L 89.583807 75.514014 
L 91.021056 71.993897 
L 92.458305 69.06883 
L 93.895555 66.748533 
L 94.853721 65.528374 
L 95.811887 64.559532 
L 96.770053 63.834182 
L 97.728219 63.347301 
L 98.686385 63.097692 
L 99.644551 63.088162 
L 100.602717 63.324887 
L 101.560884 63.81609 
L 102.51905 64.570177 
L 103.477216 65.59354 
L 104.435382 66.888254 
L 105.872631 69.327252 
L 107.30988 72.313877 
L 109.226212 76.968248 
L 115.454292 92.897855 
L 117.370624 96.862799 
L 119.76604 101.245091 
L 122.640538 106.532752 
L 124.55687 110.531765 
L 126.473202 115.055083 
L 128.868618 121.422578 
L 132.222199 131.230394 
L 135.096697 139.392957 
L 136.533946 142.933973 
L 137.971196 145.945445 
L 139.408445 148.402782 
L 140.845694 150.369259 
L 142.282943 151.966715 
L 144.199275 153.758003 
L 149.469189 158.202795 
L 152.343687 160.464709 
L 154.26002 161.739145 
L 156.176352 162.731739 
L 158.092684 163.419145 
L 160.009016 163.837998 
L 162.404431 164.095574 
L 166.237096 164.211867 
L 181.088671 164.227273 
L 187.795833 164.227273 
L 187.795833 164.227273 
" style="fill:none;stroke:#1f77b4;stroke-linecap:square;stroke-width:1.5;"/>
   </g>
   <g id="line2d_31">
    <path clip-path="url(#p05086c7258)" d="M 101.848333 170.4 
L 101.848333 34.6 
" style="fill:none;stroke:#808080;stroke-dasharray:1.5,2.475;stroke-dashoffset:0;stroke-width:1.5;"/>
   </g>
   <g id="line2d_32">
    <path clip-path="url(#p05086c7258)" d="M 44.55 164.078947 
L 46.466332 163.847246 
L 47.903581 163.515287 
L 49.340831 162.977255 
L 50.77808 162.166443 
L 52.215329 161.028332 
L 53.652578 159.535964 
L 55.089827 157.69925 
L 57.006159 154.793769 
L 59.401575 150.632282 
L 62.276073 145.102426 
L 65.150571 139.032317 
L 69.462319 129.232633 
L 75.211315 115.804061 
L 77.606731 109.577513 
L 79.523063 104.040621 
L 81.918478 96.318252 
L 84.792977 86.089549 
L 88.146558 74.255678 
L 89.583807 69.905803 
L 91.021056 66.343946 
L 91.979222 64.496449 
L 92.937389 63.105361 
L 93.895555 62.175454 
L 94.853721 61.689314 
L 95.811887 61.609996 
L 96.770053 61.885766 
L 97.728219 62.456311 
L 98.686385 63.259606 
L 100.123634 64.77877 
L 102.039967 67.183001 
L 103.956299 69.904364 
L 105.872631 72.993241 
L 107.788963 76.558039 
L 109.705295 80.632781 
L 112.100711 86.311149 
L 117.370624 99.697879 
L 120.724206 107.867738 
L 128.868618 127.054304 
L 131.743116 134.809999 
L 135.57578 145.276478 
L 137.492113 149.82534 
L 138.929362 152.657373 
L 140.366611 154.893623 
L 141.324777 156.038402 
L 142.282943 156.913456 
L 143.241109 157.537645 
L 144.199275 157.939903 
L 145.157441 158.157768 
L 146.594691 158.237224 
L 150.427355 158.165549 
L 151.864604 158.425646 
L 153.301853 158.940568 
L 155.218186 159.955916 
L 159.529933 162.487825 
L 161.446265 163.268996 
L 163.362598 163.761181 
L 165.27893 164.027374 
L 168.153428 164.183002 
L 174.860591 164.226843 
L 187.795833 164.227273 
L 187.795833 164.227273 
" style="fill:none;stroke:#ff7f0e;stroke-linecap:square;stroke-width:1.5;"/>
   </g>
   <g id="line2d_33">
    <path clip-path="url(#p05086c7258)" d="M 101.848333 170.4 
L 101.848333 34.6 
" style="fill:none;stroke:#808080;stroke-dasharray:1.5,2.475;stroke-dashoffset:0;stroke-width:1.5;"/>
   </g>
   <g id="line2d_34">
    <path clip-path="url(#p05086c7258)" d="M 44.55 163.517639 
L 46.466332 162.869799 
L 48.382664 161.934737 
L 50.298997 160.742635 
L 52.694412 158.950427 
L 54.610744 157.254209 
L 56.527076 155.255944 
L 58.443409 152.938399 
L 61.79699 148.420889 
L 66.587821 141.700971 
L 68.504153 138.529618 
L 69.941402 135.706301 
L 71.378651 132.389916 
L 72.8159 128.518554 
L 74.253149 124.062435 
L 76.169482 117.213245 
L 78.085814 109.42305 
L 80.960312 96.533437 
L 86.709309 70.255541 
L 88.625641 62.440937 
L 90.06289 57.405954 
L 91.021056 54.599829 
L 91.979222 52.319004 
L 92.937389 50.613399 
L 93.895555 49.505504 
L 94.374638 49.174495 
L 94.853721 48.987719 
L 95.332804 48.93968 
L 95.811887 49.023301 
L 96.770053 49.55047 
L 97.728219 50.488971 
L 98.686385 51.748392 
L 100.123634 54.041836 
L 102.998133 59.243332 
L 105.393548 63.893977 
L 106.830797 67.044533 
L 108.268046 70.680498 
L 109.705295 74.901359 
L 111.621628 81.353393 
L 117.849707 103.36564 
L 126.473202 130.952443 
L 128.868618 137.985154 
L 130.78495 142.90447 
L 132.222199 146.108029 
L 133.659448 148.873173 
L 135.096697 151.200073 
L 136.533946 153.109694 
L 137.971196 154.643721 
L 139.408445 155.858952 
L 140.845694 156.820686 
L 142.762026 157.833259 
L 148.511023 160.623881 
L 152.343687 162.635033 
L 154.26002 163.358754 
L 156.176352 163.817502 
L 158.571767 164.097555 
L 161.925348 164.209944 
L 174.381508 164.227273 
L 187.795833 164.227273 
L 187.795833 164.227273 
" style="fill:none;stroke:#2ca02c;stroke-linecap:square;stroke-width:1.5;"/>
   </g>
   <g id="line2d_35">
    <path clip-path="url(#p05086c7258)" d="M 101.848333 170.4 
L 101.848333 34.6 
" style="fill:none;stroke:#808080;stroke-dasharray:1.5,2.475;stroke-dashoffset:0;stroke-width:1.5;"/>
   </g>
   <g id="line2d_36">
    <path clip-path="url(#p05086c7258)" d="M 44.55 164.226696 
L 51.736246 164.111155 
L 53.652578 163.88811 
L 55.089827 163.535193 
L 56.527076 162.917349 
L 57.485242 162.302167 
L 58.443409 161.484557 
L 59.401575 160.434448 
L 60.359741 159.129104 
L 61.79699 156.667702 
L 63.234239 153.610345 
L 64.671488 150.012849 
L 66.587821 144.537112 
L 69.462319 135.414118 
L 75.690399 115.357581 
L 80.002146 101.483977 
L 83.355727 89.77 
L 88.625641 70.919964 
L 90.06289 66.472358 
L 91.500139 62.715541 
L 92.458305 60.674429 
L 93.416472 59.03495 
L 94.374638 57.80289 
L 95.332804 56.96839 
L 96.29097 56.51085 
L 97.249136 56.404611 
L 98.207302 56.623964 
L 99.165468 57.146338 
L 100.123634 57.953053 
L 101.0818 59.027731 
L 102.51905 61.103023 
L 103.956299 63.658898 
L 105.872631 67.590997 
L 110.184378 76.660898 
L 112.100711 80.093247 
L 114.975209 84.620668 
L 116.891541 87.763376 
L 118.32879 90.542261 
L 119.76604 93.899504 
L 121.203289 97.959837 
L 122.640538 102.754733 
L 124.55687 110.163247 
L 127.431368 122.588185 
L 130.305867 134.783347 
L 131.743116 140.137728 
L 133.180365 144.728034 
L 134.617614 148.445951 
L 135.57578 150.424918 
L 136.533946 152.018545 
L 137.492113 153.258296 
L 138.450279 154.192102 
L 139.408445 154.882552 
L 140.845694 155.623783 
L 143.720192 156.948503 
L 145.157441 157.86243 
L 147.073774 159.374606 
L 149.948272 161.692738 
L 151.385521 162.602469 
L 152.82277 163.268868 
L 154.26002 163.707788 
L 156.176352 164.026259 
L 158.571767 164.177794 
L 164.320764 164.22663 
L 187.795833 164.227273 
L 187.795833 164.227273 
" style="fill:none;stroke:#d62728;stroke-linecap:square;stroke-width:1.5;"/>
   </g>
   <g id="line2d_37">
    <path clip-path="url(#p05086c7258)" d="M 101.848333 170.4 
L 101.848333 34.6 
" style="fill:none;stroke:#808080;stroke-dasharray:1.5,2.475;stroke-dashoffset:0;stroke-width:1.5;"/>
   </g>
   <g id="line2d_38">
    <path clip-path="url(#p05086c7258)" d="M 44.55 164.227135 
L 51.736246 164.136845 
L 53.652578 163.912209 
L 55.089827 163.52251 
L 56.047993 163.093866 
L 57.006159 162.490798 
L 57.964326 161.690282 
L 59.401575 160.115817 
L 60.838824 158.175918 
L 64.192405 153.122693 
L 66.108737 149.976215 
L 67.545987 147.051923 
L 68.504153 144.645077 
L 69.941402 140.230729 
L 71.378651 134.964241 
L 75.690399 118.275673 
L 77.127648 113.668584 
L 79.04398 108.335557 
L 81.439395 101.750647 
L 82.876644 97.05324 
L 84.313894 91.414543 
L 85.751143 84.810224 
L 88.625641 70.023331 
L 90.541973 60.752142 
L 91.979222 54.929015 
L 93.416472 50.301099 
L 94.374638 47.862921 
L 95.332804 45.888012 
L 96.29097 44.320929 
L 97.249136 43.114138 
L 98.207302 42.234569 
L 99.165468 41.662714 
L 100.123634 41.387237 
L 101.0818 41.399622 
L 102.039967 41.692738 
L 102.998133 42.264664 
L 103.956299 43.125875 
L 104.914465 44.305448 
L 105.872631 45.851682 
L 106.830797 47.824531 
L 107.788963 50.280771 
L 108.747129 53.256171 
L 110.184378 58.680881 
L 111.621628 65.088116 
L 114.017043 77.019069 
L 117.849707 96.08505 
L 120.245123 106.776943 
L 122.640538 116.429032 
L 126.952285 133.566785 
L 129.347701 143.071325 
L 130.78495 147.879664 
L 131.743116 150.462495 
L 132.701282 152.492451 
L 133.659448 153.994861 
L 134.617614 155.049517 
L 135.57578 155.770604 
L 137.01303 156.498765 
L 139.408445 157.606056 
L 140.845694 158.500064 
L 143.241109 160.341152 
L 145.636525 162.121165 
L 147.073774 162.935993 
L 148.511023 163.509098 
L 149.948272 163.866309 
L 151.864604 164.10466 
L 155.218186 164.21558 
L 170.548843 164.227273 
L 187.795833 164.227273 
L 187.795833 164.227273 
" style="fill:none;stroke:#9467bd;stroke-linecap:square;stroke-width:1.5;"/>
   </g>
   <g id="line2d_39">
    <path clip-path="url(#p05086c7258)" d="M 101.848333 170.4 
L 101.848333 34.6 
" style="fill:none;stroke:#808080;stroke-dasharray:1.5,2.475;stroke-dashoffset:0;stroke-width:1.5;"/>
   </g>
   <g id="line2d_40">
    <path clip-path="url(#p05086c7258)" d="M 44.55 164.227242 
L 53.173495 164.137718 
L 55.089827 163.918331 
L 56.527076 163.532538 
L 57.485242 163.097565 
L 58.443409 162.464979 
L 59.401575 161.585449 
L 60.359741 160.414078 
L 61.317907 158.916263 
L 62.276073 157.072407 
L 63.713322 153.657907 
L 65.150571 149.527151 
L 67.066904 143.13564 
L 70.420485 130.740574 
L 73.294983 120.448562 
L 75.690399 112.73193 
L 80.960312 96.385383 
L 82.876644 89.527381 
L 85.27206 80.016193 
L 90.06289 60.527165 
L 91.979222 53.662686 
L 93.416472 49.315374 
L 94.374638 46.938827 
L 95.332804 45.046987 
L 96.29097 43.666892 
L 97.249136 42.793488 
L 98.207302 42.392932 
L 99.165468 42.410586 
L 100.123634 42.780534 
L 101.0818 43.434641 
L 102.51905 44.817236 
L 103.956299 46.568438 
L 105.393548 48.693406 
L 106.830797 51.362437 
L 107.788963 53.58154 
L 108.747129 56.252439 
L 109.705295 59.437818 
L 111.142545 65.222458 
L 112.579794 72.097704 
L 114.975209 85.013644 
L 117.849707 100.311986 
L 119.76604 109.340155 
L 122.161455 119.460057 
L 125.035953 130.655993 
L 127.431368 139.278584 
L 129.347701 145.553491 
L 130.78495 149.737202 
L 132.222199 153.284759 
L 133.180365 155.218004 
L 134.138531 156.783603 
L 135.096697 158.001742 
L 136.054863 158.926914 
L 137.492113 159.936255 
L 140.366611 161.465409 
L 143.720192 163.064302 
L 145.636525 163.677303 
L 147.552857 164.014966 
L 149.948272 164.179024 
L 155.218186 164.226688 
L 187.795833 164.227273 
L 187.795833 164.227273 
" style="fill:none;stroke:#8c564b;stroke-linecap:square;stroke-width:1.5;"/>
   </g>
   <g id="line2d_41">
    <path clip-path="url(#p05086c7258)" d="M 101.848333 170.4 
L 101.848333 34.6 
" style="fill:none;stroke:#808080;stroke-dasharray:1.5,2.475;stroke-dashoffset:0;stroke-width:1.5;"/>
   </g>
   <g id="line2d_42">
    <path clip-path="url(#p05086c7258)" d="M 44.55 164.22726 
L 54.610744 164.122137 
L 56.527076 163.891364 
L 57.964326 163.507398 
L 58.922492 163.088496 
L 59.880658 162.492705 
L 60.838824 161.678769 
L 61.79699 160.608359 
L 62.755156 159.249841 
L 63.713322 157.581285 
L 65.150571 154.477333 
L 66.587821 150.667421 
L 68.02507 146.211474 
L 69.941402 139.41228 
L 71.857734 131.789728 
L 74.253149 121.20153 
L 77.127648 107.16115 
L 80.002146 93.093977 
L 81.918478 84.848549 
L 83.355727 79.512613 
L 85.27206 73.341896 
L 94.374638 46.355396 
L 95.332804 44.087701 
L 96.29097 42.323337 
L 97.249136 41.188174 
L 97.728219 40.886701 
L 98.207302 40.772727 
L 98.686385 40.849328 
L 99.165468 41.115669 
L 99.644551 41.566929 
L 100.602717 42.985655 
L 101.560884 44.99459 
L 102.998133 48.775205 
L 107.30988 60.994477 
L 112.579794 74.726183 
L 114.975209 82.034347 
L 117.370624 90.093518 
L 119.286957 97.371637 
L 120.724206 103.596022 
L 122.640538 112.978527 
L 126.952285 134.941661 
L 128.389535 141.150049 
L 129.826784 146.532968 
L 131.264033 151.130392 
L 132.701282 154.981653 
L 134.138531 158.085664 
L 135.096697 159.734933 
L 136.054863 161.056523 
L 137.01303 162.073354 
L 137.971196 162.821986 
L 138.929362 163.348165 
L 140.366611 163.826402 
L 141.80386 164.06201 
L 144.199275 164.197291 
L 151.385521 164.227242 
L 187.795833 164.227273 
L 187.795833 164.227273 
" style="fill:none;stroke:#e377c2;stroke-linecap:square;stroke-width:1.5;"/>
   </g>
   <g id="line2d_43">
    <path clip-path="url(#p05086c7258)" d="M 101.848333 170.4 
L 101.848333 34.6 
" style="fill:none;stroke:#808080;stroke-dasharray:1.5,2.475;stroke-dashoffset:0;stroke-width:1.5;"/>
   </g>
   <g id="patch_3">
    <path d="M 44.55 170.4 
L 44.55 34.6 
" style="fill:none;stroke:#000000;stroke-linecap:square;stroke-linejoin:miter;stroke-width:0.8;"/>
   </g>
   <g id="patch_4">
    <path d="M 44.55 170.4 
L 187.795833 170.4 
" style="fill:none;stroke:#000000;stroke-linecap:square;stroke-linejoin:miter;stroke-width:0.8;"/>
   </g>
  </g>
  <g id="axes_2">
   <g id="patch_5">
    <path d="M 262.158333 170.4 
L 405.404167 170.4 
L 405.404167 34.6 
L 262.158333 34.6 
z
" style="fill:#ffffff;"/>
   </g>
   <g id="matplotlib.axis_3">
    <g id="xtick_6">
     <g id="line2d_44">
      <g>
       <use style="stroke:#000000;stroke-width:0.8;" x="262.158333" xlink:href="#m6041b9fb60" y="170.4"/>
      </g>
     </g>
     <g id="text_12">
      <!-- 350 -->
      <g transform="translate(252.614583 184.998437)scale(0.1 -0.1)">
       <use xlink:href="#DejaVuSans-51"/>
       <use x="63.623047" xlink:href="#DejaVuSans-53"/>
       <use x="127.246094" xlink:href="#DejaVuSans-48"/>
      </g>
     </g>
    </g>
    <g id="xtick_7">
     <g id="line2d_45">
      <g>
       <use style="stroke:#000000;stroke-width:0.8;" x="297.969792" xlink:href="#m6041b9fb60" y="170.4"/>
      </g>
     </g>
     <g id="text_13">
      <!-- 375 -->
      <g transform="translate(288.426042 184.998437)scale(0.1 -0.1)">
       <use xlink:href="#DejaVuSans-51"/>
       <use x="63.623047" xlink:href="#DejaVuSans-55"/>
       <use x="127.246094" xlink:href="#DejaVuSans-53"/>
      </g>
     </g>
    </g>
    <g id="xtick_8">
     <g id="line2d_46">
      <g>
       <use style="stroke:#000000;stroke-width:0.8;" x="333.78125" xlink:href="#m6041b9fb60" y="170.4"/>
      </g>
     </g>
     <g id="text_14">
      <!-- 400 -->
      <g transform="translate(324.2375 184.998437)scale(0.1 -0.1)">
       <defs>
        <path d="M 37.796875 64.3125 
L 12.890625 25.390625 
L 37.796875 25.390625 
z
M 35.203125 72.90625 
L 47.609375 72.90625 
L 47.609375 25.390625 
L 58.015625 25.390625 
L 58.015625 17.1875 
L 47.609375 17.1875 
L 47.609375 0 
L 37.796875 0 
L 37.796875 17.1875 
L 4.890625 17.1875 
L 4.890625 26.703125 
z
" id="DejaVuSans-52"/>
       </defs>
       <use xlink:href="#DejaVuSans-52"/>
       <use x="63.623047" xlink:href="#DejaVuSans-48"/>
       <use x="127.246094" xlink:href="#DejaVuSans-48"/>
      </g>
     </g>
    </g>
    <g id="xtick_9">
     <g id="line2d_47">
      <g>
       <use style="stroke:#000000;stroke-width:0.8;" x="369.592708" xlink:href="#m6041b9fb60" y="170.4"/>
      </g>
     </g>
     <g id="text_15">
      <!-- 425 -->
      <g transform="translate(360.048958 184.998437)scale(0.1 -0.1)">
       <use xlink:href="#DejaVuSans-52"/>
       <use x="63.623047" xlink:href="#DejaVuSans-50"/>
       <use x="127.246094" xlink:href="#DejaVuSans-53"/>
      </g>
     </g>
    </g>
    <g id="xtick_10">
     <g id="line2d_48">
      <g>
       <use style="stroke:#000000;stroke-width:0.8;" x="405.404167" xlink:href="#m6041b9fb60" y="170.4"/>
      </g>
     </g>
     <g id="text_16">
      <!-- 450 -->
      <g transform="translate(395.860417 184.998437)scale(0.1 -0.1)">
       <use xlink:href="#DejaVuSans-52"/>
       <use x="63.623047" xlink:href="#DejaVuSans-53"/>
       <use x="127.246094" xlink:href="#DejaVuSans-48"/>
      </g>
     </g>
    </g>
    <g id="text_17">
     <!-- $\theta_1$ -->
     <g transform="translate(328.33125 198.676562)scale(0.1 -0.1)">
      <use transform="translate(0 0.234375)" xlink:href="#DejaVuSans-Oblique-952"/>
      <use transform="translate(61.181641 -16.171875)scale(0.7)" xlink:href="#DejaVuSans-49"/>
     </g>
    </g>
   </g>
   <g id="matplotlib.axis_4">
    <g id="ytick_5">
     <g id="line2d_49">
      <g>
       <use style="stroke:#000000;stroke-width:0.8;" x="262.158333" xlink:href="#m00f322701c" y="149.522005"/>
      </g>
     </g>
     <g id="text_18">
      <!-- 0.002 -->
      <g transform="translate(226.530208 153.321224)scale(0.1 -0.1)">
       <use xlink:href="#DejaVuSans-48"/>
       <use x="63.623047" xlink:href="#DejaVuSans-46"/>
       <use x="95.410156" xlink:href="#DejaVuSans-48"/>
       <use x="159.033203" xlink:href="#DejaVuSans-48"/>
       <use x="222.65625" xlink:href="#DejaVuSans-50"/>
      </g>
     </g>
    </g>
    <g id="ytick_6">
     <g id="line2d_50">
      <g>
       <use style="stroke:#000000;stroke-width:0.8;" x="262.158333" xlink:href="#m00f322701c" y="119.825673"/>
      </g>
     </g>
     <g id="text_19">
      <!-- 0.004 -->
      <g transform="translate(226.530208 123.624892)scale(0.1 -0.1)">
       <use xlink:href="#DejaVuSans-48"/>
       <use x="63.623047" xlink:href="#DejaVuSans-46"/>
       <use x="95.410156" xlink:href="#DejaVuSans-48"/>
       <use x="159.033203" xlink:href="#DejaVuSans-48"/>
       <use x="222.65625" xlink:href="#DejaVuSans-52"/>
      </g>
     </g>
    </g>
    <g id="ytick_7">
     <g id="line2d_51">
      <g>
       <use style="stroke:#000000;stroke-width:0.8;" x="262.158333" xlink:href="#m00f322701c" y="90.129341"/>
      </g>
     </g>
     <g id="text_20">
      <!-- 0.006 -->
      <g transform="translate(226.530208 93.92856)scale(0.1 -0.1)">
       <defs>
        <path d="M 33.015625 40.375 
Q 26.375 40.375 22.484375 35.828125 
Q 18.609375 31.296875 18.609375 23.390625 
Q 18.609375 15.53125 22.484375 10.953125 
Q 26.375 6.390625 33.015625 6.390625 
Q 39.65625 6.390625 43.53125 10.953125 
Q 47.40625 15.53125 47.40625 23.390625 
Q 47.40625 31.296875 43.53125 35.828125 
Q 39.65625 40.375 33.015625 40.375 
z
M 52.59375 71.296875 
L 52.59375 62.3125 
Q 48.875 64.0625 45.09375 64.984375 
Q 41.3125 65.921875 37.59375 65.921875 
Q 27.828125 65.921875 22.671875 59.328125 
Q 17.53125 52.734375 16.796875 39.40625 
Q 19.671875 43.65625 24.015625 45.921875 
Q 28.375 48.1875 33.59375 48.1875 
Q 44.578125 48.1875 50.953125 41.515625 
Q 57.328125 34.859375 57.328125 23.390625 
Q 57.328125 12.15625 50.6875 5.359375 
Q 44.046875 -1.421875 33.015625 -1.421875 
Q 20.359375 -1.421875 13.671875 8.265625 
Q 6.984375 17.96875 6.984375 36.375 
Q 6.984375 53.65625 15.1875 63.9375 
Q 23.390625 74.21875 37.203125 74.21875 
Q 40.921875 74.21875 44.703125 73.484375 
Q 48.484375 72.75 52.59375 71.296875 
z
" id="DejaVuSans-54"/>
       </defs>
       <use xlink:href="#DejaVuSans-48"/>
       <use x="63.623047" xlink:href="#DejaVuSans-46"/>
       <use x="95.410156" xlink:href="#DejaVuSans-48"/>
       <use x="159.033203" xlink:href="#DejaVuSans-48"/>
       <use x="222.65625" xlink:href="#DejaVuSans-54"/>
      </g>
     </g>
    </g>
    <g id="ytick_8">
     <g id="line2d_52">
      <g>
       <use style="stroke:#000000;stroke-width:0.8;" x="262.158333" xlink:href="#m00f322701c" y="60.433009"/>
      </g>
     </g>
     <g id="text_21">
      <!-- 0.008 -->
      <g transform="translate(226.530208 64.232228)scale(0.1 -0.1)">
       <defs>
        <path d="M 31.78125 34.625 
Q 24.75 34.625 20.71875 30.859375 
Q 16.703125 27.09375 16.703125 20.515625 
Q 16.703125 13.921875 20.71875 10.15625 
Q 24.75 6.390625 31.78125 6.390625 
Q 38.8125 6.390625 42.859375 10.171875 
Q 46.921875 13.96875 46.921875 20.515625 
Q 46.921875 27.09375 42.890625 30.859375 
Q 38.875 34.625 31.78125 34.625 
z
M 21.921875 38.8125 
Q 15.578125 40.375 12.03125 44.71875 
Q 8.5 49.078125 8.5 55.328125 
Q 8.5 64.0625 14.71875 69.140625 
Q 20.953125 74.21875 31.78125 74.21875 
Q 42.671875 74.21875 48.875 69.140625 
Q 55.078125 64.0625 55.078125 55.328125 
Q 55.078125 49.078125 51.53125 44.71875 
Q 48 40.375 41.703125 38.8125 
Q 48.828125 37.15625 52.796875 32.3125 
Q 56.78125 27.484375 56.78125 20.515625 
Q 56.78125 9.90625 50.3125 4.234375 
Q 43.84375 -1.421875 31.78125 -1.421875 
Q 19.734375 -1.421875 13.25 4.234375 
Q 6.78125 9.90625 6.78125 20.515625 
Q 6.78125 27.484375 10.78125 32.3125 
Q 14.796875 37.15625 21.921875 38.8125 
z
M 18.3125 54.390625 
Q 18.3125 48.734375 21.84375 45.5625 
Q 25.390625 42.390625 31.78125 42.390625 
Q 38.140625 42.390625 41.71875 45.5625 
Q 45.3125 48.734375 45.3125 54.390625 
Q 45.3125 60.0625 41.71875 63.234375 
Q 38.140625 66.40625 31.78125 66.40625 
Q 25.390625 66.40625 21.84375 63.234375 
Q 18.3125 60.0625 18.3125 54.390625 
z
" id="DejaVuSans-56"/>
       </defs>
       <use xlink:href="#DejaVuSans-48"/>
       <use x="63.623047" xlink:href="#DejaVuSans-46"/>
       <use x="95.410156" xlink:href="#DejaVuSans-48"/>
       <use x="159.033203" xlink:href="#DejaVuSans-48"/>
       <use x="222.65625" xlink:href="#DejaVuSans-56"/>
      </g>
     </g>
    </g>
    <g id="text_22">
     <!-- Posterior -->
     <g transform="translate(220.450521 124.59375)rotate(-90)scale(0.1 -0.1)">
      <use xlink:href="#DejaVuSans-80"/>
      <use x="56.677734" xlink:href="#DejaVuSans-111"/>
      <use x="117.859375" xlink:href="#DejaVuSans-115"/>
      <use x="169.958984" xlink:href="#DejaVuSans-116"/>
      <use x="209.167969" xlink:href="#DejaVuSans-101"/>
      <use x="270.691406" xlink:href="#DejaVuSans-114"/>
      <use x="311.804688" xlink:href="#DejaVuSans-105"/>
      <use x="339.587891" xlink:href="#DejaVuSans-111"/>
      <use x="400.769531" xlink:href="#DejaVuSans-114"/>
     </g>
    </g>
   </g>
   <g id="line2d_53">
    <path clip-path="url(#p267deff178)" d="M 262.158333 162.401803 
L 306.713057 162.696032 
L 347.435117 163.186319 
L 391.031675 163.939523 
L 405.404167 164.227273 
L 405.404167 164.227273 
" style="fill:none;stroke:#1f77b4;stroke-linecap:square;stroke-width:1.5;"/>
   </g>
   <g id="line2d_54">
    <path clip-path="url(#p267deff178)" d="M 333.78125 170.4 
L 333.78125 34.6 
" style="fill:none;stroke:#808080;stroke-dasharray:1.5,2.475;stroke-dashoffset:0;stroke-width:1.5;"/>
   </g>
   <g id="line2d_55">
    <path clip-path="url(#p267deff178)" d="M 262.158333 162.112779 
L 314.378386 161.847208 
L 361.328526 161.830677 
L 405.404167 161.990166 
L 405.404167 161.990166 
" style="fill:none;stroke:#ff7f0e;stroke-linecap:square;stroke-width:1.5;"/>
   </g>
   <g id="line2d_56">
    <path clip-path="url(#p267deff178)" d="M 333.78125 170.4 
L 333.78125 34.6 
" style="fill:none;stroke:#808080;stroke-dasharray:1.5,2.475;stroke-dashoffset:0;stroke-width:1.5;"/>
   </g>
   <g id="line2d_57">
    <path clip-path="url(#p267deff178)" d="M 262.158333 159.984985 
L 300.005895 159.805153 
L 339.290705 159.846944 
L 388.157177 160.133881 
L 405.404167 160.273756 
L 405.404167 160.273756 
" style="fill:none;stroke:#2ca02c;stroke-linecap:square;stroke-width:1.5;"/>
   </g>
   <g id="line2d_58">
    <path clip-path="url(#p267deff178)" d="M 333.78125 170.4 
L 333.78125 34.6 
" style="fill:none;stroke:#808080;stroke-dasharray:1.5,2.475;stroke-dashoffset:0;stroke-width:1.5;"/>
   </g>
   <g id="line2d_59">
    <path clip-path="url(#p267deff178)" d="M 262.158333 157.308698 
L 325.397297 154.684017 
L 346.956034 154.068725 
L 366.119356 153.744553 
L 384.324512 153.658583 
L 402.529668 153.793791 
L 405.404167 153.834589 
L 405.404167 153.834589 
" style="fill:none;stroke:#d62728;stroke-linecap:square;stroke-width:1.5;"/>
   </g>
   <g id="line2d_60">
    <path clip-path="url(#p267deff178)" d="M 333.78125 170.4 
L 333.78125 34.6 
" style="fill:none;stroke:#808080;stroke-dasharray:1.5,2.475;stroke-dashoffset:0;stroke-width:1.5;"/>
   </g>
   <g id="line2d_61">
    <path clip-path="url(#p267deff178)" d="M 262.158333 150.850005 
L 281.800739 150.638341 
L 302.40131 150.64087 
L 325.397297 150.871531 
L 354.621363 151.400187 
L 392.948007 152.323463 
L 405.404167 152.673462 
L 405.404167 152.673462 
" style="fill:none;stroke:#9467bd;stroke-linecap:square;stroke-width:1.5;"/>
   </g>
   <g id="line2d_62">
    <path clip-path="url(#p267deff178)" d="M 333.78125 170.4 
L 333.78125 34.6 
" style="fill:none;stroke:#808080;stroke-dasharray:1.5,2.475;stroke-dashoffset:0;stroke-width:1.5;"/>
   </g>
   <g id="line2d_63">
    <path clip-path="url(#p267deff178)" d="M 262.158333 152.844458 
L 331.146293 152.52091 
L 405.404167 152.46899 
L 405.404167 152.46899 
" style="fill:none;stroke:#8c564b;stroke-linecap:square;stroke-width:1.5;"/>
   </g>
   <g id="line2d_64">
    <path clip-path="url(#p267deff178)" d="M 333.78125 170.4 
L 333.78125 34.6 
" style="fill:none;stroke:#808080;stroke-dasharray:1.5,2.475;stroke-dashoffset:0;stroke-width:1.5;"/>
   </g>
   <g id="line2d_65">
    <path clip-path="url(#p267deff178)" d="M 262.158333 147.211158 
L 287.549735 146.701533 
L 304.317642 146.595692 
L 321.085549 146.719662 
L 343.12337 147.131334 
L 377.617349 147.775405 
L 398.697004 147.91825 
L 405.404167 147.925551 
L 405.404167 147.925551 
" style="fill:none;stroke:#e377c2;stroke-linecap:square;stroke-width:1.5;"/>
   </g>
   <g id="line2d_66">
    <path clip-path="url(#p267deff178)" d="M 333.78125 170.4 
L 333.78125 34.6 
" style="fill:none;stroke:#808080;stroke-dasharray:1.5,2.475;stroke-dashoffset:0;stroke-width:1.5;"/>
   </g>
   <g id="line2d_67">
    <path clip-path="url(#p267deff178)" d="M 262.158333 143.378383 
L 283.237988 141.538738 
L 305.754891 139.628399 
L 318.211051 138.798408 
L 328.750878 138.312051 
L 338.811622 138.075313 
L 348.393283 138.07742 
L 357.974944 138.305422 
L 368.035688 138.774061 
L 379.054599 139.518386 
L 392.468924 140.660801 
L 405.404167 141.887671 
L 405.404167 141.887671 
" style="fill:none;stroke:#7f7f7f;stroke-linecap:square;stroke-width:1.5;"/>
   </g>
   <g id="line2d_68">
    <path clip-path="url(#p267deff178)" d="M 333.78125 170.4 
L 333.78125 34.6 
" style="fill:none;stroke:#808080;stroke-dasharray:1.5,2.475;stroke-dashoffset:0;stroke-width:1.5;"/>
   </g>
   <g id="line2d_69">
    <path clip-path="url(#p267deff178)" d="M 262.158333 133.056245 
L 273.177244 132.338167 
L 284.675237 131.819364 
L 296.17323 131.520537 
L 307.671224 131.439476 
L 319.169217 131.58045 
L 331.146293 131.957201 
L 344.560619 132.614794 
L 365.16119 133.889207 
L 386.240844 135.122053 
L 401.092419 135.756614 
L 405.404167 135.898141 
L 405.404167 135.898141 
" style="fill:none;stroke:#bcbd22;stroke-linecap:square;stroke-width:1.5;"/>
   </g>
   <g id="line2d_70">
    <path clip-path="url(#p267deff178)" d="M 333.78125 170.4 
L 333.78125 34.6 
" style="fill:none;stroke:#808080;stroke-dasharray:1.5,2.475;stroke-dashoffset:0;stroke-width:1.5;"/>
   </g>
   <g id="line2d_71">
    <path clip-path="url(#p267deff178)" d="M 262.158333 129.267177 
L 270.302745 128.846528 
L 279.405323 128.605286 
L 293.777815 128.488747 
L 310.066639 128.295897 
L 321.564632 127.927655 
L 335.458041 127.243909 
L 355.579529 126.255919 
L 365.640273 126.003988 
L 374.742851 126.001561 
L 383.845429 126.227785 
L 393.42709 126.688856 
L 405.404167 127.502033 
L 405.404167 127.502033 
" style="fill:none;stroke:#17becf;stroke-linecap:square;stroke-width:1.5;"/>
   </g>
   <g id="line2d_72">
    <path clip-path="url(#p267deff178)" d="M 333.78125 170.4 
L 333.78125 34.6 
" style="fill:none;stroke:#808080;stroke-dasharray:1.5,2.475;stroke-dashoffset:0;stroke-width:1.5;"/>
   </g>
   <g id="line2d_73">
    <path clip-path="url(#p267deff178)" d="M 262.158333 124.867986 
L 271.739994 122.795015 
L 279.405323 121.35765 
L 286.591569 120.227942 
L 293.777815 119.314405 
L 301.443144 118.570066 
L 309.108473 118.054127 
L 316.773802 117.76383 
L 324.43913 117.701233 
L 332.104459 117.865606 
L 340.248871 118.276335 
L 348.872366 118.943733 
L 358.93311 119.958524 
L 371.868353 121.504966 
L 405.404167 125.70849 
L 405.404167 125.70849 
" style="fill:none;stroke:#1f77b4;stroke-linecap:square;stroke-width:1.5;"/>
   </g>
   <g id="line2d_74">
    <path clip-path="url(#p267deff178)" d="M 333.78125 170.4 
L 333.78125 34.6 
" style="fill:none;stroke:#808080;stroke-dasharray:1.5,2.475;stroke-dashoffset:0;stroke-width:1.5;"/>
   </g>
   <g id="line2d_75">
    <path clip-path="url(#p267deff178)" d="M 262.158333 118.029463 
L 270.781828 116.480636 
L 280.363489 114.998105 
L 293.777815 113.184985 
L 308.62939 111.124972 
L 320.606466 109.213818 
L 336.416207 106.694065 
L 343.602453 105.797834 
L 349.830532 105.247534 
L 355.579529 104.959336 
L 361.328526 104.895005 
L 367.077522 105.054839 
L 372.826519 105.432027 
L 379.054599 106.075424 
L 385.282678 106.952933 
L 391.510758 108.055725 
L 398.217921 109.482962 
L 404.925084 111.137386 
L 405.404167 111.263444 
L 405.404167 111.263444 
" style="fill:none;stroke:#ff7f0e;stroke-linecap:square;stroke-width:1.5;"/>
   </g>
   <g id="line2d_76">
    <path clip-path="url(#p267deff178)" d="M 333.78125 170.4 
L 333.78125 34.6 
" style="fill:none;stroke:#808080;stroke-dasharray:1.5,2.475;stroke-dashoffset:0;stroke-width:1.5;"/>
   </g>
   <g id="line2d_77">
    <path clip-path="url(#p267deff178)" d="M 262.158333 102.159015 
L 265.990998 100.328371 
L 269.344579 98.947633 
L 272.698161 97.796255 
L 276.051742 96.885159 
L 279.405323 96.212807 
L 282.758905 95.76466 
L 286.591569 95.492206 
L 290.903317 95.423451 
L 297.131396 95.579049 
L 306.713057 95.818075 
L 312.462054 95.715996 
L 318.690134 95.362318 
L 333.541708 94.376887 
L 337.853456 94.369485 
L 341.68612 94.563282 
L 345.518785 94.971758 
L 349.351449 95.604664 
L 353.184114 96.457112 
L 357.495861 97.655632 
L 362.286692 99.23484 
L 368.514771 101.556972 
L 386.240844 108.352619 
L 392.468924 110.405599 
L 399.176087 112.362793 
L 405.404167 114.027658 
L 405.404167 114.027658 
" style="fill:none;stroke:#2ca02c;stroke-linecap:square;stroke-width:1.5;"/>
   </g>
   <g id="line2d_78">
    <path clip-path="url(#p267deff178)" d="M 333.78125 170.4 
L 333.78125 34.6 
" style="fill:none;stroke:#808080;stroke-dasharray:1.5,2.475;stroke-dashoffset:0;stroke-width:1.5;"/>
   </g>
   <g id="line2d_79">
    <path clip-path="url(#p267deff178)" d="M 262.158333 100.970812 
L 271.260911 97.205827 
L 283.237988 92.239999 
L 288.028818 90.501579 
L 291.861483 89.316919 
L 295.694147 88.36828 
L 299.047729 87.763578 
L 302.40131 87.389439 
L 305.754891 87.255555 
L 309.108473 87.360675 
L 312.462054 87.691568 
L 316.294719 88.312997 
L 320.606466 89.253878 
L 327.313629 90.985775 
L 334.020792 92.662882 
L 338.332539 93.535335 
L 342.644287 94.170911 
L 346.476951 94.521652 
L 350.788698 94.695824 
L 356.058612 94.677136 
L 368.514771 94.535598 
L 372.826519 94.755185 
L 376.659183 95.155073 
L 380.491848 95.770217 
L 384.324512 96.605973 
L 388.157177 97.654644 
L 392.468924 99.067908 
L 397.259755 100.89291 
L 402.529668 103.165443 
L 405.404167 104.509198 
L 405.404167 104.509198 
" style="fill:none;stroke:#d62728;stroke-linecap:square;stroke-width:1.5;"/>
   </g>
   <g id="line2d_80">
    <path clip-path="url(#p267deff178)" d="M 333.78125 170.4 
L 333.78125 34.6 
" style="fill:none;stroke:#808080;stroke-dasharray:1.5,2.475;stroke-dashoffset:0;stroke-width:1.5;"/>
   </g>
   <g id="line2d_81">
    <path clip-path="url(#p267deff178)" d="M 262.158333 89.648769 
L 265.990998 84.874877 
L 269.344579 81.086663 
L 272.219077 78.190745 
L 274.614493 76.05444 
L 277.009908 74.187091 
L 279.405323 72.598539 
L 281.800739 71.291988 
L 284.196154 70.263356 
L 286.591569 69.500784 
L 288.986984 68.984482 
L 291.3824 68.687095 
L 294.256898 68.57109 
L 297.610479 68.681946 
L 302.880393 69.132574 
L 310.066639 69.716772 
L 315.336552 69.901672 
L 327.313629 70.193201 
L 331.146293 70.559637 
L 334.978958 71.140974 
L 339.290705 72.032294 
L 344.560619 73.361815 
L 355.100446 76.313259 
L 361.328526 78.239198 
L 365.16119 79.641803 
L 368.514771 81.099521 
L 371.38927 82.56842 
L 374.263768 84.268103 
L 377.138266 86.209351 
L 380.491848 88.768215 
L 384.324512 92.022239 
L 389.594426 96.852703 
L 396.301589 102.994258 
L 400.134253 106.201562 
L 403.487834 108.712547 
L 405.404167 110.007983 
L 405.404167 110.007983 
" style="fill:none;stroke:#9467bd;stroke-linecap:square;stroke-width:1.5;"/>
   </g>
   <g id="line2d_82">
    <path clip-path="url(#p267deff178)" d="M 333.78125 170.4 
L 333.78125 34.6 
" style="fill:none;stroke:#808080;stroke-dasharray:1.5,2.475;stroke-dashoffset:0;stroke-width:1.5;"/>
   </g>
   <g id="line2d_83">
    <path clip-path="url(#p267deff178)" d="M 262.158333 98.051296 
L 267.90733 89.299584 
L 271.739994 83.831382 
L 275.572659 78.771962 
L 279.405323 74.129696 
L 283.237988 69.843841 
L 288.028818 64.839626 
L 294.256898 58.678678 
L 299.526812 53.734859 
L 303.359476 50.402574 
L 306.713057 47.775209 
L 309.587556 45.807777 
L 311.982971 44.408516 
L 314.378386 43.255063 
L 316.773802 42.368054 
L 319.169217 41.762831 
L 321.085549 41.488281 
L 323.001881 41.402709 
L 324.918213 41.505865 
L 326.834546 41.794853 
L 329.229961 42.408616 
L 331.625376 43.286994 
L 334.020792 44.407363 
L 336.89529 46.032929 
L 339.769788 47.917065 
L 343.12337 50.376406 
L 346.956034 53.452493 
L 351.746865 57.601392 
L 357.016778 62.464139 
L 368.035688 72.777093 
L 371.38927 75.540948 
L 374.263768 77.619159 
L 377.138266 79.391503 
L 380.012765 80.866871 
L 383.366346 82.293723 
L 391.031675 85.379263 
L 393.42709 86.645409 
L 395.822506 88.204192 
L 397.738838 89.704481 
L 399.65517 91.453121 
L 401.571502 93.459977 
L 403.966918 96.328876 
L 405.404167 98.233303 
L 405.404167 98.233303 
" style="fill:none;stroke:#8c564b;stroke-linecap:square;stroke-width:1.5;"/>
   </g>
   <g id="line2d_84">
    <path clip-path="url(#p267deff178)" d="M 333.78125 170.4 
L 333.78125 34.6 
" style="fill:none;stroke:#808080;stroke-dasharray:1.5,2.475;stroke-dashoffset:0;stroke-width:1.5;"/>
   </g>
   <g id="line2d_85">
    <path clip-path="url(#p267deff178)" d="M 262.158333 104.161257 
L 270.302745 93.600508 
L 288.028818 70.856958 
L 292.340566 65.807699 
L 296.17323 61.628798 
L 300.005895 57.754025 
L 303.838559 54.182283 
L 307.671224 50.920961 
L 311.024805 48.345651 
L 314.378386 46.068985 
L 317.252885 44.39199 
L 320.127383 43.00265 
L 322.522798 42.086254 
L 324.918213 41.404424 
L 327.313629 40.96717 
L 329.709044 40.779996 
L 332.104459 40.843752 
L 334.499875 41.154686 
L 336.89529 41.704526 
L 339.290705 42.480507 
L 341.68612 43.465317 
L 344.560619 44.89162 
L 347.9142 46.833736 
L 352.225948 49.638031 
L 372.347436 63.173754 
L 377.138266 66.46859 
L 380.970931 69.390327 
L 384.324512 72.254212 
L 387.199011 74.984832 
L 390.073509 77.996764 
L 392.948007 81.303617 
L 396.301589 85.537544 
L 399.65517 90.162598 
L 403.487834 95.882465 
L 405.404167 98.891311 
L 405.404167 98.891311 
" style="fill:none;stroke:#e377c2;stroke-linecap:square;stroke-width:1.5;"/>
   </g>
   <g id="line2d_86">
    <path clip-path="url(#p267deff178)" d="M 333.78125 170.4 
L 333.78125 34.6 
" style="fill:none;stroke:#808080;stroke-dasharray:1.5,2.475;stroke-dashoffset:0;stroke-width:1.5;"/>
   </g>
   <g id="patch_6">
    <path d="M 262.158333 170.4 
L 262.158333 34.6 
" style="fill:none;stroke:#000000;stroke-linecap:square;stroke-linejoin:miter;stroke-width:0.8;"/>
   </g>
   <g id="patch_7">
    <path d="M 262.158333 170.4 
L 405.404167 170.4 
" style="fill:none;stroke:#000000;stroke-linecap:square;stroke-linejoin:miter;stroke-width:0.8;"/>
   </g>
  </g>
  <g id="axes_3">
   <g id="patch_8">
    <path d="M 479.766667 170.4 
L 623.0125 170.4 
L 623.0125 34.6 
L 479.766667 34.6 
z
" style="fill:#ffffff;"/>
   </g>
   <g id="matplotlib.axis_5">
    <g id="xtick_11">
     <g id="line2d_87">
      <g>
       <use style="stroke:#000000;stroke-width:0.8;" x="479.766667" xlink:href="#m6041b9fb60" y="170.4"/>
      </g>
     </g>
     <g id="text_23">
      <!-- 0.000 -->
      <g transform="translate(465.452604 184.998437)scale(0.1 -0.1)">
       <use xlink:href="#DejaVuSans-48"/>
       <use x="63.623047" xlink:href="#DejaVuSans-46"/>
       <use x="95.410156" xlink:href="#DejaVuSans-48"/>
       <use x="159.033203" xlink:href="#DejaVuSans-48"/>
       <use x="222.65625" xlink:href="#DejaVuSans-48"/>
      </g>
     </g>
    </g>
    <g id="xtick_12">
     <g id="line2d_88">
      <g>
       <use style="stroke:#000000;stroke-width:0.8;" x="515.578125" xlink:href="#m6041b9fb60" y="170.4"/>
      </g>
     </g>
     <g id="text_24">
      <!-- 0.025 -->
      <g transform="translate(501.264062 184.998437)scale(0.1 -0.1)">
       <use xlink:href="#DejaVuSans-48"/>
       <use x="63.623047" xlink:href="#DejaVuSans-46"/>
       <use x="95.410156" xlink:href="#DejaVuSans-48"/>
       <use x="159.033203" xlink:href="#DejaVuSans-50"/>
       <use x="222.65625" xlink:href="#DejaVuSans-53"/>
      </g>
     </g>
    </g>
    <g id="xtick_13">
     <g id="line2d_89">
      <g>
       <use style="stroke:#000000;stroke-width:0.8;" x="551.389583" xlink:href="#m6041b9fb60" y="170.4"/>
      </g>
     </g>
     <g id="text_25">
      <!-- 0.050 -->
      <g transform="translate(537.075521 184.998437)scale(0.1 -0.1)">
       <use xlink:href="#DejaVuSans-48"/>
       <use x="63.623047" xlink:href="#DejaVuSans-46"/>
       <use x="95.410156" xlink:href="#DejaVuSans-48"/>
       <use x="159.033203" xlink:href="#DejaVuSans-53"/>
       <use x="222.65625" xlink:href="#DejaVuSans-48"/>
      </g>
     </g>
    </g>
    <g id="xtick_14">
     <g id="line2d_90">
      <g>
       <use style="stroke:#000000;stroke-width:0.8;" x="587.201042" xlink:href="#m6041b9fb60" y="170.4"/>
      </g>
     </g>
     <g id="text_26">
      <!-- 0.075 -->
      <g transform="translate(572.886979 184.998437)scale(0.1 -0.1)">
       <use xlink:href="#DejaVuSans-48"/>
       <use x="63.623047" xlink:href="#DejaVuSans-46"/>
       <use x="95.410156" xlink:href="#DejaVuSans-48"/>
       <use x="159.033203" xlink:href="#DejaVuSans-55"/>
       <use x="222.65625" xlink:href="#DejaVuSans-53"/>
      </g>
     </g>
    </g>
    <g id="xtick_15">
     <g id="line2d_91">
      <g>
       <use style="stroke:#000000;stroke-width:0.8;" x="623.0125" xlink:href="#m6041b9fb60" y="170.4"/>
      </g>
     </g>
     <g id="text_27">
      <!-- 0.100 -->
      <g transform="translate(608.698437 184.998437)scale(0.1 -0.1)">
       <use xlink:href="#DejaVuSans-48"/>
       <use x="63.623047" xlink:href="#DejaVuSans-46"/>
       <use x="95.410156" xlink:href="#DejaVuSans-49"/>
       <use x="159.033203" xlink:href="#DejaVuSans-48"/>
       <use x="222.65625" xlink:href="#DejaVuSans-48"/>
      </g>
     </g>
    </g>
    <g id="text_28">
     <!-- $\theta_2$ -->
     <g transform="translate(545.939583 198.676562)scale(0.1 -0.1)">
      <use transform="translate(0 0.234375)" xlink:href="#DejaVuSans-Oblique-952"/>
      <use transform="translate(61.181641 -16.171875)scale(0.7)" xlink:href="#DejaVuSans-50"/>
     </g>
    </g>
   </g>
   <g id="matplotlib.axis_6">
    <g id="ytick_9">
     <g id="line2d_92">
      <g>
       <use style="stroke:#000000;stroke-width:0.8;" x="479.766667" xlink:href="#m00f322701c" y="164.227273"/>
      </g>
     </g>
     <g id="text_29">
      <!-- 0 -->
      <g transform="translate(466.404167 168.026491)scale(0.1 -0.1)">
       <use xlink:href="#DejaVuSans-48"/>
      </g>
     </g>
    </g>
    <g id="ytick_10">
     <g id="line2d_93">
      <g>
       <use style="stroke:#000000;stroke-width:0.8;" x="479.766667" xlink:href="#m00f322701c" y="123.609494"/>
      </g>
     </g>
     <g id="text_30">
      <!-- 1000 -->
      <g transform="translate(447.316667 127.408713)scale(0.1 -0.1)">
       <use xlink:href="#DejaVuSans-49"/>
       <use x="63.623047" xlink:href="#DejaVuSans-48"/>
       <use x="127.246094" xlink:href="#DejaVuSans-48"/>
       <use x="190.869141" xlink:href="#DejaVuSans-48"/>
      </g>
     </g>
    </g>
    <g id="ytick_11">
     <g id="line2d_94">
      <g>
       <use style="stroke:#000000;stroke-width:0.8;" x="479.766667" xlink:href="#m00f322701c" y="82.991716"/>
      </g>
     </g>
     <g id="text_31">
      <!-- 2000 -->
      <g transform="translate(447.316667 86.790935)scale(0.1 -0.1)">
       <use xlink:href="#DejaVuSans-50"/>
       <use x="63.623047" xlink:href="#DejaVuSans-48"/>
       <use x="127.246094" xlink:href="#DejaVuSans-48"/>
       <use x="190.869141" xlink:href="#DejaVuSans-48"/>
      </g>
     </g>
    </g>
    <g id="ytick_12">
     <g id="line2d_95">
      <g>
       <use style="stroke:#000000;stroke-width:0.8;" x="479.766667" xlink:href="#m00f322701c" y="42.373938"/>
      </g>
     </g>
     <g id="text_32">
      <!-- 3000 -->
      <g transform="translate(447.316667 46.173157)scale(0.1 -0.1)">
       <use xlink:href="#DejaVuSans-51"/>
       <use x="63.623047" xlink:href="#DejaVuSans-48"/>
       <use x="127.246094" xlink:href="#DejaVuSans-48"/>
       <use x="190.869141" xlink:href="#DejaVuSans-48"/>
      </g>
     </g>
    </g>
    <g id="text_33">
     <!-- Posterior -->
     <g transform="translate(441.236979 124.59375)rotate(-90)scale(0.1 -0.1)">
      <use xlink:href="#DejaVuSans-80"/>
      <use x="56.677734" xlink:href="#DejaVuSans-111"/>
      <use x="117.859375" xlink:href="#DejaVuSans-115"/>
      <use x="169.958984" xlink:href="#DejaVuSans-116"/>
      <use x="209.167969" xlink:href="#DejaVuSans-101"/>
      <use x="270.691406" xlink:href="#DejaVuSans-114"/>
      <use x="311.804688" xlink:href="#DejaVuSans-105"/>
      <use x="339.587891" xlink:href="#DejaVuSans-111"/>
      <use x="400.769531" xlink:href="#DejaVuSans-114"/>
     </g>
    </g>
   </g>
   <g id="line2d_96">
    <path clip-path="url(#p54f84b0459)" d="M 479.766667 164.227273 
L 543.00563 164.120583 
L 552.108208 163.776985 
L 562.648035 163.442116 
L 571.750613 163.370042 
L 607.202759 163.472671 
L 616.78442 163.480528 
L 622.533417 163.752018 
L 623.0125 163.781405 
L 623.0125 163.781405 
" style="fill:none;stroke:#1f77b4;stroke-linecap:square;stroke-width:1.5;"/>
   </g>
   <g id="line2d_97">
    <path clip-path="url(#p54f84b0459)" style="fill:none;stroke:#808080;stroke-dasharray:1.5,2.475;stroke-dashoffset:0;stroke-width:1.5;"/>
   </g>
   <g id="line2d_98">
    <path clip-path="url(#p54f84b0459)" d="M 479.766667 164.227273 
L 575.583278 164.130516 
L 579.415942 163.851489 
L 587.560354 163.161562 
L 603.370095 162.749407 
L 617.263503 162.739134 
L 620.617085 163.099154 
L 623.0125 163.497676 
L 623.0125 163.497676 
" style="fill:none;stroke:#ff7f0e;stroke-linecap:square;stroke-width:1.5;"/>
   </g>
   <g id="line2d_99">
    <path clip-path="url(#p54f84b0459)" style="fill:none;stroke:#808080;stroke-dasharray:1.5,2.475;stroke-dashoffset:0;stroke-width:1.5;"/>
   </g>
   <g id="line2d_100">
    <path clip-path="url(#p54f84b0459)" d="M 479.766667 164.227273 
L 592.830268 164.135487 
L 595.704766 163.833702 
L 599.058347 163.234754 
L 604.328261 162.223462 
L 606.723676 162.092011 
L 612.951756 161.891705 
L 617.742586 161.252569 
L 619.179836 161.28151 
L 620.138002 161.447555 
L 621.096168 161.771912 
L 622.533417 162.523893 
L 623.0125 162.80835 
L 623.0125 162.80835 
" style="fill:none;stroke:#2ca02c;stroke-linecap:square;stroke-width:1.5;"/>
   </g>
   <g id="line2d_101">
    <path clip-path="url(#p54f84b0459)" style="fill:none;stroke:#808080;stroke-dasharray:1.5,2.475;stroke-dashoffset:0;stroke-width:1.5;"/>
   </g>
   <g id="line2d_102">
    <path clip-path="url(#p54f84b0459)" d="M 479.766667 164.227273 
L 602.411929 164.144311 
L 603.849178 163.904573 
L 605.286427 163.45814 
L 607.681842 162.655148 
L 610.556341 161.793086 
L 612.472673 161.010121 
L 613.909922 160.498142 
L 615.347171 160.361569 
L 617.263503 160.211016 
L 619.658919 159.961584 
L 620.617085 159.975485 
L 621.096168 160.077275 
L 621.575251 160.301376 
L 622.054334 160.684394 
L 623.0125 161.875883 
L 623.0125 161.875883 
" style="fill:none;stroke:#d62728;stroke-linecap:square;stroke-width:1.5;"/>
   </g>
   <g id="line2d_103">
    <path clip-path="url(#p54f84b0459)" style="fill:none;stroke:#808080;stroke-dasharray:1.5,2.475;stroke-dashoffset:0;stroke-width:1.5;"/>
   </g>
   <g id="line2d_104">
    <path clip-path="url(#p54f84b0459)" d="M 479.766667 164.227273 
L 608.160925 164.180047 
L 609.119091 163.989911 
L 610.077258 163.543902 
L 613.430839 161.475515 
L 614.868088 160.349701 
L 616.78442 159.431692 
L 618.700753 158.756046 
L 620.617085 157.355265 
L 621.096168 157.233148 
L 621.575251 157.401909 
L 622.054334 158.009669 
L 622.533417 159.131011 
L 623.0125 160.611361 
L 623.0125 160.611361 
" style="fill:none;stroke:#9467bd;stroke-linecap:square;stroke-width:1.5;"/>
   </g>
   <g id="line2d_105">
    <path clip-path="url(#p54f84b0459)" style="fill:none;stroke:#808080;stroke-dasharray:1.5,2.475;stroke-dashoffset:0;stroke-width:1.5;"/>
   </g>
   <g id="line2d_106">
    <path clip-path="url(#p54f84b0459)" d="M 479.766667 164.227273 
L 612.472673 164.177215 
L 612.951756 164.038392 
L 613.430839 163.713043 
L 614.389005 162.518308 
L 615.347171 161.339708 
L 618.221669 158.366925 
L 619.658919 155.640953 
L 620.138002 154.664268 
L 620.617085 154.157143 
L 621.096168 154.210331 
L 621.575251 154.511252 
L 622.054334 155.267332 
L 622.533417 157.094458 
L 623.0125 159.865589 
L 623.0125 159.865589 
" style="fill:none;stroke:#8c564b;stroke-linecap:square;stroke-width:1.5;"/>
   </g>
   <g id="line2d_107">
    <path clip-path="url(#p54f84b0459)" style="fill:none;stroke:#808080;stroke-dasharray:1.5,2.475;stroke-dashoffset:0;stroke-width:1.5;"/>
   </g>
   <g id="line2d_108">
    <path clip-path="url(#p54f84b0459)" d="M 479.766667 164.227273 
L 615.347171 164.168811 
L 615.826254 163.817634 
L 616.305337 162.921271 
L 618.221669 158.372328 
L 618.700753 157.674081 
L 619.179836 156.593419 
L 620.138002 153.287449 
L 621.096168 150.420704 
L 621.575251 150.233589 
L 622.054334 151.640812 
L 622.533417 155.03178 
L 623.0125 159.620267 
L 623.0125 159.620267 
" style="fill:none;stroke:#e377c2;stroke-linecap:square;stroke-width:1.5;"/>
   </g>
   <g id="line2d_109">
    <path clip-path="url(#p54f84b0459)" style="fill:none;stroke:#808080;stroke-dasharray:1.5,2.475;stroke-dashoffset:0;stroke-width:1.5;"/>
   </g>
   <g id="line2d_110">
    <path clip-path="url(#p54f84b0459)" d="M 479.766667 164.227273 
L 616.78442 164.215551 
L 617.263503 163.981353 
L 618.221669 162.242653 
L 618.700753 160.965065 
L 620.138002 153.409781 
L 621.096168 146.102078 
L 621.575251 145.776696 
L 622.054334 146.750619 
L 622.533417 149.603196 
L 623.0125 157.883809 
L 623.0125 157.883809 
" style="fill:none;stroke:#7f7f7f;stroke-linecap:square;stroke-width:1.5;"/>
   </g>
   <g id="line2d_111">
    <path clip-path="url(#p54f84b0459)" style="fill:none;stroke:#808080;stroke-dasharray:1.5,2.475;stroke-dashoffset:0;stroke-width:1.5;"/>
   </g>
   <g id="line2d_112">
    <path clip-path="url(#p54f84b0459)" d="M 479.766667 164.227273 
L 618.221669 164.217761 
L 618.700753 164.029292 
L 619.179836 162.531045 
L 620.138002 156.480085 
L 620.617085 151.735016 
L 621.096168 145.347098 
L 621.575251 141.409572 
L 622.054334 142.505992 
L 622.533417 143.975713 
L 623.0125 154.092453 
L 623.0125 154.092453 
" style="fill:none;stroke:#bcbd22;stroke-linecap:square;stroke-width:1.5;"/>
   </g>
   <g id="line2d_113">
    <path clip-path="url(#p54f84b0459)" style="fill:none;stroke:#808080;stroke-dasharray:1.5,2.475;stroke-dashoffset:0;stroke-width:1.5;"/>
   </g>
   <g id="line2d_114">
    <path clip-path="url(#p54f84b0459)" d="M 479.766667 164.227273 
L 619.179836 164.227069 
L 619.658919 164.098602 
L 620.138002 162.558004 
L 620.617085 156.389056 
L 622.054334 133.207778 
L 622.533417 136.13832 
L 623.0125 153.135234 
L 623.0125 153.135234 
" style="fill:none;stroke:#17becf;stroke-linecap:square;stroke-width:1.5;"/>
   </g>
   <g id="line2d_115">
    <path clip-path="url(#p54f84b0459)" style="fill:none;stroke:#808080;stroke-dasharray:1.5,2.475;stroke-dashoffset:0;stroke-width:1.5;"/>
   </g>
   <g id="line2d_116">
    <path clip-path="url(#p54f84b0459)" d="M 479.766667 164.227273 
L 620.138002 164.226551 
L 620.617085 163.482185 
L 621.096168 156.275852 
L 621.575251 140.078702 
L 622.054334 130.283349 
L 622.533417 125.702873 
L 623.0125 148.486417 
L 623.0125 148.486417 
" style="fill:none;stroke:#1f77b4;stroke-linecap:square;stroke-width:1.5;"/>
   </g>
   <g id="line2d_117">
    <path clip-path="url(#p54f84b0459)" style="fill:none;stroke:#808080;stroke-dasharray:1.5,2.475;stroke-dashoffset:0;stroke-width:1.5;"/>
   </g>
   <g id="line2d_118">
    <path clip-path="url(#p54f84b0459)" d="M 479.766667 164.227273 
L 620.617085 164.227273 
L 621.096168 164.043414 
L 621.575251 152.559883 
L 622.054334 125.333132 
L 622.533417 114.334503 
L 623.0125 143.353452 
L 623.0125 143.353452 
" style="fill:none;stroke:#ff7f0e;stroke-linecap:square;stroke-width:1.5;"/>
   </g>
   <g id="line2d_119">
    <path clip-path="url(#p54f84b0459)" style="fill:none;stroke:#808080;stroke-dasharray:1.5,2.475;stroke-dashoffset:0;stroke-width:1.5;"/>
   </g>
   <g id="line2d_120">
    <path clip-path="url(#p54f84b0459)" d="M 479.766667 164.227273 
L 621.096168 164.227272 
L 621.575251 163.30107 
L 622.054334 137.283974 
L 622.533417 101.97156 
L 623.0125 137.524692 
L 623.0125 137.524692 
" style="fill:none;stroke:#2ca02c;stroke-linecap:square;stroke-width:1.5;"/>
   </g>
   <g id="line2d_121">
    <path clip-path="url(#p54f84b0459)" style="fill:none;stroke:#808080;stroke-dasharray:1.5,2.475;stroke-dashoffset:0;stroke-width:1.5;"/>
   </g>
   <g id="line2d_122">
    <path clip-path="url(#p54f84b0459)" d="M 479.766667 164.227273 
L 621.575251 164.227272 
L 622.054334 158.429953 
L 622.533417 95.762714 
L 623.0125 125.332736 
L 623.0125 125.332736 
" style="fill:none;stroke:#d62728;stroke-linecap:square;stroke-width:1.5;"/>
   </g>
   <g id="line2d_123">
    <path clip-path="url(#p54f84b0459)" style="fill:none;stroke:#808080;stroke-dasharray:1.5,2.475;stroke-dashoffset:0;stroke-width:1.5;"/>
   </g>
   <g id="line2d_124">
    <path clip-path="url(#p54f84b0459)" d="M 479.766667 164.227273 
L 622.054334 164.226437 
L 622.533417 108.854754 
L 623.0125 112.415643 
L 623.0125 112.415643 
" style="fill:none;stroke:#9467bd;stroke-linecap:square;stroke-width:1.5;"/>
   </g>
   <g id="line2d_125">
    <path clip-path="url(#p54f84b0459)" style="fill:none;stroke:#808080;stroke-dasharray:1.5,2.475;stroke-dashoffset:0;stroke-width:1.5;"/>
   </g>
   <g id="line2d_126">
    <path clip-path="url(#p54f84b0459)" d="M 479.766667 164.227273 
L 622.054334 164.227273 
L 622.533417 147.856338 
L 623.0125 98.978677 
L 623.0125 98.978677 
" style="fill:none;stroke:#8c564b;stroke-linecap:square;stroke-width:1.5;"/>
   </g>
   <g id="line2d_127">
    <path clip-path="url(#p54f84b0459)" style="fill:none;stroke:#808080;stroke-dasharray:1.5,2.475;stroke-dashoffset:0;stroke-width:1.5;"/>
   </g>
   <g id="line2d_128">
    <path clip-path="url(#p54f84b0459)" d="M 479.766667 164.227273 
L 622.054334 164.227273 
L 622.533417 162.913138 
L 623.0125 40.772727 
L 623.0125 40.772727 
" style="fill:none;stroke:#e377c2;stroke-linecap:square;stroke-width:1.5;"/>
   </g>
   <g id="line2d_129">
    <path clip-path="url(#p54f84b0459)" style="fill:none;stroke:#808080;stroke-dasharray:1.5,2.475;stroke-dashoffset:0;stroke-width:1.5;"/>
   </g>
   <g id="patch_9">
    <path d="M 479.766667 170.4 
L 479.766667 34.6 
" style="fill:none;stroke:#000000;stroke-linecap:square;stroke-linejoin:miter;stroke-width:0.8;"/>
   </g>
   <g id="patch_10">
    <path d="M 479.766667 170.4 
L 623.0125 170.4 
" style="fill:none;stroke:#000000;stroke-linecap:square;stroke-linejoin:miter;stroke-width:0.8;"/>
   </g>
  </g>
  <g id="text_34">
   <!-- euclidean, linear model, normalized -->
   <g transform="translate(216.362813 13.438125)scale(0.12 -0.12)">
    <defs>
     <path d="M 8.5 21.578125 
L 8.5 54.6875 
L 17.484375 54.6875 
L 17.484375 21.921875 
Q 17.484375 14.15625 20.5 10.265625 
Q 23.53125 6.390625 29.59375 6.390625 
Q 36.859375 6.390625 41.078125 11.03125 
Q 45.3125 15.671875 45.3125 23.6875 
L 45.3125 54.6875 
L 54.296875 54.6875 
L 54.296875 0 
L 45.3125 0 
L 45.3125 8.40625 
Q 42.046875 3.421875 37.71875 1 
Q 33.40625 -1.421875 27.6875 -1.421875 
Q 18.265625 -1.421875 13.375 4.4375 
Q 8.5 10.296875 8.5 21.578125 
z
M 31.109375 56 
z
" id="DejaVuSans-117"/>
     <path d="M 48.78125 52.59375 
L 48.78125 44.1875 
Q 44.96875 46.296875 41.140625 47.34375 
Q 37.3125 48.390625 33.40625 48.390625 
Q 24.65625 48.390625 19.8125 42.84375 
Q 14.984375 37.3125 14.984375 27.296875 
Q 14.984375 17.28125 19.8125 11.734375 
Q 24.65625 6.203125 33.40625 6.203125 
Q 37.3125 6.203125 41.140625 7.25 
Q 44.96875 8.296875 48.78125 10.40625 
L 48.78125 2.09375 
Q 45.015625 0.34375 40.984375 -0.53125 
Q 36.96875 -1.421875 32.421875 -1.421875 
Q 20.0625 -1.421875 12.78125 6.34375 
Q 5.515625 14.109375 5.515625 27.296875 
Q 5.515625 40.671875 12.859375 48.328125 
Q 20.21875 56 33.015625 56 
Q 37.15625 56 41.109375 55.140625 
Q 45.0625 54.296875 48.78125 52.59375 
z
" id="DejaVuSans-99"/>
     <path d="M 9.421875 75.984375 
L 18.40625 75.984375 
L 18.40625 0 
L 9.421875 0 
z
" id="DejaVuSans-108"/>
     <path d="M 45.40625 46.390625 
L 45.40625 75.984375 
L 54.390625 75.984375 
L 54.390625 0 
L 45.40625 0 
L 45.40625 8.203125 
Q 42.578125 3.328125 38.25 0.953125 
Q 33.9375 -1.421875 27.875 -1.421875 
Q 17.96875 -1.421875 11.734375 6.484375 
Q 5.515625 14.40625 5.515625 27.296875 
Q 5.515625 40.1875 11.734375 48.09375 
Q 17.96875 56 27.875 56 
Q 33.9375 56 38.25 53.625 
Q 42.578125 51.265625 45.40625 46.390625 
z
M 14.796875 27.296875 
Q 14.796875 17.390625 18.875 11.75 
Q 22.953125 6.109375 30.078125 6.109375 
Q 37.203125 6.109375 41.296875 11.75 
Q 45.40625 17.390625 45.40625 27.296875 
Q 45.40625 37.203125 41.296875 42.84375 
Q 37.203125 48.484375 30.078125 48.484375 
Q 22.953125 48.484375 18.875 42.84375 
Q 14.796875 37.203125 14.796875 27.296875 
z
" id="DejaVuSans-100"/>
     <path d="M 34.28125 27.484375 
Q 23.390625 27.484375 19.1875 25 
Q 14.984375 22.515625 14.984375 16.5 
Q 14.984375 11.71875 18.140625 8.90625 
Q 21.296875 6.109375 26.703125 6.109375 
Q 34.1875 6.109375 38.703125 11.40625 
Q 43.21875 16.703125 43.21875 25.484375 
L 43.21875 27.484375 
z
M 52.203125 31.203125 
L 52.203125 0 
L 43.21875 0 
L 43.21875 8.296875 
Q 40.140625 3.328125 35.546875 0.953125 
Q 30.953125 -1.421875 24.3125 -1.421875 
Q 15.921875 -1.421875 10.953125 3.296875 
Q 6 8.015625 6 15.921875 
Q 6 25.140625 12.171875 29.828125 
Q 18.359375 34.515625 30.609375 34.515625 
L 43.21875 34.515625 
L 43.21875 35.40625 
Q 43.21875 41.609375 39.140625 45 
Q 35.0625 48.390625 27.6875 48.390625 
Q 23 48.390625 18.546875 47.265625 
Q 14.109375 46.140625 10.015625 43.890625 
L 10.015625 52.203125 
Q 14.9375 54.109375 19.578125 55.046875 
Q 24.21875 56 28.609375 56 
Q 40.484375 56 46.34375 49.84375 
Q 52.203125 43.703125 52.203125 31.203125 
z
" id="DejaVuSans-97"/>
     <path d="M 54.890625 33.015625 
L 54.890625 0 
L 45.90625 0 
L 45.90625 32.71875 
Q 45.90625 40.484375 42.875 44.328125 
Q 39.84375 48.1875 33.796875 48.1875 
Q 26.515625 48.1875 22.3125 43.546875 
Q 18.109375 38.921875 18.109375 30.90625 
L 18.109375 0 
L 9.078125 0 
L 9.078125 54.6875 
L 18.109375 54.6875 
L 18.109375 46.1875 
Q 21.34375 51.125 25.703125 53.5625 
Q 30.078125 56 35.796875 56 
Q 45.21875 56 50.046875 50.171875 
Q 54.890625 44.34375 54.890625 33.015625 
z
" id="DejaVuSans-110"/>
     <path d="M 11.71875 12.40625 
L 22.015625 12.40625 
L 22.015625 4 
L 14.015625 -11.625 
L 7.71875 -11.625 
L 11.71875 4 
z
" id="DejaVuSans-44"/>
     <path id="DejaVuSans-32"/>
     <path d="M 52 44.1875 
Q 55.375 50.25 60.0625 53.125 
Q 64.75 56 71.09375 56 
Q 79.640625 56 84.28125 50.015625 
Q 88.921875 44.046875 88.921875 33.015625 
L 88.921875 0 
L 79.890625 0 
L 79.890625 32.71875 
Q 79.890625 40.578125 77.09375 44.375 
Q 74.3125 48.1875 68.609375 48.1875 
Q 61.625 48.1875 57.5625 43.546875 
Q 53.515625 38.921875 53.515625 30.90625 
L 53.515625 0 
L 44.484375 0 
L 44.484375 32.71875 
Q 44.484375 40.625 41.703125 44.40625 
Q 38.921875 48.1875 33.109375 48.1875 
Q 26.21875 48.1875 22.15625 43.53125 
Q 18.109375 38.875 18.109375 30.90625 
L 18.109375 0 
L 9.078125 0 
L 9.078125 54.6875 
L 18.109375 54.6875 
L 18.109375 46.1875 
Q 21.1875 51.21875 25.484375 53.609375 
Q 29.78125 56 35.6875 56 
Q 41.65625 56 45.828125 52.96875 
Q 50 49.953125 52 44.1875 
z
" id="DejaVuSans-109"/>
     <path d="M 5.515625 54.6875 
L 48.1875 54.6875 
L 48.1875 46.484375 
L 14.40625 7.171875 
L 48.1875 7.171875 
L 48.1875 0 
L 4.296875 0 
L 4.296875 8.203125 
L 38.09375 47.515625 
L 5.515625 47.515625 
z
" id="DejaVuSans-122"/>
    </defs>
    <use xlink:href="#DejaVuSans-101"/>
    <use x="61.523438" xlink:href="#DejaVuSans-117"/>
    <use x="124.902344" xlink:href="#DejaVuSans-99"/>
    <use x="179.882812" xlink:href="#DejaVuSans-108"/>
    <use x="207.666016" xlink:href="#DejaVuSans-105"/>
    <use x="235.449219" xlink:href="#DejaVuSans-100"/>
    <use x="298.925781" xlink:href="#DejaVuSans-101"/>
    <use x="360.449219" xlink:href="#DejaVuSans-97"/>
    <use x="421.728516" xlink:href="#DejaVuSans-110"/>
    <use x="485.107422" xlink:href="#DejaVuSans-44"/>
    <use x="516.894531" xlink:href="#DejaVuSans-32"/>
    <use x="548.681641" xlink:href="#DejaVuSans-108"/>
    <use x="576.464844" xlink:href="#DejaVuSans-105"/>
    <use x="604.248047" xlink:href="#DejaVuSans-110"/>
    <use x="667.626953" xlink:href="#DejaVuSans-101"/>
    <use x="729.150391" xlink:href="#DejaVuSans-97"/>
    <use x="790.429688" xlink:href="#DejaVuSans-114"/>
    <use x="831.542969" xlink:href="#DejaVuSans-32"/>
    <use x="863.330078" xlink:href="#DejaVuSans-109"/>
    <use x="960.742188" xlink:href="#DejaVuSans-111"/>
    <use x="1021.923828" xlink:href="#DejaVuSans-100"/>
    <use x="1085.400391" xlink:href="#DejaVuSans-101"/>
    <use x="1146.923828" xlink:href="#DejaVuSans-108"/>
    <use x="1174.707031" xlink:href="#DejaVuSans-44"/>
    <use x="1206.494141" xlink:href="#DejaVuSans-32"/>
    <use x="1238.28125" xlink:href="#DejaVuSans-110"/>
    <use x="1301.660156" xlink:href="#DejaVuSans-111"/>
    <use x="1362.841797" xlink:href="#DejaVuSans-114"/>
    <use x="1402.205078" xlink:href="#DejaVuSans-109"/>
    <use x="1499.617188" xlink:href="#DejaVuSans-97"/>
    <use x="1560.896484" xlink:href="#DejaVuSans-108"/>
    <use x="1588.679688" xlink:href="#DejaVuSans-105"/>
    <use x="1616.462891" xlink:href="#DejaVuSans-122"/>
    <use x="1668.953125" xlink:href="#DejaVuSans-101"/>
    <use x="1730.476562" xlink:href="#DejaVuSans-100"/>
   </g>
  </g>
 </g>
 <defs>
  <clipPath id="p05086c7258">
   <rect height="135.8" width="143.245833" x="44.55" y="34.6"/>
  </clipPath>
  <clipPath id="p267deff178">
   <rect height="135.8" width="143.245833" x="262.158333" y="34.6"/>
  </clipPath>
  <clipPath id="p54f84b0459">
   <rect height="135.8" width="143.245833" x="479.766667" y="34.6"/>
  </clipPath>
 </defs>
</svg>
