<?xml version="1.0" encoding="utf-8" standalone="no"?>
<!DOCTYPE svg PUBLIC "-//W3C//DTD SVG 1.1//EN"
  "http://www.w3.org/Graphics/SVG/1.1/DTD/svg11.dtd">
<!-- Created with matplotlib (https://matplotlib.org/) -->
<svg height="216pt" version="1.1" viewBox="0 0 648 216" width="648pt" xmlns="http://www.w3.org/2000/svg" xmlns:xlink="http://www.w3.org/1999/xlink">
 <metadata>
  <rdf:RDF xmlns:cc="http://creativecommons.org/ns#" xmlns:dc="http://purl.org/dc/elements/1.1/" xmlns:rdf="http://www.w3.org/1999/02/22-rdf-syntax-ns#">
   <cc:Work>
    <dc:type rdf:resource="http://purl.org/dc/dcmitype/StillImage"/>
    <dc:date>2021-04-22T11:29:15.102274</dc:date>
    <dc:format>image/svg+xml</dc:format>
    <dc:creator>
     <cc:Agent>
      <dc:title>Matplotlib v3.3.4, https://matplotlib.org/</dc:title>
     </cc:Agent>
    </dc:creator>
   </cc:Work>
  </rdf:RDF>
 </metadata>
 <defs>
  <style type="text/css">*{stroke-linecap:butt;stroke-linejoin:round;}</style>
 </defs>
 <g id="figure_1">
  <g id="patch_1">
   <path d="M 0 216 
L 648 216 
L 648 0 
L 0 0 
z
" style="fill:none;"/>
  </g>
  <g id="axes_1">
   <g id="patch_2">
    <path d="M 44.55 170.4 
L 191.9625 170.4 
L 191.9625 34.958033 
L 44.55 34.958033 
z
" style="fill:#ffffff;"/>
   </g>
   <g id="matplotlib.axis_1">
    <g id="xtick_1">
     <g id="line2d_1">
      <defs>
       <path d="M 0 0 
L 0 3.5 
" id="mf049e87c25" style="stroke:#000000;stroke-width:0.8;"/>
      </defs>
      <g>
       <use style="stroke:#000000;stroke-width:0.8;" x="44.55" xlink:href="#mf049e87c25" y="170.4"/>
      </g>
     </g>
     <g id="text_1">
      <!-- 0.000 -->
      <g transform="translate(30.235938 184.998437)scale(0.1 -0.1)">
       <defs>
        <path d="M 31.78125 66.40625 
Q 24.171875 66.40625 20.328125 58.90625 
Q 16.5 51.421875 16.5 36.375 
Q 16.5 21.390625 20.328125 13.890625 
Q 24.171875 6.390625 31.78125 6.390625 
Q 39.453125 6.390625 43.28125 13.890625 
Q 47.125 21.390625 47.125 36.375 
Q 47.125 51.421875 43.28125 58.90625 
Q 39.453125 66.40625 31.78125 66.40625 
z
M 31.78125 74.21875 
Q 44.046875 74.21875 50.515625 64.515625 
Q 56.984375 54.828125 56.984375 36.375 
Q 56.984375 17.96875 50.515625 8.265625 
Q 44.046875 -1.421875 31.78125 -1.421875 
Q 19.53125 -1.421875 13.0625 8.265625 
Q 6.59375 17.96875 6.59375 36.375 
Q 6.59375 54.828125 13.0625 64.515625 
Q 19.53125 74.21875 31.78125 74.21875 
z
" id="DejaVuSans-48"/>
        <path d="M 10.6875 12.40625 
L 21 12.40625 
L 21 0 
L 10.6875 0 
z
" id="DejaVuSans-46"/>
       </defs>
       <use xlink:href="#DejaVuSans-48"/>
       <use x="63.623047" xlink:href="#DejaVuSans-46"/>
       <use x="95.410156" xlink:href="#DejaVuSans-48"/>
       <use x="159.033203" xlink:href="#DejaVuSans-48"/>
       <use x="222.65625" xlink:href="#DejaVuSans-48"/>
      </g>
     </g>
    </g>
    <g id="xtick_2">
     <g id="line2d_2">
      <g>
       <use style="stroke:#000000;stroke-width:0.8;" x="81.403125" xlink:href="#mf049e87c25" y="170.4"/>
      </g>
     </g>
     <g id="text_2">
      <!-- 0.025 -->
      <g transform="translate(67.089062 184.998437)scale(0.1 -0.1)">
       <defs>
        <path d="M 19.1875 8.296875 
L 53.609375 8.296875 
L 53.609375 0 
L 7.328125 0 
L 7.328125 8.296875 
Q 12.9375 14.109375 22.625 23.890625 
Q 32.328125 33.6875 34.8125 36.53125 
Q 39.546875 41.84375 41.421875 45.53125 
Q 43.3125 49.21875 43.3125 52.78125 
Q 43.3125 58.59375 39.234375 62.25 
Q 35.15625 65.921875 28.609375 65.921875 
Q 23.96875 65.921875 18.8125 64.3125 
Q 13.671875 62.703125 7.8125 59.421875 
L 7.8125 69.390625 
Q 13.765625 71.78125 18.9375 73 
Q 24.125 74.21875 28.421875 74.21875 
Q 39.75 74.21875 46.484375 68.546875 
Q 53.21875 62.890625 53.21875 53.421875 
Q 53.21875 48.921875 51.53125 44.890625 
Q 49.859375 40.875 45.40625 35.40625 
Q 44.1875 33.984375 37.640625 27.21875 
Q 31.109375 20.453125 19.1875 8.296875 
z
" id="DejaVuSans-50"/>
        <path d="M 10.796875 72.90625 
L 49.515625 72.90625 
L 49.515625 64.59375 
L 19.828125 64.59375 
L 19.828125 46.734375 
Q 21.96875 47.46875 24.109375 47.828125 
Q 26.265625 48.1875 28.421875 48.1875 
Q 40.625 48.1875 47.75 41.5 
Q 54.890625 34.8125 54.890625 23.390625 
Q 54.890625 11.625 47.5625 5.09375 
Q 40.234375 -1.421875 26.90625 -1.421875 
Q 22.3125 -1.421875 17.546875 -0.640625 
Q 12.796875 0.140625 7.71875 1.703125 
L 7.71875 11.625 
Q 12.109375 9.234375 16.796875 8.0625 
Q 21.484375 6.890625 26.703125 6.890625 
Q 35.15625 6.890625 40.078125 11.328125 
Q 45.015625 15.765625 45.015625 23.390625 
Q 45.015625 31 40.078125 35.4375 
Q 35.15625 39.890625 26.703125 39.890625 
Q 22.75 39.890625 18.8125 39.015625 
Q 14.890625 38.140625 10.796875 36.28125 
z
" id="DejaVuSans-53"/>
       </defs>
       <use xlink:href="#DejaVuSans-48"/>
       <use x="63.623047" xlink:href="#DejaVuSans-46"/>
       <use x="95.410156" xlink:href="#DejaVuSans-48"/>
       <use x="159.033203" xlink:href="#DejaVuSans-50"/>
       <use x="222.65625" xlink:href="#DejaVuSans-53"/>
      </g>
     </g>
    </g>
    <g id="xtick_3">
     <g id="line2d_3">
      <g>
       <use style="stroke:#000000;stroke-width:0.8;" x="118.25625" xlink:href="#mf049e87c25" y="170.4"/>
      </g>
     </g>
     <g id="text_3">
      <!-- 0.050 -->
      <g transform="translate(103.942187 184.998437)scale(0.1 -0.1)">
       <use xlink:href="#DejaVuSans-48"/>
       <use x="63.623047" xlink:href="#DejaVuSans-46"/>
       <use x="95.410156" xlink:href="#DejaVuSans-48"/>
       <use x="159.033203" xlink:href="#DejaVuSans-53"/>
       <use x="222.65625" xlink:href="#DejaVuSans-48"/>
      </g>
     </g>
    </g>
    <g id="xtick_4">
     <g id="line2d_4">
      <g>
       <use style="stroke:#000000;stroke-width:0.8;" x="155.109375" xlink:href="#mf049e87c25" y="170.4"/>
      </g>
     </g>
     <g id="text_4">
      <!-- 0.075 -->
      <g transform="translate(140.795313 184.998437)scale(0.1 -0.1)">
       <defs>
        <path d="M 8.203125 72.90625 
L 55.078125 72.90625 
L 55.078125 68.703125 
L 28.609375 0 
L 18.3125 0 
L 43.21875 64.59375 
L 8.203125 64.59375 
z
" id="DejaVuSans-55"/>
       </defs>
       <use xlink:href="#DejaVuSans-48"/>
       <use x="63.623047" xlink:href="#DejaVuSans-46"/>
       <use x="95.410156" xlink:href="#DejaVuSans-48"/>
       <use x="159.033203" xlink:href="#DejaVuSans-55"/>
       <use x="222.65625" xlink:href="#DejaVuSans-53"/>
      </g>
     </g>
    </g>
    <g id="xtick_5">
     <g id="line2d_5">
      <g>
       <use style="stroke:#000000;stroke-width:0.8;" x="191.9625" xlink:href="#mf049e87c25" y="170.4"/>
      </g>
     </g>
     <g id="text_5">
      <!-- 0.100 -->
      <g transform="translate(177.648438 184.998437)scale(0.1 -0.1)">
       <defs>
        <path d="M 12.40625 8.296875 
L 28.515625 8.296875 
L 28.515625 63.921875 
L 10.984375 60.40625 
L 10.984375 69.390625 
L 28.421875 72.90625 
L 38.28125 72.90625 
L 38.28125 8.296875 
L 54.390625 8.296875 
L 54.390625 0 
L 12.40625 0 
z
" id="DejaVuSans-49"/>
       </defs>
       <use xlink:href="#DejaVuSans-48"/>
       <use x="63.623047" xlink:href="#DejaVuSans-46"/>
       <use x="95.410156" xlink:href="#DejaVuSans-49"/>
       <use x="159.033203" xlink:href="#DejaVuSans-48"/>
       <use x="222.65625" xlink:href="#DejaVuSans-48"/>
      </g>
     </g>
    </g>
    <g id="text_6">
     <!-- $\theta_0$ -->
     <g transform="translate(112.80625 198.676562)scale(0.1 -0.1)">
      <defs>
       <path d="M 45.515625 34.671875 
L 14.453125 34.671875 
Q 12.359375 20.0625 14.5 13.875 
Q 17.1875 6.25 24.46875 6.25 
Q 31.78125 6.25 37.359375 13.921875 
Q 42.234375 20.65625 45.515625 34.671875 
z
M 47.015625 42.96875 
Q 48.34375 56.84375 46.625 61.71875 
Q 43.953125 69.4375 36.765625 69.4375 
Q 29.296875 69.4375 23.828125 61.8125 
Q 19.53125 55.671875 16.15625 42.96875 
z
M 38.1875 76.765625 
Q 49.90625 76.765625 54.59375 66.40625 
Q 59.28125 56.109375 55.71875 37.84375 
Q 52.203125 19.625 43.453125 9.28125 
Q 34.765625 -1.125 23.046875 -1.125 
Q 11.28125 -1.125 6.640625 9.28125 
Q 2 19.625 5.515625 37.84375 
Q 9.078125 56.109375 17.71875 66.40625 
Q 26.421875 76.765625 38.1875 76.765625 
z
" id="DejaVuSans-Oblique-952"/>
      </defs>
      <use transform="translate(0 0.234375)" xlink:href="#DejaVuSans-Oblique-952"/>
      <use transform="translate(61.181641 -16.171875)scale(0.7)" xlink:href="#DejaVuSans-48"/>
     </g>
    </g>
   </g>
   <g id="matplotlib.axis_2">
    <g id="ytick_1">
     <g id="line2d_6">
      <defs>
       <path d="M 0 0 
L -3.5 0 
" id="m9044741e68" style="stroke:#000000;stroke-width:0.8;"/>
      </defs>
      <g>
       <use style="stroke:#000000;stroke-width:0.8;" x="44.55" xlink:href="#m9044741e68" y="164.95958"/>
      </g>
     </g>
     <g id="text_7">
      <!-- 4 -->
      <g transform="translate(31.1875 168.758799)scale(0.1 -0.1)">
       <defs>
        <path d="M 37.796875 64.3125 
L 12.890625 25.390625 
L 37.796875 25.390625 
z
M 35.203125 72.90625 
L 47.609375 72.90625 
L 47.609375 25.390625 
L 58.015625 25.390625 
L 58.015625 17.1875 
L 47.609375 17.1875 
L 47.609375 0 
L 37.796875 0 
L 37.796875 17.1875 
L 4.890625 17.1875 
L 4.890625 26.703125 
z
" id="DejaVuSans-52"/>
       </defs>
       <use xlink:href="#DejaVuSans-52"/>
      </g>
     </g>
    </g>
    <g id="ytick_2">
     <g id="line2d_7">
      <g>
       <use style="stroke:#000000;stroke-width:0.8;" x="44.55" xlink:href="#m9044741e68" y="129.95285"/>
      </g>
     </g>
     <g id="text_8">
      <!-- 6 -->
      <g transform="translate(31.1875 133.752068)scale(0.1 -0.1)">
       <defs>
        <path d="M 33.015625 40.375 
Q 26.375 40.375 22.484375 35.828125 
Q 18.609375 31.296875 18.609375 23.390625 
Q 18.609375 15.53125 22.484375 10.953125 
Q 26.375 6.390625 33.015625 6.390625 
Q 39.65625 6.390625 43.53125 10.953125 
Q 47.40625 15.53125 47.40625 23.390625 
Q 47.40625 31.296875 43.53125 35.828125 
Q 39.65625 40.375 33.015625 40.375 
z
M 52.59375 71.296875 
L 52.59375 62.3125 
Q 48.875 64.0625 45.09375 64.984375 
Q 41.3125 65.921875 37.59375 65.921875 
Q 27.828125 65.921875 22.671875 59.328125 
Q 17.53125 52.734375 16.796875 39.40625 
Q 19.671875 43.65625 24.015625 45.921875 
Q 28.375 48.1875 33.59375 48.1875 
Q 44.578125 48.1875 50.953125 41.515625 
Q 57.328125 34.859375 57.328125 23.390625 
Q 57.328125 12.15625 50.6875 5.359375 
Q 44.046875 -1.421875 33.015625 -1.421875 
Q 20.359375 -1.421875 13.671875 8.265625 
Q 6.984375 17.96875 6.984375 36.375 
Q 6.984375 53.65625 15.1875 63.9375 
Q 23.390625 74.21875 37.203125 74.21875 
Q 40.921875 74.21875 44.703125 73.484375 
Q 48.484375 72.75 52.59375 71.296875 
z
" id="DejaVuSans-54"/>
       </defs>
       <use xlink:href="#DejaVuSans-54"/>
      </g>
     </g>
    </g>
    <g id="ytick_3">
     <g id="line2d_8">
      <g>
       <use style="stroke:#000000;stroke-width:0.8;" x="44.55" xlink:href="#m9044741e68" y="94.946119"/>
      </g>
     </g>
     <g id="text_9">
      <!-- 8 -->
      <g transform="translate(31.1875 98.745338)scale(0.1 -0.1)">
       <defs>
        <path d="M 31.78125 34.625 
Q 24.75 34.625 20.71875 30.859375 
Q 16.703125 27.09375 16.703125 20.515625 
Q 16.703125 13.921875 20.71875 10.15625 
Q 24.75 6.390625 31.78125 6.390625 
Q 38.8125 6.390625 42.859375 10.171875 
Q 46.921875 13.96875 46.921875 20.515625 
Q 46.921875 27.09375 42.890625 30.859375 
Q 38.875 34.625 31.78125 34.625 
z
M 21.921875 38.8125 
Q 15.578125 40.375 12.03125 44.71875 
Q 8.5 49.078125 8.5 55.328125 
Q 8.5 64.0625 14.71875 69.140625 
Q 20.953125 74.21875 31.78125 74.21875 
Q 42.671875 74.21875 48.875 69.140625 
Q 55.078125 64.0625 55.078125 55.328125 
Q 55.078125 49.078125 51.53125 44.71875 
Q 48 40.375 41.703125 38.8125 
Q 48.828125 37.15625 52.796875 32.3125 
Q 56.78125 27.484375 56.78125 20.515625 
Q 56.78125 9.90625 50.3125 4.234375 
Q 43.84375 -1.421875 31.78125 -1.421875 
Q 19.734375 -1.421875 13.25 4.234375 
Q 6.78125 9.90625 6.78125 20.515625 
Q 6.78125 27.484375 10.78125 32.3125 
Q 14.796875 37.15625 21.921875 38.8125 
z
M 18.3125 54.390625 
Q 18.3125 48.734375 21.84375 45.5625 
Q 25.390625 42.390625 31.78125 42.390625 
Q 38.140625 42.390625 41.71875 45.5625 
Q 45.3125 48.734375 45.3125 54.390625 
Q 45.3125 60.0625 41.71875 63.234375 
Q 38.140625 66.40625 31.78125 66.40625 
Q 25.390625 66.40625 21.84375 63.234375 
Q 18.3125 60.0625 18.3125 54.390625 
z
" id="DejaVuSans-56"/>
       </defs>
       <use xlink:href="#DejaVuSans-56"/>
      </g>
     </g>
    </g>
    <g id="ytick_4">
     <g id="line2d_9">
      <g>
       <use style="stroke:#000000;stroke-width:0.8;" x="44.55" xlink:href="#m9044741e68" y="59.939388"/>
      </g>
     </g>
     <g id="text_10">
      <!-- 10 -->
      <g transform="translate(24.825 63.738607)scale(0.1 -0.1)">
       <use xlink:href="#DejaVuSans-49"/>
       <use x="63.623047" xlink:href="#DejaVuSans-48"/>
      </g>
     </g>
    </g>
    <g id="text_11">
     <!-- Posterior -->
     <g transform="translate(18.745313 124.772766)rotate(-90)scale(0.1 -0.1)">
      <defs>
       <path d="M 19.671875 64.796875 
L 19.671875 37.40625 
L 32.078125 37.40625 
Q 38.96875 37.40625 42.71875 40.96875 
Q 46.484375 44.53125 46.484375 51.125 
Q 46.484375 57.671875 42.71875 61.234375 
Q 38.96875 64.796875 32.078125 64.796875 
z
M 9.8125 72.90625 
L 32.078125 72.90625 
Q 44.34375 72.90625 50.609375 67.359375 
Q 56.890625 61.8125 56.890625 51.125 
Q 56.890625 40.328125 50.609375 34.8125 
Q 44.34375 29.296875 32.078125 29.296875 
L 19.671875 29.296875 
L 19.671875 0 
L 9.8125 0 
z
" id="DejaVuSans-80"/>
       <path d="M 30.609375 48.390625 
Q 23.390625 48.390625 19.1875 42.75 
Q 14.984375 37.109375 14.984375 27.296875 
Q 14.984375 17.484375 19.15625 11.84375 
Q 23.34375 6.203125 30.609375 6.203125 
Q 37.796875 6.203125 41.984375 11.859375 
Q 46.1875 17.53125 46.1875 27.296875 
Q 46.1875 37.015625 41.984375 42.703125 
Q 37.796875 48.390625 30.609375 48.390625 
z
M 30.609375 56 
Q 42.328125 56 49.015625 48.375 
Q 55.71875 40.765625 55.71875 27.296875 
Q 55.71875 13.875 49.015625 6.21875 
Q 42.328125 -1.421875 30.609375 -1.421875 
Q 18.84375 -1.421875 12.171875 6.21875 
Q 5.515625 13.875 5.515625 27.296875 
Q 5.515625 40.765625 12.171875 48.375 
Q 18.84375 56 30.609375 56 
z
" id="DejaVuSans-111"/>
       <path d="M 44.28125 53.078125 
L 44.28125 44.578125 
Q 40.484375 46.53125 36.375 47.5 
Q 32.28125 48.484375 27.875 48.484375 
Q 21.1875 48.484375 17.84375 46.4375 
Q 14.5 44.390625 14.5 40.28125 
Q 14.5 37.15625 16.890625 35.375 
Q 19.28125 33.59375 26.515625 31.984375 
L 29.59375 31.296875 
Q 39.15625 29.25 43.1875 25.515625 
Q 47.21875 21.78125 47.21875 15.09375 
Q 47.21875 7.46875 41.1875 3.015625 
Q 35.15625 -1.421875 24.609375 -1.421875 
Q 20.21875 -1.421875 15.453125 -0.5625 
Q 10.6875 0.296875 5.421875 2 
L 5.421875 11.28125 
Q 10.40625 8.6875 15.234375 7.390625 
Q 20.0625 6.109375 24.8125 6.109375 
Q 31.15625 6.109375 34.5625 8.28125 
Q 37.984375 10.453125 37.984375 14.40625 
Q 37.984375 18.0625 35.515625 20.015625 
Q 33.0625 21.96875 24.703125 23.78125 
L 21.578125 24.515625 
Q 13.234375 26.265625 9.515625 29.90625 
Q 5.8125 33.546875 5.8125 39.890625 
Q 5.8125 47.609375 11.28125 51.796875 
Q 16.75 56 26.8125 56 
Q 31.78125 56 36.171875 55.265625 
Q 40.578125 54.546875 44.28125 53.078125 
z
" id="DejaVuSans-115"/>
       <path d="M 18.3125 70.21875 
L 18.3125 54.6875 
L 36.8125 54.6875 
L 36.8125 47.703125 
L 18.3125 47.703125 
L 18.3125 18.015625 
Q 18.3125 11.328125 20.140625 9.421875 
Q 21.96875 7.515625 27.59375 7.515625 
L 36.8125 7.515625 
L 36.8125 0 
L 27.59375 0 
Q 17.1875 0 13.234375 3.875 
Q 9.28125 7.765625 9.28125 18.015625 
L 9.28125 47.703125 
L 2.6875 47.703125 
L 2.6875 54.6875 
L 9.28125 54.6875 
L 9.28125 70.21875 
z
" id="DejaVuSans-116"/>
       <path d="M 56.203125 29.59375 
L 56.203125 25.203125 
L 14.890625 25.203125 
Q 15.484375 15.921875 20.484375 11.0625 
Q 25.484375 6.203125 34.421875 6.203125 
Q 39.59375 6.203125 44.453125 7.46875 
Q 49.3125 8.734375 54.109375 11.28125 
L 54.109375 2.78125 
Q 49.265625 0.734375 44.1875 -0.34375 
Q 39.109375 -1.421875 33.890625 -1.421875 
Q 20.796875 -1.421875 13.15625 6.1875 
Q 5.515625 13.8125 5.515625 26.8125 
Q 5.515625 40.234375 12.765625 48.109375 
Q 20.015625 56 32.328125 56 
Q 43.359375 56 49.78125 48.890625 
Q 56.203125 41.796875 56.203125 29.59375 
z
M 47.21875 32.234375 
Q 47.125 39.59375 43.09375 43.984375 
Q 39.0625 48.390625 32.421875 48.390625 
Q 24.90625 48.390625 20.390625 44.140625 
Q 15.875 39.890625 15.1875 32.171875 
z
" id="DejaVuSans-101"/>
       <path d="M 41.109375 46.296875 
Q 39.59375 47.171875 37.8125 47.578125 
Q 36.03125 48 33.890625 48 
Q 26.265625 48 22.1875 43.046875 
Q 18.109375 38.09375 18.109375 28.8125 
L 18.109375 0 
L 9.078125 0 
L 9.078125 54.6875 
L 18.109375 54.6875 
L 18.109375 46.1875 
Q 20.953125 51.171875 25.484375 53.578125 
Q 30.03125 56 36.53125 56 
Q 37.453125 56 38.578125 55.875 
Q 39.703125 55.765625 41.0625 55.515625 
z
" id="DejaVuSans-114"/>
       <path d="M 9.421875 54.6875 
L 18.40625 54.6875 
L 18.40625 0 
L 9.421875 0 
z
M 9.421875 75.984375 
L 18.40625 75.984375 
L 18.40625 64.59375 
L 9.421875 64.59375 
z
" id="DejaVuSans-105"/>
      </defs>
      <use xlink:href="#DejaVuSans-80"/>
      <use x="56.677734" xlink:href="#DejaVuSans-111"/>
      <use x="117.859375" xlink:href="#DejaVuSans-115"/>
      <use x="169.958984" xlink:href="#DejaVuSans-116"/>
      <use x="209.167969" xlink:href="#DejaVuSans-101"/>
      <use x="270.691406" xlink:href="#DejaVuSans-114"/>
      <use x="311.804688" xlink:href="#DejaVuSans-105"/>
      <use x="339.587891" xlink:href="#DejaVuSans-111"/>
      <use x="400.769531" xlink:href="#DejaVuSans-114"/>
     </g>
    </g>
   </g>
   <g id="line2d_10">
    <path clip-path="url(#p9b11a930c3)" d="M 44.55 135.3522 
L 47.50811 117.447258 
L 49.480184 106.823995 
L 50.959239 99.792173 
L 52.438294 93.673512 
L 53.917349 88.524443 
L 55.396405 84.359948 
L 56.382441 82.119979 
L 57.368478 80.291185 
L 58.354515 78.851149 
L 59.340552 77.772166 
L 60.326589 77.022239 
L 61.312625 76.566112 
L 62.298662 76.366287 
L 63.284699 76.384014 
L 64.270736 76.580192 
L 65.749791 77.124861 
L 67.721865 78.126591 
L 71.172993 79.918006 
L 72.652048 80.473005 
L 74.131104 80.805763 
L 75.610159 80.872364 
L 77.089214 80.644885 
L 78.568269 80.111033 
L 80.047324 79.273651 
L 81.52638 78.150037 
L 83.005435 76.77096 
L 84.977508 74.610341 
L 87.935619 70.949712 
L 91.879766 66.082756 
L 93.851839 63.983663 
L 95.823913 62.257569 
L 97.302968 61.246665 
L 98.782023 60.489234 
L 100.261079 59.977531 
L 101.740134 59.689166 
L 103.712207 59.59033 
L 106.177299 59.770947 
L 111.107483 60.245829 
L 113.079557 60.183526 
L 115.05163 59.870359 
L 117.023704 59.278308 
L 118.995778 58.410526 
L 120.967851 57.297463 
L 123.432943 55.642443 
L 131.814256 49.717914 
L 133.786329 48.70562 
L 135.758403 47.979746 
L 137.237458 47.650938 
L 138.716513 47.521749 
L 140.195569 47.599753 
L 141.674624 47.887411 
L 143.153679 48.382547 
L 144.632734 49.07901 
L 146.604808 50.304176 
L 148.576881 51.841056 
L 150.548955 53.654029 
L 153.014047 56.244286 
L 155.972157 59.696645 
L 163.860452 69.13637 
L 166.818562 72.193429 
L 174.213838 79.428702 
L 175.692893 81.349283 
L 177.171948 83.66595 
L 178.651003 86.490222 
L 180.130059 89.924099 
L 181.609114 94.05138 
L 183.088169 98.92971 
L 184.567224 104.584175 
L 186.046279 111.00309 
L 188.018353 120.658991 
L 190.483445 134.165997 
L 191.9625 142.796531 
L 191.9625 142.796531 
" style="fill:none;stroke:#1f77b4;stroke-linecap:square;stroke-width:1.5;"/>
   </g>
   <g id="line2d_11">
    <path clip-path="url(#p9b11a930c3)" d="M 103.515 170.4 
L 103.515 34.958033 
" style="fill:none;stroke:#808080;stroke-dasharray:1.5,2.475;stroke-dashoffset:0;stroke-width:1.5;"/>
   </g>
   <g id="line2d_12">
    <path clip-path="url(#p9b11a930c3)" d="M 44.55 145.685067 
L 48.001129 125.736248 
L 50.466221 112.682314 
L 52.438294 103.294222 
L 54.410368 94.983531 
L 56.382441 87.796536 
L 57.861497 83.133565 
L 59.340552 79.064398 
L 60.819607 75.549634 
L 62.298662 72.542505 
L 63.777717 69.992421 
L 65.256773 67.847686 
L 66.735828 66.057323 
L 68.214883 64.572082 
L 69.693938 63.34479 
L 71.666012 62.031835 
L 73.638085 60.994895 
L 76.596196 59.743742 
L 81.52638 57.723825 
L 83.991472 56.43755 
L 85.963545 55.18766 
L 88.428637 53.328745 
L 91.386747 50.734956 
L 96.80995 45.842631 
L 98.782023 44.43624 
L 100.261079 43.652261 
L 101.740134 43.159642 
L 102.726171 43.013998 
L 103.712207 43.024863 
L 104.698244 43.197058 
L 105.684281 43.531446 
L 107.163336 44.328687 
L 108.642391 45.45321 
L 110.121446 46.855346 
L 112.09352 49.038271 
L 117.516722 55.341643 
L 119.488796 57.17313 
L 120.967851 58.250025 
L 122.446906 59.047796 
L 123.925962 59.569646 
L 125.405017 59.84092 
L 126.884072 59.905607 
L 128.856145 59.771017 
L 133.786329 59.26718 
L 135.758403 59.3266 
L 137.730477 59.633336 
L 139.70255 60.179926 
L 142.167642 61.114635 
L 148.083863 63.485479 
L 150.548955 64.135269 
L 153.014047 64.498056 
L 155.972157 64.657875 
L 159.916304 64.869633 
L 161.888378 65.217342 
L 163.367433 65.675543 
L 164.846488 66.352529 
L 166.325543 67.290338 
L 167.804599 68.529146 
L 169.283654 70.108238 
L 170.762709 72.067098 
L 172.241764 74.446208 
L 173.720819 77.287166 
L 175.199875 80.631824 
L 176.67893 84.520274 
L 178.157985 88.987713 
L 179.63704 94.060426 
L 181.609114 101.785335 
L 183.581187 110.586585 
L 185.553261 120.373112 
L 188.018353 133.728693 
L 191.9625 156.486084 
L 191.9625 156.486084 
" style="fill:none;stroke:#ff7f0e;stroke-linecap:square;stroke-width:1.5;"/>
   </g>
   <g id="line2d_13">
    <path clip-path="url(#p9b11a930c3)" d="M 103.515 170.4 
L 103.515 34.958033 
" style="fill:none;stroke:#808080;stroke-dasharray:1.5,2.475;stroke-dashoffset:0;stroke-width:1.5;"/>
   </g>
   <g id="line2d_14">
    <path clip-path="url(#p9b11a930c3)" d="M 44.55 131.987985 
L 48.001129 110.37945 
L 50.466221 96.534989 
L 52.438294 86.807845 
L 53.917349 80.403551 
L 55.396405 74.796743 
L 56.87546 69.987888 
L 58.354515 65.953607 
L 59.83357 62.651357 
L 61.312625 60.02466 
L 62.791681 58.008344 
L 63.777717 56.969156 
L 64.763754 56.149963 
L 65.749791 55.530637 
L 66.735828 55.091828 
L 68.214883 54.732266 
L 69.693938 54.680827 
L 71.172993 54.886495 
L 72.652048 55.303879 
L 74.624122 56.120074 
L 77.089214 57.437601 
L 81.033361 59.876786 
L 84.977508 62.23039 
L 87.4426 63.444668 
L 89.414674 64.207364 
L 91.386747 64.763941 
L 93.358821 65.116869 
L 95.823913 65.306981 
L 98.782023 65.272888 
L 107.656355 64.959345 
L 112.586538 65.158559 
L 118.502759 65.373505 
L 123.925962 65.311956 
L 131.814256 65.243771 
L 136.251421 65.138214 
L 139.209532 64.837867 
L 141.674624 64.385501 
L 144.632734 63.622953 
L 151.041973 61.836019 
L 153.507065 61.443889 
L 155.479139 61.358671 
L 157.451212 61.51099 
L 159.423286 61.918961 
L 161.39536 62.594927 
L 163.367433 63.555449 
L 165.339507 64.832158 
L 166.818562 66.029729 
L 168.297617 67.470383 
L 169.776672 69.198001 
L 171.255727 71.264794 
L 172.734783 73.728942 
L 174.213838 76.651128 
L 175.692893 80.090212 
L 177.171948 84.098353 
L 178.651003 88.716016 
L 180.130059 93.967268 
L 182.102132 101.957673 
L 184.074206 111.022587 
L 186.539298 123.655196 
L 189.497408 140.154451 
L 191.9625 154.369648 
L 191.9625 154.369648 
" style="fill:none;stroke:#2ca02c;stroke-linecap:square;stroke-width:1.5;"/>
   </g>
   <g id="line2d_15">
    <path clip-path="url(#p9b11a930c3)" d="M 103.515 170.4 
L 103.515 34.958033 
" style="fill:none;stroke:#808080;stroke-dasharray:1.5,2.475;stroke-dashoffset:0;stroke-width:1.5;"/>
   </g>
   <g id="line2d_16">
    <path clip-path="url(#p9b11a930c3)" d="M 44.55 153.947146 
L 48.987166 128.194791 
L 51.452258 115.327211 
L 53.424331 106.295345 
L 54.903386 100.387609 
L 56.382441 95.267831 
L 57.861497 90.938806 
L 59.340552 87.370014 
L 60.819607 84.501736 
L 62.298662 82.250913 
L 63.777717 80.518167 
L 65.256773 79.195361 
L 66.735828 78.173058 
L 68.707901 77.099291 
L 74.624122 74.113047 
L 77.089214 72.514127 
L 80.047324 70.300733 
L 84.977508 66.539035 
L 86.949582 65.283731 
L 88.921656 64.30044 
L 90.400711 63.777991 
L 91.879766 63.456501 
L 93.358821 63.339783 
L 94.837876 63.420849 
L 96.80995 63.804744 
L 98.782023 64.439591 
L 102.233152 65.86609 
L 105.191263 67.025734 
L 107.163336 67.57558 
L 108.642391 67.807553 
L 110.121446 67.855106 
L 111.600502 67.702119 
L 113.079557 67.343141 
L 114.558612 66.783538 
L 116.530686 65.753955 
L 118.502759 64.459841 
L 121.46087 62.217646 
L 125.405017 59.226564 
L 127.37709 57.973732 
L 129.349164 57.006857 
L 130.828219 56.51002 
L 132.307274 56.22865 
L 133.786329 56.169191 
L 135.265385 56.326956 
L 136.74444 56.686052 
L 138.716513 57.430569 
L 141.181605 58.657855 
L 146.111789 61.210007 
L 148.083863 61.906365 
L 149.562918 62.194799 
L 151.041973 62.238166 
L 152.521028 62.007007 
L 154.000084 61.483747 
L 155.479139 60.664241 
L 156.958194 59.559022 
L 158.437249 58.194222 
L 160.409323 56.046254 
L 167.31158 48.050909 
L 168.790635 46.92952 
L 169.776672 46.443213 
L 170.762709 46.211307 
L 171.748746 46.271951 
L 172.734783 46.661767 
L 173.720819 47.415031 
L 174.706856 48.56283 
L 175.692893 50.132242 
L 176.67893 52.145553 
L 177.664967 54.61954 
L 178.651003 57.56486 
L 180.130059 62.873525 
L 181.609114 69.234176 
L 183.088169 76.59466 
L 185.060242 87.808091 
L 187.032316 100.345361 
L 189.990426 120.798956 
L 191.9625 134.903995 
L 191.9625 134.903995 
" style="fill:none;stroke:#d62728;stroke-linecap:square;stroke-width:1.5;"/>
   </g>
   <g id="line2d_17">
    <path clip-path="url(#p9b11a930c3)" d="M 103.515 170.4 
L 103.515 34.958033 
" style="fill:none;stroke:#808080;stroke-dasharray:1.5,2.475;stroke-dashoffset:0;stroke-width:1.5;"/>
   </g>
   <g id="line2d_18">
    <path clip-path="url(#p9b11a930c3)" d="M 44.55 141.276515 
L 48.494147 116.168706 
L 50.959239 102.061118 
L 52.931313 92.169316 
L 54.410368 85.697375 
L 55.889423 80.081296 
L 57.368478 75.320497 
L 58.847533 71.380078 
L 60.326589 68.19607 
L 61.805644 65.682456 
L 63.284699 63.739263 
L 64.763754 62.260963 
L 66.242809 61.144408 
L 67.721865 60.295646 
L 69.693938 59.445483 
L 72.15903 58.649407 
L 75.610159 57.805799 
L 78.568269 57.317672 
L 81.033361 57.144792 
L 83.498453 57.233238 
L 85.963545 57.58046 
L 88.921656 58.248949 
L 94.344858 59.534612 
L 96.80995 59.843727 
L 98.782023 59.878971 
L 100.754097 59.710148 
L 103.219189 59.235124 
L 106.177299 58.392752 
L 110.614465 57.076828 
L 112.586538 56.685983 
L 114.558612 56.522142 
L 116.037667 56.581287 
L 117.516722 56.811865 
L 118.995778 57.217825 
L 120.967851 58.020984 
L 122.939925 59.087098 
L 125.405017 60.694137 
L 133.786329 66.444696 
L 136.251421 67.714103 
L 138.223495 68.51155 
L 140.688587 69.238532 
L 143.153679 69.690311 
L 145.618771 69.898199 
L 148.083863 69.883317 
L 150.548955 69.649639 
L 153.014047 69.189048 
L 155.479139 68.497628 
L 158.437249 67.400318 
L 164.35347 65.059724 
L 165.832525 64.712044 
L 167.31158 64.593113 
L 168.297617 64.681083 
L 169.283654 64.932564 
L 170.269691 65.373694 
L 171.255727 66.030686 
L 172.241764 66.929312 
L 173.227801 68.094335 
L 174.213838 69.548929 
L 175.199875 71.31407 
L 176.185911 73.407937 
L 177.664967 77.19641 
L 179.144022 81.789723 
L 180.623077 87.197265 
L 182.102132 93.402323 
L 184.074206 102.83588 
L 186.046279 113.425295 
L 188.511371 127.887844 
L 191.9625 149.262776 
L 191.9625 149.262776 
" style="fill:none;stroke:#9467bd;stroke-linecap:square;stroke-width:1.5;"/>
   </g>
   <g id="line2d_19">
    <path clip-path="url(#p9b11a930c3)" d="M 103.515 170.4 
L 103.515 34.958033 
" style="fill:none;stroke:#808080;stroke-dasharray:1.5,2.475;stroke-dashoffset:0;stroke-width:1.5;"/>
   </g>
   <g id="line2d_20">
    <path clip-path="url(#p9b11a930c3)" d="M 44.55 146.48133 
L 48.987166 118.638868 
L 51.452258 104.619515 
L 53.424331 94.66562 
L 55.396405 86.033592 
L 56.87546 80.474189 
L 58.354515 75.691828 
L 59.83357 71.647328 
L 61.312625 68.276463 
L 62.791681 65.496524 
L 64.270736 63.213736 
L 65.749791 61.330915 
L 67.228846 59.754803 
L 69.20092 57.989369 
L 71.666012 56.119641 
L 74.624122 54.183735 
L 77.089214 52.845399 
L 79.061288 52.057927 
L 80.540343 51.703874 
L 82.019398 51.606765 
L 83.498453 51.810499 
L 84.977508 52.34891 
L 86.456564 53.241465 
L 87.935619 54.490167 
L 89.414674 56.077892 
L 90.893729 57.968287 
L 92.865803 60.863784 
L 96.316931 66.466745 
L 99.275042 71.113809 
L 101.247115 73.785324 
L 102.726171 75.451519 
L 104.205226 76.775691 
L 105.684281 77.72951 
L 106.670318 78.154005 
L 107.656355 78.410657 
L 108.642391 78.504308 
L 109.628428 78.442798 
L 111.107483 78.083059 
L 112.586538 77.441958 
L 114.065594 76.570077 
L 116.037667 75.140471 
L 118.995778 72.663043 
L 128.856145 64.166019 
L 139.70255 55.160749 
L 142.167642 53.5205 
L 144.139716 52.485952 
L 146.111789 51.743204 
L 148.083863 51.306732 
L 150.055936 51.163172 
L 152.02801 51.274939 
L 154.493102 51.692114 
L 157.451212 52.459028 
L 160.902341 53.584268 
L 163.367433 54.576459 
L 165.339507 55.58537 
L 166.818562 56.544139 
L 168.297617 57.746344 
L 169.776672 59.264166 
L 171.255727 61.174592 
L 172.734783 63.555506 
L 174.213838 66.481362 
L 175.692893 70.018637 
L 177.171948 74.221306 
L 178.651003 79.126599 
L 180.130059 84.751323 
L 182.102132 93.355327 
L 184.074206 103.139229 
L 186.539298 116.771241 
L 189.497408 134.538605 
L 191.9625 149.803576 
L 191.9625 149.803576 
" style="fill:none;stroke:#8c564b;stroke-linecap:square;stroke-width:1.5;"/>
   </g>
   <g id="line2d_21">
    <path clip-path="url(#p9b11a930c3)" d="M 103.515 170.4 
L 103.515 34.958033 
" style="fill:none;stroke:#808080;stroke-dasharray:1.5,2.475;stroke-dashoffset:0;stroke-width:1.5;"/>
   </g>
   <g id="line2d_22">
    <path clip-path="url(#p9b11a930c3)" d="M 44.55 138.574229 
L 48.494147 114.004398 
L 50.959239 100.116256 
L 52.931313 90.245295 
L 54.903386 81.649716 
L 56.382441 76.081199 
L 57.861497 71.261362 
L 59.340552 67.160033 
L 60.819607 63.727253 
L 62.298662 60.898566 
L 63.777717 58.60064 
L 65.256773 56.756757 
L 66.735828 55.291793 
L 68.214883 54.136367 
L 69.693938 53.229953 
L 71.666012 52.324556 
L 73.638085 51.689332 
L 75.610159 51.27385 
L 77.582232 51.056813 
L 79.554306 51.037143 
L 81.52638 51.22388 
L 83.498453 51.626581 
L 85.470527 52.2476 
L 87.4426 53.077251 
L 89.907692 54.371121 
L 92.865803 56.204674 
L 105.684281 64.567724 
L 108.642391 66.100757 
L 111.107483 67.128136 
L 113.079557 67.71854 
L 115.05163 68.039284 
L 116.530686 68.06645 
L 118.009741 67.885498 
L 119.488796 67.479542 
L 120.967851 66.839634 
L 122.446906 65.966701 
L 123.925962 64.872787 
L 125.898035 63.112818 
L 128.363127 60.554459 
L 134.279348 54.168434 
L 136.251421 52.432455 
L 137.730477 51.383701 
L 139.209532 50.593219 
L 140.688587 50.087366 
L 142.167642 49.881877 
L 143.646697 49.981807 
L 145.125753 50.381995 
L 146.604808 51.068019 
L 148.083863 52.017555 
L 149.562918 53.202083 
L 151.534992 55.090038 
L 154.000084 57.829712 
L 156.958194 61.474698 
L 161.888378 67.950653 
L 166.325543 74.115394 
L 168.790635 77.861646 
L 171.255727 82.050938 
L 173.227801 85.868882 
L 175.199875 90.234778 
L 177.171948 95.270573 
L 179.144022 101.08418 
L 181.116095 107.754854 
L 183.088169 115.317992 
L 185.060242 123.751714 
L 187.525334 135.377519 
L 190.483445 150.475957 
L 191.9625 158.263207 
L 191.9625 158.263207 
" style="fill:none;stroke:#e377c2;stroke-linecap:square;stroke-width:1.5;"/>
   </g>
   <g id="line2d_23">
    <path clip-path="url(#p9b11a930c3)" d="M 103.515 170.4 
L 103.515 34.958033 
" style="fill:none;stroke:#808080;stroke-dasharray:1.5,2.475;stroke-dashoffset:0;stroke-width:1.5;"/>
   </g>
   <g id="line2d_24">
    <path clip-path="url(#p9b11a930c3)" d="M 44.55 153.446767 
L 51.452258 111.741774 
L 53.917349 98.383603 
L 55.889423 88.797534 
L 57.861497 80.374653 
L 59.340552 74.896036 
L 60.819607 70.175814 
L 62.298662 66.233576 
L 63.777717 63.073569 
L 64.763754 61.396325 
L 65.749791 60.054204 
L 66.735828 59.036131 
L 67.721865 58.327503 
L 68.707901 57.910158 
L 69.693938 57.762383 
L 70.679975 57.859015 
L 71.666012 58.171621 
L 73.145067 58.976013 
L 74.624122 60.078499 
L 80.540343 64.927921 
L 82.019398 65.641134 
L 83.005435 65.899598 
L 83.991472 65.960953 
L 84.977508 65.811151 
L 85.963545 65.441989 
L 86.949582 64.851334 
L 87.935619 64.043178 
L 89.414674 62.446643 
L 90.893729 60.442331 
L 92.865803 57.282556 
L 99.275042 46.288128 
L 100.754097 44.308357 
L 102.233152 42.755327 
L 103.219189 41.991034 
L 104.205226 41.459723 
L 105.191263 41.168915 
L 106.177299 41.120415 
L 107.163336 41.3104 
L 108.149373 41.729682 
L 109.13541 42.364128 
L 110.614465 43.677713 
L 112.09352 45.355713 
L 114.065594 48.003851 
L 121.46087 58.589184 
L 123.432943 60.816806 
L 124.911998 62.206997 
L 126.391054 63.344528 
L 127.870109 64.230053 
L 129.349164 64.87205 
L 130.828219 65.284183 
L 132.307274 65.483051 
L 133.786329 65.486429 
L 135.265385 65.31203 
L 137.237458 64.831913 
L 139.209532 64.101771 
L 141.181605 63.15279 
L 143.646697 61.6981 
L 146.111789 59.983967 
L 149.0699 57.641156 
L 153.507065 53.767394 
L 156.958194 50.863915 
L 158.930268 49.496289 
L 160.409323 48.725202 
L 161.888378 48.254673 
L 162.874415 48.146669 
L 163.860452 48.230707 
L 164.846488 48.530059 
L 165.832525 49.06723 
L 166.818562 49.863511 
L 167.804599 50.938554 
L 168.790635 52.309988 
L 169.776672 53.993075 
L 170.762709 56.000418 
L 172.241764 59.63978 
L 173.720819 64.049305 
L 175.199875 69.231777 
L 176.67893 75.172634 
L 178.651003 84.215297 
L 180.623077 94.422098 
L 183.088169 108.540953 
L 186.539298 130.003308 
L 191.9625 164.243547 
L 191.9625 164.243547 
" style="fill:none;stroke:#7f7f7f;stroke-linecap:square;stroke-width:1.5;"/>
   </g>
   <g id="line2d_25">
    <path clip-path="url(#p9b11a930c3)" d="M 103.515 170.4 
L 103.515 34.958033 
" style="fill:none;stroke:#808080;stroke-dasharray:1.5,2.475;stroke-dashoffset:0;stroke-width:1.5;"/>
   </g>
   <g id="line2d_26">
    <path clip-path="url(#p9b11a930c3)" d="M 44.55 139.334196 
L 48.494147 115.204037 
L 50.959239 101.590106 
L 52.931313 91.957926 
L 54.410368 85.590661 
L 55.889423 80.00668 
L 57.368478 75.219379 
L 58.847533 71.215617 
L 60.326589 67.95869 
L 61.805644 65.392294 
L 63.284699 63.445118 
L 64.270736 62.451055 
L 65.256773 61.670451 
L 66.735828 60.842665 
L 68.214883 60.349186 
L 69.693938 60.106777 
L 71.666012 60.043439 
L 75.610159 60.26357 
L 78.568269 60.338172 
L 81.033361 60.201663 
L 83.991472 59.785775 
L 89.414674 58.672092 
L 92.372784 58.228719 
L 94.344858 58.146033 
L 96.316931 58.307445 
L 97.795987 58.619341 
L 99.275042 59.111432 
L 100.754097 59.79102 
L 102.726171 60.986052 
L 104.698244 62.485403 
L 107.163336 64.702095 
L 115.544649 72.676028 
L 117.516722 74.023556 
L 118.995778 74.772954 
L 120.474833 75.267699 
L 121.953888 75.489769 
L 123.432943 75.430798 
L 124.911998 75.092431 
L 126.391054 74.486356 
L 127.870109 73.634028 
L 129.842182 72.168698 
L 131.814256 70.415926 
L 136.251421 66.037777 
L 138.716513 63.768062 
L 140.688587 62.237481 
L 142.167642 61.316505 
L 143.646697 60.619219 
L 145.125753 60.158972 
L 146.604808 59.936686 
L 148.083863 59.941326 
L 149.562918 60.151267 
L 151.534992 60.697708 
L 154.000084 61.686936 
L 158.930268 64.052347 
L 163.860452 66.280549 
L 167.31158 67.884109 
L 169.283654 69.025992 
L 170.762709 70.096079 
L 172.241764 71.427544 
L 173.720819 73.096747 
L 175.199875 75.182319 
L 176.67893 77.761461 
L 178.157985 80.905678 
L 179.63704 84.67614 
L 181.116095 89.11894 
L 182.595151 94.260628 
L 184.074206 100.104414 
L 186.046279 108.944913 
L 188.018353 118.860536 
L 190.483445 132.437965 
L 191.9625 141.00247 
L 191.9625 141.00247 
" style="fill:none;stroke:#bcbd22;stroke-linecap:square;stroke-width:1.5;"/>
   </g>
   <g id="line2d_27">
    <path clip-path="url(#p9b11a930c3)" d="M 103.515 170.4 
L 103.515 34.958033 
" style="fill:none;stroke:#808080;stroke-dasharray:1.5,2.475;stroke-dashoffset:0;stroke-width:1.5;"/>
   </g>
   <g id="patch_3">
    <path d="M 44.55 170.4 
L 44.55 34.958033 
" style="fill:none;stroke:#000000;stroke-linecap:square;stroke-linejoin:miter;stroke-width:0.8;"/>
   </g>
   <g id="patch_4">
    <path d="M 44.55 170.4 
L 191.9625 170.4 
" style="fill:none;stroke:#000000;stroke-linecap:square;stroke-linejoin:miter;stroke-width:0.8;"/>
   </g>
  </g>
  <g id="axes_2">
   <g id="patch_5">
    <path d="M 260.075 170.4 
L 407.4875 170.4 
L 407.4875 34.958033 
L 260.075 34.958033 
z
" style="fill:#ffffff;"/>
   </g>
   <g id="matplotlib.axis_3">
    <g id="xtick_6">
     <g id="line2d_28">
      <g>
       <use style="stroke:#000000;stroke-width:0.8;" x="260.075" xlink:href="#mf049e87c25" y="170.4"/>
      </g>
     </g>
     <g id="text_12">
      <!-- 350 -->
      <g transform="translate(250.53125 184.998437)scale(0.1 -0.1)">
       <defs>
        <path d="M 40.578125 39.3125 
Q 47.65625 37.796875 51.625 33 
Q 55.609375 28.21875 55.609375 21.1875 
Q 55.609375 10.40625 48.1875 4.484375 
Q 40.765625 -1.421875 27.09375 -1.421875 
Q 22.515625 -1.421875 17.65625 -0.515625 
Q 12.796875 0.390625 7.625 2.203125 
L 7.625 11.71875 
Q 11.71875 9.328125 16.59375 8.109375 
Q 21.484375 6.890625 26.8125 6.890625 
Q 36.078125 6.890625 40.9375 10.546875 
Q 45.796875 14.203125 45.796875 21.1875 
Q 45.796875 27.640625 41.28125 31.265625 
Q 36.765625 34.90625 28.71875 34.90625 
L 20.21875 34.90625 
L 20.21875 43.015625 
L 29.109375 43.015625 
Q 36.375 43.015625 40.234375 45.921875 
Q 44.09375 48.828125 44.09375 54.296875 
Q 44.09375 59.90625 40.109375 62.90625 
Q 36.140625 65.921875 28.71875 65.921875 
Q 24.65625 65.921875 20.015625 65.03125 
Q 15.375 64.15625 9.8125 62.3125 
L 9.8125 71.09375 
Q 15.4375 72.65625 20.34375 73.4375 
Q 25.25 74.21875 29.59375 74.21875 
Q 40.828125 74.21875 47.359375 69.109375 
Q 53.90625 64.015625 53.90625 55.328125 
Q 53.90625 49.265625 50.4375 45.09375 
Q 46.96875 40.921875 40.578125 39.3125 
z
" id="DejaVuSans-51"/>
       </defs>
       <use xlink:href="#DejaVuSans-51"/>
       <use x="63.623047" xlink:href="#DejaVuSans-53"/>
       <use x="127.246094" xlink:href="#DejaVuSans-48"/>
      </g>
     </g>
    </g>
    <g id="xtick_7">
     <g id="line2d_29">
      <g>
       <use style="stroke:#000000;stroke-width:0.8;" x="296.928125" xlink:href="#mf049e87c25" y="170.4"/>
      </g>
     </g>
     <g id="text_13">
      <!-- 375 -->
      <g transform="translate(287.384375 184.998437)scale(0.1 -0.1)">
       <use xlink:href="#DejaVuSans-51"/>
       <use x="63.623047" xlink:href="#DejaVuSans-55"/>
       <use x="127.246094" xlink:href="#DejaVuSans-53"/>
      </g>
     </g>
    </g>
    <g id="xtick_8">
     <g id="line2d_30">
      <g>
       <use style="stroke:#000000;stroke-width:0.8;" x="333.78125" xlink:href="#mf049e87c25" y="170.4"/>
      </g>
     </g>
     <g id="text_14">
      <!-- 400 -->
      <g transform="translate(324.2375 184.998437)scale(0.1 -0.1)">
       <use xlink:href="#DejaVuSans-52"/>
       <use x="63.623047" xlink:href="#DejaVuSans-48"/>
       <use x="127.246094" xlink:href="#DejaVuSans-48"/>
      </g>
     </g>
    </g>
    <g id="xtick_9">
     <g id="line2d_31">
      <g>
       <use style="stroke:#000000;stroke-width:0.8;" x="370.634375" xlink:href="#mf049e87c25" y="170.4"/>
      </g>
     </g>
     <g id="text_15">
      <!-- 425 -->
      <g transform="translate(361.090625 184.998437)scale(0.1 -0.1)">
       <use xlink:href="#DejaVuSans-52"/>
       <use x="63.623047" xlink:href="#DejaVuSans-50"/>
       <use x="127.246094" xlink:href="#DejaVuSans-53"/>
      </g>
     </g>
    </g>
    <g id="xtick_10">
     <g id="line2d_32">
      <g>
       <use style="stroke:#000000;stroke-width:0.8;" x="407.4875" xlink:href="#mf049e87c25" y="170.4"/>
      </g>
     </g>
     <g id="text_16">
      <!-- 450 -->
      <g transform="translate(397.94375 184.998437)scale(0.1 -0.1)">
       <use xlink:href="#DejaVuSans-52"/>
       <use x="63.623047" xlink:href="#DejaVuSans-53"/>
       <use x="127.246094" xlink:href="#DejaVuSans-48"/>
      </g>
     </g>
    </g>
    <g id="text_17">
     <!-- $\theta_1$ -->
     <g transform="translate(328.33125 198.676562)scale(0.1 -0.1)">
      <use transform="translate(0 0.234375)" xlink:href="#DejaVuSans-Oblique-952"/>
      <use transform="translate(61.181641 -16.171875)scale(0.7)" xlink:href="#DejaVuSans-49"/>
     </g>
    </g>
   </g>
   <g id="matplotlib.axis_4">
    <g id="ytick_5">
     <g id="line2d_33">
      <g>
       <use style="stroke:#000000;stroke-width:0.8;" x="260.075" xlink:href="#m9044741e68" y="164.243547"/>
      </g>
     </g>
     <g id="text_18">
      <!-- 0.00 -->
      <g transform="translate(230.809375 168.042766)scale(0.1 -0.1)">
       <use xlink:href="#DejaVuSans-48"/>
       <use x="63.623047" xlink:href="#DejaVuSans-46"/>
       <use x="95.410156" xlink:href="#DejaVuSans-48"/>
       <use x="159.033203" xlink:href="#DejaVuSans-48"/>
      </g>
     </g>
    </g>
    <g id="ytick_6">
     <g id="line2d_34">
      <g>
       <use style="stroke:#000000;stroke-width:0.8;" x="260.075" xlink:href="#m9044741e68" y="138.991393"/>
      </g>
     </g>
     <g id="text_19">
      <!-- 0.01 -->
      <g transform="translate(230.809375 142.790612)scale(0.1 -0.1)">
       <use xlink:href="#DejaVuSans-48"/>
       <use x="63.623047" xlink:href="#DejaVuSans-46"/>
       <use x="95.410156" xlink:href="#DejaVuSans-48"/>
       <use x="159.033203" xlink:href="#DejaVuSans-49"/>
      </g>
     </g>
    </g>
    <g id="ytick_7">
     <g id="line2d_35">
      <g>
       <use style="stroke:#000000;stroke-width:0.8;" x="260.075" xlink:href="#m9044741e68" y="113.739239"/>
      </g>
     </g>
     <g id="text_20">
      <!-- 0.02 -->
      <g transform="translate(230.809375 117.538457)scale(0.1 -0.1)">
       <use xlink:href="#DejaVuSans-48"/>
       <use x="63.623047" xlink:href="#DejaVuSans-46"/>
       <use x="95.410156" xlink:href="#DejaVuSans-48"/>
       <use x="159.033203" xlink:href="#DejaVuSans-50"/>
      </g>
     </g>
    </g>
    <g id="ytick_8">
     <g id="line2d_36">
      <g>
       <use style="stroke:#000000;stroke-width:0.8;" x="260.075" xlink:href="#m9044741e68" y="88.487085"/>
      </g>
     </g>
     <g id="text_21">
      <!-- 0.03 -->
      <g transform="translate(230.809375 92.286303)scale(0.1 -0.1)">
       <use xlink:href="#DejaVuSans-48"/>
       <use x="63.623047" xlink:href="#DejaVuSans-46"/>
       <use x="95.410156" xlink:href="#DejaVuSans-48"/>
       <use x="159.033203" xlink:href="#DejaVuSans-51"/>
      </g>
     </g>
    </g>
    <g id="ytick_9">
     <g id="line2d_37">
      <g>
       <use style="stroke:#000000;stroke-width:0.8;" x="260.075" xlink:href="#m9044741e68" y="63.234931"/>
      </g>
     </g>
     <g id="text_22">
      <!-- 0.04 -->
      <g transform="translate(230.809375 67.034149)scale(0.1 -0.1)">
       <use xlink:href="#DejaVuSans-48"/>
       <use x="63.623047" xlink:href="#DejaVuSans-46"/>
       <use x="95.410156" xlink:href="#DejaVuSans-48"/>
       <use x="159.033203" xlink:href="#DejaVuSans-52"/>
      </g>
     </g>
    </g>
    <g id="ytick_10">
     <g id="line2d_38">
      <g>
       <use style="stroke:#000000;stroke-width:0.8;" x="260.075" xlink:href="#m9044741e68" y="37.982776"/>
      </g>
     </g>
     <g id="text_23">
      <!-- 0.05 -->
      <g transform="translate(230.809375 41.781995)scale(0.1 -0.1)">
       <use xlink:href="#DejaVuSans-48"/>
       <use x="63.623047" xlink:href="#DejaVuSans-46"/>
       <use x="95.410156" xlink:href="#DejaVuSans-48"/>
       <use x="159.033203" xlink:href="#DejaVuSans-53"/>
      </g>
     </g>
    </g>
    <g id="text_24">
     <!-- Posterior -->
     <g transform="translate(224.729687 124.772766)rotate(-90)scale(0.1 -0.1)">
      <use xlink:href="#DejaVuSans-80"/>
      <use x="56.677734" xlink:href="#DejaVuSans-111"/>
      <use x="117.859375" xlink:href="#DejaVuSans-115"/>
      <use x="169.958984" xlink:href="#DejaVuSans-116"/>
      <use x="209.167969" xlink:href="#DejaVuSans-101"/>
      <use x="270.691406" xlink:href="#DejaVuSans-114"/>
      <use x="311.804688" xlink:href="#DejaVuSans-105"/>
      <use x="339.587891" xlink:href="#DejaVuSans-111"/>
      <use x="400.769531" xlink:href="#DejaVuSans-114"/>
     </g>
    </g>
   </g>
   <g id="line2d_39">
    <path clip-path="url(#p4437e5fb5d)" d="M 260.075 159.650416 
L 352.26944 159.956756 
L 393.189967 159.846386 
L 407.4875 159.758712 
L 407.4875 159.758712 
" style="fill:none;stroke:#1f77b4;stroke-linecap:square;stroke-width:1.5;"/>
   </g>
   <g id="line2d_40">
    <path clip-path="url(#p4437e5fb5d)" d="M 333.78125 170.4 
L 333.78125 34.958033 
" style="fill:none;stroke:#808080;stroke-dasharray:1.5,2.475;stroke-dashoffset:0;stroke-width:1.5;"/>
   </g>
   <g id="line2d_41">
    <path clip-path="url(#p4437e5fb5d)" d="M 260.075 155.256477 
L 285.711957 154.912443 
L 303.953637 154.891394 
L 323.674373 155.094357 
L 347.832274 155.574339 
L 403.543353 156.800118 
L 407.4875 156.82719 
L 407.4875 156.82719 
" style="fill:none;stroke:#ff7f0e;stroke-linecap:square;stroke-width:1.5;"/>
   </g>
   <g id="line2d_42">
    <path clip-path="url(#p4437e5fb5d)" d="M 333.78125 170.4 
L 333.78125 34.958033 
" style="fill:none;stroke:#808080;stroke-dasharray:1.5,2.475;stroke-dashoffset:0;stroke-width:1.5;"/>
   </g>
   <g id="line2d_43">
    <path clip-path="url(#p4437e5fb5d)" d="M 260.075 150.75151 
L 268.949331 150.702557 
L 297.544398 150.761718 
L 306.911747 150.410402 
L 327.125502 149.564753 
L 334.520778 149.551371 
L 341.916054 149.763905 
L 352.762458 150.333296 
L 365.580936 150.965523 
L 374.948286 151.192331 
L 385.794691 151.212588 
L 407.4875 151.039233 
L 407.4875 151.039233 
" style="fill:none;stroke:#2ca02c;stroke-linecap:square;stroke-width:1.5;"/>
   </g>
   <g id="line2d_44">
    <path clip-path="url(#p4437e5fb5d)" d="M 333.78125 170.4 
L 333.78125 34.958033 
" style="fill:none;stroke:#808080;stroke-dasharray:1.5,2.475;stroke-dashoffset:0;stroke-width:1.5;"/>
   </g>
   <g id="line2d_45">
    <path clip-path="url(#p4437e5fb5d)" d="M 260.075 147.632145 
L 264.512166 146.456469 
L 268.949331 145.502884 
L 273.879515 144.662364 
L 280.288754 143.813773 
L 288.177048 143.007855 
L 295.572324 142.468479 
L 301.981564 142.227289 
L 307.897784 142.221962 
L 315.29306 142.46005 
L 329.590594 142.985377 
L 337.478888 142.982194 
L 349.804348 142.947956 
L 356.706605 143.191893 
L 364.101881 143.687001 
L 375.441304 144.699229 
L 385.301672 145.770026 
L 393.189967 146.843911 
L 401.078261 148.137377 
L 407.4875 149.377899 
L 407.4875 149.377899 
" style="fill:none;stroke:#d62728;stroke-linecap:square;stroke-width:1.5;"/>
   </g>
   <g id="line2d_46">
    <path clip-path="url(#p4437e5fb5d)" d="M 333.78125 170.4 
L 333.78125 34.958033 
" style="fill:none;stroke:#808080;stroke-dasharray:1.5,2.475;stroke-dashoffset:0;stroke-width:1.5;"/>
   </g>
   <g id="line2d_47">
    <path clip-path="url(#p4437e5fb5d)" d="M 260.075 155.525835 
L 265.991221 151.313763 
L 270.921405 147.916528 
L 274.372533 145.798008 
L 277.330644 144.210286 
L 280.288754 142.844571 
L 283.246865 141.692376 
L 286.697993 140.59606 
L 290.149122 139.740707 
L 294.093269 139.016525 
L 299.516472 138.303586 
L 305.432692 137.494882 
L 309.376839 136.729668 
L 314.800042 135.407865 
L 319.730226 134.263996 
L 323.181355 133.698321 
L 326.139465 133.421481 
L 329.590594 133.32515 
L 334.027759 133.44706 
L 343.888127 133.801017 
L 349.804348 133.707858 
L 356.706605 133.611814 
L 360.157734 133.777928 
L 363.115844 134.115843 
L 366.073955 134.666786 
L 369.032065 135.438316 
L 372.483194 136.59059 
L 376.427341 138.155269 
L 381.850543 140.556474 
L 386.780727 142.961183 
L 390.231856 144.860866 
L 393.682985 147.010392 
L 397.134114 149.413628 
L 403.050334 153.872134 
L 407.4875 157.090949 
L 407.4875 157.090949 
" style="fill:none;stroke:#9467bd;stroke-linecap:square;stroke-width:1.5;"/>
   </g>
   <g id="line2d_48">
    <path clip-path="url(#p4437e5fb5d)" d="M 333.78125 170.4 
L 333.78125 34.958033 
" style="fill:none;stroke:#808080;stroke-dasharray:1.5,2.475;stroke-dashoffset:0;stroke-width:1.5;"/>
   </g>
   <g id="line2d_49">
    <path clip-path="url(#p4437e5fb5d)" d="M 260.075 164.163654 
L 263.526129 163.968671 
L 265.991221 163.644294 
L 267.963294 163.191378 
L 269.935368 162.490857 
L 271.414423 161.758879 
L 272.893478 160.819104 
L 274.372533 159.651568 
L 275.851589 158.247385 
L 277.823662 156.018001 
L 279.795736 153.433041 
L 282.753846 149.113738 
L 287.68403 141.857827 
L 289.656104 139.303788 
L 291.628177 137.080919 
L 293.600251 135.230719 
L 295.572324 133.760601 
L 297.544398 132.644687 
L 299.516472 131.823551 
L 301.981564 131.06715 
L 305.925711 129.886305 
L 307.897784 129.017716 
L 309.376839 128.157188 
L 311.348913 126.701586 
L 313.320987 124.929528 
L 320.223244 118.325583 
L 321.702299 117.341106 
L 323.181355 116.643304 
L 324.66041 116.254712 
L 326.139465 116.174673 
L 327.61852 116.38168 
L 329.097575 116.837504 
L 331.069649 117.745518 
L 333.534741 119.178516 
L 339.450962 122.763841 
L 342.409072 124.280015 
L 345.860201 125.78718 
L 350.790385 127.641366 
L 355.22755 129.38481 
L 359.171697 131.223843 
L 363.115844 133.028286 
L 365.580936 133.895795 
L 368.539047 134.636789 
L 371.990176 135.490124 
L 373.469231 136.045288 
L 374.948286 136.810085 
L 376.427341 137.833362 
L 377.906396 139.141562 
L 379.385452 140.735163 
L 381.357525 143.256105 
L 383.822617 146.86083 
L 388.752801 154.256622 
L 390.724875 156.808611 
L 392.696948 158.954907 
L 394.176003 160.27318 
L 395.655059 161.344462 
L 397.134114 162.186381 
L 398.613169 162.82608 
L 400.585242 163.420488 
L 402.557316 163.791281 
L 405.515426 164.077939 
L 407.4875 164.164736 
L 407.4875 164.164736 
" style="fill:none;stroke:#8c564b;stroke-linecap:square;stroke-width:1.5;"/>
   </g>
   <g id="line2d_50">
    <path clip-path="url(#p4437e5fb5d)" d="M 333.78125 170.4 
L 333.78125 34.958033 
" style="fill:none;stroke:#808080;stroke-dasharray:1.5,2.475;stroke-dashoffset:0;stroke-width:1.5;"/>
   </g>
   <g id="line2d_51">
    <path clip-path="url(#p4437e5fb5d)" d="M 260.075 164.243547 
L 281.274791 164.140929 
L 283.739883 163.878596 
L 285.218938 163.5267 
L 286.697993 162.922076 
L 287.68403 162.324635 
L 288.670067 161.532396 
L 289.656104 160.515127 
L 290.64214 159.250486 
L 292.121196 156.872308 
L 293.600251 153.955773 
L 295.572324 149.459196 
L 299.516472 140.178198 
L 301.488545 136.116239 
L 303.953637 131.625446 
L 307.404766 125.867564 
L 309.869858 122.123351 
L 311.841931 119.554837 
L 313.814005 117.43324 
L 315.786079 115.677897 
L 318.744189 113.412587 
L 322.688336 110.380556 
L 324.66041 108.578671 
L 326.632483 106.497306 
L 331.069649 101.598793 
L 332.548704 100.308559 
L 334.027759 99.327552 
L 335.506814 98.664708 
L 336.98587 98.298381 
L 338.464925 98.208527 
L 339.94398 98.400223 
L 341.423035 98.907824 
L 342.409072 99.44647 
L 343.395109 100.162147 
L 344.874164 101.587637 
L 346.353219 103.435303 
L 347.832274 105.661075 
L 349.804348 109.044738 
L 353.255477 115.100914 
L 354.734532 117.349533 
L 356.213587 119.258638 
L 357.692642 120.848723 
L 362.129808 125.183072 
L 363.608863 127.163913 
L 365.087918 129.674851 
L 366.566973 132.741541 
L 368.539047 137.55177 
L 374.455268 152.859002 
L 375.934323 155.925171 
L 377.413378 158.451149 
L 378.892433 160.415283 
L 379.87847 161.427308 
L 380.864507 162.224903 
L 382.343562 163.079145 
L 383.822617 163.613144 
L 385.301672 163.923969 
L 387.766764 164.155004 
L 391.710911 164.23599 
L 407.4875 164.243547 
L 407.4875 164.243547 
" style="fill:none;stroke:#e377c2;stroke-linecap:square;stroke-width:1.5;"/>
   </g>
   <g id="line2d_52">
    <path clip-path="url(#p4437e5fb5d)" d="M 333.78125 170.4 
L 333.78125 34.958033 
" style="fill:none;stroke:#808080;stroke-dasharray:1.5,2.475;stroke-dashoffset:0;stroke-width:1.5;"/>
   </g>
   <g id="line2d_53">
    <path clip-path="url(#p4437e5fb5d)" d="M 260.075 164.243547 
L 294.093269 164.140465 
L 296.065343 163.859002 
L 297.05138 163.554147 
L 298.037416 163.06473 
L 299.023453 162.317325 
L 300.00949 161.229704 
L 300.995527 159.718961 
L 301.981564 157.712533 
L 302.9676 155.160502 
L 303.953637 152.046645 
L 305.432692 146.387333 
L 306.911747 139.778793 
L 312.33495 114.19634 
L 313.814005 108.632305 
L 315.29306 104.162585 
L 316.279097 101.783192 
L 317.265134 99.81777 
L 318.744189 97.454454 
L 320.223244 95.547582 
L 321.702299 93.946773 
L 323.181355 92.641052 
L 324.66041 91.62785 
L 327.61852 89.775998 
L 329.097575 88.421801 
L 331.069649 86.127295 
L 332.548704 84.471603 
L 333.534741 83.618176 
L 334.520778 83.047551 
L 335.506814 82.769871 
L 336.492851 82.750057 
L 337.478888 82.928169 
L 338.957943 83.428194 
L 343.888127 85.562732 
L 345.367182 86.340844 
L 346.353219 87.059377 
L 347.339256 88.045595 
L 348.325293 89.38063 
L 349.311329 91.113851 
L 350.297366 93.252647 
L 351.776421 97.149156 
L 353.255477 101.732433 
L 354.734532 106.949019 
L 356.213587 112.935196 
L 357.692642 119.885784 
L 359.664716 130.542899 
L 362.129808 144.211904 
L 363.608863 151.159106 
L 364.5949 154.895137 
L 365.580936 157.851273 
L 366.566973 160.066596 
L 367.55301 161.638772 
L 368.539047 162.695253 
L 369.525084 163.367345 
L 370.51112 163.771984 
L 371.990176 164.074491 
L 373.962249 164.207778 
L 379.385452 164.243388 
L 407.4875 164.243547 
L 407.4875 164.243547 
" style="fill:none;stroke:#7f7f7f;stroke-linecap:square;stroke-width:1.5;"/>
   </g>
   <g id="line2d_54">
    <path clip-path="url(#p4437e5fb5d)" d="M 333.78125 170.4 
L 333.78125 34.958033 
" style="fill:none;stroke:#808080;stroke-dasharray:1.5,2.475;stroke-dashoffset:0;stroke-width:1.5;"/>
   </g>
   <g id="line2d_55">
    <path clip-path="url(#p4437e5fb5d)" d="M 260.075 164.243547 
L 305.432692 164.159701 
L 306.418729 164.003466 
L 307.404766 163.623424 
L 307.897784 163.283674 
L 308.390803 162.793659 
L 308.883821 162.105316 
L 309.376839 161.163234 
L 309.869858 159.906628 
L 310.362876 158.272611 
L 310.855895 156.200765 
L 311.841931 150.549218 
L 312.827968 142.748621 
L 313.814005 133.019232 
L 316.772115 101.33329 
L 317.758152 93.637494 
L 318.744189 88.29065 
L 319.730226 84.872502 
L 320.716263 82.557368 
L 322.195318 79.401594 
L 323.181355 76.853156 
L 326.632483 66.89367 
L 327.61852 65.123836 
L 328.604557 64.030729 
L 330.083612 62.740243 
L 330.57663 62.120441 
L 331.069649 61.309516 
L 332.055686 59.028695 
L 333.041722 55.959755 
L 336.492851 44.203295 
L 337.478888 42.060708 
L 337.971906 41.415062 
L 338.464925 41.114486 
L 338.957943 41.19877 
L 339.450962 41.697598 
L 339.94398 42.626644 
L 340.436998 43.984699 
L 341.423035 47.891078 
L 342.409072 53.050635 
L 345.860201 72.765682 
L 348.818311 87.305054 
L 349.804348 93.906501 
L 350.790385 102.270722 
L 352.26944 117.675554 
L 354.241513 138.932434 
L 355.22755 147.568467 
L 356.213587 154.104935 
L 357.199624 158.567918 
L 358.185661 161.323136 
L 358.678679 162.214741 
L 359.171697 162.86425 
L 360.157734 163.646479 
L 361.143771 164.007067 
L 362.622826 164.193881 
L 366.073955 164.242988 
L 407.4875 164.243547 
L 407.4875 164.243547 
" style="fill:none;stroke:#bcbd22;stroke-linecap:square;stroke-width:1.5;"/>
   </g>
   <g id="line2d_56">
    <path clip-path="url(#p4437e5fb5d)" d="M 333.78125 170.4 
L 333.78125 34.958033 
" style="fill:none;stroke:#808080;stroke-dasharray:1.5,2.475;stroke-dashoffset:0;stroke-width:1.5;"/>
   </g>
   <g id="patch_6">
    <path d="M 260.075 170.4 
L 260.075 34.958033 
" style="fill:none;stroke:#000000;stroke-linecap:square;stroke-linejoin:miter;stroke-width:0.8;"/>
   </g>
   <g id="patch_7">
    <path d="M 260.075 170.4 
L 407.4875 170.4 
" style="fill:none;stroke:#000000;stroke-linecap:square;stroke-linejoin:miter;stroke-width:0.8;"/>
   </g>
  </g>
  <g id="axes_3">
   <g id="patch_8">
    <path d="M 475.6 170.4 
L 623.0125 170.4 
L 623.0125 34.958033 
L 475.6 34.958033 
z
" style="fill:#ffffff;"/>
   </g>
   <g id="matplotlib.axis_5">
    <g id="xtick_11">
     <g id="line2d_57">
      <g>
       <use style="stroke:#000000;stroke-width:0.8;" x="475.6" xlink:href="#mf049e87c25" y="170.4"/>
      </g>
     </g>
     <g id="text_25">
      <!-- 0.000 -->
      <g transform="translate(461.285938 184.998437)scale(0.1 -0.1)">
       <use xlink:href="#DejaVuSans-48"/>
       <use x="63.623047" xlink:href="#DejaVuSans-46"/>
       <use x="95.410156" xlink:href="#DejaVuSans-48"/>
       <use x="159.033203" xlink:href="#DejaVuSans-48"/>
       <use x="222.65625" xlink:href="#DejaVuSans-48"/>
      </g>
     </g>
    </g>
    <g id="xtick_12">
     <g id="line2d_58">
      <g>
       <use style="stroke:#000000;stroke-width:0.8;" x="512.453125" xlink:href="#mf049e87c25" y="170.4"/>
      </g>
     </g>
     <g id="text_26">
      <!-- 0.025 -->
      <g transform="translate(498.139063 184.998437)scale(0.1 -0.1)">
       <use xlink:href="#DejaVuSans-48"/>
       <use x="63.623047" xlink:href="#DejaVuSans-46"/>
       <use x="95.410156" xlink:href="#DejaVuSans-48"/>
       <use x="159.033203" xlink:href="#DejaVuSans-50"/>
       <use x="222.65625" xlink:href="#DejaVuSans-53"/>
      </g>
     </g>
    </g>
    <g id="xtick_13">
     <g id="line2d_59">
      <g>
       <use style="stroke:#000000;stroke-width:0.8;" x="549.30625" xlink:href="#mf049e87c25" y="170.4"/>
      </g>
     </g>
     <g id="text_27">
      <!-- 0.050 -->
      <g transform="translate(534.992188 184.998437)scale(0.1 -0.1)">
       <use xlink:href="#DejaVuSans-48"/>
       <use x="63.623047" xlink:href="#DejaVuSans-46"/>
       <use x="95.410156" xlink:href="#DejaVuSans-48"/>
       <use x="159.033203" xlink:href="#DejaVuSans-53"/>
       <use x="222.65625" xlink:href="#DejaVuSans-48"/>
      </g>
     </g>
    </g>
    <g id="xtick_14">
     <g id="line2d_60">
      <g>
       <use style="stroke:#000000;stroke-width:0.8;" x="586.159375" xlink:href="#mf049e87c25" y="170.4"/>
      </g>
     </g>
     <g id="text_28">
      <!-- 0.075 -->
      <g transform="translate(571.845312 184.998437)scale(0.1 -0.1)">
       <use xlink:href="#DejaVuSans-48"/>
       <use x="63.623047" xlink:href="#DejaVuSans-46"/>
       <use x="95.410156" xlink:href="#DejaVuSans-48"/>
       <use x="159.033203" xlink:href="#DejaVuSans-55"/>
       <use x="222.65625" xlink:href="#DejaVuSans-53"/>
      </g>
     </g>
    </g>
    <g id="xtick_15">
     <g id="line2d_61">
      <g>
       <use style="stroke:#000000;stroke-width:0.8;" x="623.0125" xlink:href="#mf049e87c25" y="170.4"/>
      </g>
     </g>
     <g id="text_29">
      <!-- 0.100 -->
      <g transform="translate(608.698437 184.998437)scale(0.1 -0.1)">
       <use xlink:href="#DejaVuSans-48"/>
       <use x="63.623047" xlink:href="#DejaVuSans-46"/>
       <use x="95.410156" xlink:href="#DejaVuSans-49"/>
       <use x="159.033203" xlink:href="#DejaVuSans-48"/>
       <use x="222.65625" xlink:href="#DejaVuSans-48"/>
      </g>
     </g>
    </g>
    <g id="text_30">
     <!-- $\theta_2$ -->
     <g transform="translate(543.85625 198.676562)scale(0.1 -0.1)">
      <use transform="translate(0 0.234375)" xlink:href="#DejaVuSans-Oblique-952"/>
      <use transform="translate(61.181641 -16.171875)scale(0.7)" xlink:href="#DejaVuSans-50"/>
     </g>
    </g>
   </g>
   <g id="matplotlib.axis_6">
    <g id="ytick_11">
     <g id="line2d_62">
      <g>
       <use style="stroke:#000000;stroke-width:0.8;" x="475.6" xlink:href="#m9044741e68" y="164.876438"/>
      </g>
     </g>
     <g id="text_31">
      <!-- 4 -->
      <g transform="translate(462.2375 168.675657)scale(0.1 -0.1)">
       <use xlink:href="#DejaVuSans-52"/>
      </g>
     </g>
    </g>
    <g id="ytick_12">
     <g id="line2d_63">
      <g>
       <use style="stroke:#000000;stroke-width:0.8;" x="475.6" xlink:href="#m9044741e68" y="130.493703"/>
      </g>
     </g>
     <g id="text_32">
      <!-- 6 -->
      <g transform="translate(462.2375 134.292922)scale(0.1 -0.1)">
       <use xlink:href="#DejaVuSans-54"/>
      </g>
     </g>
    </g>
    <g id="ytick_13">
     <g id="line2d_64">
      <g>
       <use style="stroke:#000000;stroke-width:0.8;" x="475.6" xlink:href="#m9044741e68" y="96.110968"/>
      </g>
     </g>
     <g id="text_33">
      <!-- 8 -->
      <g transform="translate(462.2375 99.910187)scale(0.1 -0.1)">
       <use xlink:href="#DejaVuSans-56"/>
      </g>
     </g>
    </g>
    <g id="ytick_14">
     <g id="line2d_65">
      <g>
       <use style="stroke:#000000;stroke-width:0.8;" x="475.6" xlink:href="#m9044741e68" y="61.728233"/>
      </g>
     </g>
     <g id="text_34">
      <!-- 10 -->
      <g transform="translate(455.875 65.527452)scale(0.1 -0.1)">
       <use xlink:href="#DejaVuSans-49"/>
       <use x="63.623047" xlink:href="#DejaVuSans-48"/>
      </g>
     </g>
    </g>
    <g id="text_35">
     <!-- Posterior -->
     <g transform="translate(449.795313 124.772766)rotate(-90)scale(0.1 -0.1)">
      <use xlink:href="#DejaVuSans-80"/>
      <use x="56.677734" xlink:href="#DejaVuSans-111"/>
      <use x="117.859375" xlink:href="#DejaVuSans-115"/>
      <use x="169.958984" xlink:href="#DejaVuSans-116"/>
      <use x="209.167969" xlink:href="#DejaVuSans-101"/>
      <use x="270.691406" xlink:href="#DejaVuSans-114"/>
      <use x="311.804688" xlink:href="#DejaVuSans-105"/>
      <use x="339.587891" xlink:href="#DejaVuSans-111"/>
      <use x="400.769531" xlink:href="#DejaVuSans-114"/>
     </g>
    </g>
   </g>
   <g id="line2d_66">
    <path clip-path="url(#pd7879ece53)" d="M 475.6 144.200476 
L 480.530184 114.453868 
L 482.995276 100.941959 
L 484.967349 91.247908 
L 486.939423 82.737771 
L 488.418478 77.197916 
L 489.897533 72.403093 
L 491.376589 68.350764 
L 492.855644 65.01901 
L 494.334699 62.368958 
L 495.320736 60.955363 
L 496.306773 59.803082 
L 497.292809 58.892124 
L 498.278846 58.201418 
L 499.264883 57.709333 
L 500.25092 57.394195 
L 501.729975 57.207082 
L 503.20903 57.303313 
L 504.688085 57.623412 
L 506.660159 58.314999 
L 508.632232 59.234493 
L 511.097324 60.638571 
L 513.562416 62.315155 
L 516.027508 64.30446 
L 517.999582 66.160403 
L 519.971656 68.276009 
L 522.436747 71.289542 
L 524.901839 74.668226 
L 528.845987 80.55109 
L 533.283152 87.103288 
L 535.748244 90.308872 
L 537.720318 92.481256 
L 539.199373 93.821462 
L 540.678428 94.874785 
L 542.157483 95.609953 
L 543.14352 95.909841 
L 544.129557 96.049607 
L 545.115594 96.023781 
L 546.10163 95.828264 
L 547.087667 95.460499 
L 548.073704 94.919639 
L 549.552759 93.786602 
L 551.031814 92.279007 
L 552.51087 90.419895 
L 553.989925 88.243432 
L 555.961998 84.926609 
L 558.42709 80.30224 
L 565.329348 66.947266 
L 567.79444 62.820612 
L 569.766513 59.931163 
L 571.738587 57.415775 
L 573.710661 55.241215 
L 576.175753 52.909815 
L 579.133863 50.496963 
L 583.07801 47.634234 
L 586.529139 45.405049 
L 588.994231 44.098988 
L 590.966304 43.344174 
L 592.44536 43.010306 
L 593.924415 42.923115 
L 595.40347 43.125732 
L 596.389507 43.442908 
L 597.375543 43.920341 
L 598.36158 44.570408 
L 599.347617 45.405423 
L 600.826672 47.031633 
L 602.305727 49.143218 
L 603.784783 51.781634 
L 605.263838 54.987485 
L 606.742893 58.798979 
L 608.221948 63.24958 
L 609.701003 68.364924 
L 611.180059 74.159258 
L 613.152132 82.937213 
L 615.124206 92.864421 
L 617.589298 106.696474 
L 620.547408 124.841523 
L 623.0125 140.602246 
L 623.0125 140.602246 
" style="fill:none;stroke:#1f77b4;stroke-linecap:square;stroke-width:1.5;"/>
   </g>
   <g id="line2d_67">
    <path clip-path="url(#pd7879ece53)" style="fill:none;stroke:#808080;stroke-dasharray:1.5,2.475;stroke-dashoffset:0;stroke-width:1.5;"/>
   </g>
   <g id="line2d_68">
    <path clip-path="url(#pd7879ece53)" d="M 475.6 154.306933 
L 482.502258 115.049576 
L 484.967349 102.416905 
L 486.939423 93.249453 
L 488.911497 85.026142 
L 490.88357 77.786413 
L 492.855644 71.516263 
L 494.827717 66.157044 
L 496.799791 61.617103 
L 498.771865 57.785015 
L 500.743938 54.543168 
L 502.716012 51.780479 
L 504.688085 49.40312 
L 506.660159 47.34224 
L 508.632232 45.557954 
L 510.604306 44.039272 
L 512.57638 42.800179 
L 514.548453 41.872584 
L 516.027508 41.405801 
L 517.506564 41.154607 
L 518.985619 41.134015 
L 520.464674 41.354817 
L 521.943729 41.822165 
L 523.422784 42.534655 
L 524.901839 43.483933 
L 526.380895 44.65481 
L 528.352968 46.522829 
L 530.81806 49.257279 
L 533.776171 52.924417 
L 541.171446 62.296734 
L 544.129557 65.612334 
L 546.594649 68.070113 
L 549.059741 70.234418 
L 551.524833 72.109134 
L 553.989925 73.707688 
L 556.455017 75.048037 
L 558.920109 76.150746 
L 561.385201 77.038574 
L 564.343311 77.854394 
L 567.301421 78.43567 
L 570.259532 78.81378 
L 573.710661 79.019485 
L 576.668771 78.991477 
L 579.626881 78.751682 
L 582.091973 78.359053 
L 584.557065 77.75297 
L 587.022157 76.892659 
L 589.487249 75.7461 
L 591.952341 74.31248 
L 594.910452 72.303333 
L 598.854599 69.639281 
L 600.333654 68.871613 
L 601.812709 68.369879 
L 602.798746 68.235225 
L 603.784783 68.299012 
L 604.770819 68.595029 
L 605.756856 69.156848 
L 606.742893 70.016977 
L 607.72893 71.205956 
L 608.714967 72.751433 
L 609.701003 74.677257 
L 610.68704 77.002607 
L 612.166095 81.268107 
L 613.645151 86.481837 
L 615.124206 92.628971 
L 616.603261 99.658244 
L 618.575334 110.247332 
L 621.040426 125.007493 
L 623.0125 137.568057 
L 623.0125 137.568057 
" style="fill:none;stroke:#ff7f0e;stroke-linecap:square;stroke-width:1.5;"/>
   </g>
   <g id="line2d_69">
    <path clip-path="url(#pd7879ece53)" style="fill:none;stroke:#808080;stroke-dasharray:1.5,2.475;stroke-dashoffset:0;stroke-width:1.5;"/>
   </g>
   <g id="line2d_70">
    <path clip-path="url(#pd7879ece53)" d="M 475.6 143.450798 
L 480.037166 116.667538 
L 482.502258 103.219674 
L 484.474331 93.66819 
L 486.446405 85.386115 
L 487.92546 80.066017 
L 489.404515 75.520764 
L 490.88357 71.733177 
L 492.362625 68.664702 
L 493.841681 66.259543 
L 494.827717 64.991204 
L 495.813754 63.965016 
L 496.799791 63.157613 
L 497.785828 62.545235 
L 499.264883 61.940758 
L 500.743938 61.644944 
L 502.222993 61.58611 
L 504.195067 61.76601 
L 507.153177 62.335507 
L 512.57638 63.428998 
L 515.53449 63.750747 
L 517.999582 63.811276 
L 520.957692 63.646528 
L 524.408821 63.196904 
L 529.339005 62.279355 
L 536.734281 60.646127 
L 544.622575 58.865719 
L 547.580686 58.455963 
L 550.045778 58.354157 
L 552.51087 58.51627 
L 554.975962 58.943762 
L 557.441054 59.593445 
L 561.385201 60.892972 
L 566.808403 62.645884 
L 576.668771 65.555421 
L 579.133863 66.603636 
L 582.091973 68.124097 
L 589.980268 72.434577 
L 592.44536 73.38964 
L 594.910452 74.058827 
L 600.826672 75.384004 
L 602.305727 76.019711 
L 603.784783 76.957617 
L 604.770819 77.800547 
L 605.756856 78.852134 
L 606.742893 80.140718 
L 607.72893 81.69268 
L 609.207985 84.565324 
L 610.68704 88.147773 
L 612.166095 92.48265 
L 613.645151 97.586589 
L 615.124206 103.447664 
L 617.096279 112.364184 
L 619.068353 122.371932 
L 621.533445 136.017873 
L 623.0125 144.571209 
L 623.0125 144.571209 
" style="fill:none;stroke:#2ca02c;stroke-linecap:square;stroke-width:1.5;"/>
   </g>
   <g id="line2d_71">
    <path clip-path="url(#pd7879ece53)" style="fill:none;stroke:#808080;stroke-dasharray:1.5,2.475;stroke-dashoffset:0;stroke-width:1.5;"/>
   </g>
   <g id="line2d_72">
    <path clip-path="url(#pd7879ece53)" d="M 475.6 164.243547 
L 480.037166 138.982825 
L 483.981313 117.003794 
L 486.446405 104.501388 
L 488.418478 95.552171 
L 490.390552 87.725225 
L 491.869607 82.659518 
L 493.348662 78.308996 
L 494.827717 74.672698 
L 496.306773 71.727697 
L 497.785828 69.43046 
L 498.771865 68.229033 
L 499.757901 67.266341 
L 500.743938 66.517975 
L 502.222993 65.739757 
L 503.702048 65.29245 
L 505.181104 65.083221 
L 507.646196 65.026171 
L 511.097324 64.994414 
L 513.069398 64.778551 
L 515.041472 64.339914 
L 517.013545 63.667439 
L 519.478637 62.538389 
L 522.436747 60.903422 
L 527.366931 58.126088 
L 529.832023 56.99122 
L 531.804097 56.291841 
L 533.776171 55.800994 
L 535.748244 55.516776 
L 538.213336 55.4151 
L 541.171446 55.551647 
L 548.566722 56.023049 
L 552.51087 55.966294 
L 556.948035 55.907574 
L 559.413127 56.081199 
L 561.878219 56.498002 
L 564.343311 57.165705 
L 567.79444 58.385291 
L 571.245569 59.585303 
L 573.217642 60.082024 
L 575.189716 60.342425 
L 576.668771 60.348528 
L 578.147826 60.177414 
L 579.626881 59.826347 
L 581.598955 59.092636 
L 583.571028 58.09771 
L 586.03612 56.597584 
L 590.966304 53.497588 
L 592.938378 52.558353 
L 594.417433 52.092688 
L 595.896488 51.899476 
L 596.882525 51.953067 
L 597.868562 52.174727 
L 598.854599 52.58366 
L 599.840635 53.199143 
L 600.826672 54.040365 
L 601.812709 55.126227 
L 602.798746 56.475084 
L 603.784783 58.104437 
L 605.263838 61.109594 
L 606.742893 64.829786 
L 608.221948 69.300994 
L 609.701003 74.543908 
L 611.180059 80.560437 
L 613.152132 89.748062 
L 615.124206 100.158987 
L 617.589298 114.593548 
L 621.040426 136.466512 
L 623.0125 149.211697 
L 623.0125 149.211697 
" style="fill:none;stroke:#d62728;stroke-linecap:square;stroke-width:1.5;"/>
   </g>
   <g id="line2d_73">
    <path clip-path="url(#pd7879ece53)" style="fill:none;stroke:#808080;stroke-dasharray:1.5,2.475;stroke-dashoffset:0;stroke-width:1.5;"/>
   </g>
   <g id="line2d_74">
    <path clip-path="url(#pd7879ece53)" d="M 475.6 155.660282 
L 479.544147 135.967934 
L 482.009239 124.670515 
L 484.474331 114.464968 
L 486.446405 107.139889 
L 488.418478 100.532584 
L 490.390552 94.573424 
L 492.855644 87.900117 
L 495.320736 81.93152 
L 497.785828 76.541523 
L 500.25092 71.665201 
L 502.716012 67.292807 
L 504.688085 64.172977 
L 506.660159 61.406326 
L 508.632232 59.003304 
L 510.604306 56.963659 
L 512.57638 55.273896 
L 514.548453 53.907179 
L 516.520527 52.825144 
L 518.4926 51.981136 
L 520.957692 51.183771 
L 523.915803 50.481395 
L 527.85995 49.787581 
L 531.804097 49.312468 
L 534.762207 49.193656 
L 537.227299 49.341639 
L 539.199373 49.661801 
L 541.171446 50.17423 
L 543.636538 51.069402 
L 546.594649 52.428076 
L 553.496906 55.745805 
L 555.961998 56.605936 
L 557.934072 57.077178 
L 559.906145 57.336595 
L 561.878219 57.383206 
L 563.850293 57.229221 
L 566.315385 56.789455 
L 569.273495 55.979069 
L 573.710661 54.455191 
L 577.654808 53.173772 
L 580.1199 52.621987 
L 582.091973 52.423792 
L 583.571028 52.46162 
L 585.050084 52.689354 
L 586.529139 53.130819 
L 588.008194 53.805356 
L 589.487249 54.726692 
L 590.966304 55.902306 
L 592.44536 57.333485 
L 593.924415 59.016219 
L 595.896488 61.637918 
L 597.868562 64.673985 
L 599.840635 68.114989 
L 601.812709 71.974195 
L 603.784783 76.2968 
L 605.756856 81.162172 
L 607.72893 86.676857 
L 609.701003 92.958125 
L 611.673077 100.110184 
L 613.645151 108.197319 
L 615.617224 117.21942 
L 618.082316 129.679947 
L 621.040426 145.886266 
L 623.0125 157.028868 
L 623.0125 157.028868 
" style="fill:none;stroke:#9467bd;stroke-linecap:square;stroke-width:1.5;"/>
   </g>
   <g id="line2d_75">
    <path clip-path="url(#pd7879ece53)" style="fill:none;stroke:#808080;stroke-dasharray:1.5,2.475;stroke-dashoffset:0;stroke-width:1.5;"/>
   </g>
   <g id="line2d_76">
    <path clip-path="url(#pd7879ece53)" d="M 475.6 153.684337 
L 481.516221 119.754623 
L 483.981313 106.972204 
L 485.953386 97.774527 
L 487.92546 89.64185 
L 489.897533 82.644197 
L 491.376589 78.148854 
L 492.855644 74.283995 
L 494.334699 71.022305 
L 495.813754 68.327069 
L 497.292809 66.1553 
L 498.771865 64.46055 
L 500.25092 63.195239 
L 501.729975 62.312457 
L 503.20903 61.767228 
L 504.688085 61.517295 
L 506.16714 61.523494 
L 507.646196 61.749818 
L 509.618269 62.337343 
L 511.590343 63.186848 
L 514.055435 64.519985 
L 517.506564 66.690883 
L 523.915803 70.791089 
L 526.873913 72.366821 
L 529.339005 73.407622 
L 531.311079 74.031381 
L 533.283152 74.456763 
L 535.255226 74.68063 
L 537.227299 74.706947 
L 539.199373 74.54575 
L 541.664465 74.104554 
L 544.129557 73.436795 
L 547.580686 72.232398 
L 554.482943 69.710673 
L 556.948035 69.067312 
L 559.413127 68.659704 
L 561.878219 68.487245 
L 565.329348 68.51695 
L 569.273495 68.535474 
L 571.245569 68.352836 
L 573.217642 67.946356 
L 575.189716 67.264318 
L 577.161789 66.277477 
L 579.133863 64.980035 
L 581.105936 63.387413 
L 583.07801 61.532113 
L 585.543102 58.913659 
L 589.487249 54.306364 
L 593.431396 49.747593 
L 595.40347 47.769903 
L 596.882525 46.546334 
L 598.36158 45.635905 
L 599.347617 45.247959 
L 600.333654 45.069002 
L 601.319691 45.129169 
L 602.305727 45.459057 
L 603.291764 46.089075 
L 604.277801 47.048733 
L 605.263838 48.36585 
L 606.249875 50.065747 
L 607.235911 52.170415 
L 608.221948 54.697716 
L 609.701003 59.307994 
L 611.180059 64.916887 
L 612.659114 71.512257 
L 614.138169 79.047788 
L 616.110242 90.413335 
L 618.575334 106.329332 
L 622.026463 130.468337 
L 623.0125 137.480575 
L 623.0125 137.480575 
" style="fill:none;stroke:#8c564b;stroke-linecap:square;stroke-width:1.5;"/>
   </g>
   <g id="line2d_77">
    <path clip-path="url(#pd7879ece53)" style="fill:none;stroke:#808080;stroke-dasharray:1.5,2.475;stroke-dashoffset:0;stroke-width:1.5;"/>
   </g>
   <g id="line2d_78">
    <path clip-path="url(#pd7879ece53)" d="M 475.6 133.713475 
L 479.051129 111.792254 
L 481.516221 97.679035 
L 483.488294 87.81371 
L 484.967349 81.400383 
L 486.446405 75.897573 
L 487.92546 71.327659 
L 489.404515 67.680054 
L 490.390552 65.741725 
L 491.376589 64.177138 
L 492.362625 62.963319 
L 493.348662 62.073745 
L 494.334699 61.4792 
L 495.320736 61.14866 
L 496.306773 61.050155 
L 497.292809 61.151608 
L 498.771865 61.610322 
L 500.25092 62.348781 
L 502.222993 63.61676 
L 506.16714 66.532055 
L 510.111288 69.328328 
L 513.069398 71.156843 
L 516.027508 72.703106 
L 518.4926 73.735773 
L 520.464674 74.357155 
L 522.436747 74.761933 
L 524.408821 74.921424 
L 526.380895 74.818592 
L 528.352968 74.455158 
L 530.325042 73.855821 
L 532.790134 72.849843 
L 540.678428 69.330568 
L 542.650502 68.755237 
L 544.622575 68.391392 
L 546.594649 68.242203 
L 549.059741 68.322705 
L 552.017851 68.691354 
L 557.441054 69.458756 
L 559.906145 69.553502 
L 561.878219 69.420115 
L 563.850293 69.068586 
L 565.822366 68.486779 
L 567.79444 67.679441 
L 570.259532 66.386468 
L 573.217642 64.518906 
L 581.105936 59.269867 
L 583.571028 58.01023 
L 585.543102 57.256794 
L 587.515176 56.766074 
L 589.487249 56.560617 
L 590.966304 56.603569 
L 592.44536 56.822877 
L 593.924415 57.227587 
L 595.40347 57.831237 
L 596.882525 58.653901 
L 598.36158 59.723773 
L 599.840635 61.078021 
L 601.319691 62.762665 
L 602.798746 64.831337 
L 604.277801 67.34287 
L 605.756856 70.357807 
L 607.235911 73.934038 
L 608.714967 78.121883 
L 610.194022 82.959046 
L 611.673077 88.465881 
L 613.645151 96.844958 
L 615.617224 106.340627 
L 618.082316 119.546237 
L 621.040426 136.738144 
L 623.0125 148.546415 
L 623.0125 148.546415 
" style="fill:none;stroke:#e377c2;stroke-linecap:square;stroke-width:1.5;"/>
   </g>
   <g id="line2d_79">
    <path clip-path="url(#pd7879ece53)" style="fill:none;stroke:#808080;stroke-dasharray:1.5,2.475;stroke-dashoffset:0;stroke-width:1.5;"/>
   </g>
   <g id="line2d_80">
    <path clip-path="url(#pd7879ece53)" d="M 475.6 156.519687 
L 481.023202 127.278134 
L 483.488294 115.083958 
L 485.953386 104.052792 
L 487.92546 96.171395 
L 489.897533 89.146628 
L 491.869607 82.948555 
L 493.841681 77.521245 
L 495.813754 72.800562 
L 497.785828 68.729475 
L 499.757901 65.268413 
L 501.236957 63.061249 
L 502.716012 61.186198 
L 504.195067 59.647074 
L 505.674122 58.449317 
L 507.153177 57.596974 
L 508.632232 57.089634 
L 510.111288 56.91969 
L 511.590343 57.070259 
L 513.069398 57.514032 
L 514.548453 58.213209 
L 516.520527 59.46 
L 518.985619 61.337271 
L 523.422784 64.794202 
L 525.394858 66.076678 
L 527.366931 67.098184 
L 529.339005 67.838807 
L 531.311079 68.31995 
L 533.776171 68.644041 
L 541.664465 69.38753 
L 544.129557 69.96576 
L 547.580686 71.060163 
L 551.031814 72.142562 
L 553.003888 72.553241 
L 554.482943 72.685777 
L 555.961998 72.629326 
L 557.441054 72.359027 
L 558.920109 71.861319 
L 560.399164 71.135048 
L 561.878219 70.191606 
L 563.850293 68.637355 
L 566.315385 66.338159 
L 573.710661 59.111317 
L 575.682734 57.591482 
L 577.654808 56.378707 
L 579.626881 55.495807 
L 581.598955 54.934604 
L 583.571028 54.659105 
L 585.543102 54.612094 
L 588.008194 54.769923 
L 592.938378 55.36427 
L 596.882525 55.980051 
L 598.854599 56.491485 
L 600.333654 57.073695 
L 601.812709 57.912006 
L 603.291764 59.094548 
L 604.277801 60.120348 
L 605.263838 61.368913 
L 606.249875 62.867762 
L 607.72893 65.641932 
L 609.207985 69.115884 
L 610.68704 73.351317 
L 612.166095 78.388073 
L 613.645151 84.239797 
L 615.124206 90.890865 
L 617.096279 100.917784 
L 619.068353 112.086516 
L 622.026463 130.353309 
L 623.0125 136.671477 
L 623.0125 136.671477 
" style="fill:none;stroke:#7f7f7f;stroke-linecap:square;stroke-width:1.5;"/>
   </g>
   <g id="line2d_81">
    <path clip-path="url(#pd7879ece53)" style="fill:none;stroke:#808080;stroke-dasharray:1.5,2.475;stroke-dashoffset:0;stroke-width:1.5;"/>
   </g>
   <g id="line2d_82">
    <path clip-path="url(#pd7879ece53)" d="M 475.6 135.373256 
L 479.051129 112.73933 
L 481.516221 98.017158 
L 483.488294 87.600049 
L 484.967349 80.725673 
L 486.446405 74.712011 
L 487.92546 69.573155 
L 489.404515 65.292442 
L 490.88357 61.827289 
L 492.362625 59.115275 
L 493.348662 57.688679 
L 494.334699 56.539042 
L 495.320736 55.641556 
L 496.306773 54.971614 
L 497.292809 54.505389 
L 498.278846 54.220312 
L 499.757901 54.086914 
L 501.236957 54.251042 
L 502.716012 54.658708 
L 504.688085 55.503434 
L 506.660159 56.610916 
L 509.125251 58.246925 
L 516.520527 63.374247 
L 518.4926 64.386942 
L 519.971656 64.943067 
L 521.450711 65.290955 
L 522.929766 65.407709 
L 524.408821 65.279427 
L 525.887876 64.902525 
L 527.366931 64.284395 
L 528.845987 63.443326 
L 530.81806 62.025393 
L 533.283152 59.906852 
L 540.18541 53.696481 
L 542.157483 52.295684 
L 544.129557 51.200163 
L 545.608612 50.602495 
L 547.087667 50.205359 
L 548.566722 50.009099 
L 550.045778 50.008442 
L 551.524833 50.193816 
L 553.496906 50.708544 
L 555.46898 51.498223 
L 557.441054 52.528978 
L 559.906145 54.108839 
L 562.371237 55.961879 
L 565.329348 58.473774 
L 569.273495 62.142925 
L 575.189716 67.649016 
L 578.147826 70.05147 
L 580.612918 71.755983 
L 583.07801 73.176842 
L 586.03612 74.576767 
L 592.938378 77.651863 
L 594.910452 78.827438 
L 596.882525 80.275131 
L 598.854599 82.064745 
L 600.333654 83.672658 
L 601.812709 85.541768 
L 603.291764 87.704533 
L 604.770819 90.196184 
L 606.249875 93.054484 
L 607.72893 96.318489 
L 609.207985 100.02625 
L 610.68704 104.211569 
L 612.659114 110.577445 
L 614.631187 117.861121 
L 616.603261 126.032399 
L 619.068353 137.342322 
L 622.026463 152.060028 
L 623.0125 157.11426 
L 623.0125 157.11426 
" style="fill:none;stroke:#bcbd22;stroke-linecap:square;stroke-width:1.5;"/>
   </g>
   <g id="line2d_83">
    <path clip-path="url(#pd7879ece53)" style="fill:none;stroke:#808080;stroke-dasharray:1.5,2.475;stroke-dashoffset:0;stroke-width:1.5;"/>
   </g>
   <g id="patch_9">
    <path d="M 475.6 170.4 
L 475.6 34.958033 
" style="fill:none;stroke:#000000;stroke-linecap:square;stroke-linejoin:miter;stroke-width:0.8;"/>
   </g>
   <g id="patch_10">
    <path d="M 475.6 170.4 
L 623.0125 170.4 
" style="fill:none;stroke:#000000;stroke-linecap:square;stroke-linejoin:miter;stroke-width:0.8;"/>
   </g>
  </g>
  <g id="text_36">
   <!-- euclidean -->
   <g transform="translate(294.8925 13.438125)scale(0.12 -0.12)">
    <defs>
     <path d="M 8.5 21.578125 
L 8.5 54.6875 
L 17.484375 54.6875 
L 17.484375 21.921875 
Q 17.484375 14.15625 20.5 10.265625 
Q 23.53125 6.390625 29.59375 6.390625 
Q 36.859375 6.390625 41.078125 11.03125 
Q 45.3125 15.671875 45.3125 23.6875 
L 45.3125 54.6875 
L 54.296875 54.6875 
L 54.296875 0 
L 45.3125 0 
L 45.3125 8.40625 
Q 42.046875 3.421875 37.71875 1 
Q 33.40625 -1.421875 27.6875 -1.421875 
Q 18.265625 -1.421875 13.375 4.4375 
Q 8.5 10.296875 8.5 21.578125 
z
M 31.109375 56 
z
" id="DejaVuSans-117"/>
     <path d="M 48.78125 52.59375 
L 48.78125 44.1875 
Q 44.96875 46.296875 41.140625 47.34375 
Q 37.3125 48.390625 33.40625 48.390625 
Q 24.65625 48.390625 19.8125 42.84375 
Q 14.984375 37.3125 14.984375 27.296875 
Q 14.984375 17.28125 19.8125 11.734375 
Q 24.65625 6.203125 33.40625 6.203125 
Q 37.3125 6.203125 41.140625 7.25 
Q 44.96875 8.296875 48.78125 10.40625 
L 48.78125 2.09375 
Q 45.015625 0.34375 40.984375 -0.53125 
Q 36.96875 -1.421875 32.421875 -1.421875 
Q 20.0625 -1.421875 12.78125 6.34375 
Q 5.515625 14.109375 5.515625 27.296875 
Q 5.515625 40.671875 12.859375 48.328125 
Q 20.21875 56 33.015625 56 
Q 37.15625 56 41.109375 55.140625 
Q 45.0625 54.296875 48.78125 52.59375 
z
" id="DejaVuSans-99"/>
     <path d="M 9.421875 75.984375 
L 18.40625 75.984375 
L 18.40625 0 
L 9.421875 0 
z
" id="DejaVuSans-108"/>
     <path d="M 45.40625 46.390625 
L 45.40625 75.984375 
L 54.390625 75.984375 
L 54.390625 0 
L 45.40625 0 
L 45.40625 8.203125 
Q 42.578125 3.328125 38.25 0.953125 
Q 33.9375 -1.421875 27.875 -1.421875 
Q 17.96875 -1.421875 11.734375 6.484375 
Q 5.515625 14.40625 5.515625 27.296875 
Q 5.515625 40.1875 11.734375 48.09375 
Q 17.96875 56 27.875 56 
Q 33.9375 56 38.25 53.625 
Q 42.578125 51.265625 45.40625 46.390625 
z
M 14.796875 27.296875 
Q 14.796875 17.390625 18.875 11.75 
Q 22.953125 6.109375 30.078125 6.109375 
Q 37.203125 6.109375 41.296875 11.75 
Q 45.40625 17.390625 45.40625 27.296875 
Q 45.40625 37.203125 41.296875 42.84375 
Q 37.203125 48.484375 30.078125 48.484375 
Q 22.953125 48.484375 18.875 42.84375 
Q 14.796875 37.203125 14.796875 27.296875 
z
" id="DejaVuSans-100"/>
     <path d="M 34.28125 27.484375 
Q 23.390625 27.484375 19.1875 25 
Q 14.984375 22.515625 14.984375 16.5 
Q 14.984375 11.71875 18.140625 8.90625 
Q 21.296875 6.109375 26.703125 6.109375 
Q 34.1875 6.109375 38.703125 11.40625 
Q 43.21875 16.703125 43.21875 25.484375 
L 43.21875 27.484375 
z
M 52.203125 31.203125 
L 52.203125 0 
L 43.21875 0 
L 43.21875 8.296875 
Q 40.140625 3.328125 35.546875 0.953125 
Q 30.953125 -1.421875 24.3125 -1.421875 
Q 15.921875 -1.421875 10.953125 3.296875 
Q 6 8.015625 6 15.921875 
Q 6 25.140625 12.171875 29.828125 
Q 18.359375 34.515625 30.609375 34.515625 
L 43.21875 34.515625 
L 43.21875 35.40625 
Q 43.21875 41.609375 39.140625 45 
Q 35.0625 48.390625 27.6875 48.390625 
Q 23 48.390625 18.546875 47.265625 
Q 14.109375 46.140625 10.015625 43.890625 
L 10.015625 52.203125 
Q 14.9375 54.109375 19.578125 55.046875 
Q 24.21875 56 28.609375 56 
Q 40.484375 56 46.34375 49.84375 
Q 52.203125 43.703125 52.203125 31.203125 
z
" id="DejaVuSans-97"/>
     <path d="M 54.890625 33.015625 
L 54.890625 0 
L 45.90625 0 
L 45.90625 32.71875 
Q 45.90625 40.484375 42.875 44.328125 
Q 39.84375 48.1875 33.796875 48.1875 
Q 26.515625 48.1875 22.3125 43.546875 
Q 18.109375 38.921875 18.109375 30.90625 
L 18.109375 0 
L 9.078125 0 
L 9.078125 54.6875 
L 18.109375 54.6875 
L 18.109375 46.1875 
Q 21.34375 51.125 25.703125 53.5625 
Q 30.078125 56 35.796875 56 
Q 45.21875 56 50.046875 50.171875 
Q 54.890625 44.34375 54.890625 33.015625 
z
" id="DejaVuSans-110"/>
    </defs>
    <use xlink:href="#DejaVuSans-101"/>
    <use x="61.523438" xlink:href="#DejaVuSans-117"/>
    <use x="124.902344" xlink:href="#DejaVuSans-99"/>
    <use x="179.882812" xlink:href="#DejaVuSans-108"/>
    <use x="207.666016" xlink:href="#DejaVuSans-105"/>
    <use x="235.449219" xlink:href="#DejaVuSans-100"/>
    <use x="298.925781" xlink:href="#DejaVuSans-101"/>
    <use x="360.449219" xlink:href="#DejaVuSans-97"/>
    <use x="421.728516" xlink:href="#DejaVuSans-110"/>
   </g>
  </g>
 </g>
 <defs>
  <clipPath id="p9b11a930c3">
   <rect height="135.441967" width="147.4125" x="44.55" y="34.958033"/>
  </clipPath>
  <clipPath id="p4437e5fb5d">
   <rect height="135.441967" width="147.4125" x="260.075" y="34.958033"/>
  </clipPath>
  <clipPath id="pd7879ece53">
   <rect height="135.441967" width="147.4125" x="475.6" y="34.958033"/>
  </clipPath>
 </defs>
</svg>
