<?xml version="1.0" encoding="utf-8" standalone="no"?>
<!DOCTYPE svg PUBLIC "-//W3C//DTD SVG 1.1//EN"
  "http://www.w3.org/Graphics/SVG/1.1/DTD/svg11.dtd">
<!-- Created with matplotlib (https://matplotlib.org/) -->
<svg height="216pt" version="1.1" viewBox="0 0 648 216" width="648pt" xmlns="http://www.w3.org/2000/svg" xmlns:xlink="http://www.w3.org/1999/xlink">
 <metadata>
  <rdf:RDF xmlns:cc="http://creativecommons.org/ns#" xmlns:dc="http://purl.org/dc/elements/1.1/" xmlns:rdf="http://www.w3.org/1999/02/22-rdf-syntax-ns#">
   <cc:Work>
    <dc:type rdf:resource="http://purl.org/dc/dcmitype/StillImage"/>
    <dc:date>2021-04-22T11:29:18.120461</dc:date>
    <dc:format>image/svg+xml</dc:format>
    <dc:creator>
     <cc:Agent>
      <dc:title>Matplotlib v3.3.4, https://matplotlib.org/</dc:title>
     </cc:Agent>
    </dc:creator>
   </cc:Work>
  </rdf:RDF>
 </metadata>
 <defs>
  <style type="text/css">*{stroke-linecap:butt;stroke-linejoin:round;}</style>
 </defs>
 <g id="figure_1">
  <g id="patch_1">
   <path d="M 0 216 
L 648 216 
L 648 0 
L 0 0 
z
" style="fill:none;"/>
  </g>
  <g id="axes_1">
   <g id="patch_2">
    <path d="M 44.425 170.4 
L 196.045833 170.4 
L 196.045833 36.216027 
L 44.425 36.216027 
z
" style="fill:#ffffff;"/>
   </g>
   <g id="matplotlib.axis_1">
    <g id="xtick_1">
     <g id="line2d_1">
      <defs>
       <path d="M 0 0 
L 0 3.5 
" id="m61c6974a04" style="stroke:#000000;stroke-width:0.8;"/>
      </defs>
      <g>
       <use style="stroke:#000000;stroke-width:0.8;" x="44.425" xlink:href="#m61c6974a04" y="170.4"/>
      </g>
     </g>
     <g id="text_1">
      <!-- 0.00 -->
      <g transform="translate(33.292188 184.998437)scale(0.1 -0.1)">
       <defs>
        <path d="M 31.78125 66.40625 
Q 24.171875 66.40625 20.328125 58.90625 
Q 16.5 51.421875 16.5 36.375 
Q 16.5 21.390625 20.328125 13.890625 
Q 24.171875 6.390625 31.78125 6.390625 
Q 39.453125 6.390625 43.28125 13.890625 
Q 47.125 21.390625 47.125 36.375 
Q 47.125 51.421875 43.28125 58.90625 
Q 39.453125 66.40625 31.78125 66.40625 
z
M 31.78125 74.21875 
Q 44.046875 74.21875 50.515625 64.515625 
Q 56.984375 54.828125 56.984375 36.375 
Q 56.984375 17.96875 50.515625 8.265625 
Q 44.046875 -1.421875 31.78125 -1.421875 
Q 19.53125 -1.421875 13.0625 8.265625 
Q 6.59375 17.96875 6.59375 36.375 
Q 6.59375 54.828125 13.0625 64.515625 
Q 19.53125 74.21875 31.78125 74.21875 
z
" id="DejaVuSans-48"/>
        <path d="M 10.6875 12.40625 
L 21 12.40625 
L 21 0 
L 10.6875 0 
z
" id="DejaVuSans-46"/>
       </defs>
       <use xlink:href="#DejaVuSans-48"/>
       <use x="63.623047" xlink:href="#DejaVuSans-46"/>
       <use x="95.410156" xlink:href="#DejaVuSans-48"/>
       <use x="159.033203" xlink:href="#DejaVuSans-48"/>
      </g>
     </g>
    </g>
    <g id="xtick_2">
     <g id="line2d_2">
      <g>
       <use style="stroke:#000000;stroke-width:0.8;" x="74.749167" xlink:href="#m61c6974a04" y="170.4"/>
      </g>
     </g>
     <g id="text_2">
      <!-- 0.02 -->
      <g transform="translate(63.616354 184.998437)scale(0.1 -0.1)">
       <defs>
        <path d="M 19.1875 8.296875 
L 53.609375 8.296875 
L 53.609375 0 
L 7.328125 0 
L 7.328125 8.296875 
Q 12.9375 14.109375 22.625 23.890625 
Q 32.328125 33.6875 34.8125 36.53125 
Q 39.546875 41.84375 41.421875 45.53125 
Q 43.3125 49.21875 43.3125 52.78125 
Q 43.3125 58.59375 39.234375 62.25 
Q 35.15625 65.921875 28.609375 65.921875 
Q 23.96875 65.921875 18.8125 64.3125 
Q 13.671875 62.703125 7.8125 59.421875 
L 7.8125 69.390625 
Q 13.765625 71.78125 18.9375 73 
Q 24.125 74.21875 28.421875 74.21875 
Q 39.75 74.21875 46.484375 68.546875 
Q 53.21875 62.890625 53.21875 53.421875 
Q 53.21875 48.921875 51.53125 44.890625 
Q 49.859375 40.875 45.40625 35.40625 
Q 44.1875 33.984375 37.640625 27.21875 
Q 31.109375 20.453125 19.1875 8.296875 
z
" id="DejaVuSans-50"/>
       </defs>
       <use xlink:href="#DejaVuSans-48"/>
       <use x="63.623047" xlink:href="#DejaVuSans-46"/>
       <use x="95.410156" xlink:href="#DejaVuSans-48"/>
       <use x="159.033203" xlink:href="#DejaVuSans-50"/>
      </g>
     </g>
    </g>
    <g id="xtick_3">
     <g id="line2d_3">
      <g>
       <use style="stroke:#000000;stroke-width:0.8;" x="105.073333" xlink:href="#m61c6974a04" y="170.4"/>
      </g>
     </g>
     <g id="text_3">
      <!-- 0.04 -->
      <g transform="translate(93.940521 184.998437)scale(0.1 -0.1)">
       <defs>
        <path d="M 37.796875 64.3125 
L 12.890625 25.390625 
L 37.796875 25.390625 
z
M 35.203125 72.90625 
L 47.609375 72.90625 
L 47.609375 25.390625 
L 58.015625 25.390625 
L 58.015625 17.1875 
L 47.609375 17.1875 
L 47.609375 0 
L 37.796875 0 
L 37.796875 17.1875 
L 4.890625 17.1875 
L 4.890625 26.703125 
z
" id="DejaVuSans-52"/>
       </defs>
       <use xlink:href="#DejaVuSans-48"/>
       <use x="63.623047" xlink:href="#DejaVuSans-46"/>
       <use x="95.410156" xlink:href="#DejaVuSans-48"/>
       <use x="159.033203" xlink:href="#DejaVuSans-52"/>
      </g>
     </g>
    </g>
    <g id="xtick_4">
     <g id="line2d_4">
      <g>
       <use style="stroke:#000000;stroke-width:0.8;" x="135.3975" xlink:href="#m61c6974a04" y="170.4"/>
      </g>
     </g>
     <g id="text_4">
      <!-- 0.06 -->
      <g transform="translate(124.264688 184.998437)scale(0.1 -0.1)">
       <defs>
        <path d="M 33.015625 40.375 
Q 26.375 40.375 22.484375 35.828125 
Q 18.609375 31.296875 18.609375 23.390625 
Q 18.609375 15.53125 22.484375 10.953125 
Q 26.375 6.390625 33.015625 6.390625 
Q 39.65625 6.390625 43.53125 10.953125 
Q 47.40625 15.53125 47.40625 23.390625 
Q 47.40625 31.296875 43.53125 35.828125 
Q 39.65625 40.375 33.015625 40.375 
z
M 52.59375 71.296875 
L 52.59375 62.3125 
Q 48.875 64.0625 45.09375 64.984375 
Q 41.3125 65.921875 37.59375 65.921875 
Q 27.828125 65.921875 22.671875 59.328125 
Q 17.53125 52.734375 16.796875 39.40625 
Q 19.671875 43.65625 24.015625 45.921875 
Q 28.375 48.1875 33.59375 48.1875 
Q 44.578125 48.1875 50.953125 41.515625 
Q 57.328125 34.859375 57.328125 23.390625 
Q 57.328125 12.15625 50.6875 5.359375 
Q 44.046875 -1.421875 33.015625 -1.421875 
Q 20.359375 -1.421875 13.671875 8.265625 
Q 6.984375 17.96875 6.984375 36.375 
Q 6.984375 53.65625 15.1875 63.9375 
Q 23.390625 74.21875 37.203125 74.21875 
Q 40.921875 74.21875 44.703125 73.484375 
Q 48.484375 72.75 52.59375 71.296875 
z
" id="DejaVuSans-54"/>
       </defs>
       <use xlink:href="#DejaVuSans-48"/>
       <use x="63.623047" xlink:href="#DejaVuSans-46"/>
       <use x="95.410156" xlink:href="#DejaVuSans-48"/>
       <use x="159.033203" xlink:href="#DejaVuSans-54"/>
      </g>
     </g>
    </g>
    <g id="xtick_5">
     <g id="line2d_5">
      <g>
       <use style="stroke:#000000;stroke-width:0.8;" x="165.721667" xlink:href="#m61c6974a04" y="170.4"/>
      </g>
     </g>
     <g id="text_5">
      <!-- 0.08 -->
      <g transform="translate(154.588854 184.998437)scale(0.1 -0.1)">
       <defs>
        <path d="M 31.78125 34.625 
Q 24.75 34.625 20.71875 30.859375 
Q 16.703125 27.09375 16.703125 20.515625 
Q 16.703125 13.921875 20.71875 10.15625 
Q 24.75 6.390625 31.78125 6.390625 
Q 38.8125 6.390625 42.859375 10.171875 
Q 46.921875 13.96875 46.921875 20.515625 
Q 46.921875 27.09375 42.890625 30.859375 
Q 38.875 34.625 31.78125 34.625 
z
M 21.921875 38.8125 
Q 15.578125 40.375 12.03125 44.71875 
Q 8.5 49.078125 8.5 55.328125 
Q 8.5 64.0625 14.71875 69.140625 
Q 20.953125 74.21875 31.78125 74.21875 
Q 42.671875 74.21875 48.875 69.140625 
Q 55.078125 64.0625 55.078125 55.328125 
Q 55.078125 49.078125 51.53125 44.71875 
Q 48 40.375 41.703125 38.8125 
Q 48.828125 37.15625 52.796875 32.3125 
Q 56.78125 27.484375 56.78125 20.515625 
Q 56.78125 9.90625 50.3125 4.234375 
Q 43.84375 -1.421875 31.78125 -1.421875 
Q 19.734375 -1.421875 13.25 4.234375 
Q 6.78125 9.90625 6.78125 20.515625 
Q 6.78125 27.484375 10.78125 32.3125 
Q 14.796875 37.15625 21.921875 38.8125 
z
M 18.3125 54.390625 
Q 18.3125 48.734375 21.84375 45.5625 
Q 25.390625 42.390625 31.78125 42.390625 
Q 38.140625 42.390625 41.71875 45.5625 
Q 45.3125 48.734375 45.3125 54.390625 
Q 45.3125 60.0625 41.71875 63.234375 
Q 38.140625 66.40625 31.78125 66.40625 
Q 25.390625 66.40625 21.84375 63.234375 
Q 18.3125 60.0625 18.3125 54.390625 
z
" id="DejaVuSans-56"/>
       </defs>
       <use xlink:href="#DejaVuSans-48"/>
       <use x="63.623047" xlink:href="#DejaVuSans-46"/>
       <use x="95.410156" xlink:href="#DejaVuSans-48"/>
       <use x="159.033203" xlink:href="#DejaVuSans-56"/>
      </g>
     </g>
    </g>
    <g id="xtick_6">
     <g id="line2d_6">
      <g>
       <use style="stroke:#000000;stroke-width:0.8;" x="196.045833" xlink:href="#m61c6974a04" y="170.4"/>
      </g>
     </g>
     <g id="text_6">
      <!-- 0.10 -->
      <g transform="translate(184.913021 184.998437)scale(0.1 -0.1)">
       <defs>
        <path d="M 12.40625 8.296875 
L 28.515625 8.296875 
L 28.515625 63.921875 
L 10.984375 60.40625 
L 10.984375 69.390625 
L 28.421875 72.90625 
L 38.28125 72.90625 
L 38.28125 8.296875 
L 54.390625 8.296875 
L 54.390625 0 
L 12.40625 0 
z
" id="DejaVuSans-49"/>
       </defs>
       <use xlink:href="#DejaVuSans-48"/>
       <use x="63.623047" xlink:href="#DejaVuSans-46"/>
       <use x="95.410156" xlink:href="#DejaVuSans-49"/>
       <use x="159.033203" xlink:href="#DejaVuSans-48"/>
      </g>
     </g>
    </g>
    <g id="text_7">
     <!-- $\theta_0$ -->
     <g transform="translate(114.785417 198.676562)scale(0.1 -0.1)">
      <defs>
       <path d="M 45.515625 34.671875 
L 14.453125 34.671875 
Q 12.359375 20.0625 14.5 13.875 
Q 17.1875 6.25 24.46875 6.25 
Q 31.78125 6.25 37.359375 13.921875 
Q 42.234375 20.65625 45.515625 34.671875 
z
M 47.015625 42.96875 
Q 48.34375 56.84375 46.625 61.71875 
Q 43.953125 69.4375 36.765625 69.4375 
Q 29.296875 69.4375 23.828125 61.8125 
Q 19.53125 55.671875 16.15625 42.96875 
z
M 38.1875 76.765625 
Q 49.90625 76.765625 54.59375 66.40625 
Q 59.28125 56.109375 55.71875 37.84375 
Q 52.203125 19.625 43.453125 9.28125 
Q 34.765625 -1.125 23.046875 -1.125 
Q 11.28125 -1.125 6.640625 9.28125 
Q 2 19.625 5.515625 37.84375 
Q 9.078125 56.109375 17.71875 66.40625 
Q 26.421875 76.765625 38.1875 76.765625 
z
" id="DejaVuSans-Oblique-952"/>
      </defs>
      <use transform="translate(0 0.234375)" xlink:href="#DejaVuSans-Oblique-952"/>
      <use transform="translate(61.181641 -16.171875)scale(0.7)" xlink:href="#DejaVuSans-48"/>
     </g>
    </g>
   </g>
   <g id="matplotlib.axis_2">
    <g id="ytick_1">
     <g id="line2d_7">
      <defs>
       <path d="M 0 0 
L -3.5 0 
" id="m48f02655ec" style="stroke:#000000;stroke-width:0.8;"/>
      </defs>
      <g>
       <use style="stroke:#000000;stroke-width:0.8;" x="44.425" xlink:href="#m48f02655ec" y="155.707197"/>
      </g>
     </g>
     <g id="text_8">
      <!-- 4 -->
      <g transform="translate(31.0625 159.506416)scale(0.1 -0.1)">
       <use xlink:href="#DejaVuSans-52"/>
      </g>
     </g>
    </g>
    <g id="ytick_2">
     <g id="line2d_8">
      <g>
       <use style="stroke:#000000;stroke-width:0.8;" x="44.425" xlink:href="#m48f02655ec" y="124.768675"/>
      </g>
     </g>
     <g id="text_9">
      <!-- 6 -->
      <g transform="translate(31.0625 128.567893)scale(0.1 -0.1)">
       <use xlink:href="#DejaVuSans-54"/>
      </g>
     </g>
    </g>
    <g id="ytick_3">
     <g id="line2d_9">
      <g>
       <use style="stroke:#000000;stroke-width:0.8;" x="44.425" xlink:href="#m48f02655ec" y="93.830152"/>
      </g>
     </g>
     <g id="text_10">
      <!-- 8 -->
      <g transform="translate(31.0625 97.62937)scale(0.1 -0.1)">
       <use xlink:href="#DejaVuSans-56"/>
      </g>
     </g>
    </g>
    <g id="ytick_4">
     <g id="line2d_10">
      <g>
       <use style="stroke:#000000;stroke-width:0.8;" x="44.425" xlink:href="#m48f02655ec" y="62.891629"/>
      </g>
     </g>
     <g id="text_11">
      <!-- 10 -->
      <g transform="translate(24.7 66.690848)scale(0.1 -0.1)">
       <use xlink:href="#DejaVuSans-49"/>
       <use x="63.623047" xlink:href="#DejaVuSans-48"/>
      </g>
     </g>
    </g>
    <g id="text_12">
     <!-- Posterior -->
     <g transform="translate(18.620313 125.401763)rotate(-90)scale(0.1 -0.1)">
      <defs>
       <path d="M 19.671875 64.796875 
L 19.671875 37.40625 
L 32.078125 37.40625 
Q 38.96875 37.40625 42.71875 40.96875 
Q 46.484375 44.53125 46.484375 51.125 
Q 46.484375 57.671875 42.71875 61.234375 
Q 38.96875 64.796875 32.078125 64.796875 
z
M 9.8125 72.90625 
L 32.078125 72.90625 
Q 44.34375 72.90625 50.609375 67.359375 
Q 56.890625 61.8125 56.890625 51.125 
Q 56.890625 40.328125 50.609375 34.8125 
Q 44.34375 29.296875 32.078125 29.296875 
L 19.671875 29.296875 
L 19.671875 0 
L 9.8125 0 
z
" id="DejaVuSans-80"/>
       <path d="M 30.609375 48.390625 
Q 23.390625 48.390625 19.1875 42.75 
Q 14.984375 37.109375 14.984375 27.296875 
Q 14.984375 17.484375 19.15625 11.84375 
Q 23.34375 6.203125 30.609375 6.203125 
Q 37.796875 6.203125 41.984375 11.859375 
Q 46.1875 17.53125 46.1875 27.296875 
Q 46.1875 37.015625 41.984375 42.703125 
Q 37.796875 48.390625 30.609375 48.390625 
z
M 30.609375 56 
Q 42.328125 56 49.015625 48.375 
Q 55.71875 40.765625 55.71875 27.296875 
Q 55.71875 13.875 49.015625 6.21875 
Q 42.328125 -1.421875 30.609375 -1.421875 
Q 18.84375 -1.421875 12.171875 6.21875 
Q 5.515625 13.875 5.515625 27.296875 
Q 5.515625 40.765625 12.171875 48.375 
Q 18.84375 56 30.609375 56 
z
" id="DejaVuSans-111"/>
       <path d="M 44.28125 53.078125 
L 44.28125 44.578125 
Q 40.484375 46.53125 36.375 47.5 
Q 32.28125 48.484375 27.875 48.484375 
Q 21.1875 48.484375 17.84375 46.4375 
Q 14.5 44.390625 14.5 40.28125 
Q 14.5 37.15625 16.890625 35.375 
Q 19.28125 33.59375 26.515625 31.984375 
L 29.59375 31.296875 
Q 39.15625 29.25 43.1875 25.515625 
Q 47.21875 21.78125 47.21875 15.09375 
Q 47.21875 7.46875 41.1875 3.015625 
Q 35.15625 -1.421875 24.609375 -1.421875 
Q 20.21875 -1.421875 15.453125 -0.5625 
Q 10.6875 0.296875 5.421875 2 
L 5.421875 11.28125 
Q 10.40625 8.6875 15.234375 7.390625 
Q 20.0625 6.109375 24.8125 6.109375 
Q 31.15625 6.109375 34.5625 8.28125 
Q 37.984375 10.453125 37.984375 14.40625 
Q 37.984375 18.0625 35.515625 20.015625 
Q 33.0625 21.96875 24.703125 23.78125 
L 21.578125 24.515625 
Q 13.234375 26.265625 9.515625 29.90625 
Q 5.8125 33.546875 5.8125 39.890625 
Q 5.8125 47.609375 11.28125 51.796875 
Q 16.75 56 26.8125 56 
Q 31.78125 56 36.171875 55.265625 
Q 40.578125 54.546875 44.28125 53.078125 
z
" id="DejaVuSans-115"/>
       <path d="M 18.3125 70.21875 
L 18.3125 54.6875 
L 36.8125 54.6875 
L 36.8125 47.703125 
L 18.3125 47.703125 
L 18.3125 18.015625 
Q 18.3125 11.328125 20.140625 9.421875 
Q 21.96875 7.515625 27.59375 7.515625 
L 36.8125 7.515625 
L 36.8125 0 
L 27.59375 0 
Q 17.1875 0 13.234375 3.875 
Q 9.28125 7.765625 9.28125 18.015625 
L 9.28125 47.703125 
L 2.6875 47.703125 
L 2.6875 54.6875 
L 9.28125 54.6875 
L 9.28125 70.21875 
z
" id="DejaVuSans-116"/>
       <path d="M 56.203125 29.59375 
L 56.203125 25.203125 
L 14.890625 25.203125 
Q 15.484375 15.921875 20.484375 11.0625 
Q 25.484375 6.203125 34.421875 6.203125 
Q 39.59375 6.203125 44.453125 7.46875 
Q 49.3125 8.734375 54.109375 11.28125 
L 54.109375 2.78125 
Q 49.265625 0.734375 44.1875 -0.34375 
Q 39.109375 -1.421875 33.890625 -1.421875 
Q 20.796875 -1.421875 13.15625 6.1875 
Q 5.515625 13.8125 5.515625 26.8125 
Q 5.515625 40.234375 12.765625 48.109375 
Q 20.015625 56 32.328125 56 
Q 43.359375 56 49.78125 48.890625 
Q 56.203125 41.796875 56.203125 29.59375 
z
M 47.21875 32.234375 
Q 47.125 39.59375 43.09375 43.984375 
Q 39.0625 48.390625 32.421875 48.390625 
Q 24.90625 48.390625 20.390625 44.140625 
Q 15.875 39.890625 15.1875 32.171875 
z
" id="DejaVuSans-101"/>
       <path d="M 41.109375 46.296875 
Q 39.59375 47.171875 37.8125 47.578125 
Q 36.03125 48 33.890625 48 
Q 26.265625 48 22.1875 43.046875 
Q 18.109375 38.09375 18.109375 28.8125 
L 18.109375 0 
L 9.078125 0 
L 9.078125 54.6875 
L 18.109375 54.6875 
L 18.109375 46.1875 
Q 20.953125 51.171875 25.484375 53.578125 
Q 30.03125 56 36.53125 56 
Q 37.453125 56 38.578125 55.875 
Q 39.703125 55.765625 41.0625 55.515625 
z
" id="DejaVuSans-114"/>
       <path d="M 9.421875 54.6875 
L 18.40625 54.6875 
L 18.40625 0 
L 9.421875 0 
z
M 9.421875 75.984375 
L 18.40625 75.984375 
L 18.40625 64.59375 
L 9.421875 64.59375 
z
" id="DejaVuSans-105"/>
      </defs>
      <use xlink:href="#DejaVuSans-80"/>
      <use x="56.677734" xlink:href="#DejaVuSans-111"/>
      <use x="117.859375" xlink:href="#DejaVuSans-115"/>
      <use x="169.958984" xlink:href="#DejaVuSans-116"/>
      <use x="209.167969" xlink:href="#DejaVuSans-101"/>
      <use x="270.691406" xlink:href="#DejaVuSans-114"/>
      <use x="311.804688" xlink:href="#DejaVuSans-105"/>
      <use x="339.587891" xlink:href="#DejaVuSans-111"/>
      <use x="400.769531" xlink:href="#DejaVuSans-114"/>
     </g>
    </g>
   </g>
   <g id="line2d_11">
    <path clip-path="url(#pa8b4d0d5c8)" d="M 44.425 135.681613 
L 48.988838 109.947639 
L 51.524303 96.896637 
L 53.552676 87.565796 
L 55.581048 79.413746 
L 57.102327 74.126956 
L 58.623606 69.555205 
L 60.144886 65.676898 
L 61.666165 62.449884 
L 63.187444 59.816538 
L 64.708724 57.709278 
L 66.230003 56.056023 
L 67.751282 54.785142 
L 69.272561 53.829591 
L 70.793841 53.130021 
L 72.31512 52.636795 
L 74.343492 52.234345 
L 76.371865 52.067638 
L 78.400237 52.103825 
L 80.428609 52.33415 
L 82.456982 52.766287 
L 84.485354 53.416081 
L 86.513726 54.299322 
L 88.542099 55.424057 
L 90.570471 56.783946 
L 93.105936 58.773341 
L 96.655588 61.910006 
L 100.712333 65.4934 
L 103.247798 67.423268 
L 105.276171 68.671135 
L 107.304543 69.606107 
L 108.825822 70.095165 
L 110.854195 70.483666 
L 112.882567 70.62362 
L 115.925125 70.556618 
L 119.474777 70.470867 
L 121.503149 70.602018 
L 123.531522 70.944555 
L 125.559894 71.521733 
L 127.588266 72.318603 
L 130.630825 73.808619 
L 135.701756 76.36322 
L 137.730128 77.139054 
L 139.758501 77.659772 
L 141.27978 77.85421 
L 142.801059 77.868921 
L 144.322338 77.702239 
L 145.843618 77.359948 
L 147.87199 76.65238 
L 149.900362 75.69849 
L 152.435828 74.246025 
L 161.563503 68.656606 
L 163.591876 67.801557 
L 165.113155 67.351938 
L 166.634434 67.096707 
L 168.155713 67.060744 
L 169.676993 67.267247 
L 171.198272 67.738485 
L 172.719551 68.496896 
L 174.240831 69.566351 
L 175.76211 70.973372 
L 177.283389 72.74797 
L 178.804668 74.923841 
L 180.325948 77.537642 
L 181.847227 80.627207 
L 183.368506 84.228692 
L 184.889785 88.372815 
L 186.411065 93.080527 
L 188.439437 100.243273 
L 190.467809 108.38205 
L 192.496182 117.39245 
L 195.53874 132.140161 
L 196.045833 134.693184 
L 196.045833 134.693184 
" style="fill:none;stroke:#1f77b4;stroke-linecap:square;stroke-width:1.5;"/>
   </g>
   <g id="line2d_12">
    <path clip-path="url(#pa8b4d0d5c8)" d="M 105.073333 170.4 
L 105.073333 36.216027 
" style="fill:none;stroke:#808080;stroke-dasharray:1.5,2.475;stroke-dashoffset:0;stroke-width:1.5;"/>
   </g>
   <g id="line2d_13">
    <path clip-path="url(#pa8b4d0d5c8)" d="M 44.425 133.911873 
L 47.974652 115.430022 
L 50.510117 103.436589 
L 52.538489 94.914864 
L 54.566862 87.503304 
L 56.088141 82.715054 
L 57.60942 78.591436 
L 59.1307 75.116135 
L 60.651979 72.258155 
L 62.173258 69.975771 
L 63.694537 68.220331 
L 65.215817 66.939628 
L 66.230003 66.323357 
L 67.751282 65.716643 
L 69.272561 65.446822 
L 70.793841 65.467028 
L 72.31512 65.734087 
L 73.836399 66.208571 
L 75.864771 67.102314 
L 78.400237 68.533017 
L 81.442795 70.536633 
L 88.542099 75.334772 
L 91.077564 76.726789 
L 93.105936 77.585982 
L 94.627216 78.039936 
L 96.148495 78.301038 
L 97.669774 78.344085 
L 99.191054 78.146451 
L 100.712333 77.689438 
L 102.233612 76.959719 
L 103.754891 75.950727 
L 105.276171 74.663887 
L 106.79745 73.109536 
L 108.825822 70.656399 
L 110.854195 67.836232 
L 113.896753 63.139491 
L 119.474777 54.353337 
L 122.010242 50.859286 
L 124.038615 48.477838 
L 125.559894 46.973873 
L 127.081173 45.726738 
L 128.602453 44.739253 
L 130.123732 44.005561 
L 131.645011 43.512943 
L 133.16629 43.24413 
L 134.68757 43.17989 
L 136.208849 43.301628 
L 138.237221 43.726917 
L 140.265594 44.432367 
L 142.293966 45.413366 
L 144.322338 46.682796 
L 146.350711 48.264946 
L 148.379083 50.185657 
L 150.407455 52.46065 
L 152.435828 55.084495 
L 154.971293 58.799225 
L 158.013852 63.704054 
L 163.591876 72.785796 
L 166.127341 76.433918 
L 168.155713 78.994284 
L 170.184086 81.226548 
L 172.719551 83.639559 
L 177.790482 88.211393 
L 179.311761 89.873423 
L 180.833041 91.838336 
L 182.35432 94.199392 
L 183.875599 97.040149 
L 185.396878 100.428594 
L 186.918158 104.411849 
L 188.439437 109.011861 
L 189.960716 114.222483 
L 191.989089 122.054428 
L 194.524554 133.023628 
L 196.045833 140.052114 
L 196.045833 140.052114 
" style="fill:none;stroke:#ff7f0e;stroke-linecap:square;stroke-width:1.5;"/>
   </g>
   <g id="line2d_14">
    <path clip-path="url(#pa8b4d0d5c8)" d="M 105.073333 170.4 
L 105.073333 36.216027 
" style="fill:none;stroke:#808080;stroke-dasharray:1.5,2.475;stroke-dashoffset:0;stroke-width:1.5;"/>
   </g>
   <g id="line2d_15">
    <path clip-path="url(#pa8b4d0d5c8)" d="M 44.425 150.07738 
L 53.552676 103.550882 
L 55.581048 94.598358 
L 57.60942 86.598686 
L 59.637793 79.665941 
L 61.159072 75.201144 
L 62.680351 71.368609 
L 64.20163 68.151501 
L 65.72291 65.517523 
L 67.244189 63.421574 
L 68.765468 61.808894 
L 70.286747 60.618499 
L 71.808027 59.786695 
L 73.329306 59.250444 
L 74.850585 58.950343 
L 76.878958 58.826395 
L 79.414423 58.972497 
L 82.456982 59.404827 
L 87.020819 60.309742 
L 100.20524 63.125268 
L 103.754891 63.550659 
L 106.79745 63.70048 
L 109.840008 63.618547 
L 112.375474 63.348083 
L 114.910939 62.873757 
L 117.446405 62.187504 
L 120.488963 61.105959 
L 124.545708 59.380569 
L 128.602453 57.706049 
L 131.137918 56.919206 
L 133.16629 56.536221 
L 135.194663 56.424179 
L 136.715942 56.533226 
L 138.744314 56.93454 
L 140.772687 57.59848 
L 143.308152 58.698429 
L 148.886176 61.238814 
L 150.914548 61.842183 
L 152.435828 62.083037 
L 153.957107 62.112876 
L 155.478386 61.919915 
L 156.999666 61.50799 
L 158.520945 60.89744 
L 160.549317 59.840375 
L 166.127341 56.665063 
L 167.64862 56.11579 
L 168.662807 55.917003 
L 169.676993 55.885064 
L 170.691179 56.047459 
L 171.705365 56.430491 
L 172.719551 57.058829 
L 173.733737 57.955069 
L 174.747924 59.139322 
L 175.76211 60.628838 
L 176.776296 62.437663 
L 177.790482 64.57635 
L 179.311761 68.416684 
L 180.833041 73.019778 
L 182.35432 78.370952 
L 183.875599 84.434358 
L 185.903972 93.526118 
L 188.439437 106.235759 
L 191.481996 122.812708 
L 196.045833 148.306349 
L 196.045833 148.306349 
" style="fill:none;stroke:#2ca02c;stroke-linecap:square;stroke-width:1.5;"/>
   </g>
   <g id="line2d_16">
    <path clip-path="url(#pa8b4d0d5c8)" d="M 105.073333 170.4 
L 105.073333 36.216027 
" style="fill:none;stroke:#808080;stroke-dasharray:1.5,2.475;stroke-dashoffset:0;stroke-width:1.5;"/>
   </g>
   <g id="line2d_17">
    <path clip-path="url(#pa8b4d0d5c8)" d="M 44.425 128.474079 
L 47.974652 107.203085 
L 50.003024 96.110519 
L 52.031396 86.290622 
L 53.552676 79.946514 
L 55.073955 74.576737 
L 56.595234 70.228445 
L 57.60942 67.902297 
L 58.623606 66.026853 
L 59.637793 64.587739 
L 60.651979 63.564203 
L 61.666165 62.929917 
L 62.680351 62.653871 
L 63.694537 62.701333 
L 64.708724 63.034834 
L 65.72291 63.615142 
L 67.244189 64.860738 
L 68.765468 66.437366 
L 71.300934 69.456781 
L 74.850585 73.660883 
L 76.878958 75.682043 
L 78.400237 76.907275 
L 79.921516 77.840223 
L 81.442795 78.456168 
L 82.964075 78.741723 
L 84.485354 78.693293 
L 86.006633 78.315724 
L 87.527912 77.621203 
L 89.049192 76.628419 
L 90.570471 75.361909 
L 92.598843 73.299704 
L 94.627216 70.888022 
L 97.162681 67.528202 
L 105.276171 56.434039 
L 107.811636 53.486591 
L 109.840008 51.436977 
L 111.868381 49.678172 
L 113.896753 48.20534 
L 115.925125 47.001142 
L 117.953498 46.043556 
L 119.98187 45.313586 
L 122.010242 44.801266 
L 124.038615 44.508709 
L 126.066987 44.449571 
L 128.09536 44.645134 
L 130.123732 45.117944 
L 132.152104 45.884528 
L 134.180477 46.948894 
L 136.208849 48.298287 
L 138.237221 49.902118 
L 140.772687 52.1932 
L 144.322338 55.73065 
L 150.914548 62.356909 
L 154.4642 65.558859 
L 157.506759 68.005659 
L 160.549317 70.190979 
L 170.184086 76.841345 
L 172.212458 78.752248 
L 173.733737 80.474625 
L 175.255017 82.512235 
L 176.776296 84.92452 
L 178.297575 87.76634 
L 179.818855 91.084487 
L 181.340134 94.914231 
L 182.861413 99.276169 
L 184.889785 105.922928 
L 186.918158 113.474035 
L 189.453623 124.014074 
L 192.496182 137.81333 
L 196.045833 154.491497 
L 196.045833 154.491497 
" style="fill:none;stroke:#d62728;stroke-linecap:square;stroke-width:1.5;"/>
   </g>
   <g id="line2d_18">
    <path clip-path="url(#pa8b4d0d5c8)" d="M 105.073333 170.4 
L 105.073333 36.216027 
" style="fill:none;stroke:#808080;stroke-dasharray:1.5,2.475;stroke-dashoffset:0;stroke-width:1.5;"/>
   </g>
   <g id="line2d_19">
    <path clip-path="url(#pa8b4d0d5c8)" d="M 44.425 138.972838 
L 47.974652 121.650196 
L 50.003024 112.675892 
L 52.031396 104.67698 
L 53.552676 99.407977 
L 55.073955 94.796416 
L 56.595234 90.838884 
L 58.116513 87.505505 
L 59.637793 84.74452 
L 61.159072 82.48806 
L 62.680351 80.658473 
L 64.20163 79.17459 
L 65.72291 77.957364 
L 67.751282 76.625542 
L 70.793841 74.975001 
L 91.584657 64.630164 
L 98.68396 61.447765 
L 104.769077 58.923715 
L 108.825822 57.448866 
L 111.868381 56.556826 
L 114.403846 56.026434 
L 116.939312 55.750591 
L 118.967684 55.748147 
L 120.996056 55.961145 
L 123.024429 56.399127 
L 125.052801 57.059226 
L 127.081173 57.924752 
L 129.616639 59.248095 
L 133.16629 61.394512 
L 139.251407 65.12865 
L 142.293966 66.712938 
L 145.336525 68.011541 
L 148.379083 69.037488 
L 151.928735 69.970257 
L 156.492572 70.908828 
L 161.05641 71.618152 
L 164.606062 71.954406 
L 168.662807 72.103224 
L 172.212458 72.265635 
L 174.240831 72.57746 
L 175.76211 73.026858 
L 177.283389 73.744293 
L 178.804668 74.811333 
L 179.818855 75.758196 
L 180.833041 76.921835 
L 181.847227 78.325274 
L 183.368506 80.92553 
L 184.889785 84.171729 
L 186.411065 88.105258 
L 187.932344 92.745129 
L 189.453623 98.084806 
L 191.481996 106.230511 
L 193.510368 115.401715 
L 196.045833 127.946819 
L 196.045833 127.946819 
" style="fill:none;stroke:#9467bd;stroke-linecap:square;stroke-width:1.5;"/>
   </g>
   <g id="line2d_20">
    <path clip-path="url(#pa8b4d0d5c8)" d="M 105.073333 170.4 
L 105.073333 36.216027 
" style="fill:none;stroke:#808080;stroke-dasharray:1.5,2.475;stroke-dashoffset:0;stroke-width:1.5;"/>
   </g>
   <g id="line2d_21">
    <path clip-path="url(#pa8b4d0d5c8)" d="M 44.425 140.068416 
L 49.495931 112.105046 
L 51.524303 102.008419 
L 53.552676 93.029005 
L 55.073955 87.169935 
L 56.595234 82.13214 
L 58.116513 77.942944 
L 59.637793 74.595976 
L 60.651979 72.815033 
L 61.666165 71.373884 
L 62.680351 70.249501 
L 63.694537 69.414874 
L 64.708724 68.839877 
L 65.72291 68.492171 
L 66.737096 68.338117 
L 68.258375 68.395754 
L 69.779654 68.70035 
L 72.31512 69.478625 
L 75.357678 70.386871 
L 77.386051 70.765024 
L 79.414423 70.880812 
L 81.442795 70.721555 
L 83.471168 70.312825 
L 86.006633 69.528617 
L 89.556285 68.130141 
L 103.754891 62.259272 
L 107.304543 61.006674 
L 109.840008 60.330902 
L 111.868381 59.996047 
L 113.896753 59.89053 
L 115.925125 60.040699 
L 117.953498 60.451098 
L 119.98187 61.102114 
L 122.517336 62.187734 
L 126.57408 64.251753 
L 130.123732 65.970287 
L 132.659197 66.920202 
L 134.68757 67.427187 
L 136.715942 67.668377 
L 138.744314 67.626347 
L 140.772687 67.304632 
L 142.801059 66.728168 
L 145.336525 65.719914 
L 148.886176 64.003618 
L 152.942921 62.095929 
L 155.478386 61.184382 
L 157.506759 60.698937 
L 159.535131 60.462791 
L 161.563503 60.484312 
L 163.591876 60.755104 
L 165.620248 61.257441 
L 167.64862 61.9749 
L 169.676993 62.904932 
L 171.705365 64.071475 
L 173.733737 65.535156 
L 175.255017 66.888 
L 176.776296 68.523064 
L 178.297575 70.509058 
L 179.818855 72.921211 
L 181.340134 75.835958 
L 182.861413 79.324553 
L 184.382692 83.446183 
L 185.903972 88.241217 
L 187.425251 93.725319 
L 189.453623 102.081657 
L 191.481996 111.517028 
L 194.017461 124.494325 
L 196.045833 135.455392 
L 196.045833 135.455392 
" style="fill:none;stroke:#8c564b;stroke-linecap:square;stroke-width:1.5;"/>
   </g>
   <g id="line2d_22">
    <path clip-path="url(#pa8b4d0d5c8)" d="M 105.073333 170.4 
L 105.073333 36.216027 
" style="fill:none;stroke:#808080;stroke-dasharray:1.5,2.475;stroke-dashoffset:0;stroke-width:1.5;"/>
   </g>
   <g id="line2d_23">
    <path clip-path="url(#pa8b4d0d5c8)" d="M 44.425 127.531535 
L 48.481745 104.299767 
L 51.01721 91.137824 
L 53.045582 81.825525 
L 54.566862 75.688076 
L 56.088141 70.337623 
L 57.60942 65.799381 
L 59.1307 62.071804 
L 60.651979 59.128797 
L 61.666165 57.580057 
L 62.680351 56.340929 
L 63.694537 55.39022 
L 64.708724 54.704586 
L 65.72291 54.259153 
L 66.737096 54.028124 
L 67.751282 53.985358 
L 69.272561 54.217601 
L 70.793841 54.730886 
L 72.822213 55.719084 
L 75.864771 57.541333 
L 81.442795 60.928221 
L 85.49954 63.093644 
L 90.570471 65.790913 
L 93.61303 67.692487 
L 96.148495 69.53837 
L 99.191054 72.059452 
L 107.811636 79.563485 
L 109.840008 80.954517 
L 111.868381 82.048823 
L 113.38966 82.644865 
L 114.910939 83.033544 
L 116.432219 83.209066 
L 117.953498 83.172387 
L 119.474777 82.930686 
L 120.996056 82.496594 
L 123.024429 81.648684 
L 125.052801 80.539422 
L 127.588266 78.871595 
L 131.137918 76.216875 
L 138.237221 70.819304 
L 141.27978 68.789248 
L 144.322338 67.034359 
L 146.857804 65.804043 
L 149.393269 64.791354 
L 151.928735 63.995178 
L 154.4642 63.409163 
L 156.999666 63.023137 
L 160.042224 62.809294 
L 162.57769 62.836528 
L 165.113155 63.072107 
L 167.141527 63.44902 
L 169.1699 64.050705 
L 170.691179 64.695799 
L 172.212458 65.553139 
L 173.733737 66.671695 
L 175.255017 68.105725 
L 176.776296 69.912544 
L 178.297575 72.149676 
L 179.818855 74.871535 
L 181.340134 78.125833 
L 182.861413 81.949911 
L 184.382692 86.367276 
L 185.903972 91.38458 
L 187.932344 98.982982 
L 189.960716 107.536713 
L 192.496182 119.336212 
L 196.045833 137.141036 
L 196.045833 137.141036 
" style="fill:none;stroke:#e377c2;stroke-linecap:square;stroke-width:1.5;"/>
   </g>
   <g id="line2d_24">
    <path clip-path="url(#pa8b4d0d5c8)" d="M 105.073333 170.4 
L 105.073333 36.216027 
" style="fill:none;stroke:#808080;stroke-dasharray:1.5,2.475;stroke-dashoffset:0;stroke-width:1.5;"/>
   </g>
   <g id="line2d_25">
    <path clip-path="url(#pa8b4d0d5c8)" d="M 44.425 125.023906 
L 47.974652 104.986038 
L 50.003024 94.569627 
L 52.031396 85.267057 
L 53.552676 79.142637 
L 55.073955 73.80581 
L 56.595234 69.275184 
L 58.116513 65.540665 
L 59.637793 62.566474 
L 60.651979 60.978587 
L 61.666165 59.6824 
L 62.680351 58.654311 
L 63.694537 57.869033 
L 64.708724 57.300354 
L 65.72291 56.921865 
L 67.244189 56.6543 
L 68.765468 56.6742 
L 70.286747 56.908389 
L 72.31512 57.449957 
L 75.357678 58.550367 
L 78.90733 60.071311 
L 82.456982 61.822471 
L 85.49954 63.570941 
L 88.542099 65.575218 
L 93.61303 69.271136 
L 97.162681 71.722507 
L 99.191054 72.89092 
L 101.219426 73.791895 
L 102.740705 74.249791 
L 104.261984 74.493763 
L 105.783264 74.505779 
L 107.304543 74.275004 
L 108.825822 73.798718 
L 110.347101 73.082963 
L 111.868381 72.142833 
L 113.896753 70.582984 
L 116.432219 68.25633 
L 124.545708 60.348578 
L 126.57408 58.821199 
L 128.09536 57.898317 
L 129.616639 57.188137 
L 131.137918 56.702114 
L 132.659197 56.444902 
L 134.180477 56.415414 
L 135.701756 56.607949 
L 137.223035 57.013192 
L 138.744314 57.618896 
L 140.772687 58.712221 
L 142.801059 60.092134 
L 145.336525 62.137486 
L 148.886176 65.355475 
L 152.942921 69.004636 
L 155.478386 70.966621 
L 157.506759 72.24321 
L 159.535131 73.216961 
L 161.563503 73.887604 
L 163.591876 74.296065 
L 166.634434 74.607341 
L 169.676993 74.95083 
L 171.198272 75.306825 
L 172.719551 75.888018 
L 174.240831 76.773415 
L 175.255017 77.571122 
L 176.269203 78.5606 
L 177.283389 79.7626 
L 178.804668 82.005214 
L 180.325948 84.823375 
L 181.847227 88.258135 
L 183.368506 92.333581 
L 184.889785 97.054208 
L 186.411065 102.402985 
L 188.439437 110.440254 
L 190.467809 119.366705 
L 193.510368 133.934693 
L 196.045833 146.564807 
L 196.045833 146.564807 
" style="fill:none;stroke:#7f7f7f;stroke-linecap:square;stroke-width:1.5;"/>
   </g>
   <g id="line2d_26">
    <path clip-path="url(#pa8b4d0d5c8)" d="M 105.073333 170.4 
L 105.073333 36.216027 
" style="fill:none;stroke:#808080;stroke-dasharray:1.5,2.475;stroke-dashoffset:0;stroke-width:1.5;"/>
   </g>
   <g id="line2d_27">
    <path clip-path="url(#pa8b4d0d5c8)" d="M 44.425 146.351798 
L 51.01721 111.039226 
L 53.045582 101.299137 
L 55.073955 92.606365 
L 56.595234 86.897608 
L 58.116513 81.945292 
L 59.637793 77.773224 
L 61.159072 74.375927 
L 62.173258 72.526099 
L 63.187444 70.990102 
L 64.20163 69.747245 
L 65.215817 68.772949 
L 66.230003 68.039385 
L 67.244189 67.51617 
L 68.765468 67.054937 
L 70.286747 66.88152 
L 72.31512 66.90331 
L 75.357678 66.975548 
L 76.878958 66.836064 
L 78.400237 66.487639 
L 79.921516 65.883673 
L 81.442795 64.996544 
L 82.964075 63.8176 
L 84.485354 62.356399 
L 86.513726 60.016882 
L 89.049192 56.615709 
L 95.641402 47.386832 
L 97.162681 45.647898 
L 98.68396 44.212397 
L 100.20524 43.144412 
L 101.219426 42.663817 
L 102.233612 42.383981 
L 103.247798 42.315298 
L 104.261984 42.46521 
L 105.276171 42.838 
L 106.290357 43.434634 
L 107.304543 44.252658 
L 108.318729 45.286152 
L 109.840008 47.218989 
L 111.361288 49.569186 
L 113.38966 53.244406 
L 115.925125 58.448995 
L 122.010242 71.3027 
L 124.038615 74.961009 
L 125.559894 77.31888 
L 127.081173 79.292183 
L 128.602453 80.850417 
L 130.123732 81.980069 
L 131.137918 82.495853 
L 132.152104 82.826748 
L 133.16629 82.980066 
L 134.180477 82.965487 
L 135.701756 82.654817 
L 137.223035 82.038834 
L 138.744314 81.168417 
L 140.772687 79.703576 
L 143.308152 77.554641 
L 151.928735 69.974947 
L 154.971293 67.741979 
L 157.506759 66.136253 
L 160.042224 64.767322 
L 162.57769 63.644459 
L 165.113155 62.798513 
L 167.141527 62.365069 
L 168.662807 62.217616 
L 170.184086 62.257977 
L 171.705365 62.526436 
L 173.226644 63.070678 
L 174.747924 63.944919 
L 175.76211 64.740157 
L 176.776296 65.726589 
L 178.297575 67.60497 
L 179.818855 70.015286 
L 181.340134 73.012391 
L 182.861413 76.64143 
L 184.382692 80.93357 
L 185.903972 85.902047 
L 187.425251 91.538895 
L 189.453623 100.03663 
L 191.481996 109.522703 
L 194.017461 122.439359 
L 196.045833 133.281425 
L 196.045833 133.281425 
" style="fill:none;stroke:#bcbd22;stroke-linecap:square;stroke-width:1.5;"/>
   </g>
   <g id="line2d_28">
    <path clip-path="url(#pa8b4d0d5c8)" d="M 105.073333 170.4 
L 105.073333 36.216027 
" style="fill:none;stroke:#808080;stroke-dasharray:1.5,2.475;stroke-dashoffset:0;stroke-width:1.5;"/>
   </g>
   <g id="line2d_29">
    <path clip-path="url(#pa8b4d0d5c8)" d="M 44.425 126.886193 
L 47.467559 111.51397 
L 50.003024 99.835369 
L 52.031396 91.519941 
L 54.059769 84.255915 
L 55.581048 79.533295 
L 57.102327 75.43364 
L 58.623606 71.939007 
L 60.144886 69.017462 
L 61.666165 66.6268 
L 63.187444 64.718225 
L 64.708724 63.239669 
L 66.230003 62.138521 
L 67.751282 61.363628 
L 69.272561 60.86657 
L 70.793841 60.602276 
L 72.31512 60.529146 
L 74.343492 60.663224 
L 76.878958 61.088415 
L 81.442795 62.162445 
L 85.49954 63.037266 
L 88.542099 63.492268 
L 92.09175 63.785644 
L 96.655588 63.907452 
L 105.276171 64.084527 
L 108.825822 64.385476 
L 111.868381 64.87933 
L 114.403846 65.525618 
L 116.939312 66.428852 
L 119.474777 67.599344 
L 122.517336 69.304648 
L 130.123732 73.807873 
L 132.152104 74.688276 
L 134.180477 75.297442 
L 135.701756 75.54989 
L 137.223035 75.61716 
L 138.744314 75.499921 
L 140.772687 75.074206 
L 142.801059 74.382968 
L 145.336525 73.246557 
L 152.942921 69.553937 
L 154.971293 68.859007 
L 156.999666 68.388835 
L 159.028038 68.166745 
L 161.05641 68.199085 
L 163.084783 68.479854 
L 165.113155 68.997748 
L 167.141527 69.744824 
L 169.1699 70.725662 
L 171.198272 71.965555 
L 173.226644 73.516166 
L 174.747924 74.930013 
L 176.269203 76.606141 
L 177.790482 78.593847 
L 179.311761 80.945803 
L 180.833041 83.714557 
L 182.35432 86.948495 
L 183.875599 90.687598 
L 185.396878 94.95931 
L 186.918158 99.774894 
L 188.94653 107.025365 
L 190.974902 115.150802 
L 193.510368 126.317233 
L 196.045833 138.22642 
L 196.045833 138.22642 
" style="fill:none;stroke:#17becf;stroke-linecap:square;stroke-width:1.5;"/>
   </g>
   <g id="line2d_30">
    <path clip-path="url(#pa8b4d0d5c8)" d="M 105.073333 170.4 
L 105.073333 36.216027 
" style="fill:none;stroke:#808080;stroke-dasharray:1.5,2.475;stroke-dashoffset:0;stroke-width:1.5;"/>
   </g>
   <g id="line2d_31">
    <path clip-path="url(#pa8b4d0d5c8)" d="M 44.425 136.109941 
L 48.481745 117.596397 
L 51.01721 106.983952 
L 53.045582 99.304674 
L 55.073955 92.473429 
L 57.102327 86.552005 
L 58.623606 82.714955 
L 60.144886 79.380399 
L 61.666165 76.519512 
L 63.187444 74.092093 
L 64.708724 72.049414 
L 66.230003 70.337291 
L 67.751282 68.899175 
L 69.779654 67.311611 
L 72.31512 65.687593 
L 75.864771 63.751269 
L 83.978261 59.660078 
L 87.020819 58.324099 
L 89.556285 57.437295 
L 91.584657 56.931683 
L 93.61303 56.637652 
L 95.641402 56.567839 
L 97.669774 56.718056 
L 99.698147 57.067195 
L 102.233612 57.727184 
L 106.290357 59.071082 
L 110.854195 60.550555 
L 113.896753 61.309638 
L 116.939312 61.839304 
L 120.996056 62.288703 
L 126.57408 62.918669 
L 129.616639 63.509547 
L 132.659197 64.36259 
L 135.701756 65.474062 
L 139.251407 67.024113 
L 151.928735 72.860524 
L 155.478386 74.107184 
L 158.520945 74.938796 
L 161.563503 75.555466 
L 170.691179 77.193147 
L 172.719551 77.96736 
L 174.240831 78.790792 
L 175.76211 79.882226 
L 177.283389 81.296236 
L 178.804668 83.085564 
L 180.325948 85.2986 
L 181.847227 87.976761 
L 183.368506 91.151924 
L 184.889785 94.844065 
L 186.411065 99.059266 
L 188.439437 105.474867 
L 190.467809 112.735479 
L 193.003275 122.817511 
L 196.045833 135.952206 
L 196.045833 135.952206 
" style="fill:none;stroke:#1f77b4;stroke-linecap:square;stroke-width:1.5;"/>
   </g>
   <g id="line2d_32">
    <path clip-path="url(#pa8b4d0d5c8)" d="M 105.073333 170.4 
L 105.073333 36.216027 
" style="fill:none;stroke:#808080;stroke-dasharray:1.5,2.475;stroke-dashoffset:0;stroke-width:1.5;"/>
   </g>
   <g id="line2d_33">
    <path clip-path="url(#pa8b4d0d5c8)" d="M 44.425 133.383236 
L 48.481745 114.503447 
L 51.01721 103.689834 
L 53.045582 95.839305 
L 55.073955 88.808177 
L 57.102327 82.643208 
L 59.1307 77.343994 
L 60.651979 73.914444 
L 62.173258 70.920471 
L 63.694537 68.325823 
L 65.215817 66.089758 
L 66.737096 64.169576 
L 68.765468 62.027716 
L 70.793841 60.278478 
L 72.822213 58.840262 
L 74.850585 57.646551 
L 77.386051 56.421767 
L 79.921516 55.429825 
L 82.964075 54.482424 
L 86.513726 53.640975 
L 90.570471 52.927487 
L 96.148495 52.191537 
L 100.20524 51.838355 
L 102.740705 51.806203 
L 104.769077 51.974545 
L 106.79745 52.394134 
L 108.318729 52.919823 
L 109.840008 53.659975 
L 111.361288 54.639557 
L 112.882567 55.875769 
L 114.403846 57.375635 
L 115.925125 59.134116 
L 117.953498 61.84755 
L 120.488963 65.711958 
L 128.09536 77.838675 
L 130.123732 80.433626 
L 131.645011 82.02632 
L 133.16629 83.269129 
L 134.68757 84.135073 
L 135.701756 84.496562 
L 136.715942 84.685376 
L 137.730128 84.704894 
L 138.744314 84.561388 
L 140.265594 84.060779 
L 141.786873 83.25454 
L 143.308152 82.193233 
L 145.336525 80.482494 
L 148.886176 77.097519 
L 151.928735 74.306393 
L 153.957107 72.726094 
L 155.478386 71.755941 
L 156.999666 71.000869 
L 158.520945 70.478098 
L 160.042224 70.195837 
L 161.563503 70.154461 
L 163.084783 70.348149 
L 164.606062 70.766872 
L 166.127341 71.398601 
L 167.64862 72.23158 
L 169.676993 73.639804 
L 171.705365 75.380647 
L 173.733737 77.464865 
L 175.76211 79.926122 
L 177.790482 82.820236 
L 179.818855 86.220353 
L 181.847227 90.20828 
L 183.875599 94.862754 
L 185.903972 100.245997 
L 187.932344 106.390308 
L 189.960716 113.286712 
L 192.496182 122.872108 
L 195.53874 135.479551 
L 196.045833 137.661808 
L 196.045833 137.661808 
" style="fill:none;stroke:#ff7f0e;stroke-linecap:square;stroke-width:1.5;"/>
   </g>
   <g id="line2d_34">
    <path clip-path="url(#pa8b4d0d5c8)" d="M 105.073333 170.4 
L 105.073333 36.216027 
" style="fill:none;stroke:#808080;stroke-dasharray:1.5,2.475;stroke-dashoffset:0;stroke-width:1.5;"/>
   </g>
   <g id="line2d_35">
    <path clip-path="url(#pa8b4d0d5c8)" d="M 44.425 111.152075 
L 46.960465 97.137977 
L 48.988838 87.268071 
L 50.510117 80.838153 
L 52.031396 75.327817 
L 53.552676 70.7717 
L 54.566862 68.26362 
L 55.581048 66.167651 
L 56.595234 64.466492 
L 57.60942 63.13694 
L 58.623606 62.150785 
L 59.637793 61.475781 
L 60.651979 61.07667 
L 61.666165 60.916212 
L 62.680351 60.956189 
L 64.20163 61.308525 
L 66.230003 62.132117 
L 71.300934 64.438629 
L 72.822213 64.890827 
L 74.343492 65.153635 
L 75.864771 65.211358 
L 77.386051 65.063993 
L 78.90733 64.72489 
L 80.935702 64.017309 
L 83.471168 62.835227 
L 90.570471 59.24284 
L 92.598843 58.498439 
L 94.627216 57.983143 
L 96.655588 57.718558 
L 98.68396 57.703456 
L 100.712333 57.915711 
L 103.247798 58.439656 
L 106.79745 59.469382 
L 112.375474 61.125554 
L 115.418032 61.772587 
L 117.953498 62.103358 
L 120.488963 62.239624 
L 123.531522 62.171291 
L 127.081173 61.83535 
L 131.137918 61.214556 
L 137.730128 59.933902 
L 142.293966 59.133038 
L 144.829431 58.880135 
L 146.857804 58.858466 
L 148.886176 59.056281 
L 150.914548 59.525944 
L 152.435828 60.084082 
L 153.957107 60.835591 
L 155.478386 61.791103 
L 156.999666 62.956875 
L 159.028038 64.841675 
L 161.05641 67.100631 
L 163.084783 69.724958 
L 165.113155 72.70552 
L 167.141527 76.037436 
L 169.676993 80.700926 
L 172.212458 85.940523 
L 174.747924 91.794495 
L 177.283389 98.306133 
L 179.818855 105.509405 
L 182.35432 113.413281 
L 184.889785 121.986801 
L 187.932344 133.037676 
L 192.496182 150.595899 
L 196.045833 164.300728 
L 196.045833 164.300728 
" style="fill:none;stroke:#2ca02c;stroke-linecap:square;stroke-width:1.5;"/>
   </g>
   <g id="line2d_36">
    <path clip-path="url(#pa8b4d0d5c8)" d="M 105.073333 170.4 
L 105.073333 36.216027 
" style="fill:none;stroke:#808080;stroke-dasharray:1.5,2.475;stroke-dashoffset:0;stroke-width:1.5;"/>
   </g>
   <g id="patch_3">
    <path d="M 44.425 170.4 
L 44.425 36.216027 
" style="fill:none;stroke:#000000;stroke-linecap:square;stroke-linejoin:miter;stroke-width:0.8;"/>
   </g>
   <g id="patch_4">
    <path d="M 44.425 170.4 
L 196.045833 170.4 
" style="fill:none;stroke:#000000;stroke-linecap:square;stroke-linejoin:miter;stroke-width:0.8;"/>
   </g>
  </g>
  <g id="axes_2">
   <g id="patch_5">
    <path d="M 257.908333 170.4 
L 409.529167 170.4 
L 409.529167 36.216027 
L 257.908333 36.216027 
z
" style="fill:#ffffff;"/>
   </g>
   <g id="matplotlib.axis_3">
    <g id="xtick_7">
     <g id="line2d_37">
      <g>
       <use style="stroke:#000000;stroke-width:0.8;" x="273.070417" xlink:href="#m61c6974a04" y="170.4"/>
      </g>
     </g>
     <g id="text_13">
      <!-- 360 -->
      <g transform="translate(263.526667 184.998437)scale(0.1 -0.1)">
       <defs>
        <path d="M 40.578125 39.3125 
Q 47.65625 37.796875 51.625 33 
Q 55.609375 28.21875 55.609375 21.1875 
Q 55.609375 10.40625 48.1875 4.484375 
Q 40.765625 -1.421875 27.09375 -1.421875 
Q 22.515625 -1.421875 17.65625 -0.515625 
Q 12.796875 0.390625 7.625 2.203125 
L 7.625 11.71875 
Q 11.71875 9.328125 16.59375 8.109375 
Q 21.484375 6.890625 26.8125 6.890625 
Q 36.078125 6.890625 40.9375 10.546875 
Q 45.796875 14.203125 45.796875 21.1875 
Q 45.796875 27.640625 41.28125 31.265625 
Q 36.765625 34.90625 28.71875 34.90625 
L 20.21875 34.90625 
L 20.21875 43.015625 
L 29.109375 43.015625 
Q 36.375 43.015625 40.234375 45.921875 
Q 44.09375 48.828125 44.09375 54.296875 
Q 44.09375 59.90625 40.109375 62.90625 
Q 36.140625 65.921875 28.71875 65.921875 
Q 24.65625 65.921875 20.015625 65.03125 
Q 15.375 64.15625 9.8125 62.3125 
L 9.8125 71.09375 
Q 15.4375 72.65625 20.34375 73.4375 
Q 25.25 74.21875 29.59375 74.21875 
Q 40.828125 74.21875 47.359375 69.109375 
Q 53.90625 64.015625 53.90625 55.328125 
Q 53.90625 49.265625 50.4375 45.09375 
Q 46.96875 40.921875 40.578125 39.3125 
z
" id="DejaVuSans-51"/>
       </defs>
       <use xlink:href="#DejaVuSans-51"/>
       <use x="63.623047" xlink:href="#DejaVuSans-54"/>
       <use x="127.246094" xlink:href="#DejaVuSans-48"/>
      </g>
     </g>
    </g>
    <g id="xtick_8">
     <g id="line2d_38">
      <g>
       <use style="stroke:#000000;stroke-width:0.8;" x="303.394583" xlink:href="#m61c6974a04" y="170.4"/>
      </g>
     </g>
     <g id="text_14">
      <!-- 380 -->
      <g transform="translate(293.850833 184.998437)scale(0.1 -0.1)">
       <use xlink:href="#DejaVuSans-51"/>
       <use x="63.623047" xlink:href="#DejaVuSans-56"/>
       <use x="127.246094" xlink:href="#DejaVuSans-48"/>
      </g>
     </g>
    </g>
    <g id="xtick_9">
     <g id="line2d_39">
      <g>
       <use style="stroke:#000000;stroke-width:0.8;" x="333.71875" xlink:href="#m61c6974a04" y="170.4"/>
      </g>
     </g>
     <g id="text_15">
      <!-- 400 -->
      <g transform="translate(324.175 184.998437)scale(0.1 -0.1)">
       <use xlink:href="#DejaVuSans-52"/>
       <use x="63.623047" xlink:href="#DejaVuSans-48"/>
       <use x="127.246094" xlink:href="#DejaVuSans-48"/>
      </g>
     </g>
    </g>
    <g id="xtick_10">
     <g id="line2d_40">
      <g>
       <use style="stroke:#000000;stroke-width:0.8;" x="364.042917" xlink:href="#m61c6974a04" y="170.4"/>
      </g>
     </g>
     <g id="text_16">
      <!-- 420 -->
      <g transform="translate(354.499167 184.998437)scale(0.1 -0.1)">
       <use xlink:href="#DejaVuSans-52"/>
       <use x="63.623047" xlink:href="#DejaVuSans-50"/>
       <use x="127.246094" xlink:href="#DejaVuSans-48"/>
      </g>
     </g>
    </g>
    <g id="xtick_11">
     <g id="line2d_41">
      <g>
       <use style="stroke:#000000;stroke-width:0.8;" x="394.367083" xlink:href="#m61c6974a04" y="170.4"/>
      </g>
     </g>
     <g id="text_17">
      <!-- 440 -->
      <g transform="translate(384.823333 184.998437)scale(0.1 -0.1)">
       <use xlink:href="#DejaVuSans-52"/>
       <use x="63.623047" xlink:href="#DejaVuSans-52"/>
       <use x="127.246094" xlink:href="#DejaVuSans-48"/>
      </g>
     </g>
    </g>
    <g id="text_18">
     <!-- $\theta_1$ -->
     <g transform="translate(328.26875 198.676562)scale(0.1 -0.1)">
      <use transform="translate(0 0.234375)" xlink:href="#DejaVuSans-Oblique-952"/>
      <use transform="translate(61.181641 -16.171875)scale(0.7)" xlink:href="#DejaVuSans-49"/>
     </g>
    </g>
   </g>
   <g id="matplotlib.axis_4">
    <g id="ytick_5">
     <g id="line2d_42">
      <g>
       <use style="stroke:#000000;stroke-width:0.8;" x="257.908333" xlink:href="#m48f02655ec" y="164.300728"/>
      </g>
     </g>
     <g id="text_19">
      <!-- 0.0 -->
      <g transform="translate(235.005208 168.099947)scale(0.1 -0.1)">
       <use xlink:href="#DejaVuSans-48"/>
       <use x="63.623047" xlink:href="#DejaVuSans-46"/>
       <use x="95.410156" xlink:href="#DejaVuSans-48"/>
      </g>
     </g>
    </g>
    <g id="ytick_6">
     <g id="line2d_43">
      <g>
       <use style="stroke:#000000;stroke-width:0.8;" x="257.908333" xlink:href="#m48f02655ec" y="133.853152"/>
      </g>
     </g>
     <g id="text_20">
      <!-- 0.1 -->
      <g transform="translate(235.005208 137.652371)scale(0.1 -0.1)">
       <use xlink:href="#DejaVuSans-48"/>
       <use x="63.623047" xlink:href="#DejaVuSans-46"/>
       <use x="95.410156" xlink:href="#DejaVuSans-49"/>
      </g>
     </g>
    </g>
    <g id="ytick_7">
     <g id="line2d_44">
      <g>
       <use style="stroke:#000000;stroke-width:0.8;" x="257.908333" xlink:href="#m48f02655ec" y="103.405576"/>
      </g>
     </g>
     <g id="text_21">
      <!-- 0.2 -->
      <g transform="translate(235.005208 107.204795)scale(0.1 -0.1)">
       <use xlink:href="#DejaVuSans-48"/>
       <use x="63.623047" xlink:href="#DejaVuSans-46"/>
       <use x="95.410156" xlink:href="#DejaVuSans-50"/>
      </g>
     </g>
    </g>
    <g id="ytick_8">
     <g id="line2d_45">
      <g>
       <use style="stroke:#000000;stroke-width:0.8;" x="257.908333" xlink:href="#m48f02655ec" y="72.958"/>
      </g>
     </g>
     <g id="text_22">
      <!-- 0.3 -->
      <g transform="translate(235.005208 76.757219)scale(0.1 -0.1)">
       <use xlink:href="#DejaVuSans-48"/>
       <use x="63.623047" xlink:href="#DejaVuSans-46"/>
       <use x="95.410156" xlink:href="#DejaVuSans-51"/>
      </g>
     </g>
    </g>
    <g id="ytick_9">
     <g id="line2d_46">
      <g>
       <use style="stroke:#000000;stroke-width:0.8;" x="257.908333" xlink:href="#m48f02655ec" y="42.510424"/>
      </g>
     </g>
     <g id="text_23">
      <!-- 0.4 -->
      <g transform="translate(235.005208 46.309642)scale(0.1 -0.1)">
       <use xlink:href="#DejaVuSans-48"/>
       <use x="63.623047" xlink:href="#DejaVuSans-46"/>
       <use x="95.410156" xlink:href="#DejaVuSans-52"/>
      </g>
     </g>
    </g>
    <g id="text_24">
     <!-- Posterior -->
     <g transform="translate(228.925521 125.401763)rotate(-90)scale(0.1 -0.1)">
      <use xlink:href="#DejaVuSans-80"/>
      <use x="56.677734" xlink:href="#DejaVuSans-111"/>
      <use x="117.859375" xlink:href="#DejaVuSans-115"/>
      <use x="169.958984" xlink:href="#DejaVuSans-116"/>
      <use x="209.167969" xlink:href="#DejaVuSans-101"/>
      <use x="270.691406" xlink:href="#DejaVuSans-114"/>
      <use x="311.804688" xlink:href="#DejaVuSans-105"/>
      <use x="339.587891" xlink:href="#DejaVuSans-111"/>
      <use x="400.769531" xlink:href="#DejaVuSans-114"/>
     </g>
    </g>
   </g>
   <g id="line2d_47">
    <path clip-path="url(#p5b74287ef0)" d="M 257.908333 163.637006 
L 409.529167 163.678911 
L 409.529167 163.678911 
" style="fill:none;stroke:#1f77b4;stroke-linecap:square;stroke-width:1.5;"/>
   </g>
   <g id="line2d_48">
    <path clip-path="url(#p5b74287ef0)" d="M 333.71875 170.4 
L 333.71875 36.216027 
" style="fill:none;stroke:#808080;stroke-dasharray:1.5,2.475;stroke-dashoffset:0;stroke-width:1.5;"/>
   </g>
   <g id="line2d_49">
    <path clip-path="url(#p5b74287ef0)" d="M 257.908333 162.964184 
L 347.66381 163.117891 
L 409.529167 163.040711 
L 409.529167 163.040711 
" style="fill:none;stroke:#ff7f0e;stroke-linecap:square;stroke-width:1.5;"/>
   </g>
   <g id="line2d_50">
    <path clip-path="url(#p5b74287ef0)" d="M 333.71875 170.4 
L 333.71875 36.216027 
" style="fill:none;stroke:#808080;stroke-dasharray:1.5,2.475;stroke-dashoffset:0;stroke-width:1.5;"/>
   </g>
   <g id="line2d_51">
    <path clip-path="url(#p5b74287ef0)" d="M 257.908333 162.073012 
L 267.036009 162.010882 
L 293.404849 161.987747 
L 325.858807 161.711856 
L 351.213462 161.737003 
L 381.639047 161.961562 
L 398.373119 161.981207 
L 409.022074 162.075635 
L 409.529167 162.088266 
L 409.529167 162.088266 
" style="fill:none;stroke:#2ca02c;stroke-linecap:square;stroke-width:1.5;"/>
   </g>
   <g id="line2d_52">
    <path clip-path="url(#p5b74287ef0)" d="M 333.71875 170.4 
L 333.71875 36.216027 
" style="fill:none;stroke:#808080;stroke-dasharray:1.5,2.475;stroke-dashoffset:0;stroke-width:1.5;"/>
   </g>
   <g id="line2d_53">
    <path clip-path="url(#p5b74287ef0)" d="M 257.908333 164.300666 
L 273.121126 164.195299 
L 277.177871 163.924368 
L 280.220429 163.489807 
L 283.262988 162.802342 
L 286.812639 161.745899 
L 291.88357 160.249347 
L 294.419036 159.723115 
L 296.954501 159.39511 
L 299.99706 159.214863 
L 305.575084 159.162326 
L 313.18148 159.041161 
L 327.380086 158.645601 
L 332.451017 158.831819 
L 339.550321 159.351835 
L 344.621251 159.648665 
L 348.677996 159.675005 
L 359.834044 159.553226 
L 364.904975 159.848789 
L 369.975906 160.357795 
L 373.525557 160.91972 
L 377.582302 161.804107 
L 384.174512 163.304242 
L 387.724164 163.835295 
L 391.273815 164.124015 
L 396.344746 164.270385 
L 409.022074 164.300681 
L 409.529167 164.300694 
L 409.529167 164.300694 
" style="fill:none;stroke:#d62728;stroke-linecap:square;stroke-width:1.5;"/>
   </g>
   <g id="line2d_54">
    <path clip-path="url(#p5b74287ef0)" d="M 333.71875 170.4 
L 333.71875 36.216027 
" style="fill:none;stroke:#808080;stroke-dasharray:1.5,2.475;stroke-dashoffset:0;stroke-width:1.5;"/>
   </g>
   <g id="line2d_55">
    <path clip-path="url(#p5b74287ef0)" d="M 257.908333 164.300728 
L 301.011246 164.209875 
L 303.039618 163.966441 
L 304.560897 163.540354 
L 305.575084 163.07733 
L 306.58927 162.440328 
L 308.110549 161.15075 
L 310.138921 158.983978 
L 312.167294 156.816569 
L 313.688573 155.548205 
L 314.702759 154.951748 
L 315.716945 154.553767 
L 317.238225 154.253785 
L 319.77369 154.131063 
L 323.323342 153.932348 
L 328.394273 153.614154 
L 330.422645 153.688079 
L 332.451017 153.990532 
L 338.029041 155.056357 
L 340.057414 155.08776 
L 341.578693 154.908871 
L 344.114158 154.332066 
L 345.635438 154.037039 
L 346.649624 153.977409 
L 347.66381 154.079464 
L 348.677996 154.36116 
L 350.199275 155.096394 
L 351.720555 156.118117 
L 353.748927 157.761701 
L 358.819858 162.139966 
L 360.341137 163.063935 
L 361.862416 163.677523 
L 363.383696 164.026317 
L 365.412068 164.226847 
L 369.468813 164.298274 
L 409.529167 164.300728 
L 409.529167 164.300728 
" style="fill:none;stroke:#9467bd;stroke-linecap:square;stroke-width:1.5;"/>
   </g>
   <g id="line2d_56">
    <path clip-path="url(#p5b74287ef0)" d="M 333.71875 170.4 
L 333.71875 36.216027 
" style="fill:none;stroke:#808080;stroke-dasharray:1.5,2.475;stroke-dashoffset:0;stroke-width:1.5;"/>
   </g>
   <g id="line2d_57">
    <path clip-path="url(#p5b74287ef0)" d="M 257.908333 164.300728 
L 315.209852 164.240253 
L 316.224038 164.089007 
L 317.238225 163.700659 
L 317.745318 163.35822 
L 318.252411 162.88012 
L 318.759504 162.239356 
L 319.77369 160.392865 
L 320.787876 157.806348 
L 323.323342 150.538428 
L 324.337528 148.347303 
L 325.858807 145.790333 
L 326.872993 144.47947 
L 327.380086 144.015414 
L 327.887179 143.729139 
L 328.394273 143.642282 
L 328.901366 143.749456 
L 329.915552 144.377839 
L 330.929738 145.122874 
L 331.943924 145.562299 
L 332.95811 145.577737 
L 333.972297 145.248582 
L 335.493576 144.39014 
L 338.536134 142.460214 
L 339.043227 142.339055 
L 339.550321 142.368294 
L 340.057414 142.568735 
L 340.564507 142.950931 
L 341.0716 143.523796 
L 341.578693 144.302558 
L 342.085786 145.30978 
L 343.099972 148.081628 
L 344.114158 151.756783 
L 345.635438 157.625471 
L 346.649624 160.659655 
L 347.156717 161.760465 
L 347.66381 162.593443 
L 348.170903 163.194786 
L 349.185089 163.885471 
L 350.199275 164.167682 
L 351.720555 164.283825 
L 358.312765 164.300728 
L 409.529167 164.300728 
L 409.529167 164.300728 
" style="fill:none;stroke:#8c564b;stroke-linecap:square;stroke-width:1.5;"/>
   </g>
   <g id="line2d_58">
    <path clip-path="url(#p5b74287ef0)" d="M 333.71875 170.4 
L 333.71875 36.216027 
" style="fill:none;stroke:#808080;stroke-dasharray:1.5,2.475;stroke-dashoffset:0;stroke-width:1.5;"/>
   </g>
   <g id="line2d_59">
    <path clip-path="url(#p5b74287ef0)" d="M 257.908333 164.300728 
L 322.309156 164.245687 
L 322.816249 164.12334 
L 323.323342 163.817998 
L 323.830435 163.186206 
L 324.337528 162.107744 
L 324.844621 160.56997 
L 325.858807 156.300448 
L 326.3659 153.373254 
L 327.380086 145.257439 
L 328.394273 136.101391 
L 328.901366 132.791439 
L 329.408459 130.782281 
L 330.929738 127.145762 
L 332.95811 120.526647 
L 333.465203 120.759328 
L 333.972297 122.286739 
L 334.986483 126.139773 
L 335.493576 127.207181 
L 336.507762 128.003183 
L 337.014855 128.924985 
L 337.521948 131.137846 
L 338.029041 134.881839 
L 340.057414 154.904233 
L 340.564507 158.244308 
L 341.0716 160.508319 
L 341.578693 161.973327 
L 342.085786 162.920391 
L 342.592879 163.527052 
L 343.099972 163.899683 
L 344.114158 164.225506 
L 345.635438 164.299298 
L 393.302188 164.300728 
L 409.529167 164.300728 
L 409.529167 164.300728 
" style="fill:none;stroke:#e377c2;stroke-linecap:square;stroke-width:1.5;"/>
   </g>
   <g id="line2d_60">
    <path clip-path="url(#p5b74287ef0)" d="M 333.71875 170.4 
L 333.71875 36.216027 
" style="fill:none;stroke:#808080;stroke-dasharray:1.5,2.475;stroke-dashoffset:0;stroke-width:1.5;"/>
   </g>
   <g id="line2d_61">
    <path clip-path="url(#p5b74287ef0)" d="M 257.908333 164.300728 
L 325.858807 164.22485 
L 326.3659 163.881288 
L 326.872993 162.866333 
L 327.380086 160.83234 
L 327.887179 157.666338 
L 328.901366 148.666866 
L 329.408459 141.27314 
L 330.929738 108.922966 
L 331.436831 100.380956 
L 331.943924 94.033426 
L 332.451017 91.245394 
L 332.95811 90.158755 
L 333.465203 91.164996 
L 333.972297 95.285705 
L 336.000669 122.04487 
L 337.014855 144.44716 
L 337.521948 152.100833 
L 338.029041 156.605703 
L 338.536134 159.710252 
L 339.043227 161.969725 
L 339.550321 163.118581 
L 340.564507 163.91788 
L 341.0716 164.194271 
L 342.085786 164.299698 
L 398.880212 164.300728 
L 409.529167 164.300728 
L 409.529167 164.300728 
" style="fill:none;stroke:#7f7f7f;stroke-linecap:square;stroke-width:1.5;"/>
   </g>
   <g id="line2d_62">
    <path clip-path="url(#p5b74287ef0)" d="M 333.71875 170.4 
L 333.71875 36.216027 
" style="fill:none;stroke:#808080;stroke-dasharray:1.5,2.475;stroke-dashoffset:0;stroke-width:1.5;"/>
   </g>
   <g id="line2d_63">
    <path clip-path="url(#p5b74287ef0)" d="M 257.908333 164.300728 
L 326.872993 164.23807 
L 327.380086 163.691398 
L 327.887179 162.367963 
L 328.394273 161.51567 
L 328.901366 158.035335 
L 329.915552 138.438052 
L 330.422645 126.096631 
L 331.436831 92.56535 
L 331.943924 75.479661 
L 332.451017 65.237632 
L 332.95811 65.610362 
L 333.465203 70.547681 
L 333.972297 80.508598 
L 335.493576 119.60933 
L 336.507762 150.473305 
L 337.014855 157.221342 
L 337.521948 160.352914 
L 338.029041 162.676892 
L 338.536134 163.960494 
L 339.043227 164.273382 
L 341.578693 164.300728 
L 409.529167 164.300728 
L 409.529167 164.300728 
" style="fill:none;stroke:#bcbd22;stroke-linecap:square;stroke-width:1.5;"/>
   </g>
   <g id="line2d_64">
    <path clip-path="url(#p5b74287ef0)" d="M 333.71875 170.4 
L 333.71875 36.216027 
" style="fill:none;stroke:#808080;stroke-dasharray:1.5,2.475;stroke-dashoffset:0;stroke-width:1.5;"/>
   </g>
   <g id="line2d_65">
    <path clip-path="url(#p5b74287ef0)" d="M 257.908333 164.300728 
L 327.887179 164.29455 
L 328.394273 164.121517 
L 328.901366 162.470493 
L 329.408459 156.415994 
L 329.915552 146.336755 
L 330.422645 132.519866 
L 331.436831 94.830668 
L 332.451017 66.752289 
L 332.95811 56.412904 
L 333.465203 53.88529 
L 333.972297 66.11701 
L 334.47939 90.526889 
L 334.986483 107.466128 
L 335.493576 116.851929 
L 336.507762 149.257222 
L 337.014855 157.484744 
L 337.521948 162.691245 
L 338.029041 164.175349 
L 338.536134 164.297844 
L 358.312765 164.300728 
L 409.529167 164.300728 
L 409.529167 164.300728 
" style="fill:none;stroke:#17becf;stroke-linecap:square;stroke-width:1.5;"/>
   </g>
   <g id="line2d_66">
    <path clip-path="url(#p5b74287ef0)" d="M 333.71875 170.4 
L 333.71875 36.216027 
" style="fill:none;stroke:#808080;stroke-dasharray:1.5,2.475;stroke-dashoffset:0;stroke-width:1.5;"/>
   </g>
   <g id="line2d_67">
    <path clip-path="url(#p5b74287ef0)" d="M 257.908333 164.300728 
L 327.380086 164.286849 
L 327.887179 164.013742 
L 328.394273 162.073395 
L 328.901366 156.447253 
L 330.422645 124.751809 
L 330.929738 110.711929 
L 331.436831 90.20143 
L 331.943924 75.308205 
L 332.451017 67.514211 
L 332.95811 61.678912 
L 333.465203 63.397116 
L 333.972297 74.352115 
L 334.986483 108.09685 
L 335.493576 128.217752 
L 336.000669 143.083128 
L 337.014855 160.029481 
L 337.521948 163.692584 
L 338.029041 164.269061 
L 340.057414 164.300728 
L 409.529167 164.300728 
L 409.529167 164.300728 
" style="fill:none;stroke:#1f77b4;stroke-linecap:square;stroke-width:1.5;"/>
   </g>
   <g id="line2d_68">
    <path clip-path="url(#p5b74287ef0)" d="M 333.71875 170.4 
L 333.71875 36.216027 
" style="fill:none;stroke:#808080;stroke-dasharray:1.5,2.475;stroke-dashoffset:0;stroke-width:1.5;"/>
   </g>
   <g id="line2d_69">
    <path clip-path="url(#p5b74287ef0)" d="M 257.908333 164.300728 
L 326.872993 164.248379 
L 327.380086 163.507322 
L 327.887179 160.445695 
L 328.394273 158.256386 
L 328.901366 160.566875 
L 329.408459 158.789821 
L 330.422645 137.710928 
L 330.929738 124.671034 
L 332.451017 59.622943 
L 332.95811 50.372091 
L 333.465203 54.663437 
L 334.47939 86.133489 
L 334.986483 100.613204 
L 335.493576 120.718832 
L 336.000669 135.48051 
L 337.014855 156.184634 
L 337.521948 162.578814 
L 338.029041 164.162033 
L 338.536134 164.296898 
L 353.748927 164.300728 
L 409.529167 164.300728 
L 409.529167 164.300728 
" style="fill:none;stroke:#ff7f0e;stroke-linecap:square;stroke-width:1.5;"/>
   </g>
   <g id="line2d_70">
    <path clip-path="url(#p5b74287ef0)" d="M 333.71875 170.4 
L 333.71875 36.216027 
" style="fill:none;stroke:#808080;stroke-dasharray:1.5,2.475;stroke-dashoffset:0;stroke-width:1.5;"/>
   </g>
   <g id="line2d_71">
    <path clip-path="url(#p5b74287ef0)" d="M 257.908333 164.300728 
L 328.394273 164.2989 
L 328.901366 164.148207 
L 329.408459 162.341662 
L 329.915552 158.416926 
L 330.422645 147.139473 
L 331.436831 97.064577 
L 331.943924 66.935001 
L 332.451017 50.46031 
L 332.95811 43.257331 
L 333.465203 42.315298 
L 333.972297 53.533606 
L 334.47939 72.356377 
L 335.493576 133.334077 
L 336.000669 148.595863 
L 337.014855 161.991891 
L 337.521948 164.153251 
L 338.029041 164.298804 
L 367.44044 164.300728 
L 409.529167 164.300728 
L 409.529167 164.300728 
" style="fill:none;stroke:#2ca02c;stroke-linecap:square;stroke-width:1.5;"/>
   </g>
   <g id="line2d_72">
    <path clip-path="url(#p5b74287ef0)" d="M 333.71875 170.4 
L 333.71875 36.216027 
" style="fill:none;stroke:#808080;stroke-dasharray:1.5,2.475;stroke-dashoffset:0;stroke-width:1.5;"/>
   </g>
   <g id="patch_6">
    <path d="M 257.908333 170.4 
L 257.908333 36.216027 
" style="fill:none;stroke:#000000;stroke-linecap:square;stroke-linejoin:miter;stroke-width:0.8;"/>
   </g>
   <g id="patch_7">
    <path d="M 257.908333 170.4 
L 409.529167 170.4 
" style="fill:none;stroke:#000000;stroke-linecap:square;stroke-linejoin:miter;stroke-width:0.8;"/>
   </g>
  </g>
  <g id="axes_3">
   <g id="patch_8">
    <path d="M 471.391667 170.4 
L 623.0125 170.4 
L 623.0125 36.216027 
L 471.391667 36.216027 
z
" style="fill:#ffffff;"/>
   </g>
   <g id="matplotlib.axis_5">
    <g id="xtick_12">
     <g id="line2d_73">
      <g>
       <use style="stroke:#000000;stroke-width:0.8;" x="471.391667" xlink:href="#m61c6974a04" y="170.4"/>
      </g>
     </g>
     <g id="text_25">
      <!-- 0.00 -->
      <g transform="translate(460.258854 184.998437)scale(0.1 -0.1)">
       <use xlink:href="#DejaVuSans-48"/>
       <use x="63.623047" xlink:href="#DejaVuSans-46"/>
       <use x="95.410156" xlink:href="#DejaVuSans-48"/>
       <use x="159.033203" xlink:href="#DejaVuSans-48"/>
      </g>
     </g>
    </g>
    <g id="xtick_13">
     <g id="line2d_74">
      <g>
       <use style="stroke:#000000;stroke-width:0.8;" x="501.715833" xlink:href="#m61c6974a04" y="170.4"/>
      </g>
     </g>
     <g id="text_26">
      <!-- 0.02 -->
      <g transform="translate(490.583021 184.998437)scale(0.1 -0.1)">
       <use xlink:href="#DejaVuSans-48"/>
       <use x="63.623047" xlink:href="#DejaVuSans-46"/>
       <use x="95.410156" xlink:href="#DejaVuSans-48"/>
       <use x="159.033203" xlink:href="#DejaVuSans-50"/>
      </g>
     </g>
    </g>
    <g id="xtick_14">
     <g id="line2d_75">
      <g>
       <use style="stroke:#000000;stroke-width:0.8;" x="532.04" xlink:href="#m61c6974a04" y="170.4"/>
      </g>
     </g>
     <g id="text_27">
      <!-- 0.04 -->
      <g transform="translate(520.907188 184.998437)scale(0.1 -0.1)">
       <use xlink:href="#DejaVuSans-48"/>
       <use x="63.623047" xlink:href="#DejaVuSans-46"/>
       <use x="95.410156" xlink:href="#DejaVuSans-48"/>
       <use x="159.033203" xlink:href="#DejaVuSans-52"/>
      </g>
     </g>
    </g>
    <g id="xtick_15">
     <g id="line2d_76">
      <g>
       <use style="stroke:#000000;stroke-width:0.8;" x="562.364167" xlink:href="#m61c6974a04" y="170.4"/>
      </g>
     </g>
     <g id="text_28">
      <!-- 0.06 -->
      <g transform="translate(551.231354 184.998437)scale(0.1 -0.1)">
       <use xlink:href="#DejaVuSans-48"/>
       <use x="63.623047" xlink:href="#DejaVuSans-46"/>
       <use x="95.410156" xlink:href="#DejaVuSans-48"/>
       <use x="159.033203" xlink:href="#DejaVuSans-54"/>
      </g>
     </g>
    </g>
    <g id="xtick_16">
     <g id="line2d_77">
      <g>
       <use style="stroke:#000000;stroke-width:0.8;" x="592.688333" xlink:href="#m61c6974a04" y="170.4"/>
      </g>
     </g>
     <g id="text_29">
      <!-- 0.08 -->
      <g transform="translate(581.555521 184.998437)scale(0.1 -0.1)">
       <use xlink:href="#DejaVuSans-48"/>
       <use x="63.623047" xlink:href="#DejaVuSans-46"/>
       <use x="95.410156" xlink:href="#DejaVuSans-48"/>
       <use x="159.033203" xlink:href="#DejaVuSans-56"/>
      </g>
     </g>
    </g>
    <g id="xtick_17">
     <g id="line2d_78">
      <g>
       <use style="stroke:#000000;stroke-width:0.8;" x="623.0125" xlink:href="#m61c6974a04" y="170.4"/>
      </g>
     </g>
     <g id="text_30">
      <!-- 0.10 -->
      <g transform="translate(611.879688 184.998437)scale(0.1 -0.1)">
       <use xlink:href="#DejaVuSans-48"/>
       <use x="63.623047" xlink:href="#DejaVuSans-46"/>
       <use x="95.410156" xlink:href="#DejaVuSans-49"/>
       <use x="159.033203" xlink:href="#DejaVuSans-48"/>
      </g>
     </g>
    </g>
    <g id="text_31">
     <!-- $\theta_2$ -->
     <g transform="translate(541.752083 198.676562)scale(0.1 -0.1)">
      <use transform="translate(0 0.234375)" xlink:href="#DejaVuSans-Oblique-952"/>
      <use transform="translate(61.181641 -16.171875)scale(0.7)" xlink:href="#DejaVuSans-50"/>
     </g>
    </g>
   </g>
   <g id="matplotlib.axis_6">
    <g id="ytick_10">
     <g id="line2d_79">
      <g>
       <use style="stroke:#000000;stroke-width:0.8;" x="471.391667" xlink:href="#m48f02655ec" y="164.300728"/>
      </g>
     </g>
     <g id="text_32">
      <!-- 0 -->
      <g transform="translate(458.029167 168.099947)scale(0.1 -0.1)">
       <use xlink:href="#DejaVuSans-48"/>
      </g>
     </g>
    </g>
    <g id="ytick_11">
     <g id="line2d_80">
      <g>
       <use style="stroke:#000000;stroke-width:0.8;" x="471.391667" xlink:href="#m48f02655ec" y="132.769943"/>
      </g>
     </g>
     <g id="text_33">
      <!-- 5 -->
      <g transform="translate(458.029167 136.569162)scale(0.1 -0.1)">
       <defs>
        <path d="M 10.796875 72.90625 
L 49.515625 72.90625 
L 49.515625 64.59375 
L 19.828125 64.59375 
L 19.828125 46.734375 
Q 21.96875 47.46875 24.109375 47.828125 
Q 26.265625 48.1875 28.421875 48.1875 
Q 40.625 48.1875 47.75 41.5 
Q 54.890625 34.8125 54.890625 23.390625 
Q 54.890625 11.625 47.5625 5.09375 
Q 40.234375 -1.421875 26.90625 -1.421875 
Q 22.3125 -1.421875 17.546875 -0.640625 
Q 12.796875 0.140625 7.71875 1.703125 
L 7.71875 11.625 
Q 12.109375 9.234375 16.796875 8.0625 
Q 21.484375 6.890625 26.703125 6.890625 
Q 35.15625 6.890625 40.078125 11.328125 
Q 45.015625 15.765625 45.015625 23.390625 
Q 45.015625 31 40.078125 35.4375 
Q 35.15625 39.890625 26.703125 39.890625 
Q 22.75 39.890625 18.8125 39.015625 
Q 14.890625 38.140625 10.796875 36.28125 
z
" id="DejaVuSans-53"/>
       </defs>
       <use xlink:href="#DejaVuSans-53"/>
      </g>
     </g>
    </g>
    <g id="ytick_12">
     <g id="line2d_81">
      <g>
       <use style="stroke:#000000;stroke-width:0.8;" x="471.391667" xlink:href="#m48f02655ec" y="101.239157"/>
      </g>
     </g>
     <g id="text_34">
      <!-- 10 -->
      <g transform="translate(451.666667 105.038376)scale(0.1 -0.1)">
       <use xlink:href="#DejaVuSans-49"/>
       <use x="63.623047" xlink:href="#DejaVuSans-48"/>
      </g>
     </g>
    </g>
    <g id="ytick_13">
     <g id="line2d_82">
      <g>
       <use style="stroke:#000000;stroke-width:0.8;" x="471.391667" xlink:href="#m48f02655ec" y="69.708371"/>
      </g>
     </g>
     <g id="text_35">
      <!-- 15 -->
      <g transform="translate(451.666667 73.50759)scale(0.1 -0.1)">
       <use xlink:href="#DejaVuSans-49"/>
       <use x="63.623047" xlink:href="#DejaVuSans-53"/>
      </g>
     </g>
    </g>
    <g id="ytick_14">
     <g id="line2d_83">
      <g>
       <use style="stroke:#000000;stroke-width:0.8;" x="471.391667" xlink:href="#m48f02655ec" y="38.177586"/>
      </g>
     </g>
     <g id="text_36">
      <!-- 20 -->
      <g transform="translate(451.666667 41.976804)scale(0.1 -0.1)">
       <use xlink:href="#DejaVuSans-50"/>
       <use x="63.623047" xlink:href="#DejaVuSans-48"/>
      </g>
     </g>
    </g>
    <g id="text_37">
     <!-- Posterior -->
     <g transform="translate(445.586979 125.401763)rotate(-90)scale(0.1 -0.1)">
      <use xlink:href="#DejaVuSans-80"/>
      <use x="56.677734" xlink:href="#DejaVuSans-111"/>
      <use x="117.859375" xlink:href="#DejaVuSans-115"/>
      <use x="169.958984" xlink:href="#DejaVuSans-116"/>
      <use x="209.167969" xlink:href="#DejaVuSans-101"/>
      <use x="270.691406" xlink:href="#DejaVuSans-114"/>
      <use x="311.804688" xlink:href="#DejaVuSans-105"/>
      <use x="339.587891" xlink:href="#DejaVuSans-111"/>
      <use x="400.769531" xlink:href="#DejaVuSans-114"/>
     </g>
    </g>
   </g>
   <g id="line2d_84">
    <path clip-path="url(#pd9bd5274f5)" d="M 471.391667 127.431293 
L 475.448411 117.601351 
L 477.983877 112.059585 
L 480.012249 108.162335 
L 481.533528 105.611516 
L 483.054808 103.406797 
L 484.576087 101.560521 
L 486.097366 100.074415 
L 487.618645 98.940499 
L 489.139925 98.142243 
L 490.661204 97.655836 
L 492.182483 97.451474 
L 493.703763 97.494606 
L 495.225042 97.747144 
L 497.253414 98.339493 
L 499.78888 99.351923 
L 506.38109 102.168407 
L 508.916555 102.936603 
L 510.944928 103.340494 
L 512.9733 103.549531 
L 515.508765 103.559095 
L 518.044231 103.345954 
L 522.100975 102.748107 
L 527.678999 101.951926 
L 531.228651 101.694919 
L 534.778303 101.672845 
L 539.34214 101.887101 
L 547.962723 102.333094 
L 552.526561 102.318021 
L 557.090399 102.082664 
L 562.668423 101.561615 
L 572.303191 100.621215 
L 576.359936 100.491914 
L 579.909588 100.611202 
L 583.459239 100.978756 
L 586.501798 101.501621 
L 589.544356 102.22215 
L 592.586915 103.151395 
L 595.629473 104.315523 
L 598.164939 105.501135 
L 600.700404 106.931366 
L 602.728776 108.292393 
L 604.757149 109.884874 
L 606.785521 111.745152 
L 608.813894 113.905266 
L 610.842266 116.387514 
L 612.870638 119.199052 
L 615.406104 123.155443 
L 617.941569 127.531775 
L 621.998314 135.074357 
L 623.0125 136.994434 
L 623.0125 136.994434 
" style="fill:none;stroke:#1f77b4;stroke-linecap:square;stroke-width:1.5;"/>
   </g>
   <g id="line2d_85">
    <path clip-path="url(#pd9bd5274f5)" style="fill:none;stroke:#808080;stroke-dasharray:1.5,2.475;stroke-dashoffset:0;stroke-width:1.5;"/>
   </g>
   <g id="line2d_86">
    <path clip-path="url(#pd9bd5274f5)" d="M 471.391667 136.265139 
L 477.476784 124.248892 
L 480.012249 119.739603 
L 482.040622 116.501012 
L 484.068994 113.637065 
L 486.097366 111.162632 
L 488.125739 109.06836 
L 490.154111 107.325734 
L 492.182483 105.893882 
L 494.210856 104.727005 
L 496.239228 103.781262 
L 498.774693 102.855218 
L 501.310159 102.169051 
L 503.845624 101.697268 
L 506.38109 101.42886 
L 509.423648 101.359277 
L 512.466207 101.520153 
L 522.608069 102.302904 
L 525.143534 102.179338 
L 527.678999 101.844891 
L 530.721558 101.187553 
L 534.27121 100.171436 
L 542.384699 97.739384 
L 545.934351 96.948035 
L 548.976909 96.477779 
L 552.019468 96.216856 
L 555.062026 96.180131 
L 558.104585 96.385989 
L 561.147143 96.849794 
L 564.189702 97.569265 
L 567.739353 98.683235 
L 579.909588 102.823178 
L 582.952146 103.464051 
L 585.994705 103.872801 
L 589.544356 104.093503 
L 594.108194 104.101501 
L 599.686218 104.115189 
L 602.221683 104.377567 
L 604.250056 104.842049 
L 605.771335 105.397889 
L 607.292614 106.174445 
L 608.813894 107.207602 
L 610.335173 108.527706 
L 611.856452 110.156755 
L 613.377731 112.105938 
L 614.899011 114.373789 
L 616.927383 117.865153 
L 618.955755 121.82119 
L 621.491221 127.246897 
L 623.0125 130.652769 
L 623.0125 130.652769 
" style="fill:none;stroke:#ff7f0e;stroke-linecap:square;stroke-width:1.5;"/>
   </g>
   <g id="line2d_87">
    <path clip-path="url(#pd9bd5274f5)" style="fill:none;stroke:#808080;stroke-dasharray:1.5,2.475;stroke-dashoffset:0;stroke-width:1.5;"/>
   </g>
   <g id="line2d_88">
    <path clip-path="url(#pd9bd5274f5)" d="M 471.391667 134.948703 
L 475.955504 125.76052 
L 478.49097 121.173958 
L 480.519342 117.942964 
L 482.547715 115.167815 
L 484.068994 113.401278 
L 485.590273 111.902522 
L 487.111552 110.65886 
L 488.632832 109.649203 
L 490.661204 108.618585 
L 492.689576 107.877472 
L 495.225042 107.23258 
L 499.78888 106.406388 
L 503.845624 105.581808 
L 507.395276 104.601884 
L 511.959114 103.050184 
L 516.522952 101.548575 
L 519.058417 100.934472 
L 521.593882 100.574231 
L 523.622255 100.491744 
L 526.15772 100.633408 
L 529.200279 101.073434 
L 535.285396 102.071466 
L 537.820861 102.211752 
L 539.849234 102.119836 
L 541.877606 101.834131 
L 544.413071 101.229321 
L 547.45563 100.247893 
L 553.033654 98.372939 
L 555.569119 97.753779 
L 558.104585 97.373278 
L 560.64005 97.228891 
L 563.682609 97.28718 
L 570.274819 97.523332 
L 573.317377 97.366938 
L 576.359936 96.983934 
L 585.487611 95.586065 
L 588.023077 95.521105 
L 590.558542 95.718648 
L 592.586915 96.085853 
L 594.615287 96.650007 
L 596.643659 97.422271 
L 598.672032 98.419597 
L 600.700404 99.667488 
L 602.728776 101.200008 
L 604.757149 103.056757 
L 606.785521 105.277126 
L 608.813894 107.892803 
L 610.842266 110.919846 
L 612.870638 114.351791 
L 615.406104 119.157334 
L 618.448662 125.503881 
L 623.0125 135.495931 
L 623.0125 135.495931 
" style="fill:none;stroke:#2ca02c;stroke-linecap:square;stroke-width:1.5;"/>
   </g>
   <g id="line2d_89">
    <path clip-path="url(#pd9bd5274f5)" style="fill:none;stroke:#808080;stroke-dasharray:1.5,2.475;stroke-dashoffset:0;stroke-width:1.5;"/>
   </g>
   <g id="line2d_90">
    <path clip-path="url(#pd9bd5274f5)" d="M 471.391667 128.158562 
L 475.448411 118.7034 
L 477.983877 113.359865 
L 480.012249 109.590479 
L 482.040622 106.358999 
L 483.561901 104.31627 
L 485.08318 102.607098 
L 486.604459 101.226637 
L 488.125739 100.161262 
L 489.647018 99.390457 
L 491.168297 98.888909 
L 492.689576 98.628577 
L 494.210856 98.580564 
L 495.732135 98.716631 
L 497.760507 99.138912 
L 499.78888 99.785203 
L 502.324345 100.833932 
L 505.366904 102.335747 
L 515.001672 107.321877 
L 517.537138 108.307966 
L 520.072603 109.034671 
L 522.100975 109.41059 
L 524.129348 109.602156 
L 526.664813 109.596518 
L 529.200279 109.34922 
L 532.242837 108.790965 
L 535.792489 107.871197 
L 540.356327 106.434117 
L 548.469816 103.852098 
L 552.526561 102.831524 
L 556.583305 102.047196 
L 563.682609 100.968371 
L 570.274819 99.858406 
L 582.952146 97.553787 
L 585.994705 97.283587 
L 588.53017 97.24738 
L 591.065635 97.428656 
L 593.601101 97.871719 
L 595.629473 98.446113 
L 597.657846 99.243918 
L 599.686218 100.292777 
L 601.71459 101.621643 
L 603.742963 103.259447 
L 605.771335 105.232775 
L 607.799707 107.56258 
L 609.82808 110.260197 
L 611.856452 113.323176 
L 614.391918 117.633451 
L 616.927383 122.399096 
L 620.477035 129.577087 
L 623.0125 134.823897 
L 623.0125 134.823897 
" style="fill:none;stroke:#d62728;stroke-linecap:square;stroke-width:1.5;"/>
   </g>
   <g id="line2d_91">
    <path clip-path="url(#pd9bd5274f5)" style="fill:none;stroke:#808080;stroke-dasharray:1.5,2.475;stroke-dashoffset:0;stroke-width:1.5;"/>
   </g>
   <g id="line2d_92">
    <path clip-path="url(#pd9bd5274f5)" d="M 471.391667 135.242131 
L 479.505156 117.966173 
L 482.040622 113.236995 
L 484.068994 109.875409 
L 486.097366 106.940325 
L 488.125739 104.458162 
L 489.647018 102.89942 
L 491.168297 101.598159 
L 492.689576 100.547746 
L 494.210856 99.737774 
L 495.732135 99.154493 
L 497.253414 98.781151 
L 498.774693 98.598242 
L 500.803066 98.612146 
L 502.831438 98.8666 
L 505.366904 99.424279 
L 513.987486 101.605084 
L 516.522952 101.890415 
L 519.058417 101.907348 
L 521.593882 101.671562 
L 524.636441 101.146534 
L 530.721558 99.995041 
L 533.257023 99.747342 
L 535.792489 99.733613 
L 538.327954 99.962484 
L 541.370513 100.509387 
L 545.427258 101.520254 
L 552.526561 103.329348 
L 556.583305 104.104272 
L 560.132957 104.534828 
L 563.175516 104.666214 
L 565.710981 104.573654 
L 568.246446 104.28034 
L 571.289005 103.671603 
L 574.838657 102.682879 
L 584.473425 99.79773 
L 587.515984 99.190494 
L 590.558542 98.831331 
L 593.094008 98.754339 
L 595.629473 98.922256 
L 597.657846 99.274083 
L 599.686218 99.864675 
L 601.71459 100.743897 
L 603.23587 101.624728 
L 604.757149 102.719703 
L 606.278428 104.048386 
L 607.799707 105.62643 
L 609.320987 107.464026 
L 611.349359 110.322556 
L 613.377731 113.633211 
L 615.406104 117.354228 
L 617.941569 122.475055 
L 621.998314 131.293599 
L 623.0125 133.52687 
L 623.0125 133.52687 
" style="fill:none;stroke:#9467bd;stroke-linecap:square;stroke-width:1.5;"/>
   </g>
   <g id="line2d_93">
    <path clip-path="url(#pd9bd5274f5)" style="fill:none;stroke:#808080;stroke-dasharray:1.5,2.475;stroke-dashoffset:0;stroke-width:1.5;"/>
   </g>
   <g id="line2d_94">
    <path clip-path="url(#pd9bd5274f5)" d="M 471.391667 130.490815 
L 475.448411 121.882193 
L 477.983877 117.011457 
L 480.012249 113.553306 
L 482.040622 110.553798 
L 483.561901 108.625432 
L 485.08318 106.976195 
L 486.604459 105.600324 
L 488.125739 104.484842 
L 489.647018 103.610948 
L 491.168297 102.955482 
L 492.689576 102.492353 
L 494.717949 102.126007 
L 496.746321 101.985412 
L 499.281787 102.028395 
L 504.352717 102.413663 
L 508.409462 102.60855 
L 511.452021 102.526364 
L 514.494579 102.207659 
L 518.044231 101.582029 
L 525.650627 100.109742 
L 528.186093 99.877846 
L 530.721558 99.887623 
L 533.257023 100.161774 
L 535.792489 100.683129 
L 538.835047 101.556451 
L 547.962723 104.375776 
L 551.005281 104.972677 
L 554.04784 105.325724 
L 557.597492 105.476856 
L 561.654236 105.4012 
L 565.710981 105.117225 
L 569.260633 104.673508 
L 572.810284 103.994192 
L 576.359936 103.050579 
L 579.909588 101.871585 
L 589.544356 98.485465 
L 592.079822 97.933318 
L 594.108194 97.729948 
L 595.629473 97.754592 
L 597.150753 97.957731 
L 598.672032 98.361718 
L 600.193311 98.986434 
L 601.71459 99.848412 
L 603.23587 100.960073 
L 604.757149 102.329117 
L 606.278428 103.958086 
L 608.3068 106.528622 
L 610.335173 109.533547 
L 612.363545 112.933925 
L 614.899011 117.655456 
L 617.941569 123.825585 
L 623.0125 134.560821 
L 623.0125 134.560821 
" style="fill:none;stroke:#8c564b;stroke-linecap:square;stroke-width:1.5;"/>
   </g>
   <g id="line2d_95">
    <path clip-path="url(#pd9bd5274f5)" style="fill:none;stroke:#808080;stroke-dasharray:1.5,2.475;stroke-dashoffset:0;stroke-width:1.5;"/>
   </g>
   <g id="line2d_96">
    <path clip-path="url(#pd9bd5274f5)" d="M 471.391667 130.267026 
L 474.941318 123.138907 
L 477.476784 118.578864 
L 479.505156 115.36807 
L 481.533528 112.586311 
L 483.561901 110.234714 
L 485.590273 108.285236 
L 487.618645 106.688706 
L 489.647018 105.384468 
L 492.182483 104.070246 
L 494.717949 103.007392 
L 497.760507 101.954784 
L 501.310159 100.947773 
L 504.85981 100.164333 
L 507.902369 99.704891 
L 510.944928 99.487693 
L 513.480393 99.522772 
L 516.015858 99.773037 
L 518.551324 100.242637 
L 521.086789 100.916864 
L 524.636441 102.127569 
L 532.242837 104.883816 
L 534.778303 105.531382 
L 537.313768 105.923534 
L 539.34214 106.033987 
L 541.877606 105.925552 
L 544.413071 105.585367 
L 547.962723 104.861967 
L 554.04784 103.581181 
L 557.090399 103.158881 
L 560.64005 102.911447 
L 565.203888 102.853951 
L 570.781912 102.757093 
L 574.331564 102.481138 
L 578.388308 101.94072 
L 585.487611 100.933025 
L 588.53017 100.741614 
L 591.065635 100.774527 
L 593.601101 101.003142 
L 596.136566 101.436156 
L 598.672032 102.085768 
L 601.207497 102.982302 
L 603.23587 103.915666 
L 605.264242 105.087715 
L 607.292614 106.551033 
L 609.320987 108.360659 
L 611.349359 110.565461 
L 613.377731 113.198592 
L 615.406104 116.268741 
L 617.434476 119.753827 
L 619.969941 124.60626 
L 623.0125 130.916537 
L 623.0125 130.916537 
" style="fill:none;stroke:#e377c2;stroke-linecap:square;stroke-width:1.5;"/>
   </g>
   <g id="line2d_97">
    <path clip-path="url(#pd9bd5274f5)" style="fill:none;stroke:#808080;stroke-dasharray:1.5,2.475;stroke-dashoffset:0;stroke-width:1.5;"/>
   </g>
   <g id="line2d_98">
    <path clip-path="url(#pd9bd5274f5)" d="M 471.391667 136.59787 
L 479.505156 119.28698 
L 482.040622 114.604646 
L 484.068994 111.332086 
L 486.097366 108.530751 
L 487.618645 106.747363 
L 489.139925 105.229938 
L 490.661204 103.963445 
L 492.182483 102.92585 
L 494.210856 101.850939 
L 496.239228 101.061678 
L 498.774693 100.362698 
L 502.324345 99.681536 
L 509.423648 98.407186 
L 513.987486 97.315737 
L 524.636441 94.617372 
L 527.678999 94.154485 
L 530.214465 93.967984 
L 532.74993 93.988843 
L 535.285396 94.233113 
L 537.820861 94.711107 
L 540.356327 95.428531 
L 542.891792 96.384878 
L 545.427258 97.5688 
L 548.469816 99.248288 
L 553.033654 102.088034 
L 557.597492 104.855468 
L 560.132957 106.143892 
L 562.161329 106.968212 
L 564.189702 107.573403 
L 566.218074 107.941 
L 568.246446 108.067303 
L 570.274819 107.96302 
L 572.303191 107.651725 
L 574.838657 107.024033 
L 577.881215 106.030303 
L 586.501798 103.040894 
L 589.544356 102.287716 
L 592.079822 101.869693 
L 594.615287 101.675896 
L 596.643659 101.708731 
L 598.672032 101.939186 
L 600.700404 102.40542 
L 602.728776 103.154557 
L 604.250056 103.933997 
L 605.771335 104.925601 
L 607.292614 106.15117 
L 608.813894 107.629337 
L 610.335173 109.37364 
L 611.856452 111.390685 
L 613.884824 114.499726 
L 615.913197 118.057903 
L 618.448662 123.038104 
L 621.998314 130.652812 
L 623.0125 132.884959 
L 623.0125 132.884959 
" style="fill:none;stroke:#7f7f7f;stroke-linecap:square;stroke-width:1.5;"/>
   </g>
   <g id="line2d_99">
    <path clip-path="url(#pd9bd5274f5)" style="fill:none;stroke:#808080;stroke-dasharray:1.5,2.475;stroke-dashoffset:0;stroke-width:1.5;"/>
   </g>
   <g id="line2d_100">
    <path clip-path="url(#pd9bd5274f5)" d="M 471.391667 137.349327 
L 479.505156 121.593525 
L 482.040622 117.331948 
L 484.068994 114.343414 
L 486.097366 111.778111 
L 488.125739 109.654477 
L 489.647018 108.348707 
L 491.168297 107.277536 
L 492.689576 106.424415 
L 494.717949 105.589317 
L 496.746321 105.046421 
L 498.774693 104.733792 
L 501.310159 104.573698 
L 505.366904 104.598642 
L 511.452021 104.6356 
L 515.001672 104.410216 
L 518.044231 104.009753 
L 521.593882 103.29793 
L 525.650627 102.213139 
L 531.735744 100.29337 
L 537.313768 98.605122 
L 540.86342 97.742536 
L 544.413071 97.123407 
L 547.962723 96.765782 
L 551.512375 96.638148 
L 556.583305 96.714087 
L 568.75354 97.21222 
L 573.82447 97.60565 
L 577.881215 98.138341 
L 581.93796 98.891485 
L 587.515984 100.176733 
L 600.700404 103.457076 
L 603.23587 104.406952 
L 605.264242 105.418269 
L 607.292614 106.736704 
L 608.813894 107.97157 
L 610.335173 109.446981 
L 611.856452 111.182591 
L 613.377731 113.189305 
L 615.406104 116.285823 
L 617.434476 119.832997 
L 619.969941 124.794549 
L 623.0125 131.24705 
L 623.0125 131.24705 
" style="fill:none;stroke:#bcbd22;stroke-linecap:square;stroke-width:1.5;"/>
   </g>
   <g id="line2d_101">
    <path clip-path="url(#pd9bd5274f5)" style="fill:none;stroke:#808080;stroke-dasharray:1.5,2.475;stroke-dashoffset:0;stroke-width:1.5;"/>
   </g>
   <g id="line2d_102">
    <path clip-path="url(#pd9bd5274f5)" d="M 471.391667 130.806996 
L 474.941318 124.05686 
L 477.476784 119.662481 
L 479.505156 116.504235 
L 481.533528 113.703936 
L 483.561901 111.272822 
L 485.590273 109.200727 
L 487.618645 107.461239 
L 489.647018 106.017987 
L 491.67539 104.830989 
L 493.703763 103.862169 
L 496.239228 102.90972 
L 498.774693 102.203595 
L 501.310159 101.718531 
L 503.845624 101.44367 
L 506.38109 101.374001 
L 508.916555 101.501221 
L 511.959114 101.886192 
L 515.508765 102.576733 
L 525.143534 104.618628 
L 528.186093 104.983804 
L 531.228651 105.135352 
L 534.778303 105.065624 
L 539.34214 104.722054 
L 547.962723 104.043979 
L 554.554933 103.817465 
L 560.64005 103.55473 
L 564.696795 103.175162 
L 568.75354 102.583266 
L 573.82447 101.599911 
L 582.952146 99.754973 
L 586.501798 99.28425 
L 589.544356 99.102832 
L 592.079822 99.151001 
L 594.615287 99.41461 
L 597.150753 99.929189 
L 599.179125 100.550403 
L 601.207497 101.387475 
L 603.23587 102.473378 
L 605.264242 103.845483 
L 607.292614 105.542874 
L 609.320987 107.601906 
L 611.349359 110.050378 
L 613.377731 112.901137 
L 615.406104 116.146226 
L 617.941569 120.704493 
L 620.984128 126.742004 
L 623.0125 130.966984 
L 623.0125 130.966984 
" style="fill:none;stroke:#17becf;stroke-linecap:square;stroke-width:1.5;"/>
   </g>
   <g id="line2d_103">
    <path clip-path="url(#pd9bd5274f5)" style="fill:none;stroke:#808080;stroke-dasharray:1.5,2.475;stroke-dashoffset:0;stroke-width:1.5;"/>
   </g>
   <g id="line2d_104">
    <path clip-path="url(#pd9bd5274f5)" d="M 471.391667 137.92495 
L 480.012249 122.420652 
L 482.547715 118.45236 
L 484.576087 115.653845 
L 486.604459 113.241047 
L 488.632832 111.240147 
L 490.154111 110.013758 
L 491.67539 109.017269 
L 493.196669 108.239645 
L 494.717949 107.664774 
L 496.746321 107.178166 
L 498.774693 106.959427 
L 501.310159 106.968959 
L 504.352717 107.236924 
L 512.466207 108.087206 
L 516.015858 108.163153 
L 519.56551 108.003381 
L 523.622255 107.594195 
L 529.707372 106.728015 
L 536.299582 105.590777 
L 540.86342 104.609003 
L 544.920164 103.53116 
L 549.484002 102.086184 
L 561.654236 98.054962 
L 565.203888 97.226539 
L 568.246446 96.739001 
L 571.289005 96.454789 
L 575.34575 96.317035 
L 583.459239 96.122617 
L 587.008891 95.764635 
L 592.079822 94.965202 
L 595.629473 94.496205 
L 597.657846 94.421875 
L 599.686218 94.591462 
L 601.207497 94.929997 
L 602.728776 95.487773 
L 604.250056 96.29548 
L 605.771335 97.378808 
L 607.292614 98.757004 
L 608.813894 100.441671 
L 610.335173 102.43585 
L 611.856452 104.733468 
L 613.884824 108.241124 
L 615.913197 112.198839 
L 618.448662 117.645477 
L 622.505407 127.003505 
L 623.0125 128.188922 
L 623.0125 128.188922 
" style="fill:none;stroke:#1f77b4;stroke-linecap:square;stroke-width:1.5;"/>
   </g>
   <g id="line2d_105">
    <path clip-path="url(#pd9bd5274f5)" style="fill:none;stroke:#808080;stroke-dasharray:1.5,2.475;stroke-dashoffset:0;stroke-width:1.5;"/>
   </g>
   <g id="line2d_106">
    <path clip-path="url(#pd9bd5274f5)" d="M 471.391667 152.559418 
L 473.927132 149.7342 
L 476.969691 145.969091 
L 480.519342 141.197496 
L 491.67539 125.898955 
L 494.717949 122.211466 
L 497.760507 118.887957 
L 500.295973 116.423849 
L 502.831438 114.249114 
L 505.366904 112.365549 
L 507.902369 110.765538 
L 510.437834 109.429727 
L 512.9733 108.324394 
L 516.015858 107.231792 
L 522.100975 105.372821 
L 526.15772 104.008353 
L 529.707372 102.591768 
L 538.835047 98.765086 
L 541.370513 98.068142 
L 543.398885 97.740924 
L 545.427258 97.641621 
L 547.45563 97.769864 
L 549.484002 98.10442 
L 552.019468 98.75113 
L 556.583305 100.22195 
L 560.132957 101.259296 
L 562.668423 101.755462 
L 564.696795 101.934012 
L 566.725167 101.875573 
L 568.75354 101.547013 
L 570.274819 101.106968 
L 571.796098 100.491303 
L 573.82447 99.388427 
L 575.852843 97.962381 
L 577.881215 96.227011 
L 579.909588 94.214805 
L 582.445053 91.392646 
L 591.065635 81.450598 
L 593.094008 79.632855 
L 594.615287 78.537741 
L 596.136566 77.714352 
L 597.657846 77.195209 
L 598.672032 77.031904 
L 599.686218 77.022992 
L 600.700404 77.174351 
L 601.71459 77.490895 
L 602.728776 77.97661 
L 603.742963 78.634575 
L 605.264242 79.94903 
L 606.785521 81.659339 
L 608.3068 83.764303 
L 609.82808 86.257475 
L 611.349359 89.126481 
L 613.377731 93.502402 
L 615.406104 98.445516 
L 617.941569 105.279873 
L 621.491221 115.638102 
L 623.0125 120.187772 
L 623.0125 120.187772 
" style="fill:none;stroke:#ff7f0e;stroke-linecap:square;stroke-width:1.5;"/>
   </g>
   <g id="line2d_107">
    <path clip-path="url(#pd9bd5274f5)" style="fill:none;stroke:#808080;stroke-dasharray:1.5,2.475;stroke-dashoffset:0;stroke-width:1.5;"/>
   </g>
   <g id="line2d_108">
    <path clip-path="url(#pd9bd5274f5)" d="M 471.391667 164.300728 
L 500.803066 164.197044 
L 503.845624 163.979839 
L 506.38109 163.56451 
L 508.409462 162.966789 
L 509.930741 162.297765 
L 511.452021 161.388993 
L 512.9733 160.197194 
L 514.494579 158.685692 
L 516.015858 156.828108 
L 517.537138 154.610654 
L 519.058417 152.032555 
L 521.086789 148.054338 
L 523.115162 143.506162 
L 525.650627 137.131669 
L 528.693186 128.731062 
L 535.285396 110.16309 
L 537.313768 105.14783 
L 539.34214 100.736866 
L 541.370513 96.97842 
L 542.891792 94.571725 
L 544.920164 91.845873 
L 546.948537 89.566691 
L 549.484002 87.145107 
L 555.062026 82.063143 
L 556.583305 80.355743 
L 558.104585 78.359638 
L 559.625864 76.012671 
L 561.147143 73.279728 
L 563.175516 69.046315 
L 565.710981 63.019749 
L 569.767726 53.134904 
L 571.289005 49.902818 
L 572.810284 47.168533 
L 573.82447 45.67239 
L 574.838657 44.456719 
L 575.852843 43.524946 
L 576.867029 42.869707 
L 577.881215 42.474385 
L 578.895401 42.315298 
L 579.909588 42.364262 
L 580.923774 42.591257 
L 582.445053 43.202018 
L 583.966332 44.061707 
L 585.994705 45.487923 
L 588.53017 47.600884 
L 591.572729 50.467455 
L 595.12238 53.803953 
L 596.643659 55.004456 
L 598.164939 55.944992 
L 599.686218 56.564541 
L 601.207497 56.839589 
L 602.728776 56.79406 
L 604.250056 56.502988 
L 607.799707 55.650693 
L 608.813894 55.616816 
L 609.82808 55.800014 
L 610.842266 56.274428 
L 611.856452 57.115068 
L 612.870638 58.394784 
L 613.884824 60.180532 
L 614.899011 62.529034 
L 615.913197 65.482125 
L 616.927383 69.0622 
L 617.941569 73.268289 
L 619.462848 80.684502 
L 620.984128 89.23676 
L 623.0125 101.823713 
L 623.0125 101.823713 
" style="fill:none;stroke:#2ca02c;stroke-linecap:square;stroke-width:1.5;"/>
   </g>
   <g id="line2d_109">
    <path clip-path="url(#pd9bd5274f5)" style="fill:none;stroke:#808080;stroke-dasharray:1.5,2.475;stroke-dashoffset:0;stroke-width:1.5;"/>
   </g>
   <g id="patch_9">
    <path d="M 471.391667 170.4 
L 471.391667 36.216027 
" style="fill:none;stroke:#000000;stroke-linecap:square;stroke-linejoin:miter;stroke-width:0.8;"/>
   </g>
   <g id="patch_10">
    <path d="M 471.391667 170.4 
L 623.0125 170.4 
" style="fill:none;stroke:#000000;stroke-linecap:square;stroke-linejoin:miter;stroke-width:0.8;"/>
   </g>
  </g>
  <g id="text_38">
   <!-- euclidean, linear model, unnormalized -->
   <g transform="translate(208.757812 13.438125)scale(0.12 -0.12)">
    <defs>
     <path d="M 8.5 21.578125 
L 8.5 54.6875 
L 17.484375 54.6875 
L 17.484375 21.921875 
Q 17.484375 14.15625 20.5 10.265625 
Q 23.53125 6.390625 29.59375 6.390625 
Q 36.859375 6.390625 41.078125 11.03125 
Q 45.3125 15.671875 45.3125 23.6875 
L 45.3125 54.6875 
L 54.296875 54.6875 
L 54.296875 0 
L 45.3125 0 
L 45.3125 8.40625 
Q 42.046875 3.421875 37.71875 1 
Q 33.40625 -1.421875 27.6875 -1.421875 
Q 18.265625 -1.421875 13.375 4.4375 
Q 8.5 10.296875 8.5 21.578125 
z
M 31.109375 56 
z
" id="DejaVuSans-117"/>
     <path d="M 48.78125 52.59375 
L 48.78125 44.1875 
Q 44.96875 46.296875 41.140625 47.34375 
Q 37.3125 48.390625 33.40625 48.390625 
Q 24.65625 48.390625 19.8125 42.84375 
Q 14.984375 37.3125 14.984375 27.296875 
Q 14.984375 17.28125 19.8125 11.734375 
Q 24.65625 6.203125 33.40625 6.203125 
Q 37.3125 6.203125 41.140625 7.25 
Q 44.96875 8.296875 48.78125 10.40625 
L 48.78125 2.09375 
Q 45.015625 0.34375 40.984375 -0.53125 
Q 36.96875 -1.421875 32.421875 -1.421875 
Q 20.0625 -1.421875 12.78125 6.34375 
Q 5.515625 14.109375 5.515625 27.296875 
Q 5.515625 40.671875 12.859375 48.328125 
Q 20.21875 56 33.015625 56 
Q 37.15625 56 41.109375 55.140625 
Q 45.0625 54.296875 48.78125 52.59375 
z
" id="DejaVuSans-99"/>
     <path d="M 9.421875 75.984375 
L 18.40625 75.984375 
L 18.40625 0 
L 9.421875 0 
z
" id="DejaVuSans-108"/>
     <path d="M 45.40625 46.390625 
L 45.40625 75.984375 
L 54.390625 75.984375 
L 54.390625 0 
L 45.40625 0 
L 45.40625 8.203125 
Q 42.578125 3.328125 38.25 0.953125 
Q 33.9375 -1.421875 27.875 -1.421875 
Q 17.96875 -1.421875 11.734375 6.484375 
Q 5.515625 14.40625 5.515625 27.296875 
Q 5.515625 40.1875 11.734375 48.09375 
Q 17.96875 56 27.875 56 
Q 33.9375 56 38.25 53.625 
Q 42.578125 51.265625 45.40625 46.390625 
z
M 14.796875 27.296875 
Q 14.796875 17.390625 18.875 11.75 
Q 22.953125 6.109375 30.078125 6.109375 
Q 37.203125 6.109375 41.296875 11.75 
Q 45.40625 17.390625 45.40625 27.296875 
Q 45.40625 37.203125 41.296875 42.84375 
Q 37.203125 48.484375 30.078125 48.484375 
Q 22.953125 48.484375 18.875 42.84375 
Q 14.796875 37.203125 14.796875 27.296875 
z
" id="DejaVuSans-100"/>
     <path d="M 34.28125 27.484375 
Q 23.390625 27.484375 19.1875 25 
Q 14.984375 22.515625 14.984375 16.5 
Q 14.984375 11.71875 18.140625 8.90625 
Q 21.296875 6.109375 26.703125 6.109375 
Q 34.1875 6.109375 38.703125 11.40625 
Q 43.21875 16.703125 43.21875 25.484375 
L 43.21875 27.484375 
z
M 52.203125 31.203125 
L 52.203125 0 
L 43.21875 0 
L 43.21875 8.296875 
Q 40.140625 3.328125 35.546875 0.953125 
Q 30.953125 -1.421875 24.3125 -1.421875 
Q 15.921875 -1.421875 10.953125 3.296875 
Q 6 8.015625 6 15.921875 
Q 6 25.140625 12.171875 29.828125 
Q 18.359375 34.515625 30.609375 34.515625 
L 43.21875 34.515625 
L 43.21875 35.40625 
Q 43.21875 41.609375 39.140625 45 
Q 35.0625 48.390625 27.6875 48.390625 
Q 23 48.390625 18.546875 47.265625 
Q 14.109375 46.140625 10.015625 43.890625 
L 10.015625 52.203125 
Q 14.9375 54.109375 19.578125 55.046875 
Q 24.21875 56 28.609375 56 
Q 40.484375 56 46.34375 49.84375 
Q 52.203125 43.703125 52.203125 31.203125 
z
" id="DejaVuSans-97"/>
     <path d="M 54.890625 33.015625 
L 54.890625 0 
L 45.90625 0 
L 45.90625 32.71875 
Q 45.90625 40.484375 42.875 44.328125 
Q 39.84375 48.1875 33.796875 48.1875 
Q 26.515625 48.1875 22.3125 43.546875 
Q 18.109375 38.921875 18.109375 30.90625 
L 18.109375 0 
L 9.078125 0 
L 9.078125 54.6875 
L 18.109375 54.6875 
L 18.109375 46.1875 
Q 21.34375 51.125 25.703125 53.5625 
Q 30.078125 56 35.796875 56 
Q 45.21875 56 50.046875 50.171875 
Q 54.890625 44.34375 54.890625 33.015625 
z
" id="DejaVuSans-110"/>
     <path d="M 11.71875 12.40625 
L 22.015625 12.40625 
L 22.015625 4 
L 14.015625 -11.625 
L 7.71875 -11.625 
L 11.71875 4 
z
" id="DejaVuSans-44"/>
     <path id="DejaVuSans-32"/>
     <path d="M 52 44.1875 
Q 55.375 50.25 60.0625 53.125 
Q 64.75 56 71.09375 56 
Q 79.640625 56 84.28125 50.015625 
Q 88.921875 44.046875 88.921875 33.015625 
L 88.921875 0 
L 79.890625 0 
L 79.890625 32.71875 
Q 79.890625 40.578125 77.09375 44.375 
Q 74.3125 48.1875 68.609375 48.1875 
Q 61.625 48.1875 57.5625 43.546875 
Q 53.515625 38.921875 53.515625 30.90625 
L 53.515625 0 
L 44.484375 0 
L 44.484375 32.71875 
Q 44.484375 40.625 41.703125 44.40625 
Q 38.921875 48.1875 33.109375 48.1875 
Q 26.21875 48.1875 22.15625 43.53125 
Q 18.109375 38.875 18.109375 30.90625 
L 18.109375 0 
L 9.078125 0 
L 9.078125 54.6875 
L 18.109375 54.6875 
L 18.109375 46.1875 
Q 21.1875 51.21875 25.484375 53.609375 
Q 29.78125 56 35.6875 56 
Q 41.65625 56 45.828125 52.96875 
Q 50 49.953125 52 44.1875 
z
" id="DejaVuSans-109"/>
     <path d="M 5.515625 54.6875 
L 48.1875 54.6875 
L 48.1875 46.484375 
L 14.40625 7.171875 
L 48.1875 7.171875 
L 48.1875 0 
L 4.296875 0 
L 4.296875 8.203125 
L 38.09375 47.515625 
L 5.515625 47.515625 
z
" id="DejaVuSans-122"/>
    </defs>
    <use xlink:href="#DejaVuSans-101"/>
    <use x="61.523438" xlink:href="#DejaVuSans-117"/>
    <use x="124.902344" xlink:href="#DejaVuSans-99"/>
    <use x="179.882812" xlink:href="#DejaVuSans-108"/>
    <use x="207.666016" xlink:href="#DejaVuSans-105"/>
    <use x="235.449219" xlink:href="#DejaVuSans-100"/>
    <use x="298.925781" xlink:href="#DejaVuSans-101"/>
    <use x="360.449219" xlink:href="#DejaVuSans-97"/>
    <use x="421.728516" xlink:href="#DejaVuSans-110"/>
    <use x="485.107422" xlink:href="#DejaVuSans-44"/>
    <use x="516.894531" xlink:href="#DejaVuSans-32"/>
    <use x="548.681641" xlink:href="#DejaVuSans-108"/>
    <use x="576.464844" xlink:href="#DejaVuSans-105"/>
    <use x="604.248047" xlink:href="#DejaVuSans-110"/>
    <use x="667.626953" xlink:href="#DejaVuSans-101"/>
    <use x="729.150391" xlink:href="#DejaVuSans-97"/>
    <use x="790.429688" xlink:href="#DejaVuSans-114"/>
    <use x="831.542969" xlink:href="#DejaVuSans-32"/>
    <use x="863.330078" xlink:href="#DejaVuSans-109"/>
    <use x="960.742188" xlink:href="#DejaVuSans-111"/>
    <use x="1021.923828" xlink:href="#DejaVuSans-100"/>
    <use x="1085.400391" xlink:href="#DejaVuSans-101"/>
    <use x="1146.923828" xlink:href="#DejaVuSans-108"/>
    <use x="1174.707031" xlink:href="#DejaVuSans-44"/>
    <use x="1206.494141" xlink:href="#DejaVuSans-32"/>
    <use x="1238.28125" xlink:href="#DejaVuSans-117"/>
    <use x="1301.660156" xlink:href="#DejaVuSans-110"/>
    <use x="1365.039062" xlink:href="#DejaVuSans-110"/>
    <use x="1428.417969" xlink:href="#DejaVuSans-111"/>
    <use x="1489.599609" xlink:href="#DejaVuSans-114"/>
    <use x="1528.962891" xlink:href="#DejaVuSans-109"/>
    <use x="1626.375" xlink:href="#DejaVuSans-97"/>
    <use x="1687.654297" xlink:href="#DejaVuSans-108"/>
    <use x="1715.4375" xlink:href="#DejaVuSans-105"/>
    <use x="1743.220703" xlink:href="#DejaVuSans-122"/>
    <use x="1795.710938" xlink:href="#DejaVuSans-101"/>
    <use x="1857.234375" xlink:href="#DejaVuSans-100"/>
   </g>
  </g>
 </g>
 <defs>
  <clipPath id="pa8b4d0d5c8">
   <rect height="134.183973" width="151.620833" x="44.425" y="36.216027"/>
  </clipPath>
  <clipPath id="p5b74287ef0">
   <rect height="134.183973" width="151.620833" x="257.908333" y="36.216027"/>
  </clipPath>
  <clipPath id="pd9bd5274f5">
   <rect height="134.183973" width="151.620833" x="471.391667" y="36.216027"/>
  </clipPath>
 </defs>
</svg>
