<?xml version="1.0" encoding="utf-8" standalone="no"?>
<!DOCTYPE svg PUBLIC "-//W3C//DTD SVG 1.1//EN"
  "http://www.w3.org/Graphics/SVG/1.1/DTD/svg11.dtd">
<!-- Created with matplotlib (https://matplotlib.org/) -->
<svg height="216pt" version="1.1" viewBox="0 0 648 216" width="648pt" xmlns="http://www.w3.org/2000/svg" xmlns:xlink="http://www.w3.org/1999/xlink">
 <metadata>
  <rdf:RDF xmlns:cc="http://creativecommons.org/ns#" xmlns:dc="http://purl.org/dc/elements/1.1/" xmlns:rdf="http://www.w3.org/1999/02/22-rdf-syntax-ns#">
   <cc:Work>
    <dc:type rdf:resource="http://purl.org/dc/dcmitype/StillImage"/>
    <dc:date>2021-04-22T11:29:32.484566</dc:date>
    <dc:format>image/svg+xml</dc:format>
    <dc:creator>
     <cc:Agent>
      <dc:title>Matplotlib v3.3.4, https://matplotlib.org/</dc:title>
     </cc:Agent>
    </dc:creator>
   </cc:Work>
  </rdf:RDF>
 </metadata>
 <defs>
  <style type="text/css">*{stroke-linecap:butt;stroke-linejoin:round;}</style>
 </defs>
 <g id="figure_1">
  <g id="patch_1">
   <path d="M 0 216 
L 648 216 
L 648 0 
L 0 0 
z
" style="fill:none;"/>
  </g>
  <g id="axes_1">
   <g id="patch_2">
    <path d="M 44.425 170.4 
L 196.045833 170.4 
L 196.045833 36.530405 
L 44.425 36.530405 
z
" style="fill:#ffffff;"/>
   </g>
   <g id="matplotlib.axis_1">
    <g id="xtick_1">
     <g id="line2d_1">
      <defs>
       <path d="M 0 0 
L 0 3.5 
" id="mc444d8ad39" style="stroke:#000000;stroke-width:0.8;"/>
      </defs>
      <g>
       <use style="stroke:#000000;stroke-width:0.8;" x="44.425" xlink:href="#mc444d8ad39" y="170.4"/>
      </g>
     </g>
     <g id="text_1">
      <!-- 0.00 -->
      <g transform="translate(33.292188 184.998437)scale(0.1 -0.1)">
       <defs>
        <path d="M 31.78125 66.40625 
Q 24.171875 66.40625 20.328125 58.90625 
Q 16.5 51.421875 16.5 36.375 
Q 16.5 21.390625 20.328125 13.890625 
Q 24.171875 6.390625 31.78125 6.390625 
Q 39.453125 6.390625 43.28125 13.890625 
Q 47.125 21.390625 47.125 36.375 
Q 47.125 51.421875 43.28125 58.90625 
Q 39.453125 66.40625 31.78125 66.40625 
z
M 31.78125 74.21875 
Q 44.046875 74.21875 50.515625 64.515625 
Q 56.984375 54.828125 56.984375 36.375 
Q 56.984375 17.96875 50.515625 8.265625 
Q 44.046875 -1.421875 31.78125 -1.421875 
Q 19.53125 -1.421875 13.0625 8.265625 
Q 6.59375 17.96875 6.59375 36.375 
Q 6.59375 54.828125 13.0625 64.515625 
Q 19.53125 74.21875 31.78125 74.21875 
z
" id="DejaVuSans-48"/>
        <path d="M 10.6875 12.40625 
L 21 12.40625 
L 21 0 
L 10.6875 0 
z
" id="DejaVuSans-46"/>
       </defs>
       <use xlink:href="#DejaVuSans-48"/>
       <use x="63.623047" xlink:href="#DejaVuSans-46"/>
       <use x="95.410156" xlink:href="#DejaVuSans-48"/>
       <use x="159.033203" xlink:href="#DejaVuSans-48"/>
      </g>
     </g>
    </g>
    <g id="xtick_2">
     <g id="line2d_2">
      <g>
       <use style="stroke:#000000;stroke-width:0.8;" x="74.749167" xlink:href="#mc444d8ad39" y="170.4"/>
      </g>
     </g>
     <g id="text_2">
      <!-- 0.02 -->
      <g transform="translate(63.616354 184.998437)scale(0.1 -0.1)">
       <defs>
        <path d="M 19.1875 8.296875 
L 53.609375 8.296875 
L 53.609375 0 
L 7.328125 0 
L 7.328125 8.296875 
Q 12.9375 14.109375 22.625 23.890625 
Q 32.328125 33.6875 34.8125 36.53125 
Q 39.546875 41.84375 41.421875 45.53125 
Q 43.3125 49.21875 43.3125 52.78125 
Q 43.3125 58.59375 39.234375 62.25 
Q 35.15625 65.921875 28.609375 65.921875 
Q 23.96875 65.921875 18.8125 64.3125 
Q 13.671875 62.703125 7.8125 59.421875 
L 7.8125 69.390625 
Q 13.765625 71.78125 18.9375 73 
Q 24.125 74.21875 28.421875 74.21875 
Q 39.75 74.21875 46.484375 68.546875 
Q 53.21875 62.890625 53.21875 53.421875 
Q 53.21875 48.921875 51.53125 44.890625 
Q 49.859375 40.875 45.40625 35.40625 
Q 44.1875 33.984375 37.640625 27.21875 
Q 31.109375 20.453125 19.1875 8.296875 
z
" id="DejaVuSans-50"/>
       </defs>
       <use xlink:href="#DejaVuSans-48"/>
       <use x="63.623047" xlink:href="#DejaVuSans-46"/>
       <use x="95.410156" xlink:href="#DejaVuSans-48"/>
       <use x="159.033203" xlink:href="#DejaVuSans-50"/>
      </g>
     </g>
    </g>
    <g id="xtick_3">
     <g id="line2d_3">
      <g>
       <use style="stroke:#000000;stroke-width:0.8;" x="105.073333" xlink:href="#mc444d8ad39" y="170.4"/>
      </g>
     </g>
     <g id="text_3">
      <!-- 0.04 -->
      <g transform="translate(93.940521 184.998437)scale(0.1 -0.1)">
       <defs>
        <path d="M 37.796875 64.3125 
L 12.890625 25.390625 
L 37.796875 25.390625 
z
M 35.203125 72.90625 
L 47.609375 72.90625 
L 47.609375 25.390625 
L 58.015625 25.390625 
L 58.015625 17.1875 
L 47.609375 17.1875 
L 47.609375 0 
L 37.796875 0 
L 37.796875 17.1875 
L 4.890625 17.1875 
L 4.890625 26.703125 
z
" id="DejaVuSans-52"/>
       </defs>
       <use xlink:href="#DejaVuSans-48"/>
       <use x="63.623047" xlink:href="#DejaVuSans-46"/>
       <use x="95.410156" xlink:href="#DejaVuSans-48"/>
       <use x="159.033203" xlink:href="#DejaVuSans-52"/>
      </g>
     </g>
    </g>
    <g id="xtick_4">
     <g id="line2d_4">
      <g>
       <use style="stroke:#000000;stroke-width:0.8;" x="135.3975" xlink:href="#mc444d8ad39" y="170.4"/>
      </g>
     </g>
     <g id="text_4">
      <!-- 0.06 -->
      <g transform="translate(124.264688 184.998437)scale(0.1 -0.1)">
       <defs>
        <path d="M 33.015625 40.375 
Q 26.375 40.375 22.484375 35.828125 
Q 18.609375 31.296875 18.609375 23.390625 
Q 18.609375 15.53125 22.484375 10.953125 
Q 26.375 6.390625 33.015625 6.390625 
Q 39.65625 6.390625 43.53125 10.953125 
Q 47.40625 15.53125 47.40625 23.390625 
Q 47.40625 31.296875 43.53125 35.828125 
Q 39.65625 40.375 33.015625 40.375 
z
M 52.59375 71.296875 
L 52.59375 62.3125 
Q 48.875 64.0625 45.09375 64.984375 
Q 41.3125 65.921875 37.59375 65.921875 
Q 27.828125 65.921875 22.671875 59.328125 
Q 17.53125 52.734375 16.796875 39.40625 
Q 19.671875 43.65625 24.015625 45.921875 
Q 28.375 48.1875 33.59375 48.1875 
Q 44.578125 48.1875 50.953125 41.515625 
Q 57.328125 34.859375 57.328125 23.390625 
Q 57.328125 12.15625 50.6875 5.359375 
Q 44.046875 -1.421875 33.015625 -1.421875 
Q 20.359375 -1.421875 13.671875 8.265625 
Q 6.984375 17.96875 6.984375 36.375 
Q 6.984375 53.65625 15.1875 63.9375 
Q 23.390625 74.21875 37.203125 74.21875 
Q 40.921875 74.21875 44.703125 73.484375 
Q 48.484375 72.75 52.59375 71.296875 
z
" id="DejaVuSans-54"/>
       </defs>
       <use xlink:href="#DejaVuSans-48"/>
       <use x="63.623047" xlink:href="#DejaVuSans-46"/>
       <use x="95.410156" xlink:href="#DejaVuSans-48"/>
       <use x="159.033203" xlink:href="#DejaVuSans-54"/>
      </g>
     </g>
    </g>
    <g id="xtick_5">
     <g id="line2d_5">
      <g>
       <use style="stroke:#000000;stroke-width:0.8;" x="165.721667" xlink:href="#mc444d8ad39" y="170.4"/>
      </g>
     </g>
     <g id="text_5">
      <!-- 0.08 -->
      <g transform="translate(154.588854 184.998437)scale(0.1 -0.1)">
       <defs>
        <path d="M 31.78125 34.625 
Q 24.75 34.625 20.71875 30.859375 
Q 16.703125 27.09375 16.703125 20.515625 
Q 16.703125 13.921875 20.71875 10.15625 
Q 24.75 6.390625 31.78125 6.390625 
Q 38.8125 6.390625 42.859375 10.171875 
Q 46.921875 13.96875 46.921875 20.515625 
Q 46.921875 27.09375 42.890625 30.859375 
Q 38.875 34.625 31.78125 34.625 
z
M 21.921875 38.8125 
Q 15.578125 40.375 12.03125 44.71875 
Q 8.5 49.078125 8.5 55.328125 
Q 8.5 64.0625 14.71875 69.140625 
Q 20.953125 74.21875 31.78125 74.21875 
Q 42.671875 74.21875 48.875 69.140625 
Q 55.078125 64.0625 55.078125 55.328125 
Q 55.078125 49.078125 51.53125 44.71875 
Q 48 40.375 41.703125 38.8125 
Q 48.828125 37.15625 52.796875 32.3125 
Q 56.78125 27.484375 56.78125 20.515625 
Q 56.78125 9.90625 50.3125 4.234375 
Q 43.84375 -1.421875 31.78125 -1.421875 
Q 19.734375 -1.421875 13.25 4.234375 
Q 6.78125 9.90625 6.78125 20.515625 
Q 6.78125 27.484375 10.78125 32.3125 
Q 14.796875 37.15625 21.921875 38.8125 
z
M 18.3125 54.390625 
Q 18.3125 48.734375 21.84375 45.5625 
Q 25.390625 42.390625 31.78125 42.390625 
Q 38.140625 42.390625 41.71875 45.5625 
Q 45.3125 48.734375 45.3125 54.390625 
Q 45.3125 60.0625 41.71875 63.234375 
Q 38.140625 66.40625 31.78125 66.40625 
Q 25.390625 66.40625 21.84375 63.234375 
Q 18.3125 60.0625 18.3125 54.390625 
z
" id="DejaVuSans-56"/>
       </defs>
       <use xlink:href="#DejaVuSans-48"/>
       <use x="63.623047" xlink:href="#DejaVuSans-46"/>
       <use x="95.410156" xlink:href="#DejaVuSans-48"/>
       <use x="159.033203" xlink:href="#DejaVuSans-56"/>
      </g>
     </g>
    </g>
    <g id="xtick_6">
     <g id="line2d_6">
      <g>
       <use style="stroke:#000000;stroke-width:0.8;" x="196.045833" xlink:href="#mc444d8ad39" y="170.4"/>
      </g>
     </g>
     <g id="text_6">
      <!-- 0.10 -->
      <g transform="translate(184.913021 184.998437)scale(0.1 -0.1)">
       <defs>
        <path d="M 12.40625 8.296875 
L 28.515625 8.296875 
L 28.515625 63.921875 
L 10.984375 60.40625 
L 10.984375 69.390625 
L 28.421875 72.90625 
L 38.28125 72.90625 
L 38.28125 8.296875 
L 54.390625 8.296875 
L 54.390625 0 
L 12.40625 0 
z
" id="DejaVuSans-49"/>
       </defs>
       <use xlink:href="#DejaVuSans-48"/>
       <use x="63.623047" xlink:href="#DejaVuSans-46"/>
       <use x="95.410156" xlink:href="#DejaVuSans-49"/>
       <use x="159.033203" xlink:href="#DejaVuSans-48"/>
      </g>
     </g>
    </g>
    <g id="text_7">
     <!-- $\theta_0$ -->
     <g transform="translate(114.785417 198.676562)scale(0.1 -0.1)">
      <defs>
       <path d="M 45.515625 34.671875 
L 14.453125 34.671875 
Q 12.359375 20.0625 14.5 13.875 
Q 17.1875 6.25 24.46875 6.25 
Q 31.78125 6.25 37.359375 13.921875 
Q 42.234375 20.65625 45.515625 34.671875 
z
M 47.015625 42.96875 
Q 48.34375 56.84375 46.625 61.71875 
Q 43.953125 69.4375 36.765625 69.4375 
Q 29.296875 69.4375 23.828125 61.8125 
Q 19.53125 55.671875 16.15625 42.96875 
z
M 38.1875 76.765625 
Q 49.90625 76.765625 54.59375 66.40625 
Q 59.28125 56.109375 55.71875 37.84375 
Q 52.203125 19.625 43.453125 9.28125 
Q 34.765625 -1.125 23.046875 -1.125 
Q 11.28125 -1.125 6.640625 9.28125 
Q 2 19.625 5.515625 37.84375 
Q 9.078125 56.109375 17.71875 66.40625 
Q 26.421875 76.765625 38.1875 76.765625 
z
" id="DejaVuSans-Oblique-952"/>
      </defs>
      <use transform="translate(0 0.234375)" xlink:href="#DejaVuSans-Oblique-952"/>
      <use transform="translate(61.181641 -16.171875)scale(0.7)" xlink:href="#DejaVuSans-48"/>
     </g>
    </g>
   </g>
   <g id="matplotlib.axis_2">
    <g id="ytick_1">
     <g id="line2d_7">
      <defs>
       <path d="M 0 0 
L -3.5 0 
" id="ma6a31754b8" style="stroke:#000000;stroke-width:0.8;"/>
      </defs>
      <g>
       <use style="stroke:#000000;stroke-width:0.8;" x="44.425" xlink:href="#ma6a31754b8" y="164.315018"/>
      </g>
     </g>
     <g id="text_8">
      <!-- 0 -->
      <g transform="translate(31.0625 168.114237)scale(0.1 -0.1)">
       <use xlink:href="#DejaVuSans-48"/>
      </g>
     </g>
    </g>
    <g id="ytick_2">
     <g id="line2d_8">
      <g>
       <use style="stroke:#000000;stroke-width:0.8;" x="44.425" xlink:href="#ma6a31754b8" y="132.793589"/>
      </g>
     </g>
     <g id="text_9">
      <!-- 10 -->
      <g transform="translate(24.7 136.592808)scale(0.1 -0.1)">
       <use xlink:href="#DejaVuSans-49"/>
       <use x="63.623047" xlink:href="#DejaVuSans-48"/>
      </g>
     </g>
    </g>
    <g id="ytick_3">
     <g id="line2d_9">
      <g>
       <use style="stroke:#000000;stroke-width:0.8;" x="44.425" xlink:href="#ma6a31754b8" y="101.272159"/>
      </g>
     </g>
     <g id="text_10">
      <!-- 20 -->
      <g transform="translate(24.7 105.071378)scale(0.1 -0.1)">
       <use xlink:href="#DejaVuSans-50"/>
       <use x="63.623047" xlink:href="#DejaVuSans-48"/>
      </g>
     </g>
    </g>
    <g id="ytick_4">
     <g id="line2d_10">
      <g>
       <use style="stroke:#000000;stroke-width:0.8;" x="44.425" xlink:href="#ma6a31754b8" y="69.75073"/>
      </g>
     </g>
     <g id="text_11">
      <!-- 30 -->
      <g transform="translate(24.7 73.549949)scale(0.1 -0.1)">
       <defs>
        <path d="M 40.578125 39.3125 
Q 47.65625 37.796875 51.625 33 
Q 55.609375 28.21875 55.609375 21.1875 
Q 55.609375 10.40625 48.1875 4.484375 
Q 40.765625 -1.421875 27.09375 -1.421875 
Q 22.515625 -1.421875 17.65625 -0.515625 
Q 12.796875 0.390625 7.625 2.203125 
L 7.625 11.71875 
Q 11.71875 9.328125 16.59375 8.109375 
Q 21.484375 6.890625 26.8125 6.890625 
Q 36.078125 6.890625 40.9375 10.546875 
Q 45.796875 14.203125 45.796875 21.1875 
Q 45.796875 27.640625 41.28125 31.265625 
Q 36.765625 34.90625 28.71875 34.90625 
L 20.21875 34.90625 
L 20.21875 43.015625 
L 29.109375 43.015625 
Q 36.375 43.015625 40.234375 45.921875 
Q 44.09375 48.828125 44.09375 54.296875 
Q 44.09375 59.90625 40.109375 62.90625 
Q 36.140625 65.921875 28.71875 65.921875 
Q 24.65625 65.921875 20.015625 65.03125 
Q 15.375 64.15625 9.8125 62.3125 
L 9.8125 71.09375 
Q 15.4375 72.65625 20.34375 73.4375 
Q 25.25 74.21875 29.59375 74.21875 
Q 40.828125 74.21875 47.359375 69.109375 
Q 53.90625 64.015625 53.90625 55.328125 
Q 53.90625 49.265625 50.4375 45.09375 
Q 46.96875 40.921875 40.578125 39.3125 
z
" id="DejaVuSans-51"/>
       </defs>
       <use xlink:href="#DejaVuSans-51"/>
       <use x="63.623047" xlink:href="#DejaVuSans-48"/>
      </g>
     </g>
    </g>
    <g id="ytick_5">
     <g id="line2d_11">
      <g>
       <use style="stroke:#000000;stroke-width:0.8;" x="44.425" xlink:href="#ma6a31754b8" y="38.2293"/>
      </g>
     </g>
     <g id="text_12">
      <!-- 40 -->
      <g transform="translate(24.7 42.028519)scale(0.1 -0.1)">
       <use xlink:href="#DejaVuSans-52"/>
       <use x="63.623047" xlink:href="#DejaVuSans-48"/>
      </g>
     </g>
    </g>
    <g id="text_13">
     <!-- Posterior -->
     <g transform="translate(18.620313 125.558953)rotate(-90)scale(0.1 -0.1)">
      <defs>
       <path d="M 19.671875 64.796875 
L 19.671875 37.40625 
L 32.078125 37.40625 
Q 38.96875 37.40625 42.71875 40.96875 
Q 46.484375 44.53125 46.484375 51.125 
Q 46.484375 57.671875 42.71875 61.234375 
Q 38.96875 64.796875 32.078125 64.796875 
z
M 9.8125 72.90625 
L 32.078125 72.90625 
Q 44.34375 72.90625 50.609375 67.359375 
Q 56.890625 61.8125 56.890625 51.125 
Q 56.890625 40.328125 50.609375 34.8125 
Q 44.34375 29.296875 32.078125 29.296875 
L 19.671875 29.296875 
L 19.671875 0 
L 9.8125 0 
z
" id="DejaVuSans-80"/>
       <path d="M 30.609375 48.390625 
Q 23.390625 48.390625 19.1875 42.75 
Q 14.984375 37.109375 14.984375 27.296875 
Q 14.984375 17.484375 19.15625 11.84375 
Q 23.34375 6.203125 30.609375 6.203125 
Q 37.796875 6.203125 41.984375 11.859375 
Q 46.1875 17.53125 46.1875 27.296875 
Q 46.1875 37.015625 41.984375 42.703125 
Q 37.796875 48.390625 30.609375 48.390625 
z
M 30.609375 56 
Q 42.328125 56 49.015625 48.375 
Q 55.71875 40.765625 55.71875 27.296875 
Q 55.71875 13.875 49.015625 6.21875 
Q 42.328125 -1.421875 30.609375 -1.421875 
Q 18.84375 -1.421875 12.171875 6.21875 
Q 5.515625 13.875 5.515625 27.296875 
Q 5.515625 40.765625 12.171875 48.375 
Q 18.84375 56 30.609375 56 
z
" id="DejaVuSans-111"/>
       <path d="M 44.28125 53.078125 
L 44.28125 44.578125 
Q 40.484375 46.53125 36.375 47.5 
Q 32.28125 48.484375 27.875 48.484375 
Q 21.1875 48.484375 17.84375 46.4375 
Q 14.5 44.390625 14.5 40.28125 
Q 14.5 37.15625 16.890625 35.375 
Q 19.28125 33.59375 26.515625 31.984375 
L 29.59375 31.296875 
Q 39.15625 29.25 43.1875 25.515625 
Q 47.21875 21.78125 47.21875 15.09375 
Q 47.21875 7.46875 41.1875 3.015625 
Q 35.15625 -1.421875 24.609375 -1.421875 
Q 20.21875 -1.421875 15.453125 -0.5625 
Q 10.6875 0.296875 5.421875 2 
L 5.421875 11.28125 
Q 10.40625 8.6875 15.234375 7.390625 
Q 20.0625 6.109375 24.8125 6.109375 
Q 31.15625 6.109375 34.5625 8.28125 
Q 37.984375 10.453125 37.984375 14.40625 
Q 37.984375 18.0625 35.515625 20.015625 
Q 33.0625 21.96875 24.703125 23.78125 
L 21.578125 24.515625 
Q 13.234375 26.265625 9.515625 29.90625 
Q 5.8125 33.546875 5.8125 39.890625 
Q 5.8125 47.609375 11.28125 51.796875 
Q 16.75 56 26.8125 56 
Q 31.78125 56 36.171875 55.265625 
Q 40.578125 54.546875 44.28125 53.078125 
z
" id="DejaVuSans-115"/>
       <path d="M 18.3125 70.21875 
L 18.3125 54.6875 
L 36.8125 54.6875 
L 36.8125 47.703125 
L 18.3125 47.703125 
L 18.3125 18.015625 
Q 18.3125 11.328125 20.140625 9.421875 
Q 21.96875 7.515625 27.59375 7.515625 
L 36.8125 7.515625 
L 36.8125 0 
L 27.59375 0 
Q 17.1875 0 13.234375 3.875 
Q 9.28125 7.765625 9.28125 18.015625 
L 9.28125 47.703125 
L 2.6875 47.703125 
L 2.6875 54.6875 
L 9.28125 54.6875 
L 9.28125 70.21875 
z
" id="DejaVuSans-116"/>
       <path d="M 56.203125 29.59375 
L 56.203125 25.203125 
L 14.890625 25.203125 
Q 15.484375 15.921875 20.484375 11.0625 
Q 25.484375 6.203125 34.421875 6.203125 
Q 39.59375 6.203125 44.453125 7.46875 
Q 49.3125 8.734375 54.109375 11.28125 
L 54.109375 2.78125 
Q 49.265625 0.734375 44.1875 -0.34375 
Q 39.109375 -1.421875 33.890625 -1.421875 
Q 20.796875 -1.421875 13.15625 6.1875 
Q 5.515625 13.8125 5.515625 26.8125 
Q 5.515625 40.234375 12.765625 48.109375 
Q 20.015625 56 32.328125 56 
Q 43.359375 56 49.78125 48.890625 
Q 56.203125 41.796875 56.203125 29.59375 
z
M 47.21875 32.234375 
Q 47.125 39.59375 43.09375 43.984375 
Q 39.0625 48.390625 32.421875 48.390625 
Q 24.90625 48.390625 20.390625 44.140625 
Q 15.875 39.890625 15.1875 32.171875 
z
" id="DejaVuSans-101"/>
       <path d="M 41.109375 46.296875 
Q 39.59375 47.171875 37.8125 47.578125 
Q 36.03125 48 33.890625 48 
Q 26.265625 48 22.1875 43.046875 
Q 18.109375 38.09375 18.109375 28.8125 
L 18.109375 0 
L 9.078125 0 
L 9.078125 54.6875 
L 18.109375 54.6875 
L 18.109375 46.1875 
Q 20.953125 51.171875 25.484375 53.578125 
Q 30.03125 56 36.53125 56 
Q 37.453125 56 38.578125 55.875 
Q 39.703125 55.765625 41.0625 55.515625 
z
" id="DejaVuSans-114"/>
       <path d="M 9.421875 54.6875 
L 18.40625 54.6875 
L 18.40625 0 
L 9.421875 0 
z
M 9.421875 75.984375 
L 18.40625 75.984375 
L 18.40625 64.59375 
L 9.421875 64.59375 
z
" id="DejaVuSans-105"/>
      </defs>
      <use xlink:href="#DejaVuSans-80"/>
      <use x="56.677734" xlink:href="#DejaVuSans-111"/>
      <use x="117.859375" xlink:href="#DejaVuSans-115"/>
      <use x="169.958984" xlink:href="#DejaVuSans-116"/>
      <use x="209.167969" xlink:href="#DejaVuSans-101"/>
      <use x="270.691406" xlink:href="#DejaVuSans-114"/>
      <use x="311.804688" xlink:href="#DejaVuSans-105"/>
      <use x="339.587891" xlink:href="#DejaVuSans-111"/>
      <use x="400.769531" xlink:href="#DejaVuSans-114"/>
     </g>
    </g>
   </g>
   <g id="line2d_12">
    <path clip-path="url(#p75ddffd18d)" d="M 44.425 152.428271 
L 47.974652 147.677628 
L 52.538489 141.564096 
L 55.073955 138.512268 
L 57.102327 136.362514 
L 59.1307 134.51603 
L 61.159072 132.988455 
L 63.187444 131.768818 
L 65.215817 130.818048 
L 67.751282 129.906971 
L 75.864771 127.260648 
L 78.90733 125.856684 
L 82.964075 123.682095 
L 87.527912 121.297044 
L 90.570471 119.978137 
L 93.61303 118.932836 
L 96.655588 118.127603 
L 100.20524 117.412504 
L 104.769077 116.73942 
L 109.332915 116.28405 
L 113.896753 116.052324 
L 117.446405 116.098039 
L 120.488963 116.386547 
L 123.024429 116.860787 
L 125.559894 117.572691 
L 128.09536 118.512872 
L 131.137918 119.888375 
L 134.68757 121.736504 
L 138.237221 123.803101 
L 141.27978 125.806186 
L 143.815245 127.708754 
L 146.350711 129.867863 
L 149.393269 132.799277 
L 152.942921 136.573901 
L 159.535131 143.675635 
L 162.57769 146.58524 
L 165.113155 148.72761 
L 167.64862 150.608931 
L 170.691179 152.558133 
L 173.733737 154.235159 
L 177.283389 155.944234 
L 182.35432 158.112191 
L 187.932344 160.277821 
L 191.989089 161.649544 
L 195.53874 162.618651 
L 196.045833 162.73633 
L 196.045833 162.73633 
" style="fill:none;stroke:#1f77b4;stroke-linecap:square;stroke-width:1.5;"/>
   </g>
   <g id="line2d_13">
    <path clip-path="url(#p75ddffd18d)" d="M 105.073333 170.4 
L 105.073333 36.530405 
" style="fill:none;stroke:#808080;stroke-dasharray:1.5,2.475;stroke-dashoffset:0;stroke-width:1.5;"/>
   </g>
   <g id="line2d_14">
    <path clip-path="url(#p75ddffd18d)" d="M 44.425 154.661744 
L 49.495931 148.775672 
L 59.1307 137.514023 
L 62.173258 133.4072 
L 70.286747 122.125675 
L 72.31512 119.783008 
L 74.343492 117.767071 
L 76.371865 116.081103 
L 78.400237 114.698822 
L 80.428609 113.576731 
L 82.964075 112.465093 
L 85.49954 111.593727 
L 89.049192 110.642006 
L 95.134309 109.325819 
L 101.726519 107.782455 
L 104.769077 107.173335 
L 106.79745 106.960895 
L 108.825822 106.991665 
L 110.347101 107.208057 
L 111.868381 107.604545 
L 113.38966 108.183731 
L 115.418032 109.229646 
L 117.446405 110.561371 
L 119.474777 112.141889 
L 122.010242 114.409746 
L 125.052801 117.47145 
L 128.602453 121.383131 
L 139.758501 134.035987 
L 142.293966 136.478892 
L 144.829431 138.656617 
L 148.379083 141.372962 
L 154.971293 146.317011 
L 160.042224 150.516212 
L 164.098969 153.802972 
L 167.141527 155.972716 
L 169.676993 157.512634 
L 172.212458 158.8083 
L 175.255017 160.090738 
L 178.804668 161.310089 
L 182.35432 162.307958 
L 185.903972 163.097119 
L 189.453623 163.661949 
L 193.003275 164.011852 
L 196.045833 164.176574 
L 196.045833 164.176574 
" style="fill:none;stroke:#ff7f0e;stroke-linecap:square;stroke-width:1.5;"/>
   </g>
   <g id="line2d_15">
    <path clip-path="url(#p75ddffd18d)" d="M 105.073333 170.4 
L 105.073333 36.530405 
" style="fill:none;stroke:#808080;stroke-dasharray:1.5,2.475;stroke-dashoffset:0;stroke-width:1.5;"/>
   </g>
   <g id="line2d_16">
    <path clip-path="url(#p75ddffd18d)" d="M 44.425 160.103838 
L 48.988838 157.382778 
L 52.538489 155.093713 
L 55.073955 153.206163 
L 57.102327 151.442318 
L 59.1307 149.418914 
L 61.666165 146.561827 
L 65.72291 141.54838 
L 70.286747 135.580582 
L 72.822213 131.864347 
L 74.850585 128.509123 
L 77.386051 123.837023 
L 82.964075 113.229679 
L 85.49954 109.040779 
L 88.542099 104.517537 
L 96.148495 93.612955 
L 97.669774 91.883109 
L 99.191054 90.544758 
L 100.20524 89.898143 
L 101.219426 89.451356 
L 102.233612 89.195548 
L 103.247798 89.114157 
L 104.769077 89.273359 
L 106.290357 89.709032 
L 107.811636 90.370922 
L 109.332915 91.236765 
L 110.854195 92.306885 
L 112.375474 93.588864 
L 114.403846 95.62164 
L 116.939312 98.590041 
L 120.488963 103.179269 
L 125.052801 109.426731 
L 128.09536 113.939674 
L 133.16629 121.974694 
L 137.223035 128.225715 
L 143.308152 137.060591 
L 150.407455 147.130649 
L 152.942921 150.347276 
L 155.478386 153.185671 
L 157.506759 155.146513 
L 159.535131 156.820368 
L 161.563503 158.212379 
L 163.591876 159.343251 
L 165.620248 160.247369 
L 168.155713 161.123595 
L 171.198272 161.914085 
L 175.255017 162.722604 
L 180.325948 163.529413 
L 184.382692 163.977046 
L 188.439437 164.209326 
L 194.524554 164.305509 
L 196.045833 164.310442 
L 196.045833 164.310442 
" style="fill:none;stroke:#2ca02c;stroke-linecap:square;stroke-width:1.5;"/>
   </g>
   <g id="line2d_17">
    <path clip-path="url(#p75ddffd18d)" d="M 105.073333 170.4 
L 105.073333 36.530405 
" style="fill:none;stroke:#808080;stroke-dasharray:1.5,2.475;stroke-dashoffset:0;stroke-width:1.5;"/>
   </g>
   <g id="line2d_18">
    <path clip-path="url(#p75ddffd18d)" d="M 44.425 163.489698 
L 46.453372 162.929644 
L 48.481745 162.149807 
L 50.510117 161.12793 
L 52.538489 159.844803 
L 54.566862 158.274912 
L 56.595234 156.381217 
L 58.623606 154.120931 
L 60.651979 151.466007 
L 62.680351 148.432269 
L 65.215817 144.229685 
L 70.793841 134.382581 
L 75.357678 126.000971 
L 83.471168 110.762419 
L 97.162681 86.89677 
L 98.68396 84.740388 
L 100.20524 83.029261 
L 101.219426 82.171993 
L 102.233612 81.549063 
L 103.247798 81.153155 
L 104.261984 80.967066 
L 105.276171 80.967492 
L 106.79745 81.264082 
L 108.318729 81.856671 
L 109.840008 82.713106 
L 111.361288 83.841862 
L 112.882567 85.277778 
L 114.403846 87.056406 
L 115.925125 89.188151 
L 117.953498 92.520822 
L 120.488963 97.207888 
L 129.616639 114.883552 
L 132.152104 120.478809 
L 136.208849 130.179696 
L 139.251407 137.179492 
L 141.27978 141.362089 
L 143.308152 145.060522 
L 145.336525 148.241849 
L 146.857804 150.273496 
L 148.379083 151.995129 
L 149.900362 153.415716 
L 151.421642 154.56561 
L 153.450014 155.769734 
L 155.985479 156.967322 
L 162.070596 159.740089 
L 167.141527 162.130584 
L 169.676993 163.05605 
L 171.705365 163.584994 
L 174.240831 163.994352 
L 177.283389 164.219127 
L 182.35432 164.30769 
L 196.045833 164.315018 
L 196.045833 164.315018 
" style="fill:none;stroke:#d62728;stroke-linecap:square;stroke-width:1.5;"/>
   </g>
   <g id="line2d_19">
    <path clip-path="url(#p75ddffd18d)" d="M 105.073333 170.4 
L 105.073333 36.530405 
" style="fill:none;stroke:#808080;stroke-dasharray:1.5,2.475;stroke-dashoffset:0;stroke-width:1.5;"/>
   </g>
   <g id="line2d_20">
    <path clip-path="url(#p75ddffd18d)" d="M 44.425 164.27055 
L 47.974652 164.076626 
L 50.003024 163.775816 
L 51.524303 163.383238 
L 53.045582 162.788794 
L 54.566862 161.940093 
L 56.088141 160.795317 
L 57.60942 159.33272 
L 59.1307 157.556517 
L 61.159072 154.753689 
L 63.187444 151.555425 
L 65.72291 147.144625 
L 68.258375 142.317911 
L 70.793841 137.014219 
L 73.836399 130.060529 
L 79.414423 117.123615 
L 82.456982 110.70776 
L 86.006633 103.816674 
L 90.570471 95.078174 
L 93.105936 89.652088 
L 98.68396 77.245837 
L 100.20524 74.702752 
L 101.219426 73.410927 
L 102.233612 72.480482 
L 103.247798 71.924893 
L 104.261984 71.742552 
L 105.276171 71.920292 
L 106.290357 72.436984 
L 107.304543 73.266315 
L 108.318729 74.378349 
L 109.840008 76.503498 
L 111.361288 79.067007 
L 113.38966 82.943844 
L 116.939312 90.334916 
L 119.98187 97.163537 
L 122.010242 102.195064 
L 124.545708 109.100392 
L 128.602453 120.353039 
L 130.123732 124.045246 
L 131.645011 127.213124 
L 133.16629 129.806147 
L 134.68757 131.864347 
L 136.208849 133.506297 
L 138.744314 135.783387 
L 140.772687 137.655866 
L 142.293966 139.294307 
L 143.815245 141.203256 
L 145.843618 144.160063 
L 148.886176 149.149576 
L 151.928735 154.048693 
L 153.957107 156.87059 
L 155.478386 158.655012 
L 156.999666 160.137214 
L 158.520945 161.328114 
L 160.042224 162.253739 
L 161.563503 162.947933 
L 163.591876 163.577937 
L 165.620248 163.952046 
L 168.155713 164.185166 
L 172.212458 164.297569 
L 186.918158 164.315018 
L 196.045833 164.315018 
L 196.045833 164.315018 
" style="fill:none;stroke:#9467bd;stroke-linecap:square;stroke-width:1.5;"/>
   </g>
   <g id="line2d_21">
    <path clip-path="url(#p75ddffd18d)" d="M 105.073333 170.4 
L 105.073333 36.530405 
" style="fill:none;stroke:#808080;stroke-dasharray:1.5,2.475;stroke-dashoffset:0;stroke-width:1.5;"/>
   </g>
   <g id="line2d_22">
    <path clip-path="url(#p75ddffd18d)" d="M 44.425 164.314752 
L 52.538489 164.225399 
L 55.073955 163.975467 
L 56.595234 163.63577 
L 58.116513 163.056604 
L 59.637793 162.149927 
L 60.651979 161.326685 
L 62.173258 159.734328 
L 63.694537 157.72276 
L 65.215817 155.353259 
L 67.244189 151.798084 
L 69.779654 146.938521 
L 71.808027 142.668163 
L 73.836399 137.817374 
L 75.864771 132.201599 
L 77.893144 125.883269 
L 83.471168 107.914161 
L 85.49954 102.171992 
L 88.542099 94.316666 
L 91.584657 86.306712 
L 95.641402 75.169058 
L 96.655588 72.840156 
L 97.669774 70.934167 
L 98.68396 69.538984 
L 99.698147 68.695179 
L 100.20524 68.477921 
L 100.712333 68.38936 
L 101.726519 68.558559 
L 102.740705 69.10457 
L 103.754891 69.914632 
L 105.783264 71.930781 
L 108.825822 75.274771 
L 110.854195 77.861213 
L 112.375474 80.142052 
L 114.403846 83.59859 
L 122.517336 98.314963 
L 125.052801 103.575334 
L 133.673384 122.669782 
L 136.715942 130.072459 
L 140.265594 138.665408 
L 142.293966 142.964933 
L 144.322338 146.746176 
L 147.364897 151.89438 
L 150.407455 156.704408 
L 151.928735 158.813975 
L 153.450014 160.581509 
L 154.971293 161.947114 
L 156.492572 162.916083 
L 158.013852 163.546757 
L 159.535131 163.923367 
L 161.563503 164.173186 
L 164.606062 164.291066 
L 174.747924 164.315012 
L 196.045833 164.315018 
L 196.045833 164.315018 
" style="fill:none;stroke:#8c564b;stroke-linecap:square;stroke-width:1.5;"/>
   </g>
   <g id="line2d_23">
    <path clip-path="url(#p75ddffd18d)" d="M 105.073333 170.4 
L 105.073333 36.530405 
" style="fill:none;stroke:#808080;stroke-dasharray:1.5,2.475;stroke-dashoffset:0;stroke-width:1.5;"/>
   </g>
   <g id="line2d_24">
    <path clip-path="url(#p75ddffd18d)" d="M 44.425 164.285376 
L 49.495931 164.125048 
L 52.538489 163.812555 
L 54.566862 163.408486 
L 56.595234 162.753433 
L 58.116513 162.036672 
L 59.637793 161.074851 
L 61.159072 159.821984 
L 62.680351 158.237761 
L 64.20163 156.292827 
L 65.72291 153.973668 
L 67.244189 151.286046 
L 69.272561 147.177221 
L 71.808027 141.360435 
L 75.357678 132.457743 
L 84.992447 107.325255 
L 91.077564 91.407837 
L 93.105936 86.645797 
L 94.627216 83.492895 
L 96.148495 80.814633 
L 97.669774 78.699372 
L 98.68396 77.634668 
L 99.698147 76.86065 
L 100.712333 76.382416 
L 101.726519 76.198712 
L 102.740705 76.302321 
L 103.754891 76.680717 
L 104.769077 77.316932 
L 105.783264 78.190541 
L 107.304543 79.895673 
L 108.825822 82.00108 
L 110.854195 85.288813 
L 113.38966 89.921333 
L 117.446405 97.910718 
L 128.09536 119.048372 
L 134.180477 130.690597 
L 136.715942 135.125916 
L 138.744314 138.221386 
L 140.265594 140.14623 
L 141.786873 141.640115 
L 142.801059 142.366335 
L 143.815245 142.866123 
L 144.829431 143.141173 
L 145.843618 143.204391 
L 146.857804 143.080502 
L 148.379083 142.625888 
L 152.435828 141.089838 
L 153.450014 140.94353 
L 154.4642 140.992754 
L 155.478386 141.270259 
L 156.492572 141.79468 
L 157.506759 142.569536 
L 158.520945 143.583442 
L 160.042224 145.494898 
L 162.070596 148.562799 
L 166.634434 155.790891 
L 168.155713 157.820764 
L 169.676993 159.532802 
L 171.198272 160.911763 
L 172.719551 161.974636 
L 174.240831 162.759842 
L 175.76211 163.316505 
L 177.790482 163.790747 
L 180.325948 164.100014 
L 183.875599 164.262453 
L 191.481996 164.313653 
L 196.045833 164.314917 
L 196.045833 164.314917 
" style="fill:none;stroke:#e377c2;stroke-linecap:square;stroke-width:1.5;"/>
   </g>
   <g id="line2d_25">
    <path clip-path="url(#p75ddffd18d)" d="M 105.073333 170.4 
L 105.073333 36.530405 
" style="fill:none;stroke:#808080;stroke-dasharray:1.5,2.475;stroke-dashoffset:0;stroke-width:1.5;"/>
   </g>
   <g id="line2d_26">
    <path clip-path="url(#p75ddffd18d)" d="M 44.425 164.307276 
L 48.988838 164.176715 
L 51.01721 163.929797 
L 52.538489 163.563559 
L 54.059769 162.965709 
L 55.581048 162.077179 
L 57.102327 160.87174 
L 58.623606 159.372571 
L 60.651979 157.046278 
L 69.272561 146.490202 
L 70.793841 144.250405 
L 72.31512 141.625355 
L 73.836399 138.541528 
L 75.357678 134.996698 
L 77.386051 129.695596 
L 83.978261 111.316862 
L 86.006633 105.221749 
L 87.527912 100.060342 
L 89.556285 92.225724 
L 95.641402 67.310961 
L 97.162681 62.665795 
L 98.176867 60.259441 
L 99.191054 58.47347 
L 100.20524 57.336601 
L 100.712333 57.011595 
L 101.219426 56.844324 
L 101.726519 56.828452 
L 102.233612 56.955407 
L 103.247798 57.59369 
L 104.261984 58.656299 
L 105.783264 60.792917 
L 108.318729 64.973913 
L 111.868381 71.129856 
L 113.38966 74.092071 
L 114.910939 77.477324 
L 116.432219 81.393273 
L 117.953498 85.86059 
L 119.98187 92.539806 
L 124.038615 107.039718 
L 128.09536 121.293091 
L 130.630825 129.595987 
L 132.659197 135.516303 
L 134.180477 139.313727 
L 135.701756 142.449071 
L 137.223035 144.910086 
L 138.744314 146.781781 
L 140.265594 148.231179 
L 146.857804 153.862551 
L 150.914548 157.689581 
L 152.942921 159.328659 
L 154.971293 160.737066 
L 156.999666 161.920466 
L 159.028038 162.85865 
L 161.05641 163.528269 
L 163.084783 163.94388 
L 165.620248 164.197139 
L 169.676993 164.30372 
L 188.439437 164.315018 
L 196.045833 164.315018 
L 196.045833 164.315018 
" style="fill:none;stroke:#7f7f7f;stroke-linecap:square;stroke-width:1.5;"/>
   </g>
   <g id="line2d_27">
    <path clip-path="url(#p75ddffd18d)" d="M 105.073333 170.4 
L 105.073333 36.530405 
" style="fill:none;stroke:#808080;stroke-dasharray:1.5,2.475;stroke-dashoffset:0;stroke-width:1.5;"/>
   </g>
   <g id="line2d_28">
    <path clip-path="url(#p75ddffd18d)" d="M 44.425 164.315011 
L 55.581048 164.225987 
L 57.60942 164.025541 
L 59.1307 163.682058 
L 60.144886 163.298117 
L 61.159072 162.741007 
L 62.173258 161.966265 
L 63.187444 160.933928 
L 64.20163 159.616303 
L 65.215817 158.006062 
L 66.737096 155.092799 
L 69.272561 149.444571 
L 71.808027 143.968812 
L 73.836399 140.21299 
L 76.371865 135.681331 
L 77.893144 132.456298 
L 79.414423 128.569876 
L 80.935702 124.042275 
L 83.471168 115.629363 
L 87.527912 101.359823 
L 90.570471 89.741329 
L 93.105936 80.146458 
L 94.627216 75.176175 
L 95.641402 72.413616 
L 96.655588 70.16731 
L 97.669774 68.457595 
L 98.68396 67.265317 
L 99.698147 66.536058 
L 100.712333 66.186306 
L 101.726519 66.110597 
L 105.276171 66.289812 
L 106.290357 66.047948 
L 107.304543 65.584401 
L 108.825822 64.556486 
L 110.854195 63.130799 
L 111.868381 62.737727 
L 112.375474 62.692096 
L 112.882567 62.771246 
L 113.38966 62.990562 
L 113.896753 63.362656 
L 114.403846 63.897015 
L 115.418032 65.473523 
L 116.432219 67.72732 
L 117.446405 70.612332 
L 118.967684 75.91496 
L 120.996056 84.132458 
L 127.081173 109.47005 
L 130.123732 121.315568 
L 132.152104 128.430581 
L 133.673384 133.007471 
L 135.194663 136.780686 
L 136.715942 139.761482 
L 138.237221 142.115031 
L 143.815245 149.899463 
L 146.857804 155.246876 
L 148.886176 158.563571 
L 150.407455 160.569995 
L 151.421642 161.623589 
L 152.435828 162.45082 
L 153.450014 163.071912 
L 154.971293 163.685991 
L 156.492572 164.024321 
L 158.520945 164.225222 
L 162.070596 164.307421 
L 185.903972 164.315018 
L 196.045833 164.315018 
L 196.045833 164.315018 
" style="fill:none;stroke:#bcbd22;stroke-linecap:square;stroke-width:1.5;"/>
   </g>
   <g id="line2d_29">
    <path clip-path="url(#p75ddffd18d)" d="M 105.073333 170.4 
L 105.073333 36.530405 
" style="fill:none;stroke:#808080;stroke-dasharray:1.5,2.475;stroke-dashoffset:0;stroke-width:1.5;"/>
   </g>
   <g id="line2d_30">
    <path clip-path="url(#p75ddffd18d)" d="M 44.425 164.314839 
L 53.045582 164.212746 
L 55.581048 163.942133 
L 57.102327 163.591351 
L 58.623606 163.016188 
L 60.144886 162.144774 
L 61.666165 160.914231 
L 63.187444 159.280789 
L 64.708724 157.228984 
L 66.230003 154.780791 
L 68.258375 151.015795 
L 71.300934 144.735548 
L 73.836399 139.061545 
L 75.864771 133.887535 
L 77.386051 129.399499 
L 79.414423 122.53037 
L 82.456982 111.062891 
L 85.49954 99.898471 
L 88.035006 91.505835 
L 94.120123 72.561724 
L 96.148495 66.827678 
L 97.669774 63.158642 
L 98.68396 61.115304 
L 99.698147 59.444461 
L 100.712333 58.183019 
L 101.726519 57.364583 
L 102.740705 57.018898 
L 103.247798 57.030756 
L 103.754891 57.168326 
L 104.261984 57.432362 
L 105.276171 58.337057 
L 106.290357 59.726463 
L 107.304543 61.561557 
L 108.825822 65.021126 
L 110.347101 69.110676 
L 113.896753 79.645889 
L 116.432219 86.758876 
L 118.460591 91.68259 
L 120.488963 95.950162 
L 124.038615 103.199801 
L 125.559894 106.883805 
L 127.081173 111.146357 
L 129.109546 117.616934 
L 133.16629 130.935898 
L 135.194663 136.620172 
L 137.223035 141.500139 
L 139.251407 145.776858 
L 141.27978 149.549941 
L 143.308152 152.771596 
L 144.829431 154.811099 
L 146.857804 157.115903 
L 148.886176 159.097203 
L 150.914548 160.824559 
L 152.942921 162.232983 
L 154.4642 163.024635 
L 155.985479 163.581311 
L 157.506759 163.93415 
L 159.535131 164.17786 
L 162.57769 164.293582 
L 173.226644 164.315017 
L 196.045833 164.315018 
L 196.045833 164.315018 
" style="fill:none;stroke:#17becf;stroke-linecap:square;stroke-width:1.5;"/>
   </g>
   <g id="line2d_31">
    <path clip-path="url(#p75ddffd18d)" d="M 105.073333 170.4 
L 105.073333 36.530405 
" style="fill:none;stroke:#808080;stroke-dasharray:1.5,2.475;stroke-dashoffset:0;stroke-width:1.5;"/>
   </g>
   <g id="line2d_32">
    <path clip-path="url(#p75ddffd18d)" d="M 44.425 164.314624 
L 52.031396 164.206092 
L 54.059769 163.989543 
L 55.581048 163.643665 
L 57.102327 163.033533 
L 58.116513 162.422864 
L 59.1307 161.610095 
L 60.144886 160.57059 
L 61.666165 158.574648 
L 63.187444 156.13494 
L 66.737096 150.095324 
L 68.258375 148.001341 
L 69.779654 146.312925 
L 73.329306 142.657267 
L 74.850585 140.568527 
L 76.371865 137.930692 
L 77.893144 134.648142 
L 79.414423 130.606578 
L 80.935702 125.699018 
L 82.456982 119.922968 
L 84.485354 111.214585 
L 88.035006 95.644516 
L 90.063378 87.704695 
L 92.09175 80.664001 
L 94.120123 74.509986 
L 95.641402 70.530926 
L 97.162681 67.145818 
L 98.68396 64.344685 
L 100.20524 62.059581 
L 101.726519 60.197455 
L 103.247798 58.677509 
L 104.769077 57.452997 
L 106.290357 56.528066 
L 107.304543 56.113611 
L 108.318729 55.913115 
L 109.332915 55.991422 
L 110.347101 56.42405 
L 111.361288 57.285898 
L 112.375474 58.638574 
L 113.38966 60.519929 
L 114.403846 62.938427 
L 115.418032 65.872937 
L 116.939312 71.134228 
L 118.967684 79.36719 
L 125.559894 107.53693 
L 127.588266 114.695665 
L 130.123732 122.671146 
L 134.180477 135.233274 
L 138.744314 149.664215 
L 140.265594 153.73408 
L 141.786873 157.098692 
L 142.801059 158.911652 
L 143.815245 160.38483 
L 144.829431 161.542101 
L 145.843618 162.420029 
L 146.857804 163.062455 
L 148.379083 163.684614 
L 149.900362 164.022907 
L 151.928735 164.22356 
L 155.478386 164.306954 
L 178.297575 164.315018 
L 196.045833 164.315018 
L 196.045833 164.315018 
" style="fill:none;stroke:#1f77b4;stroke-linecap:square;stroke-width:1.5;"/>
   </g>
   <g id="line2d_33">
    <path clip-path="url(#p75ddffd18d)" d="M 105.073333 170.4 
L 105.073333 36.530405 
" style="fill:none;stroke:#808080;stroke-dasharray:1.5,2.475;stroke-dashoffset:0;stroke-width:1.5;"/>
   </g>
   <g id="line2d_34">
    <path clip-path="url(#p75ddffd18d)" d="M 44.425 164.314406 
L 51.01721 164.218854 
L 53.045582 164.008831 
L 54.566862 163.66857 
L 56.088141 163.083042 
L 57.60942 162.190689 
L 59.1307 160.987918 
L 61.159072 159.045808 
L 65.215817 155.109925 
L 67.244189 153.133882 
L 68.765468 151.30807 
L 69.779654 149.802619 
L 70.793841 148.014222 
L 72.31512 144.770253 
L 73.836399 140.897572 
L 75.864771 134.972594 
L 78.90733 125.130574 
L 86.513726 100.007232 
L 88.542099 94.277814 
L 90.063378 90.553407 
L 91.584657 87.308396 
L 96.148495 78.192267 
L 97.669774 74.506094 
L 100.712333 66.281532 
L 102.233612 62.392915 
L 103.754891 59.123239 
L 104.769077 57.410519 
L 105.783264 56.120436 
L 106.79745 55.269555 
L 107.811636 54.858819 
L 108.825822 54.881497 
L 109.840008 55.330866 
L 110.854195 56.205989 
L 111.868381 57.514182 
L 112.882567 59.269387 
L 113.896753 61.486607 
L 114.910939 64.173733 
L 116.432219 69.062334 
L 117.953498 74.861532 
L 119.98187 83.573985 
L 124.038615 101.392314 
L 126.066987 109.247805 
L 128.09536 116.224816 
L 134.180477 135.643146 
L 136.208849 141.741231 
L 137.730128 145.765503 
L 139.251407 149.220417 
L 140.772687 152.168093 
L 142.801059 155.527118 
L 144.829431 158.399367 
L 146.350711 160.213982 
L 147.87199 161.673501 
L 149.393269 162.748414 
L 150.914548 163.46497 
L 152.435828 163.894896 
L 154.4642 164.173794 
L 157.506759 164.295276 
L 168.155713 164.315018 
L 196.045833 164.315018 
L 196.045833 164.315018 
" style="fill:none;stroke:#ff7f0e;stroke-linecap:square;stroke-width:1.5;"/>
   </g>
   <g id="line2d_35">
    <path clip-path="url(#p75ddffd18d)" d="M 105.073333 170.4 
L 105.073333 36.530405 
" style="fill:none;stroke:#808080;stroke-dasharray:1.5,2.475;stroke-dashoffset:0;stroke-width:1.5;"/>
   </g>
   <g id="line2d_36">
    <path clip-path="url(#p75ddffd18d)" d="M 44.425 164.314719 
L 51.524303 164.21586 
L 53.552676 163.978635 
L 55.073955 163.574064 
L 56.088141 163.1335 
L 57.102327 162.518407 
L 58.116513 161.708711 
L 59.637793 160.139902 
L 64.708724 154.290752 
L 65.72291 153.581816 
L 66.737096 153.089135 
L 68.765468 152.47533 
L 70.286747 151.927912 
L 71.300934 151.31717 
L 72.31512 150.404129 
L 73.329306 149.119506 
L 74.343492 147.410192 
L 75.357678 145.235569 
L 76.371865 142.566568 
L 77.386051 139.389136 
L 78.90733 133.695528 
L 80.428609 127.043758 
L 86.513726 98.698671 
L 88.035006 92.970373 
L 90.063378 86.377008 
L 92.598843 79.119489 
L 96.655588 67.671513 
L 99.698147 58.234605 
L 102.233612 50.365825 
L 103.754891 46.405688 
L 104.769077 44.411386 
L 105.783264 43.110506 
L 106.290357 42.757167 
L 106.79745 42.615387 
L 107.304543 42.690687 
L 107.811636 42.984732 
L 108.318729 43.495407 
L 108.825822 44.217074 
L 109.840008 46.255813 
L 110.854195 49.003679 
L 111.868381 52.341623 
L 113.38966 58.186732 
L 115.418032 66.963055 
L 120.996056 91.692481 
L 125.052801 109.017616 
L 128.09536 123.385487 
L 130.123732 132.634284 
L 131.645011 138.613935 
L 133.16629 143.503285 
L 134.68757 147.355867 
L 136.208849 150.377851 
L 137.730128 152.754707 
L 138.744314 154.022193 
L 139.758501 155.040243 
L 140.772687 155.814274 
L 141.786873 156.369295 
L 143.308152 156.913511 
L 145.843618 157.726396 
L 147.364897 158.52413 
L 148.886176 159.605682 
L 152.435828 162.315303 
L 153.957107 163.151027 
L 155.478386 163.706716 
L 156.999666 164.029853 
L 159.028038 164.227384 
L 162.57769 164.308057 
L 187.932344 164.315018 
L 196.045833 164.315018 
L 196.045833 164.315018 
" style="fill:none;stroke:#2ca02c;stroke-linecap:square;stroke-width:1.5;"/>
   </g>
   <g id="line2d_37">
    <path clip-path="url(#p75ddffd18d)" d="M 105.073333 170.4 
L 105.073333 36.530405 
" style="fill:none;stroke:#808080;stroke-dasharray:1.5,2.475;stroke-dashoffset:0;stroke-width:1.5;"/>
   </g>
   <g id="line2d_38">
    <path clip-path="url(#p75ddffd18d)" d="M 44.425 164.314882 
L 53.045582 164.217393 
L 55.073955 164.003823 
L 56.595234 163.635276 
L 57.60942 163.217277 
L 58.623606 162.600429 
L 59.637793 161.725668 
L 60.651979 160.535674 
L 61.666165 158.985828 
L 62.680351 157.057402 
L 64.20163 153.510508 
L 66.737096 146.625521 
L 68.258375 142.684117 
L 69.779654 139.414797 
L 70.793841 137.696457 
L 71.808027 136.312887 
L 73.329306 134.648211 
L 75.357678 132.480653 
L 76.371865 131.118665 
L 77.386051 129.432929 
L 78.400237 127.35737 
L 79.414423 124.856611 
L 80.935702 120.303744 
L 82.456982 114.891045 
L 84.485354 106.761665 
L 88.542099 90.209413 
L 90.570471 82.781079 
L 92.598843 76.039937 
L 94.627216 70.011465 
L 96.148495 66.062981 
L 97.669774 62.691197 
L 99.191054 59.883313 
L 100.712333 57.511823 
L 102.740705 54.736872 
L 104.261984 52.884988 
L 105.276171 51.862682 
L 106.290357 51.151599 
L 106.79745 50.959841 
L 107.304543 50.902897 
L 107.811636 50.998534 
L 108.318729 51.262177 
L 108.825822 51.706069 
L 109.332915 52.338598 
L 110.347101 54.181473 
L 111.361288 56.770387 
L 112.375474 60.020737 
L 113.896753 65.844939 
L 116.432219 76.875365 
L 123.531522 108.278382 
L 126.066987 118.583409 
L 128.09536 125.780676 
L 130.123732 131.949696 
L 132.152104 137.37258 
L 135.701756 146.144731 
L 138.744314 153.172976 
L 140.265594 156.23557 
L 141.786873 158.806195 
L 142.801059 160.204046 
L 143.815245 161.343239 
L 144.829431 162.236951 
L 145.843618 162.911137 
L 147.364897 163.586028 
L 148.886176 163.966739 
L 150.914548 164.201305 
L 154.4642 164.304111 
L 172.212458 164.315018 
L 196.045833 164.315018 
L 196.045833 164.315018 
" style="fill:none;stroke:#d62728;stroke-linecap:square;stroke-width:1.5;"/>
   </g>
   <g id="line2d_39">
    <path clip-path="url(#p75ddffd18d)" d="M 105.073333 170.4 
L 105.073333 36.530405 
" style="fill:none;stroke:#808080;stroke-dasharray:1.5,2.475;stroke-dashoffset:0;stroke-width:1.5;"/>
   </g>
   <g id="patch_3">
    <path d="M 44.425 170.4 
L 44.425 36.530405 
" style="fill:none;stroke:#000000;stroke-linecap:square;stroke-linejoin:miter;stroke-width:0.8;"/>
   </g>
   <g id="patch_4">
    <path d="M 44.425 170.4 
L 196.045833 170.4 
" style="fill:none;stroke:#000000;stroke-linecap:square;stroke-linejoin:miter;stroke-width:0.8;"/>
   </g>
  </g>
  <g id="axes_2">
   <g id="patch_5">
    <path d="M 257.908333 170.4 
L 409.529167 170.4 
L 409.529167 36.530405 
L 257.908333 36.530405 
z
" style="fill:#ffffff;"/>
   </g>
   <g id="matplotlib.axis_3">
    <g id="xtick_7">
     <g id="line2d_40">
      <g>
       <use style="stroke:#000000;stroke-width:0.8;" x="273.070417" xlink:href="#mc444d8ad39" y="170.4"/>
      </g>
     </g>
     <g id="text_14">
      <!-- 360 -->
      <g transform="translate(263.526667 184.998437)scale(0.1 -0.1)">
       <use xlink:href="#DejaVuSans-51"/>
       <use x="63.623047" xlink:href="#DejaVuSans-54"/>
       <use x="127.246094" xlink:href="#DejaVuSans-48"/>
      </g>
     </g>
    </g>
    <g id="xtick_8">
     <g id="line2d_41">
      <g>
       <use style="stroke:#000000;stroke-width:0.8;" x="303.394583" xlink:href="#mc444d8ad39" y="170.4"/>
      </g>
     </g>
     <g id="text_15">
      <!-- 380 -->
      <g transform="translate(293.850833 184.998437)scale(0.1 -0.1)">
       <use xlink:href="#DejaVuSans-51"/>
       <use x="63.623047" xlink:href="#DejaVuSans-56"/>
       <use x="127.246094" xlink:href="#DejaVuSans-48"/>
      </g>
     </g>
    </g>
    <g id="xtick_9">
     <g id="line2d_42">
      <g>
       <use style="stroke:#000000;stroke-width:0.8;" x="333.71875" xlink:href="#mc444d8ad39" y="170.4"/>
      </g>
     </g>
     <g id="text_16">
      <!-- 400 -->
      <g transform="translate(324.175 184.998437)scale(0.1 -0.1)">
       <use xlink:href="#DejaVuSans-52"/>
       <use x="63.623047" xlink:href="#DejaVuSans-48"/>
       <use x="127.246094" xlink:href="#DejaVuSans-48"/>
      </g>
     </g>
    </g>
    <g id="xtick_10">
     <g id="line2d_43">
      <g>
       <use style="stroke:#000000;stroke-width:0.8;" x="364.042917" xlink:href="#mc444d8ad39" y="170.4"/>
      </g>
     </g>
     <g id="text_17">
      <!-- 420 -->
      <g transform="translate(354.499167 184.998437)scale(0.1 -0.1)">
       <use xlink:href="#DejaVuSans-52"/>
       <use x="63.623047" xlink:href="#DejaVuSans-50"/>
       <use x="127.246094" xlink:href="#DejaVuSans-48"/>
      </g>
     </g>
    </g>
    <g id="xtick_11">
     <g id="line2d_44">
      <g>
       <use style="stroke:#000000;stroke-width:0.8;" x="394.367083" xlink:href="#mc444d8ad39" y="170.4"/>
      </g>
     </g>
     <g id="text_18">
      <!-- 440 -->
      <g transform="translate(384.823333 184.998437)scale(0.1 -0.1)">
       <use xlink:href="#DejaVuSans-52"/>
       <use x="63.623047" xlink:href="#DejaVuSans-52"/>
       <use x="127.246094" xlink:href="#DejaVuSans-48"/>
      </g>
     </g>
    </g>
    <g id="text_19">
     <!-- $\theta_1$ -->
     <g transform="translate(328.26875 198.676562)scale(0.1 -0.1)">
      <use transform="translate(0 0.234375)" xlink:href="#DejaVuSans-Oblique-952"/>
      <use transform="translate(61.181641 -16.171875)scale(0.7)" xlink:href="#DejaVuSans-49"/>
     </g>
    </g>
   </g>
   <g id="matplotlib.axis_4">
    <g id="ytick_6">
     <g id="line2d_45">
      <g>
       <use style="stroke:#000000;stroke-width:0.8;" x="257.908333" xlink:href="#ma6a31754b8" y="164.315018"/>
      </g>
     </g>
     <g id="text_20">
      <!-- 0.0 -->
      <g transform="translate(235.005208 168.114237)scale(0.1 -0.1)">
       <use xlink:href="#DejaVuSans-48"/>
       <use x="63.623047" xlink:href="#DejaVuSans-46"/>
       <use x="95.410156" xlink:href="#DejaVuSans-48"/>
      </g>
     </g>
    </g>
    <g id="ytick_7">
     <g id="line2d_46">
      <g>
       <use style="stroke:#000000;stroke-width:0.8;" x="257.908333" xlink:href="#ma6a31754b8" y="131.859255"/>
      </g>
     </g>
     <g id="text_21">
      <!-- 0.1 -->
      <g transform="translate(235.005208 135.658474)scale(0.1 -0.1)">
       <use xlink:href="#DejaVuSans-48"/>
       <use x="63.623047" xlink:href="#DejaVuSans-46"/>
       <use x="95.410156" xlink:href="#DejaVuSans-49"/>
      </g>
     </g>
    </g>
    <g id="ytick_8">
     <g id="line2d_47">
      <g>
       <use style="stroke:#000000;stroke-width:0.8;" x="257.908333" xlink:href="#ma6a31754b8" y="99.403491"/>
      </g>
     </g>
     <g id="text_22">
      <!-- 0.2 -->
      <g transform="translate(235.005208 103.20271)scale(0.1 -0.1)">
       <use xlink:href="#DejaVuSans-48"/>
       <use x="63.623047" xlink:href="#DejaVuSans-46"/>
       <use x="95.410156" xlink:href="#DejaVuSans-50"/>
      </g>
     </g>
    </g>
    <g id="ytick_9">
     <g id="line2d_48">
      <g>
       <use style="stroke:#000000;stroke-width:0.8;" x="257.908333" xlink:href="#ma6a31754b8" y="66.947728"/>
      </g>
     </g>
     <g id="text_23">
      <!-- 0.3 -->
      <g transform="translate(235.005208 70.746947)scale(0.1 -0.1)">
       <use xlink:href="#DejaVuSans-48"/>
       <use x="63.623047" xlink:href="#DejaVuSans-46"/>
       <use x="95.410156" xlink:href="#DejaVuSans-51"/>
      </g>
     </g>
    </g>
    <g id="text_24">
     <!-- Posterior -->
     <g transform="translate(228.925521 125.558953)rotate(-90)scale(0.1 -0.1)">
      <use xlink:href="#DejaVuSans-80"/>
      <use x="56.677734" xlink:href="#DejaVuSans-111"/>
      <use x="117.859375" xlink:href="#DejaVuSans-115"/>
      <use x="169.958984" xlink:href="#DejaVuSans-116"/>
      <use x="209.167969" xlink:href="#DejaVuSans-101"/>
      <use x="270.691406" xlink:href="#DejaVuSans-114"/>
      <use x="311.804688" xlink:href="#DejaVuSans-105"/>
      <use x="339.587891" xlink:href="#DejaVuSans-111"/>
      <use x="400.769531" xlink:href="#DejaVuSans-114"/>
     </g>
    </g>
   </g>
   <g id="line2d_49">
    <path clip-path="url(#p525f4c3051)" d="M 257.908333 163.783905 
L 409.529167 163.796157 
L 409.529167 163.796157 
" style="fill:none;stroke:#1f77b4;stroke-linecap:square;stroke-width:1.5;"/>
   </g>
   <g id="line2d_50">
    <path clip-path="url(#p525f4c3051)" d="M 333.71875 170.4 
L 333.71875 36.530405 
" style="fill:none;stroke:#808080;stroke-dasharray:1.5,2.475;stroke-dashoffset:0;stroke-width:1.5;"/>
   </g>
   <g id="line2d_51">
    <path clip-path="url(#p525f4c3051)" d="M 257.908333 163.574066 
L 385.188698 163.540398 
L 409.529167 163.564948 
L 409.529167 163.564948 
" style="fill:none;stroke:#ff7f0e;stroke-linecap:square;stroke-width:1.5;"/>
   </g>
   <g id="line2d_52">
    <path clip-path="url(#p525f4c3051)" d="M 333.71875 170.4 
L 333.71875 36.530405 
" style="fill:none;stroke:#808080;stroke-dasharray:1.5,2.475;stroke-dashoffset:0;stroke-width:1.5;"/>
   </g>
   <g id="line2d_53">
    <path clip-path="url(#p525f4c3051)" d="M 257.908333 163.215974 
L 312.167294 163.194555 
L 406.993701 163.202002 
L 409.529167 163.200892 
L 409.529167 163.200892 
" style="fill:none;stroke:#2ca02c;stroke-linecap:square;stroke-width:1.5;"/>
   </g>
   <g id="line2d_54">
    <path clip-path="url(#p525f4c3051)" d="M 333.71875 170.4 
L 333.71875 36.530405 
" style="fill:none;stroke:#808080;stroke-dasharray:1.5,2.475;stroke-dashoffset:0;stroke-width:1.5;"/>
   </g>
   <g id="line2d_55">
    <path clip-path="url(#p525f4c3051)" d="M 257.908333 162.832449 
L 294.419036 162.750133 
L 350.199275 162.884553 
L 409.529167 163.082791 
L 409.529167 163.082791 
" style="fill:none;stroke:#d62728;stroke-linecap:square;stroke-width:1.5;"/>
   </g>
   <g id="line2d_56">
    <path clip-path="url(#p525f4c3051)" d="M 333.71875 170.4 
L 333.71875 36.530405 
" style="fill:none;stroke:#808080;stroke-dasharray:1.5,2.475;stroke-dashoffset:0;stroke-width:1.5;"/>
   </g>
   <g id="line2d_57">
    <path clip-path="url(#p525f4c3051)" d="M 257.908333 162.515356 
L 280.727522 162.296655 
L 313.18148 161.959855 
L 336.000669 161.793917 
L 357.805672 161.889477 
L 387.724164 162.222542 
L 409.529167 162.656507 
L 409.529167 162.656507 
" style="fill:none;stroke:#9467bd;stroke-linecap:square;stroke-width:1.5;"/>
   </g>
   <g id="line2d_58">
    <path clip-path="url(#p525f4c3051)" d="M 333.71875 170.4 
L 333.71875 36.530405 
" style="fill:none;stroke:#808080;stroke-dasharray:1.5,2.475;stroke-dashoffset:0;stroke-width:1.5;"/>
   </g>
   <g id="line2d_59">
    <path clip-path="url(#p525f4c3051)" d="M 257.908333 162.703445 
L 289.348105 161.482649 
L 308.110549 161.199226 
L 350.199275 160.759574 
L 358.819858 160.87309 
L 369.975906 161.270823 
L 390.766722 162.008901 
L 409.529167 162.704013 
L 409.529167 162.704013 
" style="fill:none;stroke:#8c564b;stroke-linecap:square;stroke-width:1.5;"/>
   </g>
   <g id="line2d_60">
    <path clip-path="url(#p525f4c3051)" d="M 333.71875 170.4 
L 333.71875 36.530405 
" style="fill:none;stroke:#808080;stroke-dasharray:1.5,2.475;stroke-dashoffset:0;stroke-width:1.5;"/>
   </g>
   <g id="line2d_61">
    <path clip-path="url(#p525f4c3051)" d="M 257.908333 164.222048 
L 266.528916 163.957764 
L 273.628219 163.523424 
L 280.727522 162.865288 
L 289.348105 161.814007 
L 300.504153 160.477849 
L 309.124735 159.710803 
L 318.759504 158.822414 
L 331.436831 157.52163 
L 334.986483 157.470238 
L 338.536134 157.657213 
L 342.592879 158.112652 
L 355.777299 159.807804 
L 362.876603 160.333876 
L 372.511371 161.06874 
L 380.624861 161.935177 
L 393.302188 163.302215 
L 400.401491 163.818781 
L 408.007887 164.136977 
L 409.529167 164.175672 
L 409.529167 164.175672 
" style="fill:none;stroke:#e377c2;stroke-linecap:square;stroke-width:1.5;"/>
   </g>
   <g id="line2d_62">
    <path clip-path="url(#p525f4c3051)" d="M 333.71875 170.4 
L 333.71875 36.530405 
" style="fill:none;stroke:#808080;stroke-dasharray:1.5,2.475;stroke-dashoffset:0;stroke-width:1.5;"/>
   </g>
   <g id="line2d_63">
    <path clip-path="url(#p525f4c3051)" d="M 257.908333 164.315018 
L 283.770081 164.211156 
L 286.812639 163.985068 
L 289.855198 163.526848 
L 293.404849 162.734632 
L 297.968687 161.716296 
L 302.025432 161.080478 
L 307.096363 160.31365 
L 310.138921 159.631834 
L 313.688573 158.580893 
L 320.280783 156.537174 
L 323.323342 155.839853 
L 326.3659 155.366026 
L 330.422645 154.997385 
L 334.986483 154.803674 
L 338.536134 154.904525 
L 343.099972 155.281855 
L 346.142531 155.721349 
L 348.677996 156.301904 
L 352.227648 157.393444 
L 357.298579 158.973528 
L 372.004278 162.878426 
L 375.55393 163.576718 
L 379.103581 164.011112 
L 383.160326 164.238691 
L 389.752536 164.312162 
L 409.529167 164.315018 
L 409.529167 164.315018 
" style="fill:none;stroke:#7f7f7f;stroke-linecap:square;stroke-width:1.5;"/>
   </g>
   <g id="line2d_64">
    <path clip-path="url(#p525f4c3051)" d="M 333.71875 170.4 
L 333.71875 36.530405 
" style="fill:none;stroke:#808080;stroke-dasharray:1.5,2.475;stroke-dashoffset:0;stroke-width:1.5;"/>
   </g>
   <g id="line2d_65">
    <path clip-path="url(#p525f4c3051)" d="M 257.908333 164.315018 
L 304.053804 164.226748 
L 306.58927 163.955648 
L 308.617642 163.528128 
L 310.138921 163.040041 
L 311.660201 162.336342 
L 313.18148 161.347696 
L 314.702759 160.048357 
L 316.731132 157.914862 
L 322.309156 151.668967 
L 323.830435 150.330727 
L 325.351714 149.360649 
L 326.3659 148.940835 
L 327.887179 148.606205 
L 330.929738 148.204807 
L 332.451017 147.677264 
L 333.972297 147.086459 
L 334.986483 146.899768 
L 336.000669 147.017778 
L 337.014855 147.455839 
L 338.536134 148.527718 
L 343.607065 152.499424 
L 347.156717 155.077139 
L 349.185089 156.954779 
L 353.241834 160.870345 
L 354.763113 162.124595 
L 356.284392 163.092919 
L 357.805672 163.719349 
L 359.326951 164.060161 
L 361.355323 164.248813 
L 365.412068 164.313411 
L 409.529167 164.315018 
L 409.529167 164.315018 
" style="fill:none;stroke:#bcbd22;stroke-linecap:square;stroke-width:1.5;"/>
   </g>
   <g id="line2d_66">
    <path clip-path="url(#p525f4c3051)" d="M 333.71875 170.4 
L 333.71875 36.530405 
" style="fill:none;stroke:#808080;stroke-dasharray:1.5,2.475;stroke-dashoffset:0;stroke-width:1.5;"/>
   </g>
   <g id="line2d_67">
    <path clip-path="url(#p525f4c3051)" d="M 257.908333 164.315018 
L 315.209852 164.251685 
L 316.224038 164.110795 
L 317.238225 163.76737 
L 318.252411 163.068953 
L 319.266597 161.882612 
L 320.280783 160.207759 
L 322.816249 155.124481 
L 325.858807 148.739599 
L 327.887179 144.259627 
L 328.901366 142.464703 
L 329.915552 141.166803 
L 330.929738 140.229383 
L 332.451017 139.192242 
L 333.465203 138.79786 
L 334.47939 138.657237 
L 337.014855 138.635589 
L 337.521948 138.755615 
L 338.029041 139.043091 
L 338.536134 139.574805 
L 339.043227 140.407404 
L 339.550321 141.556564 
L 340.564507 144.611519 
L 342.085786 149.530565 
L 343.099972 152.020586 
L 344.114158 153.810071 
L 347.156717 158.53807 
L 349.185089 161.691223 
L 350.199275 162.879333 
L 351.213462 163.667067 
L 352.227648 164.081518 
L 353.241834 164.249317 
L 355.777299 164.314158 
L 409.529167 164.315018 
L 409.529167 164.315018 
" style="fill:none;stroke:#17becf;stroke-linecap:square;stroke-width:1.5;"/>
   </g>
   <g id="line2d_68">
    <path clip-path="url(#p525f4c3051)" d="M 333.71875 170.4 
L 333.71875 36.530405 
" style="fill:none;stroke:#808080;stroke-dasharray:1.5,2.475;stroke-dashoffset:0;stroke-width:1.5;"/>
   </g>
   <g id="line2d_69">
    <path clip-path="url(#p525f4c3051)" d="M 257.908333 164.315018 
L 322.309156 164.220729 
L 322.816249 164.09265 
L 323.323342 163.829133 
L 323.830435 163.322655 
L 324.337528 162.438836 
L 324.844621 161.0659 
L 325.351714 159.165153 
L 326.3659 154.074766 
L 328.901366 140.334403 
L 329.915552 134.586146 
L 331.436831 124.577746 
L 331.943924 122.479974 
L 332.451017 121.456315 
L 332.95811 121.294431 
L 333.972297 121.875491 
L 334.47939 121.811266 
L 335.493576 121.241814 
L 336.000669 121.598303 
L 336.507762 122.73724 
L 337.014855 124.657032 
L 338.029041 130.308459 
L 339.043227 137.423012 
L 341.578693 157.047461 
L 342.085786 159.153004 
L 343.099972 161.72794 
L 344.114158 163.407161 
L 344.621251 163.8961 
L 345.128344 164.155963 
L 346.142531 164.302651 
L 352.227648 164.315018 
L 409.529167 164.315018 
L 409.529167 164.315018 
" style="fill:none;stroke:#1f77b4;stroke-linecap:square;stroke-width:1.5;"/>
   </g>
   <g id="line2d_70">
    <path clip-path="url(#p525f4c3051)" d="M 333.71875 170.4 
L 333.71875 36.530405 
" style="fill:none;stroke:#808080;stroke-dasharray:1.5,2.475;stroke-dashoffset:0;stroke-width:1.5;"/>
   </g>
   <g id="line2d_71">
    <path clip-path="url(#p525f4c3051)" d="M 257.908333 164.315018 
L 324.844621 164.278915 
L 325.351714 164.153331 
L 325.858807 163.81669 
L 326.3659 163.158484 
L 326.872993 162.042128 
L 327.380086 160.273226 
L 327.887179 157.867066 
L 328.394273 154.806073 
L 328.901366 149.987879 
L 329.408459 142.048161 
L 330.422645 123.254372 
L 331.436831 112.587908 
L 332.451017 101.88083 
L 332.95811 99.576156 
L 333.465203 100.119875 
L 333.972297 100.98107 
L 334.47939 100.969153 
L 334.986483 101.369535 
L 335.493576 104.073897 
L 336.000669 109.712214 
L 338.536134 147.031813 
L 339.550321 157.308421 
L 340.057414 160.561971 
L 340.564507 162.417167 
L 341.0716 163.341421 
L 341.578693 163.855394 
L 342.085786 164.148834 
L 343.099972 164.30847 
L 352.734741 164.315018 
L 409.529167 164.315018 
L 409.529167 164.315018 
" style="fill:none;stroke:#ff7f0e;stroke-linecap:square;stroke-width:1.5;"/>
   </g>
   <g id="line2d_72">
    <path clip-path="url(#p525f4c3051)" d="M 333.71875 170.4 
L 333.71875 36.530405 
" style="fill:none;stroke:#808080;stroke-dasharray:1.5,2.475;stroke-dashoffset:0;stroke-width:1.5;"/>
   </g>
   <g id="line2d_73">
    <path clip-path="url(#p525f4c3051)" d="M 257.908333 164.315018 
L 326.872993 164.262926 
L 327.380086 163.912146 
L 327.887179 162.573244 
L 328.394273 159.644578 
L 328.901366 155.227635 
L 329.408459 149.080356 
L 330.422645 131.247313 
L 331.436831 110.316937 
L 331.943924 98.896936 
L 332.95811 83.263858 
L 333.465203 77.627004 
L 333.972297 75.006366 
L 334.47939 77.261002 
L 334.986483 86.905133 
L 336.000669 114.305751 
L 337.521948 143.108313 
L 338.029041 153.09052 
L 338.536134 159.532619 
L 339.043227 162.743494 
L 339.550321 163.973044 
L 340.057414 164.272074 
L 341.578693 164.315017 
L 409.529167 164.315018 
L 409.529167 164.315018 
" style="fill:none;stroke:#2ca02c;stroke-linecap:square;stroke-width:1.5;"/>
   </g>
   <g id="line2d_74">
    <path clip-path="url(#p525f4c3051)" d="M 333.71875 170.4 
L 333.71875 36.530405 
" style="fill:none;stroke:#808080;stroke-dasharray:1.5,2.475;stroke-dashoffset:0;stroke-width:1.5;"/>
   </g>
   <g id="line2d_75">
    <path clip-path="url(#p525f4c3051)" d="M 257.908333 164.315018 
L 327.887179 164.304069 
L 328.394273 164.12323 
L 328.901366 163.040777 
L 329.408459 160.45237 
L 329.915552 155.689986 
L 330.422645 145.642496 
L 330.929738 133.014173 
L 331.436831 116.955442 
L 332.95811 51.776508 
L 333.465203 42.615387 
L 333.972297 55.784206 
L 334.47939 73.405768 
L 335.493576 95.467406 
L 336.507762 132.029611 
L 337.521948 154.074214 
L 338.029041 161.165914 
L 338.536134 163.895723 
L 339.043227 164.294865 
L 342.085786 164.315018 
L 409.529167 164.315018 
L 409.529167 164.315018 
" style="fill:none;stroke:#d62728;stroke-linecap:square;stroke-width:1.5;"/>
   </g>
   <g id="line2d_76">
    <path clip-path="url(#p525f4c3051)" d="M 333.71875 170.4 
L 333.71875 36.530405 
" style="fill:none;stroke:#808080;stroke-dasharray:1.5,2.475;stroke-dashoffset:0;stroke-width:1.5;"/>
   </g>
   <g id="patch_6">
    <path d="M 257.908333 170.4 
L 257.908333 36.530405 
" style="fill:none;stroke:#000000;stroke-linecap:square;stroke-linejoin:miter;stroke-width:0.8;"/>
   </g>
   <g id="patch_7">
    <path d="M 257.908333 170.4 
L 409.529167 170.4 
" style="fill:none;stroke:#000000;stroke-linecap:square;stroke-linejoin:miter;stroke-width:0.8;"/>
   </g>
  </g>
  <g id="axes_3">
   <g id="patch_8">
    <path d="M 471.391667 170.4 
L 623.0125 170.4 
L 623.0125 36.530405 
L 471.391667 36.530405 
z
" style="fill:#ffffff;"/>
   </g>
   <g id="matplotlib.axis_5">
    <g id="xtick_12">
     <g id="line2d_77">
      <g>
       <use style="stroke:#000000;stroke-width:0.8;" x="471.391667" xlink:href="#mc444d8ad39" y="170.4"/>
      </g>
     </g>
     <g id="text_25">
      <!-- 0.00 -->
      <g transform="translate(460.258854 184.998437)scale(0.1 -0.1)">
       <use xlink:href="#DejaVuSans-48"/>
       <use x="63.623047" xlink:href="#DejaVuSans-46"/>
       <use x="95.410156" xlink:href="#DejaVuSans-48"/>
       <use x="159.033203" xlink:href="#DejaVuSans-48"/>
      </g>
     </g>
    </g>
    <g id="xtick_13">
     <g id="line2d_78">
      <g>
       <use style="stroke:#000000;stroke-width:0.8;" x="501.715833" xlink:href="#mc444d8ad39" y="170.4"/>
      </g>
     </g>
     <g id="text_26">
      <!-- 0.02 -->
      <g transform="translate(490.583021 184.998437)scale(0.1 -0.1)">
       <use xlink:href="#DejaVuSans-48"/>
       <use x="63.623047" xlink:href="#DejaVuSans-46"/>
       <use x="95.410156" xlink:href="#DejaVuSans-48"/>
       <use x="159.033203" xlink:href="#DejaVuSans-50"/>
      </g>
     </g>
    </g>
    <g id="xtick_14">
     <g id="line2d_79">
      <g>
       <use style="stroke:#000000;stroke-width:0.8;" x="532.04" xlink:href="#mc444d8ad39" y="170.4"/>
      </g>
     </g>
     <g id="text_27">
      <!-- 0.04 -->
      <g transform="translate(520.907188 184.998437)scale(0.1 -0.1)">
       <use xlink:href="#DejaVuSans-48"/>
       <use x="63.623047" xlink:href="#DejaVuSans-46"/>
       <use x="95.410156" xlink:href="#DejaVuSans-48"/>
       <use x="159.033203" xlink:href="#DejaVuSans-52"/>
      </g>
     </g>
    </g>
    <g id="xtick_15">
     <g id="line2d_80">
      <g>
       <use style="stroke:#000000;stroke-width:0.8;" x="562.364167" xlink:href="#mc444d8ad39" y="170.4"/>
      </g>
     </g>
     <g id="text_28">
      <!-- 0.06 -->
      <g transform="translate(551.231354 184.998437)scale(0.1 -0.1)">
       <use xlink:href="#DejaVuSans-48"/>
       <use x="63.623047" xlink:href="#DejaVuSans-46"/>
       <use x="95.410156" xlink:href="#DejaVuSans-48"/>
       <use x="159.033203" xlink:href="#DejaVuSans-54"/>
      </g>
     </g>
    </g>
    <g id="xtick_16">
     <g id="line2d_81">
      <g>
       <use style="stroke:#000000;stroke-width:0.8;" x="592.688333" xlink:href="#mc444d8ad39" y="170.4"/>
      </g>
     </g>
     <g id="text_29">
      <!-- 0.08 -->
      <g transform="translate(581.555521 184.998437)scale(0.1 -0.1)">
       <use xlink:href="#DejaVuSans-48"/>
       <use x="63.623047" xlink:href="#DejaVuSans-46"/>
       <use x="95.410156" xlink:href="#DejaVuSans-48"/>
       <use x="159.033203" xlink:href="#DejaVuSans-56"/>
      </g>
     </g>
    </g>
    <g id="xtick_17">
     <g id="line2d_82">
      <g>
       <use style="stroke:#000000;stroke-width:0.8;" x="623.0125" xlink:href="#mc444d8ad39" y="170.4"/>
      </g>
     </g>
     <g id="text_30">
      <!-- 0.10 -->
      <g transform="translate(611.879688 184.998437)scale(0.1 -0.1)">
       <use xlink:href="#DejaVuSans-48"/>
       <use x="63.623047" xlink:href="#DejaVuSans-46"/>
       <use x="95.410156" xlink:href="#DejaVuSans-49"/>
       <use x="159.033203" xlink:href="#DejaVuSans-48"/>
      </g>
     </g>
    </g>
    <g id="text_31">
     <!-- $\theta_2$ -->
     <g transform="translate(541.752083 198.676562)scale(0.1 -0.1)">
      <use transform="translate(0 0.234375)" xlink:href="#DejaVuSans-Oblique-952"/>
      <use transform="translate(61.181641 -16.171875)scale(0.7)" xlink:href="#DejaVuSans-50"/>
     </g>
    </g>
   </g>
   <g id="matplotlib.axis_6">
    <g id="ytick_10">
     <g id="line2d_83">
      <g>
       <use style="stroke:#000000;stroke-width:0.8;" x="471.391667" xlink:href="#ma6a31754b8" y="164.315018"/>
      </g>
     </g>
     <g id="text_32">
      <!-- 0 -->
      <g transform="translate(458.029167 168.114237)scale(0.1 -0.1)">
       <use xlink:href="#DejaVuSans-48"/>
      </g>
     </g>
    </g>
    <g id="ytick_11">
     <g id="line2d_84">
      <g>
       <use style="stroke:#000000;stroke-width:0.8;" x="471.391667" xlink:href="#ma6a31754b8" y="127.578893"/>
      </g>
     </g>
     <g id="text_33">
      <!-- 20 -->
      <g transform="translate(451.666667 131.378112)scale(0.1 -0.1)">
       <use xlink:href="#DejaVuSans-50"/>
       <use x="63.623047" xlink:href="#DejaVuSans-48"/>
      </g>
     </g>
    </g>
    <g id="ytick_12">
     <g id="line2d_85">
      <g>
       <use style="stroke:#000000;stroke-width:0.8;" x="471.391667" xlink:href="#ma6a31754b8" y="90.842767"/>
      </g>
     </g>
     <g id="text_34">
      <!-- 40 -->
      <g transform="translate(451.666667 94.641986)scale(0.1 -0.1)">
       <use xlink:href="#DejaVuSans-52"/>
       <use x="63.623047" xlink:href="#DejaVuSans-48"/>
      </g>
     </g>
    </g>
    <g id="ytick_13">
     <g id="line2d_86">
      <g>
       <use style="stroke:#000000;stroke-width:0.8;" x="471.391667" xlink:href="#ma6a31754b8" y="54.106642"/>
      </g>
     </g>
     <g id="text_35">
      <!-- 60 -->
      <g transform="translate(451.666667 57.905861)scale(0.1 -0.1)">
       <use xlink:href="#DejaVuSans-54"/>
       <use x="63.623047" xlink:href="#DejaVuSans-48"/>
      </g>
     </g>
    </g>
    <g id="text_36">
     <!-- Posterior -->
     <g transform="translate(445.586979 125.558953)rotate(-90)scale(0.1 -0.1)">
      <use xlink:href="#DejaVuSans-80"/>
      <use x="56.677734" xlink:href="#DejaVuSans-111"/>
      <use x="117.859375" xlink:href="#DejaVuSans-115"/>
      <use x="169.958984" xlink:href="#DejaVuSans-116"/>
      <use x="209.167969" xlink:href="#DejaVuSans-101"/>
      <use x="270.691406" xlink:href="#DejaVuSans-114"/>
      <use x="311.804688" xlink:href="#DejaVuSans-105"/>
      <use x="339.587891" xlink:href="#DejaVuSans-111"/>
      <use x="400.769531" xlink:href="#DejaVuSans-114"/>
     </g>
    </g>
   </g>
   <g id="line2d_87">
    <path clip-path="url(#p58276b462e)" d="M 471.391667 159.111824 
L 477.983877 156.11212 
L 482.547715 154.152348 
L 486.097366 152.884825 
L 489.139925 152.033325 
L 492.182483 151.398106 
L 495.732135 150.877461 
L 502.324345 150.198031 
L 508.916555 149.423184 
L 523.115162 147.573791 
L 527.678999 147.297199 
L 533.257023 147.202181 
L 545.934351 147.093642 
L 551.005281 146.792364 
L 555.569119 146.317488 
L 560.132957 145.623671 
L 564.696795 144.713355 
L 571.289005 143.140816 
L 577.881215 141.627279 
L 581.93796 140.933815 
L 585.487611 140.545507 
L 589.037263 140.366479 
L 593.094008 140.390435 
L 597.150753 140.631247 
L 600.700404 141.035972 
L 603.742963 141.575138 
L 606.785521 142.357657 
L 609.320987 143.246907 
L 611.856452 144.389228 
L 614.391918 145.802665 
L 616.927383 147.479329 
L 619.969941 149.780979 
L 623.0125 152.277037 
L 623.0125 152.277037 
" style="fill:none;stroke:#1f77b4;stroke-linecap:square;stroke-width:1.5;"/>
   </g>
   <g id="line2d_88">
    <path clip-path="url(#p58276b462e)" style="fill:none;stroke:#808080;stroke-dasharray:1.5,2.475;stroke-dashoffset:0;stroke-width:1.5;"/>
   </g>
   <g id="line2d_89">
    <path clip-path="url(#p58276b462e)" d="M 471.391667 162.596748 
L 476.462598 161.539971 
L 484.068994 159.708018 
L 500.295973 155.717347 
L 505.873997 154.68113 
L 514.494579 153.364023 
L 524.129348 152.086004 
L 531.228651 151.117583 
L 534.778303 150.427475 
L 538.327954 149.509382 
L 541.877606 148.36377 
L 547.962723 146.100504 
L 553.033654 144.296348 
L 557.090399 143.079973 
L 562.161329 141.811062 
L 571.289005 139.55778 
L 583.459239 136.3261 
L 587.515984 135.581108 
L 592.079822 134.979037 
L 598.164939 134.400185 
L 601.71459 134.247865 
L 604.250056 134.351969 
L 606.278428 134.647689 
L 608.3068 135.199831 
L 609.82808 135.816804 
L 611.349359 136.6288 
L 612.870638 137.647194 
L 614.899011 139.328579 
L 616.927383 141.356254 
L 619.462848 144.287856 
L 623.0125 148.806986 
L 623.0125 148.806986 
" style="fill:none;stroke:#ff7f0e;stroke-linecap:square;stroke-width:1.5;"/>
   </g>
   <g id="line2d_90">
    <path clip-path="url(#p58276b462e)" style="fill:none;stroke:#808080;stroke-dasharray:1.5,2.475;stroke-dashoffset:0;stroke-width:1.5;"/>
   </g>
   <g id="line2d_91">
    <path clip-path="url(#p58276b462e)" d="M 471.391667 162.891532 
L 480.012249 161.536768 
L 486.604459 160.335996 
L 491.168297 159.294873 
L 497.253414 157.641992 
L 503.845624 155.892187 
L 517.030045 152.589115 
L 524.636441 150.206129 
L 541.370513 145.01989 
L 544.920164 144.188991 
L 547.962723 143.717693 
L 551.005281 143.468559 
L 556.076212 143.337949 
L 560.64005 143.136546 
L 563.682609 142.783592 
L 566.725167 142.206484 
L 570.274819 141.275506 
L 575.34575 139.66002 
L 581.430867 137.752191 
L 585.994705 136.576281 
L 590.558542 135.637522 
L 594.615287 134.999305 
L 598.164939 134.665806 
L 600.700404 134.629107 
L 603.23587 134.825589 
L 605.264242 135.190864 
L 607.292614 135.773008 
L 609.320987 136.598765 
L 611.349359 137.690161 
L 613.377731 139.061124 
L 615.406104 140.712876 
L 617.434476 142.629004 
L 619.969941 145.33623 
L 623.0125 148.875126 
L 623.0125 148.875126 
" style="fill:none;stroke:#2ca02c;stroke-linecap:square;stroke-width:1.5;"/>
   </g>
   <g id="line2d_92">
    <path clip-path="url(#p58276b462e)" style="fill:none;stroke:#808080;stroke-dasharray:1.5,2.475;stroke-dashoffset:0;stroke-width:1.5;"/>
   </g>
   <g id="line2d_93">
    <path clip-path="url(#p58276b462e)" d="M 471.391667 164.314912 
L 488.632832 164.20743 
L 493.703763 163.941215 
L 497.760507 163.508164 
L 501.817252 162.858195 
L 507.395276 161.720094 
L 513.987486 160.176078 
L 518.044231 159.011269 
L 521.086789 157.918442 
L 524.129348 156.573553 
L 527.171906 154.955896 
L 530.721558 152.776336 
L 537.313768 148.623185 
L 539.34214 147.593841 
L 541.370513 146.797521 
L 543.398885 146.271179 
L 545.427258 146.01489 
L 547.45563 145.986661 
L 551.005281 146.231035 
L 554.04784 146.365806 
L 556.076212 146.239218 
L 558.104585 145.859985 
L 560.132957 145.199513 
L 562.161329 144.265688 
L 564.189702 143.09955 
L 567.23226 141.067815 
L 572.303191 137.634184 
L 574.838657 136.167048 
L 577.881215 134.678119 
L 583.966332 132.079226 
L 592.079822 128.690715 
L 595.12238 127.686893 
L 598.672032 126.772477 
L 602.221683 126.112103 
L 604.757149 125.840967 
L 606.785521 125.817731 
L 608.3068 125.966845 
L 609.82808 126.308539 
L 611.349359 126.89434 
L 612.870638 127.777705 
L 614.391918 129.007695 
L 615.913197 130.620764 
L 617.434476 132.631859 
L 618.955755 135.026696 
L 620.984128 138.72901 
L 623.0125 142.821866 
L 623.0125 142.821866 
" style="fill:none;stroke:#d62728;stroke-linecap:square;stroke-width:1.5;"/>
   </g>
   <g id="line2d_94">
    <path clip-path="url(#p58276b462e)" style="fill:none;stroke:#808080;stroke-dasharray:1.5,2.475;stroke-dashoffset:0;stroke-width:1.5;"/>
   </g>
   <g id="line2d_95">
    <path clip-path="url(#p58276b462e)" d="M 471.391667 164.315007 
L 491.168297 164.218777 
L 495.732135 163.97991 
L 499.281787 163.589542 
L 502.831438 162.972276 
L 506.888183 162.00967 
L 511.452021 160.690359 
L 516.522952 158.996836 
L 522.608069 156.693255 
L 529.707372 154.038203 
L 540.86342 150.030749 
L 547.962723 147.043758 
L 561.654236 141.168217 
L 565.203888 139.258716 
L 570.274819 136.202551 
L 573.82447 134.144513 
L 576.359936 132.925232 
L 578.388308 132.179163 
L 580.416681 131.661901 
L 582.445053 131.360713 
L 584.980518 131.214793 
L 591.572729 131.018808 
L 594.108194 130.66485 
L 596.643659 130.089039 
L 600.193311 129.009374 
L 605.264242 127.435004 
L 607.292614 127.035705 
L 608.813894 126.927887 
L 610.335173 127.052732 
L 611.856452 127.476423 
L 612.870638 127.956601 
L 613.884824 128.614317 
L 614.899011 129.462243 
L 616.42029 131.106142 
L 617.941569 133.194017 
L 619.462848 135.690234 
L 621.491221 139.524992 
L 623.0125 142.642324 
L 623.0125 142.642324 
" style="fill:none;stroke:#9467bd;stroke-linecap:square;stroke-width:1.5;"/>
   </g>
   <g id="line2d_96">
    <path clip-path="url(#p58276b462e)" style="fill:none;stroke:#808080;stroke-dasharray:1.5,2.475;stroke-dashoffset:0;stroke-width:1.5;"/>
   </g>
   <g id="line2d_97">
    <path clip-path="url(#p58276b462e)" d="M 471.391667 164.315018 
L 517.537138 164.21216 
L 521.086789 163.988507 
L 524.129348 163.584447 
L 526.664813 163.033646 
L 529.200279 162.246215 
L 531.735744 161.205394 
L 534.778303 159.660416 
L 539.849234 156.725653 
L 544.920164 153.606838 
L 547.962723 151.438964 
L 551.005281 148.981399 
L 558.611678 142.66071 
L 561.654236 140.468121 
L 564.696795 138.567734 
L 569.260633 136.058468 
L 576.867029 132.067673 
L 579.909588 130.811755 
L 587.008891 128.087495 
L 589.544356 126.779142 
L 596.136566 123.180907 
L 598.164939 122.413915 
L 600.700404 121.726432 
L 604.250056 120.799844 
L 606.278428 120.031594 
L 611.349359 117.895161 
L 612.363545 117.783769 
L 613.377731 117.92877 
L 614.391918 118.39707 
L 615.406104 119.24625 
L 616.42029 120.518389 
L 617.434476 122.234635 
L 618.448662 124.391251 
L 619.969941 128.377997 
L 621.491221 133.071602 
L 623.0125 138.163346 
L 623.0125 138.163346 
" style="fill:none;stroke:#8c564b;stroke-linecap:square;stroke-width:1.5;"/>
   </g>
   <g id="line2d_98">
    <path clip-path="url(#p58276b462e)" style="fill:none;stroke:#808080;stroke-dasharray:1.5,2.475;stroke-dashoffset:0;stroke-width:1.5;"/>
   </g>
   <g id="line2d_99">
    <path clip-path="url(#p58276b462e)" d="M 471.391667 164.315018 
L 525.143534 164.218453 
L 529.707372 163.960802 
L 532.74993 163.595823 
L 535.792489 162.99693 
L 538.327954 162.264988 
L 540.86342 161.274532 
L 543.398885 159.99359 
L 545.934351 158.42244 
L 548.976909 156.22826 
L 557.597492 149.761977 
L 561.147143 147.517761 
L 566.725167 144.094917 
L 569.260633 142.229167 
L 571.289005 140.463898 
L 573.317377 138.411697 
L 575.34575 136.061021 
L 577.881215 132.730188 
L 580.923774 128.29151 
L 586.501798 120.034573 
L 588.53017 117.472036 
L 590.051449 115.837909 
L 591.572729 114.486981 
L 593.094008 113.431587 
L 594.615287 112.667721 
L 596.136566 112.179785 
L 597.657846 111.944984 
L 599.179125 111.935692 
L 600.700404 112.119871 
L 602.728776 112.603519 
L 605.264242 113.469823 
L 608.3068 114.776419 
L 610.335173 115.88676 
L 611.856452 116.960603 
L 613.377731 118.351986 
L 614.899011 120.163507 
L 616.42029 122.476767 
L 617.941569 125.331167 
L 619.462848 128.70868 
L 621.491221 133.877374 
L 623.0125 138.064474 
L 623.0125 138.064474 
" style="fill:none;stroke:#e377c2;stroke-linecap:square;stroke-width:1.5;"/>
   </g>
   <g id="line2d_100">
    <path clip-path="url(#p58276b462e)" style="fill:none;stroke:#808080;stroke-dasharray:1.5,2.475;stroke-dashoffset:0;stroke-width:1.5;"/>
   </g>
   <g id="line2d_101">
    <path clip-path="url(#p58276b462e)" d="M 471.391667 164.315018 
L 539.849234 164.224677 
L 542.384699 163.998879 
L 544.413071 163.581828 
L 545.934351 163.056706 
L 547.45563 162.31056 
L 548.976909 161.338442 
L 551.005281 159.745807 
L 554.04784 156.982913 
L 557.597492 153.474956 
L 561.147143 149.622214 
L 565.203888 144.894955 
L 567.23226 142.234397 
L 569.260633 139.15417 
L 571.796098 134.742755 
L 574.331564 130.292102 
L 575.852843 127.986304 
L 577.374122 126.155662 
L 578.388308 125.23955 
L 579.402494 124.568116 
L 580.416681 124.122247 
L 581.430867 123.867092 
L 582.952146 123.735496 
L 586.501798 123.610344 
L 588.023077 123.26523 
L 589.544356 122.668799 
L 591.572729 121.572654 
L 594.108194 119.910432 
L 596.136566 118.324651 
L 597.657846 116.898788 
L 599.686218 114.658919 
L 603.742963 109.982034 
L 605.264242 108.635813 
L 606.785521 107.666716 
L 607.799707 107.236624 
L 608.813894 106.974035 
L 609.82808 106.877019 
L 610.842266 106.954509 
L 611.856452 107.23214 
L 612.870638 107.754621 
L 613.884824 108.583698 
L 614.899011 109.791546 
L 615.913197 111.450363 
L 616.927383 113.619716 
L 617.941569 116.3337 
L 618.955755 119.590126 
L 620.477035 125.380597 
L 622.505407 134.220172 
L 623.0125 136.50497 
L 623.0125 136.50497 
" style="fill:none;stroke:#7f7f7f;stroke-linecap:square;stroke-width:1.5;"/>
   </g>
   <g id="line2d_102">
    <path clip-path="url(#p58276b462e)" style="fill:none;stroke:#808080;stroke-dasharray:1.5,2.475;stroke-dashoffset:0;stroke-width:1.5;"/>
   </g>
   <g id="line2d_103">
    <path clip-path="url(#p58276b462e)" d="M 471.391667 164.315018 
L 553.033654 164.227762 
L 555.569119 163.962868 
L 557.090399 163.604419 
L 558.611678 163.005911 
L 560.132957 162.091717 
L 561.654236 160.799761 
L 563.175516 159.096223 
L 564.696795 156.994773 
L 566.725167 153.726759 
L 570.274819 147.833793 
L 573.317377 143.372042 
L 575.34575 140.189461 
L 576.867029 137.402682 
L 581.430867 128.521141 
L 582.952146 126.318785 
L 584.473425 124.573778 
L 587.515984 121.323582 
L 590.558542 117.513647 
L 592.586915 115.215068 
L 594.108194 113.823223 
L 597.657846 110.819513 
L 599.179125 109.104654 
L 600.700404 106.973097 
L 605.264242 99.934964 
L 606.278428 98.913925 
L 607.292614 98.28667 
L 608.3068 98.057527 
L 609.320987 98.163893 
L 610.842266 98.683854 
L 612.363545 99.207815 
L 613.884824 99.437807 
L 615.406104 99.548205 
L 616.42029 99.903269 
L 616.927383 100.281653 
L 617.434476 100.851125 
L 617.941569 101.652798 
L 618.448662 102.723215 
L 619.462848 105.778651 
L 620.477035 110.13006 
L 621.491221 115.697313 
L 623.0125 125.68277 
L 623.0125 125.68277 
" style="fill:none;stroke:#bcbd22;stroke-linecap:square;stroke-width:1.5;"/>
   </g>
   <g id="line2d_104">
    <path clip-path="url(#p58276b462e)" style="fill:none;stroke:#808080;stroke-dasharray:1.5,2.475;stroke-dashoffset:0;stroke-width:1.5;"/>
   </g>
   <g id="line2d_105">
    <path clip-path="url(#p58276b462e)" d="M 471.391667 164.315018 
L 557.597492 164.228845 
L 559.625864 164.009885 
L 561.147143 163.634451 
L 562.668423 162.96167 
L 563.682609 162.295829 
L 564.696795 161.427078 
L 565.710981 160.341029 
L 567.23226 158.30498 
L 568.75354 155.843147 
L 573.82447 147.103446 
L 575.852843 144.426848 
L 577.881215 141.759036 
L 578.895401 140.129486 
L 580.416681 137.118845 
L 582.445053 132.338289 
L 583.966332 128.840898 
L 584.980518 126.854749 
L 585.994705 125.240678 
L 587.008891 123.979965 
L 588.53017 122.527653 
L 590.558542 120.687848 
L 592.079822 118.938403 
L 593.601101 116.768472 
L 595.629473 113.341976 
L 598.164939 108.471321 
L 600.700404 103.520927 
L 602.221683 101.012231 
L 603.23587 99.663558 
L 604.757149 98.059774 
L 606.785521 96.059682 
L 607.799707 94.778414 
L 608.813894 93.184107 
L 610.335173 90.28277 
L 612.363545 86.356378 
L 613.377731 84.943053 
L 613.884824 84.495155 
L 614.391918 84.26306 
L 614.899011 84.276432 
L 615.406104 84.56224 
L 615.913197 85.144453 
L 616.42029 86.043706 
L 616.927383 87.276861 
L 617.941569 90.789716 
L 618.955755 95.715852 
L 619.969941 101.976123 
L 621.491221 113.356339 
L 623.0125 125.925094 
L 623.0125 125.925094 
" style="fill:none;stroke:#17becf;stroke-linecap:square;stroke-width:1.5;"/>
   </g>
   <g id="line2d_106">
    <path clip-path="url(#p58276b462e)" style="fill:none;stroke:#808080;stroke-dasharray:1.5,2.475;stroke-dashoffset:0;stroke-width:1.5;"/>
   </g>
   <g id="line2d_107">
    <path clip-path="url(#p58276b462e)" d="M 471.391667 164.315018 
L 562.668423 164.211275 
L 564.189702 164.01305 
L 565.710981 163.559536 
L 566.725167 163.031224 
L 567.739353 162.26537 
L 568.75354 161.232329 
L 569.767726 159.933356 
L 571.289005 157.577925 
L 579.909588 142.78544 
L 581.93796 138.576798 
L 585.487611 131.005736 
L 587.008891 128.424177 
L 588.53017 126.362903 
L 590.558542 123.713187 
L 591.572729 121.983628 
L 592.586915 119.75196 
L 593.601101 116.972302 
L 595.629473 110.356258 
L 597.150753 105.638381 
L 598.164939 103.14453 
L 599.179125 101.296509 
L 600.193311 100.003684 
L 601.71459 98.628899 
L 603.23587 97.269059 
L 604.757149 95.568865 
L 611.349359 87.234198 
L 613.377731 84.257743 
L 614.899011 82.105374 
L 615.406104 81.570098 
L 615.913197 81.210093 
L 616.42029 81.085479 
L 616.927383 81.259286 
L 617.434476 81.794039 
L 617.941569 82.747885 
L 618.448662 84.170508 
L 618.955755 86.099129 
L 619.969941 91.540051 
L 620.984128 99.002653 
L 622.505407 113.032605 
L 623.0125 118.111464 
L 623.0125 118.111464 
" style="fill:none;stroke:#1f77b4;stroke-linecap:square;stroke-width:1.5;"/>
   </g>
   <g id="line2d_108">
    <path clip-path="url(#p58276b462e)" style="fill:none;stroke:#808080;stroke-dasharray:1.5,2.475;stroke-dashoffset:0;stroke-width:1.5;"/>
   </g>
   <g id="line2d_109">
    <path clip-path="url(#p58276b462e)" d="M 471.391667 164.315018 
L 570.274819 164.227235 
L 571.796098 164.004706 
L 572.810284 163.663904 
L 573.82447 163.051455 
L 574.838657 162.041454 
L 575.852843 160.510729 
L 576.867029 158.374702 
L 577.881215 155.623882 
L 579.402494 150.561723 
L 582.445053 139.744019 
L 583.459239 136.78868 
L 584.473425 134.39346 
L 585.487611 132.536872 
L 587.008891 130.421163 
L 588.53017 128.371509 
L 589.544356 126.666374 
L 590.558542 124.583701 
L 592.586915 119.687726 
L 594.615287 114.992299 
L 598.164939 107.441742 
L 599.686218 103.416064 
L 601.71459 97.26928 
L 603.742963 91.1235 
L 605.264242 87.217303 
L 606.278428 85.149291 
L 607.292614 83.524024 
L 608.3068 82.262463 
L 609.82808 80.770272 
L 612.363545 78.401273 
L 615.913197 74.656915 
L 616.42029 74.394091 
L 616.927383 74.363925 
L 617.434476 74.652955 
L 617.941569 75.354169 
L 618.448662 76.560195 
L 618.955755 78.35495 
L 619.462848 80.804571 
L 619.969941 83.948679 
L 620.984128 92.305676 
L 621.998314 103.010893 
L 623.0125 115.092942 
L 623.0125 115.092942 
" style="fill:none;stroke:#ff7f0e;stroke-linecap:square;stroke-width:1.5;"/>
   </g>
   <g id="line2d_110">
    <path clip-path="url(#p58276b462e)" style="fill:none;stroke:#808080;stroke-dasharray:1.5,2.475;stroke-dashoffset:0;stroke-width:1.5;"/>
   </g>
   <g id="line2d_111">
    <path clip-path="url(#p58276b462e)" d="M 471.391667 164.315018 
L 574.331564 164.218832 
L 575.852843 163.949576 
L 576.867029 163.526563 
L 577.881215 162.766306 
L 578.895401 161.536618 
L 579.909588 159.744033 
L 580.923774 157.383554 
L 582.445053 153.046515 
L 585.487611 144.063868 
L 588.53017 135.69547 
L 590.051449 130.453871 
L 593.601101 116.907402 
L 594.615287 114.199759 
L 595.629473 112.425033 
L 596.136566 111.864112 
L 597.150753 111.237212 
L 599.686218 110.414361 
L 600.193311 110.021071 
L 600.700404 109.468886 
L 601.207497 108.732683 
L 602.221683 106.634041 
L 603.23587 103.637491 
L 604.250056 99.775923 
L 605.771335 92.793449 
L 608.813894 78.399091 
L 611.856452 64.784911 
L 614.391918 52.319065 
L 614.899011 50.445967 
L 615.406104 49.069803 
L 615.913197 48.306691 
L 616.42029 48.250394 
L 616.927383 48.967095 
L 617.434476 50.494298 
L 617.941569 52.843262 
L 618.448662 56.003521 
L 619.462848 64.635062 
L 620.477035 76.013177 
L 621.998314 96.81821 
L 623.0125 111.730403 
L 623.0125 111.730403 
" style="fill:none;stroke:#2ca02c;stroke-linecap:square;stroke-width:1.5;"/>
   </g>
   <g id="line2d_112">
    <path clip-path="url(#p58276b462e)" style="fill:none;stroke:#808080;stroke-dasharray:1.5,2.475;stroke-dashoffset:0;stroke-width:1.5;"/>
   </g>
   <g id="line2d_113">
    <path clip-path="url(#p58276b462e)" d="M 471.391667 164.315018 
L 583.459239 164.223324 
L 584.473425 164.034184 
L 585.487611 163.568712 
L 585.994705 163.15966 
L 586.501798 162.585156 
L 587.008891 161.807715 
L 587.515984 160.793176 
L 588.53017 157.958626 
L 589.544356 154.023396 
L 590.558542 149.151081 
L 592.586915 137.902057 
L 594.615287 126.794488 
L 598.672032 106.142787 
L 601.207497 91.242398 
L 601.71459 89.073332 
L 602.221683 87.409244 
L 602.728776 86.26775 
L 603.23587 85.609532 
L 603.742963 85.34233 
L 604.757149 85.414709 
L 605.264242 85.42081 
L 605.771335 85.187729 
L 606.278428 84.5807 
L 606.785521 83.506879 
L 607.292614 81.925084 
L 608.3068 77.344007 
L 611.856452 57.919932 
L 612.870638 54.406325 
L 613.884824 51.767788 
L 617.434476 43.482417 
L 617.941569 42.777987 
L 618.448662 42.615387 
L 618.955755 43.231991 
L 619.462848 44.877264 
L 619.969941 47.785277 
L 620.477035 52.140325 
L 620.984128 58.040355 
L 621.998314 74.259641 
L 623.0125 94.682063 
L 623.0125 94.682063 
" style="fill:none;stroke:#d62728;stroke-linecap:square;stroke-width:1.5;"/>
   </g>
   <g id="line2d_114">
    <path clip-path="url(#p58276b462e)" style="fill:none;stroke:#808080;stroke-dasharray:1.5,2.475;stroke-dashoffset:0;stroke-width:1.5;"/>
   </g>
   <g id="patch_9">
    <path d="M 471.391667 170.4 
L 471.391667 36.530405 
" style="fill:none;stroke:#000000;stroke-linecap:square;stroke-linejoin:miter;stroke-width:0.8;"/>
   </g>
   <g id="patch_10">
    <path d="M 471.391667 170.4 
L 623.0125 170.4 
" style="fill:none;stroke:#000000;stroke-linecap:square;stroke-linejoin:miter;stroke-width:0.8;"/>
   </g>
  </g>
  <g id="text_37">
   <!-- adaptive, info weighted, linear model, 2 fits, bias correction -->
   <g transform="translate(144.745313 13.438125)scale(0.12 -0.12)">
    <defs>
     <path d="M 34.28125 27.484375 
Q 23.390625 27.484375 19.1875 25 
Q 14.984375 22.515625 14.984375 16.5 
Q 14.984375 11.71875 18.140625 8.90625 
Q 21.296875 6.109375 26.703125 6.109375 
Q 34.1875 6.109375 38.703125 11.40625 
Q 43.21875 16.703125 43.21875 25.484375 
L 43.21875 27.484375 
z
M 52.203125 31.203125 
L 52.203125 0 
L 43.21875 0 
L 43.21875 8.296875 
Q 40.140625 3.328125 35.546875 0.953125 
Q 30.953125 -1.421875 24.3125 -1.421875 
Q 15.921875 -1.421875 10.953125 3.296875 
Q 6 8.015625 6 15.921875 
Q 6 25.140625 12.171875 29.828125 
Q 18.359375 34.515625 30.609375 34.515625 
L 43.21875 34.515625 
L 43.21875 35.40625 
Q 43.21875 41.609375 39.140625 45 
Q 35.0625 48.390625 27.6875 48.390625 
Q 23 48.390625 18.546875 47.265625 
Q 14.109375 46.140625 10.015625 43.890625 
L 10.015625 52.203125 
Q 14.9375 54.109375 19.578125 55.046875 
Q 24.21875 56 28.609375 56 
Q 40.484375 56 46.34375 49.84375 
Q 52.203125 43.703125 52.203125 31.203125 
z
" id="DejaVuSans-97"/>
     <path d="M 45.40625 46.390625 
L 45.40625 75.984375 
L 54.390625 75.984375 
L 54.390625 0 
L 45.40625 0 
L 45.40625 8.203125 
Q 42.578125 3.328125 38.25 0.953125 
Q 33.9375 -1.421875 27.875 -1.421875 
Q 17.96875 -1.421875 11.734375 6.484375 
Q 5.515625 14.40625 5.515625 27.296875 
Q 5.515625 40.1875 11.734375 48.09375 
Q 17.96875 56 27.875 56 
Q 33.9375 56 38.25 53.625 
Q 42.578125 51.265625 45.40625 46.390625 
z
M 14.796875 27.296875 
Q 14.796875 17.390625 18.875 11.75 
Q 22.953125 6.109375 30.078125 6.109375 
Q 37.203125 6.109375 41.296875 11.75 
Q 45.40625 17.390625 45.40625 27.296875 
Q 45.40625 37.203125 41.296875 42.84375 
Q 37.203125 48.484375 30.078125 48.484375 
Q 22.953125 48.484375 18.875 42.84375 
Q 14.796875 37.203125 14.796875 27.296875 
z
" id="DejaVuSans-100"/>
     <path d="M 18.109375 8.203125 
L 18.109375 -20.796875 
L 9.078125 -20.796875 
L 9.078125 54.6875 
L 18.109375 54.6875 
L 18.109375 46.390625 
Q 20.953125 51.265625 25.265625 53.625 
Q 29.59375 56 35.59375 56 
Q 45.5625 56 51.78125 48.09375 
Q 58.015625 40.1875 58.015625 27.296875 
Q 58.015625 14.40625 51.78125 6.484375 
Q 45.5625 -1.421875 35.59375 -1.421875 
Q 29.59375 -1.421875 25.265625 0.953125 
Q 20.953125 3.328125 18.109375 8.203125 
z
M 48.6875 27.296875 
Q 48.6875 37.203125 44.609375 42.84375 
Q 40.53125 48.484375 33.40625 48.484375 
Q 26.265625 48.484375 22.1875 42.84375 
Q 18.109375 37.203125 18.109375 27.296875 
Q 18.109375 17.390625 22.1875 11.75 
Q 26.265625 6.109375 33.40625 6.109375 
Q 40.53125 6.109375 44.609375 11.75 
Q 48.6875 17.390625 48.6875 27.296875 
z
" id="DejaVuSans-112"/>
     <path d="M 2.984375 54.6875 
L 12.5 54.6875 
L 29.59375 8.796875 
L 46.6875 54.6875 
L 56.203125 54.6875 
L 35.6875 0 
L 23.484375 0 
z
" id="DejaVuSans-118"/>
     <path d="M 11.71875 12.40625 
L 22.015625 12.40625 
L 22.015625 4 
L 14.015625 -11.625 
L 7.71875 -11.625 
L 11.71875 4 
z
" id="DejaVuSans-44"/>
     <path id="DejaVuSans-32"/>
     <path d="M 54.890625 33.015625 
L 54.890625 0 
L 45.90625 0 
L 45.90625 32.71875 
Q 45.90625 40.484375 42.875 44.328125 
Q 39.84375 48.1875 33.796875 48.1875 
Q 26.515625 48.1875 22.3125 43.546875 
Q 18.109375 38.921875 18.109375 30.90625 
L 18.109375 0 
L 9.078125 0 
L 9.078125 54.6875 
L 18.109375 54.6875 
L 18.109375 46.1875 
Q 21.34375 51.125 25.703125 53.5625 
Q 30.078125 56 35.796875 56 
Q 45.21875 56 50.046875 50.171875 
Q 54.890625 44.34375 54.890625 33.015625 
z
" id="DejaVuSans-110"/>
     <path d="M 37.109375 75.984375 
L 37.109375 68.5 
L 28.515625 68.5 
Q 23.6875 68.5 21.796875 66.546875 
Q 19.921875 64.59375 19.921875 59.515625 
L 19.921875 54.6875 
L 34.71875 54.6875 
L 34.71875 47.703125 
L 19.921875 47.703125 
L 19.921875 0 
L 10.890625 0 
L 10.890625 47.703125 
L 2.296875 47.703125 
L 2.296875 54.6875 
L 10.890625 54.6875 
L 10.890625 58.5 
Q 10.890625 67.625 15.140625 71.796875 
Q 19.390625 75.984375 28.609375 75.984375 
z
" id="DejaVuSans-102"/>
     <path d="M 4.203125 54.6875 
L 13.1875 54.6875 
L 24.421875 12.015625 
L 35.59375 54.6875 
L 46.1875 54.6875 
L 57.421875 12.015625 
L 68.609375 54.6875 
L 77.59375 54.6875 
L 63.28125 0 
L 52.6875 0 
L 40.921875 44.828125 
L 29.109375 0 
L 18.5 0 
z
" id="DejaVuSans-119"/>
     <path d="M 45.40625 27.984375 
Q 45.40625 37.75 41.375 43.109375 
Q 37.359375 48.484375 30.078125 48.484375 
Q 22.859375 48.484375 18.828125 43.109375 
Q 14.796875 37.75 14.796875 27.984375 
Q 14.796875 18.265625 18.828125 12.890625 
Q 22.859375 7.515625 30.078125 7.515625 
Q 37.359375 7.515625 41.375 12.890625 
Q 45.40625 18.265625 45.40625 27.984375 
z
M 54.390625 6.78125 
Q 54.390625 -7.171875 48.1875 -13.984375 
Q 42 -20.796875 29.203125 -20.796875 
Q 24.46875 -20.796875 20.265625 -20.09375 
Q 16.0625 -19.390625 12.109375 -17.921875 
L 12.109375 -9.1875 
Q 16.0625 -11.328125 19.921875 -12.34375 
Q 23.78125 -13.375 27.78125 -13.375 
Q 36.625 -13.375 41.015625 -8.765625 
Q 45.40625 -4.15625 45.40625 5.171875 
L 45.40625 9.625 
Q 42.625 4.78125 38.28125 2.390625 
Q 33.9375 0 27.875 0 
Q 17.828125 0 11.671875 7.65625 
Q 5.515625 15.328125 5.515625 27.984375 
Q 5.515625 40.671875 11.671875 48.328125 
Q 17.828125 56 27.875 56 
Q 33.9375 56 38.28125 53.609375 
Q 42.625 51.21875 45.40625 46.390625 
L 45.40625 54.6875 
L 54.390625 54.6875 
z
" id="DejaVuSans-103"/>
     <path d="M 54.890625 33.015625 
L 54.890625 0 
L 45.90625 0 
L 45.90625 32.71875 
Q 45.90625 40.484375 42.875 44.328125 
Q 39.84375 48.1875 33.796875 48.1875 
Q 26.515625 48.1875 22.3125 43.546875 
Q 18.109375 38.921875 18.109375 30.90625 
L 18.109375 0 
L 9.078125 0 
L 9.078125 75.984375 
L 18.109375 75.984375 
L 18.109375 46.1875 
Q 21.34375 51.125 25.703125 53.5625 
Q 30.078125 56 35.796875 56 
Q 45.21875 56 50.046875 50.171875 
Q 54.890625 44.34375 54.890625 33.015625 
z
" id="DejaVuSans-104"/>
     <path d="M 9.421875 75.984375 
L 18.40625 75.984375 
L 18.40625 0 
L 9.421875 0 
z
" id="DejaVuSans-108"/>
     <path d="M 52 44.1875 
Q 55.375 50.25 60.0625 53.125 
Q 64.75 56 71.09375 56 
Q 79.640625 56 84.28125 50.015625 
Q 88.921875 44.046875 88.921875 33.015625 
L 88.921875 0 
L 79.890625 0 
L 79.890625 32.71875 
Q 79.890625 40.578125 77.09375 44.375 
Q 74.3125 48.1875 68.609375 48.1875 
Q 61.625 48.1875 57.5625 43.546875 
Q 53.515625 38.921875 53.515625 30.90625 
L 53.515625 0 
L 44.484375 0 
L 44.484375 32.71875 
Q 44.484375 40.625 41.703125 44.40625 
Q 38.921875 48.1875 33.109375 48.1875 
Q 26.21875 48.1875 22.15625 43.53125 
Q 18.109375 38.875 18.109375 30.90625 
L 18.109375 0 
L 9.078125 0 
L 9.078125 54.6875 
L 18.109375 54.6875 
L 18.109375 46.1875 
Q 21.1875 51.21875 25.484375 53.609375 
Q 29.78125 56 35.6875 56 
Q 41.65625 56 45.828125 52.96875 
Q 50 49.953125 52 44.1875 
z
" id="DejaVuSans-109"/>
     <path d="M 48.6875 27.296875 
Q 48.6875 37.203125 44.609375 42.84375 
Q 40.53125 48.484375 33.40625 48.484375 
Q 26.265625 48.484375 22.1875 42.84375 
Q 18.109375 37.203125 18.109375 27.296875 
Q 18.109375 17.390625 22.1875 11.75 
Q 26.265625 6.109375 33.40625 6.109375 
Q 40.53125 6.109375 44.609375 11.75 
Q 48.6875 17.390625 48.6875 27.296875 
z
M 18.109375 46.390625 
Q 20.953125 51.265625 25.265625 53.625 
Q 29.59375 56 35.59375 56 
Q 45.5625 56 51.78125 48.09375 
Q 58.015625 40.1875 58.015625 27.296875 
Q 58.015625 14.40625 51.78125 6.484375 
Q 45.5625 -1.421875 35.59375 -1.421875 
Q 29.59375 -1.421875 25.265625 0.953125 
Q 20.953125 3.328125 18.109375 8.203125 
L 18.109375 0 
L 9.078125 0 
L 9.078125 75.984375 
L 18.109375 75.984375 
z
" id="DejaVuSans-98"/>
     <path d="M 48.78125 52.59375 
L 48.78125 44.1875 
Q 44.96875 46.296875 41.140625 47.34375 
Q 37.3125 48.390625 33.40625 48.390625 
Q 24.65625 48.390625 19.8125 42.84375 
Q 14.984375 37.3125 14.984375 27.296875 
Q 14.984375 17.28125 19.8125 11.734375 
Q 24.65625 6.203125 33.40625 6.203125 
Q 37.3125 6.203125 41.140625 7.25 
Q 44.96875 8.296875 48.78125 10.40625 
L 48.78125 2.09375 
Q 45.015625 0.34375 40.984375 -0.53125 
Q 36.96875 -1.421875 32.421875 -1.421875 
Q 20.0625 -1.421875 12.78125 6.34375 
Q 5.515625 14.109375 5.515625 27.296875 
Q 5.515625 40.671875 12.859375 48.328125 
Q 20.21875 56 33.015625 56 
Q 37.15625 56 41.109375 55.140625 
Q 45.0625 54.296875 48.78125 52.59375 
z
" id="DejaVuSans-99"/>
    </defs>
    <use xlink:href="#DejaVuSans-97"/>
    <use x="61.279297" xlink:href="#DejaVuSans-100"/>
    <use x="124.755859" xlink:href="#DejaVuSans-97"/>
    <use x="186.035156" xlink:href="#DejaVuSans-112"/>
    <use x="249.511719" xlink:href="#DejaVuSans-116"/>
    <use x="288.720703" xlink:href="#DejaVuSans-105"/>
    <use x="316.503906" xlink:href="#DejaVuSans-118"/>
    <use x="375.683594" xlink:href="#DejaVuSans-101"/>
    <use x="437.207031" xlink:href="#DejaVuSans-44"/>
    <use x="468.994141" xlink:href="#DejaVuSans-32"/>
    <use x="500.78125" xlink:href="#DejaVuSans-105"/>
    <use x="528.564453" xlink:href="#DejaVuSans-110"/>
    <use x="591.943359" xlink:href="#DejaVuSans-102"/>
    <use x="627.148438" xlink:href="#DejaVuSans-111"/>
    <use x="688.330078" xlink:href="#DejaVuSans-32"/>
    <use x="720.117188" xlink:href="#DejaVuSans-119"/>
    <use x="801.904297" xlink:href="#DejaVuSans-101"/>
    <use x="863.427734" xlink:href="#DejaVuSans-105"/>
    <use x="891.210938" xlink:href="#DejaVuSans-103"/>
    <use x="954.6875" xlink:href="#DejaVuSans-104"/>
    <use x="1018.066406" xlink:href="#DejaVuSans-116"/>
    <use x="1057.275391" xlink:href="#DejaVuSans-101"/>
    <use x="1118.798828" xlink:href="#DejaVuSans-100"/>
    <use x="1182.275391" xlink:href="#DejaVuSans-44"/>
    <use x="1214.0625" xlink:href="#DejaVuSans-32"/>
    <use x="1245.849609" xlink:href="#DejaVuSans-108"/>
    <use x="1273.632812" xlink:href="#DejaVuSans-105"/>
    <use x="1301.416016" xlink:href="#DejaVuSans-110"/>
    <use x="1364.794922" xlink:href="#DejaVuSans-101"/>
    <use x="1426.318359" xlink:href="#DejaVuSans-97"/>
    <use x="1487.597656" xlink:href="#DejaVuSans-114"/>
    <use x="1528.710938" xlink:href="#DejaVuSans-32"/>
    <use x="1560.498047" xlink:href="#DejaVuSans-109"/>
    <use x="1657.910156" xlink:href="#DejaVuSans-111"/>
    <use x="1719.091797" xlink:href="#DejaVuSans-100"/>
    <use x="1782.568359" xlink:href="#DejaVuSans-101"/>
    <use x="1844.091797" xlink:href="#DejaVuSans-108"/>
    <use x="1871.875" xlink:href="#DejaVuSans-44"/>
    <use x="1903.662109" xlink:href="#DejaVuSans-32"/>
    <use x="1935.449219" xlink:href="#DejaVuSans-50"/>
    <use x="1999.072266" xlink:href="#DejaVuSans-32"/>
    <use x="2030.859375" xlink:href="#DejaVuSans-102"/>
    <use x="2066.064453" xlink:href="#DejaVuSans-105"/>
    <use x="2093.847656" xlink:href="#DejaVuSans-116"/>
    <use x="2133.056641" xlink:href="#DejaVuSans-115"/>
    <use x="2185.15625" xlink:href="#DejaVuSans-44"/>
    <use x="2216.943359" xlink:href="#DejaVuSans-32"/>
    <use x="2248.730469" xlink:href="#DejaVuSans-98"/>
    <use x="2312.207031" xlink:href="#DejaVuSans-105"/>
    <use x="2339.990234" xlink:href="#DejaVuSans-97"/>
    <use x="2401.269531" xlink:href="#DejaVuSans-115"/>
    <use x="2453.369141" xlink:href="#DejaVuSans-32"/>
    <use x="2485.15625" xlink:href="#DejaVuSans-99"/>
    <use x="2540.136719" xlink:href="#DejaVuSans-111"/>
    <use x="2601.318359" xlink:href="#DejaVuSans-114"/>
    <use x="2640.681641" xlink:href="#DejaVuSans-114"/>
    <use x="2679.544922" xlink:href="#DejaVuSans-101"/>
    <use x="2741.068359" xlink:href="#DejaVuSans-99"/>
    <use x="2796.048828" xlink:href="#DejaVuSans-116"/>
    <use x="2835.257812" xlink:href="#DejaVuSans-105"/>
    <use x="2863.041016" xlink:href="#DejaVuSans-111"/>
    <use x="2924.222656" xlink:href="#DejaVuSans-110"/>
   </g>
  </g>
 </g>
 <defs>
  <clipPath id="p75ddffd18d">
   <rect height="133.869595" width="151.620833" x="44.425" y="36.530405"/>
  </clipPath>
  <clipPath id="p525f4c3051">
   <rect height="133.869595" width="151.620833" x="257.908333" y="36.530405"/>
  </clipPath>
  <clipPath id="p58276b462e">
   <rect height="133.869595" width="151.620833" x="471.391667" y="36.530405"/>
  </clipPath>
 </defs>
</svg>
