<?xml version="1.0" encoding="utf-8" standalone="no"?>
<!DOCTYPE svg PUBLIC "-//W3C//DTD SVG 1.1//EN"
  "http://www.w3.org/Graphics/SVG/1.1/DTD/svg11.dtd">
<!-- Created with matplotlib (https://matplotlib.org/) -->
<svg height="216pt" version="1.1" viewBox="0 0 648 216" width="648pt" xmlns="http://www.w3.org/2000/svg" xmlns:xlink="http://www.w3.org/1999/xlink">
 <metadata>
  <rdf:RDF xmlns:cc="http://creativecommons.org/ns#" xmlns:dc="http://purl.org/dc/elements/1.1/" xmlns:rdf="http://www.w3.org/1999/02/22-rdf-syntax-ns#">
   <cc:Work>
    <dc:type rdf:resource="http://purl.org/dc/dcmitype/StillImage"/>
    <dc:date>2021-04-22T11:29:29.671088</dc:date>
    <dc:format>image/svg+xml</dc:format>
    <dc:creator>
     <cc:Agent>
      <dc:title>Matplotlib v3.3.4, https://matplotlib.org/</dc:title>
     </cc:Agent>
    </dc:creator>
   </cc:Work>
  </rdf:RDF>
 </metadata>
 <defs>
  <style type="text/css">*{stroke-linecap:butt;stroke-linejoin:round;}</style>
 </defs>
 <g id="figure_1">
  <g id="patch_1">
   <path d="M 0 216 
L 648 216 
L 648 0 
L 0 0 
z
" style="fill:none;"/>
  </g>
  <g id="axes_1">
   <g id="patch_2">
    <path d="M 44.55 170.4 
L 179.295833 170.4 
L 179.295833 37.551187 
L 44.55 37.551187 
z
" style="fill:#ffffff;"/>
   </g>
   <g id="matplotlib.axis_1">
    <g id="xtick_1">
     <g id="line2d_1">
      <defs>
       <path d="M 0 0 
L 0 3.5 
" id="md2801459a6" style="stroke:#000000;stroke-width:0.8;"/>
      </defs>
      <g>
       <use style="stroke:#000000;stroke-width:0.8;" x="44.55" xlink:href="#md2801459a6" y="170.4"/>
      </g>
     </g>
     <g id="text_1">
      <!-- 0.000 -->
      <g transform="translate(30.235938 184.998437)scale(0.1 -0.1)">
       <defs>
        <path d="M 31.78125 66.40625 
Q 24.171875 66.40625 20.328125 58.90625 
Q 16.5 51.421875 16.5 36.375 
Q 16.5 21.390625 20.328125 13.890625 
Q 24.171875 6.390625 31.78125 6.390625 
Q 39.453125 6.390625 43.28125 13.890625 
Q 47.125 21.390625 47.125 36.375 
Q 47.125 51.421875 43.28125 58.90625 
Q 39.453125 66.40625 31.78125 66.40625 
z
M 31.78125 74.21875 
Q 44.046875 74.21875 50.515625 64.515625 
Q 56.984375 54.828125 56.984375 36.375 
Q 56.984375 17.96875 50.515625 8.265625 
Q 44.046875 -1.421875 31.78125 -1.421875 
Q 19.53125 -1.421875 13.0625 8.265625 
Q 6.59375 17.96875 6.59375 36.375 
Q 6.59375 54.828125 13.0625 64.515625 
Q 19.53125 74.21875 31.78125 74.21875 
z
" id="DejaVuSans-48"/>
        <path d="M 10.6875 12.40625 
L 21 12.40625 
L 21 0 
L 10.6875 0 
z
" id="DejaVuSans-46"/>
       </defs>
       <use xlink:href="#DejaVuSans-48"/>
       <use x="63.623047" xlink:href="#DejaVuSans-46"/>
       <use x="95.410156" xlink:href="#DejaVuSans-48"/>
       <use x="159.033203" xlink:href="#DejaVuSans-48"/>
       <use x="222.65625" xlink:href="#DejaVuSans-48"/>
      </g>
     </g>
    </g>
    <g id="xtick_2">
     <g id="line2d_2">
      <g>
       <use style="stroke:#000000;stroke-width:0.8;" x="78.236458" xlink:href="#md2801459a6" y="170.4"/>
      </g>
     </g>
     <g id="text_2">
      <!-- 0.025 -->
      <g transform="translate(63.922396 184.998437)scale(0.1 -0.1)">
       <defs>
        <path d="M 19.1875 8.296875 
L 53.609375 8.296875 
L 53.609375 0 
L 7.328125 0 
L 7.328125 8.296875 
Q 12.9375 14.109375 22.625 23.890625 
Q 32.328125 33.6875 34.8125 36.53125 
Q 39.546875 41.84375 41.421875 45.53125 
Q 43.3125 49.21875 43.3125 52.78125 
Q 43.3125 58.59375 39.234375 62.25 
Q 35.15625 65.921875 28.609375 65.921875 
Q 23.96875 65.921875 18.8125 64.3125 
Q 13.671875 62.703125 7.8125 59.421875 
L 7.8125 69.390625 
Q 13.765625 71.78125 18.9375 73 
Q 24.125 74.21875 28.421875 74.21875 
Q 39.75 74.21875 46.484375 68.546875 
Q 53.21875 62.890625 53.21875 53.421875 
Q 53.21875 48.921875 51.53125 44.890625 
Q 49.859375 40.875 45.40625 35.40625 
Q 44.1875 33.984375 37.640625 27.21875 
Q 31.109375 20.453125 19.1875 8.296875 
z
" id="DejaVuSans-50"/>
        <path d="M 10.796875 72.90625 
L 49.515625 72.90625 
L 49.515625 64.59375 
L 19.828125 64.59375 
L 19.828125 46.734375 
Q 21.96875 47.46875 24.109375 47.828125 
Q 26.265625 48.1875 28.421875 48.1875 
Q 40.625 48.1875 47.75 41.5 
Q 54.890625 34.8125 54.890625 23.390625 
Q 54.890625 11.625 47.5625 5.09375 
Q 40.234375 -1.421875 26.90625 -1.421875 
Q 22.3125 -1.421875 17.546875 -0.640625 
Q 12.796875 0.140625 7.71875 1.703125 
L 7.71875 11.625 
Q 12.109375 9.234375 16.796875 8.0625 
Q 21.484375 6.890625 26.703125 6.890625 
Q 35.15625 6.890625 40.078125 11.328125 
Q 45.015625 15.765625 45.015625 23.390625 
Q 45.015625 31 40.078125 35.4375 
Q 35.15625 39.890625 26.703125 39.890625 
Q 22.75 39.890625 18.8125 39.015625 
Q 14.890625 38.140625 10.796875 36.28125 
z
" id="DejaVuSans-53"/>
       </defs>
       <use xlink:href="#DejaVuSans-48"/>
       <use x="63.623047" xlink:href="#DejaVuSans-46"/>
       <use x="95.410156" xlink:href="#DejaVuSans-48"/>
       <use x="159.033203" xlink:href="#DejaVuSans-50"/>
       <use x="222.65625" xlink:href="#DejaVuSans-53"/>
      </g>
     </g>
    </g>
    <g id="xtick_3">
     <g id="line2d_3">
      <g>
       <use style="stroke:#000000;stroke-width:0.8;" x="111.922917" xlink:href="#md2801459a6" y="170.4"/>
      </g>
     </g>
     <g id="text_3">
      <!-- 0.050 -->
      <g transform="translate(97.608854 184.998437)scale(0.1 -0.1)">
       <use xlink:href="#DejaVuSans-48"/>
       <use x="63.623047" xlink:href="#DejaVuSans-46"/>
       <use x="95.410156" xlink:href="#DejaVuSans-48"/>
       <use x="159.033203" xlink:href="#DejaVuSans-53"/>
       <use x="222.65625" xlink:href="#DejaVuSans-48"/>
      </g>
     </g>
    </g>
    <g id="xtick_4">
     <g id="line2d_4">
      <g>
       <use style="stroke:#000000;stroke-width:0.8;" x="145.609375" xlink:href="#md2801459a6" y="170.4"/>
      </g>
     </g>
     <g id="text_4">
      <!-- 0.075 -->
      <g transform="translate(131.295312 184.998437)scale(0.1 -0.1)">
       <defs>
        <path d="M 8.203125 72.90625 
L 55.078125 72.90625 
L 55.078125 68.703125 
L 28.609375 0 
L 18.3125 0 
L 43.21875 64.59375 
L 8.203125 64.59375 
z
" id="DejaVuSans-55"/>
       </defs>
       <use xlink:href="#DejaVuSans-48"/>
       <use x="63.623047" xlink:href="#DejaVuSans-46"/>
       <use x="95.410156" xlink:href="#DejaVuSans-48"/>
       <use x="159.033203" xlink:href="#DejaVuSans-55"/>
       <use x="222.65625" xlink:href="#DejaVuSans-53"/>
      </g>
     </g>
    </g>
    <g id="xtick_5">
     <g id="line2d_5">
      <g>
       <use style="stroke:#000000;stroke-width:0.8;" x="179.295833" xlink:href="#md2801459a6" y="170.4"/>
      </g>
     </g>
     <g id="text_5">
      <!-- 0.100 -->
      <g transform="translate(164.981771 184.998437)scale(0.1 -0.1)">
       <defs>
        <path d="M 12.40625 8.296875 
L 28.515625 8.296875 
L 28.515625 63.921875 
L 10.984375 60.40625 
L 10.984375 69.390625 
L 28.421875 72.90625 
L 38.28125 72.90625 
L 38.28125 8.296875 
L 54.390625 8.296875 
L 54.390625 0 
L 12.40625 0 
z
" id="DejaVuSans-49"/>
       </defs>
       <use xlink:href="#DejaVuSans-48"/>
       <use x="63.623047" xlink:href="#DejaVuSans-46"/>
       <use x="95.410156" xlink:href="#DejaVuSans-49"/>
       <use x="159.033203" xlink:href="#DejaVuSans-48"/>
       <use x="222.65625" xlink:href="#DejaVuSans-48"/>
      </g>
     </g>
    </g>
    <g id="text_6">
     <!-- $\theta_0$ -->
     <g transform="translate(106.472917 198.676562)scale(0.1 -0.1)">
      <defs>
       <path d="M 45.515625 34.671875 
L 14.453125 34.671875 
Q 12.359375 20.0625 14.5 13.875 
Q 17.1875 6.25 24.46875 6.25 
Q 31.78125 6.25 37.359375 13.921875 
Q 42.234375 20.65625 45.515625 34.671875 
z
M 47.015625 42.96875 
Q 48.34375 56.84375 46.625 61.71875 
Q 43.953125 69.4375 36.765625 69.4375 
Q 29.296875 69.4375 23.828125 61.8125 
Q 19.53125 55.671875 16.15625 42.96875 
z
M 38.1875 76.765625 
Q 49.90625 76.765625 54.59375 66.40625 
Q 59.28125 56.109375 55.71875 37.84375 
Q 52.203125 19.625 43.453125 9.28125 
Q 34.765625 -1.125 23.046875 -1.125 
Q 11.28125 -1.125 6.640625 9.28125 
Q 2 19.625 5.515625 37.84375 
Q 9.078125 56.109375 17.71875 66.40625 
Q 26.421875 76.765625 38.1875 76.765625 
z
" id="DejaVuSans-Oblique-952"/>
      </defs>
      <use transform="translate(0 0.234375)" xlink:href="#DejaVuSans-Oblique-952"/>
      <use transform="translate(61.181641 -16.171875)scale(0.7)" xlink:href="#DejaVuSans-48"/>
     </g>
    </g>
   </g>
   <g id="matplotlib.axis_2">
    <g id="ytick_1">
     <g id="line2d_6">
      <defs>
       <path d="M 0 0 
L -3.5 0 
" id="mc5504031eb" style="stroke:#000000;stroke-width:0.8;"/>
      </defs>
      <g>
       <use style="stroke:#000000;stroke-width:0.8;" x="44.55" xlink:href="#mc5504031eb" y="159.164504"/>
      </g>
     </g>
     <g id="text_7">
      <!-- 4 -->
      <g transform="translate(31.1875 162.963723)scale(0.1 -0.1)">
       <defs>
        <path d="M 37.796875 64.3125 
L 12.890625 25.390625 
L 37.796875 25.390625 
z
M 35.203125 72.90625 
L 47.609375 72.90625 
L 47.609375 25.390625 
L 58.015625 25.390625 
L 58.015625 17.1875 
L 47.609375 17.1875 
L 47.609375 0 
L 37.796875 0 
L 37.796875 17.1875 
L 4.890625 17.1875 
L 4.890625 26.703125 
z
" id="DejaVuSans-52"/>
       </defs>
       <use xlink:href="#DejaVuSans-52"/>
      </g>
     </g>
    </g>
    <g id="ytick_2">
     <g id="line2d_7">
      <g>
       <use style="stroke:#000000;stroke-width:0.8;" x="44.55" xlink:href="#mc5504031eb" y="128.974772"/>
      </g>
     </g>
     <g id="text_8">
      <!-- 6 -->
      <g transform="translate(31.1875 132.77399)scale(0.1 -0.1)">
       <defs>
        <path d="M 33.015625 40.375 
Q 26.375 40.375 22.484375 35.828125 
Q 18.609375 31.296875 18.609375 23.390625 
Q 18.609375 15.53125 22.484375 10.953125 
Q 26.375 6.390625 33.015625 6.390625 
Q 39.65625 6.390625 43.53125 10.953125 
Q 47.40625 15.53125 47.40625 23.390625 
Q 47.40625 31.296875 43.53125 35.828125 
Q 39.65625 40.375 33.015625 40.375 
z
M 52.59375 71.296875 
L 52.59375 62.3125 
Q 48.875 64.0625 45.09375 64.984375 
Q 41.3125 65.921875 37.59375 65.921875 
Q 27.828125 65.921875 22.671875 59.328125 
Q 17.53125 52.734375 16.796875 39.40625 
Q 19.671875 43.65625 24.015625 45.921875 
Q 28.375 48.1875 33.59375 48.1875 
Q 44.578125 48.1875 50.953125 41.515625 
Q 57.328125 34.859375 57.328125 23.390625 
Q 57.328125 12.15625 50.6875 5.359375 
Q 44.046875 -1.421875 33.015625 -1.421875 
Q 20.359375 -1.421875 13.671875 8.265625 
Q 6.984375 17.96875 6.984375 36.375 
Q 6.984375 53.65625 15.1875 63.9375 
Q 23.390625 74.21875 37.203125 74.21875 
Q 40.921875 74.21875 44.703125 73.484375 
Q 48.484375 72.75 52.59375 71.296875 
z
" id="DejaVuSans-54"/>
       </defs>
       <use xlink:href="#DejaVuSans-54"/>
      </g>
     </g>
    </g>
    <g id="ytick_3">
     <g id="line2d_8">
      <g>
       <use style="stroke:#000000;stroke-width:0.8;" x="44.55" xlink:href="#mc5504031eb" y="98.785039"/>
      </g>
     </g>
     <g id="text_9">
      <!-- 8 -->
      <g transform="translate(31.1875 102.584258)scale(0.1 -0.1)">
       <defs>
        <path d="M 31.78125 34.625 
Q 24.75 34.625 20.71875 30.859375 
Q 16.703125 27.09375 16.703125 20.515625 
Q 16.703125 13.921875 20.71875 10.15625 
Q 24.75 6.390625 31.78125 6.390625 
Q 38.8125 6.390625 42.859375 10.171875 
Q 46.921875 13.96875 46.921875 20.515625 
Q 46.921875 27.09375 42.890625 30.859375 
Q 38.875 34.625 31.78125 34.625 
z
M 21.921875 38.8125 
Q 15.578125 40.375 12.03125 44.71875 
Q 8.5 49.078125 8.5 55.328125 
Q 8.5 64.0625 14.71875 69.140625 
Q 20.953125 74.21875 31.78125 74.21875 
Q 42.671875 74.21875 48.875 69.140625 
Q 55.078125 64.0625 55.078125 55.328125 
Q 55.078125 49.078125 51.53125 44.71875 
Q 48 40.375 41.703125 38.8125 
Q 48.828125 37.15625 52.796875 32.3125 
Q 56.78125 27.484375 56.78125 20.515625 
Q 56.78125 9.90625 50.3125 4.234375 
Q 43.84375 -1.421875 31.78125 -1.421875 
Q 19.734375 -1.421875 13.25 4.234375 
Q 6.78125 9.90625 6.78125 20.515625 
Q 6.78125 27.484375 10.78125 32.3125 
Q 14.796875 37.15625 21.921875 38.8125 
z
M 18.3125 54.390625 
Q 18.3125 48.734375 21.84375 45.5625 
Q 25.390625 42.390625 31.78125 42.390625 
Q 38.140625 42.390625 41.71875 45.5625 
Q 45.3125 48.734375 45.3125 54.390625 
Q 45.3125 60.0625 41.71875 63.234375 
Q 38.140625 66.40625 31.78125 66.40625 
Q 25.390625 66.40625 21.84375 63.234375 
Q 18.3125 60.0625 18.3125 54.390625 
z
" id="DejaVuSans-56"/>
       </defs>
       <use xlink:href="#DejaVuSans-56"/>
      </g>
     </g>
    </g>
    <g id="ytick_4">
     <g id="line2d_9">
      <g>
       <use style="stroke:#000000;stroke-width:0.8;" x="44.55" xlink:href="#mc5504031eb" y="68.595307"/>
      </g>
     </g>
     <g id="text_10">
      <!-- 10 -->
      <g transform="translate(24.825 72.394526)scale(0.1 -0.1)">
       <use xlink:href="#DejaVuSans-49"/>
       <use x="63.623047" xlink:href="#DejaVuSans-48"/>
      </g>
     </g>
    </g>
    <g id="ytick_5">
     <g id="line2d_10">
      <g>
       <use style="stroke:#000000;stroke-width:0.8;" x="44.55" xlink:href="#mc5504031eb" y="38.405575"/>
      </g>
     </g>
     <g id="text_11">
      <!-- 12 -->
      <g transform="translate(24.825 42.204794)scale(0.1 -0.1)">
       <use xlink:href="#DejaVuSans-49"/>
       <use x="63.623047" xlink:href="#DejaVuSans-50"/>
      </g>
     </g>
    </g>
    <g id="text_12">
     <!-- Posterior -->
     <g transform="translate(18.745313 126.069344)rotate(-90)scale(0.1 -0.1)">
      <defs>
       <path d="M 19.671875 64.796875 
L 19.671875 37.40625 
L 32.078125 37.40625 
Q 38.96875 37.40625 42.71875 40.96875 
Q 46.484375 44.53125 46.484375 51.125 
Q 46.484375 57.671875 42.71875 61.234375 
Q 38.96875 64.796875 32.078125 64.796875 
z
M 9.8125 72.90625 
L 32.078125 72.90625 
Q 44.34375 72.90625 50.609375 67.359375 
Q 56.890625 61.8125 56.890625 51.125 
Q 56.890625 40.328125 50.609375 34.8125 
Q 44.34375 29.296875 32.078125 29.296875 
L 19.671875 29.296875 
L 19.671875 0 
L 9.8125 0 
z
" id="DejaVuSans-80"/>
       <path d="M 30.609375 48.390625 
Q 23.390625 48.390625 19.1875 42.75 
Q 14.984375 37.109375 14.984375 27.296875 
Q 14.984375 17.484375 19.15625 11.84375 
Q 23.34375 6.203125 30.609375 6.203125 
Q 37.796875 6.203125 41.984375 11.859375 
Q 46.1875 17.53125 46.1875 27.296875 
Q 46.1875 37.015625 41.984375 42.703125 
Q 37.796875 48.390625 30.609375 48.390625 
z
M 30.609375 56 
Q 42.328125 56 49.015625 48.375 
Q 55.71875 40.765625 55.71875 27.296875 
Q 55.71875 13.875 49.015625 6.21875 
Q 42.328125 -1.421875 30.609375 -1.421875 
Q 18.84375 -1.421875 12.171875 6.21875 
Q 5.515625 13.875 5.515625 27.296875 
Q 5.515625 40.765625 12.171875 48.375 
Q 18.84375 56 30.609375 56 
z
" id="DejaVuSans-111"/>
       <path d="M 44.28125 53.078125 
L 44.28125 44.578125 
Q 40.484375 46.53125 36.375 47.5 
Q 32.28125 48.484375 27.875 48.484375 
Q 21.1875 48.484375 17.84375 46.4375 
Q 14.5 44.390625 14.5 40.28125 
Q 14.5 37.15625 16.890625 35.375 
Q 19.28125 33.59375 26.515625 31.984375 
L 29.59375 31.296875 
Q 39.15625 29.25 43.1875 25.515625 
Q 47.21875 21.78125 47.21875 15.09375 
Q 47.21875 7.46875 41.1875 3.015625 
Q 35.15625 -1.421875 24.609375 -1.421875 
Q 20.21875 -1.421875 15.453125 -0.5625 
Q 10.6875 0.296875 5.421875 2 
L 5.421875 11.28125 
Q 10.40625 8.6875 15.234375 7.390625 
Q 20.0625 6.109375 24.8125 6.109375 
Q 31.15625 6.109375 34.5625 8.28125 
Q 37.984375 10.453125 37.984375 14.40625 
Q 37.984375 18.0625 35.515625 20.015625 
Q 33.0625 21.96875 24.703125 23.78125 
L 21.578125 24.515625 
Q 13.234375 26.265625 9.515625 29.90625 
Q 5.8125 33.546875 5.8125 39.890625 
Q 5.8125 47.609375 11.28125 51.796875 
Q 16.75 56 26.8125 56 
Q 31.78125 56 36.171875 55.265625 
Q 40.578125 54.546875 44.28125 53.078125 
z
" id="DejaVuSans-115"/>
       <path d="M 18.3125 70.21875 
L 18.3125 54.6875 
L 36.8125 54.6875 
L 36.8125 47.703125 
L 18.3125 47.703125 
L 18.3125 18.015625 
Q 18.3125 11.328125 20.140625 9.421875 
Q 21.96875 7.515625 27.59375 7.515625 
L 36.8125 7.515625 
L 36.8125 0 
L 27.59375 0 
Q 17.1875 0 13.234375 3.875 
Q 9.28125 7.765625 9.28125 18.015625 
L 9.28125 47.703125 
L 2.6875 47.703125 
L 2.6875 54.6875 
L 9.28125 54.6875 
L 9.28125 70.21875 
z
" id="DejaVuSans-116"/>
       <path d="M 56.203125 29.59375 
L 56.203125 25.203125 
L 14.890625 25.203125 
Q 15.484375 15.921875 20.484375 11.0625 
Q 25.484375 6.203125 34.421875 6.203125 
Q 39.59375 6.203125 44.453125 7.46875 
Q 49.3125 8.734375 54.109375 11.28125 
L 54.109375 2.78125 
Q 49.265625 0.734375 44.1875 -0.34375 
Q 39.109375 -1.421875 33.890625 -1.421875 
Q 20.796875 -1.421875 13.15625 6.1875 
Q 5.515625 13.8125 5.515625 26.8125 
Q 5.515625 40.234375 12.765625 48.109375 
Q 20.015625 56 32.328125 56 
Q 43.359375 56 49.78125 48.890625 
Q 56.203125 41.796875 56.203125 29.59375 
z
M 47.21875 32.234375 
Q 47.125 39.59375 43.09375 43.984375 
Q 39.0625 48.390625 32.421875 48.390625 
Q 24.90625 48.390625 20.390625 44.140625 
Q 15.875 39.890625 15.1875 32.171875 
z
" id="DejaVuSans-101"/>
       <path d="M 41.109375 46.296875 
Q 39.59375 47.171875 37.8125 47.578125 
Q 36.03125 48 33.890625 48 
Q 26.265625 48 22.1875 43.046875 
Q 18.109375 38.09375 18.109375 28.8125 
L 18.109375 0 
L 9.078125 0 
L 9.078125 54.6875 
L 18.109375 54.6875 
L 18.109375 46.1875 
Q 20.953125 51.171875 25.484375 53.578125 
Q 30.03125 56 36.53125 56 
Q 37.453125 56 38.578125 55.875 
Q 39.703125 55.765625 41.0625 55.515625 
z
" id="DejaVuSans-114"/>
       <path d="M 9.421875 54.6875 
L 18.40625 54.6875 
L 18.40625 0 
L 9.421875 0 
z
M 9.421875 75.984375 
L 18.40625 75.984375 
L 18.40625 64.59375 
L 9.421875 64.59375 
z
" id="DejaVuSans-105"/>
      </defs>
      <use xlink:href="#DejaVuSans-80"/>
      <use x="56.677734" xlink:href="#DejaVuSans-111"/>
      <use x="117.859375" xlink:href="#DejaVuSans-115"/>
      <use x="169.958984" xlink:href="#DejaVuSans-116"/>
      <use x="209.167969" xlink:href="#DejaVuSans-101"/>
      <use x="270.691406" xlink:href="#DejaVuSans-114"/>
      <use x="311.804688" xlink:href="#DejaVuSans-105"/>
      <use x="339.587891" xlink:href="#DejaVuSans-111"/>
      <use x="400.769531" xlink:href="#DejaVuSans-114"/>
     </g>
    </g>
   </g>
   <g id="line2d_11">
    <path clip-path="url(#p75e3c0d15c)" d="M 44.55 152.113238 
L 52.211134 106.828699 
L 54.464409 95.218632 
L 56.267029 86.896142 
L 58.069649 79.493159 
L 59.872269 73.016304 
L 61.674889 67.442345 
L 63.477508 62.734824 
L 64.829473 59.750507 
L 66.181438 57.219746 
L 67.533403 55.132014 
L 68.885368 53.478409 
L 70.237333 52.249925 
L 71.138643 51.661718 
L 72.039953 51.2532 
L 72.941263 51.018902 
L 73.842572 50.952032 
L 74.743882 51.044348 
L 76.095847 51.459589 
L 77.447812 52.171788 
L 78.799777 53.135552 
L 80.602397 54.724663 
L 83.306327 57.50404 
L 87.812876 62.203763 
L 90.066151 64.192076 
L 91.868771 65.493063 
L 93.671391 66.498202 
L 95.474011 67.192898 
L 97.27663 67.580837 
L 99.07925 67.682735 
L 100.88187 67.534998 
L 103.135145 67.077214 
L 106.28973 66.153069 
L 109.894969 65.149592 
L 112.148244 64.79024 
L 113.950864 64.739628 
L 115.753484 64.933492 
L 117.556104 65.376831 
L 119.358724 66.046782 
L 121.611998 67.123 
L 127.019858 69.839769 
L 128.822478 70.450307 
L 130.625098 70.780278 
L 131.977062 70.819293 
L 133.329027 70.676422 
L 135.131647 70.223915 
L 136.934267 69.528783 
L 140.539507 67.796819 
L 142.792781 66.818797 
L 144.595401 66.280583 
L 145.947366 66.086038 
L 147.299331 66.109363 
L 148.651296 66.377265 
L 150.003261 66.908882 
L 151.355226 67.71623 
L 152.707191 68.805111 
L 154.059156 70.176455 
L 155.41112 71.828012 
L 157.21374 74.460098 
L 159.01636 77.579615 
L 160.81898 81.19315 
L 162.6216 85.32472 
L 164.42422 90.017565 
L 166.226839 95.329876 
L 168.029459 101.323876 
L 169.832079 108.049333 
L 171.634699 115.524261 
L 173.887974 125.867635 
L 176.591904 139.46128 
L 179.295833 153.732992 
L 179.295833 153.732992 
" style="fill:none;stroke:#1f77b4;stroke-linecap:square;stroke-width:1.5;"/>
   </g>
   <g id="line2d_12">
    <path clip-path="url(#p75e3c0d15c)" d="M 98.448333 170.4 
L 98.448333 37.551187 
" style="fill:none;stroke:#808080;stroke-dasharray:1.5,2.475;stroke-dashoffset:0;stroke-width:1.5;"/>
   </g>
   <g id="line2d_13">
    <path clip-path="url(#p75e3c0d15c)" d="M 44.55 147.447314 
L 50.408514 114.624126 
L 53.112444 100.874042 
L 55.365719 90.587401 
L 57.168339 83.223592 
L 58.970959 76.65232 
L 60.773579 70.85859 
L 62.576198 65.802314 
L 64.378818 61.429148 
L 66.181438 57.682357 
L 67.984058 54.51419 
L 69.786678 51.894737 
L 71.138643 50.284755 
L 72.490608 48.983214 
L 73.842572 47.999563 
L 75.194537 47.345326 
L 76.546502 47.030549 
L 77.447812 47.011932 
L 78.349122 47.145714 
L 79.701087 47.624872 
L 81.053052 48.418153 
L 82.405017 49.489369 
L 84.207637 51.259673 
L 87.362221 54.835483 
L 89.615496 57.289009 
L 91.418116 58.916557 
L 92.770081 59.845926 
L 94.122046 60.480845 
L 95.474011 60.803506 
L 96.825975 60.818138 
L 98.17794 60.55024 
L 99.529905 60.04399 
L 101.332525 59.101024 
L 106.740385 55.963468 
L 108.543004 55.267832 
L 110.345624 54.867503 
L 112.148244 54.754964 
L 113.950864 54.877777 
L 116.654794 55.324837 
L 121.611998 56.186242 
L 128.822478 57.207676 
L 130.625098 57.782992 
L 132.427717 58.630531 
L 134.230337 59.794895 
L 136.032957 61.295158 
L 137.835577 63.125753 
L 139.638197 65.261077 
L 141.891472 68.299022 
L 144.595401 72.371467 
L 147.749986 77.546229 
L 151.355226 83.867794 
L 154.960465 90.599452 
L 158.11505 96.910228 
L 160.81898 102.744693 
L 163.52291 109.11506 
L 165.776185 114.964601 
L 168.029459 121.434469 
L 170.282734 128.632981 
L 172.536009 136.618014 
L 175.239939 147.183427 
L 178.845178 162.418946 
L 179.295833 164.361418 
L 179.295833 164.361418 
" style="fill:none;stroke:#ff7f0e;stroke-linecap:square;stroke-width:1.5;"/>
   </g>
   <g id="line2d_14">
    <path clip-path="url(#p75e3c0d15c)" d="M 98.448333 170.4 
L 98.448333 37.551187 
" style="fill:none;stroke:#808080;stroke-dasharray:1.5,2.475;stroke-dashoffset:0;stroke-width:1.5;"/>
   </g>
   <g id="line2d_15">
    <path clip-path="url(#p75e3c0d15c)" d="M 44.55 149.640311 
L 50.859169 114.851126 
L 53.112444 103.711837 
L 54.915064 95.67778 
L 56.717684 88.536827 
L 58.520304 82.338096 
L 60.322924 77.079817 
L 61.674889 73.726023 
L 63.026853 70.8404 
L 64.378818 68.378617 
L 65.730783 66.289611 
L 67.082748 64.518746 
L 68.885368 62.557802 
L 70.687988 60.943594 
L 72.941263 59.260632 
L 75.645192 57.557773 
L 78.349122 56.10626 
L 81.053052 54.921491 
L 83.306327 54.197966 
L 85.108946 53.834422 
L 86.911566 53.692279 
L 88.714186 53.793762 
L 90.516806 54.155092 
L 92.319426 54.786362 
L 94.122046 55.691105 
L 95.924666 56.865029 
L 97.727285 58.293953 
L 99.98056 60.397208 
L 102.68449 63.273226 
L 109.894969 71.178577 
L 112.148244 73.172193 
L 113.950864 74.45892 
L 115.753484 75.433668 
L 117.105449 75.949469 
L 118.457414 76.279186 
L 119.809378 76.425965 
L 121.161343 76.396069 
L 122.963963 76.095934 
L 124.766583 75.519163 
L 126.569203 74.689671 
L 128.371823 73.632883 
L 130.625098 72.038278 
L 133.329027 69.832316 
L 138.286232 65.705704 
L 140.088852 64.502937 
L 141.440817 63.817977 
L 142.792781 63.370539 
L 144.144746 63.200046 
L 145.496711 63.336359 
L 146.848676 63.797473 
L 148.200641 64.588241 
L 149.552606 65.700344 
L 150.904571 67.113594 
L 152.707191 69.414483 
L 154.50981 72.113856 
L 156.763085 75.922826 
L 159.467015 80.986583 
L 162.170945 86.572679 
L 164.42422 91.7653 
L 166.226839 96.418568 
L 168.029459 101.648918 
L 169.832079 107.567173 
L 171.634699 114.246533 
L 173.437319 121.701523 
L 175.690594 132.016196 
L 178.845178 147.77886 
L 179.295833 150.097338 
L 179.295833 150.097338 
" style="fill:none;stroke:#2ca02c;stroke-linecap:square;stroke-width:1.5;"/>
   </g>
   <g id="line2d_16">
    <path clip-path="url(#p75e3c0d15c)" d="M 98.448333 170.4 
L 98.448333 37.551187 
" style="fill:none;stroke:#808080;stroke-dasharray:1.5,2.475;stroke-dashoffset:0;stroke-width:1.5;"/>
   </g>
   <g id="line2d_17">
    <path clip-path="url(#p75e3c0d15c)" d="M 44.55 147.236876 
L 48.605895 125.082008 
L 50.859169 113.97885 
L 52.661789 106.075252 
L 54.464409 99.16899 
L 56.267029 93.298778 
L 57.618994 89.561989 
L 58.970959 86.363204 
L 60.322924 83.659864 
L 61.674889 81.401831 
L 63.026853 79.535139 
L 64.378818 78.004933 
L 65.730783 76.757458 
L 67.533403 75.445127 
L 69.336023 74.428303 
L 72.039953 73.220482 
L 76.095847 71.464524 
L 78.349122 70.223787 
L 80.602397 68.683451 
L 82.855672 66.862774 
L 88.263531 62.278764 
L 90.066151 61.127743 
L 91.418116 60.528197 
L 92.770081 60.203173 
L 94.122046 60.180209 
L 95.474011 60.46873 
L 96.825975 61.058588 
L 98.17794 61.920327 
L 99.98056 63.409256 
L 102.68449 66.060627 
L 105.839075 69.097368 
L 107.641695 70.500652 
L 108.993659 71.306824 
L 110.345624 71.871188 
L 111.697589 72.183011 
L 113.049554 72.246094 
L 114.401519 72.07666 
L 115.753484 71.700526 
L 117.556104 70.933755 
L 119.809378 69.668105 
L 123.414618 67.301323 
L 127.921168 64.3915 
L 131.075753 62.643909 
L 133.779682 61.393651 
L 136.483612 60.380064 
L 139.187542 59.607085 
L 141.440817 59.160824 
L 143.694091 58.923738 
L 145.947366 58.94176 
L 147.749986 59.18148 
L 149.552606 59.663145 
L 151.355226 60.431131 
L 152.707191 61.225196 
L 154.059156 62.232864 
L 155.41112 63.481485 
L 156.763085 65.002027 
L 158.11505 66.82931 
L 159.467015 69.001724 
L 160.81898 71.560258 
L 162.170945 74.546737 
L 163.52291 78.001252 
L 164.874875 81.958933 
L 166.677494 88.062674 
L 168.480114 95.133877 
L 170.282734 103.147416 
L 172.536009 114.352027 
L 175.239939 129.117422 
L 179.295833 152.306083 
L 179.295833 152.306083 
" style="fill:none;stroke:#d62728;stroke-linecap:square;stroke-width:1.5;"/>
   </g>
   <g id="line2d_18">
    <path clip-path="url(#p75e3c0d15c)" d="M 98.448333 170.4 
L 98.448333 37.551187 
" style="fill:none;stroke:#808080;stroke-dasharray:1.5,2.475;stroke-dashoffset:0;stroke-width:1.5;"/>
   </g>
   <g id="line2d_19">
    <path clip-path="url(#p75e3c0d15c)" d="M 44.55 146.494148 
L 48.605895 124.967239 
L 50.859169 114.177876 
L 52.661789 106.469741 
L 54.464409 99.698975 
L 56.267029 93.906885 
L 57.618994 90.198587 
L 58.970959 87.011594 
L 60.322924 84.312998 
L 61.674889 82.062583 
L 63.026853 80.215742 
L 64.378818 78.725956 
L 65.730783 77.546711 
L 67.082748 76.632878 
L 68.434713 75.941587 
L 70.237333 75.297135 
L 72.039953 74.890515 
L 74.743882 74.560284 
L 82.855672 73.819575 
L 85.559601 73.27761 
L 88.263531 72.524196 
L 91.418116 71.399213 
L 95.023356 69.853439 
L 100.431215 67.233947 
L 108.092349 63.546085 
L 116.204139 59.681925 
L 120.710688 57.525915 
L 122.513308 56.860386 
L 124.315928 56.43559 
L 125.667893 56.328999 
L 127.019858 56.440009 
L 128.371823 56.791054 
L 129.723788 57.39206 
L 131.075753 58.238298 
L 132.427717 59.309556 
L 134.230337 61.025445 
L 136.934267 63.966678 
L 140.088852 67.37276 
L 141.891472 69.039594 
L 143.694091 70.378096 
L 145.046056 71.136064 
L 146.398021 71.680136 
L 147.749986 72.024542 
L 149.552606 72.224452 
L 151.805881 72.205541 
L 154.960465 72.153774 
L 156.31243 72.303897 
L 157.664395 72.656737 
L 159.01636 73.281714 
L 160.368325 74.247434 
L 161.72029 75.620613 
L 163.072255 77.464704 
L 164.42422 79.83806 
L 165.776185 82.791522 
L 167.128149 86.365493 
L 168.480114 90.586639 
L 169.832079 95.464528 
L 171.634699 102.968498 
L 173.437319 111.530937 
L 175.690594 123.469398 
L 178.845178 141.621832 
L 179.295833 144.271078 
L 179.295833 144.271078 
" style="fill:none;stroke:#9467bd;stroke-linecap:square;stroke-width:1.5;"/>
   </g>
   <g id="line2d_20">
    <path clip-path="url(#p75e3c0d15c)" d="M 98.448333 170.4 
L 98.448333 37.551187 
" style="fill:none;stroke:#808080;stroke-dasharray:1.5,2.475;stroke-dashoffset:0;stroke-width:1.5;"/>
   </g>
   <g id="line2d_21">
    <path clip-path="url(#p75e3c0d15c)" d="M 44.55 153.825206 
L 50.859169 119.350973 
L 53.112444 108.332996 
L 55.365719 98.505642 
L 57.168339 91.585689 
L 58.970959 85.511744 
L 60.773579 80.253394 
L 62.576198 75.759046 
L 64.378818 71.968154 
L 66.181438 68.819134 
L 67.533403 66.842648 
L 68.885368 65.168908 
L 70.237333 63.772755 
L 71.589298 62.627821 
L 72.941263 61.706069 
L 74.743882 60.772842 
L 76.546502 60.111378 
L 78.799777 59.562461 
L 81.503707 59.172787 
L 84.207637 58.991267 
L 86.911566 59.041406 
L 89.164841 59.339773 
L 90.967461 59.802393 
L 92.770081 60.495696 
L 94.572701 61.427206 
L 96.825975 62.895212 
L 99.529905 64.970374 
L 104.48711 68.861288 
L 106.740385 70.340301 
L 108.993659 71.521861 
L 110.796279 72.242967 
L 113.049554 72.884176 
L 115.302829 73.271831 
L 117.556104 73.4333 
L 119.809378 73.367898 
L 122.062653 73.045376 
L 123.865273 72.571712 
L 125.667893 71.884081 
L 127.470513 70.973975 
L 129.723788 69.539676 
L 132.427717 67.473996 
L 139.187542 62.051153 
L 140.990162 60.916302 
L 142.792781 60.035292 
L 144.595401 59.445418 
L 145.947366 59.205358 
L 147.299331 59.140158 
L 148.651296 59.24658 
L 150.453916 59.646656 
L 152.256536 60.334583 
L 154.059156 61.31814 
L 155.41112 62.270266 
L 156.763085 63.437133 
L 158.11505 64.860342 
L 159.467015 66.59362 
L 160.81898 68.700583 
L 162.170945 71.250928 
L 163.52291 74.315279 
L 164.874875 77.959071 
L 166.226839 82.236021 
L 167.578804 87.18181 
L 169.381424 94.833737 
L 171.184044 103.644855 
L 173.437319 116.064339 
L 176.141249 132.389513 
L 179.295833 152.003106 
L 179.295833 152.003106 
" style="fill:none;stroke:#8c564b;stroke-linecap:square;stroke-width:1.5;"/>
   </g>
   <g id="line2d_22">
    <path clip-path="url(#p75e3c0d15c)" d="M 98.448333 170.4 
L 98.448333 37.551187 
" style="fill:none;stroke:#808080;stroke-dasharray:1.5,2.475;stroke-dashoffset:0;stroke-width:1.5;"/>
   </g>
   <g id="line2d_23">
    <path clip-path="url(#p75e3c0d15c)" d="M 44.55 151.8683 
L 47.25393 138.843796 
L 49.05655 130.975552 
L 50.859169 124.048694 
L 52.211134 119.567129 
L 53.563099 115.731419 
L 54.915064 112.538223 
L 56.267029 109.955418 
L 57.618994 107.926953 
L 58.970959 106.379274 
L 60.322924 105.228523 
L 61.674889 104.387726 
L 63.477508 103.605283 
L 65.730783 102.932902 
L 71.138643 101.458678 
L 73.842572 100.425909 
L 76.095847 99.322252 
L 78.349122 97.949114 
L 80.602397 96.258184 
L 82.405017 94.64906 
L 84.658292 92.300306 
L 86.911566 89.586888 
L 89.615496 85.913889 
L 93.220736 80.532468 
L 100.431215 69.579136 
L 103.5858 65.264194 
L 106.28973 61.955465 
L 108.993659 59.036589 
L 111.697589 56.496855 
L 114.401519 54.297018 
L 117.105449 52.376424 
L 120.710688 50.11733 
L 126.118548 47.038472 
L 129.723788 45.186461 
L 131.977062 44.265783 
L 133.779682 43.773991 
L 135.131647 43.602543 
L 136.483612 43.637674 
L 137.835577 43.907545 
L 139.187542 44.431928 
L 140.539507 45.219612 
L 141.891472 46.266635 
L 143.243436 47.555566 
L 145.046056 49.596197 
L 147.299331 52.515966 
L 153.157846 60.351393 
L 155.41112 62.928521 
L 158.11505 65.627864 
L 161.72029 69.153278 
L 163.52291 71.312148 
L 164.874875 73.300887 
L 166.226839 75.723239 
L 167.578804 78.677063 
L 168.930769 82.245967 
L 170.282734 86.492722 
L 171.634699 91.453653 
L 172.986664 97.134475 
L 174.789284 105.776935 
L 176.591904 115.491929 
L 179.295833 131.51111 
L 179.295833 131.51111 
" style="fill:none;stroke:#e377c2;stroke-linecap:square;stroke-width:1.5;"/>
   </g>
   <g id="line2d_24">
    <path clip-path="url(#p75e3c0d15c)" d="M 98.448333 170.4 
L 98.448333 37.551187 
" style="fill:none;stroke:#808080;stroke-dasharray:1.5,2.475;stroke-dashoffset:0;stroke-width:1.5;"/>
   </g>
   <g id="line2d_25">
    <path clip-path="url(#p75e3c0d15c)" d="M 44.55 158.049907 
L 52.661789 113.660338 
L 54.915064 102.956931 
L 57.168339 93.470328 
L 58.970959 86.794701 
L 60.773579 80.911066 
L 62.576198 75.774584 
L 64.378818 71.331794 
L 66.181438 67.532233 
L 67.984058 64.334749 
L 69.336023 62.312792 
L 70.687988 60.601544 
L 72.039953 59.191368 
L 73.391918 58.071807 
L 74.743882 57.230176 
L 76.095847 56.650498 
L 77.447812 56.312955 
L 78.799777 56.193883 
L 80.151742 56.26632 
L 81.954362 56.610032 
L 84.207637 57.336398 
L 86.911566 58.472161 
L 101.78318 65.132755 
L 104.036455 65.872427 
L 105.839075 66.2779 
L 107.641695 66.449972 
L 108.993659 66.390789 
L 110.345624 66.149204 
L 111.697589 65.714765 
L 113.049554 65.087194 
L 114.852174 63.971304 
L 116.654794 62.593595 
L 120.260033 59.458752 
L 122.513308 57.614249 
L 124.315928 56.417372 
L 125.667893 55.760889 
L 127.019858 55.355921 
L 128.371823 55.231442 
L 129.723788 55.404847 
L 131.075753 55.881648 
L 132.427717 56.655806 
L 133.779682 57.710541 
L 135.131647 59.019488 
L 136.934267 61.09949 
L 139.187542 64.094614 
L 146.398021 74.112062 
L 148.200641 76.178143 
L 150.003261 77.938207 
L 151.805881 79.388084 
L 153.608501 80.566982 
L 156.31243 82.020223 
L 159.01636 83.504943 
L 160.368325 84.440252 
L 161.72029 85.612053 
L 163.072255 87.102848 
L 164.42422 88.992243 
L 165.776185 91.353211 
L 167.128149 94.248283 
L 168.480114 97.725761 
L 169.832079 101.81618 
L 171.184044 106.529253 
L 172.986664 113.755258 
L 174.789284 121.962468 
L 177.042559 133.329725 
L 179.295833 145.475107 
L 179.295833 145.475107 
" style="fill:none;stroke:#7f7f7f;stroke-linecap:square;stroke-width:1.5;"/>
   </g>
   <g id="line2d_26">
    <path clip-path="url(#p75e3c0d15c)" d="M 98.448333 170.4 
L 98.448333 37.551187 
" style="fill:none;stroke:#808080;stroke-dasharray:1.5,2.475;stroke-dashoffset:0;stroke-width:1.5;"/>
   </g>
   <g id="line2d_27">
    <path clip-path="url(#p75e3c0d15c)" d="M 44.55 152.055526 
L 49.95786 124.05339 
L 52.211134 113.654353 
L 54.013754 106.295585 
L 55.816374 99.947309 
L 57.168339 95.900536 
L 58.520304 92.479695 
L 59.872269 89.674598 
L 61.224234 87.455127 
L 62.576198 85.772857 
L 63.928163 84.563547 
L 65.280128 83.750425 
L 66.632093 83.248124 
L 68.434713 82.907033 
L 73.842572 82.262443 
L 75.194537 81.844404 
L 76.546502 81.243347 
L 77.898467 80.445981 
L 79.701087 79.080972 
L 81.503707 77.405686 
L 83.756982 74.975861 
L 92.319426 65.272497 
L 94.122046 63.686452 
L 95.924666 62.384132 
L 97.727285 61.380884 
L 99.529905 60.66835 
L 101.332525 60.216793 
L 103.135145 59.980696 
L 105.38842 59.908223 
L 108.543004 60.060987 
L 112.148244 60.471144 
L 114.852174 61.014475 
L 116.654794 61.567248 
L 118.457414 62.326904 
L 120.260033 63.327237 
L 122.062653 64.579538 
L 124.315928 66.469689 
L 127.019858 69.072653 
L 131.526407 73.433534 
L 133.329027 74.880004 
L 135.131647 76.012074 
L 136.483612 76.611568 
L 137.835577 76.974265 
L 139.187542 77.089487 
L 140.539507 76.955812 
L 141.891472 76.580606 
L 143.243436 75.979146 
L 145.046056 74.864143 
L 146.848676 73.45362 
L 149.101951 71.397312 
L 154.960465 65.823701 
L 156.763085 64.50002 
L 158.11505 63.787504 
L 159.01636 63.487269 
L 159.91767 63.354709 
L 160.81898 63.414904 
L 161.72029 63.693629 
L 162.6216 64.216906 
L 163.52291 65.010447 
L 164.42422 66.099007 
L 165.32553 67.505674 
L 166.226839 69.251106 
L 167.128149 71.352753 
L 168.480114 75.201351 
L 169.832079 79.905743 
L 171.184044 85.462898 
L 172.536009 91.83868 
L 174.338629 101.494026 
L 176.591904 115.062982 
L 179.295833 132.675042 
L 179.295833 132.675042 
" style="fill:none;stroke:#bcbd22;stroke-linecap:square;stroke-width:1.5;"/>
   </g>
   <g id="line2d_28">
    <path clip-path="url(#p75e3c0d15c)" d="M 98.448333 170.4 
L 98.448333 37.551187 
" style="fill:none;stroke:#808080;stroke-dasharray:1.5,2.475;stroke-dashoffset:0;stroke-width:1.5;"/>
   </g>
   <g id="line2d_29">
    <path clip-path="url(#p75e3c0d15c)" d="M 44.55 151.962249 
L 49.95786 121.712117 
L 52.211134 110.466582 
L 54.013754 102.523457 
L 55.816374 95.688552 
L 57.168339 91.347099 
L 58.520304 87.69741 
L 59.872269 84.736628 
L 61.224234 82.445056 
L 62.125543 81.272565 
L 63.026853 80.368803 
L 63.928163 79.717915 
L 64.829473 79.302016 
L 65.730783 79.101472 
L 66.632093 79.095177 
L 67.533403 79.260841 
L 68.885368 79.7809 
L 70.237333 80.555257 
L 72.039953 81.843722 
L 76.546502 85.235813 
L 78.349122 86.260337 
L 79.701087 86.795077 
L 81.053052 87.091978 
L 82.405017 87.126924 
L 83.756982 86.883761 
L 85.108946 86.353169 
L 86.460911 85.531575 
L 87.812876 84.42033 
L 89.164841 83.025298 
L 90.516806 81.356931 
L 92.319426 78.735048 
L 94.122046 75.709671 
L 96.375321 71.48009 
L 104.48711 55.677956 
L 106.28973 52.91325 
L 107.641695 51.179537 
L 108.993659 49.764646 
L 110.345624 48.677273 
L 111.697589 47.911325 
L 113.049554 47.447246 
L 114.401519 47.254343 
L 115.753484 47.293804 
L 117.556104 47.632302 
L 119.809378 48.366554 
L 124.315928 50.206382 
L 127.921168 51.557536 
L 132.878372 53.113099 
L 136.032957 54.189687 
L 138.286232 55.170201 
L 140.539507 56.415057 
L 142.792781 57.955663 
L 145.046056 59.764383 
L 148.651296 62.991809 
L 153.608501 67.391481 
L 158.11505 71.361863 
L 159.91767 73.30493 
L 161.269635 75.066416 
L 162.6216 77.190576 
L 163.973565 79.76877 
L 165.32553 82.884869 
L 166.677494 86.608612 
L 168.029459 90.989564 
L 169.381424 96.052127 
L 171.184044 103.850752 
L 172.986664 112.75594 
L 175.239939 125.151041 
L 178.845178 146.582865 
L 179.295833 149.289801 
L 179.295833 149.289801 
" style="fill:none;stroke:#17becf;stroke-linecap:square;stroke-width:1.5;"/>
   </g>
   <g id="line2d_30">
    <path clip-path="url(#p75e3c0d15c)" d="M 98.448333 170.4 
L 98.448333 37.551187 
" style="fill:none;stroke:#808080;stroke-dasharray:1.5,2.475;stroke-dashoffset:0;stroke-width:1.5;"/>
   </g>
   <g id="line2d_31">
    <path clip-path="url(#p75e3c0d15c)" d="M 44.55 138.719359 
L 47.25393 124.687086 
L 49.507205 114.127924 
L 51.309824 106.670909 
L 53.112444 100.198113 
L 54.464409 96.007577 
L 55.816374 92.377342 
L 57.168339 89.284461 
L 58.520304 86.696391 
L 59.872269 84.574822 
L 61.224234 82.879022 
L 62.576198 81.568484 
L 63.928163 80.604755 
L 65.280128 79.952457 
L 66.632093 79.579609 
L 67.984058 79.457371 
L 69.336023 79.559401 
L 70.687988 79.860963 
L 72.490608 80.531671 
L 74.293227 81.455367 
L 76.546502 82.867632 
L 83.306327 87.322124 
L 85.108946 88.114205 
L 86.460911 88.477778 
L 87.812876 88.601023 
L 89.164841 88.4515 
L 90.516806 88.004506 
L 91.868771 87.244834 
L 93.220736 86.168092 
L 94.572701 84.781478 
L 95.924666 83.103894 
L 97.727285 80.467944 
L 99.98056 76.674317 
L 104.036455 69.205747 
L 106.740385 64.417559 
L 108.543004 61.563319 
L 110.345624 59.097693 
L 111.697589 57.547949 
L 113.049554 56.277594 
L 114.401519 55.296708 
L 115.753484 54.605882 
L 117.105449 54.196578 
L 118.457414 54.051754 
L 119.809378 54.146741 
L 121.161343 54.450353 
L 122.963963 55.116328 
L 125.217238 56.233405 
L 131.526407 59.559343 
L 133.779682 60.410118 
L 136.032957 61.000928 
L 138.286232 61.369886 
L 142.342127 61.75044 
L 145.947366 62.173018 
L 148.651296 62.734935 
L 150.904571 63.428398 
L 153.157846 64.376249 
L 154.960465 65.369035 
L 156.763085 66.639657 
L 158.11505 67.829956 
L 159.467015 69.277845 
L 160.81898 71.040037 
L 162.170945 73.178065 
L 163.52291 75.754892 
L 164.874875 78.830765 
L 166.226839 82.458584 
L 167.578804 86.679147 
L 168.930769 91.516649 
L 170.733389 98.929533 
L 172.536009 107.387284 
L 174.789284 119.218581 
L 177.943868 137.345279 
L 179.295833 145.337637 
L 179.295833 145.337637 
" style="fill:none;stroke:#1f77b4;stroke-linecap:square;stroke-width:1.5;"/>
   </g>
   <g id="line2d_32">
    <path clip-path="url(#p75e3c0d15c)" d="M 98.448333 170.4 
L 98.448333 37.551187 
" style="fill:none;stroke:#808080;stroke-dasharray:1.5,2.475;stroke-dashoffset:0;stroke-width:1.5;"/>
   </g>
   <g id="line2d_33">
    <path clip-path="url(#p75e3c0d15c)" d="M 44.55 154.303785 
L 47.704585 139.986402 
L 49.95786 130.730284 
L 52.211134 122.532137 
L 54.013754 116.752221 
L 55.816374 111.600517 
L 58.069649 105.888937 
L 60.322924 100.784512 
L 63.026853 95.221964 
L 65.730783 90.145403 
L 68.434713 85.568195 
L 70.687988 82.190289 
L 72.941263 79.232478 
L 75.194537 76.661908 
L 77.898467 73.966682 
L 81.503707 70.731632 
L 86.010256 66.943048 
L 88.714186 64.930243 
L 90.516806 63.815979 
L 92.319426 62.953349 
L 94.122046 62.379343 
L 95.924666 62.096642 
L 97.727285 62.066665 
L 100.431215 62.312428 
L 103.135145 62.54953 
L 104.937765 62.486663 
L 106.28973 62.243558 
L 107.641695 61.796358 
L 108.993659 61.129356 
L 110.345624 60.2443 
L 112.148244 58.760888 
L 114.401519 56.552544 
L 118.908069 51.960773 
L 120.710688 50.450342 
L 122.062653 49.545279 
L 123.414618 48.866609 
L 124.766583 48.427146 
L 126.118548 48.226116 
L 127.470513 48.250806 
L 128.822478 48.479094 
L 130.625098 49.050441 
L 132.427717 49.857948 
L 135.131647 51.356425 
L 139.187542 53.905715 
L 145.947366 58.41243 
L 150.453916 61.657632 
L 153.157846 63.850222 
L 155.41112 65.97432 
L 157.21374 67.991709 
L 159.01636 70.417019 
L 160.368325 72.583455 
L 161.72029 75.112906 
L 163.072255 78.062709 
L 164.42422 81.485086 
L 165.776185 85.423348 
L 167.128149 89.908207 
L 168.930769 96.761216 
L 170.733389 104.592872 
L 172.986664 115.62663 
L 175.690594 130.270383 
L 179.295833 150.857457 
L 179.295833 150.857457 
" style="fill:none;stroke:#ff7f0e;stroke-linecap:square;stroke-width:1.5;"/>
   </g>
   <g id="line2d_34">
    <path clip-path="url(#p75e3c0d15c)" d="M 98.448333 170.4 
L 98.448333 37.551187 
" style="fill:none;stroke:#808080;stroke-dasharray:1.5,2.475;stroke-dashoffset:0;stroke-width:1.5;"/>
   </g>
   <g id="line2d_35">
    <path clip-path="url(#p75e3c0d15c)" d="M 44.55 159.786615 
L 54.013754 112.077393 
L 56.267029 102.195304 
L 58.520304 93.316222 
L 60.322924 86.998552 
L 62.125543 81.405473 
L 63.928163 76.54155 
L 65.730783 72.39434 
L 67.533403 68.935397 
L 68.885368 66.767511 
L 70.237333 64.940236 
L 71.589298 63.428139 
L 72.941263 62.204141 
L 74.293227 61.240747 
L 75.645192 60.511181 
L 76.997157 59.990272 
L 78.349122 59.65494 
L 80.151742 59.460558 
L 81.954362 59.513796 
L 83.756982 59.771497 
L 86.010256 60.312512 
L 89.615496 61.449288 
L 93.220736 62.531857 
L 95.474011 63.005416 
L 97.727285 63.254028 
L 99.98056 63.271555 
L 102.68449 63.04322 
L 113.950864 61.713069 
L 119.809378 61.28625 
L 122.513308 60.828479 
L 125.667893 60.022623 
L 129.723788 58.945491 
L 131.526407 58.688864 
L 132.878372 58.673978 
L 134.230337 58.851352 
L 135.582302 59.24608 
L 136.934267 59.869668 
L 138.286232 60.718111 
L 140.088852 62.162778 
L 142.342127 64.34564 
L 148.651296 70.79584 
L 150.904571 72.672584 
L 153.608501 74.575379 
L 157.664395 77.365164 
L 159.467015 78.943529 
L 160.81898 80.403614 
L 162.170945 82.173791 
L 163.52291 84.315278 
L 164.874875 86.883009 
L 166.226839 89.924006 
L 167.578804 93.475696 
L 168.930769 97.564042 
L 170.733389 103.869227 
L 172.536009 111.13388 
L 174.338629 119.285715 
L 176.591904 130.513194 
L 179.295833 144.97537 
L 179.295833 144.97537 
" style="fill:none;stroke:#2ca02c;stroke-linecap:square;stroke-width:1.5;"/>
   </g>
   <g id="line2d_36">
    <path clip-path="url(#p75e3c0d15c)" d="M 98.448333 170.4 
L 98.448333 37.551187 
" style="fill:none;stroke:#808080;stroke-dasharray:1.5,2.475;stroke-dashoffset:0;stroke-width:1.5;"/>
   </g>
   <g id="line2d_37">
    <path clip-path="url(#p75e3c0d15c)" d="M 44.55 162.588393 
L 52.661789 123.770673 
L 54.915064 114.441774 
L 56.717684 107.782081 
L 58.520304 101.898921 
L 60.322924 96.803663 
L 62.125543 92.467696 
L 63.928163 88.827819 
L 65.730783 85.793284 
L 67.533403 83.254253 
L 69.336023 81.091431 
L 71.589298 78.737434 
L 76.095847 74.477002 
L 85.108946 66.108106 
L 86.911566 64.763491 
L 88.714186 63.690798 
L 90.066151 63.100872 
L 91.418116 62.714685 
L 92.770081 62.541235 
L 94.122046 62.580417 
L 95.474011 62.822743 
L 97.27663 63.428573 
L 99.07925 64.295646 
L 101.78318 65.895501 
L 105.839075 68.312187 
L 107.641695 69.152899 
L 109.444314 69.74367 
L 110.796279 69.99112 
L 112.148244 70.054226 
L 113.500209 69.924324 
L 114.852174 69.598022 
L 116.204139 69.076529 
L 117.556104 68.365004 
L 119.358724 67.13598 
L 121.161343 65.613667 
L 123.414618 63.358657 
L 126.118548 60.274195 
L 131.977062 53.386242 
L 133.779682 51.621883 
L 135.131647 50.527411 
L 136.483612 49.674008 
L 137.835577 49.093665 
L 139.187542 48.80776 
L 140.539507 48.825135 
L 141.891472 49.141159 
L 143.243436 49.737973 
L 144.595401 50.585981 
L 146.398021 52.039687 
L 148.651296 54.227175 
L 152.256536 58.135612 
L 157.21374 63.772067 
L 159.467015 66.632779 
L 161.269635 69.277529 
L 162.6216 71.576269 
L 163.973565 74.227335 
L 165.32553 77.303306 
L 166.677494 80.870512 
L 168.029459 84.984285 
L 169.381424 89.684373 
L 171.184044 96.894571 
L 172.986664 105.162771 
L 175.239939 116.828945 
L 177.943868 132.274516 
L 179.295833 140.323785 
L 179.295833 140.323785 
" style="fill:none;stroke:#d62728;stroke-linecap:square;stroke-width:1.5;"/>
   </g>
   <g id="line2d_38">
    <path clip-path="url(#p75e3c0d15c)" d="M 98.448333 170.4 
L 98.448333 37.551187 
" style="fill:none;stroke:#808080;stroke-dasharray:1.5,2.475;stroke-dashoffset:0;stroke-width:1.5;"/>
   </g>
   <g id="line2d_39">
    <path clip-path="url(#p75e3c0d15c)" d="M 44.55 162.376929 
L 47.704585 149.371106 
L 49.95786 140.977258 
L 51.760479 135.019162 
L 53.563099 129.786978 
L 55.365719 125.23858 
L 57.168339 121.252893 
L 59.872269 115.91957 
L 63.477508 108.860739 
L 65.730783 103.85882 
L 67.533403 99.351572 
L 69.786678 93.085973 
L 72.941263 83.532002 
L 76.095847 74.076885 
L 77.898467 69.240709 
L 79.250432 66.067934 
L 80.602397 63.373864 
L 81.954362 61.21451 
L 82.855672 60.087849 
L 83.756982 59.214648 
L 84.658292 58.591462 
L 85.559601 58.209624 
L 86.460911 58.055635 
L 87.362221 58.111695 
L 88.263531 58.35635 
L 89.615496 59.023025 
L 90.967461 59.968283 
L 93.220736 61.904842 
L 96.375321 64.679948 
L 98.17794 65.979916 
L 99.529905 66.724709 
L 100.88187 67.238484 
L 102.233835 67.506319 
L 103.5858 67.525825 
L 104.937765 67.30509 
L 106.28973 66.860471 
L 107.641695 66.214455 
L 109.444314 65.086434 
L 111.697589 63.347666 
L 114.852174 60.56041 
L 119.358724 56.574253 
L 121.611998 54.85567 
L 123.865273 53.440141 
L 125.667893 52.552831 
L 127.470513 51.880217 
L 129.723788 51.302259 
L 132.427717 50.881259 
L 140.539507 49.836808 
L 148.651296 48.356038 
L 150.453916 48.35276 
L 151.805881 48.551897 
L 153.157846 48.978771 
L 154.50981 49.686341 
L 155.861775 50.72936 
L 157.21374 52.162665 
L 158.565705 54.039247 
L 159.91767 56.408177 
L 161.269635 59.312538 
L 162.6216 62.787426 
L 163.973565 66.858133 
L 165.32553 71.538505 
L 167.128149 78.727063 
L 168.930769 86.96258 
L 170.733389 96.159918 
L 172.986664 108.79875 
L 176.141249 127.934265 
L 179.295833 147.53588 
L 179.295833 147.53588 
" style="fill:none;stroke:#9467bd;stroke-linecap:square;stroke-width:1.5;"/>
   </g>
   <g id="line2d_40">
    <path clip-path="url(#p75e3c0d15c)" d="M 98.448333 170.4 
L 98.448333 37.551187 
" style="fill:none;stroke:#808080;stroke-dasharray:1.5,2.475;stroke-dashoffset:0;stroke-width:1.5;"/>
   </g>
   <g id="line2d_41">
    <path clip-path="url(#p75e3c0d15c)" d="M 44.55 140.163119 
L 48.15524 119.334248 
L 50.408514 107.609635 
L 52.211134 99.340059 
L 54.013754 92.224462 
L 55.365719 87.690622 
L 56.717684 83.849774 
L 58.069649 80.683852 
L 59.421614 78.157957 
L 60.773579 76.224383 
L 62.125543 74.826603 
L 63.026853 74.162035 
L 63.928163 73.689236 
L 64.829473 73.389132 
L 66.181438 73.221419 
L 67.533403 73.33726 
L 68.885368 73.67668 
L 70.687988 74.378981 
L 73.842572 75.947946 
L 76.997157 77.449142 
L 78.799777 78.08823 
L 80.602397 78.480735 
L 81.954362 78.583605 
L 83.306327 78.507533 
L 84.658292 78.246512 
L 86.010256 77.801367 
L 87.812876 76.935444 
L 89.615496 75.792027 
L 91.868771 74.05636 
L 95.474011 70.908343 
L 98.628595 68.230574 
L 100.88187 66.596653 
L 102.68449 65.531113 
L 104.48711 64.696854 
L 106.28973 64.075482 
L 108.543004 63.522732 
L 114.401519 62.255256 
L 116.654794 61.487119 
L 119.358724 60.294707 
L 124.315928 57.986078 
L 126.118548 57.412052 
L 127.470513 57.163322 
L 128.822478 57.098984 
L 130.174443 57.232657 
L 131.526407 57.565791 
L 132.878372 58.088017 
L 134.680992 59.041462 
L 136.934267 60.545288 
L 140.990162 63.645715 
L 145.046056 66.636559 
L 149.101951 69.311009 
L 152.707191 71.730105 
L 154.960465 73.509586 
L 156.763085 75.215617 
L 158.565705 77.274754 
L 159.91767 79.110861 
L 161.269635 81.245206 
L 162.6216 83.721164 
L 163.973565 86.580669 
L 165.32553 89.862321 
L 167.128149 94.950294 
L 168.930769 100.899931 
L 170.733389 107.726495 
L 172.536009 115.396216 
L 174.789284 126.026399 
L 177.943868 142.280906 
L 179.295833 149.478938 
L 179.295833 149.478938 
" style="fill:none;stroke:#8c564b;stroke-linecap:square;stroke-width:1.5;"/>
   </g>
   <g id="line2d_42">
    <path clip-path="url(#p75e3c0d15c)" d="M 98.448333 170.4 
L 98.448333 37.551187 
" style="fill:none;stroke:#808080;stroke-dasharray:1.5,2.475;stroke-dashoffset:0;stroke-width:1.5;"/>
   </g>
   <g id="patch_3">
    <path d="M 44.55 170.4 
L 44.55 37.551187 
" style="fill:none;stroke:#000000;stroke-linecap:square;stroke-linejoin:miter;stroke-width:0.8;"/>
   </g>
   <g id="patch_4">
    <path d="M 44.55 170.4 
L 179.295833 170.4 
" style="fill:none;stroke:#000000;stroke-linecap:square;stroke-linejoin:miter;stroke-width:0.8;"/>
   </g>
  </g>
  <g id="axes_2">
   <g id="patch_5">
    <path d="M 266.408333 170.4 
L 401.154167 170.4 
L 401.154167 37.551187 
L 266.408333 37.551187 
z
" style="fill:#ffffff;"/>
   </g>
   <g id="matplotlib.axis_3">
    <g id="xtick_6">
     <g id="line2d_43">
      <g>
       <use style="stroke:#000000;stroke-width:0.8;" x="266.408333" xlink:href="#md2801459a6" y="170.4"/>
      </g>
     </g>
     <g id="text_13">
      <!-- 350 -->
      <g transform="translate(256.864583 184.998437)scale(0.1 -0.1)">
       <defs>
        <path d="M 40.578125 39.3125 
Q 47.65625 37.796875 51.625 33 
Q 55.609375 28.21875 55.609375 21.1875 
Q 55.609375 10.40625 48.1875 4.484375 
Q 40.765625 -1.421875 27.09375 -1.421875 
Q 22.515625 -1.421875 17.65625 -0.515625 
Q 12.796875 0.390625 7.625 2.203125 
L 7.625 11.71875 
Q 11.71875 9.328125 16.59375 8.109375 
Q 21.484375 6.890625 26.8125 6.890625 
Q 36.078125 6.890625 40.9375 10.546875 
Q 45.796875 14.203125 45.796875 21.1875 
Q 45.796875 27.640625 41.28125 31.265625 
Q 36.765625 34.90625 28.71875 34.90625 
L 20.21875 34.90625 
L 20.21875 43.015625 
L 29.109375 43.015625 
Q 36.375 43.015625 40.234375 45.921875 
Q 44.09375 48.828125 44.09375 54.296875 
Q 44.09375 59.90625 40.109375 62.90625 
Q 36.140625 65.921875 28.71875 65.921875 
Q 24.65625 65.921875 20.015625 65.03125 
Q 15.375 64.15625 9.8125 62.3125 
L 9.8125 71.09375 
Q 15.4375 72.65625 20.34375 73.4375 
Q 25.25 74.21875 29.59375 74.21875 
Q 40.828125 74.21875 47.359375 69.109375 
Q 53.90625 64.015625 53.90625 55.328125 
Q 53.90625 49.265625 50.4375 45.09375 
Q 46.96875 40.921875 40.578125 39.3125 
z
" id="DejaVuSans-51"/>
       </defs>
       <use xlink:href="#DejaVuSans-51"/>
       <use x="63.623047" xlink:href="#DejaVuSans-53"/>
       <use x="127.246094" xlink:href="#DejaVuSans-48"/>
      </g>
     </g>
    </g>
    <g id="xtick_7">
     <g id="line2d_44">
      <g>
       <use style="stroke:#000000;stroke-width:0.8;" x="300.094792" xlink:href="#md2801459a6" y="170.4"/>
      </g>
     </g>
     <g id="text_14">
      <!-- 375 -->
      <g transform="translate(290.551042 184.998437)scale(0.1 -0.1)">
       <use xlink:href="#DejaVuSans-51"/>
       <use x="63.623047" xlink:href="#DejaVuSans-55"/>
       <use x="127.246094" xlink:href="#DejaVuSans-53"/>
      </g>
     </g>
    </g>
    <g id="xtick_8">
     <g id="line2d_45">
      <g>
       <use style="stroke:#000000;stroke-width:0.8;" x="333.78125" xlink:href="#md2801459a6" y="170.4"/>
      </g>
     </g>
     <g id="text_15">
      <!-- 400 -->
      <g transform="translate(324.2375 184.998437)scale(0.1 -0.1)">
       <use xlink:href="#DejaVuSans-52"/>
       <use x="63.623047" xlink:href="#DejaVuSans-48"/>
       <use x="127.246094" xlink:href="#DejaVuSans-48"/>
      </g>
     </g>
    </g>
    <g id="xtick_9">
     <g id="line2d_46">
      <g>
       <use style="stroke:#000000;stroke-width:0.8;" x="367.467708" xlink:href="#md2801459a6" y="170.4"/>
      </g>
     </g>
     <g id="text_16">
      <!-- 425 -->
      <g transform="translate(357.923958 184.998437)scale(0.1 -0.1)">
       <use xlink:href="#DejaVuSans-52"/>
       <use x="63.623047" xlink:href="#DejaVuSans-50"/>
       <use x="127.246094" xlink:href="#DejaVuSans-53"/>
      </g>
     </g>
    </g>
    <g id="xtick_10">
     <g id="line2d_47">
      <g>
       <use style="stroke:#000000;stroke-width:0.8;" x="401.154167" xlink:href="#md2801459a6" y="170.4"/>
      </g>
     </g>
     <g id="text_17">
      <!-- 450 -->
      <g transform="translate(391.610417 184.998437)scale(0.1 -0.1)">
       <use xlink:href="#DejaVuSans-52"/>
       <use x="63.623047" xlink:href="#DejaVuSans-53"/>
       <use x="127.246094" xlink:href="#DejaVuSans-48"/>
      </g>
     </g>
    </g>
    <g id="text_18">
     <!-- $\theta_1$ -->
     <g transform="translate(328.33125 198.676562)scale(0.1 -0.1)">
      <use transform="translate(0 0.234375)" xlink:href="#DejaVuSans-Oblique-952"/>
      <use transform="translate(61.181641 -16.171875)scale(0.7)" xlink:href="#DejaVuSans-49"/>
     </g>
    </g>
   </g>
   <g id="matplotlib.axis_4">
    <g id="ytick_6">
     <g id="line2d_48">
      <g>
       <use style="stroke:#000000;stroke-width:0.8;" x="266.408333" xlink:href="#mc5504031eb" y="140.593371"/>
      </g>
     </g>
     <g id="text_19">
      <!-- 0.0009 -->
      <g transform="translate(224.417708 144.39259)scale(0.1 -0.1)">
       <defs>
        <path d="M 10.984375 1.515625 
L 10.984375 10.5 
Q 14.703125 8.734375 18.5 7.8125 
Q 22.3125 6.890625 25.984375 6.890625 
Q 35.75 6.890625 40.890625 13.453125 
Q 46.046875 20.015625 46.78125 33.40625 
Q 43.953125 29.203125 39.59375 26.953125 
Q 35.25 24.703125 29.984375 24.703125 
Q 19.046875 24.703125 12.671875 31.3125 
Q 6.296875 37.9375 6.296875 49.421875 
Q 6.296875 60.640625 12.9375 67.421875 
Q 19.578125 74.21875 30.609375 74.21875 
Q 43.265625 74.21875 49.921875 64.515625 
Q 56.59375 54.828125 56.59375 36.375 
Q 56.59375 19.140625 48.40625 8.859375 
Q 40.234375 -1.421875 26.421875 -1.421875 
Q 22.703125 -1.421875 18.890625 -0.6875 
Q 15.09375 0.046875 10.984375 1.515625 
z
M 30.609375 32.421875 
Q 37.25 32.421875 41.125 36.953125 
Q 45.015625 41.5 45.015625 49.421875 
Q 45.015625 57.28125 41.125 61.84375 
Q 37.25 66.40625 30.609375 66.40625 
Q 23.96875 66.40625 20.09375 61.84375 
Q 16.21875 57.28125 16.21875 49.421875 
Q 16.21875 41.5 20.09375 36.953125 
Q 23.96875 32.421875 30.609375 32.421875 
z
" id="DejaVuSans-57"/>
       </defs>
       <use xlink:href="#DejaVuSans-48"/>
       <use x="63.623047" xlink:href="#DejaVuSans-46"/>
       <use x="95.410156" xlink:href="#DejaVuSans-48"/>
       <use x="159.033203" xlink:href="#DejaVuSans-48"/>
       <use x="222.65625" xlink:href="#DejaVuSans-48"/>
       <use x="286.279297" xlink:href="#DejaVuSans-57"/>
      </g>
     </g>
    </g>
    <g id="ytick_7">
     <g id="line2d_49">
      <g>
       <use style="stroke:#000000;stroke-width:0.8;" x="266.408333" xlink:href="#mc5504031eb" y="102.051088"/>
      </g>
     </g>
     <g id="text_20">
      <!-- 0.0010 -->
      <g transform="translate(224.417708 105.850307)scale(0.1 -0.1)">
       <use xlink:href="#DejaVuSans-48"/>
       <use x="63.623047" xlink:href="#DejaVuSans-46"/>
       <use x="95.410156" xlink:href="#DejaVuSans-48"/>
       <use x="159.033203" xlink:href="#DejaVuSans-48"/>
       <use x="222.65625" xlink:href="#DejaVuSans-49"/>
       <use x="286.279297" xlink:href="#DejaVuSans-48"/>
      </g>
     </g>
    </g>
    <g id="ytick_8">
     <g id="line2d_50">
      <g>
       <use style="stroke:#000000;stroke-width:0.8;" x="266.408333" xlink:href="#mc5504031eb" y="63.508805"/>
      </g>
     </g>
     <g id="text_21">
      <!-- 0.0011 -->
      <g transform="translate(224.417708 67.308024)scale(0.1 -0.1)">
       <use xlink:href="#DejaVuSans-48"/>
       <use x="63.623047" xlink:href="#DejaVuSans-46"/>
       <use x="95.410156" xlink:href="#DejaVuSans-48"/>
       <use x="159.033203" xlink:href="#DejaVuSans-48"/>
       <use x="222.65625" xlink:href="#DejaVuSans-49"/>
       <use x="286.279297" xlink:href="#DejaVuSans-49"/>
      </g>
     </g>
    </g>
    <g id="text_22">
     <!-- Posterior -->
     <g transform="translate(218.338021 126.069344)rotate(-90)scale(0.1 -0.1)">
      <use xlink:href="#DejaVuSans-80"/>
      <use x="56.677734" xlink:href="#DejaVuSans-111"/>
      <use x="117.859375" xlink:href="#DejaVuSans-115"/>
      <use x="169.958984" xlink:href="#DejaVuSans-116"/>
      <use x="209.167969" xlink:href="#DejaVuSans-101"/>
      <use x="270.691406" xlink:href="#DejaVuSans-114"/>
      <use x="311.804688" xlink:href="#DejaVuSans-105"/>
      <use x="339.587891" xlink:href="#DejaVuSans-111"/>
      <use x="400.769531" xlink:href="#DejaVuSans-114"/>
     </g>
    </g>
   </g>
   <g id="line2d_51">
    <path clip-path="url(#pa924051215)" d="M 266.408333 48.850714 
L 274.520123 47.309137 
L 282.181257 46.078659 
L 289.391736 45.134401 
L 296.602216 44.408084 
L 303.812695 43.907722 
L 311.023174 43.638847 
L 318.233654 43.604401 
L 325.444133 43.804673 
L 332.654613 44.237296 
L 339.865092 44.897298 
L 347.075571 45.777201 
L 354.736706 46.942008 
L 362.39784 48.329485 
L 370.509629 50.022485 
L 379.072074 52.034863 
L 388.535828 54.4939 
L 398.900892 57.422157 
L 401.154167 58.085941 
L 401.154167 58.085941 
" style="fill:none;stroke:#1f77b4;stroke-linecap:square;stroke-width:1.5;"/>
   </g>
   <g id="line2d_52">
    <path clip-path="url(#pa924051215)" d="M 333.78125 170.4 
L 333.78125 37.551187 
" style="fill:none;stroke:#808080;stroke-dasharray:1.5,2.475;stroke-dashoffset:0;stroke-width:1.5;"/>
   </g>
   <g id="line2d_53">
    <path clip-path="url(#pa924051215)" d="M 266.408333 70.035073 
L 275.872088 68.785489 
L 285.335842 67.7509 
L 295.250251 66.890973 
L 305.615315 66.222199 
L 316.431034 65.750663 
L 328.148063 65.461843 
L 342.118367 65.348785 
L 362.39784 65.435632 
L 387.634518 65.506712 
L 401.154167 65.326711 
L 401.154167 65.326711 
" style="fill:none;stroke:#ff7f0e;stroke-linecap:square;stroke-width:1.5;"/>
   </g>
   <g id="line2d_54">
    <path clip-path="url(#pa924051215)" d="M 333.78125 170.4 
L 333.78125 37.551187 
" style="fill:none;stroke:#808080;stroke-dasharray:1.5,2.475;stroke-dashoffset:0;stroke-width:1.5;"/>
   </g>
   <g id="line2d_55">
    <path clip-path="url(#pa924051215)" d="M 266.408333 73.261335 
L 278.125362 70.388934 
L 288.490426 68.071765 
L 297.954181 66.1768 
L 306.96728 64.592892 
L 315.529724 63.304152 
L 324.092168 62.236729 
L 332.654613 61.396747 
L 341.217057 60.785782 
L 349.779501 60.400974 
L 358.341945 60.235272 
L 367.355045 60.285538 
L 376.818799 60.568253 
L 386.733208 61.09189 
L 397.548927 61.893065 
L 401.154167 62.206331 
L 401.154167 62.206331 
" style="fill:none;stroke:#2ca02c;stroke-linecap:square;stroke-width:1.5;"/>
   </g>
   <g id="line2d_56">
    <path clip-path="url(#pa924051215)" d="M 333.78125 170.4 
L 333.78125 37.551187 
" style="fill:none;stroke:#808080;stroke-dasharray:1.5,2.475;stroke-dashoffset:0;stroke-width:1.5;"/>
   </g>
   <g id="line2d_57">
    <path clip-path="url(#pa924051215)" d="M 266.408333 117.363719 
L 286.237152 117.308457 
L 304.714005 117.036828 
L 321.838894 116.56107 
L 337.611817 115.901124 
L 352.483431 115.061125 
L 367.355045 113.995831 
L 382.226658 112.703088 
L 397.548927 111.146645 
L 401.154167 110.750338 
L 401.154167 110.750338 
" style="fill:none;stroke:#d62728;stroke-linecap:square;stroke-width:1.5;"/>
   </g>
   <g id="line2d_58">
    <path clip-path="url(#pa924051215)" d="M 333.78125 170.4 
L 333.78125 37.551187 
" style="fill:none;stroke:#808080;stroke-dasharray:1.5,2.475;stroke-dashoffset:0;stroke-width:1.5;"/>
   </g>
   <g id="line2d_59">
    <path clip-path="url(#pa924051215)" d="M 266.408333 97.519205 
L 280.829292 98.332038 
L 293.447631 99.26524 
L 304.714005 100.313695 
L 315.529724 101.537707 
L 325.894788 102.926102 
L 336.259852 104.531466 
L 347.075571 106.433943 
L 358.341945 108.64498 
L 370.960284 111.357892 
L 386.733208 114.99664 
L 401.154167 118.421672 
L 401.154167 118.421672 
" style="fill:none;stroke:#9467bd;stroke-linecap:square;stroke-width:1.5;"/>
   </g>
   <g id="line2d_60">
    <path clip-path="url(#pa924051215)" d="M 333.78125 170.4 
L 333.78125 37.551187 
" style="fill:none;stroke:#808080;stroke-dasharray:1.5,2.475;stroke-dashoffset:0;stroke-width:1.5;"/>
   </g>
   <g id="line2d_61">
    <path clip-path="url(#pa924051215)" d="M 266.408333 81.366714 
L 288.490426 78.90507 
L 308.7699 76.420914 
L 331.302648 73.428506 
L 371.861594 67.990853 
L 385.381243 66.446608 
L 396.647617 65.386001 
L 401.154167 65.034919 
L 401.154167 65.034919 
" style="fill:none;stroke:#8c564b;stroke-linecap:square;stroke-width:1.5;"/>
   </g>
   <g id="line2d_62">
    <path clip-path="url(#pa924051215)" d="M 333.78125 170.4 
L 333.78125 37.551187 
" style="fill:none;stroke:#808080;stroke-dasharray:1.5,2.475;stroke-dashoffset:0;stroke-width:1.5;"/>
   </g>
   <g id="line2d_63">
    <path clip-path="url(#pa924051215)" d="M 266.408333 108.710167 
L 279.026672 107.235948 
L 291.194356 105.589173 
L 302.911385 103.780166 
L 314.628414 101.741099 
L 325.894788 99.55745 
L 337.611817 97.054503 
L 349.328846 94.323443 
L 361.947185 91.148972 
L 375.917489 87.398375 
L 394.394342 82.185107 
L 401.154167 80.246043 
L 401.154167 80.246043 
" style="fill:none;stroke:#e377c2;stroke-linecap:square;stroke-width:1.5;"/>
   </g>
   <g id="line2d_64">
    <path clip-path="url(#pa924051215)" d="M 333.78125 170.4 
L 333.78125 37.551187 
" style="fill:none;stroke:#808080;stroke-dasharray:1.5,2.475;stroke-dashoffset:0;stroke-width:1.5;"/>
   </g>
   <g id="line2d_65">
    <path clip-path="url(#pa924051215)" d="M 266.408333 132.224416 
L 290.743701 139.270061 
L 317.782999 147.047406 
L 332.654613 151.09021 
L 344.822297 154.178392 
L 356.088671 156.80924 
L 366.453735 158.998962 
L 375.917489 160.779599 
L 385.381243 162.330979 
L 394.394342 163.579491 
L 401.154167 164.361418 
L 401.154167 164.361418 
" style="fill:none;stroke:#7f7f7f;stroke-linecap:square;stroke-width:1.5;"/>
   </g>
   <g id="line2d_66">
    <path clip-path="url(#pa924051215)" d="M 333.78125 170.4 
L 333.78125 37.551187 
" style="fill:none;stroke:#808080;stroke-dasharray:1.5,2.475;stroke-dashoffset:0;stroke-width:1.5;"/>
   </g>
   <g id="line2d_67">
    <path clip-path="url(#pa924051215)" d="M 266.408333 154.682684 
L 274.069468 152.129496 
L 282.181257 149.174601 
L 290.743701 145.808409 
L 300.207455 141.838475 
L 311.023174 137.049332 
L 324.993478 130.599105 
L 360.59522 114.03472 
L 371.861594 109.110416 
L 381.776003 105.024303 
L 390.789103 101.555951 
L 398.900892 98.664316 
L 401.154167 97.902877 
L 401.154167 97.902877 
" style="fill:none;stroke:#bcbd22;stroke-linecap:square;stroke-width:1.5;"/>
   </g>
   <g id="line2d_68">
    <path clip-path="url(#pa924051215)" d="M 333.78125 170.4 
L 333.78125 37.551187 
" style="fill:none;stroke:#808080;stroke-dasharray:1.5,2.475;stroke-dashoffset:0;stroke-width:1.5;"/>
   </g>
   <g id="line2d_69">
    <path clip-path="url(#pa924051215)" d="M 266.408333 83.922728 
L 283.533222 90.489942 
L 311.023174 101.033872 
L 324.092168 105.798555 
L 335.809197 109.834734 
L 346.624916 113.320853 
L 356.98998 116.420968 
L 366.90439 119.152267 
L 376.818799 121.648926 
L 386.733208 123.911535 
L 396.647617 125.946289 
L 401.154167 126.798675 
L 401.154167 126.798675 
" style="fill:none;stroke:#17becf;stroke-linecap:square;stroke-width:1.5;"/>
   </g>
   <g id="line2d_70">
    <path clip-path="url(#pa924051215)" d="M 333.78125 170.4 
L 333.78125 37.551187 
" style="fill:none;stroke:#808080;stroke-dasharray:1.5,2.475;stroke-dashoffset:0;stroke-width:1.5;"/>
   </g>
   <g id="line2d_71">
    <path clip-path="url(#pa924051215)" d="M 266.408333 77.674218 
L 274.069468 76.230872 
L 281.730602 75.018951 
L 289.391736 74.041988 
L 297.052871 73.298595 
L 304.714005 72.78251 
L 312.375139 72.482779 
L 320.486929 72.384115 
L 329.049373 72.498859 
L 338.513127 72.848805 
L 349.328846 73.473639 
L 363.749805 74.545038 
L 394.844997 76.916786 
L 401.154167 77.286581 
L 401.154167 77.286581 
" style="fill:none;stroke:#1f77b4;stroke-linecap:square;stroke-width:1.5;"/>
   </g>
   <g id="line2d_72">
    <path clip-path="url(#pa924051215)" d="M 333.78125 170.4 
L 333.78125 37.551187 
" style="fill:none;stroke:#808080;stroke-dasharray:1.5,2.475;stroke-dashoffset:0;stroke-width:1.5;"/>
   </g>
   <g id="line2d_73">
    <path clip-path="url(#pa924051215)" d="M 266.408333 129.907581 
L 279.927982 128.940517 
L 293.447631 127.754803 
L 306.96728 126.352066 
L 320.036274 124.780248 
L 332.654613 123.042271 
L 344.371642 121.211318 
L 355.638016 119.229353 
L 366.453735 117.099854 
L 376.818799 114.831624 
L 386.733208 112.439624 
L 396.647617 109.820732 
L 401.154167 108.553969 
L 401.154167 108.553969 
" style="fill:none;stroke:#ff7f0e;stroke-linecap:square;stroke-width:1.5;"/>
   </g>
   <g id="line2d_74">
    <path clip-path="url(#pa924051215)" d="M 333.78125 170.4 
L 333.78125 37.551187 
" style="fill:none;stroke:#808080;stroke-dasharray:1.5,2.475;stroke-dashoffset:0;stroke-width:1.5;"/>
   </g>
   <g id="line2d_75">
    <path clip-path="url(#pa924051215)" d="M 266.408333 73.577464 
L 287.589116 70.55206 
L 306.96728 68.001723 
L 324.092168 65.967173 
L 339.414437 64.369361 
L 353.384741 63.138456 
L 366.00308 62.245742 
L 378.170764 61.609529 
L 389.437138 61.237702 
L 400.703512 61.090874 
L 401.154167 61.089863 
L 401.154167 61.089863 
" style="fill:none;stroke:#2ca02c;stroke-linecap:square;stroke-width:1.5;"/>
   </g>
   <g id="line2d_76">
    <path clip-path="url(#pa924051215)" d="M 333.78125 170.4 
L 333.78125 37.551187 
" style="fill:none;stroke:#808080;stroke-dasharray:1.5,2.475;stroke-dashoffset:0;stroke-width:1.5;"/>
   </g>
   <g id="line2d_77">
    <path clip-path="url(#pa924051215)" d="M 266.408333 91.757108 
L 279.477327 89.269223 
L 292.095666 87.09717 
L 304.26335 85.226949 
L 316.431034 83.576017 
L 329.049373 82.083292 
L 342.569022 80.705151 
L 357.89129 79.370281 
L 376.818799 77.957486 
L 401.154167 76.344124 
L 401.154167 76.344124 
" style="fill:none;stroke:#d62728;stroke-linecap:square;stroke-width:1.5;"/>
   </g>
   <g id="line2d_78">
    <path clip-path="url(#pa924051215)" d="M 333.78125 170.4 
L 333.78125 37.551187 
" style="fill:none;stroke:#808080;stroke-dasharray:1.5,2.475;stroke-dashoffset:0;stroke-width:1.5;"/>
   </g>
   <g id="line2d_79">
    <path clip-path="url(#pa924051215)" d="M 266.408333 114.679832 
L 280.378637 114.612242 
L 294.348941 114.322562 
L 308.319245 113.806328 
L 322.289548 113.067947 
L 337.161162 112.054591 
L 353.384741 110.718967 
L 373.213559 108.847811 
L 401.154167 106.028026 
L 401.154167 106.028026 
" style="fill:none;stroke:#9467bd;stroke-linecap:square;stroke-width:1.5;"/>
   </g>
   <g id="line2d_80">
    <path clip-path="url(#pa924051215)" d="M 333.78125 170.4 
L 333.78125 37.551187 
" style="fill:none;stroke:#808080;stroke-dasharray:1.5,2.475;stroke-dashoffset:0;stroke-width:1.5;"/>
   </g>
   <g id="line2d_81">
    <path clip-path="url(#pa924051215)" d="M 266.408333 82.553438 
L 297.052871 89.307476 
L 314.177759 92.858836 
L 328.148063 95.541136 
L 340.766402 97.743021 
L 352.483431 99.561916 
L 363.29915 101.022545 
L 374.114869 102.255807 
L 384.479933 103.214012 
L 394.844997 103.949169 
L 401.154167 104.287934 
L 401.154167 104.287934 
" style="fill:none;stroke:#8c564b;stroke-linecap:square;stroke-width:1.5;"/>
   </g>
   <g id="line2d_82">
    <path clip-path="url(#pa924051215)" d="M 333.78125 170.4 
L 333.78125 37.551187 
" style="fill:none;stroke:#808080;stroke-dasharray:1.5,2.475;stroke-dashoffset:0;stroke-width:1.5;"/>
   </g>
   <g id="patch_6">
    <path d="M 266.408333 170.4 
L 266.408333 37.551187 
" style="fill:none;stroke:#000000;stroke-linecap:square;stroke-linejoin:miter;stroke-width:0.8;"/>
   </g>
   <g id="patch_7">
    <path d="M 266.408333 170.4 
L 401.154167 170.4 
" style="fill:none;stroke:#000000;stroke-linecap:square;stroke-linejoin:miter;stroke-width:0.8;"/>
   </g>
  </g>
  <g id="axes_3">
   <g id="patch_8">
    <path d="M 488.266667 170.4 
L 623.0125 170.4 
L 623.0125 37.551187 
L 488.266667 37.551187 
z
" style="fill:#ffffff;"/>
   </g>
   <g id="matplotlib.axis_5">
    <g id="xtick_11">
     <g id="line2d_83">
      <g>
       <use style="stroke:#000000;stroke-width:0.8;" x="488.266667" xlink:href="#md2801459a6" y="170.4"/>
      </g>
     </g>
     <g id="text_23">
      <!-- 0.000 -->
      <g transform="translate(473.952604 184.998437)scale(0.1 -0.1)">
       <use xlink:href="#DejaVuSans-48"/>
       <use x="63.623047" xlink:href="#DejaVuSans-46"/>
       <use x="95.410156" xlink:href="#DejaVuSans-48"/>
       <use x="159.033203" xlink:href="#DejaVuSans-48"/>
       <use x="222.65625" xlink:href="#DejaVuSans-48"/>
      </g>
     </g>
    </g>
    <g id="xtick_12">
     <g id="line2d_84">
      <g>
       <use style="stroke:#000000;stroke-width:0.8;" x="521.953125" xlink:href="#md2801459a6" y="170.4"/>
      </g>
     </g>
     <g id="text_24">
      <!-- 0.025 -->
      <g transform="translate(507.639063 184.998437)scale(0.1 -0.1)">
       <use xlink:href="#DejaVuSans-48"/>
       <use x="63.623047" xlink:href="#DejaVuSans-46"/>
       <use x="95.410156" xlink:href="#DejaVuSans-48"/>
       <use x="159.033203" xlink:href="#DejaVuSans-50"/>
       <use x="222.65625" xlink:href="#DejaVuSans-53"/>
      </g>
     </g>
    </g>
    <g id="xtick_13">
     <g id="line2d_85">
      <g>
       <use style="stroke:#000000;stroke-width:0.8;" x="555.639583" xlink:href="#md2801459a6" y="170.4"/>
      </g>
     </g>
     <g id="text_25">
      <!-- 0.050 -->
      <g transform="translate(541.325521 184.998437)scale(0.1 -0.1)">
       <use xlink:href="#DejaVuSans-48"/>
       <use x="63.623047" xlink:href="#DejaVuSans-46"/>
       <use x="95.410156" xlink:href="#DejaVuSans-48"/>
       <use x="159.033203" xlink:href="#DejaVuSans-53"/>
       <use x="222.65625" xlink:href="#DejaVuSans-48"/>
      </g>
     </g>
    </g>
    <g id="xtick_14">
     <g id="line2d_86">
      <g>
       <use style="stroke:#000000;stroke-width:0.8;" x="589.326042" xlink:href="#md2801459a6" y="170.4"/>
      </g>
     </g>
     <g id="text_26">
      <!-- 0.075 -->
      <g transform="translate(575.011979 184.998437)scale(0.1 -0.1)">
       <use xlink:href="#DejaVuSans-48"/>
       <use x="63.623047" xlink:href="#DejaVuSans-46"/>
       <use x="95.410156" xlink:href="#DejaVuSans-48"/>
       <use x="159.033203" xlink:href="#DejaVuSans-55"/>
       <use x="222.65625" xlink:href="#DejaVuSans-53"/>
      </g>
     </g>
    </g>
    <g id="xtick_15">
     <g id="line2d_87">
      <g>
       <use style="stroke:#000000;stroke-width:0.8;" x="623.0125" xlink:href="#md2801459a6" y="170.4"/>
      </g>
     </g>
     <g id="text_27">
      <!-- 0.100 -->
      <g transform="translate(608.698437 184.998437)scale(0.1 -0.1)">
       <use xlink:href="#DejaVuSans-48"/>
       <use x="63.623047" xlink:href="#DejaVuSans-46"/>
       <use x="95.410156" xlink:href="#DejaVuSans-49"/>
       <use x="159.033203" xlink:href="#DejaVuSans-48"/>
       <use x="222.65625" xlink:href="#DejaVuSans-48"/>
      </g>
     </g>
    </g>
    <g id="text_28">
     <!-- $\theta_2$ -->
     <g transform="translate(550.189583 198.676562)scale(0.1 -0.1)">
      <use transform="translate(0 0.234375)" xlink:href="#DejaVuSans-Oblique-952"/>
      <use transform="translate(61.181641 -16.171875)scale(0.7)" xlink:href="#DejaVuSans-50"/>
     </g>
    </g>
   </g>
   <g id="matplotlib.axis_6">
    <g id="ytick_9">
     <g id="line2d_88">
      <g>
       <use style="stroke:#000000;stroke-width:0.8;" x="488.266667" xlink:href="#mc5504031eb" y="164.361418"/>
      </g>
     </g>
     <g id="text_29">
      <!-- 0 -->
      <g transform="translate(474.904167 168.160636)scale(0.1 -0.1)">
       <use xlink:href="#DejaVuSans-48"/>
      </g>
     </g>
    </g>
    <g id="ytick_10">
     <g id="line2d_89">
      <g>
       <use style="stroke:#000000;stroke-width:0.8;" x="488.266667" xlink:href="#mc5504031eb" y="132.947852"/>
      </g>
     </g>
     <g id="text_30">
      <!-- 2000 -->
      <g transform="translate(455.816667 136.747071)scale(0.1 -0.1)">
       <use xlink:href="#DejaVuSans-50"/>
       <use x="63.623047" xlink:href="#DejaVuSans-48"/>
       <use x="127.246094" xlink:href="#DejaVuSans-48"/>
       <use x="190.869141" xlink:href="#DejaVuSans-48"/>
      </g>
     </g>
    </g>
    <g id="ytick_11">
     <g id="line2d_90">
      <g>
       <use style="stroke:#000000;stroke-width:0.8;" x="488.266667" xlink:href="#mc5504031eb" y="101.534287"/>
      </g>
     </g>
     <g id="text_31">
      <!-- 4000 -->
      <g transform="translate(455.816667 105.333506)scale(0.1 -0.1)">
       <use xlink:href="#DejaVuSans-52"/>
       <use x="63.623047" xlink:href="#DejaVuSans-48"/>
       <use x="127.246094" xlink:href="#DejaVuSans-48"/>
       <use x="190.869141" xlink:href="#DejaVuSans-48"/>
      </g>
     </g>
    </g>
    <g id="ytick_12">
     <g id="line2d_91">
      <g>
       <use style="stroke:#000000;stroke-width:0.8;" x="488.266667" xlink:href="#mc5504031eb" y="70.120722"/>
      </g>
     </g>
     <g id="text_32">
      <!-- 6000 -->
      <g transform="translate(455.816667 73.919941)scale(0.1 -0.1)">
       <use xlink:href="#DejaVuSans-54"/>
       <use x="63.623047" xlink:href="#DejaVuSans-48"/>
       <use x="127.246094" xlink:href="#DejaVuSans-48"/>
       <use x="190.869141" xlink:href="#DejaVuSans-48"/>
      </g>
     </g>
    </g>
    <g id="ytick_13">
     <g id="line2d_92">
      <g>
       <use style="stroke:#000000;stroke-width:0.8;" x="488.266667" xlink:href="#mc5504031eb" y="38.707157"/>
      </g>
     </g>
     <g id="text_33">
      <!-- 8000 -->
      <g transform="translate(455.816667 42.506375)scale(0.1 -0.1)">
       <use xlink:href="#DejaVuSans-56"/>
       <use x="63.623047" xlink:href="#DejaVuSans-48"/>
       <use x="127.246094" xlink:href="#DejaVuSans-48"/>
       <use x="190.869141" xlink:href="#DejaVuSans-48"/>
      </g>
     </g>
    </g>
    <g id="text_34">
     <!-- Posterior -->
     <g transform="translate(449.736979 126.069344)rotate(-90)scale(0.1 -0.1)">
      <use xlink:href="#DejaVuSans-80"/>
      <use x="56.677734" xlink:href="#DejaVuSans-111"/>
      <use x="117.859375" xlink:href="#DejaVuSans-115"/>
      <use x="169.958984" xlink:href="#DejaVuSans-116"/>
      <use x="209.167969" xlink:href="#DejaVuSans-101"/>
      <use x="270.691406" xlink:href="#DejaVuSans-114"/>
      <use x="311.804688" xlink:href="#DejaVuSans-105"/>
      <use x="339.587891" xlink:href="#DejaVuSans-111"/>
      <use x="400.769531" xlink:href="#DejaVuSans-114"/>
     </g>
    </g>
   </g>
   <g id="line2d_93">
    <path clip-path="url(#p6405347934)" d="M 488.266667 164.361418 
L 550.006396 164.255445 
L 567.131285 164.075942 
L 598.226477 164.060942 
L 623.0125 164.209035 
L 623.0125 164.209035 
" style="fill:none;stroke:#1f77b4;stroke-linecap:square;stroke-width:1.5;"/>
   </g>
   <g id="line2d_94">
    <path clip-path="url(#p6405347934)" style="fill:none;stroke:#808080;stroke-dasharray:1.5,2.475;stroke-dashoffset:0;stroke-width:1.5;"/>
   </g>
   <g id="line2d_95">
    <path clip-path="url(#p6405347934)" d="M 488.266667 164.361418 
L 579.298969 164.255242 
L 595.071892 163.860061 
L 618.50595 163.841885 
L 623.0125 164.097702 
L 623.0125 164.097702 
" style="fill:none;stroke:#ff7f0e;stroke-linecap:square;stroke-width:1.5;"/>
   </g>
   <g id="line2d_96">
    <path clip-path="url(#p6405347934)" style="fill:none;stroke:#808080;stroke-dasharray:1.5,2.475;stroke-dashoffset:0;stroke-width:1.5;"/>
   </g>
   <g id="line2d_97">
    <path clip-path="url(#p6405347934)" d="M 488.266667 164.361418 
L 600.479752 164.279648 
L 603.183682 163.97547 
L 609.492851 163.142233 
L 611.746126 163.220443 
L 614.900711 163.323481 
L 620.30857 163.280979 
L 621.660535 163.462451 
L 623.0125 163.814763 
L 623.0125 163.814763 
" style="fill:none;stroke:#2ca02c;stroke-linecap:square;stroke-width:1.5;"/>
   </g>
   <g id="line2d_98">
    <path clip-path="url(#p6405347934)" style="fill:none;stroke:#808080;stroke-dasharray:1.5,2.475;stroke-dashoffset:0;stroke-width:1.5;"/>
   </g>
   <g id="line2d_99">
    <path clip-path="url(#p6405347934)" d="M 488.266667 164.361418 
L 611.295471 164.319699 
L 612.196781 164.059058 
L 613.098091 163.438672 
L 614.450056 162.419253 
L 615.351366 162.180678 
L 616.703331 162.081592 
L 618.50595 161.825988 
L 619.40726 161.792172 
L 620.30857 162.177695 
L 621.20988 162.606163 
L 622.11119 162.894287 
L 623.0125 163.527892 
L 623.0125 163.527892 
" style="fill:none;stroke:#d62728;stroke-linecap:square;stroke-width:1.5;"/>
   </g>
   <g id="line2d_100">
    <path clip-path="url(#p6405347934)" style="fill:none;stroke:#808080;stroke-dasharray:1.5,2.475;stroke-dashoffset:0;stroke-width:1.5;"/>
   </g>
   <g id="line2d_101">
    <path clip-path="url(#p6405347934)" d="M 488.266667 164.361418 
L 616.703331 164.351872 
L 617.153986 164.19418 
L 617.60464 163.297665 
L 618.50595 159.62882 
L 618.956605 159.221372 
L 619.40726 159.445095 
L 619.857915 159.407719 
L 620.759225 159.858228 
L 621.20988 160.301354 
L 622.561845 162.310828 
L 623.0125 163.2484 
L 623.0125 163.2484 
" style="fill:none;stroke:#9467bd;stroke-linecap:square;stroke-width:1.5;"/>
   </g>
   <g id="line2d_102">
    <path clip-path="url(#p6405347934)" style="fill:none;stroke:#808080;stroke-dasharray:1.5,2.475;stroke-dashoffset:0;stroke-width:1.5;"/>
   </g>
   <g id="line2d_103">
    <path clip-path="url(#p6405347934)" d="M 488.266667 164.361418 
L 619.40726 164.286853 
L 619.857915 161.805717 
L 620.30857 155.145269 
L 620.759225 155.366155 
L 621.20988 156.156743 
L 622.561845 160.482201 
L 623.0125 162.85667 
L 623.0125 162.85667 
" style="fill:none;stroke:#8c564b;stroke-linecap:square;stroke-width:1.5;"/>
   </g>
   <g id="line2d_104">
    <path clip-path="url(#p6405347934)" style="fill:none;stroke:#808080;stroke-dasharray:1.5,2.475;stroke-dashoffset:0;stroke-width:1.5;"/>
   </g>
   <g id="line2d_105">
    <path clip-path="url(#p6405347934)" d="M 488.266667 164.361418 
L 620.30857 164.361403 
L 620.759225 164.038851 
L 621.20988 154.215539 
L 621.660535 150.289437 
L 622.11119 151.378312 
L 622.561845 156.194346 
L 623.0125 162.612769 
L 623.0125 162.612769 
" style="fill:none;stroke:#e377c2;stroke-linecap:square;stroke-width:1.5;"/>
   </g>
   <g id="line2d_106">
    <path clip-path="url(#p6405347934)" style="fill:none;stroke:#808080;stroke-dasharray:1.5,2.475;stroke-dashoffset:0;stroke-width:1.5;"/>
   </g>
   <g id="line2d_107">
    <path clip-path="url(#p6405347934)" d="M 488.266667 164.361418 
L 621.20988 164.360553 
L 621.660535 160.293092 
L 622.11119 140.112768 
L 622.561845 148.213264 
L 623.0125 161.571207 
L 623.0125 161.571207 
" style="fill:none;stroke:#7f7f7f;stroke-linecap:square;stroke-width:1.5;"/>
   </g>
   <g id="line2d_108">
    <path clip-path="url(#p6405347934)" style="fill:none;stroke:#808080;stroke-dasharray:1.5,2.475;stroke-dashoffset:0;stroke-width:1.5;"/>
   </g>
   <g id="line2d_109">
    <path clip-path="url(#p6405347934)" d="M 488.266667 164.361418 
L 621.660535 164.361414 
L 622.11119 157.807802 
L 622.561845 130.189875 
L 623.0125 159.811822 
L 623.0125 159.811822 
" style="fill:none;stroke:#bcbd22;stroke-linecap:square;stroke-width:1.5;"/>
   </g>
   <g id="line2d_110">
    <path clip-path="url(#p6405347934)" style="fill:none;stroke:#808080;stroke-dasharray:1.5,2.475;stroke-dashoffset:0;stroke-width:1.5;"/>
   </g>
   <g id="line2d_111">
    <path clip-path="url(#p6405347934)" d="M 488.266667 164.361418 
L 622.11119 164.361375 
L 622.561845 123.073225 
L 623.0125 156.371687 
L 623.0125 156.371687 
" style="fill:none;stroke:#17becf;stroke-linecap:square;stroke-width:1.5;"/>
   </g>
   <g id="line2d_112">
    <path clip-path="url(#p6405347934)" style="fill:none;stroke:#808080;stroke-dasharray:1.5,2.475;stroke-dashoffset:0;stroke-width:1.5;"/>
   </g>
   <g id="line2d_113">
    <path clip-path="url(#p6405347934)" d="M 488.266667 164.361418 
L 622.11119 164.361418 
L 622.561845 150.691491 
L 623.0125 149.784453 
L 623.0125 149.784453 
" style="fill:none;stroke:#1f77b4;stroke-linecap:square;stroke-width:1.5;"/>
   </g>
   <g id="line2d_114">
    <path clip-path="url(#p6405347934)" style="fill:none;stroke:#808080;stroke-dasharray:1.5,2.475;stroke-dashoffset:0;stroke-width:1.5;"/>
   </g>
   <g id="line2d_115">
    <path clip-path="url(#p6405347934)" d="M 488.266667 164.361418 
L 622.11119 164.361418 
L 622.561845 162.937509 
L 623.0125 136.860179 
L 623.0125 136.860179 
" style="fill:none;stroke:#ff7f0e;stroke-linecap:square;stroke-width:1.5;"/>
   </g>
   <g id="line2d_116">
    <path clip-path="url(#p6405347934)" style="fill:none;stroke:#808080;stroke-dasharray:1.5,2.475;stroke-dashoffset:0;stroke-width:1.5;"/>
   </g>
   <g id="line2d_117">
    <path clip-path="url(#p6405347934)" d="M 488.266667 164.361418 
L 622.561845 164.361418 
L 623.0125 118.769762 
L 623.0125 118.769762 
" style="fill:none;stroke:#2ca02c;stroke-linecap:square;stroke-width:1.5;"/>
   </g>
   <g id="line2d_118">
    <path clip-path="url(#p6405347934)" style="fill:none;stroke:#808080;stroke-dasharray:1.5,2.475;stroke-dashoffset:0;stroke-width:1.5;"/>
   </g>
   <g id="line2d_119">
    <path clip-path="url(#p6405347934)" d="M 488.266667 164.361418 
L 622.561845 164.361418 
L 623.0125 101.673631 
L 623.0125 101.673631 
" style="fill:none;stroke:#d62728;stroke-linecap:square;stroke-width:1.5;"/>
   </g>
   <g id="line2d_120">
    <path clip-path="url(#p6405347934)" style="fill:none;stroke:#808080;stroke-dasharray:1.5,2.475;stroke-dashoffset:0;stroke-width:1.5;"/>
   </g>
   <g id="line2d_121">
    <path clip-path="url(#p6405347934)" d="M 488.266667 164.361418 
L 622.561845 164.361418 
L 623.0125 69.411323 
L 623.0125 69.411323 
" style="fill:none;stroke:#9467bd;stroke-linecap:square;stroke-width:1.5;"/>
   </g>
   <g id="line2d_122">
    <path clip-path="url(#p6405347934)" style="fill:none;stroke:#808080;stroke-dasharray:1.5,2.475;stroke-dashoffset:0;stroke-width:1.5;"/>
   </g>
   <g id="line2d_123">
    <path clip-path="url(#p6405347934)" d="M 488.266667 164.361418 
L 622.561845 164.361418 
L 623.0125 43.58977 
L 623.0125 43.58977 
" style="fill:none;stroke:#8c564b;stroke-linecap:square;stroke-width:1.5;"/>
   </g>
   <g id="line2d_124">
    <path clip-path="url(#p6405347934)" style="fill:none;stroke:#808080;stroke-dasharray:1.5,2.475;stroke-dashoffset:0;stroke-width:1.5;"/>
   </g>
   <g id="patch_9">
    <path d="M 488.266667 170.4 
L 488.266667 37.551187 
" style="fill:none;stroke:#000000;stroke-linecap:square;stroke-linejoin:miter;stroke-width:0.8;"/>
   </g>
   <g id="patch_10">
    <path d="M 488.266667 170.4 
L 623.0125 170.4 
" style="fill:none;stroke:#000000;stroke-linecap:square;stroke-linejoin:miter;stroke-width:0.8;"/>
   </g>
  </g>
  <g id="text_35">
   <!-- adaptive, info weighted, linear model, 2 refits -->
   <g transform="translate(186.868125 13.438125)scale(0.12 -0.12)">
    <defs>
     <path d="M 34.28125 27.484375 
Q 23.390625 27.484375 19.1875 25 
Q 14.984375 22.515625 14.984375 16.5 
Q 14.984375 11.71875 18.140625 8.90625 
Q 21.296875 6.109375 26.703125 6.109375 
Q 34.1875 6.109375 38.703125 11.40625 
Q 43.21875 16.703125 43.21875 25.484375 
L 43.21875 27.484375 
z
M 52.203125 31.203125 
L 52.203125 0 
L 43.21875 0 
L 43.21875 8.296875 
Q 40.140625 3.328125 35.546875 0.953125 
Q 30.953125 -1.421875 24.3125 -1.421875 
Q 15.921875 -1.421875 10.953125 3.296875 
Q 6 8.015625 6 15.921875 
Q 6 25.140625 12.171875 29.828125 
Q 18.359375 34.515625 30.609375 34.515625 
L 43.21875 34.515625 
L 43.21875 35.40625 
Q 43.21875 41.609375 39.140625 45 
Q 35.0625 48.390625 27.6875 48.390625 
Q 23 48.390625 18.546875 47.265625 
Q 14.109375 46.140625 10.015625 43.890625 
L 10.015625 52.203125 
Q 14.9375 54.109375 19.578125 55.046875 
Q 24.21875 56 28.609375 56 
Q 40.484375 56 46.34375 49.84375 
Q 52.203125 43.703125 52.203125 31.203125 
z
" id="DejaVuSans-97"/>
     <path d="M 45.40625 46.390625 
L 45.40625 75.984375 
L 54.390625 75.984375 
L 54.390625 0 
L 45.40625 0 
L 45.40625 8.203125 
Q 42.578125 3.328125 38.25 0.953125 
Q 33.9375 -1.421875 27.875 -1.421875 
Q 17.96875 -1.421875 11.734375 6.484375 
Q 5.515625 14.40625 5.515625 27.296875 
Q 5.515625 40.1875 11.734375 48.09375 
Q 17.96875 56 27.875 56 
Q 33.9375 56 38.25 53.625 
Q 42.578125 51.265625 45.40625 46.390625 
z
M 14.796875 27.296875 
Q 14.796875 17.390625 18.875 11.75 
Q 22.953125 6.109375 30.078125 6.109375 
Q 37.203125 6.109375 41.296875 11.75 
Q 45.40625 17.390625 45.40625 27.296875 
Q 45.40625 37.203125 41.296875 42.84375 
Q 37.203125 48.484375 30.078125 48.484375 
Q 22.953125 48.484375 18.875 42.84375 
Q 14.796875 37.203125 14.796875 27.296875 
z
" id="DejaVuSans-100"/>
     <path d="M 18.109375 8.203125 
L 18.109375 -20.796875 
L 9.078125 -20.796875 
L 9.078125 54.6875 
L 18.109375 54.6875 
L 18.109375 46.390625 
Q 20.953125 51.265625 25.265625 53.625 
Q 29.59375 56 35.59375 56 
Q 45.5625 56 51.78125 48.09375 
Q 58.015625 40.1875 58.015625 27.296875 
Q 58.015625 14.40625 51.78125 6.484375 
Q 45.5625 -1.421875 35.59375 -1.421875 
Q 29.59375 -1.421875 25.265625 0.953125 
Q 20.953125 3.328125 18.109375 8.203125 
z
M 48.6875 27.296875 
Q 48.6875 37.203125 44.609375 42.84375 
Q 40.53125 48.484375 33.40625 48.484375 
Q 26.265625 48.484375 22.1875 42.84375 
Q 18.109375 37.203125 18.109375 27.296875 
Q 18.109375 17.390625 22.1875 11.75 
Q 26.265625 6.109375 33.40625 6.109375 
Q 40.53125 6.109375 44.609375 11.75 
Q 48.6875 17.390625 48.6875 27.296875 
z
" id="DejaVuSans-112"/>
     <path d="M 2.984375 54.6875 
L 12.5 54.6875 
L 29.59375 8.796875 
L 46.6875 54.6875 
L 56.203125 54.6875 
L 35.6875 0 
L 23.484375 0 
z
" id="DejaVuSans-118"/>
     <path d="M 11.71875 12.40625 
L 22.015625 12.40625 
L 22.015625 4 
L 14.015625 -11.625 
L 7.71875 -11.625 
L 11.71875 4 
z
" id="DejaVuSans-44"/>
     <path id="DejaVuSans-32"/>
     <path d="M 54.890625 33.015625 
L 54.890625 0 
L 45.90625 0 
L 45.90625 32.71875 
Q 45.90625 40.484375 42.875 44.328125 
Q 39.84375 48.1875 33.796875 48.1875 
Q 26.515625 48.1875 22.3125 43.546875 
Q 18.109375 38.921875 18.109375 30.90625 
L 18.109375 0 
L 9.078125 0 
L 9.078125 54.6875 
L 18.109375 54.6875 
L 18.109375 46.1875 
Q 21.34375 51.125 25.703125 53.5625 
Q 30.078125 56 35.796875 56 
Q 45.21875 56 50.046875 50.171875 
Q 54.890625 44.34375 54.890625 33.015625 
z
" id="DejaVuSans-110"/>
     <path d="M 37.109375 75.984375 
L 37.109375 68.5 
L 28.515625 68.5 
Q 23.6875 68.5 21.796875 66.546875 
Q 19.921875 64.59375 19.921875 59.515625 
L 19.921875 54.6875 
L 34.71875 54.6875 
L 34.71875 47.703125 
L 19.921875 47.703125 
L 19.921875 0 
L 10.890625 0 
L 10.890625 47.703125 
L 2.296875 47.703125 
L 2.296875 54.6875 
L 10.890625 54.6875 
L 10.890625 58.5 
Q 10.890625 67.625 15.140625 71.796875 
Q 19.390625 75.984375 28.609375 75.984375 
z
" id="DejaVuSans-102"/>
     <path d="M 4.203125 54.6875 
L 13.1875 54.6875 
L 24.421875 12.015625 
L 35.59375 54.6875 
L 46.1875 54.6875 
L 57.421875 12.015625 
L 68.609375 54.6875 
L 77.59375 54.6875 
L 63.28125 0 
L 52.6875 0 
L 40.921875 44.828125 
L 29.109375 0 
L 18.5 0 
z
" id="DejaVuSans-119"/>
     <path d="M 45.40625 27.984375 
Q 45.40625 37.75 41.375 43.109375 
Q 37.359375 48.484375 30.078125 48.484375 
Q 22.859375 48.484375 18.828125 43.109375 
Q 14.796875 37.75 14.796875 27.984375 
Q 14.796875 18.265625 18.828125 12.890625 
Q 22.859375 7.515625 30.078125 7.515625 
Q 37.359375 7.515625 41.375 12.890625 
Q 45.40625 18.265625 45.40625 27.984375 
z
M 54.390625 6.78125 
Q 54.390625 -7.171875 48.1875 -13.984375 
Q 42 -20.796875 29.203125 -20.796875 
Q 24.46875 -20.796875 20.265625 -20.09375 
Q 16.0625 -19.390625 12.109375 -17.921875 
L 12.109375 -9.1875 
Q 16.0625 -11.328125 19.921875 -12.34375 
Q 23.78125 -13.375 27.78125 -13.375 
Q 36.625 -13.375 41.015625 -8.765625 
Q 45.40625 -4.15625 45.40625 5.171875 
L 45.40625 9.625 
Q 42.625 4.78125 38.28125 2.390625 
Q 33.9375 0 27.875 0 
Q 17.828125 0 11.671875 7.65625 
Q 5.515625 15.328125 5.515625 27.984375 
Q 5.515625 40.671875 11.671875 48.328125 
Q 17.828125 56 27.875 56 
Q 33.9375 56 38.28125 53.609375 
Q 42.625 51.21875 45.40625 46.390625 
L 45.40625 54.6875 
L 54.390625 54.6875 
z
" id="DejaVuSans-103"/>
     <path d="M 54.890625 33.015625 
L 54.890625 0 
L 45.90625 0 
L 45.90625 32.71875 
Q 45.90625 40.484375 42.875 44.328125 
Q 39.84375 48.1875 33.796875 48.1875 
Q 26.515625 48.1875 22.3125 43.546875 
Q 18.109375 38.921875 18.109375 30.90625 
L 18.109375 0 
L 9.078125 0 
L 9.078125 75.984375 
L 18.109375 75.984375 
L 18.109375 46.1875 
Q 21.34375 51.125 25.703125 53.5625 
Q 30.078125 56 35.796875 56 
Q 45.21875 56 50.046875 50.171875 
Q 54.890625 44.34375 54.890625 33.015625 
z
" id="DejaVuSans-104"/>
     <path d="M 9.421875 75.984375 
L 18.40625 75.984375 
L 18.40625 0 
L 9.421875 0 
z
" id="DejaVuSans-108"/>
     <path d="M 52 44.1875 
Q 55.375 50.25 60.0625 53.125 
Q 64.75 56 71.09375 56 
Q 79.640625 56 84.28125 50.015625 
Q 88.921875 44.046875 88.921875 33.015625 
L 88.921875 0 
L 79.890625 0 
L 79.890625 32.71875 
Q 79.890625 40.578125 77.09375 44.375 
Q 74.3125 48.1875 68.609375 48.1875 
Q 61.625 48.1875 57.5625 43.546875 
Q 53.515625 38.921875 53.515625 30.90625 
L 53.515625 0 
L 44.484375 0 
L 44.484375 32.71875 
Q 44.484375 40.625 41.703125 44.40625 
Q 38.921875 48.1875 33.109375 48.1875 
Q 26.21875 48.1875 22.15625 43.53125 
Q 18.109375 38.875 18.109375 30.90625 
L 18.109375 0 
L 9.078125 0 
L 9.078125 54.6875 
L 18.109375 54.6875 
L 18.109375 46.1875 
Q 21.1875 51.21875 25.484375 53.609375 
Q 29.78125 56 35.6875 56 
Q 41.65625 56 45.828125 52.96875 
Q 50 49.953125 52 44.1875 
z
" id="DejaVuSans-109"/>
    </defs>
    <use xlink:href="#DejaVuSans-97"/>
    <use x="61.279297" xlink:href="#DejaVuSans-100"/>
    <use x="124.755859" xlink:href="#DejaVuSans-97"/>
    <use x="186.035156" xlink:href="#DejaVuSans-112"/>
    <use x="249.511719" xlink:href="#DejaVuSans-116"/>
    <use x="288.720703" xlink:href="#DejaVuSans-105"/>
    <use x="316.503906" xlink:href="#DejaVuSans-118"/>
    <use x="375.683594" xlink:href="#DejaVuSans-101"/>
    <use x="437.207031" xlink:href="#DejaVuSans-44"/>
    <use x="468.994141" xlink:href="#DejaVuSans-32"/>
    <use x="500.78125" xlink:href="#DejaVuSans-105"/>
    <use x="528.564453" xlink:href="#DejaVuSans-110"/>
    <use x="591.943359" xlink:href="#DejaVuSans-102"/>
    <use x="627.148438" xlink:href="#DejaVuSans-111"/>
    <use x="688.330078" xlink:href="#DejaVuSans-32"/>
    <use x="720.117188" xlink:href="#DejaVuSans-119"/>
    <use x="801.904297" xlink:href="#DejaVuSans-101"/>
    <use x="863.427734" xlink:href="#DejaVuSans-105"/>
    <use x="891.210938" xlink:href="#DejaVuSans-103"/>
    <use x="954.6875" xlink:href="#DejaVuSans-104"/>
    <use x="1018.066406" xlink:href="#DejaVuSans-116"/>
    <use x="1057.275391" xlink:href="#DejaVuSans-101"/>
    <use x="1118.798828" xlink:href="#DejaVuSans-100"/>
    <use x="1182.275391" xlink:href="#DejaVuSans-44"/>
    <use x="1214.0625" xlink:href="#DejaVuSans-32"/>
    <use x="1245.849609" xlink:href="#DejaVuSans-108"/>
    <use x="1273.632812" xlink:href="#DejaVuSans-105"/>
    <use x="1301.416016" xlink:href="#DejaVuSans-110"/>
    <use x="1364.794922" xlink:href="#DejaVuSans-101"/>
    <use x="1426.318359" xlink:href="#DejaVuSans-97"/>
    <use x="1487.597656" xlink:href="#DejaVuSans-114"/>
    <use x="1528.710938" xlink:href="#DejaVuSans-32"/>
    <use x="1560.498047" xlink:href="#DejaVuSans-109"/>
    <use x="1657.910156" xlink:href="#DejaVuSans-111"/>
    <use x="1719.091797" xlink:href="#DejaVuSans-100"/>
    <use x="1782.568359" xlink:href="#DejaVuSans-101"/>
    <use x="1844.091797" xlink:href="#DejaVuSans-108"/>
    <use x="1871.875" xlink:href="#DejaVuSans-44"/>
    <use x="1903.662109" xlink:href="#DejaVuSans-32"/>
    <use x="1935.449219" xlink:href="#DejaVuSans-50"/>
    <use x="1999.072266" xlink:href="#DejaVuSans-32"/>
    <use x="2030.859375" xlink:href="#DejaVuSans-114"/>
    <use x="2069.722656" xlink:href="#DejaVuSans-101"/>
    <use x="2131.246094" xlink:href="#DejaVuSans-102"/>
    <use x="2166.451172" xlink:href="#DejaVuSans-105"/>
    <use x="2194.234375" xlink:href="#DejaVuSans-116"/>
    <use x="2233.443359" xlink:href="#DejaVuSans-115"/>
   </g>
  </g>
 </g>
 <defs>
  <clipPath id="p75e3c0d15c">
   <rect height="132.848813" width="134.745833" x="44.55" y="37.551187"/>
  </clipPath>
  <clipPath id="pa924051215">
   <rect height="132.848813" width="134.745833" x="266.408333" y="37.551187"/>
  </clipPath>
  <clipPath id="p6405347934">
   <rect height="132.848813" width="134.745833" x="488.266667" y="37.551187"/>
  </clipPath>
 </defs>
</svg>
