<?xml version="1.0" encoding="utf-8" standalone="no"?>
<!DOCTYPE svg PUBLIC "-//W3C//DTD SVG 1.1//EN"
  "http://www.w3.org/Graphics/SVG/1.1/DTD/svg11.dtd">
<!-- Created with matplotlib (https://matplotlib.org/) -->
<svg height="216pt" version="1.1" viewBox="0 0 648 216" width="648pt" xmlns="http://www.w3.org/2000/svg" xmlns:xlink="http://www.w3.org/1999/xlink">
 <metadata>
  <rdf:RDF xmlns:cc="http://creativecommons.org/ns#" xmlns:dc="http://purl.org/dc/elements/1.1/" xmlns:rdf="http://www.w3.org/1999/02/22-rdf-syntax-ns#">
   <cc:Work>
    <dc:type rdf:resource="http://purl.org/dc/dcmitype/StillImage"/>
    <dc:date>2021-04-22T11:29:15.964812</dc:date>
    <dc:format>image/svg+xml</dc:format>
    <dc:creator>
     <cc:Agent>
      <dc:title>Matplotlib v3.3.4, https://matplotlib.org/</dc:title>
     </cc:Agent>
    </dc:creator>
   </cc:Work>
  </rdf:RDF>
 </metadata>
 <defs>
  <style type="text/css">*{stroke-linecap:butt;stroke-linejoin:round;}</style>
 </defs>
 <g id="figure_1">
  <g id="patch_1">
   <path d="M 0 216 
L 648 216 
L 648 0 
L 0 0 
z
" style="fill:none;"/>
  </g>
  <g id="axes_1">
   <g id="patch_2">
    <path d="M 44.55 170.4 
L 187.795833 170.4 
L 187.795833 34.6 
L 44.55 34.6 
z
" style="fill:#ffffff;"/>
   </g>
   <g id="matplotlib.axis_1">
    <g id="xtick_1">
     <g id="line2d_1">
      <defs>
       <path d="M 0 0 
L 0 3.5 
" id="m8d2c7544d6" style="stroke:#000000;stroke-width:0.8;"/>
      </defs>
      <g>
       <use style="stroke:#000000;stroke-width:0.8;" x="44.55" xlink:href="#m8d2c7544d6" y="170.4"/>
      </g>
     </g>
     <g id="text_1">
      <!-- 0.000 -->
      <g transform="translate(30.235938 184.998437)scale(0.1 -0.1)">
       <defs>
        <path d="M 31.78125 66.40625 
Q 24.171875 66.40625 20.328125 58.90625 
Q 16.5 51.421875 16.5 36.375 
Q 16.5 21.390625 20.328125 13.890625 
Q 24.171875 6.390625 31.78125 6.390625 
Q 39.453125 6.390625 43.28125 13.890625 
Q 47.125 21.390625 47.125 36.375 
Q 47.125 51.421875 43.28125 58.90625 
Q 39.453125 66.40625 31.78125 66.40625 
z
M 31.78125 74.21875 
Q 44.046875 74.21875 50.515625 64.515625 
Q 56.984375 54.828125 56.984375 36.375 
Q 56.984375 17.96875 50.515625 8.265625 
Q 44.046875 -1.421875 31.78125 -1.421875 
Q 19.53125 -1.421875 13.0625 8.265625 
Q 6.59375 17.96875 6.59375 36.375 
Q 6.59375 54.828125 13.0625 64.515625 
Q 19.53125 74.21875 31.78125 74.21875 
z
" id="DejaVuSans-48"/>
        <path d="M 10.6875 12.40625 
L 21 12.40625 
L 21 0 
L 10.6875 0 
z
" id="DejaVuSans-46"/>
       </defs>
       <use xlink:href="#DejaVuSans-48"/>
       <use x="63.623047" xlink:href="#DejaVuSans-46"/>
       <use x="95.410156" xlink:href="#DejaVuSans-48"/>
       <use x="159.033203" xlink:href="#DejaVuSans-48"/>
       <use x="222.65625" xlink:href="#DejaVuSans-48"/>
      </g>
     </g>
    </g>
    <g id="xtick_2">
     <g id="line2d_2">
      <g>
       <use style="stroke:#000000;stroke-width:0.8;" x="80.361458" xlink:href="#m8d2c7544d6" y="170.4"/>
      </g>
     </g>
     <g id="text_2">
      <!-- 0.025 -->
      <g transform="translate(66.047396 184.998437)scale(0.1 -0.1)">
       <defs>
        <path d="M 19.1875 8.296875 
L 53.609375 8.296875 
L 53.609375 0 
L 7.328125 0 
L 7.328125 8.296875 
Q 12.9375 14.109375 22.625 23.890625 
Q 32.328125 33.6875 34.8125 36.53125 
Q 39.546875 41.84375 41.421875 45.53125 
Q 43.3125 49.21875 43.3125 52.78125 
Q 43.3125 58.59375 39.234375 62.25 
Q 35.15625 65.921875 28.609375 65.921875 
Q 23.96875 65.921875 18.8125 64.3125 
Q 13.671875 62.703125 7.8125 59.421875 
L 7.8125 69.390625 
Q 13.765625 71.78125 18.9375 73 
Q 24.125 74.21875 28.421875 74.21875 
Q 39.75 74.21875 46.484375 68.546875 
Q 53.21875 62.890625 53.21875 53.421875 
Q 53.21875 48.921875 51.53125 44.890625 
Q 49.859375 40.875 45.40625 35.40625 
Q 44.1875 33.984375 37.640625 27.21875 
Q 31.109375 20.453125 19.1875 8.296875 
z
" id="DejaVuSans-50"/>
        <path d="M 10.796875 72.90625 
L 49.515625 72.90625 
L 49.515625 64.59375 
L 19.828125 64.59375 
L 19.828125 46.734375 
Q 21.96875 47.46875 24.109375 47.828125 
Q 26.265625 48.1875 28.421875 48.1875 
Q 40.625 48.1875 47.75 41.5 
Q 54.890625 34.8125 54.890625 23.390625 
Q 54.890625 11.625 47.5625 5.09375 
Q 40.234375 -1.421875 26.90625 -1.421875 
Q 22.3125 -1.421875 17.546875 -0.640625 
Q 12.796875 0.140625 7.71875 1.703125 
L 7.71875 11.625 
Q 12.109375 9.234375 16.796875 8.0625 
Q 21.484375 6.890625 26.703125 6.890625 
Q 35.15625 6.890625 40.078125 11.328125 
Q 45.015625 15.765625 45.015625 23.390625 
Q 45.015625 31 40.078125 35.4375 
Q 35.15625 39.890625 26.703125 39.890625 
Q 22.75 39.890625 18.8125 39.015625 
Q 14.890625 38.140625 10.796875 36.28125 
z
" id="DejaVuSans-53"/>
       </defs>
       <use xlink:href="#DejaVuSans-48"/>
       <use x="63.623047" xlink:href="#DejaVuSans-46"/>
       <use x="95.410156" xlink:href="#DejaVuSans-48"/>
       <use x="159.033203" xlink:href="#DejaVuSans-50"/>
       <use x="222.65625" xlink:href="#DejaVuSans-53"/>
      </g>
     </g>
    </g>
    <g id="xtick_3">
     <g id="line2d_3">
      <g>
       <use style="stroke:#000000;stroke-width:0.8;" x="116.172917" xlink:href="#m8d2c7544d6" y="170.4"/>
      </g>
     </g>
     <g id="text_3">
      <!-- 0.050 -->
      <g transform="translate(101.858854 184.998437)scale(0.1 -0.1)">
       <use xlink:href="#DejaVuSans-48"/>
       <use x="63.623047" xlink:href="#DejaVuSans-46"/>
       <use x="95.410156" xlink:href="#DejaVuSans-48"/>
       <use x="159.033203" xlink:href="#DejaVuSans-53"/>
       <use x="222.65625" xlink:href="#DejaVuSans-48"/>
      </g>
     </g>
    </g>
    <g id="xtick_4">
     <g id="line2d_4">
      <g>
       <use style="stroke:#000000;stroke-width:0.8;" x="151.984375" xlink:href="#m8d2c7544d6" y="170.4"/>
      </g>
     </g>
     <g id="text_4">
      <!-- 0.075 -->
      <g transform="translate(137.670313 184.998437)scale(0.1 -0.1)">
       <defs>
        <path d="M 8.203125 72.90625 
L 55.078125 72.90625 
L 55.078125 68.703125 
L 28.609375 0 
L 18.3125 0 
L 43.21875 64.59375 
L 8.203125 64.59375 
z
" id="DejaVuSans-55"/>
       </defs>
       <use xlink:href="#DejaVuSans-48"/>
       <use x="63.623047" xlink:href="#DejaVuSans-46"/>
       <use x="95.410156" xlink:href="#DejaVuSans-48"/>
       <use x="159.033203" xlink:href="#DejaVuSans-55"/>
       <use x="222.65625" xlink:href="#DejaVuSans-53"/>
      </g>
     </g>
    </g>
    <g id="xtick_5">
     <g id="line2d_5">
      <g>
       <use style="stroke:#000000;stroke-width:0.8;" x="187.795833" xlink:href="#m8d2c7544d6" y="170.4"/>
      </g>
     </g>
     <g id="text_5">
      <!-- 0.100 -->
      <g transform="translate(173.481771 184.998437)scale(0.1 -0.1)">
       <defs>
        <path d="M 12.40625 8.296875 
L 28.515625 8.296875 
L 28.515625 63.921875 
L 10.984375 60.40625 
L 10.984375 69.390625 
L 28.421875 72.90625 
L 38.28125 72.90625 
L 38.28125 8.296875 
L 54.390625 8.296875 
L 54.390625 0 
L 12.40625 0 
z
" id="DejaVuSans-49"/>
       </defs>
       <use xlink:href="#DejaVuSans-48"/>
       <use x="63.623047" xlink:href="#DejaVuSans-46"/>
       <use x="95.410156" xlink:href="#DejaVuSans-49"/>
       <use x="159.033203" xlink:href="#DejaVuSans-48"/>
       <use x="222.65625" xlink:href="#DejaVuSans-48"/>
      </g>
     </g>
    </g>
    <g id="text_6">
     <!-- $\theta_0$ -->
     <g transform="translate(110.722917 198.676562)scale(0.1 -0.1)">
      <defs>
       <path d="M 45.515625 34.671875 
L 14.453125 34.671875 
Q 12.359375 20.0625 14.5 13.875 
Q 17.1875 6.25 24.46875 6.25 
Q 31.78125 6.25 37.359375 13.921875 
Q 42.234375 20.65625 45.515625 34.671875 
z
M 47.015625 42.96875 
Q 48.34375 56.84375 46.625 61.71875 
Q 43.953125 69.4375 36.765625 69.4375 
Q 29.296875 69.4375 23.828125 61.8125 
Q 19.53125 55.671875 16.15625 42.96875 
z
M 38.1875 76.765625 
Q 49.90625 76.765625 54.59375 66.40625 
Q 59.28125 56.109375 55.71875 37.84375 
Q 52.203125 19.625 43.453125 9.28125 
Q 34.765625 -1.125 23.046875 -1.125 
Q 11.28125 -1.125 6.640625 9.28125 
Q 2 19.625 5.515625 37.84375 
Q 9.078125 56.109375 17.71875 66.40625 
Q 26.421875 76.765625 38.1875 76.765625 
z
" id="DejaVuSans-Oblique-952"/>
      </defs>
      <use transform="translate(0 0.234375)" xlink:href="#DejaVuSans-Oblique-952"/>
      <use transform="translate(61.181641 -16.171875)scale(0.7)" xlink:href="#DejaVuSans-48"/>
     </g>
    </g>
   </g>
   <g id="matplotlib.axis_2">
    <g id="ytick_1">
     <g id="line2d_6">
      <defs>
       <path d="M 0 0 
L -3.5 0 
" id="m694c1e556c" style="stroke:#000000;stroke-width:0.8;"/>
      </defs>
      <g>
       <use style="stroke:#000000;stroke-width:0.8;" x="44.55" xlink:href="#m694c1e556c" y="164.227273"/>
      </g>
     </g>
     <g id="text_7">
      <!-- 0 -->
      <g transform="translate(31.1875 168.026491)scale(0.1 -0.1)">
       <use xlink:href="#DejaVuSans-48"/>
      </g>
     </g>
    </g>
    <g id="ytick_2">
     <g id="line2d_7">
      <g>
       <use style="stroke:#000000;stroke-width:0.8;" x="44.55" xlink:href="#m694c1e556c" y="141.374474"/>
      </g>
     </g>
     <g id="text_8">
      <!-- 5 -->
      <g transform="translate(31.1875 145.173693)scale(0.1 -0.1)">
       <use xlink:href="#DejaVuSans-53"/>
      </g>
     </g>
    </g>
    <g id="ytick_3">
     <g id="line2d_8">
      <g>
       <use style="stroke:#000000;stroke-width:0.8;" x="44.55" xlink:href="#m694c1e556c" y="118.521675"/>
      </g>
     </g>
     <g id="text_9">
      <!-- 10 -->
      <g transform="translate(24.825 122.320894)scale(0.1 -0.1)">
       <use xlink:href="#DejaVuSans-49"/>
       <use x="63.623047" xlink:href="#DejaVuSans-48"/>
      </g>
     </g>
    </g>
    <g id="ytick_4">
     <g id="line2d_9">
      <g>
       <use style="stroke:#000000;stroke-width:0.8;" x="44.55" xlink:href="#m694c1e556c" y="95.668877"/>
      </g>
     </g>
     <g id="text_10">
      <!-- 15 -->
      <g transform="translate(24.825 99.468095)scale(0.1 -0.1)">
       <use xlink:href="#DejaVuSans-49"/>
       <use x="63.623047" xlink:href="#DejaVuSans-53"/>
      </g>
     </g>
    </g>
    <g id="ytick_5">
     <g id="line2d_10">
      <g>
       <use style="stroke:#000000;stroke-width:0.8;" x="44.55" xlink:href="#m694c1e556c" y="72.816078"/>
      </g>
     </g>
     <g id="text_11">
      <!-- 20 -->
      <g transform="translate(24.825 76.615297)scale(0.1 -0.1)">
       <use xlink:href="#DejaVuSans-50"/>
       <use x="63.623047" xlink:href="#DejaVuSans-48"/>
      </g>
     </g>
    </g>
    <g id="ytick_6">
     <g id="line2d_11">
      <g>
       <use style="stroke:#000000;stroke-width:0.8;" x="44.55" xlink:href="#m694c1e556c" y="49.963279"/>
      </g>
     </g>
     <g id="text_12">
      <!-- 25 -->
      <g transform="translate(24.825 53.762498)scale(0.1 -0.1)">
       <use xlink:href="#DejaVuSans-50"/>
       <use x="63.623047" xlink:href="#DejaVuSans-53"/>
      </g>
     </g>
    </g>
    <g id="text_13">
     <!-- Posterior -->
     <g transform="translate(18.745313 124.59375)rotate(-90)scale(0.1 -0.1)">
      <defs>
       <path d="M 19.671875 64.796875 
L 19.671875 37.40625 
L 32.078125 37.40625 
Q 38.96875 37.40625 42.71875 40.96875 
Q 46.484375 44.53125 46.484375 51.125 
Q 46.484375 57.671875 42.71875 61.234375 
Q 38.96875 64.796875 32.078125 64.796875 
z
M 9.8125 72.90625 
L 32.078125 72.90625 
Q 44.34375 72.90625 50.609375 67.359375 
Q 56.890625 61.8125 56.890625 51.125 
Q 56.890625 40.328125 50.609375 34.8125 
Q 44.34375 29.296875 32.078125 29.296875 
L 19.671875 29.296875 
L 19.671875 0 
L 9.8125 0 
z
" id="DejaVuSans-80"/>
       <path d="M 30.609375 48.390625 
Q 23.390625 48.390625 19.1875 42.75 
Q 14.984375 37.109375 14.984375 27.296875 
Q 14.984375 17.484375 19.15625 11.84375 
Q 23.34375 6.203125 30.609375 6.203125 
Q 37.796875 6.203125 41.984375 11.859375 
Q 46.1875 17.53125 46.1875 27.296875 
Q 46.1875 37.015625 41.984375 42.703125 
Q 37.796875 48.390625 30.609375 48.390625 
z
M 30.609375 56 
Q 42.328125 56 49.015625 48.375 
Q 55.71875 40.765625 55.71875 27.296875 
Q 55.71875 13.875 49.015625 6.21875 
Q 42.328125 -1.421875 30.609375 -1.421875 
Q 18.84375 -1.421875 12.171875 6.21875 
Q 5.515625 13.875 5.515625 27.296875 
Q 5.515625 40.765625 12.171875 48.375 
Q 18.84375 56 30.609375 56 
z
" id="DejaVuSans-111"/>
       <path d="M 44.28125 53.078125 
L 44.28125 44.578125 
Q 40.484375 46.53125 36.375 47.5 
Q 32.28125 48.484375 27.875 48.484375 
Q 21.1875 48.484375 17.84375 46.4375 
Q 14.5 44.390625 14.5 40.28125 
Q 14.5 37.15625 16.890625 35.375 
Q 19.28125 33.59375 26.515625 31.984375 
L 29.59375 31.296875 
Q 39.15625 29.25 43.1875 25.515625 
Q 47.21875 21.78125 47.21875 15.09375 
Q 47.21875 7.46875 41.1875 3.015625 
Q 35.15625 -1.421875 24.609375 -1.421875 
Q 20.21875 -1.421875 15.453125 -0.5625 
Q 10.6875 0.296875 5.421875 2 
L 5.421875 11.28125 
Q 10.40625 8.6875 15.234375 7.390625 
Q 20.0625 6.109375 24.8125 6.109375 
Q 31.15625 6.109375 34.5625 8.28125 
Q 37.984375 10.453125 37.984375 14.40625 
Q 37.984375 18.0625 35.515625 20.015625 
Q 33.0625 21.96875 24.703125 23.78125 
L 21.578125 24.515625 
Q 13.234375 26.265625 9.515625 29.90625 
Q 5.8125 33.546875 5.8125 39.890625 
Q 5.8125 47.609375 11.28125 51.796875 
Q 16.75 56 26.8125 56 
Q 31.78125 56 36.171875 55.265625 
Q 40.578125 54.546875 44.28125 53.078125 
z
" id="DejaVuSans-115"/>
       <path d="M 18.3125 70.21875 
L 18.3125 54.6875 
L 36.8125 54.6875 
L 36.8125 47.703125 
L 18.3125 47.703125 
L 18.3125 18.015625 
Q 18.3125 11.328125 20.140625 9.421875 
Q 21.96875 7.515625 27.59375 7.515625 
L 36.8125 7.515625 
L 36.8125 0 
L 27.59375 0 
Q 17.1875 0 13.234375 3.875 
Q 9.28125 7.765625 9.28125 18.015625 
L 9.28125 47.703125 
L 2.6875 47.703125 
L 2.6875 54.6875 
L 9.28125 54.6875 
L 9.28125 70.21875 
z
" id="DejaVuSans-116"/>
       <path d="M 56.203125 29.59375 
L 56.203125 25.203125 
L 14.890625 25.203125 
Q 15.484375 15.921875 20.484375 11.0625 
Q 25.484375 6.203125 34.421875 6.203125 
Q 39.59375 6.203125 44.453125 7.46875 
Q 49.3125 8.734375 54.109375 11.28125 
L 54.109375 2.78125 
Q 49.265625 0.734375 44.1875 -0.34375 
Q 39.109375 -1.421875 33.890625 -1.421875 
Q 20.796875 -1.421875 13.15625 6.1875 
Q 5.515625 13.8125 5.515625 26.8125 
Q 5.515625 40.234375 12.765625 48.109375 
Q 20.015625 56 32.328125 56 
Q 43.359375 56 49.78125 48.890625 
Q 56.203125 41.796875 56.203125 29.59375 
z
M 47.21875 32.234375 
Q 47.125 39.59375 43.09375 43.984375 
Q 39.0625 48.390625 32.421875 48.390625 
Q 24.90625 48.390625 20.390625 44.140625 
Q 15.875 39.890625 15.1875 32.171875 
z
" id="DejaVuSans-101"/>
       <path d="M 41.109375 46.296875 
Q 39.59375 47.171875 37.8125 47.578125 
Q 36.03125 48 33.890625 48 
Q 26.265625 48 22.1875 43.046875 
Q 18.109375 38.09375 18.109375 28.8125 
L 18.109375 0 
L 9.078125 0 
L 9.078125 54.6875 
L 18.109375 54.6875 
L 18.109375 46.1875 
Q 20.953125 51.171875 25.484375 53.578125 
Q 30.03125 56 36.53125 56 
Q 37.453125 56 38.578125 55.875 
Q 39.703125 55.765625 41.0625 55.515625 
z
" id="DejaVuSans-114"/>
       <path d="M 9.421875 54.6875 
L 18.40625 54.6875 
L 18.40625 0 
L 9.421875 0 
z
M 9.421875 75.984375 
L 18.40625 75.984375 
L 18.40625 64.59375 
L 9.421875 64.59375 
z
" id="DejaVuSans-105"/>
      </defs>
      <use xlink:href="#DejaVuSans-80"/>
      <use x="56.677734" xlink:href="#DejaVuSans-111"/>
      <use x="117.859375" xlink:href="#DejaVuSans-115"/>
      <use x="169.958984" xlink:href="#DejaVuSans-116"/>
      <use x="209.167969" xlink:href="#DejaVuSans-101"/>
      <use x="270.691406" xlink:href="#DejaVuSans-114"/>
      <use x="311.804688" xlink:href="#DejaVuSans-105"/>
      <use x="339.587891" xlink:href="#DejaVuSans-111"/>
      <use x="400.769531" xlink:href="#DejaVuSans-114"/>
     </g>
    </g>
   </g>
   <g id="line2d_12">
    <path clip-path="url(#pcc0c0ae1b0)" d="M 44.55 142.545737 
L 50.298997 131.824466 
L 53.173495 127.010034 
L 55.56891 123.412787 
L 57.964326 120.173671 
L 60.838824 116.664993 
L 64.671488 112.39935 
L 68.983236 107.927918 
L 72.336817 104.749468 
L 74.732232 102.78051 
L 76.648565 101.472408 
L 78.564897 100.455533 
L 80.002146 99.902435 
L 81.439395 99.532536 
L 82.876644 99.339262 
L 84.792977 99.329422 
L 86.709309 99.552977 
L 89.104724 100.061709 
L 94.374638 101.514073 
L 98.207302 102.455197 
L 101.560884 103.067221 
L 106.351714 103.668824 
L 110.184378 104.211272 
L 112.579794 104.777775 
L 114.496126 105.445448 
L 116.412458 106.348554 
L 118.32879 107.505217 
L 120.245123 108.905899 
L 122.640538 110.939864 
L 126.952285 114.99307 
L 130.305867 118.020552 
L 132.701282 119.913931 
L 135.096697 121.520617 
L 137.492113 122.846898 
L 140.366611 124.141604 
L 144.678358 125.762988 
L 149.469189 127.61004 
L 152.82277 129.160252 
L 155.697269 130.724243 
L 158.571767 132.519222 
L 161.925348 134.892166 
L 165.758013 137.917025 
L 170.548843 142.022596 
L 185.879501 155.451609 
L 187.795833 156.927639 
L 187.795833 156.927639 
" style="fill:none;stroke:#1f77b4;stroke-linecap:square;stroke-width:1.5;"/>
   </g>
   <g id="line2d_13">
    <path clip-path="url(#pcc0c0ae1b0)" d="M 101.848333 170.4 
L 101.848333 34.6 
" style="fill:none;stroke:#808080;stroke-dasharray:1.5,2.475;stroke-dashoffset:0;stroke-width:1.5;"/>
   </g>
   <g id="line2d_14">
    <path clip-path="url(#pcc0c0ae1b0)" d="M 44.55 150.041759 
L 47.903581 144.467522 
L 52.694412 136.494801 
L 55.089827 132.890508 
L 57.485242 129.658492 
L 59.880658 126.791853 
L 62.755156 123.73763 
L 66.587821 120.04164 
L 84.792977 103.14849 
L 90.06289 98.645598 
L 94.374638 95.249144 
L 97.249136 93.261247 
L 99.644551 91.901463 
L 101.560884 91.075846 
L 103.477216 90.518063 
L 105.393548 90.234211 
L 107.30988 90.204096 
L 109.226212 90.387763 
L 111.621628 90.845133 
L 114.496126 91.622685 
L 117.849707 92.749069 
L 121.203289 94.093635 
L 124.077787 95.459295 
L 126.473202 96.806366 
L 128.868618 98.423069 
L 130.78495 99.973959 
L 132.701282 101.804536 
L 134.617614 103.947498 
L 136.533946 106.412062 
L 138.929362 109.913376 
L 141.80386 114.599812 
L 152.82277 133.192229 
L 155.697269 137.289091 
L 158.092684 140.334341 
L 160.488099 143.054508 
L 162.883514 145.482793 
L 165.758013 148.071379 
L 168.632511 150.364201 
L 171.507009 152.395676 
L 174.381508 154.178175 
L 177.735089 155.968163 
L 181.567754 157.727831 
L 187.31675 160.089556 
L 187.795833 160.276197 
L 187.795833 160.276197 
" style="fill:none;stroke:#ff7f0e;stroke-linecap:square;stroke-width:1.5;"/>
   </g>
   <g id="line2d_15">
    <path clip-path="url(#pcc0c0ae1b0)" d="M 101.848333 170.4 
L 101.848333 34.6 
" style="fill:none;stroke:#808080;stroke-dasharray:1.5,2.475;stroke-dashoffset:0;stroke-width:1.5;"/>
   </g>
   <g id="line2d_16">
    <path clip-path="url(#pcc0c0ae1b0)" d="M 44.55 152.884787 
L 48.861747 145.805443 
L 51.257163 142.128797 
L 53.173495 139.547925 
L 55.089827 137.302159 
L 57.964326 134.35322 
L 61.317907 130.911832 
L 63.234239 128.654621 
L 65.150571 126.081267 
L 67.545987 122.421055 
L 70.420485 117.560289 
L 75.690399 108.54301 
L 78.564897 104.090003 
L 83.355727 97.225571 
L 87.188392 91.537505 
L 93.895555 81.34909 
L 95.811887 78.903717 
L 97.249136 77.341077 
L 98.686385 76.049267 
L 100.123634 75.052153 
L 101.560884 74.365111 
L 102.998133 73.996202 
L 104.435382 73.946655 
L 105.872631 74.210388 
L 107.30988 74.772813 
L 108.747129 75.609502 
L 110.184378 76.685503 
L 112.100711 78.413893 
L 114.975209 81.379592 
L 120.245123 86.878788 
L 125.515036 92.253499 
L 127.431368 94.539386 
L 129.347701 97.172744 
L 131.264033 100.200718 
L 133.180365 103.609257 
L 135.57578 108.301221 
L 139.887528 117.368591 
L 144.678358 127.35157 
L 148.03194 133.88005 
L 151.385521 139.914882 
L 154.26002 144.656208 
L 157.134518 148.943342 
L 159.529933 152.105399 
L 161.446265 154.322097 
L 163.362598 156.229962 
L 165.27893 157.811733 
L 167.195262 159.066888 
L 169.111594 160.015445 
L 171.027926 160.69842 
L 173.423342 161.268809 
L 176.776923 161.777033 
L 183.484086 162.749096 
L 187.795833 163.434497 
L 187.795833 163.434497 
" style="fill:none;stroke:#2ca02c;stroke-linecap:square;stroke-width:1.5;"/>
   </g>
   <g id="line2d_17">
    <path clip-path="url(#pcc0c0ae1b0)" d="M 101.848333 170.4 
L 101.848333 34.6 
" style="fill:none;stroke:#808080;stroke-dasharray:1.5,2.475;stroke-dashoffset:0;stroke-width:1.5;"/>
   </g>
   <g id="line2d_18">
    <path clip-path="url(#pcc0c0ae1b0)" d="M 44.55 160.591528 
L 45.987249 159.328936 
L 47.424498 157.80586 
L 48.861747 156.014316 
L 50.77808 153.206556 
L 52.694412 149.938412 
L 55.089827 145.295921 
L 62.755156 129.670093 
L 64.671488 126.493283 
L 67.066904 122.976528 
L 69.941402 118.707562 
L 71.378651 116.175843 
L 72.8159 113.171649 
L 74.253149 109.591173 
L 75.690399 105.400779 
L 77.606731 98.961671 
L 80.481229 88.233567 
L 83.355727 77.8118 
L 84.792977 73.263004 
L 86.230226 69.365539 
L 87.667475 66.203048 
L 88.625641 64.517436 
L 89.583807 63.164553 
L 90.541973 62.129342 
L 91.500139 61.388911 
L 92.458305 60.913899 
L 93.416472 60.669945 
L 94.374638 60.619338 
L 95.811887 60.820363 
L 97.728219 61.41088 
L 102.039967 63.136615 
L 104.435382 64.273187 
L 105.872631 65.16887 
L 107.30988 66.3307 
L 108.747129 67.824604 
L 110.184378 69.677905 
L 111.621628 71.871536 
L 113.53796 75.216921 
L 116.891541 81.652245 
L 127.910452 103.392946 
L 132.222199 112.67681 
L 140.366611 130.547277 
L 142.762026 135.101931 
L 144.678358 138.309283 
L 146.594691 141.122444 
L 148.511023 143.590727 
L 150.906438 146.322725 
L 155.218186 150.792284 
L 161.446265 156.98395 
L 163.841681 159.088319 
L 165.758013 160.531863 
L 167.674345 161.713083 
L 169.590677 162.617604 
L 171.507009 163.262171 
L 173.423342 163.687668 
L 175.818757 163.992063 
L 179.172338 164.167246 
L 185.879501 164.225424 
L 187.795833 164.226707 
L 187.795833 164.226707 
" style="fill:none;stroke:#d62728;stroke-linecap:square;stroke-width:1.5;"/>
   </g>
   <g id="line2d_19">
    <path clip-path="url(#pcc0c0ae1b0)" d="M 101.848333 170.4 
L 101.848333 34.6 
" style="fill:none;stroke:#808080;stroke-dasharray:1.5,2.475;stroke-dashoffset:0;stroke-width:1.5;"/>
   </g>
   <g id="line2d_20">
    <path clip-path="url(#pcc0c0ae1b0)" d="M 44.55 162.887268 
L 45.987249 162.2297 
L 47.424498 161.345072 
L 48.861747 160.198012 
L 50.298997 158.764163 
L 51.736246 157.035441 
L 53.652578 154.293311 
L 55.56891 151.119881 
L 57.964326 146.689129 
L 60.838824 140.838891 
L 63.234239 135.479082 
L 65.629654 129.566077 
L 68.504153 121.80022 
L 73.294983 108.731283 
L 75.690399 102.885203 
L 78.564897 96.534838 
L 92.937389 65.88507 
L 96.29097 58.464048 
L 98.207302 54.778288 
L 99.644551 52.524541 
L 100.602717 51.330196 
L 101.560884 50.413209 
L 102.51905 49.792608 
L 103.477216 49.481239 
L 104.435382 49.486416 
L 105.393548 49.810429 
L 106.351714 50.450693 
L 107.30988 51.399488 
L 108.268046 52.643435 
L 109.705295 55.018368 
L 111.142545 57.920738 
L 113.058877 62.410784 
L 115.933375 69.911858 
L 120.724206 83.169281 
L 129.826784 108.797963 
L 131.743116 113.374552 
L 133.659448 117.471436 
L 136.054863 122.031763 
L 144.678358 137.664508 
L 148.990106 145.840473 
L 150.906438 149.031247 
L 152.82277 151.782011 
L 154.739103 154.072396 
L 156.655435 155.937394 
L 158.571767 157.43782 
L 160.488099 158.642873 
L 162.883514 159.844666 
L 165.758013 161.017906 
L 169.590677 162.346777 
L 172.465176 163.149709 
L 175.339674 163.708319 
L 178.214172 164.021466 
L 182.046837 164.183746 
L 187.795833 164.225189 
L 187.795833 164.225189 
" style="fill:none;stroke:#9467bd;stroke-linecap:square;stroke-width:1.5;"/>
   </g>
   <g id="line2d_21">
    <path clip-path="url(#pcc0c0ae1b0)" d="M 101.848333 170.4 
L 101.848333 34.6 
" style="fill:none;stroke:#808080;stroke-dasharray:1.5,2.475;stroke-dashoffset:0;stroke-width:1.5;"/>
   </g>
   <g id="line2d_22">
    <path clip-path="url(#pcc0c0ae1b0)" d="M 44.55 161.820879 
L 46.945415 160.622723 
L 49.340831 159.203997 
L 51.257163 157.812443 
L 52.694412 156.523453 
L 54.131661 154.952115 
L 55.56891 153.058002 
L 57.006159 150.839081 
L 58.922492 147.440102 
L 61.317907 142.661684 
L 63.713322 137.393859 
L 65.629654 132.72235 
L 67.545987 127.490715 
L 69.462319 121.646603 
L 72.336817 112.051038 
L 76.169482 99.243193 
L 79.04398 90.446863 
L 85.27206 71.754368 
L 89.104724 59.972966 
L 91.021056 54.843301 
L 92.458305 51.611193 
L 93.895555 49.002752 
L 94.853721 47.632628 
L 95.811887 46.565339 
L 96.770053 45.804455 
L 97.728219 45.352338 
L 98.686385 45.210302 
L 99.644551 45.377642 
L 100.602717 45.849889 
L 101.560884 46.616831 
L 102.51905 47.660923 
L 103.956299 49.688673 
L 105.393548 52.164389 
L 107.30988 55.922592 
L 114.017043 69.987166 
L 116.891541 76.373369 
L 119.286957 82.248598 
L 122.640538 91.1816 
L 126.952285 102.613007 
L 129.826784 109.63498 
L 132.701282 116.135986 
L 136.533946 124.204399 
L 140.845694 133.36821 
L 147.552857 148.17899 
L 149.469189 151.709747 
L 151.385521 154.692134 
L 152.82277 156.575126 
L 154.26002 158.181373 
L 156.176352 159.941273 
L 158.092684 161.317416 
L 160.009016 162.355326 
L 161.925348 163.097623 
L 163.841681 163.593356 
L 166.237096 163.952286 
L 169.111594 164.142949 
L 174.381508 164.2217 
L 187.795833 164.227273 
L 187.795833 164.227273 
" style="fill:none;stroke:#8c564b;stroke-linecap:square;stroke-width:1.5;"/>
   </g>
   <g id="line2d_23">
    <path clip-path="url(#pcc0c0ae1b0)" d="M 101.848333 170.4 
L 101.848333 34.6 
" style="fill:none;stroke:#808080;stroke-dasharray:1.5,2.475;stroke-dashoffset:0;stroke-width:1.5;"/>
   </g>
   <g id="line2d_24">
    <path clip-path="url(#pcc0c0ae1b0)" d="M 44.55 164.190093 
L 47.424498 164.031387 
L 49.340831 163.723681 
L 50.77808 163.286086 
L 52.215329 162.584055 
L 53.652578 161.538234 
L 55.089827 160.085321 
L 56.527076 158.191699 
L 57.964326 155.858461 
L 59.401575 153.116202 
L 61.317907 148.911246 
L 63.713322 142.991304 
L 70.899568 124.043154 
L 72.8159 118.507757 
L 74.253149 113.713936 
L 75.690399 108.132765 
L 77.127648 101.66373 
L 79.04398 91.760611 
L 85.27206 57.497621 
L 86.709309 51.436458 
L 87.667475 48.144919 
L 88.625641 45.502917 
L 89.583807 43.515727 
L 90.541973 42.152676 
L 91.500139 41.348316 
L 92.458305 41.007323 
L 93.416472 41.013031 
L 94.853721 41.395225 
L 96.770053 41.996146 
L 98.207302 42.16327 
L 99.165468 42.080594 
L 100.602717 41.712816 
L 103.477216 40.835784 
L 104.435382 40.772727 
L 105.393548 40.937521 
L 106.351714 41.37957 
L 107.30988 42.132931 
L 108.268046 43.217229 
L 109.226212 44.639936 
L 110.184378 46.399027 
L 111.621628 49.646053 
L 113.058877 53.568137 
L 114.975209 59.674558 
L 117.849707 69.958055 
L 122.161455 85.388777 
L 125.994119 99.072874 
L 132.222199 122.246769 
L 133.659448 126.383617 
L 135.096697 129.850714 
L 137.01303 133.819914 
L 139.408445 138.742577 
L 141.324777 143.1767 
L 145.636525 153.456495 
L 147.073774 156.233255 
L 148.511023 158.484037 
L 149.948272 160.222346 
L 151.385521 161.515624 
L 152.82277 162.449477 
L 154.26002 163.104853 
L 155.697269 163.549666 
L 157.613601 163.908851 
L 160.009016 164.120978 
L 164.320764 164.21822 
L 187.795833 164.227273 
L 187.795833 164.227273 
" style="fill:none;stroke:#e377c2;stroke-linecap:square;stroke-width:1.5;"/>
   </g>
   <g id="line2d_25">
    <path clip-path="url(#pcc0c0ae1b0)" d="M 101.848333 170.4 
L 101.848333 34.6 
" style="fill:none;stroke:#808080;stroke-dasharray:1.5,2.475;stroke-dashoffset:0;stroke-width:1.5;"/>
   </g>
   <g id="line2d_26">
    <path clip-path="url(#pcc0c0ae1b0)" d="M 44.55 164.203361 
L 48.861747 164.058433 
L 51.257163 163.795813 
L 53.173495 163.378465 
L 54.610744 162.875502 
L 56.047993 162.149167 
L 57.485242 161.140522 
L 58.922492 159.792322 
L 60.359741 158.055371 
L 61.79699 155.894132 
L 63.234239 153.28977 
L 64.671488 150.239146 
L 66.108737 146.749353 
L 68.02507 141.427153 
L 69.941402 135.3356 
L 71.857734 128.431478 
L 73.774066 120.654655 
L 75.690399 111.994397 
L 78.085814 100.13126 
L 82.876644 75.894036 
L 84.792977 67.537242 
L 86.230226 62.216268 
L 87.667475 57.809217 
L 89.104724 54.315034 
L 90.06289 52.456743 
L 91.021056 50.932709 
L 91.979222 49.69774 
L 93.416472 48.281201 
L 94.853721 47.247858 
L 96.770053 46.243167 
L 98.686385 45.493385 
L 100.602717 44.951495 
L 102.039967 44.726312 
L 103.477216 44.727619 
L 104.435382 44.89295 
L 105.393548 45.217756 
L 106.351714 45.724917 
L 107.30988 46.435386 
L 108.268046 47.367573 
L 109.226212 48.536959 
L 110.663462 50.761642 
L 112.100711 53.572956 
L 113.53796 56.976127 
L 114.975209 60.951015 
L 116.891541 67.048606 
L 119.286957 75.639395 
L 125.035953 96.964876 
L 126.952285 103.123317 
L 128.389535 107.180948 
L 129.826784 110.706437 
L 131.264033 113.688202 
L 132.701282 116.147738 
L 134.138531 118.142823 
L 135.57578 119.770907 
L 137.971196 122.05645 
L 139.887528 123.969844 
L 141.324777 125.732272 
L 142.762026 127.929341 
L 144.199275 130.629648 
L 145.636525 133.819913 
L 147.552857 138.662335 
L 151.864604 149.974215 
L 153.301853 153.229424 
L 154.739103 156.021599 
L 156.176352 158.310118 
L 157.613601 160.105079 
L 159.05085 161.453972 
L 160.488099 162.42614 
L 161.925348 163.098571 
L 163.362598 163.545135 
L 165.27893 163.898169 
L 167.674345 164.106872 
L 171.986093 164.212298 
L 187.795833 164.227272 
L 187.795833 164.227272 
" style="fill:none;stroke:#7f7f7f;stroke-linecap:square;stroke-width:1.5;"/>
   </g>
   <g id="line2d_27">
    <path clip-path="url(#pcc0c0ae1b0)" d="M 101.848333 170.4 
L 101.848333 34.6 
" style="fill:none;stroke:#808080;stroke-dasharray:1.5,2.475;stroke-dashoffset:0;stroke-width:1.5;"/>
   </g>
   <g id="patch_3">
    <path d="M 44.55 170.4 
L 44.55 34.6 
" style="fill:none;stroke:#000000;stroke-linecap:square;stroke-linejoin:miter;stroke-width:0.8;"/>
   </g>
   <g id="patch_4">
    <path d="M 44.55 170.4 
L 187.795833 170.4 
" style="fill:none;stroke:#000000;stroke-linecap:square;stroke-linejoin:miter;stroke-width:0.8;"/>
   </g>
  </g>
  <g id="axes_2">
   <g id="patch_5">
    <path d="M 262.158333 170.4 
L 405.404167 170.4 
L 405.404167 34.6 
L 262.158333 34.6 
z
" style="fill:#ffffff;"/>
   </g>
   <g id="matplotlib.axis_3">
    <g id="xtick_6">
     <g id="line2d_28">
      <g>
       <use style="stroke:#000000;stroke-width:0.8;" x="262.158333" xlink:href="#m8d2c7544d6" y="170.4"/>
      </g>
     </g>
     <g id="text_14">
      <!-- 350 -->
      <g transform="translate(252.614583 184.998437)scale(0.1 -0.1)">
       <defs>
        <path d="M 40.578125 39.3125 
Q 47.65625 37.796875 51.625 33 
Q 55.609375 28.21875 55.609375 21.1875 
Q 55.609375 10.40625 48.1875 4.484375 
Q 40.765625 -1.421875 27.09375 -1.421875 
Q 22.515625 -1.421875 17.65625 -0.515625 
Q 12.796875 0.390625 7.625 2.203125 
L 7.625 11.71875 
Q 11.71875 9.328125 16.59375 8.109375 
Q 21.484375 6.890625 26.8125 6.890625 
Q 36.078125 6.890625 40.9375 10.546875 
Q 45.796875 14.203125 45.796875 21.1875 
Q 45.796875 27.640625 41.28125 31.265625 
Q 36.765625 34.90625 28.71875 34.90625 
L 20.21875 34.90625 
L 20.21875 43.015625 
L 29.109375 43.015625 
Q 36.375 43.015625 40.234375 45.921875 
Q 44.09375 48.828125 44.09375 54.296875 
Q 44.09375 59.90625 40.109375 62.90625 
Q 36.140625 65.921875 28.71875 65.921875 
Q 24.65625 65.921875 20.015625 65.03125 
Q 15.375 64.15625 9.8125 62.3125 
L 9.8125 71.09375 
Q 15.4375 72.65625 20.34375 73.4375 
Q 25.25 74.21875 29.59375 74.21875 
Q 40.828125 74.21875 47.359375 69.109375 
Q 53.90625 64.015625 53.90625 55.328125 
Q 53.90625 49.265625 50.4375 45.09375 
Q 46.96875 40.921875 40.578125 39.3125 
z
" id="DejaVuSans-51"/>
       </defs>
       <use xlink:href="#DejaVuSans-51"/>
       <use x="63.623047" xlink:href="#DejaVuSans-53"/>
       <use x="127.246094" xlink:href="#DejaVuSans-48"/>
      </g>
     </g>
    </g>
    <g id="xtick_7">
     <g id="line2d_29">
      <g>
       <use style="stroke:#000000;stroke-width:0.8;" x="297.969792" xlink:href="#m8d2c7544d6" y="170.4"/>
      </g>
     </g>
     <g id="text_15">
      <!-- 375 -->
      <g transform="translate(288.426042 184.998437)scale(0.1 -0.1)">
       <use xlink:href="#DejaVuSans-51"/>
       <use x="63.623047" xlink:href="#DejaVuSans-55"/>
       <use x="127.246094" xlink:href="#DejaVuSans-53"/>
      </g>
     </g>
    </g>
    <g id="xtick_8">
     <g id="line2d_30">
      <g>
       <use style="stroke:#000000;stroke-width:0.8;" x="333.78125" xlink:href="#m8d2c7544d6" y="170.4"/>
      </g>
     </g>
     <g id="text_16">
      <!-- 400 -->
      <g transform="translate(324.2375 184.998437)scale(0.1 -0.1)">
       <defs>
        <path d="M 37.796875 64.3125 
L 12.890625 25.390625 
L 37.796875 25.390625 
z
M 35.203125 72.90625 
L 47.609375 72.90625 
L 47.609375 25.390625 
L 58.015625 25.390625 
L 58.015625 17.1875 
L 47.609375 17.1875 
L 47.609375 0 
L 37.796875 0 
L 37.796875 17.1875 
L 4.890625 17.1875 
L 4.890625 26.703125 
z
" id="DejaVuSans-52"/>
       </defs>
       <use xlink:href="#DejaVuSans-52"/>
       <use x="63.623047" xlink:href="#DejaVuSans-48"/>
       <use x="127.246094" xlink:href="#DejaVuSans-48"/>
      </g>
     </g>
    </g>
    <g id="xtick_9">
     <g id="line2d_31">
      <g>
       <use style="stroke:#000000;stroke-width:0.8;" x="369.592708" xlink:href="#m8d2c7544d6" y="170.4"/>
      </g>
     </g>
     <g id="text_17">
      <!-- 425 -->
      <g transform="translate(360.048958 184.998437)scale(0.1 -0.1)">
       <use xlink:href="#DejaVuSans-52"/>
       <use x="63.623047" xlink:href="#DejaVuSans-50"/>
       <use x="127.246094" xlink:href="#DejaVuSans-53"/>
      </g>
     </g>
    </g>
    <g id="xtick_10">
     <g id="line2d_32">
      <g>
       <use style="stroke:#000000;stroke-width:0.8;" x="405.404167" xlink:href="#m8d2c7544d6" y="170.4"/>
      </g>
     </g>
     <g id="text_18">
      <!-- 450 -->
      <g transform="translate(395.860417 184.998437)scale(0.1 -0.1)">
       <use xlink:href="#DejaVuSans-52"/>
       <use x="63.623047" xlink:href="#DejaVuSans-53"/>
       <use x="127.246094" xlink:href="#DejaVuSans-48"/>
      </g>
     </g>
    </g>
    <g id="text_19">
     <!-- $\theta_1$ -->
     <g transform="translate(328.33125 198.676562)scale(0.1 -0.1)">
      <use transform="translate(0 0.234375)" xlink:href="#DejaVuSans-Oblique-952"/>
      <use transform="translate(61.181641 -16.171875)scale(0.7)" xlink:href="#DejaVuSans-49"/>
     </g>
    </g>
   </g>
   <g id="matplotlib.axis_4">
    <g id="ytick_7">
     <g id="line2d_33">
      <g>
       <use style="stroke:#000000;stroke-width:0.8;" x="262.158333" xlink:href="#m694c1e556c" y="141.321571"/>
      </g>
     </g>
     <g id="text_20">
      <!-- 0.002 -->
      <g transform="translate(226.530208 145.120789)scale(0.1 -0.1)">
       <use xlink:href="#DejaVuSans-48"/>
       <use x="63.623047" xlink:href="#DejaVuSans-46"/>
       <use x="95.410156" xlink:href="#DejaVuSans-48"/>
       <use x="159.033203" xlink:href="#DejaVuSans-48"/>
       <use x="222.65625" xlink:href="#DejaVuSans-50"/>
      </g>
     </g>
    </g>
    <g id="ytick_8">
     <g id="line2d_34">
      <g>
       <use style="stroke:#000000;stroke-width:0.8;" x="262.158333" xlink:href="#m694c1e556c" y="107.708271"/>
      </g>
     </g>
     <g id="text_21">
      <!-- 0.003 -->
      <g transform="translate(226.530208 111.50749)scale(0.1 -0.1)">
       <use xlink:href="#DejaVuSans-48"/>
       <use x="63.623047" xlink:href="#DejaVuSans-46"/>
       <use x="95.410156" xlink:href="#DejaVuSans-48"/>
       <use x="159.033203" xlink:href="#DejaVuSans-48"/>
       <use x="222.65625" xlink:href="#DejaVuSans-51"/>
      </g>
     </g>
    </g>
    <g id="ytick_9">
     <g id="line2d_35">
      <g>
       <use style="stroke:#000000;stroke-width:0.8;" x="262.158333" xlink:href="#m694c1e556c" y="74.094972"/>
      </g>
     </g>
     <g id="text_22">
      <!-- 0.004 -->
      <g transform="translate(226.530208 77.89419)scale(0.1 -0.1)">
       <use xlink:href="#DejaVuSans-48"/>
       <use x="63.623047" xlink:href="#DejaVuSans-46"/>
       <use x="95.410156" xlink:href="#DejaVuSans-48"/>
       <use x="159.033203" xlink:href="#DejaVuSans-48"/>
       <use x="222.65625" xlink:href="#DejaVuSans-52"/>
      </g>
     </g>
    </g>
    <g id="ytick_10">
     <g id="line2d_36">
      <g>
       <use style="stroke:#000000;stroke-width:0.8;" x="262.158333" xlink:href="#m694c1e556c" y="40.481672"/>
      </g>
     </g>
     <g id="text_23">
      <!-- 0.005 -->
      <g transform="translate(226.530208 44.280891)scale(0.1 -0.1)">
       <use xlink:href="#DejaVuSans-48"/>
       <use x="63.623047" xlink:href="#DejaVuSans-46"/>
       <use x="95.410156" xlink:href="#DejaVuSans-48"/>
       <use x="159.033203" xlink:href="#DejaVuSans-48"/>
       <use x="222.65625" xlink:href="#DejaVuSans-53"/>
      </g>
     </g>
    </g>
    <g id="text_24">
     <!-- Posterior -->
     <g transform="translate(220.450521 124.59375)rotate(-90)scale(0.1 -0.1)">
      <use xlink:href="#DejaVuSans-80"/>
      <use x="56.677734" xlink:href="#DejaVuSans-111"/>
      <use x="117.859375" xlink:href="#DejaVuSans-115"/>
      <use x="169.958984" xlink:href="#DejaVuSans-116"/>
      <use x="209.167969" xlink:href="#DejaVuSans-101"/>
      <use x="270.691406" xlink:href="#DejaVuSans-114"/>
      <use x="311.804688" xlink:href="#DejaVuSans-105"/>
      <use x="339.587891" xlink:href="#DejaVuSans-111"/>
      <use x="400.769531" xlink:href="#DejaVuSans-114"/>
     </g>
    </g>
   </g>
   <g id="line2d_37">
    <path clip-path="url(#pa7b97b0cbb)" d="M 262.158333 164.227273 
L 334.978958 159.952454 
L 353.663197 159.169396 
L 370.431104 158.682774 
L 386.719928 158.435099 
L 402.529668 158.418226 
L 405.404167 158.438716 
L 405.404167 158.438716 
" style="fill:none;stroke:#1f77b4;stroke-linecap:square;stroke-width:1.5;"/>
   </g>
   <g id="line2d_38">
    <path clip-path="url(#pa7b97b0cbb)" d="M 333.78125 170.4 
L 333.78125 34.6 
" style="fill:none;stroke:#808080;stroke-dasharray:1.5,2.475;stroke-dashoffset:0;stroke-width:1.5;"/>
   </g>
   <g id="line2d_39">
    <path clip-path="url(#pa7b97b0cbb)" d="M 262.158333 152.18987 
L 305.754891 153.247295 
L 355.100446 154.211198 
L 392.468924 154.732266 
L 405.404167 154.85587 
L 405.404167 154.85587 
" style="fill:none;stroke:#ff7f0e;stroke-linecap:square;stroke-width:1.5;"/>
   </g>
   <g id="line2d_40">
    <path clip-path="url(#pa7b97b0cbb)" d="M 333.78125 170.4 
L 333.78125 34.6 
" style="fill:none;stroke:#808080;stroke-dasharray:1.5,2.475;stroke-dashoffset:0;stroke-width:1.5;"/>
   </g>
   <g id="line2d_41">
    <path clip-path="url(#pa7b97b0cbb)" d="M 262.158333 136.856755 
L 274.614493 136.194471 
L 288.507901 135.69151 
L 306.233974 135.296141 
L 364.682107 134.163195 
L 387.678094 133.738872 
L 401.571502 133.701319 
L 405.404167 133.736416 
L 405.404167 133.736416 
" style="fill:none;stroke:#2ca02c;stroke-linecap:square;stroke-width:1.5;"/>
   </g>
   <g id="line2d_42">
    <path clip-path="url(#pa7b97b0cbb)" d="M 333.78125 170.4 
L 333.78125 34.6 
" style="fill:none;stroke:#808080;stroke-dasharray:1.5,2.475;stroke-dashoffset:0;stroke-width:1.5;"/>
   </g>
   <g id="line2d_43">
    <path clip-path="url(#pa7b97b0cbb)" d="M 262.158333 125.05763 
L 276.530825 123.906493 
L 290.903317 122.970794 
L 304.317642 122.3133 
L 316.294719 121.944742 
L 326.834546 121.832377 
L 336.89529 121.944104 
L 346.476951 122.272076 
L 356.058612 122.827146 
L 365.640273 123.606266 
L 375.701017 124.645192 
L 387.199011 126.05998 
L 402.529668 128.189568 
L 405.404167 128.604457 
L 405.404167 128.604457 
" style="fill:none;stroke:#d62728;stroke-linecap:square;stroke-width:1.5;"/>
   </g>
   <g id="line2d_44">
    <path clip-path="url(#pa7b97b0cbb)" d="M 333.78125 170.4 
L 333.78125 34.6 
" style="fill:none;stroke:#808080;stroke-dasharray:1.5,2.475;stroke-dashoffset:0;stroke-width:1.5;"/>
   </g>
   <g id="line2d_45">
    <path clip-path="url(#pa7b97b0cbb)" d="M 262.158333 116.028984 
L 285.15432 114.091929 
L 330.188127 110.474451 
L 344.081536 109.635207 
L 356.537695 109.109009 
L 368.035688 108.846384 
L 378.575516 108.820853 
L 388.157177 109.006651 
L 397.259755 109.403648 
L 405.404167 109.976122 
L 405.404167 109.976122 
" style="fill:none;stroke:#9467bd;stroke-linecap:square;stroke-width:1.5;"/>
   </g>
   <g id="line2d_46">
    <path clip-path="url(#pa7b97b0cbb)" d="M 333.78125 170.4 
L 333.78125 34.6 
" style="fill:none;stroke:#808080;stroke-dasharray:1.5,2.475;stroke-dashoffset:0;stroke-width:1.5;"/>
   </g>
   <g id="line2d_47">
    <path clip-path="url(#pa7b97b0cbb)" d="M 262.158333 102.159903 
L 275.093576 98.97734 
L 286.112486 96.490952 
L 295.694147 94.551773 
L 304.317642 93.033488 
L 311.982971 91.906597 
L 319.169217 91.077696 
L 325.87638 90.534994 
L 332.104459 90.257487 
L 337.853456 90.215617 
L 343.602453 90.396863 
L 349.351449 90.815608 
L 354.621363 91.417369 
L 359.891276 92.232651 
L 365.16119 93.262399 
L 370.431104 94.503203 
L 376.1801 96.087997 
L 381.929097 97.897798 
L 388.157177 100.086026 
L 395.343423 102.859478 
L 403.487834 106.248333 
L 405.404167 107.073603 
L 405.404167 107.073603 
" style="fill:none;stroke:#8c564b;stroke-linecap:square;stroke-width:1.5;"/>
   </g>
   <g id="line2d_48">
    <path clip-path="url(#pa7b97b0cbb)" d="M 333.78125 170.4 
L 333.78125 34.6 
" style="fill:none;stroke:#808080;stroke-dasharray:1.5,2.475;stroke-dashoffset:0;stroke-width:1.5;"/>
   </g>
   <g id="line2d_49">
    <path clip-path="url(#pa7b97b0cbb)" d="M 262.158333 81.118677 
L 268.386413 79.102674 
L 274.13541 77.465629 
L 279.884406 76.055945 
L 285.633403 74.880896 
L 291.3824 73.943662 
L 297.131396 73.244348 
L 302.880393 72.781062 
L 308.62939 72.550696 
L 314.378386 72.549166 
L 320.127383 72.770998 
L 325.87638 73.208347 
L 332.104459 73.911877 
L 338.332539 74.833553 
L 345.518785 76.129817 
L 353.663197 77.831031 
L 365.640273 80.588307 
L 405.404167 90.091204 
L 405.404167 90.091204 
" style="fill:none;stroke:#e377c2;stroke-linecap:square;stroke-width:1.5;"/>
   </g>
   <g id="line2d_50">
    <path clip-path="url(#pa7b97b0cbb)" d="M 333.78125 170.4 
L 333.78125 34.6 
" style="fill:none;stroke:#808080;stroke-dasharray:1.5,2.475;stroke-dashoffset:0;stroke-width:1.5;"/>
   </g>
   <g id="line2d_51">
    <path clip-path="url(#pa7b97b0cbb)" d="M 262.158333 70.826139 
L 273.177244 63.029907 
L 281.321656 57.527898 
L 287.549735 53.572814 
L 292.819649 50.475696 
L 297.610479 47.921386 
L 301.922227 45.88426 
L 305.754891 44.317089 
L 309.587556 43.008501 
L 312.941137 42.095382 
L 316.294719 41.413434 
L 319.6483 40.973253 
L 323.001881 40.781471 
L 326.355463 40.84031 
L 329.709044 41.147312 
L 333.062625 41.695274 
L 336.416207 42.472399 
L 339.769788 43.462657 
L 343.602453 44.829935 
L 347.9142 46.627471 
L 352.705031 48.884072 
L 358.454027 51.849371 
L 367.556605 56.837543 
L 382.887263 65.229928 
L 405.404167 77.257339 
L 405.404167 77.257339 
" style="fill:none;stroke:#7f7f7f;stroke-linecap:square;stroke-width:1.5;"/>
   </g>
   <g id="line2d_52">
    <path clip-path="url(#pa7b97b0cbb)" d="M 333.78125 170.4 
L 333.78125 34.6 
" style="fill:none;stroke:#808080;stroke-dasharray:1.5,2.475;stroke-dashoffset:0;stroke-width:1.5;"/>
   </g>
   <g id="patch_6">
    <path d="M 262.158333 170.4 
L 262.158333 34.6 
" style="fill:none;stroke:#000000;stroke-linecap:square;stroke-linejoin:miter;stroke-width:0.8;"/>
   </g>
   <g id="patch_7">
    <path d="M 262.158333 170.4 
L 405.404167 170.4 
" style="fill:none;stroke:#000000;stroke-linecap:square;stroke-linejoin:miter;stroke-width:0.8;"/>
   </g>
  </g>
  <g id="axes_3">
   <g id="patch_8">
    <path d="M 479.766667 170.4 
L 623.0125 170.4 
L 623.0125 34.6 
L 479.766667 34.6 
z
" style="fill:#ffffff;"/>
   </g>
   <g id="matplotlib.axis_5">
    <g id="xtick_11">
     <g id="line2d_53">
      <g>
       <use style="stroke:#000000;stroke-width:0.8;" x="479.766667" xlink:href="#m8d2c7544d6" y="170.4"/>
      </g>
     </g>
     <g id="text_25">
      <!-- 0.000 -->
      <g transform="translate(465.452604 184.998437)scale(0.1 -0.1)">
       <use xlink:href="#DejaVuSans-48"/>
       <use x="63.623047" xlink:href="#DejaVuSans-46"/>
       <use x="95.410156" xlink:href="#DejaVuSans-48"/>
       <use x="159.033203" xlink:href="#DejaVuSans-48"/>
       <use x="222.65625" xlink:href="#DejaVuSans-48"/>
      </g>
     </g>
    </g>
    <g id="xtick_12">
     <g id="line2d_54">
      <g>
       <use style="stroke:#000000;stroke-width:0.8;" x="515.578125" xlink:href="#m8d2c7544d6" y="170.4"/>
      </g>
     </g>
     <g id="text_26">
      <!-- 0.025 -->
      <g transform="translate(501.264062 184.998437)scale(0.1 -0.1)">
       <use xlink:href="#DejaVuSans-48"/>
       <use x="63.623047" xlink:href="#DejaVuSans-46"/>
       <use x="95.410156" xlink:href="#DejaVuSans-48"/>
       <use x="159.033203" xlink:href="#DejaVuSans-50"/>
       <use x="222.65625" xlink:href="#DejaVuSans-53"/>
      </g>
     </g>
    </g>
    <g id="xtick_13">
     <g id="line2d_55">
      <g>
       <use style="stroke:#000000;stroke-width:0.8;" x="551.389583" xlink:href="#m8d2c7544d6" y="170.4"/>
      </g>
     </g>
     <g id="text_27">
      <!-- 0.050 -->
      <g transform="translate(537.075521 184.998437)scale(0.1 -0.1)">
       <use xlink:href="#DejaVuSans-48"/>
       <use x="63.623047" xlink:href="#DejaVuSans-46"/>
       <use x="95.410156" xlink:href="#DejaVuSans-48"/>
       <use x="159.033203" xlink:href="#DejaVuSans-53"/>
       <use x="222.65625" xlink:href="#DejaVuSans-48"/>
      </g>
     </g>
    </g>
    <g id="xtick_14">
     <g id="line2d_56">
      <g>
       <use style="stroke:#000000;stroke-width:0.8;" x="587.201042" xlink:href="#m8d2c7544d6" y="170.4"/>
      </g>
     </g>
     <g id="text_28">
      <!-- 0.075 -->
      <g transform="translate(572.886979 184.998437)scale(0.1 -0.1)">
       <use xlink:href="#DejaVuSans-48"/>
       <use x="63.623047" xlink:href="#DejaVuSans-46"/>
       <use x="95.410156" xlink:href="#DejaVuSans-48"/>
       <use x="159.033203" xlink:href="#DejaVuSans-55"/>
       <use x="222.65625" xlink:href="#DejaVuSans-53"/>
      </g>
     </g>
    </g>
    <g id="xtick_15">
     <g id="line2d_57">
      <g>
       <use style="stroke:#000000;stroke-width:0.8;" x="623.0125" xlink:href="#m8d2c7544d6" y="170.4"/>
      </g>
     </g>
     <g id="text_29">
      <!-- 0.100 -->
      <g transform="translate(608.698437 184.998437)scale(0.1 -0.1)">
       <use xlink:href="#DejaVuSans-48"/>
       <use x="63.623047" xlink:href="#DejaVuSans-46"/>
       <use x="95.410156" xlink:href="#DejaVuSans-49"/>
       <use x="159.033203" xlink:href="#DejaVuSans-48"/>
       <use x="222.65625" xlink:href="#DejaVuSans-48"/>
      </g>
     </g>
    </g>
    <g id="text_30">
     <!-- $\theta_2$ -->
     <g transform="translate(545.939583 198.676562)scale(0.1 -0.1)">
      <use transform="translate(0 0.234375)" xlink:href="#DejaVuSans-Oblique-952"/>
      <use transform="translate(61.181641 -16.171875)scale(0.7)" xlink:href="#DejaVuSans-50"/>
     </g>
    </g>
   </g>
   <g id="matplotlib.axis_6">
    <g id="ytick_11">
     <g id="line2d_58">
      <g>
       <use style="stroke:#000000;stroke-width:0.8;" x="479.766667" xlink:href="#m694c1e556c" y="164.227273"/>
      </g>
     </g>
     <g id="text_31">
      <!-- 0 -->
      <g transform="translate(466.404167 168.026491)scale(0.1 -0.1)">
       <use xlink:href="#DejaVuSans-48"/>
      </g>
     </g>
    </g>
    <g id="ytick_12">
     <g id="line2d_59">
      <g>
       <use style="stroke:#000000;stroke-width:0.8;" x="479.766667" xlink:href="#m694c1e556c" y="133.025179"/>
      </g>
     </g>
     <g id="text_32">
      <!-- 10 -->
      <g transform="translate(460.041667 136.824398)scale(0.1 -0.1)">
       <use xlink:href="#DejaVuSans-49"/>
       <use x="63.623047" xlink:href="#DejaVuSans-48"/>
      </g>
     </g>
    </g>
    <g id="ytick_13">
     <g id="line2d_60">
      <g>
       <use style="stroke:#000000;stroke-width:0.8;" x="479.766667" xlink:href="#m694c1e556c" y="101.823086"/>
      </g>
     </g>
     <g id="text_33">
      <!-- 20 -->
      <g transform="translate(460.041667 105.622305)scale(0.1 -0.1)">
       <use xlink:href="#DejaVuSans-50"/>
       <use x="63.623047" xlink:href="#DejaVuSans-48"/>
      </g>
     </g>
    </g>
    <g id="ytick_14">
     <g id="line2d_61">
      <g>
       <use style="stroke:#000000;stroke-width:0.8;" x="479.766667" xlink:href="#m694c1e556c" y="70.620992"/>
      </g>
     </g>
     <g id="text_34">
      <!-- 30 -->
      <g transform="translate(460.041667 74.420211)scale(0.1 -0.1)">
       <use xlink:href="#DejaVuSans-51"/>
       <use x="63.623047" xlink:href="#DejaVuSans-48"/>
      </g>
     </g>
    </g>
    <g id="ytick_15">
     <g id="line2d_62">
      <g>
       <use style="stroke:#000000;stroke-width:0.8;" x="479.766667" xlink:href="#m694c1e556c" y="39.418899"/>
      </g>
     </g>
     <g id="text_35">
      <!-- 40 -->
      <g transform="translate(460.041667 43.218118)scale(0.1 -0.1)">
       <use xlink:href="#DejaVuSans-52"/>
       <use x="63.623047" xlink:href="#DejaVuSans-48"/>
      </g>
     </g>
    </g>
    <g id="text_36">
     <!-- Posterior -->
     <g transform="translate(453.961979 124.59375)rotate(-90)scale(0.1 -0.1)">
      <use xlink:href="#DejaVuSans-80"/>
      <use x="56.677734" xlink:href="#DejaVuSans-111"/>
      <use x="117.859375" xlink:href="#DejaVuSans-115"/>
      <use x="169.958984" xlink:href="#DejaVuSans-116"/>
      <use x="209.167969" xlink:href="#DejaVuSans-101"/>
      <use x="270.691406" xlink:href="#DejaVuSans-114"/>
      <use x="311.804688" xlink:href="#DejaVuSans-105"/>
      <use x="339.587891" xlink:href="#DejaVuSans-111"/>
      <use x="400.769531" xlink:href="#DejaVuSans-114"/>
     </g>
    </g>
   </g>
   <g id="line2d_63">
    <path clip-path="url(#pc6faaf8968)" d="M 479.766667 152.199113 
L 484.557497 148.018612 
L 487.431996 145.824163 
L 489.827411 144.28126 
L 492.222826 143.025912 
L 494.618241 142.047263 
L 497.013657 141.305385 
L 499.888155 140.644821 
L 504.678986 139.820942 
L 512.344314 138.494348 
L 519.53056 136.986154 
L 538.693882 132.782235 
L 543.963796 132.044551 
L 558.336288 130.370258 
L 562.648035 130.074956 
L 566.4807 130.031518 
L 570.792447 130.219916 
L 578.457776 130.854607 
L 584.685856 131.282101 
L 588.997603 131.366414 
L 592.830268 131.203114 
L 596.662932 130.800229 
L 602.891012 130.065177 
L 605.286427 130.040534 
L 607.202759 130.252523 
L 609.119091 130.737454 
L 610.556341 131.311463 
L 611.99359 132.08336 
L 613.430839 133.061769 
L 615.347171 134.687952 
L 617.263503 136.661299 
L 619.179836 138.935597 
L 622.054334 142.756335 
L 623.0125 144.095625 
L 623.0125 144.095625 
" style="fill:none;stroke:#1f77b4;stroke-linecap:square;stroke-width:1.5;"/>
   </g>
   <g id="line2d_64">
    <path clip-path="url(#pc6faaf8968)" style="fill:none;stroke:#808080;stroke-dasharray:1.5,2.475;stroke-dashoffset:0;stroke-width:1.5;"/>
   </g>
   <g id="line2d_65">
    <path clip-path="url(#pc6faaf8968)" d="M 479.766667 154.401335 
L 484.557497 151.115636 
L 487.431996 149.380977 
L 490.306494 147.911336 
L 493.180992 146.712709 
L 496.534574 145.589906 
L 508.990733 141.774459 
L 515.218813 139.362073 
L 520.488726 137.415888 
L 524.800474 136.072734 
L 529.112221 134.965102 
L 533.903052 133.979638 
L 538.214799 133.317876 
L 543.00563 132.82423 
L 554.503623 132.010675 
L 563.606201 131.441251 
L 570.792447 130.992104 
L 574.625111 130.496076 
L 577.978693 129.844776 
L 582.769523 128.655672 
L 589.476686 126.97611 
L 593.309351 126.239573 
L 596.662932 125.800652 
L 599.53743 125.618702 
L 601.932846 125.649775 
L 604.328261 125.905777 
L 606.244593 126.321099 
L 608.160925 126.968786 
L 610.077258 127.890121 
L 611.99359 129.120077 
L 613.909922 130.681212 
L 615.826254 132.578066 
L 617.742586 134.793108 
L 620.138002 137.944438 
L 623.0125 142.111732 
L 623.0125 142.111732 
" style="fill:none;stroke:#ff7f0e;stroke-linecap:square;stroke-width:1.5;"/>
   </g>
   <g id="line2d_66">
    <path clip-path="url(#pc6faaf8968)" style="fill:none;stroke:#808080;stroke-dasharray:1.5,2.475;stroke-dashoffset:0;stroke-width:1.5;"/>
   </g>
   <g id="line2d_67">
    <path clip-path="url(#pc6faaf8968)" d="M 479.766667 160.075256 
L 486.473829 157.390176 
L 494.618241 154.203616 
L 504.199902 150.727135 
L 511.865231 147.875917 
L 516.176979 146.045218 
L 520.488726 143.981175 
L 533.423969 137.535903 
L 536.77755 136.292321 
L 540.131132 135.307012 
L 552.587291 131.976632 
L 562.168952 128.876239 
L 565.04345 128.251597 
L 568.876115 127.679876 
L 573.666945 126.965372 
L 576.062361 126.380887 
L 578.457776 125.542327 
L 580.853191 124.430624 
L 583.72769 122.794508 
L 592.351185 117.576636 
L 594.7466 116.45667 
L 597.142015 115.564126 
L 599.53743 114.916141 
L 601.453763 114.598182 
L 603.370095 114.499471 
L 604.807344 114.604444 
L 606.244593 114.897428 
L 607.681842 115.413002 
L 609.119091 116.185624 
L 610.556341 117.245952 
L 611.99359 118.617068 
L 613.430839 120.311072 
L 614.868088 122.326449 
L 616.78442 125.48254 
L 618.700753 129.097222 
L 621.575251 135.10012 
L 623.0125 138.219627 
L 623.0125 138.219627 
" style="fill:none;stroke:#2ca02c;stroke-linecap:square;stroke-width:1.5;"/>
   </g>
   <g id="line2d_68">
    <path clip-path="url(#pc6faaf8968)" style="fill:none;stroke:#808080;stroke-dasharray:1.5,2.475;stroke-dashoffset:0;stroke-width:1.5;"/>
   </g>
   <g id="line2d_69">
    <path clip-path="url(#pc6faaf8968)" d="M 479.766667 163.353557 
L 484.078414 162.759566 
L 487.431996 162.084691 
L 490.785577 161.169494 
L 494.139158 160.005577 
L 498.929989 158.060007 
L 503.720819 156.176481 
L 507.074401 155.089386 
L 512.344314 153.673371 
L 516.176979 152.551685 
L 519.051477 151.499275 
L 521.925975 150.223372 
L 525.279557 148.482291 
L 531.507637 144.902356 
L 535.340301 142.826285 
L 538.693882 141.27078 
L 542.526547 139.782763 
L 547.317377 137.953832 
L 549.712793 136.831291 
L 552.108208 135.478782 
L 554.503623 133.890527 
L 557.857205 131.364004 
L 568.876115 122.783128 
L 572.708779 120.195259 
L 575.583278 118.494889 
L 578.457776 117.040227 
L 581.811357 115.624263 
L 588.51852 112.949576 
L 590.913935 111.740755 
L 593.788434 110.017608 
L 600.974679 105.463636 
L 602.411929 104.850177 
L 603.849178 104.464376 
L 605.286427 104.363446 
L 606.244593 104.481035 
L 607.202759 104.763395 
L 608.160925 105.223127 
L 609.119091 105.870784 
L 610.077258 106.714534 
L 611.514507 108.358999 
L 612.951756 110.46198 
L 614.389005 113.012475 
L 615.826254 115.981714 
L 617.742586 120.508618 
L 620.138002 126.848961 
L 623.0125 134.914533 
L 623.0125 134.914533 
" style="fill:none;stroke:#d62728;stroke-linecap:square;stroke-width:1.5;"/>
   </g>
   <g id="line2d_70">
    <path clip-path="url(#pc6faaf8968)" style="fill:none;stroke:#808080;stroke-dasharray:1.5,2.475;stroke-dashoffset:0;stroke-width:1.5;"/>
   </g>
   <g id="line2d_71">
    <path clip-path="url(#pc6faaf8968)" d="M 479.766667 164.227014 
L 494.139158 164.115371 
L 498.450906 163.85057 
L 501.804487 163.408708 
L 504.678986 162.794816 
L 507.553484 161.932231 
L 510.427982 160.832388 
L 514.260647 159.103256 
L 521.925975 155.566608 
L 530.070387 152.016289 
L 532.465803 150.696967 
L 534.861218 149.14043 
L 537.735716 146.989446 
L 544.442879 141.821753 
L 546.838294 140.315382 
L 549.712793 138.797181 
L 554.982706 136.147525 
L 557.378122 134.643122 
L 559.773537 132.825175 
L 562.168952 130.708157 
L 565.522533 127.416511 
L 570.313364 122.705939 
L 573.187862 120.185279 
L 576.062361 117.952792 
L 579.895025 115.28017 
L 585.644022 111.547795 
L 589.476686 109.304047 
L 597.142015 104.984775 
L 599.53743 103.274429 
L 602.411929 100.910917 
L 606.723676 97.326637 
L 608.160925 96.396003 
L 609.598174 95.761291 
L 610.556341 95.561455 
L 611.514507 95.584058 
L 612.472673 95.866976 
L 613.430839 96.446572 
L 614.389005 97.355673 
L 615.347171 98.621336 
L 616.305337 100.262571 
L 617.263503 102.288198 
L 618.700753 106.036976 
L 620.138002 110.574217 
L 622.054334 117.611374 
L 623.0125 121.422837 
L 623.0125 121.422837 
" style="fill:none;stroke:#9467bd;stroke-linecap:square;stroke-width:1.5;"/>
   </g>
   <g id="line2d_72">
    <path clip-path="url(#pc6faaf8968)" style="fill:none;stroke:#808080;stroke-dasharray:1.5,2.475;stroke-dashoffset:0;stroke-width:1.5;"/>
   </g>
   <g id="line2d_73">
    <path clip-path="url(#pc6faaf8968)" d="M 479.766667 164.227273 
L 517.135145 164.123342 
L 520.967809 163.867611 
L 523.842308 163.481149 
L 526.716806 162.886547 
L 529.591304 162.084133 
L 533.423969 160.752905 
L 537.735716 158.999714 
L 540.610215 157.610926 
L 543.00563 156.185041 
L 544.921962 154.804723 
L 547.317377 152.780534 
L 551.150042 149.138431 
L 558.815371 141.599151 
L 561.210786 138.806667 
L 563.606201 135.649644 
L 568.397032 128.783666 
L 571.27153 124.929629 
L 573.187862 122.694583 
L 575.104195 120.772039 
L 577.49961 118.71426 
L 580.853191 115.900443 
L 582.769523 113.954733 
L 584.206773 112.214515 
L 586.123105 109.470736 
L 588.039437 106.255602 
L 590.434852 101.677934 
L 597.142015 88.222301 
L 598.579264 86.013988 
L 600.016513 84.279144 
L 601.453763 83.022549 
L 602.891012 82.16874 
L 604.807344 81.411227 
L 607.681842 80.331047 
L 609.598174 79.340069 
L 611.99359 78.072177 
L 612.951756 77.7759 
L 613.909922 77.752214 
L 614.868088 78.11999 
L 615.347171 78.488693 
L 616.305337 79.668407 
L 617.263503 81.522691 
L 618.221669 84.129458 
L 619.179836 87.529445 
L 620.138002 91.717567 
L 621.575251 99.342095 
L 623.0125 108.210696 
L 623.0125 108.210696 
" style="fill:none;stroke:#8c564b;stroke-linecap:square;stroke-width:1.5;"/>
   </g>
   <g id="line2d_74">
    <path clip-path="url(#pc6faaf8968)" style="fill:none;stroke:#808080;stroke-dasharray:1.5,2.475;stroke-dashoffset:0;stroke-width:1.5;"/>
   </g>
   <g id="line2d_75">
    <path clip-path="url(#pc6faaf8968)" d="M 479.766667 164.227273 
L 536.298467 164.125642 
L 538.693882 163.86684 
L 540.131132 163.539264 
L 541.568381 163.018934 
L 543.00563 162.271339 
L 544.442879 161.302463 
L 547.317377 158.998743 
L 549.23371 157.586627 
L 550.670959 156.77065 
L 552.108208 156.184471 
L 556.899038 154.593645 
L 558.336288 153.689481 
L 559.773537 152.405722 
L 561.210786 150.704424 
L 562.648035 148.580877 
L 564.085284 146.056753 
L 566.001616 142.158904 
L 572.708779 127.69582 
L 574.625111 124.44723 
L 579.415942 116.680768 
L 583.248606 109.595054 
L 585.644022 105.375953 
L 588.51852 100.823525 
L 593.788434 92.746448 
L 595.704766 89.432231 
L 597.621098 85.687687 
L 599.53743 81.385937 
L 601.453763 76.531582 
L 605.76551 65.28118 
L 607.202759 62.169248 
L 608.640008 59.619185 
L 609.598174 58.253936 
L 610.556341 57.170505 
L 611.514507 56.398184 
L 612.472673 55.996324 
L 612.951756 55.963246 
L 613.430839 56.062475 
L 613.909922 56.312166 
L 614.389005 56.73231 
L 614.868088 57.344184 
L 615.347171 58.169655 
L 616.305337 60.546812 
L 617.263503 64.017439 
L 618.221669 68.686136 
L 619.179836 74.580194 
L 620.617085 85.536406 
L 622.533417 102.92764 
L 623.0125 107.503362 
L 623.0125 107.503362 
" style="fill:none;stroke:#e377c2;stroke-linecap:square;stroke-width:1.5;"/>
   </g>
   <g id="line2d_76">
    <path clip-path="url(#pc6faaf8968)" style="fill:none;stroke:#808080;stroke-dasharray:1.5,2.475;stroke-dashoffset:0;stroke-width:1.5;"/>
   </g>
   <g id="line2d_77">
    <path clip-path="url(#pc6faaf8968)" d="M 479.766667 164.227273 
L 548.275543 164.139519 
L 550.670959 163.935615 
L 552.587291 163.543891 
L 554.02454 163.010001 
L 555.461789 162.16583 
L 556.419955 161.376793 
L 557.378122 160.367717 
L 558.336288 159.107187 
L 559.294454 157.568795 
L 560.731703 154.703771 
L 562.168952 151.167719 
L 563.606201 147.035414 
L 566.001616 139.328584 
L 568.397032 131.758536 
L 569.834281 127.892707 
L 570.792447 125.747837 
L 571.750613 123.987772 
L 572.708779 122.609142 
L 573.666945 121.576588 
L 574.625111 120.828168 
L 576.062361 120.062347 
L 579.415942 118.569195 
L 580.853191 117.660895 
L 582.769523 116.171191 
L 590.434852 109.702291 
L 591.872101 108.011581 
L 593.309351 105.834597 
L 594.7466 103.061265 
L 596.183849 99.632259 
L 597.621098 95.53446 
L 599.058347 90.789243 
L 600.974679 83.540373 
L 603.370095 73.287212 
L 608.160925 52.080565 
L 609.598174 46.91182 
L 610.556341 44.166343 
L 611.514507 42.145346 
L 611.99359 41.450062 
L 612.472673 40.987255 
L 612.951756 40.772727 
L 613.430839 40.821216 
L 613.909922 41.146116 
L 614.389005 41.759189 
L 614.868088 42.670263 
L 615.347171 43.886919 
L 616.305337 47.254297 
L 617.263503 51.866096 
L 618.221669 57.674391 
L 619.658919 68.385049 
L 621.096168 80.950961 
L 623.0125 99.166315 
L 623.0125 99.166315 
" style="fill:none;stroke:#7f7f7f;stroke-linecap:square;stroke-width:1.5;"/>
   </g>
   <g id="line2d_78">
    <path clip-path="url(#pc6faaf8968)" style="fill:none;stroke:#808080;stroke-dasharray:1.5,2.475;stroke-dashoffset:0;stroke-width:1.5;"/>
   </g>
   <g id="patch_9">
    <path d="M 479.766667 170.4 
L 479.766667 34.6 
" style="fill:none;stroke:#000000;stroke-linecap:square;stroke-linejoin:miter;stroke-width:0.8;"/>
   </g>
   <g id="patch_10">
    <path d="M 479.766667 170.4 
L 623.0125 170.4 
" style="fill:none;stroke:#000000;stroke-linecap:square;stroke-linejoin:miter;stroke-width:0.8;"/>
   </g>
  </g>
  <g id="text_37">
   <!-- calibrated -->
   <g transform="translate(293.884687 13.438125)scale(0.12 -0.12)">
    <defs>
     <path d="M 48.78125 52.59375 
L 48.78125 44.1875 
Q 44.96875 46.296875 41.140625 47.34375 
Q 37.3125 48.390625 33.40625 48.390625 
Q 24.65625 48.390625 19.8125 42.84375 
Q 14.984375 37.3125 14.984375 27.296875 
Q 14.984375 17.28125 19.8125 11.734375 
Q 24.65625 6.203125 33.40625 6.203125 
Q 37.3125 6.203125 41.140625 7.25 
Q 44.96875 8.296875 48.78125 10.40625 
L 48.78125 2.09375 
Q 45.015625 0.34375 40.984375 -0.53125 
Q 36.96875 -1.421875 32.421875 -1.421875 
Q 20.0625 -1.421875 12.78125 6.34375 
Q 5.515625 14.109375 5.515625 27.296875 
Q 5.515625 40.671875 12.859375 48.328125 
Q 20.21875 56 33.015625 56 
Q 37.15625 56 41.109375 55.140625 
Q 45.0625 54.296875 48.78125 52.59375 
z
" id="DejaVuSans-99"/>
     <path d="M 34.28125 27.484375 
Q 23.390625 27.484375 19.1875 25 
Q 14.984375 22.515625 14.984375 16.5 
Q 14.984375 11.71875 18.140625 8.90625 
Q 21.296875 6.109375 26.703125 6.109375 
Q 34.1875 6.109375 38.703125 11.40625 
Q 43.21875 16.703125 43.21875 25.484375 
L 43.21875 27.484375 
z
M 52.203125 31.203125 
L 52.203125 0 
L 43.21875 0 
L 43.21875 8.296875 
Q 40.140625 3.328125 35.546875 0.953125 
Q 30.953125 -1.421875 24.3125 -1.421875 
Q 15.921875 -1.421875 10.953125 3.296875 
Q 6 8.015625 6 15.921875 
Q 6 25.140625 12.171875 29.828125 
Q 18.359375 34.515625 30.609375 34.515625 
L 43.21875 34.515625 
L 43.21875 35.40625 
Q 43.21875 41.609375 39.140625 45 
Q 35.0625 48.390625 27.6875 48.390625 
Q 23 48.390625 18.546875 47.265625 
Q 14.109375 46.140625 10.015625 43.890625 
L 10.015625 52.203125 
Q 14.9375 54.109375 19.578125 55.046875 
Q 24.21875 56 28.609375 56 
Q 40.484375 56 46.34375 49.84375 
Q 52.203125 43.703125 52.203125 31.203125 
z
" id="DejaVuSans-97"/>
     <path d="M 9.421875 75.984375 
L 18.40625 75.984375 
L 18.40625 0 
L 9.421875 0 
z
" id="DejaVuSans-108"/>
     <path d="M 48.6875 27.296875 
Q 48.6875 37.203125 44.609375 42.84375 
Q 40.53125 48.484375 33.40625 48.484375 
Q 26.265625 48.484375 22.1875 42.84375 
Q 18.109375 37.203125 18.109375 27.296875 
Q 18.109375 17.390625 22.1875 11.75 
Q 26.265625 6.109375 33.40625 6.109375 
Q 40.53125 6.109375 44.609375 11.75 
Q 48.6875 17.390625 48.6875 27.296875 
z
M 18.109375 46.390625 
Q 20.953125 51.265625 25.265625 53.625 
Q 29.59375 56 35.59375 56 
Q 45.5625 56 51.78125 48.09375 
Q 58.015625 40.1875 58.015625 27.296875 
Q 58.015625 14.40625 51.78125 6.484375 
Q 45.5625 -1.421875 35.59375 -1.421875 
Q 29.59375 -1.421875 25.265625 0.953125 
Q 20.953125 3.328125 18.109375 8.203125 
L 18.109375 0 
L 9.078125 0 
L 9.078125 75.984375 
L 18.109375 75.984375 
z
" id="DejaVuSans-98"/>
     <path d="M 45.40625 46.390625 
L 45.40625 75.984375 
L 54.390625 75.984375 
L 54.390625 0 
L 45.40625 0 
L 45.40625 8.203125 
Q 42.578125 3.328125 38.25 0.953125 
Q 33.9375 -1.421875 27.875 -1.421875 
Q 17.96875 -1.421875 11.734375 6.484375 
Q 5.515625 14.40625 5.515625 27.296875 
Q 5.515625 40.1875 11.734375 48.09375 
Q 17.96875 56 27.875 56 
Q 33.9375 56 38.25 53.625 
Q 42.578125 51.265625 45.40625 46.390625 
z
M 14.796875 27.296875 
Q 14.796875 17.390625 18.875 11.75 
Q 22.953125 6.109375 30.078125 6.109375 
Q 37.203125 6.109375 41.296875 11.75 
Q 45.40625 17.390625 45.40625 27.296875 
Q 45.40625 37.203125 41.296875 42.84375 
Q 37.203125 48.484375 30.078125 48.484375 
Q 22.953125 48.484375 18.875 42.84375 
Q 14.796875 37.203125 14.796875 27.296875 
z
" id="DejaVuSans-100"/>
    </defs>
    <use xlink:href="#DejaVuSans-99"/>
    <use x="54.980469" xlink:href="#DejaVuSans-97"/>
    <use x="116.259766" xlink:href="#DejaVuSans-108"/>
    <use x="144.042969" xlink:href="#DejaVuSans-105"/>
    <use x="171.826172" xlink:href="#DejaVuSans-98"/>
    <use x="235.302734" xlink:href="#DejaVuSans-114"/>
    <use x="276.416016" xlink:href="#DejaVuSans-97"/>
    <use x="337.695312" xlink:href="#DejaVuSans-116"/>
    <use x="376.904297" xlink:href="#DejaVuSans-101"/>
    <use x="438.427734" xlink:href="#DejaVuSans-100"/>
   </g>
  </g>
 </g>
 <defs>
  <clipPath id="pcc0c0ae1b0">
   <rect height="135.8" width="143.245833" x="44.55" y="34.6"/>
  </clipPath>
  <clipPath id="pa7b97b0cbb">
   <rect height="135.8" width="143.245833" x="262.158333" y="34.6"/>
  </clipPath>
  <clipPath id="pc6faaf8968">
   <rect height="135.8" width="143.245833" x="479.766667" y="34.6"/>
  </clipPath>
 </defs>
</svg>
