<?xml version="1.0" encoding="utf-8" standalone="no"?>
<!DOCTYPE svg PUBLIC "-//W3C//DTD SVG 1.1//EN"
  "http://www.w3.org/Graphics/SVG/1.1/DTD/svg11.dtd">
<svg height="216pt" version="1.1" viewBox="0 0 1512 216" width="1512pt" xmlns="http://www.w3.org/2000/svg" xmlns:xlink="http://www.w3.org/1999/xlink">
 <metadata>
  <rdf:RDF xmlns:cc="http://creativecommons.org/ns#" xmlns:dc="http://purl.org/dc/elements/1.1/" xmlns:rdf="http://www.w3.org/1999/02/22-rdf-syntax-ns#">
   <cc:Work>
    <dc:type rdf:resource="http://purl.org/dc/dcmitype/StillImage"/>
    <dc:date>2021-04-22T12:16:37.459960</dc:date>
    <dc:format>image/svg+xml</dc:format>
    <dc:creator>
     <cc:Agent>
      <dc:title>Matplotlib v3.4.1, https://matplotlib.org/</dc:title>
     </cc:Agent>
    </dc:creator>
   </cc:Work>
  </rdf:RDF>
 </metadata>
 <defs>
  <style type="text/css">*{stroke-linecap:butt;stroke-linejoin:round;}</style>
 </defs>
 <g id="figure_1">
  <g id="patch_1">
   <path d="M 0 216 
L 1512 216 
L 1512 0 
L 0 0 
z
" style="fill:none;"/>
  </g>
  <g id="axes_1">
   <g id="patch_2">
    <path d="M 47.8 173.29375 
L 203.189286 173.29375 
L 203.189286 37.604172 
L 47.8 37.604172 
z
" style="fill:#ffffff;"/>
   </g>
   <g id="matplotlib.axis_1">
    <g id="xtick_1">
     <g id="line2d_1">
      <defs>
       <path d="M 0 0 
L 0 3.5 
" id="m53919fc3e5" style="stroke:#000000;stroke-width:0.8;"/>
      </defs>
      <g>
       <use style="stroke:#000000;stroke-width:0.8;" x="47.8" xlink:href="#m53919fc3e5" y="173.29375"/>
      </g>
     </g>
     <g id="text_1">
      <!-- −3.0 -->
      <g transform="translate(35.658594 187.892188)scale(0.1 -0.1)">
       <defs>
        <path d="M 678 2272 
L 4684 2272 
L 4684 1741 
L 678 1741 
L 678 2272 
z
" id="DejaVuSans-2212" transform="scale(0.015625)"/>
        <path d="M 2597 2516 
Q 3050 2419 3304 2112 
Q 3559 1806 3559 1356 
Q 3559 666 3084 287 
Q 2609 -91 1734 -91 
Q 1441 -91 1130 -33 
Q 819 25 488 141 
L 488 750 
Q 750 597 1062 519 
Q 1375 441 1716 441 
Q 2309 441 2620 675 
Q 2931 909 2931 1356 
Q 2931 1769 2642 2001 
Q 2353 2234 1838 2234 
L 1294 2234 
L 1294 2753 
L 1863 2753 
Q 2328 2753 2575 2939 
Q 2822 3125 2822 3475 
Q 2822 3834 2567 4026 
Q 2313 4219 1838 4219 
Q 1578 4219 1281 4162 
Q 984 4106 628 3988 
L 628 4550 
Q 988 4650 1302 4700 
Q 1616 4750 1894 4750 
Q 2613 4750 3031 4423 
Q 3450 4097 3450 3541 
Q 3450 3153 3228 2886 
Q 3006 2619 2597 2516 
z
" id="DejaVuSans-33" transform="scale(0.015625)"/>
        <path d="M 684 794 
L 1344 794 
L 1344 0 
L 684 0 
L 684 794 
z
" id="DejaVuSans-2e" transform="scale(0.015625)"/>
        <path d="M 2034 4250 
Q 1547 4250 1301 3770 
Q 1056 3291 1056 2328 
Q 1056 1369 1301 889 
Q 1547 409 2034 409 
Q 2525 409 2770 889 
Q 3016 1369 3016 2328 
Q 3016 3291 2770 3770 
Q 2525 4250 2034 4250 
z
M 2034 4750 
Q 2819 4750 3233 4129 
Q 3647 3509 3647 2328 
Q 3647 1150 3233 529 
Q 2819 -91 2034 -91 
Q 1250 -91 836 529 
Q 422 1150 422 2328 
Q 422 3509 836 4129 
Q 1250 4750 2034 4750 
z
" id="DejaVuSans-30" transform="scale(0.015625)"/>
       </defs>
       <use xlink:href="#DejaVuSans-2212"/>
       <use x="83.789062" xlink:href="#DejaVuSans-33"/>
       <use x="147.412109" xlink:href="#DejaVuSans-2e"/>
       <use x="179.199219" xlink:href="#DejaVuSans-30"/>
      </g>
     </g>
    </g>
    <g id="xtick_2">
     <g id="line2d_2">
      <g>
       <use style="stroke:#000000;stroke-width:0.8;" x="86.647321" xlink:href="#m53919fc3e5" y="173.29375"/>
      </g>
     </g>
     <g id="text_2">
      <!-- −2.5 -->
      <g transform="translate(74.505915 187.892188)scale(0.1 -0.1)">
       <defs>
        <path d="M 1228 531 
L 3431 531 
L 3431 0 
L 469 0 
L 469 531 
Q 828 903 1448 1529 
Q 2069 2156 2228 2338 
Q 2531 2678 2651 2914 
Q 2772 3150 2772 3378 
Q 2772 3750 2511 3984 
Q 2250 4219 1831 4219 
Q 1534 4219 1204 4116 
Q 875 4013 500 3803 
L 500 4441 
Q 881 4594 1212 4672 
Q 1544 4750 1819 4750 
Q 2544 4750 2975 4387 
Q 3406 4025 3406 3419 
Q 3406 3131 3298 2873 
Q 3191 2616 2906 2266 
Q 2828 2175 2409 1742 
Q 1991 1309 1228 531 
z
" id="DejaVuSans-32" transform="scale(0.015625)"/>
        <path d="M 691 4666 
L 3169 4666 
L 3169 4134 
L 1269 4134 
L 1269 2991 
Q 1406 3038 1543 3061 
Q 1681 3084 1819 3084 
Q 2600 3084 3056 2656 
Q 3513 2228 3513 1497 
Q 3513 744 3044 326 
Q 2575 -91 1722 -91 
Q 1428 -91 1123 -41 
Q 819 9 494 109 
L 494 744 
Q 775 591 1075 516 
Q 1375 441 1709 441 
Q 2250 441 2565 725 
Q 2881 1009 2881 1497 
Q 2881 1984 2565 2268 
Q 2250 2553 1709 2553 
Q 1456 2553 1204 2497 
Q 953 2441 691 2322 
L 691 4666 
z
" id="DejaVuSans-35" transform="scale(0.015625)"/>
       </defs>
       <use xlink:href="#DejaVuSans-2212"/>
       <use x="83.789062" xlink:href="#DejaVuSans-32"/>
       <use x="147.412109" xlink:href="#DejaVuSans-2e"/>
       <use x="179.199219" xlink:href="#DejaVuSans-35"/>
      </g>
     </g>
    </g>
    <g id="xtick_3">
     <g id="line2d_3">
      <g>
       <use style="stroke:#000000;stroke-width:0.8;" x="125.494643" xlink:href="#m53919fc3e5" y="173.29375"/>
      </g>
     </g>
     <g id="text_3">
      <!-- −2.0 -->
      <g transform="translate(113.353237 187.892188)scale(0.1 -0.1)">
       <use xlink:href="#DejaVuSans-2212"/>
       <use x="83.789062" xlink:href="#DejaVuSans-32"/>
       <use x="147.412109" xlink:href="#DejaVuSans-2e"/>
       <use x="179.199219" xlink:href="#DejaVuSans-30"/>
      </g>
     </g>
    </g>
    <g id="xtick_4">
     <g id="line2d_4">
      <g>
       <use style="stroke:#000000;stroke-width:0.8;" x="164.341964" xlink:href="#m53919fc3e5" y="173.29375"/>
      </g>
     </g>
     <g id="text_4">
      <!-- −1.5 -->
      <g transform="translate(152.200558 187.892188)scale(0.1 -0.1)">
       <defs>
        <path d="M 794 531 
L 1825 531 
L 1825 4091 
L 703 3866 
L 703 4441 
L 1819 4666 
L 2450 4666 
L 2450 531 
L 3481 531 
L 3481 0 
L 794 0 
L 794 531 
z
" id="DejaVuSans-31" transform="scale(0.015625)"/>
       </defs>
       <use xlink:href="#DejaVuSans-2212"/>
       <use x="83.789062" xlink:href="#DejaVuSans-31"/>
       <use x="147.412109" xlink:href="#DejaVuSans-2e"/>
       <use x="179.199219" xlink:href="#DejaVuSans-35"/>
      </g>
     </g>
    </g>
    <g id="xtick_5">
     <g id="line2d_5">
      <g>
       <use style="stroke:#000000;stroke-width:0.8;" x="203.189286" xlink:href="#m53919fc3e5" y="173.29375"/>
      </g>
     </g>
     <g id="text_5">
      <!-- −1.0 -->
      <g transform="translate(191.047879 187.892188)scale(0.1 -0.1)">
       <use xlink:href="#DejaVuSans-2212"/>
       <use x="83.789062" xlink:href="#DejaVuSans-31"/>
       <use x="147.412109" xlink:href="#DejaVuSans-2e"/>
       <use x="179.199219" xlink:href="#DejaVuSans-30"/>
      </g>
     </g>
    </g>
    <g id="text_6">
     <!-- log_division_rate -->
     <g transform="translate(83.582143 201.570312)scale(0.1 -0.1)">
      <defs>
       <path d="M 603 4863 
L 1178 4863 
L 1178 0 
L 603 0 
L 603 4863 
z
" id="DejaVuSans-6c" transform="scale(0.015625)"/>
       <path d="M 1959 3097 
Q 1497 3097 1228 2736 
Q 959 2375 959 1747 
Q 959 1119 1226 758 
Q 1494 397 1959 397 
Q 2419 397 2687 759 
Q 2956 1122 2956 1747 
Q 2956 2369 2687 2733 
Q 2419 3097 1959 3097 
z
M 1959 3584 
Q 2709 3584 3137 3096 
Q 3566 2609 3566 1747 
Q 3566 888 3137 398 
Q 2709 -91 1959 -91 
Q 1206 -91 779 398 
Q 353 888 353 1747 
Q 353 2609 779 3096 
Q 1206 3584 1959 3584 
z
" id="DejaVuSans-6f" transform="scale(0.015625)"/>
       <path d="M 2906 1791 
Q 2906 2416 2648 2759 
Q 2391 3103 1925 3103 
Q 1463 3103 1205 2759 
Q 947 2416 947 1791 
Q 947 1169 1205 825 
Q 1463 481 1925 481 
Q 2391 481 2648 825 
Q 2906 1169 2906 1791 
z
M 3481 434 
Q 3481 -459 3084 -895 
Q 2688 -1331 1869 -1331 
Q 1566 -1331 1297 -1286 
Q 1028 -1241 775 -1147 
L 775 -588 
Q 1028 -725 1275 -790 
Q 1522 -856 1778 -856 
Q 2344 -856 2625 -561 
Q 2906 -266 2906 331 
L 2906 616 
Q 2728 306 2450 153 
Q 2172 0 1784 0 
Q 1141 0 747 490 
Q 353 981 353 1791 
Q 353 2603 747 3093 
Q 1141 3584 1784 3584 
Q 2172 3584 2450 3431 
Q 2728 3278 2906 2969 
L 2906 3500 
L 3481 3500 
L 3481 434 
z
" id="DejaVuSans-67" transform="scale(0.015625)"/>
       <path d="M 3263 -1063 
L 3263 -1509 
L -63 -1509 
L -63 -1063 
L 3263 -1063 
z
" id="DejaVuSans-5f" transform="scale(0.015625)"/>
       <path d="M 2906 2969 
L 2906 4863 
L 3481 4863 
L 3481 0 
L 2906 0 
L 2906 525 
Q 2725 213 2448 61 
Q 2172 -91 1784 -91 
Q 1150 -91 751 415 
Q 353 922 353 1747 
Q 353 2572 751 3078 
Q 1150 3584 1784 3584 
Q 2172 3584 2448 3432 
Q 2725 3281 2906 2969 
z
M 947 1747 
Q 947 1113 1208 752 
Q 1469 391 1925 391 
Q 2381 391 2643 752 
Q 2906 1113 2906 1747 
Q 2906 2381 2643 2742 
Q 2381 3103 1925 3103 
Q 1469 3103 1208 2742 
Q 947 2381 947 1747 
z
" id="DejaVuSans-64" transform="scale(0.015625)"/>
       <path d="M 603 3500 
L 1178 3500 
L 1178 0 
L 603 0 
L 603 3500 
z
M 603 4863 
L 1178 4863 
L 1178 4134 
L 603 4134 
L 603 4863 
z
" id="DejaVuSans-69" transform="scale(0.015625)"/>
       <path d="M 191 3500 
L 800 3500 
L 1894 563 
L 2988 3500 
L 3597 3500 
L 2284 0 
L 1503 0 
L 191 3500 
z
" id="DejaVuSans-76" transform="scale(0.015625)"/>
       <path d="M 2834 3397 
L 2834 2853 
Q 2591 2978 2328 3040 
Q 2066 3103 1784 3103 
Q 1356 3103 1142 2972 
Q 928 2841 928 2578 
Q 928 2378 1081 2264 
Q 1234 2150 1697 2047 
L 1894 2003 
Q 2506 1872 2764 1633 
Q 3022 1394 3022 966 
Q 3022 478 2636 193 
Q 2250 -91 1575 -91 
Q 1294 -91 989 -36 
Q 684 19 347 128 
L 347 722 
Q 666 556 975 473 
Q 1284 391 1588 391 
Q 1994 391 2212 530 
Q 2431 669 2431 922 
Q 2431 1156 2273 1281 
Q 2116 1406 1581 1522 
L 1381 1569 
Q 847 1681 609 1914 
Q 372 2147 372 2553 
Q 372 3047 722 3315 
Q 1072 3584 1716 3584 
Q 2034 3584 2315 3537 
Q 2597 3491 2834 3397 
z
" id="DejaVuSans-73" transform="scale(0.015625)"/>
       <path d="M 3513 2113 
L 3513 0 
L 2938 0 
L 2938 2094 
Q 2938 2591 2744 2837 
Q 2550 3084 2163 3084 
Q 1697 3084 1428 2787 
Q 1159 2491 1159 1978 
L 1159 0 
L 581 0 
L 581 3500 
L 1159 3500 
L 1159 2956 
Q 1366 3272 1645 3428 
Q 1925 3584 2291 3584 
Q 2894 3584 3203 3211 
Q 3513 2838 3513 2113 
z
" id="DejaVuSans-6e" transform="scale(0.015625)"/>
       <path d="M 2631 2963 
Q 2534 3019 2420 3045 
Q 2306 3072 2169 3072 
Q 1681 3072 1420 2755 
Q 1159 2438 1159 1844 
L 1159 0 
L 581 0 
L 581 3500 
L 1159 3500 
L 1159 2956 
Q 1341 3275 1631 3429 
Q 1922 3584 2338 3584 
Q 2397 3584 2469 3576 
Q 2541 3569 2628 3553 
L 2631 2963 
z
" id="DejaVuSans-72" transform="scale(0.015625)"/>
       <path d="M 2194 1759 
Q 1497 1759 1228 1600 
Q 959 1441 959 1056 
Q 959 750 1161 570 
Q 1363 391 1709 391 
Q 2188 391 2477 730 
Q 2766 1069 2766 1631 
L 2766 1759 
L 2194 1759 
z
M 3341 1997 
L 3341 0 
L 2766 0 
L 2766 531 
Q 2569 213 2275 61 
Q 1981 -91 1556 -91 
Q 1019 -91 701 211 
Q 384 513 384 1019 
Q 384 1609 779 1909 
Q 1175 2209 1959 2209 
L 2766 2209 
L 2766 2266 
Q 2766 2663 2505 2880 
Q 2244 3097 1772 3097 
Q 1472 3097 1187 3025 
Q 903 2953 641 2809 
L 641 3341 
Q 956 3463 1253 3523 
Q 1550 3584 1831 3584 
Q 2591 3584 2966 3190 
Q 3341 2797 3341 1997 
z
" id="DejaVuSans-61" transform="scale(0.015625)"/>
       <path d="M 1172 4494 
L 1172 3500 
L 2356 3500 
L 2356 3053 
L 1172 3053 
L 1172 1153 
Q 1172 725 1289 603 
Q 1406 481 1766 481 
L 2356 481 
L 2356 0 
L 1766 0 
Q 1100 0 847 248 
Q 594 497 594 1153 
L 594 3053 
L 172 3053 
L 172 3500 
L 594 3500 
L 594 4494 
L 1172 4494 
z
" id="DejaVuSans-74" transform="scale(0.015625)"/>
       <path d="M 3597 1894 
L 3597 1613 
L 953 1613 
Q 991 1019 1311 708 
Q 1631 397 2203 397 
Q 2534 397 2845 478 
Q 3156 559 3463 722 
L 3463 178 
Q 3153 47 2828 -22 
Q 2503 -91 2169 -91 
Q 1331 -91 842 396 
Q 353 884 353 1716 
Q 353 2575 817 3079 
Q 1281 3584 2069 3584 
Q 2775 3584 3186 3129 
Q 3597 2675 3597 1894 
z
M 3022 2063 
Q 3016 2534 2758 2815 
Q 2500 3097 2075 3097 
Q 1594 3097 1305 2825 
Q 1016 2553 972 2059 
L 3022 2063 
z
" id="DejaVuSans-65" transform="scale(0.015625)"/>
      </defs>
      <use xlink:href="#DejaVuSans-6c"/>
      <use x="27.783203" xlink:href="#DejaVuSans-6f"/>
      <use x="88.964844" xlink:href="#DejaVuSans-67"/>
      <use x="152.441406" xlink:href="#DejaVuSans-5f"/>
      <use x="202.441406" xlink:href="#DejaVuSans-64"/>
      <use x="265.917969" xlink:href="#DejaVuSans-69"/>
      <use x="293.701172" xlink:href="#DejaVuSans-76"/>
      <use x="352.880859" xlink:href="#DejaVuSans-69"/>
      <use x="380.664062" xlink:href="#DejaVuSans-73"/>
      <use x="432.763672" xlink:href="#DejaVuSans-69"/>
      <use x="460.546875" xlink:href="#DejaVuSans-6f"/>
      <use x="521.728516" xlink:href="#DejaVuSans-6e"/>
      <use x="585.107422" xlink:href="#DejaVuSans-5f"/>
      <use x="635.107422" xlink:href="#DejaVuSans-72"/>
      <use x="676.220703" xlink:href="#DejaVuSans-61"/>
      <use x="737.5" xlink:href="#DejaVuSans-74"/>
      <use x="776.708984" xlink:href="#DejaVuSans-65"/>
     </g>
    </g>
   </g>
   <g id="matplotlib.axis_2">
    <g id="ytick_1">
     <g id="line2d_6">
      <defs>
       <path d="M 0 0 
L -3.5 0 
" id="m4f1095ae60" style="stroke:#000000;stroke-width:0.8;"/>
      </defs>
      <g>
       <use style="stroke:#000000;stroke-width:0.8;" x="47.8" xlink:href="#m4f1095ae60" y="167.126042"/>
      </g>
     </g>
     <g id="text_7">
      <!-- 0.0 -->
      <g transform="translate(24.896875 170.925261)scale(0.1 -0.1)">
       <use xlink:href="#DejaVuSans-30"/>
       <use x="63.623047" xlink:href="#DejaVuSans-2e"/>
       <use x="95.410156" xlink:href="#DejaVuSans-30"/>
      </g>
     </g>
    </g>
    <g id="ytick_2">
     <g id="line2d_7">
      <g>
       <use style="stroke:#000000;stroke-width:0.8;" x="47.8" xlink:href="#m4f1095ae60" y="140.780784"/>
      </g>
     </g>
     <g id="text_8">
      <!-- 0.5 -->
      <g transform="translate(24.896875 144.580003)scale(0.1 -0.1)">
       <use xlink:href="#DejaVuSans-30"/>
       <use x="63.623047" xlink:href="#DejaVuSans-2e"/>
       <use x="95.410156" xlink:href="#DejaVuSans-35"/>
      </g>
     </g>
    </g>
    <g id="ytick_3">
     <g id="line2d_8">
      <g>
       <use style="stroke:#000000;stroke-width:0.8;" x="47.8" xlink:href="#m4f1095ae60" y="114.435527"/>
      </g>
     </g>
     <g id="text_9">
      <!-- 1.0 -->
      <g transform="translate(24.896875 118.234745)scale(0.1 -0.1)">
       <use xlink:href="#DejaVuSans-31"/>
       <use x="63.623047" xlink:href="#DejaVuSans-2e"/>
       <use x="95.410156" xlink:href="#DejaVuSans-30"/>
      </g>
     </g>
    </g>
    <g id="ytick_4">
     <g id="line2d_9">
      <g>
       <use style="stroke:#000000;stroke-width:0.8;" x="47.8" xlink:href="#m4f1095ae60" y="88.090269"/>
      </g>
     </g>
     <g id="text_10">
      <!-- 1.5 -->
      <g transform="translate(24.896875 91.889488)scale(0.1 -0.1)">
       <use xlink:href="#DejaVuSans-31"/>
       <use x="63.623047" xlink:href="#DejaVuSans-2e"/>
       <use x="95.410156" xlink:href="#DejaVuSans-35"/>
      </g>
     </g>
    </g>
    <g id="ytick_5">
     <g id="line2d_10">
      <g>
       <use style="stroke:#000000;stroke-width:0.8;" x="47.8" xlink:href="#m4f1095ae60" y="61.745011"/>
      </g>
     </g>
     <g id="text_11">
      <!-- 2.0 -->
      <g transform="translate(24.896875 65.54423)scale(0.1 -0.1)">
       <use xlink:href="#DejaVuSans-32"/>
       <use x="63.623047" xlink:href="#DejaVuSans-2e"/>
       <use x="95.410156" xlink:href="#DejaVuSans-30"/>
      </g>
     </g>
    </g>
    <g id="text_12">
     <!-- Posterior -->
     <g transform="translate(18.817188 127.542711)rotate(-90)scale(0.1 -0.1)">
      <defs>
       <path d="M 1259 4147 
L 1259 2394 
L 2053 2394 
Q 2494 2394 2734 2622 
Q 2975 2850 2975 3272 
Q 2975 3691 2734 3919 
Q 2494 4147 2053 4147 
L 1259 4147 
z
M 628 4666 
L 2053 4666 
Q 2838 4666 3239 4311 
Q 3641 3956 3641 3272 
Q 3641 2581 3239 2228 
Q 2838 1875 2053 1875 
L 1259 1875 
L 1259 0 
L 628 0 
L 628 4666 
z
" id="DejaVuSans-50" transform="scale(0.015625)"/>
      </defs>
      <use xlink:href="#DejaVuSans-50"/>
      <use x="56.677734" xlink:href="#DejaVuSans-6f"/>
      <use x="117.859375" xlink:href="#DejaVuSans-73"/>
      <use x="169.958984" xlink:href="#DejaVuSans-74"/>
      <use x="209.167969" xlink:href="#DejaVuSans-65"/>
      <use x="270.691406" xlink:href="#DejaVuSans-72"/>
      <use x="311.804688" xlink:href="#DejaVuSans-69"/>
      <use x="339.587891" xlink:href="#DejaVuSans-6f"/>
      <use x="400.769531" xlink:href="#DejaVuSans-72"/>
     </g>
    </g>
   </g>
   <g id="line2d_11">
    <path clip-path="url(#pbc51ab9154)" d="M 47.8 167.126042 
L 125.754491 167.024745 
L 128.352974 166.823972 
L 130.431761 166.450711 
L 131.99085 165.939119 
L 133.030244 165.429164 
L 134.069637 164.735495 
L 135.10903 163.807167 
L 136.148423 162.585122 
L 137.187817 161.003174 
L 138.22721 158.990041 
L 139.266603 156.472602 
L 140.305996 153.38044 
L 141.345389 149.651607 
L 142.384783 145.239303 
L 143.943872 137.293337 
L 145.502962 127.80605 
L 147.581749 113.177426 
L 153.298411 70.795824 
L 154.857501 61.528715 
L 155.896894 56.361713 
L 156.936288 52.076395 
L 157.975681 48.695349 
L 159.015074 46.213525 
L 160.054467 44.607719 
L 160.574164 44.123513 
L 161.09386 43.846231 
L 161.613557 43.77188 
L 162.133254 43.896756 
L 162.65295 44.217493 
L 163.172647 44.731055 
L 163.692344 45.43466 
L 164.731737 47.401324 
L 165.77113 50.094354 
L 166.810523 53.482716 
L 167.849916 57.520244 
L 169.409006 64.640263 
L 171.487793 75.579763 
L 175.645366 98.332295 
L 177.204455 105.782731 
L 178.763545 112.16484 
L 180.322635 117.385839 
L 181.362028 120.245276 
L 182.401421 122.661539 
L 183.960511 125.605273 
L 185.519601 127.974347 
L 191.75596 136.618348 
L 193.834747 140.215367 
L 196.952926 146.208401 
L 200.590803 153.154694 
L 202.669589 156.662388 
L 203.189286 157.461465 
L 203.189286 157.461465 
" style="fill:none;stroke:#1f77b4;stroke-linecap:square;stroke-width:1.5;"/>
   </g>
   <g id="line2d_12">
    <path clip-path="url(#pbc51ab9154)" d="M 173.675892 173.29375 
L 173.675892 37.604172 
" style="fill:none;stroke:#808080;stroke-dasharray:1.5,2.475;stroke-dashoffset:0;stroke-width:1.5;"/>
   </g>
   <g id="patch_3">
    <path d="M 47.8 173.29375 
L 47.8 37.604172 
" style="fill:none;stroke:#000000;stroke-linecap:square;stroke-linejoin:miter;stroke-width:0.8;"/>
   </g>
   <g id="patch_4">
    <path d="M 47.8 173.29375 
L 203.189286 173.29375 
" style="fill:none;stroke:#000000;stroke-linecap:square;stroke-linejoin:miter;stroke-width:0.8;"/>
   </g>
  </g>
  <g id="axes_2">
   <g id="patch_5">
    <path d="M 263.614286 173.29375 
L 419.003571 173.29375 
L 419.003571 37.604172 
L 263.614286 37.604172 
z
" style="fill:#ffffff;"/>
   </g>
   <g id="matplotlib.axis_3">
    <g id="xtick_6">
     <g id="line2d_13">
      <g>
       <use style="stroke:#000000;stroke-width:0.8;" x="263.614286" xlink:href="#m53919fc3e5" y="173.29375"/>
      </g>
     </g>
     <g id="text_13">
      <!-- 1.0 -->
      <g transform="translate(255.662723 187.892188)scale(0.1 -0.1)">
       <use xlink:href="#DejaVuSans-31"/>
       <use x="63.623047" xlink:href="#DejaVuSans-2e"/>
       <use x="95.410156" xlink:href="#DejaVuSans-30"/>
      </g>
     </g>
    </g>
    <g id="xtick_7">
     <g id="line2d_14">
      <g>
       <use style="stroke:#000000;stroke-width:0.8;" x="302.461607" xlink:href="#m53919fc3e5" y="173.29375"/>
      </g>
     </g>
     <g id="text_14">
      <!-- 1.5 -->
      <g transform="translate(294.510045 187.892188)scale(0.1 -0.1)">
       <use xlink:href="#DejaVuSans-31"/>
       <use x="63.623047" xlink:href="#DejaVuSans-2e"/>
       <use x="95.410156" xlink:href="#DejaVuSans-35"/>
      </g>
     </g>
    </g>
    <g id="xtick_8">
     <g id="line2d_15">
      <g>
       <use style="stroke:#000000;stroke-width:0.8;" x="341.308929" xlink:href="#m53919fc3e5" y="173.29375"/>
      </g>
     </g>
     <g id="text_15">
      <!-- 2.0 -->
      <g transform="translate(333.357366 187.892188)scale(0.1 -0.1)">
       <use xlink:href="#DejaVuSans-32"/>
       <use x="63.623047" xlink:href="#DejaVuSans-2e"/>
       <use x="95.410156" xlink:href="#DejaVuSans-30"/>
      </g>
     </g>
    </g>
    <g id="xtick_9">
     <g id="line2d_16">
      <g>
       <use style="stroke:#000000;stroke-width:0.8;" x="380.15625" xlink:href="#m53919fc3e5" y="173.29375"/>
      </g>
     </g>
     <g id="text_16">
      <!-- 2.5 -->
      <g transform="translate(372.204687 187.892188)scale(0.1 -0.1)">
       <use xlink:href="#DejaVuSans-32"/>
       <use x="63.623047" xlink:href="#DejaVuSans-2e"/>
       <use x="95.410156" xlink:href="#DejaVuSans-35"/>
      </g>
     </g>
    </g>
    <g id="xtick_10">
     <g id="line2d_17">
      <g>
       <use style="stroke:#000000;stroke-width:0.8;" x="419.003571" xlink:href="#m53919fc3e5" y="173.29375"/>
      </g>
     </g>
     <g id="text_17">
      <!-- 3.0 -->
      <g transform="translate(411.052009 187.892188)scale(0.1 -0.1)">
       <use xlink:href="#DejaVuSans-33"/>
       <use x="63.623047" xlink:href="#DejaVuSans-2e"/>
       <use x="95.410156" xlink:href="#DejaVuSans-30"/>
      </g>
     </g>
    </g>
    <g id="text_18">
     <!-- log_division_depth -->
     <g transform="translate(294.998772 201.570312)scale(0.1 -0.1)">
      <defs>
       <path d="M 1159 525 
L 1159 -1331 
L 581 -1331 
L 581 3500 
L 1159 3500 
L 1159 2969 
Q 1341 3281 1617 3432 
Q 1894 3584 2278 3584 
Q 2916 3584 3314 3078 
Q 3713 2572 3713 1747 
Q 3713 922 3314 415 
Q 2916 -91 2278 -91 
Q 1894 -91 1617 61 
Q 1341 213 1159 525 
z
M 3116 1747 
Q 3116 2381 2855 2742 
Q 2594 3103 2138 3103 
Q 1681 3103 1420 2742 
Q 1159 2381 1159 1747 
Q 1159 1113 1420 752 
Q 1681 391 2138 391 
Q 2594 391 2855 752 
Q 3116 1113 3116 1747 
z
" id="DejaVuSans-70" transform="scale(0.015625)"/>
       <path d="M 3513 2113 
L 3513 0 
L 2938 0 
L 2938 2094 
Q 2938 2591 2744 2837 
Q 2550 3084 2163 3084 
Q 1697 3084 1428 2787 
Q 1159 2491 1159 1978 
L 1159 0 
L 581 0 
L 581 4863 
L 1159 4863 
L 1159 2956 
Q 1366 3272 1645 3428 
Q 1925 3584 2291 3584 
Q 2894 3584 3203 3211 
Q 3513 2838 3513 2113 
z
" id="DejaVuSans-68" transform="scale(0.015625)"/>
      </defs>
      <use xlink:href="#DejaVuSans-6c"/>
      <use x="27.783203" xlink:href="#DejaVuSans-6f"/>
      <use x="88.964844" xlink:href="#DejaVuSans-67"/>
      <use x="152.441406" xlink:href="#DejaVuSans-5f"/>
      <use x="202.441406" xlink:href="#DejaVuSans-64"/>
      <use x="265.917969" xlink:href="#DejaVuSans-69"/>
      <use x="293.701172" xlink:href="#DejaVuSans-76"/>
      <use x="352.880859" xlink:href="#DejaVuSans-69"/>
      <use x="380.664062" xlink:href="#DejaVuSans-73"/>
      <use x="432.763672" xlink:href="#DejaVuSans-69"/>
      <use x="460.546875" xlink:href="#DejaVuSans-6f"/>
      <use x="521.728516" xlink:href="#DejaVuSans-6e"/>
      <use x="585.107422" xlink:href="#DejaVuSans-5f"/>
      <use x="635.107422" xlink:href="#DejaVuSans-64"/>
      <use x="698.583984" xlink:href="#DejaVuSans-65"/>
      <use x="760.107422" xlink:href="#DejaVuSans-70"/>
      <use x="823.583984" xlink:href="#DejaVuSans-74"/>
      <use x="862.792969" xlink:href="#DejaVuSans-68"/>
     </g>
    </g>
   </g>
   <g id="matplotlib.axis_4">
    <g id="ytick_6">
     <g id="line2d_18">
      <g>
       <use style="stroke:#000000;stroke-width:0.8;" x="263.614286" xlink:href="#m4f1095ae60" y="167.146897"/>
      </g>
     </g>
     <g id="text_19">
      <!-- 0.0 -->
      <g transform="translate(240.711161 170.946116)scale(0.1 -0.1)">
       <use xlink:href="#DejaVuSans-30"/>
       <use x="63.623047" xlink:href="#DejaVuSans-2e"/>
       <use x="95.410156" xlink:href="#DejaVuSans-30"/>
      </g>
     </g>
    </g>
    <g id="ytick_7">
     <g id="line2d_19">
      <g>
       <use style="stroke:#000000;stroke-width:0.8;" x="263.614286" xlink:href="#m4f1095ae60" y="140.853518"/>
      </g>
     </g>
     <g id="text_20">
      <!-- 0.2 -->
      <g transform="translate(240.711161 144.652737)scale(0.1 -0.1)">
       <use xlink:href="#DejaVuSans-30"/>
       <use x="63.623047" xlink:href="#DejaVuSans-2e"/>
       <use x="95.410156" xlink:href="#DejaVuSans-32"/>
      </g>
     </g>
    </g>
    <g id="ytick_8">
     <g id="line2d_20">
      <g>
       <use style="stroke:#000000;stroke-width:0.8;" x="263.614286" xlink:href="#m4f1095ae60" y="114.56014"/>
      </g>
     </g>
     <g id="text_21">
      <!-- 0.4 -->
      <g transform="translate(240.711161 118.359359)scale(0.1 -0.1)">
       <defs>
        <path d="M 2419 4116 
L 825 1625 
L 2419 1625 
L 2419 4116 
z
M 2253 4666 
L 3047 4666 
L 3047 1625 
L 3713 1625 
L 3713 1100 
L 3047 1100 
L 3047 0 
L 2419 0 
L 2419 1100 
L 313 1100 
L 313 1709 
L 2253 4666 
z
" id="DejaVuSans-34" transform="scale(0.015625)"/>
       </defs>
       <use xlink:href="#DejaVuSans-30"/>
       <use x="63.623047" xlink:href="#DejaVuSans-2e"/>
       <use x="95.410156" xlink:href="#DejaVuSans-34"/>
      </g>
     </g>
    </g>
    <g id="ytick_9">
     <g id="line2d_21">
      <g>
       <use style="stroke:#000000;stroke-width:0.8;" x="263.614286" xlink:href="#m4f1095ae60" y="88.266761"/>
      </g>
     </g>
     <g id="text_22">
      <!-- 0.6 -->
      <g transform="translate(240.711161 92.06598)scale(0.1 -0.1)">
       <defs>
        <path d="M 2113 2584 
Q 1688 2584 1439 2293 
Q 1191 2003 1191 1497 
Q 1191 994 1439 701 
Q 1688 409 2113 409 
Q 2538 409 2786 701 
Q 3034 994 3034 1497 
Q 3034 2003 2786 2293 
Q 2538 2584 2113 2584 
z
M 3366 4563 
L 3366 3988 
Q 3128 4100 2886 4159 
Q 2644 4219 2406 4219 
Q 1781 4219 1451 3797 
Q 1122 3375 1075 2522 
Q 1259 2794 1537 2939 
Q 1816 3084 2150 3084 
Q 2853 3084 3261 2657 
Q 3669 2231 3669 1497 
Q 3669 778 3244 343 
Q 2819 -91 2113 -91 
Q 1303 -91 875 529 
Q 447 1150 447 2328 
Q 447 3434 972 4092 
Q 1497 4750 2381 4750 
Q 2619 4750 2861 4703 
Q 3103 4656 3366 4563 
z
" id="DejaVuSans-36" transform="scale(0.015625)"/>
       </defs>
       <use xlink:href="#DejaVuSans-30"/>
       <use x="63.623047" xlink:href="#DejaVuSans-2e"/>
       <use x="95.410156" xlink:href="#DejaVuSans-36"/>
      </g>
     </g>
    </g>
    <g id="ytick_10">
     <g id="line2d_22">
      <g>
       <use style="stroke:#000000;stroke-width:0.8;" x="263.614286" xlink:href="#m4f1095ae60" y="61.973383"/>
      </g>
     </g>
     <g id="text_23">
      <!-- 0.8 -->
      <g transform="translate(240.711161 65.772602)scale(0.1 -0.1)">
       <defs>
        <path d="M 2034 2216 
Q 1584 2216 1326 1975 
Q 1069 1734 1069 1313 
Q 1069 891 1326 650 
Q 1584 409 2034 409 
Q 2484 409 2743 651 
Q 3003 894 3003 1313 
Q 3003 1734 2745 1975 
Q 2488 2216 2034 2216 
z
M 1403 2484 
Q 997 2584 770 2862 
Q 544 3141 544 3541 
Q 544 4100 942 4425 
Q 1341 4750 2034 4750 
Q 2731 4750 3128 4425 
Q 3525 4100 3525 3541 
Q 3525 3141 3298 2862 
Q 3072 2584 2669 2484 
Q 3125 2378 3379 2068 
Q 3634 1759 3634 1313 
Q 3634 634 3220 271 
Q 2806 -91 2034 -91 
Q 1263 -91 848 271 
Q 434 634 434 1313 
Q 434 1759 690 2068 
Q 947 2378 1403 2484 
z
M 1172 3481 
Q 1172 3119 1398 2916 
Q 1625 2713 2034 2713 
Q 2441 2713 2670 2916 
Q 2900 3119 2900 3481 
Q 2900 3844 2670 4047 
Q 2441 4250 2034 4250 
Q 1625 4250 1398 4047 
Q 1172 3844 1172 3481 
z
" id="DejaVuSans-38" transform="scale(0.015625)"/>
       </defs>
       <use xlink:href="#DejaVuSans-30"/>
       <use x="63.623047" xlink:href="#DejaVuSans-2e"/>
       <use x="95.410156" xlink:href="#DejaVuSans-38"/>
      </g>
     </g>
    </g>
    <g id="text_24">
     <!-- Posterior -->
     <g transform="translate(234.631473 127.542711)rotate(-90)scale(0.1 -0.1)">
      <use xlink:href="#DejaVuSans-50"/>
      <use x="56.677734" xlink:href="#DejaVuSans-6f"/>
      <use x="117.859375" xlink:href="#DejaVuSans-73"/>
      <use x="169.958984" xlink:href="#DejaVuSans-74"/>
      <use x="209.167969" xlink:href="#DejaVuSans-65"/>
      <use x="270.691406" xlink:href="#DejaVuSans-72"/>
      <use x="311.804688" xlink:href="#DejaVuSans-69"/>
      <use x="339.587891" xlink:href="#DejaVuSans-6f"/>
      <use x="400.769531" xlink:href="#DejaVuSans-72"/>
     </g>
    </g>
   </g>
   <g id="line2d_23">
    <path clip-path="url(#pd01f868f50)" d="M 263.614286 167.126042 
L 274.008218 166.970067 
L 279.205184 166.691141 
L 282.84306 166.303846 
L 285.96124 165.762061 
L 288.559723 165.097373 
L 291.158206 164.171982 
L 293.236992 163.194008 
L 295.315779 161.95826 
L 297.394565 160.418124 
L 299.473352 158.524871 
L 301.552138 156.229435 
L 303.630925 153.484652 
L 305.709711 150.24792 
L 307.788497 146.484193 
L 309.867284 142.169166 
L 311.94607 137.292483 
L 314.024857 131.860746 
L 316.62334 124.332387 
L 319.221823 116.077715 
L 322.340002 105.433114 
L 332.214238 70.967221 
L 334.812721 63.10732 
L 336.891507 57.580955 
L 338.450597 53.965582 
L 340.009687 50.854777 
L 341.568777 48.28469 
L 342.60817 46.88506 
L 343.647563 45.742734 
L 344.686957 44.860651 
L 345.72635 44.239524 
L 346.765743 43.877839 
L 347.805136 43.77188 
L 348.844529 43.915791 
L 349.883923 44.30166 
L 350.923316 44.919636 
L 351.962709 45.758074 
L 353.521799 47.399639 
L 355.080889 49.456282 
L 356.639978 51.871464 
L 358.718765 55.54411 
L 361.317248 60.650292 
L 370.671787 79.60305 
L 372.750573 83.194443 
L 374.82936 86.373605 
L 376.908146 89.091258 
L 378.467236 90.808135 
L 380.026326 92.243036 
L 381.585416 93.3965 
L 383.144505 94.274814 
L 384.703595 94.889869 
L 386.262685 95.25901 
L 387.821775 95.40487 
L 389.380865 95.355164 
L 391.459651 95.041506 
L 394.058134 94.37922 
L 399.2551 92.928518 
L 401.333887 92.610201 
L 402.892977 92.571613 
L 404.452066 92.751021 
L 406.011156 93.185028 
L 407.570246 93.904057 
L 409.129336 94.931227 
L 410.688426 96.281452 
L 412.247516 97.960819 
L 413.806605 99.966301 
L 415.365695 102.28581 
L 417.444482 105.829983 
L 419.003571 108.78809 
L 419.003571 108.78809 
" style="fill:none;stroke:#1f77b4;stroke-linecap:square;stroke-width:1.5;"/>
   </g>
   <g id="line2d_24">
    <path clip-path="url(#pd01f868f50)" d="M 341.308929 173.29375 
L 341.308929 37.604172 
" style="fill:none;stroke:#808080;stroke-dasharray:1.5,2.475;stroke-dashoffset:0;stroke-width:1.5;"/>
   </g>
   <g id="patch_6">
    <path d="M 263.614286 173.29375 
L 263.614286 37.604172 
" style="fill:none;stroke:#000000;stroke-linecap:square;stroke-linejoin:miter;stroke-width:0.8;"/>
   </g>
   <g id="patch_7">
    <path d="M 263.614286 173.29375 
L 419.003571 173.29375 
" style="fill:none;stroke:#000000;stroke-linecap:square;stroke-linejoin:miter;stroke-width:0.8;"/>
   </g>
  </g>
  <g id="axes_3">
   <g id="patch_8">
    <path d="M 479.428571 173.29375 
L 634.817857 173.29375 
L 634.817857 37.604172 
L 479.428571 37.604172 
z
" style="fill:#ffffff;"/>
   </g>
   <g id="matplotlib.axis_5">
    <g id="xtick_11">
     <g id="line2d_25">
      <g>
       <use style="stroke:#000000;stroke-width:0.8;" x="479.428571" xlink:href="#m53919fc3e5" y="173.29375"/>
      </g>
     </g>
     <g id="text_25">
      <!-- 0.00 -->
      <g transform="translate(468.295759 187.892188)scale(0.1 -0.1)">
       <use xlink:href="#DejaVuSans-30"/>
       <use x="63.623047" xlink:href="#DejaVuSans-2e"/>
       <use x="95.410156" xlink:href="#DejaVuSans-30"/>
       <use x="159.033203" xlink:href="#DejaVuSans-30"/>
      </g>
     </g>
    </g>
    <g id="xtick_12">
     <g id="line2d_26">
      <g>
       <use style="stroke:#000000;stroke-width:0.8;" x="511.801339" xlink:href="#m53919fc3e5" y="173.29375"/>
      </g>
     </g>
     <g id="text_26">
      <!-- 0.25 -->
      <g transform="translate(500.668527 187.892188)scale(0.1 -0.1)">
       <use xlink:href="#DejaVuSans-30"/>
       <use x="63.623047" xlink:href="#DejaVuSans-2e"/>
       <use x="95.410156" xlink:href="#DejaVuSans-32"/>
       <use x="159.033203" xlink:href="#DejaVuSans-35"/>
      </g>
     </g>
    </g>
    <g id="xtick_13">
     <g id="line2d_27">
      <g>
       <use style="stroke:#000000;stroke-width:0.8;" x="544.174107" xlink:href="#m53919fc3e5" y="173.29375"/>
      </g>
     </g>
     <g id="text_27">
      <!-- 0.50 -->
      <g transform="translate(533.041295 187.892188)scale(0.1 -0.1)">
       <use xlink:href="#DejaVuSans-30"/>
       <use x="63.623047" xlink:href="#DejaVuSans-2e"/>
       <use x="95.410156" xlink:href="#DejaVuSans-35"/>
       <use x="159.033203" xlink:href="#DejaVuSans-30"/>
      </g>
     </g>
    </g>
    <g id="xtick_14">
     <g id="line2d_28">
      <g>
       <use style="stroke:#000000;stroke-width:0.8;" x="576.546875" xlink:href="#m53919fc3e5" y="173.29375"/>
      </g>
     </g>
     <g id="text_28">
      <!-- 0.75 -->
      <g transform="translate(565.414062 187.892188)scale(0.1 -0.1)">
       <defs>
        <path d="M 525 4666 
L 3525 4666 
L 3525 4397 
L 1831 0 
L 1172 0 
L 2766 4134 
L 525 4134 
L 525 4666 
z
" id="DejaVuSans-37" transform="scale(0.015625)"/>
       </defs>
       <use xlink:href="#DejaVuSans-30"/>
       <use x="63.623047" xlink:href="#DejaVuSans-2e"/>
       <use x="95.410156" xlink:href="#DejaVuSans-37"/>
       <use x="159.033203" xlink:href="#DejaVuSans-35"/>
      </g>
     </g>
    </g>
    <g id="xtick_15">
     <g id="line2d_29">
      <g>
       <use style="stroke:#000000;stroke-width:0.8;" x="608.919643" xlink:href="#m53919fc3e5" y="173.29375"/>
      </g>
     </g>
     <g id="text_29">
      <!-- 1.00 -->
      <g transform="translate(597.78683 187.892188)scale(0.1 -0.1)">
       <use xlink:href="#DejaVuSans-31"/>
       <use x="63.623047" xlink:href="#DejaVuSans-2e"/>
       <use x="95.410156" xlink:href="#DejaVuSans-30"/>
       <use x="159.033203" xlink:href="#DejaVuSans-30"/>
      </g>
     </g>
    </g>
    <g id="text_30">
     <!-- log_initial_spheroid_radius -->
     <g transform="translate(491.205246 201.570312)scale(0.1 -0.1)">
      <defs>
       <path d="M 544 1381 
L 544 3500 
L 1119 3500 
L 1119 1403 
Q 1119 906 1312 657 
Q 1506 409 1894 409 
Q 2359 409 2629 706 
Q 2900 1003 2900 1516 
L 2900 3500 
L 3475 3500 
L 3475 0 
L 2900 0 
L 2900 538 
Q 2691 219 2414 64 
Q 2138 -91 1772 -91 
Q 1169 -91 856 284 
Q 544 659 544 1381 
z
M 1991 3584 
L 1991 3584 
z
" id="DejaVuSans-75" transform="scale(0.015625)"/>
      </defs>
      <use xlink:href="#DejaVuSans-6c"/>
      <use x="27.783203" xlink:href="#DejaVuSans-6f"/>
      <use x="88.964844" xlink:href="#DejaVuSans-67"/>
      <use x="152.441406" xlink:href="#DejaVuSans-5f"/>
      <use x="202.441406" xlink:href="#DejaVuSans-69"/>
      <use x="230.224609" xlink:href="#DejaVuSans-6e"/>
      <use x="293.603516" xlink:href="#DejaVuSans-69"/>
      <use x="321.386719" xlink:href="#DejaVuSans-74"/>
      <use x="360.595703" xlink:href="#DejaVuSans-69"/>
      <use x="388.378906" xlink:href="#DejaVuSans-61"/>
      <use x="449.658203" xlink:href="#DejaVuSans-6c"/>
      <use x="477.441406" xlink:href="#DejaVuSans-5f"/>
      <use x="527.441406" xlink:href="#DejaVuSans-73"/>
      <use x="579.541016" xlink:href="#DejaVuSans-70"/>
      <use x="643.017578" xlink:href="#DejaVuSans-68"/>
      <use x="706.396484" xlink:href="#DejaVuSans-65"/>
      <use x="767.919922" xlink:href="#DejaVuSans-72"/>
      <use x="806.783203" xlink:href="#DejaVuSans-6f"/>
      <use x="867.964844" xlink:href="#DejaVuSans-69"/>
      <use x="895.748047" xlink:href="#DejaVuSans-64"/>
      <use x="959.224609" xlink:href="#DejaVuSans-5f"/>
      <use x="1009.224609" xlink:href="#DejaVuSans-72"/>
      <use x="1050.337891" xlink:href="#DejaVuSans-61"/>
      <use x="1111.617188" xlink:href="#DejaVuSans-64"/>
      <use x="1175.09375" xlink:href="#DejaVuSans-69"/>
      <use x="1202.876953" xlink:href="#DejaVuSans-75"/>
      <use x="1266.255859" xlink:href="#DejaVuSans-73"/>
     </g>
    </g>
   </g>
   <g id="matplotlib.axis_6">
    <g id="ytick_11">
     <g id="line2d_30">
      <g>
       <use style="stroke:#000000;stroke-width:0.8;" x="479.428571" xlink:href="#m4f1095ae60" y="167.126042"/>
      </g>
     </g>
     <g id="text_31">
      <!-- 0.0 -->
      <g transform="translate(456.525446 170.925261)scale(0.1 -0.1)">
       <use xlink:href="#DejaVuSans-30"/>
       <use x="63.623047" xlink:href="#DejaVuSans-2e"/>
       <use x="95.410156" xlink:href="#DejaVuSans-30"/>
      </g>
     </g>
    </g>
    <g id="ytick_12">
     <g id="line2d_31">
      <g>
       <use style="stroke:#000000;stroke-width:0.8;" x="479.428571" xlink:href="#m4f1095ae60" y="138.082366"/>
      </g>
     </g>
     <g id="text_32">
      <!-- 0.5 -->
      <g transform="translate(456.525446 141.881585)scale(0.1 -0.1)">
       <use xlink:href="#DejaVuSans-30"/>
       <use x="63.623047" xlink:href="#DejaVuSans-2e"/>
       <use x="95.410156" xlink:href="#DejaVuSans-35"/>
      </g>
     </g>
    </g>
    <g id="ytick_13">
     <g id="line2d_32">
      <g>
       <use style="stroke:#000000;stroke-width:0.8;" x="479.428571" xlink:href="#m4f1095ae60" y="109.03869"/>
      </g>
     </g>
     <g id="text_33">
      <!-- 1.0 -->
      <g transform="translate(456.525446 112.837908)scale(0.1 -0.1)">
       <use xlink:href="#DejaVuSans-31"/>
       <use x="63.623047" xlink:href="#DejaVuSans-2e"/>
       <use x="95.410156" xlink:href="#DejaVuSans-30"/>
      </g>
     </g>
    </g>
    <g id="ytick_14">
     <g id="line2d_33">
      <g>
       <use style="stroke:#000000;stroke-width:0.8;" x="479.428571" xlink:href="#m4f1095ae60" y="79.995014"/>
      </g>
     </g>
     <g id="text_34">
      <!-- 1.5 -->
      <g transform="translate(456.525446 83.794232)scale(0.1 -0.1)">
       <use xlink:href="#DejaVuSans-31"/>
       <use x="63.623047" xlink:href="#DejaVuSans-2e"/>
       <use x="95.410156" xlink:href="#DejaVuSans-35"/>
      </g>
     </g>
    </g>
    <g id="ytick_15">
     <g id="line2d_34">
      <g>
       <use style="stroke:#000000;stroke-width:0.8;" x="479.428571" xlink:href="#m4f1095ae60" y="50.951338"/>
      </g>
     </g>
     <g id="text_35">
      <!-- 2.0 -->
      <g transform="translate(456.525446 54.750556)scale(0.1 -0.1)">
       <use xlink:href="#DejaVuSans-32"/>
       <use x="63.623047" xlink:href="#DejaVuSans-2e"/>
       <use x="95.410156" xlink:href="#DejaVuSans-30"/>
      </g>
     </g>
    </g>
    <g id="text_36">
     <!-- Posterior -->
     <g transform="translate(450.445759 127.542711)rotate(-90)scale(0.1 -0.1)">
      <use xlink:href="#DejaVuSans-50"/>
      <use x="56.677734" xlink:href="#DejaVuSans-6f"/>
      <use x="117.859375" xlink:href="#DejaVuSans-73"/>
      <use x="169.958984" xlink:href="#DejaVuSans-74"/>
      <use x="209.167969" xlink:href="#DejaVuSans-65"/>
      <use x="270.691406" xlink:href="#DejaVuSans-72"/>
      <use x="311.804688" xlink:href="#DejaVuSans-69"/>
      <use x="339.587891" xlink:href="#DejaVuSans-6f"/>
      <use x="400.769531" xlink:href="#DejaVuSans-72"/>
     </g>
    </g>
   </g>
   <g id="line2d_35">
    <path clip-path="url(#p15b5197a70)" d="M 479.428571 167.126042 
L 536.075502 167.017395 
L 540.233075 166.762123 
L 542.831558 166.396796 
L 544.910344 165.89626 
L 546.469434 165.341485 
L 548.028524 164.579789 
L 549.587613 163.554089 
L 551.146703 162.199918 
L 552.705793 160.447764 
L 554.264883 158.226819 
L 555.823973 155.470151 
L 557.383063 152.12112 
L 558.942152 148.14057 
L 560.501242 143.514095 
L 562.060332 138.258432 
L 564.139118 130.368041 
L 566.737602 119.424146 
L 572.973961 92.368575 
L 575.052747 84.510437 
L 576.611837 79.329652 
L 578.170927 74.833906 
L 579.730017 71.040345 
L 581.289107 67.922721 
L 582.848196 65.418035 
L 584.407286 63.436247 
L 585.966376 61.871502 
L 587.525466 60.613287 
L 589.604252 59.231884 
L 596.360308 55.016529 
L 598.958791 53.030626 
L 602.076971 50.35152 
L 606.75424 46.289669 
L 608.31333 45.169813 
L 609.87242 44.314035 
L 610.911813 43.943239 
L 611.951206 43.77188 
L 612.9906 43.834844 
L 614.029993 44.166735 
L 615.069386 44.800759 
L 616.108779 45.767535 
L 617.148172 47.093871 
L 618.187566 48.801584 
L 619.226959 50.906396 
L 620.266352 53.416985 
L 621.825442 57.943382 
L 623.384532 63.350607 
L 624.943622 69.563715 
L 627.022408 78.897195 
L 629.620891 91.722876 
L 634.817857 117.964874 
L 634.817857 117.964874 
" style="fill:none;stroke:#1f77b4;stroke-linecap:square;stroke-width:1.5;"/>
   </g>
   <g id="line2d_36">
    <path clip-path="url(#p15b5197a70)" d="M 619.172907 173.29375 
L 619.172907 37.604172 
" style="fill:none;stroke:#808080;stroke-dasharray:1.5,2.475;stroke-dashoffset:0;stroke-width:1.5;"/>
   </g>
   <g id="patch_9">
    <path d="M 479.428571 173.29375 
L 479.428571 37.604172 
" style="fill:none;stroke:#000000;stroke-linecap:square;stroke-linejoin:miter;stroke-width:0.8;"/>
   </g>
   <g id="patch_10">
    <path d="M 479.428571 173.29375 
L 634.817857 173.29375 
" style="fill:none;stroke:#000000;stroke-linecap:square;stroke-linejoin:miter;stroke-width:0.8;"/>
   </g>
  </g>
  <g id="axes_4">
   <g id="patch_11">
    <path d="M 695.242857 173.29375 
L 850.632143 173.29375 
L 850.632143 37.604172 
L 695.242857 37.604172 
z
" style="fill:#ffffff;"/>
   </g>
   <g id="matplotlib.axis_7">
    <g id="xtick_16">
     <g id="line2d_37">
      <g>
       <use style="stroke:#000000;stroke-width:0.8;" x="695.242857" xlink:href="#m53919fc3e5" y="173.29375"/>
      </g>
     </g>
     <g id="text_37">
      <!-- −5 -->
      <g transform="translate(687.871763 187.892188)scale(0.1 -0.1)">
       <use xlink:href="#DejaVuSans-2212"/>
       <use x="83.789062" xlink:href="#DejaVuSans-35"/>
      </g>
     </g>
    </g>
    <g id="xtick_17">
     <g id="line2d_38">
      <g>
       <use style="stroke:#000000;stroke-width:0.8;" x="726.320714" xlink:href="#m53919fc3e5" y="173.29375"/>
      </g>
     </g>
     <g id="text_38">
      <!-- −4 -->
      <g transform="translate(718.949621 187.892188)scale(0.1 -0.1)">
       <use xlink:href="#DejaVuSans-2212"/>
       <use x="83.789062" xlink:href="#DejaVuSans-34"/>
      </g>
     </g>
    </g>
    <g id="xtick_18">
     <g id="line2d_39">
      <g>
       <use style="stroke:#000000;stroke-width:0.8;" x="757.398571" xlink:href="#m53919fc3e5" y="173.29375"/>
      </g>
     </g>
     <g id="text_39">
      <!-- −3 -->
      <g transform="translate(750.027478 187.892188)scale(0.1 -0.1)">
       <use xlink:href="#DejaVuSans-2212"/>
       <use x="83.789062" xlink:href="#DejaVuSans-33"/>
      </g>
     </g>
    </g>
    <g id="xtick_19">
     <g id="line2d_40">
      <g>
       <use style="stroke:#000000;stroke-width:0.8;" x="788.476429" xlink:href="#m53919fc3e5" y="173.29375"/>
      </g>
     </g>
     <g id="text_40">
      <!-- −2 -->
      <g transform="translate(781.105335 187.892188)scale(0.1 -0.1)">
       <use xlink:href="#DejaVuSans-2212"/>
       <use x="83.789062" xlink:href="#DejaVuSans-32"/>
      </g>
     </g>
    </g>
    <g id="xtick_20">
     <g id="line2d_41">
      <g>
       <use style="stroke:#000000;stroke-width:0.8;" x="819.554286" xlink:href="#m53919fc3e5" y="173.29375"/>
      </g>
     </g>
     <g id="text_41">
      <!-- −1 -->
      <g transform="translate(812.183192 187.892188)scale(0.1 -0.1)">
       <use xlink:href="#DejaVuSans-2212"/>
       <use x="83.789062" xlink:href="#DejaVuSans-31"/>
      </g>
     </g>
    </g>
    <g id="xtick_21">
     <g id="line2d_42">
      <g>
       <use style="stroke:#000000;stroke-width:0.8;" x="850.632143" xlink:href="#m53919fc3e5" y="173.29375"/>
      </g>
     </g>
     <g id="text_42">
      <!-- 0 -->
      <g transform="translate(847.450893 187.892188)scale(0.1 -0.1)">
       <use xlink:href="#DejaVuSans-30"/>
      </g>
     </g>
    </g>
    <g id="text_43">
     <!-- log_initial_quiescent_cell_fraction -->
     <g transform="translate(689.3875 201.570312)scale(0.1 -0.1)">
      <defs>
       <path d="M 947 1747 
Q 947 1113 1208 752 
Q 1469 391 1925 391 
Q 2381 391 2643 752 
Q 2906 1113 2906 1747 
Q 2906 2381 2643 2742 
Q 2381 3103 1925 3103 
Q 1469 3103 1208 2742 
Q 947 2381 947 1747 
z
M 2906 525 
Q 2725 213 2448 61 
Q 2172 -91 1784 -91 
Q 1150 -91 751 415 
Q 353 922 353 1747 
Q 353 2572 751 3078 
Q 1150 3584 1784 3584 
Q 2172 3584 2448 3432 
Q 2725 3281 2906 2969 
L 2906 3500 
L 3481 3500 
L 3481 -1331 
L 2906 -1331 
L 2906 525 
z
" id="DejaVuSans-71" transform="scale(0.015625)"/>
       <path d="M 3122 3366 
L 3122 2828 
Q 2878 2963 2633 3030 
Q 2388 3097 2138 3097 
Q 1578 3097 1268 2742 
Q 959 2388 959 1747 
Q 959 1106 1268 751 
Q 1578 397 2138 397 
Q 2388 397 2633 464 
Q 2878 531 3122 666 
L 3122 134 
Q 2881 22 2623 -34 
Q 2366 -91 2075 -91 
Q 1284 -91 818 406 
Q 353 903 353 1747 
Q 353 2603 823 3093 
Q 1294 3584 2113 3584 
Q 2378 3584 2631 3529 
Q 2884 3475 3122 3366 
z
" id="DejaVuSans-63" transform="scale(0.015625)"/>
       <path d="M 2375 4863 
L 2375 4384 
L 1825 4384 
Q 1516 4384 1395 4259 
Q 1275 4134 1275 3809 
L 1275 3500 
L 2222 3500 
L 2222 3053 
L 1275 3053 
L 1275 0 
L 697 0 
L 697 3053 
L 147 3053 
L 147 3500 
L 697 3500 
L 697 3744 
Q 697 4328 969 4595 
Q 1241 4863 1831 4863 
L 2375 4863 
z
" id="DejaVuSans-66" transform="scale(0.015625)"/>
      </defs>
      <use xlink:href="#DejaVuSans-6c"/>
      <use x="27.783203" xlink:href="#DejaVuSans-6f"/>
      <use x="88.964844" xlink:href="#DejaVuSans-67"/>
      <use x="152.441406" xlink:href="#DejaVuSans-5f"/>
      <use x="202.441406" xlink:href="#DejaVuSans-69"/>
      <use x="230.224609" xlink:href="#DejaVuSans-6e"/>
      <use x="293.603516" xlink:href="#DejaVuSans-69"/>
      <use x="321.386719" xlink:href="#DejaVuSans-74"/>
      <use x="360.595703" xlink:href="#DejaVuSans-69"/>
      <use x="388.378906" xlink:href="#DejaVuSans-61"/>
      <use x="449.658203" xlink:href="#DejaVuSans-6c"/>
      <use x="477.441406" xlink:href="#DejaVuSans-5f"/>
      <use x="527.441406" xlink:href="#DejaVuSans-71"/>
      <use x="590.917969" xlink:href="#DejaVuSans-75"/>
      <use x="654.296875" xlink:href="#DejaVuSans-69"/>
      <use x="682.080078" xlink:href="#DejaVuSans-65"/>
      <use x="743.603516" xlink:href="#DejaVuSans-73"/>
      <use x="795.703125" xlink:href="#DejaVuSans-63"/>
      <use x="850.683594" xlink:href="#DejaVuSans-65"/>
      <use x="912.207031" xlink:href="#DejaVuSans-6e"/>
      <use x="975.585938" xlink:href="#DejaVuSans-74"/>
      <use x="1014.794922" xlink:href="#DejaVuSans-5f"/>
      <use x="1064.794922" xlink:href="#DejaVuSans-63"/>
      <use x="1119.775391" xlink:href="#DejaVuSans-65"/>
      <use x="1181.298828" xlink:href="#DejaVuSans-6c"/>
      <use x="1209.082031" xlink:href="#DejaVuSans-6c"/>
      <use x="1236.865234" xlink:href="#DejaVuSans-5f"/>
      <use x="1286.865234" xlink:href="#DejaVuSans-66"/>
      <use x="1322.070312" xlink:href="#DejaVuSans-72"/>
      <use x="1363.183594" xlink:href="#DejaVuSans-61"/>
      <use x="1424.462891" xlink:href="#DejaVuSans-63"/>
      <use x="1479.443359" xlink:href="#DejaVuSans-74"/>
      <use x="1518.652344" xlink:href="#DejaVuSans-69"/>
      <use x="1546.435547" xlink:href="#DejaVuSans-6f"/>
      <use x="1607.617188" xlink:href="#DejaVuSans-6e"/>
     </g>
    </g>
   </g>
   <g id="matplotlib.axis_8">
    <g id="ytick_16">
     <g id="line2d_43">
      <g>
       <use style="stroke:#000000;stroke-width:0.8;" x="695.242857" xlink:href="#m4f1095ae60" y="140.976063"/>
      </g>
     </g>
     <g id="text_44">
      <!-- 0.10 -->
      <g transform="translate(665.977232 144.775282)scale(0.1 -0.1)">
       <use xlink:href="#DejaVuSans-30"/>
       <use x="63.623047" xlink:href="#DejaVuSans-2e"/>
       <use x="95.410156" xlink:href="#DejaVuSans-31"/>
       <use x="159.033203" xlink:href="#DejaVuSans-30"/>
      </g>
     </g>
    </g>
    <g id="ytick_17">
     <g id="line2d_44">
      <g>
       <use style="stroke:#000000;stroke-width:0.8;" x="695.242857" xlink:href="#m4f1095ae60" y="102.33025"/>
      </g>
     </g>
     <g id="text_45">
      <!-- 0.15 -->
      <g transform="translate(665.977232 106.129469)scale(0.1 -0.1)">
       <use xlink:href="#DejaVuSans-30"/>
       <use x="63.623047" xlink:href="#DejaVuSans-2e"/>
       <use x="95.410156" xlink:href="#DejaVuSans-31"/>
       <use x="159.033203" xlink:href="#DejaVuSans-35"/>
      </g>
     </g>
    </g>
    <g id="ytick_18">
     <g id="line2d_45">
      <g>
       <use style="stroke:#000000;stroke-width:0.8;" x="695.242857" xlink:href="#m4f1095ae60" y="63.684437"/>
      </g>
     </g>
     <g id="text_46">
      <!-- 0.20 -->
      <g transform="translate(665.977232 67.483655)scale(0.1 -0.1)">
       <use xlink:href="#DejaVuSans-30"/>
       <use x="63.623047" xlink:href="#DejaVuSans-2e"/>
       <use x="95.410156" xlink:href="#DejaVuSans-32"/>
       <use x="159.033203" xlink:href="#DejaVuSans-30"/>
      </g>
     </g>
    </g>
    <g id="text_47">
     <!-- Posterior -->
     <g transform="translate(659.897545 127.542711)rotate(-90)scale(0.1 -0.1)">
      <use xlink:href="#DejaVuSans-50"/>
      <use x="56.677734" xlink:href="#DejaVuSans-6f"/>
      <use x="117.859375" xlink:href="#DejaVuSans-73"/>
      <use x="169.958984" xlink:href="#DejaVuSans-74"/>
      <use x="209.167969" xlink:href="#DejaVuSans-65"/>
      <use x="270.691406" xlink:href="#DejaVuSans-72"/>
      <use x="311.804688" xlink:href="#DejaVuSans-69"/>
      <use x="339.587891" xlink:href="#DejaVuSans-6f"/>
      <use x="400.769531" xlink:href="#DejaVuSans-72"/>
     </g>
    </g>
   </g>
   <g id="line2d_46">
    <path clip-path="url(#pdc266c3834)" d="M 695.242857 107.175327 
L 698.880733 97.208891 
L 701.998913 89.259399 
L 705.117093 81.964022 
L 707.715576 76.432788 
L 710.314059 71.42155 
L 712.912542 66.933243 
L 715.511025 62.955973 
L 718.109508 59.465514 
L 720.707991 56.428489 
L 723.306474 53.805959 
L 725.904957 51.557154 
L 728.50344 49.643027 
L 731.101923 48.029377 
L 733.700406 46.68928 
L 736.298889 45.60469 
L 738.897372 44.767093 
L 741.495855 44.17722 
L 744.094338 43.84389 
L 746.173125 43.77188 
L 748.251911 43.883163 
L 750.330698 44.187991 
L 752.409484 44.696404 
L 754.48827 45.417362 
L 756.567057 46.357962 
L 758.645843 47.522767 
L 760.72463 48.913304 
L 762.803416 50.527718 
L 765.401899 52.852027 
L 768.000382 55.499331 
L 770.598865 58.443662 
L 773.717045 62.32272 
L 777.354921 67.241753 
L 781.512494 73.243948 
L 788.26855 83.45299 
L 798.142785 98.347795 
L 804.379145 107.31885 
L 810.095807 115.157903 
L 816.332167 123.332427 
L 824.647312 133.821505 
L 839.718514 152.763763 
L 848.03366 163.65877 
L 850.632143 167.126042 
L 850.632143 167.126042 
" style="fill:none;stroke:#1f77b4;stroke-linecap:square;stroke-width:1.5;"/>
   </g>
   <g id="line2d_47">
    <path clip-path="url(#pdc266c3834)" d="M 846.749315 173.29375 
L 846.749315 37.604172 
" style="fill:none;stroke:#808080;stroke-dasharray:1.5,2.475;stroke-dashoffset:0;stroke-width:1.5;"/>
   </g>
   <g id="patch_12">
    <path d="M 695.242857 173.29375 
L 695.242857 37.604172 
" style="fill:none;stroke:#000000;stroke-linecap:square;stroke-linejoin:miter;stroke-width:0.8;"/>
   </g>
   <g id="patch_13">
    <path d="M 695.242857 173.29375 
L 850.632143 173.29375 
" style="fill:none;stroke:#000000;stroke-linecap:square;stroke-linejoin:miter;stroke-width:0.8;"/>
   </g>
  </g>
  <g id="axes_5">
   <g id="patch_14">
    <path d="M 911.057143 173.29375 
L 1066.446429 173.29375 
L 1066.446429 37.604172 
L 911.057143 37.604172 
z
" style="fill:#ffffff;"/>
   </g>
   <g id="matplotlib.axis_9">
    <g id="xtick_22">
     <g id="line2d_48">
      <g>
       <use style="stroke:#000000;stroke-width:0.8;" x="911.057143" xlink:href="#m53919fc3e5" y="173.29375"/>
      </g>
     </g>
     <g id="text_48">
      <!-- −5 -->
      <g transform="translate(903.686049 187.892188)scale(0.1 -0.1)">
       <use xlink:href="#DejaVuSans-2212"/>
       <use x="83.789062" xlink:href="#DejaVuSans-35"/>
      </g>
     </g>
    </g>
    <g id="xtick_23">
     <g id="line2d_49">
      <g>
       <use style="stroke:#000000;stroke-width:0.8;" x="942.135" xlink:href="#m53919fc3e5" y="173.29375"/>
      </g>
     </g>
     <g id="text_49">
      <!-- −4 -->
      <g transform="translate(934.763906 187.892188)scale(0.1 -0.1)">
       <use xlink:href="#DejaVuSans-2212"/>
       <use x="83.789062" xlink:href="#DejaVuSans-34"/>
      </g>
     </g>
    </g>
    <g id="xtick_24">
     <g id="line2d_50">
      <g>
       <use style="stroke:#000000;stroke-width:0.8;" x="973.212857" xlink:href="#m53919fc3e5" y="173.29375"/>
      </g>
     </g>
     <g id="text_50">
      <!-- −3 -->
      <g transform="translate(965.841763 187.892188)scale(0.1 -0.1)">
       <use xlink:href="#DejaVuSans-2212"/>
       <use x="83.789062" xlink:href="#DejaVuSans-33"/>
      </g>
     </g>
    </g>
    <g id="xtick_25">
     <g id="line2d_51">
      <g>
       <use style="stroke:#000000;stroke-width:0.8;" x="1004.290714" xlink:href="#m53919fc3e5" y="173.29375"/>
      </g>
     </g>
     <g id="text_51">
      <!-- −2 -->
      <g transform="translate(996.919621 187.892188)scale(0.1 -0.1)">
       <use xlink:href="#DejaVuSans-2212"/>
       <use x="83.789062" xlink:href="#DejaVuSans-32"/>
      </g>
     </g>
    </g>
    <g id="xtick_26">
     <g id="line2d_52">
      <g>
       <use style="stroke:#000000;stroke-width:0.8;" x="1035.368571" xlink:href="#m53919fc3e5" y="173.29375"/>
      </g>
     </g>
     <g id="text_52">
      <!-- −1 -->
      <g transform="translate(1027.997478 187.892188)scale(0.1 -0.1)">
       <use xlink:href="#DejaVuSans-2212"/>
       <use x="83.789062" xlink:href="#DejaVuSans-31"/>
      </g>
     </g>
    </g>
    <g id="xtick_27">
     <g id="line2d_53">
      <g>
       <use style="stroke:#000000;stroke-width:0.8;" x="1066.446429" xlink:href="#m53919fc3e5" y="173.29375"/>
      </g>
     </g>
     <g id="text_53">
      <!-- 0 -->
      <g transform="translate(1063.265179 187.892188)scale(0.1 -0.1)">
       <use xlink:href="#DejaVuSans-30"/>
      </g>
     </g>
    </g>
    <g id="text_54">
     <!-- log_ecm_production_rate -->
     <g transform="translate(925.930692 201.570312)scale(0.1 -0.1)">
      <defs>
       <path d="M 3328 2828 
Q 3544 3216 3844 3400 
Q 4144 3584 4550 3584 
Q 5097 3584 5394 3201 
Q 5691 2819 5691 2113 
L 5691 0 
L 5113 0 
L 5113 2094 
Q 5113 2597 4934 2840 
Q 4756 3084 4391 3084 
Q 3944 3084 3684 2787 
Q 3425 2491 3425 1978 
L 3425 0 
L 2847 0 
L 2847 2094 
Q 2847 2600 2669 2842 
Q 2491 3084 2119 3084 
Q 1678 3084 1418 2786 
Q 1159 2488 1159 1978 
L 1159 0 
L 581 0 
L 581 3500 
L 1159 3500 
L 1159 2956 
Q 1356 3278 1631 3431 
Q 1906 3584 2284 3584 
Q 2666 3584 2933 3390 
Q 3200 3197 3328 2828 
z
" id="DejaVuSans-6d" transform="scale(0.015625)"/>
      </defs>
      <use xlink:href="#DejaVuSans-6c"/>
      <use x="27.783203" xlink:href="#DejaVuSans-6f"/>
      <use x="88.964844" xlink:href="#DejaVuSans-67"/>
      <use x="152.441406" xlink:href="#DejaVuSans-5f"/>
      <use x="202.441406" xlink:href="#DejaVuSans-65"/>
      <use x="263.964844" xlink:href="#DejaVuSans-63"/>
      <use x="318.945312" xlink:href="#DejaVuSans-6d"/>
      <use x="416.357422" xlink:href="#DejaVuSans-5f"/>
      <use x="466.357422" xlink:href="#DejaVuSans-70"/>
      <use x="529.833984" xlink:href="#DejaVuSans-72"/>
      <use x="568.697266" xlink:href="#DejaVuSans-6f"/>
      <use x="629.878906" xlink:href="#DejaVuSans-64"/>
      <use x="693.355469" xlink:href="#DejaVuSans-75"/>
      <use x="756.734375" xlink:href="#DejaVuSans-63"/>
      <use x="811.714844" xlink:href="#DejaVuSans-74"/>
      <use x="850.923828" xlink:href="#DejaVuSans-69"/>
      <use x="878.707031" xlink:href="#DejaVuSans-6f"/>
      <use x="939.888672" xlink:href="#DejaVuSans-6e"/>
      <use x="1003.267578" xlink:href="#DejaVuSans-5f"/>
      <use x="1053.267578" xlink:href="#DejaVuSans-72"/>
      <use x="1094.380859" xlink:href="#DejaVuSans-61"/>
      <use x="1155.660156" xlink:href="#DejaVuSans-74"/>
      <use x="1194.869141" xlink:href="#DejaVuSans-65"/>
     </g>
    </g>
   </g>
   <g id="matplotlib.axis_10">
    <g id="ytick_19">
     <g id="line2d_54">
      <g>
       <use style="stroke:#000000;stroke-width:0.8;" x="911.057143" xlink:href="#m4f1095ae60" y="139.723121"/>
      </g>
     </g>
     <g id="text_55">
      <!-- 0.1 -->
      <g transform="translate(888.154018 143.52234)scale(0.1 -0.1)">
       <use xlink:href="#DejaVuSans-30"/>
       <use x="63.623047" xlink:href="#DejaVuSans-2e"/>
       <use x="95.410156" xlink:href="#DejaVuSans-31"/>
      </g>
     </g>
    </g>
    <g id="ytick_20">
     <g id="line2d_55">
      <g>
       <use style="stroke:#000000;stroke-width:0.8;" x="911.057143" xlink:href="#m4f1095ae60" y="105.959662"/>
      </g>
     </g>
     <g id="text_56">
      <!-- 0.2 -->
      <g transform="translate(888.154018 109.758881)scale(0.1 -0.1)">
       <use xlink:href="#DejaVuSans-30"/>
       <use x="63.623047" xlink:href="#DejaVuSans-2e"/>
       <use x="95.410156" xlink:href="#DejaVuSans-32"/>
      </g>
     </g>
    </g>
    <g id="ytick_21">
     <g id="line2d_56">
      <g>
       <use style="stroke:#000000;stroke-width:0.8;" x="911.057143" xlink:href="#m4f1095ae60" y="72.196203"/>
      </g>
     </g>
     <g id="text_57">
      <!-- 0.3 -->
      <g transform="translate(888.154018 75.995422)scale(0.1 -0.1)">
       <use xlink:href="#DejaVuSans-30"/>
       <use x="63.623047" xlink:href="#DejaVuSans-2e"/>
       <use x="95.410156" xlink:href="#DejaVuSans-33"/>
      </g>
     </g>
    </g>
    <g id="ytick_22">
     <g id="line2d_57">
      <g>
       <use style="stroke:#000000;stroke-width:0.8;" x="911.057143" xlink:href="#m4f1095ae60" y="38.432744"/>
      </g>
     </g>
     <g id="text_58">
      <!-- 0.4 -->
      <g transform="translate(888.154018 42.231962)scale(0.1 -0.1)">
       <use xlink:href="#DejaVuSans-30"/>
       <use x="63.623047" xlink:href="#DejaVuSans-2e"/>
       <use x="95.410156" xlink:href="#DejaVuSans-34"/>
      </g>
     </g>
    </g>
    <g id="text_59">
     <!-- Posterior -->
     <g transform="translate(882.07433 127.542711)rotate(-90)scale(0.1 -0.1)">
      <use xlink:href="#DejaVuSans-50"/>
      <use x="56.677734" xlink:href="#DejaVuSans-6f"/>
      <use x="117.859375" xlink:href="#DejaVuSans-73"/>
      <use x="169.958984" xlink:href="#DejaVuSans-74"/>
      <use x="209.167969" xlink:href="#DejaVuSans-65"/>
      <use x="270.691406" xlink:href="#DejaVuSans-72"/>
      <use x="311.804688" xlink:href="#DejaVuSans-69"/>
      <use x="339.587891" xlink:href="#DejaVuSans-6f"/>
      <use x="400.769531" xlink:href="#DejaVuSans-72"/>
     </g>
    </g>
   </g>
   <g id="line2d_58">
    <path clip-path="url(#pfa25125bd8)" d="M 911.057143 167.126042 
L 913.655626 165.711775 
L 916.254109 164.069908 
L 918.852592 162.175224 
L 921.451075 159.999301 
L 924.049558 157.510299 
L 926.648041 154.673382 
L 929.246524 151.45204 
L 931.845007 147.810507 
L 934.44349 143.717318 
L 937.041973 139.149846 
L 939.640456 134.099386 
L 942.238939 128.576151 
L 945.357119 121.372716 
L 948.994995 112.313889 
L 954.191961 98.651902 
L 960.428321 82.385567 
L 963.5465 74.807065 
L 966.66468 67.838614 
L 969.263163 62.592093 
L 971.861646 57.913072 
L 973.940432 54.604946 
L 976.019219 51.701257 
L 978.098005 49.217557 
L 979.657095 47.640588 
L 981.216185 46.317728 
L 982.775275 45.258436 
L 984.334365 44.473296 
L 985.893454 43.97379 
L 987.452544 43.77188 
L 989.011634 43.879418 
L 990.570724 44.30743 
L 992.129814 45.065306 
L 993.688903 46.159976 
L 995.247993 47.595095 
L 996.807083 49.37033 
L 998.366173 51.480766 
L 999.925263 53.916499 
L 1002.004049 57.643313 
L 1004.082836 61.870996 
L 1006.681319 67.759549 
L 1009.799498 75.50464 
L 1014.476768 87.871328 
L 1020.19343 102.851019 
L 1023.31161 110.42317 
L 1025.910093 116.235782 
L 1028.508576 121.527945 
L 1031.107059 126.269641 
L 1033.705542 130.459893 
L 1035.784329 133.430292 
L 1037.863115 136.084087 
L 1040.461598 138.999253 
L 1043.060081 141.528818 
L 1045.658564 143.744919 
L 1048.776744 146.095494 
L 1052.934317 148.907547 
L 1066.446429 157.759131 
L 1066.446429 157.759131 
" style="fill:none;stroke:#1f77b4;stroke-linecap:square;stroke-width:1.5;"/>
   </g>
   <g id="line2d_59">
    <path clip-path="url(#pfa25125bd8)" d="M 994.935347 173.29375 
L 994.935347 37.604172 
" style="fill:none;stroke:#808080;stroke-dasharray:1.5,2.475;stroke-dashoffset:0;stroke-width:1.5;"/>
   </g>
   <g id="patch_15">
    <path d="M 911.057143 173.29375 
L 911.057143 37.604172 
" style="fill:none;stroke:#000000;stroke-linecap:square;stroke-linejoin:miter;stroke-width:0.8;"/>
   </g>
   <g id="patch_16">
    <path d="M 911.057143 173.29375 
L 1066.446429 173.29375 
" style="fill:none;stroke:#000000;stroke-linecap:square;stroke-linejoin:miter;stroke-width:0.8;"/>
   </g>
  </g>
  <g id="axes_6">
   <g id="patch_17">
    <path d="M 1126.871429 173.29375 
L 1282.260714 173.29375 
L 1282.260714 37.604172 
L 1126.871429 37.604172 
z
" style="fill:#ffffff;"/>
   </g>
   <g id="matplotlib.axis_11">
    <g id="xtick_28">
     <g id="line2d_60">
      <g>
       <use style="stroke:#000000;stroke-width:0.8;" x="1126.871429" xlink:href="#m53919fc3e5" y="173.29375"/>
      </g>
     </g>
     <g id="text_60">
      <!-- −5 -->
      <g transform="translate(1119.500335 187.892188)scale(0.1 -0.1)">
       <use xlink:href="#DejaVuSans-2212"/>
       <use x="83.789062" xlink:href="#DejaVuSans-35"/>
      </g>
     </g>
    </g>
    <g id="xtick_29">
     <g id="line2d_61">
      <g>
       <use style="stroke:#000000;stroke-width:0.8;" x="1157.949286" xlink:href="#m53919fc3e5" y="173.29375"/>
      </g>
     </g>
     <g id="text_61">
      <!-- −4 -->
      <g transform="translate(1150.578192 187.892188)scale(0.1 -0.1)">
       <use xlink:href="#DejaVuSans-2212"/>
       <use x="83.789062" xlink:href="#DejaVuSans-34"/>
      </g>
     </g>
    </g>
    <g id="xtick_30">
     <g id="line2d_62">
      <g>
       <use style="stroke:#000000;stroke-width:0.8;" x="1189.027143" xlink:href="#m53919fc3e5" y="173.29375"/>
      </g>
     </g>
     <g id="text_62">
      <!-- −3 -->
      <g transform="translate(1181.656049 187.892188)scale(0.1 -0.1)">
       <use xlink:href="#DejaVuSans-2212"/>
       <use x="83.789062" xlink:href="#DejaVuSans-33"/>
      </g>
     </g>
    </g>
    <g id="xtick_31">
     <g id="line2d_63">
      <g>
       <use style="stroke:#000000;stroke-width:0.8;" x="1220.105" xlink:href="#m53919fc3e5" y="173.29375"/>
      </g>
     </g>
     <g id="text_63">
      <!-- −2 -->
      <g transform="translate(1212.733906 187.892188)scale(0.1 -0.1)">
       <use xlink:href="#DejaVuSans-2212"/>
       <use x="83.789062" xlink:href="#DejaVuSans-32"/>
      </g>
     </g>
    </g>
    <g id="xtick_32">
     <g id="line2d_64">
      <g>
       <use style="stroke:#000000;stroke-width:0.8;" x="1251.182857" xlink:href="#m53919fc3e5" y="173.29375"/>
      </g>
     </g>
     <g id="text_64">
      <!-- −1 -->
      <g transform="translate(1243.811763 187.892188)scale(0.1 -0.1)">
       <use xlink:href="#DejaVuSans-2212"/>
       <use x="83.789062" xlink:href="#DejaVuSans-31"/>
      </g>
     </g>
    </g>
    <g id="xtick_33">
     <g id="line2d_65">
      <g>
       <use style="stroke:#000000;stroke-width:0.8;" x="1282.260714" xlink:href="#m53919fc3e5" y="173.29375"/>
      </g>
     </g>
     <g id="text_65">
      <!-- 0 -->
      <g transform="translate(1279.079464 187.892188)scale(0.1 -0.1)">
       <use xlink:href="#DejaVuSans-30"/>
      </g>
     </g>
    </g>
    <g id="text_66">
     <!-- log_ecm_degradation_rate -->
     <g transform="translate(1138.230915 201.570312)scale(0.1 -0.1)">
      <use xlink:href="#DejaVuSans-6c"/>
      <use x="27.783203" xlink:href="#DejaVuSans-6f"/>
      <use x="88.964844" xlink:href="#DejaVuSans-67"/>
      <use x="152.441406" xlink:href="#DejaVuSans-5f"/>
      <use x="202.441406" xlink:href="#DejaVuSans-65"/>
      <use x="263.964844" xlink:href="#DejaVuSans-63"/>
      <use x="318.945312" xlink:href="#DejaVuSans-6d"/>
      <use x="416.357422" xlink:href="#DejaVuSans-5f"/>
      <use x="466.357422" xlink:href="#DejaVuSans-64"/>
      <use x="529.833984" xlink:href="#DejaVuSans-65"/>
      <use x="591.357422" xlink:href="#DejaVuSans-67"/>
      <use x="654.833984" xlink:href="#DejaVuSans-72"/>
      <use x="695.947266" xlink:href="#DejaVuSans-61"/>
      <use x="757.226562" xlink:href="#DejaVuSans-64"/>
      <use x="820.703125" xlink:href="#DejaVuSans-61"/>
      <use x="881.982422" xlink:href="#DejaVuSans-74"/>
      <use x="921.191406" xlink:href="#DejaVuSans-69"/>
      <use x="948.974609" xlink:href="#DejaVuSans-6f"/>
      <use x="1010.15625" xlink:href="#DejaVuSans-6e"/>
      <use x="1073.535156" xlink:href="#DejaVuSans-5f"/>
      <use x="1123.535156" xlink:href="#DejaVuSans-72"/>
      <use x="1164.648438" xlink:href="#DejaVuSans-61"/>
      <use x="1225.927734" xlink:href="#DejaVuSans-74"/>
      <use x="1265.136719" xlink:href="#DejaVuSans-65"/>
     </g>
    </g>
   </g>
   <g id="matplotlib.axis_12">
    <g id="ytick_23">
     <g id="line2d_66">
      <g>
       <use style="stroke:#000000;stroke-width:0.8;" x="1126.871429" xlink:href="#m4f1095ae60" y="146.858244"/>
      </g>
     </g>
     <g id="text_67">
      <!-- 0.10 -->
      <g transform="translate(1097.605804 150.657463)scale(0.1 -0.1)">
       <use xlink:href="#DejaVuSans-30"/>
       <use x="63.623047" xlink:href="#DejaVuSans-2e"/>
       <use x="95.410156" xlink:href="#DejaVuSans-31"/>
       <use x="159.033203" xlink:href="#DejaVuSans-30"/>
      </g>
     </g>
    </g>
    <g id="ytick_24">
     <g id="line2d_67">
      <g>
       <use style="stroke:#000000;stroke-width:0.8;" x="1126.871429" xlink:href="#m4f1095ae60" y="113.819415"/>
      </g>
     </g>
     <g id="text_68">
      <!-- 0.15 -->
      <g transform="translate(1097.605804 117.618634)scale(0.1 -0.1)">
       <use xlink:href="#DejaVuSans-30"/>
       <use x="63.623047" xlink:href="#DejaVuSans-2e"/>
       <use x="95.410156" xlink:href="#DejaVuSans-31"/>
       <use x="159.033203" xlink:href="#DejaVuSans-35"/>
      </g>
     </g>
    </g>
    <g id="ytick_25">
     <g id="line2d_68">
      <g>
       <use style="stroke:#000000;stroke-width:0.8;" x="1126.871429" xlink:href="#m4f1095ae60" y="80.780586"/>
      </g>
     </g>
     <g id="text_69">
      <!-- 0.20 -->
      <g transform="translate(1097.605804 84.579804)scale(0.1 -0.1)">
       <use xlink:href="#DejaVuSans-30"/>
       <use x="63.623047" xlink:href="#DejaVuSans-2e"/>
       <use x="95.410156" xlink:href="#DejaVuSans-32"/>
       <use x="159.033203" xlink:href="#DejaVuSans-30"/>
      </g>
     </g>
    </g>
    <g id="ytick_26">
     <g id="line2d_69">
      <g>
       <use style="stroke:#000000;stroke-width:0.8;" x="1126.871429" xlink:href="#m4f1095ae60" y="47.741756"/>
      </g>
     </g>
     <g id="text_70">
      <!-- 0.25 -->
      <g transform="translate(1097.605804 51.540975)scale(0.1 -0.1)">
       <use xlink:href="#DejaVuSans-30"/>
       <use x="63.623047" xlink:href="#DejaVuSans-2e"/>
       <use x="95.410156" xlink:href="#DejaVuSans-32"/>
       <use x="159.033203" xlink:href="#DejaVuSans-35"/>
      </g>
     </g>
    </g>
    <g id="text_71">
     <!-- Posterior -->
     <g transform="translate(1091.526116 127.542711)rotate(-90)scale(0.1 -0.1)">
      <use xlink:href="#DejaVuSans-50"/>
      <use x="56.677734" xlink:href="#DejaVuSans-6f"/>
      <use x="117.859375" xlink:href="#DejaVuSans-73"/>
      <use x="169.958984" xlink:href="#DejaVuSans-74"/>
      <use x="209.167969" xlink:href="#DejaVuSans-65"/>
      <use x="270.691406" xlink:href="#DejaVuSans-72"/>
      <use x="311.804688" xlink:href="#DejaVuSans-69"/>
      <use x="339.587891" xlink:href="#DejaVuSans-6f"/>
      <use x="400.769531" xlink:href="#DejaVuSans-72"/>
     </g>
    </g>
   </g>
   <g id="line2d_70">
    <path clip-path="url(#p9040512154)" d="M 1126.871429 167.126042 
L 1132.588091 158.806892 
L 1136.225968 153.867127 
L 1139.344147 149.958222 
L 1142.462327 146.403057 
L 1145.580506 143.228134 
L 1148.178989 140.873977 
L 1151.297169 138.377983 
L 1154.415349 136.194473 
L 1158.053225 133.945325 
L 1170.525944 126.552944 
L 1173.124427 124.639447 
L 1175.72291 122.469893 
L 1178.321393 120.004173 
L 1180.919876 117.214447 
L 1183.518359 114.086671 
L 1186.116842 110.621504 
L 1189.235022 106.040913 
L 1192.353201 101.051797 
L 1195.991077 94.823759 
L 1202.227437 83.597138 
L 1208.463796 72.512545 
L 1212.101672 66.489284 
L 1215.219852 61.737817 
L 1217.818335 58.128625 
L 1220.416818 54.875597 
L 1223.015301 52.00538 
L 1225.094087 49.998471 
L 1227.172874 48.257585 
L 1229.25166 46.789824 
L 1231.330447 45.602108 
L 1233.409233 44.701965 
L 1235.48802 44.098192 
L 1237.047109 43.846132 
L 1238.606199 43.77188 
L 1240.165289 43.881297 
L 1241.724379 44.180865 
L 1243.283469 44.677602 
L 1244.842559 45.378925 
L 1246.401648 46.292469 
L 1247.960738 47.425867 
L 1249.519828 48.7865 
L 1251.078918 50.381215 
L 1253.157704 52.881887 
L 1255.236491 55.820326 
L 1257.315277 59.202814 
L 1259.394064 63.029767 
L 1261.47285 67.294808 
L 1264.071333 73.220333 
L 1266.669816 79.763833 
L 1269.787996 88.341086 
L 1272.906175 97.572481 
L 1277.063748 110.59431 
L 1282.260714 127.353652 
L 1282.260714 127.353652 
" style="fill:none;stroke:#1f77b4;stroke-linecap:square;stroke-width:1.5;"/>
   </g>
   <g id="line2d_71">
    <path clip-path="url(#p9040512154)" d="M 1186.015387 173.29375 
L 1186.015387 37.604172 
" style="fill:none;stroke:#808080;stroke-dasharray:1.5,2.475;stroke-dashoffset:0;stroke-width:1.5;"/>
   </g>
   <g id="patch_18">
    <path d="M 1126.871429 173.29375 
L 1126.871429 37.604172 
" style="fill:none;stroke:#000000;stroke-linecap:square;stroke-linejoin:miter;stroke-width:0.8;"/>
   </g>
   <g id="patch_19">
    <path d="M 1126.871429 173.29375 
L 1282.260714 173.29375 
" style="fill:none;stroke:#000000;stroke-linecap:square;stroke-linejoin:miter;stroke-width:0.8;"/>
   </g>
  </g>
  <g id="axes_7">
   <g id="patch_20">
    <path d="M 1342.685714 173.29375 
L 1498.075 173.29375 
L 1498.075 37.604172 
L 1342.685714 37.604172 
z
" style="fill:#ffffff;"/>
   </g>
   <g id="matplotlib.axis_13">
    <g id="xtick_34">
     <g id="line2d_72">
      <g>
       <use style="stroke:#000000;stroke-width:0.8;" x="1342.685714" xlink:href="#m53919fc3e5" y="173.29375"/>
      </g>
     </g>
     <g id="text_72">
      <!-- −5 -->
      <g transform="translate(1335.314621 187.892188)scale(0.1 -0.1)">
       <use xlink:href="#DejaVuSans-2212"/>
       <use x="83.789062" xlink:href="#DejaVuSans-35"/>
      </g>
     </g>
    </g>
    <g id="xtick_35">
     <g id="line2d_73">
      <g>
       <use style="stroke:#000000;stroke-width:0.8;" x="1373.763571" xlink:href="#m53919fc3e5" y="173.29375"/>
      </g>
     </g>
     <g id="text_73">
      <!-- −4 -->
      <g transform="translate(1366.392478 187.892188)scale(0.1 -0.1)">
       <use xlink:href="#DejaVuSans-2212"/>
       <use x="83.789062" xlink:href="#DejaVuSans-34"/>
      </g>
     </g>
    </g>
    <g id="xtick_36">
     <g id="line2d_74">
      <g>
       <use style="stroke:#000000;stroke-width:0.8;" x="1404.841429" xlink:href="#m53919fc3e5" y="173.29375"/>
      </g>
     </g>
     <g id="text_74">
      <!-- −3 -->
      <g transform="translate(1397.470335 187.892188)scale(0.1 -0.1)">
       <use xlink:href="#DejaVuSans-2212"/>
       <use x="83.789062" xlink:href="#DejaVuSans-33"/>
      </g>
     </g>
    </g>
    <g id="xtick_37">
     <g id="line2d_75">
      <g>
       <use style="stroke:#000000;stroke-width:0.8;" x="1435.919286" xlink:href="#m53919fc3e5" y="173.29375"/>
      </g>
     </g>
     <g id="text_75">
      <!-- −2 -->
      <g transform="translate(1428.548192 187.892188)scale(0.1 -0.1)">
       <use xlink:href="#DejaVuSans-2212"/>
       <use x="83.789062" xlink:href="#DejaVuSans-32"/>
      </g>
     </g>
    </g>
    <g id="xtick_38">
     <g id="line2d_76">
      <g>
       <use style="stroke:#000000;stroke-width:0.8;" x="1466.997143" xlink:href="#m53919fc3e5" y="173.29375"/>
      </g>
     </g>
     <g id="text_76">
      <!-- −1 -->
      <g transform="translate(1459.626049 187.892188)scale(0.1 -0.1)">
       <use xlink:href="#DejaVuSans-2212"/>
       <use x="83.789062" xlink:href="#DejaVuSans-31"/>
      </g>
     </g>
    </g>
    <g id="xtick_39">
     <g id="line2d_77">
      <g>
       <use style="stroke:#000000;stroke-width:0.8;" x="1498.075" xlink:href="#m53919fc3e5" y="173.29375"/>
      </g>
     </g>
     <g id="text_77">
      <!-- 0 -->
      <g transform="translate(1494.89375 187.892188)scale(0.1 -0.1)">
       <use xlink:href="#DejaVuSans-30"/>
      </g>
     </g>
    </g>
    <g id="text_78">
     <!-- log_ecm_division_threshold -->
     <g transform="translate(1351.883482 201.570312)scale(0.1 -0.1)">
      <use xlink:href="#DejaVuSans-6c"/>
      <use x="27.783203" xlink:href="#DejaVuSans-6f"/>
      <use x="88.964844" xlink:href="#DejaVuSans-67"/>
      <use x="152.441406" xlink:href="#DejaVuSans-5f"/>
      <use x="202.441406" xlink:href="#DejaVuSans-65"/>
      <use x="263.964844" xlink:href="#DejaVuSans-63"/>
      <use x="318.945312" xlink:href="#DejaVuSans-6d"/>
      <use x="416.357422" xlink:href="#DejaVuSans-5f"/>
      <use x="466.357422" xlink:href="#DejaVuSans-64"/>
      <use x="529.833984" xlink:href="#DejaVuSans-69"/>
      <use x="557.617188" xlink:href="#DejaVuSans-76"/>
      <use x="616.796875" xlink:href="#DejaVuSans-69"/>
      <use x="644.580078" xlink:href="#DejaVuSans-73"/>
      <use x="696.679688" xlink:href="#DejaVuSans-69"/>
      <use x="724.462891" xlink:href="#DejaVuSans-6f"/>
      <use x="785.644531" xlink:href="#DejaVuSans-6e"/>
      <use x="849.023438" xlink:href="#DejaVuSans-5f"/>
      <use x="899.023438" xlink:href="#DejaVuSans-74"/>
      <use x="938.232422" xlink:href="#DejaVuSans-68"/>
      <use x="1001.611328" xlink:href="#DejaVuSans-72"/>
      <use x="1040.474609" xlink:href="#DejaVuSans-65"/>
      <use x="1101.998047" xlink:href="#DejaVuSans-73"/>
      <use x="1154.097656" xlink:href="#DejaVuSans-68"/>
      <use x="1217.476562" xlink:href="#DejaVuSans-6f"/>
      <use x="1278.658203" xlink:href="#DejaVuSans-6c"/>
      <use x="1306.441406" xlink:href="#DejaVuSans-64"/>
     </g>
    </g>
   </g>
   <g id="matplotlib.axis_14">
    <g id="ytick_27">
     <g id="line2d_78">
      <g>
       <use style="stroke:#000000;stroke-width:0.8;" x="1342.685714" xlink:href="#m4f1095ae60" y="133.015404"/>
      </g>
     </g>
     <g id="text_79">
      <!-- 0.1 -->
      <g transform="translate(1319.782589 136.814622)scale(0.1 -0.1)">
       <use xlink:href="#DejaVuSans-30"/>
       <use x="63.623047" xlink:href="#DejaVuSans-2e"/>
       <use x="95.410156" xlink:href="#DejaVuSans-31"/>
      </g>
     </g>
    </g>
    <g id="ytick_28">
     <g id="line2d_79">
      <g>
       <use style="stroke:#000000;stroke-width:0.8;" x="1342.685714" xlink:href="#m4f1095ae60" y="91.114576"/>
      </g>
     </g>
     <g id="text_80">
      <!-- 0.2 -->
      <g transform="translate(1319.782589 94.913795)scale(0.1 -0.1)">
       <use xlink:href="#DejaVuSans-30"/>
       <use x="63.623047" xlink:href="#DejaVuSans-2e"/>
       <use x="95.410156" xlink:href="#DejaVuSans-32"/>
      </g>
     </g>
    </g>
    <g id="ytick_29">
     <g id="line2d_80">
      <g>
       <use style="stroke:#000000;stroke-width:0.8;" x="1342.685714" xlink:href="#m4f1095ae60" y="49.213748"/>
      </g>
     </g>
     <g id="text_81">
      <!-- 0.3 -->
      <g transform="translate(1319.782589 53.012967)scale(0.1 -0.1)">
       <use xlink:href="#DejaVuSans-30"/>
       <use x="63.623047" xlink:href="#DejaVuSans-2e"/>
       <use x="95.410156" xlink:href="#DejaVuSans-33"/>
      </g>
     </g>
    </g>
    <g id="text_82">
     <!-- Posterior -->
     <g transform="translate(1313.702902 127.542711)rotate(-90)scale(0.1 -0.1)">
      <use xlink:href="#DejaVuSans-50"/>
      <use x="56.677734" xlink:href="#DejaVuSans-6f"/>
      <use x="117.859375" xlink:href="#DejaVuSans-73"/>
      <use x="169.958984" xlink:href="#DejaVuSans-74"/>
      <use x="209.167969" xlink:href="#DejaVuSans-65"/>
      <use x="270.691406" xlink:href="#DejaVuSans-72"/>
      <use x="311.804688" xlink:href="#DejaVuSans-69"/>
      <use x="339.587891" xlink:href="#DejaVuSans-6f"/>
      <use x="400.769531" xlink:href="#DejaVuSans-72"/>
     </g>
    </g>
   </g>
   <g id="line2d_81">
    <path clip-path="url(#p83d145a4c2)" d="M 1342.685714 149.995139 
L 1345.284197 145.887597 
L 1347.88268 141.319615 
L 1350.481163 136.286395 
L 1353.079646 130.802911 
L 1356.197826 123.686893 
L 1359.835702 114.810233 
L 1370.229634 89.044831 
L 1372.828118 83.338392 
L 1375.426601 78.218717 
L 1377.505387 74.612864 
L 1379.584173 71.475496 
L 1381.66296 68.814641 
L 1383.22205 67.124094 
L 1384.78114 65.680247 
L 1386.859926 64.103122 
L 1388.938712 62.865096 
L 1391.017499 61.889895 
L 1394.135678 60.734331 
L 1399.852341 58.721077 
L 1402.450824 57.540585 
L 1405.049307 56.087807 
L 1407.64779 54.356681 
L 1410.76597 51.987497 
L 1417.002329 47.102116 
L 1419.081116 45.743441 
L 1421.159902 44.677113 
L 1422.718992 44.123789 
L 1424.278082 43.820298 
L 1425.837172 43.796833 
L 1427.396261 44.078465 
L 1428.955351 44.684516 
L 1430.514441 45.628161 
L 1432.073531 46.916252 
L 1433.632621 48.549363 
L 1435.19171 50.522044 
L 1436.7508 52.82323 
L 1438.829587 56.373993 
L 1440.908373 60.429624 
L 1443.506856 66.115832 
L 1446.105339 72.361042 
L 1449.743215 81.769663 
L 1463.775024 118.949307 
L 1466.893204 126.289497 
L 1470.011383 133.039877 
L 1472.609866 138.176944 
L 1475.208349 142.856553 
L 1477.806832 147.080806 
L 1480.405315 150.863655 
L 1483.003798 154.228279 
L 1485.602281 157.204244 
L 1488.200764 159.824708 
L 1490.799247 162.123901 
L 1493.397731 164.135093 
L 1495.996214 165.889168 
L 1498.075 167.126042 
L 1498.075 167.126042 
" style="fill:none;stroke:#1f77b4;stroke-linecap:square;stroke-width:1.5;"/>
   </g>
   <g id="line2d_82">
    <path clip-path="url(#p83d145a4c2)" d="M 1435.919286 173.29375 
L 1435.919286 37.604172 
" style="fill:none;stroke:#808080;stroke-dasharray:1.5,2.475;stroke-dashoffset:0;stroke-width:1.5;"/>
   </g>
   <g id="patch_21">
    <path d="M 1342.685714 173.29375 
L 1342.685714 37.604172 
" style="fill:none;stroke:#000000;stroke-linecap:square;stroke-linejoin:miter;stroke-width:0.8;"/>
   </g>
   <g id="patch_22">
    <path d="M 1342.685714 173.29375 
L 1498.075 173.29375 
" style="fill:none;stroke:#000000;stroke-linecap:square;stroke-linejoin:miter;stroke-width:0.8;"/>
   </g>
  </g>
  <g id="text_83">
   <!-- Adaptive_GP_nf5 -->
   <g transform="translate(705.444375 13.438125)scale(0.12 -0.12)">
    <defs>
     <path d="M 2188 4044 
L 1331 1722 
L 3047 1722 
L 2188 4044 
z
M 1831 4666 
L 2547 4666 
L 4325 0 
L 3669 0 
L 3244 1197 
L 1141 1197 
L 716 0 
L 50 0 
L 1831 4666 
z
" id="DejaVuSans-41" transform="scale(0.015625)"/>
     <path d="M 3809 666 
L 3809 1919 
L 2778 1919 
L 2778 2438 
L 4434 2438 
L 4434 434 
Q 4069 175 3628 42 
Q 3188 -91 2688 -91 
Q 1594 -91 976 548 
Q 359 1188 359 2328 
Q 359 3472 976 4111 
Q 1594 4750 2688 4750 
Q 3144 4750 3555 4637 
Q 3966 4525 4313 4306 
L 4313 3634 
Q 3963 3931 3569 4081 
Q 3175 4231 2741 4231 
Q 1884 4231 1454 3753 
Q 1025 3275 1025 2328 
Q 1025 1384 1454 906 
Q 1884 428 2741 428 
Q 3075 428 3337 486 
Q 3600 544 3809 666 
z
" id="DejaVuSans-47" transform="scale(0.015625)"/>
    </defs>
    <use xlink:href="#DejaVuSans-41"/>
    <use x="66.658203" xlink:href="#DejaVuSans-64"/>
    <use x="130.134766" xlink:href="#DejaVuSans-61"/>
    <use x="191.414062" xlink:href="#DejaVuSans-70"/>
    <use x="254.890625" xlink:href="#DejaVuSans-74"/>
    <use x="294.099609" xlink:href="#DejaVuSans-69"/>
    <use x="321.882812" xlink:href="#DejaVuSans-76"/>
    <use x="381.0625" xlink:href="#DejaVuSans-65"/>
    <use x="442.585938" xlink:href="#DejaVuSans-5f"/>
    <use x="492.585938" xlink:href="#DejaVuSans-47"/>
    <use x="570.076172" xlink:href="#DejaVuSans-50"/>
    <use x="630.378906" xlink:href="#DejaVuSans-5f"/>
    <use x="680.378906" xlink:href="#DejaVuSans-6e"/>
    <use x="743.757812" xlink:href="#DejaVuSans-66"/>
    <use x="778.962891" xlink:href="#DejaVuSans-35"/>
   </g>
  </g>
 </g>
 <defs>
  <clipPath id="pbc51ab9154">
   <rect height="135.689578" width="155.389286" x="47.8" y="37.604172"/>
  </clipPath>
  <clipPath id="pd01f868f50">
   <rect height="135.689578" width="155.389286" x="263.614286" y="37.604172"/>
  </clipPath>
  <clipPath id="p15b5197a70">
   <rect height="135.689578" width="155.389286" x="479.428571" y="37.604172"/>
  </clipPath>
  <clipPath id="pdc266c3834">
   <rect height="135.689578" width="155.389286" x="695.242857" y="37.604172"/>
  </clipPath>
  <clipPath id="pfa25125bd8">
   <rect height="135.689578" width="155.389286" x="911.057143" y="37.604172"/>
  </clipPath>
  <clipPath id="p9040512154">
   <rect height="135.689578" width="155.389286" x="1126.871429" y="37.604172"/>
  </clipPath>
  <clipPath id="p83d145a4c2">
   <rect height="135.689578" width="155.389286" x="1342.685714" y="37.604172"/>
  </clipPath>
 </defs>
</svg>
