<?xml version="1.0" encoding="utf-8" standalone="no"?>
<!DOCTYPE svg PUBLIC "-//W3C//DTD SVG 1.1//EN"
  "http://www.w3.org/Graphics/SVG/1.1/DTD/svg11.dtd">
<svg height="216pt" version="1.1" viewBox="0 0 1512 216" width="1512pt" xmlns="http://www.w3.org/2000/svg" xmlns:xlink="http://www.w3.org/1999/xlink">
 <metadata>
  <rdf:RDF xmlns:cc="http://creativecommons.org/ns#" xmlns:dc="http://purl.org/dc/elements/1.1/" xmlns:rdf="http://www.w3.org/1999/02/22-rdf-syntax-ns#">
   <cc:Work>
    <dc:type rdf:resource="http://purl.org/dc/dcmitype/StillImage"/>
    <dc:date>2021-04-22T12:16:34.500529</dc:date>
    <dc:format>image/svg+xml</dc:format>
    <dc:creator>
     <cc:Agent>
      <dc:title>Matplotlib v3.4.1, https://matplotlib.org/</dc:title>
     </cc:Agent>
    </dc:creator>
   </cc:Work>
  </rdf:RDF>
 </metadata>
 <defs>
  <style type="text/css">*{stroke-linecap:butt;stroke-linejoin:round;}</style>
 </defs>
 <g id="figure_1">
  <g id="patch_1">
   <path d="M 0 216 
L 1512 216 
L 1512 0 
L 0 0 
z
" style="fill:none;"/>
  </g>
  <g id="axes_1">
   <g id="patch_2">
    <path d="M 47.675 173.29375 
L 203.510714 173.29375 
L 203.510714 37.774061 
L 47.675 37.774061 
z
" style="fill:#ffffff;"/>
   </g>
   <g id="matplotlib.axis_1">
    <g id="xtick_1">
     <g id="line2d_1">
      <defs>
       <path d="M 0 0 
L 0 3.5 
" id="me8c6c7665a" style="stroke:#000000;stroke-width:0.8;"/>
      </defs>
      <g>
       <use style="stroke:#000000;stroke-width:0.8;" x="47.675" xlink:href="#me8c6c7665a" y="173.29375"/>
      </g>
     </g>
     <g id="text_1">
      <!-- −3.0 -->
      <g transform="translate(35.533594 187.892188)scale(0.1 -0.1)">
       <defs>
        <path d="M 678 2272 
L 4684 2272 
L 4684 1741 
L 678 1741 
L 678 2272 
z
" id="DejaVuSans-2212" transform="scale(0.015625)"/>
        <path d="M 2597 2516 
Q 3050 2419 3304 2112 
Q 3559 1806 3559 1356 
Q 3559 666 3084 287 
Q 2609 -91 1734 -91 
Q 1441 -91 1130 -33 
Q 819 25 488 141 
L 488 750 
Q 750 597 1062 519 
Q 1375 441 1716 441 
Q 2309 441 2620 675 
Q 2931 909 2931 1356 
Q 2931 1769 2642 2001 
Q 2353 2234 1838 2234 
L 1294 2234 
L 1294 2753 
L 1863 2753 
Q 2328 2753 2575 2939 
Q 2822 3125 2822 3475 
Q 2822 3834 2567 4026 
Q 2313 4219 1838 4219 
Q 1578 4219 1281 4162 
Q 984 4106 628 3988 
L 628 4550 
Q 988 4650 1302 4700 
Q 1616 4750 1894 4750 
Q 2613 4750 3031 4423 
Q 3450 4097 3450 3541 
Q 3450 3153 3228 2886 
Q 3006 2619 2597 2516 
z
" id="DejaVuSans-33" transform="scale(0.015625)"/>
        <path d="M 684 794 
L 1344 794 
L 1344 0 
L 684 0 
L 684 794 
z
" id="DejaVuSans-2e" transform="scale(0.015625)"/>
        <path d="M 2034 4250 
Q 1547 4250 1301 3770 
Q 1056 3291 1056 2328 
Q 1056 1369 1301 889 
Q 1547 409 2034 409 
Q 2525 409 2770 889 
Q 3016 1369 3016 2328 
Q 3016 3291 2770 3770 
Q 2525 4250 2034 4250 
z
M 2034 4750 
Q 2819 4750 3233 4129 
Q 3647 3509 3647 2328 
Q 3647 1150 3233 529 
Q 2819 -91 2034 -91 
Q 1250 -91 836 529 
Q 422 1150 422 2328 
Q 422 3509 836 4129 
Q 1250 4750 2034 4750 
z
" id="DejaVuSans-30" transform="scale(0.015625)"/>
       </defs>
       <use xlink:href="#DejaVuSans-2212"/>
       <use x="83.789062" xlink:href="#DejaVuSans-33"/>
       <use x="147.412109" xlink:href="#DejaVuSans-2e"/>
       <use x="179.199219" xlink:href="#DejaVuSans-30"/>
      </g>
     </g>
    </g>
    <g id="xtick_2">
     <g id="line2d_2">
      <g>
       <use style="stroke:#000000;stroke-width:0.8;" x="86.633929" xlink:href="#me8c6c7665a" y="173.29375"/>
      </g>
     </g>
     <g id="text_2">
      <!-- −2.5 -->
      <g transform="translate(74.492522 187.892188)scale(0.1 -0.1)">
       <defs>
        <path d="M 1228 531 
L 3431 531 
L 3431 0 
L 469 0 
L 469 531 
Q 828 903 1448 1529 
Q 2069 2156 2228 2338 
Q 2531 2678 2651 2914 
Q 2772 3150 2772 3378 
Q 2772 3750 2511 3984 
Q 2250 4219 1831 4219 
Q 1534 4219 1204 4116 
Q 875 4013 500 3803 
L 500 4441 
Q 881 4594 1212 4672 
Q 1544 4750 1819 4750 
Q 2544 4750 2975 4387 
Q 3406 4025 3406 3419 
Q 3406 3131 3298 2873 
Q 3191 2616 2906 2266 
Q 2828 2175 2409 1742 
Q 1991 1309 1228 531 
z
" id="DejaVuSans-32" transform="scale(0.015625)"/>
        <path d="M 691 4666 
L 3169 4666 
L 3169 4134 
L 1269 4134 
L 1269 2991 
Q 1406 3038 1543 3061 
Q 1681 3084 1819 3084 
Q 2600 3084 3056 2656 
Q 3513 2228 3513 1497 
Q 3513 744 3044 326 
Q 2575 -91 1722 -91 
Q 1428 -91 1123 -41 
Q 819 9 494 109 
L 494 744 
Q 775 591 1075 516 
Q 1375 441 1709 441 
Q 2250 441 2565 725 
Q 2881 1009 2881 1497 
Q 2881 1984 2565 2268 
Q 2250 2553 1709 2553 
Q 1456 2553 1204 2497 
Q 953 2441 691 2322 
L 691 4666 
z
" id="DejaVuSans-35" transform="scale(0.015625)"/>
       </defs>
       <use xlink:href="#DejaVuSans-2212"/>
       <use x="83.789062" xlink:href="#DejaVuSans-32"/>
       <use x="147.412109" xlink:href="#DejaVuSans-2e"/>
       <use x="179.199219" xlink:href="#DejaVuSans-35"/>
      </g>
     </g>
    </g>
    <g id="xtick_3">
     <g id="line2d_3">
      <g>
       <use style="stroke:#000000;stroke-width:0.8;" x="125.592857" xlink:href="#me8c6c7665a" y="173.29375"/>
      </g>
     </g>
     <g id="text_3">
      <!-- −2.0 -->
      <g transform="translate(113.451451 187.892188)scale(0.1 -0.1)">
       <use xlink:href="#DejaVuSans-2212"/>
       <use x="83.789062" xlink:href="#DejaVuSans-32"/>
       <use x="147.412109" xlink:href="#DejaVuSans-2e"/>
       <use x="179.199219" xlink:href="#DejaVuSans-30"/>
      </g>
     </g>
    </g>
    <g id="xtick_4">
     <g id="line2d_4">
      <g>
       <use style="stroke:#000000;stroke-width:0.8;" x="164.551786" xlink:href="#me8c6c7665a" y="173.29375"/>
      </g>
     </g>
     <g id="text_4">
      <!-- −1.5 -->
      <g transform="translate(152.410379 187.892188)scale(0.1 -0.1)">
       <defs>
        <path d="M 794 531 
L 1825 531 
L 1825 4091 
L 703 3866 
L 703 4441 
L 1819 4666 
L 2450 4666 
L 2450 531 
L 3481 531 
L 3481 0 
L 794 0 
L 794 531 
z
" id="DejaVuSans-31" transform="scale(0.015625)"/>
       </defs>
       <use xlink:href="#DejaVuSans-2212"/>
       <use x="83.789062" xlink:href="#DejaVuSans-31"/>
       <use x="147.412109" xlink:href="#DejaVuSans-2e"/>
       <use x="179.199219" xlink:href="#DejaVuSans-35"/>
      </g>
     </g>
    </g>
    <g id="xtick_5">
     <g id="line2d_5">
      <g>
       <use style="stroke:#000000;stroke-width:0.8;" x="203.510714" xlink:href="#me8c6c7665a" y="173.29375"/>
      </g>
     </g>
     <g id="text_5">
      <!-- −1.0 -->
      <g transform="translate(191.369308 187.892188)scale(0.1 -0.1)">
       <use xlink:href="#DejaVuSans-2212"/>
       <use x="83.789062" xlink:href="#DejaVuSans-31"/>
       <use x="147.412109" xlink:href="#DejaVuSans-2e"/>
       <use x="179.199219" xlink:href="#DejaVuSans-30"/>
      </g>
     </g>
    </g>
    <g id="text_6">
     <!-- log_division_rate -->
     <g transform="translate(83.680357 201.570312)scale(0.1 -0.1)">
      <defs>
       <path d="M 603 4863 
L 1178 4863 
L 1178 0 
L 603 0 
L 603 4863 
z
" id="DejaVuSans-6c" transform="scale(0.015625)"/>
       <path d="M 1959 3097 
Q 1497 3097 1228 2736 
Q 959 2375 959 1747 
Q 959 1119 1226 758 
Q 1494 397 1959 397 
Q 2419 397 2687 759 
Q 2956 1122 2956 1747 
Q 2956 2369 2687 2733 
Q 2419 3097 1959 3097 
z
M 1959 3584 
Q 2709 3584 3137 3096 
Q 3566 2609 3566 1747 
Q 3566 888 3137 398 
Q 2709 -91 1959 -91 
Q 1206 -91 779 398 
Q 353 888 353 1747 
Q 353 2609 779 3096 
Q 1206 3584 1959 3584 
z
" id="DejaVuSans-6f" transform="scale(0.015625)"/>
       <path d="M 2906 1791 
Q 2906 2416 2648 2759 
Q 2391 3103 1925 3103 
Q 1463 3103 1205 2759 
Q 947 2416 947 1791 
Q 947 1169 1205 825 
Q 1463 481 1925 481 
Q 2391 481 2648 825 
Q 2906 1169 2906 1791 
z
M 3481 434 
Q 3481 -459 3084 -895 
Q 2688 -1331 1869 -1331 
Q 1566 -1331 1297 -1286 
Q 1028 -1241 775 -1147 
L 775 -588 
Q 1028 -725 1275 -790 
Q 1522 -856 1778 -856 
Q 2344 -856 2625 -561 
Q 2906 -266 2906 331 
L 2906 616 
Q 2728 306 2450 153 
Q 2172 0 1784 0 
Q 1141 0 747 490 
Q 353 981 353 1791 
Q 353 2603 747 3093 
Q 1141 3584 1784 3584 
Q 2172 3584 2450 3431 
Q 2728 3278 2906 2969 
L 2906 3500 
L 3481 3500 
L 3481 434 
z
" id="DejaVuSans-67" transform="scale(0.015625)"/>
       <path d="M 3263 -1063 
L 3263 -1509 
L -63 -1509 
L -63 -1063 
L 3263 -1063 
z
" id="DejaVuSans-5f" transform="scale(0.015625)"/>
       <path d="M 2906 2969 
L 2906 4863 
L 3481 4863 
L 3481 0 
L 2906 0 
L 2906 525 
Q 2725 213 2448 61 
Q 2172 -91 1784 -91 
Q 1150 -91 751 415 
Q 353 922 353 1747 
Q 353 2572 751 3078 
Q 1150 3584 1784 3584 
Q 2172 3584 2448 3432 
Q 2725 3281 2906 2969 
z
M 947 1747 
Q 947 1113 1208 752 
Q 1469 391 1925 391 
Q 2381 391 2643 752 
Q 2906 1113 2906 1747 
Q 2906 2381 2643 2742 
Q 2381 3103 1925 3103 
Q 1469 3103 1208 2742 
Q 947 2381 947 1747 
z
" id="DejaVuSans-64" transform="scale(0.015625)"/>
       <path d="M 603 3500 
L 1178 3500 
L 1178 0 
L 603 0 
L 603 3500 
z
M 603 4863 
L 1178 4863 
L 1178 4134 
L 603 4134 
L 603 4863 
z
" id="DejaVuSans-69" transform="scale(0.015625)"/>
       <path d="M 191 3500 
L 800 3500 
L 1894 563 
L 2988 3500 
L 3597 3500 
L 2284 0 
L 1503 0 
L 191 3500 
z
" id="DejaVuSans-76" transform="scale(0.015625)"/>
       <path d="M 2834 3397 
L 2834 2853 
Q 2591 2978 2328 3040 
Q 2066 3103 1784 3103 
Q 1356 3103 1142 2972 
Q 928 2841 928 2578 
Q 928 2378 1081 2264 
Q 1234 2150 1697 2047 
L 1894 2003 
Q 2506 1872 2764 1633 
Q 3022 1394 3022 966 
Q 3022 478 2636 193 
Q 2250 -91 1575 -91 
Q 1294 -91 989 -36 
Q 684 19 347 128 
L 347 722 
Q 666 556 975 473 
Q 1284 391 1588 391 
Q 1994 391 2212 530 
Q 2431 669 2431 922 
Q 2431 1156 2273 1281 
Q 2116 1406 1581 1522 
L 1381 1569 
Q 847 1681 609 1914 
Q 372 2147 372 2553 
Q 372 3047 722 3315 
Q 1072 3584 1716 3584 
Q 2034 3584 2315 3537 
Q 2597 3491 2834 3397 
z
" id="DejaVuSans-73" transform="scale(0.015625)"/>
       <path d="M 3513 2113 
L 3513 0 
L 2938 0 
L 2938 2094 
Q 2938 2591 2744 2837 
Q 2550 3084 2163 3084 
Q 1697 3084 1428 2787 
Q 1159 2491 1159 1978 
L 1159 0 
L 581 0 
L 581 3500 
L 1159 3500 
L 1159 2956 
Q 1366 3272 1645 3428 
Q 1925 3584 2291 3584 
Q 2894 3584 3203 3211 
Q 3513 2838 3513 2113 
z
" id="DejaVuSans-6e" transform="scale(0.015625)"/>
       <path d="M 2631 2963 
Q 2534 3019 2420 3045 
Q 2306 3072 2169 3072 
Q 1681 3072 1420 2755 
Q 1159 2438 1159 1844 
L 1159 0 
L 581 0 
L 581 3500 
L 1159 3500 
L 1159 2956 
Q 1341 3275 1631 3429 
Q 1922 3584 2338 3584 
Q 2397 3584 2469 3576 
Q 2541 3569 2628 3553 
L 2631 2963 
z
" id="DejaVuSans-72" transform="scale(0.015625)"/>
       <path d="M 2194 1759 
Q 1497 1759 1228 1600 
Q 959 1441 959 1056 
Q 959 750 1161 570 
Q 1363 391 1709 391 
Q 2188 391 2477 730 
Q 2766 1069 2766 1631 
L 2766 1759 
L 2194 1759 
z
M 3341 1997 
L 3341 0 
L 2766 0 
L 2766 531 
Q 2569 213 2275 61 
Q 1981 -91 1556 -91 
Q 1019 -91 701 211 
Q 384 513 384 1019 
Q 384 1609 779 1909 
Q 1175 2209 1959 2209 
L 2766 2209 
L 2766 2266 
Q 2766 2663 2505 2880 
Q 2244 3097 1772 3097 
Q 1472 3097 1187 3025 
Q 903 2953 641 2809 
L 641 3341 
Q 956 3463 1253 3523 
Q 1550 3584 1831 3584 
Q 2591 3584 2966 3190 
Q 3341 2797 3341 1997 
z
" id="DejaVuSans-61" transform="scale(0.015625)"/>
       <path d="M 1172 4494 
L 1172 3500 
L 2356 3500 
L 2356 3053 
L 1172 3053 
L 1172 1153 
Q 1172 725 1289 603 
Q 1406 481 1766 481 
L 2356 481 
L 2356 0 
L 1766 0 
Q 1100 0 847 248 
Q 594 497 594 1153 
L 594 3053 
L 172 3053 
L 172 3500 
L 594 3500 
L 594 4494 
L 1172 4494 
z
" id="DejaVuSans-74" transform="scale(0.015625)"/>
       <path d="M 3597 1894 
L 3597 1613 
L 953 1613 
Q 991 1019 1311 708 
Q 1631 397 2203 397 
Q 2534 397 2845 478 
Q 3156 559 3463 722 
L 3463 178 
Q 3153 47 2828 -22 
Q 2503 -91 2169 -91 
Q 1331 -91 842 396 
Q 353 884 353 1716 
Q 353 2575 817 3079 
Q 1281 3584 2069 3584 
Q 2775 3584 3186 3129 
Q 3597 2675 3597 1894 
z
M 3022 2063 
Q 3016 2534 2758 2815 
Q 2500 3097 2075 3097 
Q 1594 3097 1305 2825 
Q 1016 2553 972 2059 
L 3022 2063 
z
" id="DejaVuSans-65" transform="scale(0.015625)"/>
      </defs>
      <use xlink:href="#DejaVuSans-6c"/>
      <use x="27.783203" xlink:href="#DejaVuSans-6f"/>
      <use x="88.964844" xlink:href="#DejaVuSans-67"/>
      <use x="152.441406" xlink:href="#DejaVuSans-5f"/>
      <use x="202.441406" xlink:href="#DejaVuSans-64"/>
      <use x="265.917969" xlink:href="#DejaVuSans-69"/>
      <use x="293.701172" xlink:href="#DejaVuSans-76"/>
      <use x="352.880859" xlink:href="#DejaVuSans-69"/>
      <use x="380.664062" xlink:href="#DejaVuSans-73"/>
      <use x="432.763672" xlink:href="#DejaVuSans-69"/>
      <use x="460.546875" xlink:href="#DejaVuSans-6f"/>
      <use x="521.728516" xlink:href="#DejaVuSans-6e"/>
      <use x="585.107422" xlink:href="#DejaVuSans-5f"/>
      <use x="635.107422" xlink:href="#DejaVuSans-72"/>
      <use x="676.220703" xlink:href="#DejaVuSans-61"/>
      <use x="737.5" xlink:href="#DejaVuSans-74"/>
      <use x="776.708984" xlink:href="#DejaVuSans-65"/>
     </g>
    </g>
   </g>
   <g id="matplotlib.axis_2">
    <g id="ytick_1">
     <g id="line2d_6">
      <defs>
       <path d="M 0 0 
L -3.5 0 
" id="m45140b78ad" style="stroke:#000000;stroke-width:0.8;"/>
      </defs>
      <g>
       <use style="stroke:#000000;stroke-width:0.8;" x="47.675" xlink:href="#m45140b78ad" y="152.058224"/>
      </g>
     </g>
     <g id="text_7">
      <!-- 0.2 -->
      <g transform="translate(24.771875 155.857443)scale(0.1 -0.1)">
       <use xlink:href="#DejaVuSans-30"/>
       <use x="63.623047" xlink:href="#DejaVuSans-2e"/>
       <use x="95.410156" xlink:href="#DejaVuSans-32"/>
      </g>
     </g>
    </g>
    <g id="ytick_2">
     <g id="line2d_7">
      <g>
       <use style="stroke:#000000;stroke-width:0.8;" x="47.675" xlink:href="#m45140b78ad" y="121.380321"/>
      </g>
     </g>
     <g id="text_8">
      <!-- 0.4 -->
      <g transform="translate(24.771875 125.17954)scale(0.1 -0.1)">
       <defs>
        <path d="M 2419 4116 
L 825 1625 
L 2419 1625 
L 2419 4116 
z
M 2253 4666 
L 3047 4666 
L 3047 1625 
L 3713 1625 
L 3713 1100 
L 3047 1100 
L 3047 0 
L 2419 0 
L 2419 1100 
L 313 1100 
L 313 1709 
L 2253 4666 
z
" id="DejaVuSans-34" transform="scale(0.015625)"/>
       </defs>
       <use xlink:href="#DejaVuSans-30"/>
       <use x="63.623047" xlink:href="#DejaVuSans-2e"/>
       <use x="95.410156" xlink:href="#DejaVuSans-34"/>
      </g>
     </g>
    </g>
    <g id="ytick_3">
     <g id="line2d_8">
      <g>
       <use style="stroke:#000000;stroke-width:0.8;" x="47.675" xlink:href="#m45140b78ad" y="90.702418"/>
      </g>
     </g>
     <g id="text_9">
      <!-- 0.6 -->
      <g transform="translate(24.771875 94.501637)scale(0.1 -0.1)">
       <defs>
        <path d="M 2113 2584 
Q 1688 2584 1439 2293 
Q 1191 2003 1191 1497 
Q 1191 994 1439 701 
Q 1688 409 2113 409 
Q 2538 409 2786 701 
Q 3034 994 3034 1497 
Q 3034 2003 2786 2293 
Q 2538 2584 2113 2584 
z
M 3366 4563 
L 3366 3988 
Q 3128 4100 2886 4159 
Q 2644 4219 2406 4219 
Q 1781 4219 1451 3797 
Q 1122 3375 1075 2522 
Q 1259 2794 1537 2939 
Q 1816 3084 2150 3084 
Q 2853 3084 3261 2657 
Q 3669 2231 3669 1497 
Q 3669 778 3244 343 
Q 2819 -91 2113 -91 
Q 1303 -91 875 529 
Q 447 1150 447 2328 
Q 447 3434 972 4092 
Q 1497 4750 2381 4750 
Q 2619 4750 2861 4703 
Q 3103 4656 3366 4563 
z
" id="DejaVuSans-36" transform="scale(0.015625)"/>
       </defs>
       <use xlink:href="#DejaVuSans-30"/>
       <use x="63.623047" xlink:href="#DejaVuSans-2e"/>
       <use x="95.410156" xlink:href="#DejaVuSans-36"/>
      </g>
     </g>
    </g>
    <g id="ytick_4">
     <g id="line2d_9">
      <g>
       <use style="stroke:#000000;stroke-width:0.8;" x="47.675" xlink:href="#m45140b78ad" y="60.024515"/>
      </g>
     </g>
     <g id="text_10">
      <!-- 0.8 -->
      <g transform="translate(24.771875 63.823734)scale(0.1 -0.1)">
       <defs>
        <path d="M 2034 2216 
Q 1584 2216 1326 1975 
Q 1069 1734 1069 1313 
Q 1069 891 1326 650 
Q 1584 409 2034 409 
Q 2484 409 2743 651 
Q 3003 894 3003 1313 
Q 3003 1734 2745 1975 
Q 2488 2216 2034 2216 
z
M 1403 2484 
Q 997 2584 770 2862 
Q 544 3141 544 3541 
Q 544 4100 942 4425 
Q 1341 4750 2034 4750 
Q 2731 4750 3128 4425 
Q 3525 4100 3525 3541 
Q 3525 3141 3298 2862 
Q 3072 2584 2669 2484 
Q 3125 2378 3379 2068 
Q 3634 1759 3634 1313 
Q 3634 634 3220 271 
Q 2806 -91 2034 -91 
Q 1263 -91 848 271 
Q 434 634 434 1313 
Q 434 1759 690 2068 
Q 947 2378 1403 2484 
z
M 1172 3481 
Q 1172 3119 1398 2916 
Q 1625 2713 2034 2713 
Q 2441 2713 2670 2916 
Q 2900 3119 2900 3481 
Q 2900 3844 2670 4047 
Q 2441 4250 2034 4250 
Q 1625 4250 1398 4047 
Q 1172 3844 1172 3481 
z
" id="DejaVuSans-38" transform="scale(0.015625)"/>
       </defs>
       <use xlink:href="#DejaVuSans-30"/>
       <use x="63.623047" xlink:href="#DejaVuSans-2e"/>
       <use x="95.410156" xlink:href="#DejaVuSans-38"/>
      </g>
     </g>
    </g>
    <g id="text_11">
     <!-- Posterior -->
     <g transform="translate(18.692187 127.627656)rotate(-90)scale(0.1 -0.1)">
      <defs>
       <path d="M 1259 4147 
L 1259 2394 
L 2053 2394 
Q 2494 2394 2734 2622 
Q 2975 2850 2975 3272 
Q 2975 3691 2734 3919 
Q 2494 4147 2053 4147 
L 1259 4147 
z
M 628 4666 
L 2053 4666 
Q 2838 4666 3239 4311 
Q 3641 3956 3641 3272 
Q 3641 2581 3239 2228 
Q 2838 1875 2053 1875 
L 1259 1875 
L 1259 0 
L 628 0 
L 628 4666 
z
" id="DejaVuSans-50" transform="scale(0.015625)"/>
      </defs>
      <use xlink:href="#DejaVuSans-50"/>
      <use x="56.677734" xlink:href="#DejaVuSans-6f"/>
      <use x="117.859375" xlink:href="#DejaVuSans-73"/>
      <use x="169.958984" xlink:href="#DejaVuSans-74"/>
      <use x="209.167969" xlink:href="#DejaVuSans-65"/>
      <use x="270.691406" xlink:href="#DejaVuSans-72"/>
      <use x="311.804688" xlink:href="#DejaVuSans-69"/>
      <use x="339.587891" xlink:href="#DejaVuSans-6f"/>
      <use x="400.769531" xlink:href="#DejaVuSans-72"/>
     </g>
    </g>
   </g>
   <g id="line2d_10">
    <path clip-path="url(#p4c5aa937ee)" d="M 47.675 167.133764 
L 51.844517 162.910278 
L 61.747121 152.688425 
L 64.874259 149.850512 
L 67.480208 147.751087 
L 70.086156 145.925122 
L 72.692105 144.382401 
L 75.298053 143.113299 
L 77.904001 142.090881 
L 81.03114 141.132126 
L 84.679467 140.275501 
L 91.454933 138.992346 
L 97.709209 137.703537 
L 102.399916 136.510162 
L 106.569434 135.226269 
L 110.217762 133.862028 
L 113.3449 132.431707 
L 115.950848 130.983137 
L 118.035607 129.60746 
L 120.120366 127.997475 
L 122.205124 126.11388 
L 124.289883 123.918918 
L 126.374642 121.378842 
L 128.4594 118.466384 
L 130.544159 115.1631 
L 132.628918 111.461468 
L 134.713677 107.366668 
L 137.319625 101.726072 
L 139.925573 95.573345 
L 143.573901 86.31417 
L 152.434126 63.427356 
L 155.040074 57.52214 
L 157.124833 53.369347 
L 158.688402 50.666325 
L 160.251971 48.367383 
L 161.81554 46.513465 
L 162.857919 45.542256 
L 163.900299 44.793087 
L 164.942678 44.273041 
L 165.985057 43.987573 
L 167.027437 43.940437 
L 168.069816 44.133633 
L 169.112195 44.567385 
L 170.154575 45.240143 
L 171.196954 46.148611 
L 172.239333 47.287809 
L 173.802903 49.414411 
L 175.366472 52.016616 
L 176.930041 55.059542 
L 179.014799 59.732328 
L 181.099558 65.011328 
L 183.705506 72.291843 
L 186.832645 81.739759 
L 192.565731 99.988327 
L 198.298817 118.017041 
L 201.947145 128.821047 
L 203.510714 133.221925 
L 203.510714 133.221925 
" style="fill:none;stroke:#1f77b4;stroke-linecap:square;stroke-width:1.5;"/>
   </g>
   <g id="line2d_11">
    <path clip-path="url(#p4c5aa937ee)" d="M 173.91253 173.29375 
L 173.91253 37.774061 
" style="fill:none;stroke:#808080;stroke-dasharray:1.5,2.475;stroke-dashoffset:0;stroke-width:1.5;"/>
   </g>
   <g id="patch_3">
    <path d="M 47.675 173.29375 
L 47.675 37.774061 
" style="fill:none;stroke:#000000;stroke-linecap:square;stroke-linejoin:miter;stroke-width:0.8;"/>
   </g>
   <g id="patch_4">
    <path d="M 47.675 173.29375 
L 203.510714 173.29375 
" style="fill:none;stroke:#000000;stroke-linecap:square;stroke-linejoin:miter;stroke-width:0.8;"/>
   </g>
  </g>
  <g id="axes_2">
   <g id="patch_5">
    <path d="M 263.435714 173.29375 
L 419.271429 173.29375 
L 419.271429 37.774061 
L 263.435714 37.774061 
z
" style="fill:#ffffff;"/>
   </g>
   <g id="matplotlib.axis_3">
    <g id="xtick_6">
     <g id="line2d_12">
      <g>
       <use style="stroke:#000000;stroke-width:0.8;" x="263.435714" xlink:href="#me8c6c7665a" y="173.29375"/>
      </g>
     </g>
     <g id="text_12">
      <!-- 1.0 -->
      <g transform="translate(255.484152 187.892188)scale(0.1 -0.1)">
       <use xlink:href="#DejaVuSans-31"/>
       <use x="63.623047" xlink:href="#DejaVuSans-2e"/>
       <use x="95.410156" xlink:href="#DejaVuSans-30"/>
      </g>
     </g>
    </g>
    <g id="xtick_7">
     <g id="line2d_13">
      <g>
       <use style="stroke:#000000;stroke-width:0.8;" x="302.394643" xlink:href="#me8c6c7665a" y="173.29375"/>
      </g>
     </g>
     <g id="text_13">
      <!-- 1.5 -->
      <g transform="translate(294.44308 187.892188)scale(0.1 -0.1)">
       <use xlink:href="#DejaVuSans-31"/>
       <use x="63.623047" xlink:href="#DejaVuSans-2e"/>
       <use x="95.410156" xlink:href="#DejaVuSans-35"/>
      </g>
     </g>
    </g>
    <g id="xtick_8">
     <g id="line2d_14">
      <g>
       <use style="stroke:#000000;stroke-width:0.8;" x="341.353571" xlink:href="#me8c6c7665a" y="173.29375"/>
      </g>
     </g>
     <g id="text_14">
      <!-- 2.0 -->
      <g transform="translate(333.402009 187.892188)scale(0.1 -0.1)">
       <use xlink:href="#DejaVuSans-32"/>
       <use x="63.623047" xlink:href="#DejaVuSans-2e"/>
       <use x="95.410156" xlink:href="#DejaVuSans-30"/>
      </g>
     </g>
    </g>
    <g id="xtick_9">
     <g id="line2d_15">
      <g>
       <use style="stroke:#000000;stroke-width:0.8;" x="380.3125" xlink:href="#me8c6c7665a" y="173.29375"/>
      </g>
     </g>
     <g id="text_15">
      <!-- 2.5 -->
      <g transform="translate(372.360938 187.892188)scale(0.1 -0.1)">
       <use xlink:href="#DejaVuSans-32"/>
       <use x="63.623047" xlink:href="#DejaVuSans-2e"/>
       <use x="95.410156" xlink:href="#DejaVuSans-35"/>
      </g>
     </g>
    </g>
    <g id="xtick_10">
     <g id="line2d_16">
      <g>
       <use style="stroke:#000000;stroke-width:0.8;" x="419.271429" xlink:href="#me8c6c7665a" y="173.29375"/>
      </g>
     </g>
     <g id="text_16">
      <!-- 3.0 -->
      <g transform="translate(411.319866 187.892188)scale(0.1 -0.1)">
       <use xlink:href="#DejaVuSans-33"/>
       <use x="63.623047" xlink:href="#DejaVuSans-2e"/>
       <use x="95.410156" xlink:href="#DejaVuSans-30"/>
      </g>
     </g>
    </g>
    <g id="text_17">
     <!-- log_division_depth -->
     <g transform="translate(295.043415 201.570312)scale(0.1 -0.1)">
      <defs>
       <path d="M 1159 525 
L 1159 -1331 
L 581 -1331 
L 581 3500 
L 1159 3500 
L 1159 2969 
Q 1341 3281 1617 3432 
Q 1894 3584 2278 3584 
Q 2916 3584 3314 3078 
Q 3713 2572 3713 1747 
Q 3713 922 3314 415 
Q 2916 -91 2278 -91 
Q 1894 -91 1617 61 
Q 1341 213 1159 525 
z
M 3116 1747 
Q 3116 2381 2855 2742 
Q 2594 3103 2138 3103 
Q 1681 3103 1420 2742 
Q 1159 2381 1159 1747 
Q 1159 1113 1420 752 
Q 1681 391 2138 391 
Q 2594 391 2855 752 
Q 3116 1113 3116 1747 
z
" id="DejaVuSans-70" transform="scale(0.015625)"/>
       <path d="M 3513 2113 
L 3513 0 
L 2938 0 
L 2938 2094 
Q 2938 2591 2744 2837 
Q 2550 3084 2163 3084 
Q 1697 3084 1428 2787 
Q 1159 2491 1159 1978 
L 1159 0 
L 581 0 
L 581 4863 
L 1159 4863 
L 1159 2956 
Q 1366 3272 1645 3428 
Q 1925 3584 2291 3584 
Q 2894 3584 3203 3211 
Q 3513 2838 3513 2113 
z
" id="DejaVuSans-68" transform="scale(0.015625)"/>
      </defs>
      <use xlink:href="#DejaVuSans-6c"/>
      <use x="27.783203" xlink:href="#DejaVuSans-6f"/>
      <use x="88.964844" xlink:href="#DejaVuSans-67"/>
      <use x="152.441406" xlink:href="#DejaVuSans-5f"/>
      <use x="202.441406" xlink:href="#DejaVuSans-64"/>
      <use x="265.917969" xlink:href="#DejaVuSans-69"/>
      <use x="293.701172" xlink:href="#DejaVuSans-76"/>
      <use x="352.880859" xlink:href="#DejaVuSans-69"/>
      <use x="380.664062" xlink:href="#DejaVuSans-73"/>
      <use x="432.763672" xlink:href="#DejaVuSans-69"/>
      <use x="460.546875" xlink:href="#DejaVuSans-6f"/>
      <use x="521.728516" xlink:href="#DejaVuSans-6e"/>
      <use x="585.107422" xlink:href="#DejaVuSans-5f"/>
      <use x="635.107422" xlink:href="#DejaVuSans-64"/>
      <use x="698.583984" xlink:href="#DejaVuSans-65"/>
      <use x="760.107422" xlink:href="#DejaVuSans-70"/>
      <use x="823.583984" xlink:href="#DejaVuSans-74"/>
      <use x="862.792969" xlink:href="#DejaVuSans-68"/>
     </g>
    </g>
   </g>
   <g id="matplotlib.axis_4">
    <g id="ytick_5">
     <g id="line2d_17">
      <g>
       <use style="stroke:#000000;stroke-width:0.8;" x="263.435714" xlink:href="#m45140b78ad" y="169.125685"/>
      </g>
     </g>
     <g id="text_18">
      <!-- 0.0 -->
      <g transform="translate(240.532589 172.924904)scale(0.1 -0.1)">
       <use xlink:href="#DejaVuSans-30"/>
       <use x="63.623047" xlink:href="#DejaVuSans-2e"/>
       <use x="95.410156" xlink:href="#DejaVuSans-30"/>
      </g>
     </g>
    </g>
    <g id="ytick_6">
     <g id="line2d_18">
      <g>
       <use style="stroke:#000000;stroke-width:0.8;" x="263.435714" xlink:href="#m45140b78ad" y="125.090903"/>
      </g>
     </g>
     <g id="text_19">
      <!-- 0.5 -->
      <g transform="translate(240.532589 128.890122)scale(0.1 -0.1)">
       <use xlink:href="#DejaVuSans-30"/>
       <use x="63.623047" xlink:href="#DejaVuSans-2e"/>
       <use x="95.410156" xlink:href="#DejaVuSans-35"/>
      </g>
     </g>
    </g>
    <g id="ytick_7">
     <g id="line2d_19">
      <g>
       <use style="stroke:#000000;stroke-width:0.8;" x="263.435714" xlink:href="#m45140b78ad" y="81.056121"/>
      </g>
     </g>
     <g id="text_20">
      <!-- 1.0 -->
      <g transform="translate(240.532589 84.85534)scale(0.1 -0.1)">
       <use xlink:href="#DejaVuSans-31"/>
       <use x="63.623047" xlink:href="#DejaVuSans-2e"/>
       <use x="95.410156" xlink:href="#DejaVuSans-30"/>
      </g>
     </g>
    </g>
    <g id="text_21">
     <!-- Posterior -->
     <g transform="translate(234.452902 127.627656)rotate(-90)scale(0.1 -0.1)">
      <use xlink:href="#DejaVuSans-50"/>
      <use x="56.677734" xlink:href="#DejaVuSans-6f"/>
      <use x="117.859375" xlink:href="#DejaVuSans-73"/>
      <use x="169.958984" xlink:href="#DejaVuSans-74"/>
      <use x="209.167969" xlink:href="#DejaVuSans-65"/>
      <use x="270.691406" xlink:href="#DejaVuSans-72"/>
      <use x="311.804688" xlink:href="#DejaVuSans-69"/>
      <use x="339.587891" xlink:href="#DejaVuSans-6f"/>
      <use x="400.769531" xlink:href="#DejaVuSans-72"/>
     </g>
    </g>
   </g>
   <g id="line2d_20">
    <path clip-path="url(#pd73ac3dcec)" d="M 263.435714 165.020664 
L 265.520473 163.985714 
L 267.084042 163.009231 
L 268.647611 161.810046 
L 270.21118 160.336889 
L 271.774749 158.536421 
L 273.338318 156.356622 
L 274.901887 153.750562 
L 276.465456 150.680229 
L 278.029025 147.120045 
L 279.592594 143.05976 
L 281.677353 136.883002 
L 283.762112 129.899289 
L 286.36806 120.227569 
L 290.016388 105.56977 
L 295.228285 84.519437 
L 297.834233 74.865433 
L 299.918992 67.862228 
L 302.003751 61.622745 
L 303.56732 57.492593 
L 305.130889 53.861848 
L 306.694458 50.752975 
L 308.258027 48.189323 
L 309.300406 46.796175 
L 310.342785 45.666252 
L 311.385165 44.809544 
L 312.427544 44.236745 
L 313.469924 43.958911 
L 314.512303 43.986991 
L 315.554682 44.331256 
L 316.597062 45.000669 
L 317.639441 46.00223 
L 318.68182 47.340318 
L 319.7242 49.016092 
L 320.766579 51.02695 
L 322.330148 54.655434 
L 323.893717 58.979369 
L 325.457286 63.932837 
L 327.542045 71.359732 
L 330.147993 81.580112 
L 336.923459 108.714791 
L 339.008218 116.0432 
L 341.092977 122.504844 
L 342.656546 126.717996 
L 344.220115 130.371126 
L 345.783684 133.472886 
L 347.347253 136.050306 
L 348.910822 138.144534 
L 350.474391 139.806782 
L 352.03796 141.094954 
L 353.601529 142.07115 
L 355.165098 142.799969 
L 357.249857 143.500875 
L 364.546512 145.581961 
L 366.631271 146.574416 
L 368.71603 147.864308 
L 370.800788 149.439983 
L 373.406737 151.719212 
L 380.703392 158.344573 
L 382.788151 159.907755 
L 384.87291 161.233539 
L 386.957668 162.322491 
L 389.042427 163.198032 
L 391.648376 164.047829 
L 394.775514 164.806536 
L 398.423841 165.453849 
L 402.593359 165.974761 
L 407.805256 166.375134 
L 419.271429 167.133764 
L 419.271429 167.133764 
" style="fill:none;stroke:#1f77b4;stroke-linecap:square;stroke-width:1.5;"/>
   </g>
   <g id="line2d_21">
    <path clip-path="url(#pd73ac3dcec)" d="M 341.353571 173.29375 
L 341.353571 37.774061 
" style="fill:none;stroke:#808080;stroke-dasharray:1.5,2.475;stroke-dashoffset:0;stroke-width:1.5;"/>
   </g>
   <g id="patch_6">
    <path d="M 263.435714 173.29375 
L 263.435714 37.774061 
" style="fill:none;stroke:#000000;stroke-linecap:square;stroke-linejoin:miter;stroke-width:0.8;"/>
   </g>
   <g id="patch_7">
    <path d="M 263.435714 173.29375 
L 419.271429 173.29375 
" style="fill:none;stroke:#000000;stroke-linecap:square;stroke-linejoin:miter;stroke-width:0.8;"/>
   </g>
  </g>
  <g id="axes_3">
   <g id="patch_8">
    <path d="M 479.196429 173.29375 
L 635.032143 173.29375 
L 635.032143 37.774061 
L 479.196429 37.774061 
z
" style="fill:#ffffff;"/>
   </g>
   <g id="matplotlib.axis_5">
    <g id="xtick_11">
     <g id="line2d_22">
      <g>
       <use style="stroke:#000000;stroke-width:0.8;" x="479.196429" xlink:href="#me8c6c7665a" y="173.29375"/>
      </g>
     </g>
     <g id="text_22">
      <!-- 0.00 -->
      <g transform="translate(468.063616 187.892188)scale(0.1 -0.1)">
       <use xlink:href="#DejaVuSans-30"/>
       <use x="63.623047" xlink:href="#DejaVuSans-2e"/>
       <use x="95.410156" xlink:href="#DejaVuSans-30"/>
       <use x="159.033203" xlink:href="#DejaVuSans-30"/>
      </g>
     </g>
    </g>
    <g id="xtick_12">
     <g id="line2d_23">
      <g>
       <use style="stroke:#000000;stroke-width:0.8;" x="511.662202" xlink:href="#me8c6c7665a" y="173.29375"/>
      </g>
     </g>
     <g id="text_23">
      <!-- 0.25 -->
      <g transform="translate(500.52939 187.892188)scale(0.1 -0.1)">
       <use xlink:href="#DejaVuSans-30"/>
       <use x="63.623047" xlink:href="#DejaVuSans-2e"/>
       <use x="95.410156" xlink:href="#DejaVuSans-32"/>
       <use x="159.033203" xlink:href="#DejaVuSans-35"/>
      </g>
     </g>
    </g>
    <g id="xtick_13">
     <g id="line2d_24">
      <g>
       <use style="stroke:#000000;stroke-width:0.8;" x="544.127976" xlink:href="#me8c6c7665a" y="173.29375"/>
      </g>
     </g>
     <g id="text_24">
      <!-- 0.50 -->
      <g transform="translate(532.995164 187.892188)scale(0.1 -0.1)">
       <use xlink:href="#DejaVuSans-30"/>
       <use x="63.623047" xlink:href="#DejaVuSans-2e"/>
       <use x="95.410156" xlink:href="#DejaVuSans-35"/>
       <use x="159.033203" xlink:href="#DejaVuSans-30"/>
      </g>
     </g>
    </g>
    <g id="xtick_14">
     <g id="line2d_25">
      <g>
       <use style="stroke:#000000;stroke-width:0.8;" x="576.59375" xlink:href="#me8c6c7665a" y="173.29375"/>
      </g>
     </g>
     <g id="text_25">
      <!-- 0.75 -->
      <g transform="translate(565.460938 187.892188)scale(0.1 -0.1)">
       <defs>
        <path d="M 525 4666 
L 3525 4666 
L 3525 4397 
L 1831 0 
L 1172 0 
L 2766 4134 
L 525 4134 
L 525 4666 
z
" id="DejaVuSans-37" transform="scale(0.015625)"/>
       </defs>
       <use xlink:href="#DejaVuSans-30"/>
       <use x="63.623047" xlink:href="#DejaVuSans-2e"/>
       <use x="95.410156" xlink:href="#DejaVuSans-37"/>
       <use x="159.033203" xlink:href="#DejaVuSans-35"/>
      </g>
     </g>
    </g>
    <g id="xtick_15">
     <g id="line2d_26">
      <g>
       <use style="stroke:#000000;stroke-width:0.8;" x="609.059524" xlink:href="#me8c6c7665a" y="173.29375"/>
      </g>
     </g>
     <g id="text_26">
      <!-- 1.00 -->
      <g transform="translate(597.926711 187.892188)scale(0.1 -0.1)">
       <use xlink:href="#DejaVuSans-31"/>
       <use x="63.623047" xlink:href="#DejaVuSans-2e"/>
       <use x="95.410156" xlink:href="#DejaVuSans-30"/>
       <use x="159.033203" xlink:href="#DejaVuSans-30"/>
      </g>
     </g>
    </g>
    <g id="text_27">
     <!-- log_initial_spheroid_radius -->
     <g transform="translate(491.196317 201.570312)scale(0.1 -0.1)">
      <defs>
       <path d="M 544 1381 
L 544 3500 
L 1119 3500 
L 1119 1403 
Q 1119 906 1312 657 
Q 1506 409 1894 409 
Q 2359 409 2629 706 
Q 2900 1003 2900 1516 
L 2900 3500 
L 3475 3500 
L 3475 0 
L 2900 0 
L 2900 538 
Q 2691 219 2414 64 
Q 2138 -91 1772 -91 
Q 1169 -91 856 284 
Q 544 659 544 1381 
z
M 1991 3584 
L 1991 3584 
z
" id="DejaVuSans-75" transform="scale(0.015625)"/>
      </defs>
      <use xlink:href="#DejaVuSans-6c"/>
      <use x="27.783203" xlink:href="#DejaVuSans-6f"/>
      <use x="88.964844" xlink:href="#DejaVuSans-67"/>
      <use x="152.441406" xlink:href="#DejaVuSans-5f"/>
      <use x="202.441406" xlink:href="#DejaVuSans-69"/>
      <use x="230.224609" xlink:href="#DejaVuSans-6e"/>
      <use x="293.603516" xlink:href="#DejaVuSans-69"/>
      <use x="321.386719" xlink:href="#DejaVuSans-74"/>
      <use x="360.595703" xlink:href="#DejaVuSans-69"/>
      <use x="388.378906" xlink:href="#DejaVuSans-61"/>
      <use x="449.658203" xlink:href="#DejaVuSans-6c"/>
      <use x="477.441406" xlink:href="#DejaVuSans-5f"/>
      <use x="527.441406" xlink:href="#DejaVuSans-73"/>
      <use x="579.541016" xlink:href="#DejaVuSans-70"/>
      <use x="643.017578" xlink:href="#DejaVuSans-68"/>
      <use x="706.396484" xlink:href="#DejaVuSans-65"/>
      <use x="767.919922" xlink:href="#DejaVuSans-72"/>
      <use x="806.783203" xlink:href="#DejaVuSans-6f"/>
      <use x="867.964844" xlink:href="#DejaVuSans-69"/>
      <use x="895.748047" xlink:href="#DejaVuSans-64"/>
      <use x="959.224609" xlink:href="#DejaVuSans-5f"/>
      <use x="1009.224609" xlink:href="#DejaVuSans-72"/>
      <use x="1050.337891" xlink:href="#DejaVuSans-61"/>
      <use x="1111.617188" xlink:href="#DejaVuSans-64"/>
      <use x="1175.09375" xlink:href="#DejaVuSans-69"/>
      <use x="1202.876953" xlink:href="#DejaVuSans-75"/>
      <use x="1266.255859" xlink:href="#DejaVuSans-73"/>
     </g>
    </g>
   </g>
   <g id="matplotlib.axis_6">
    <g id="ytick_8">
     <g id="line2d_27">
      <g>
       <use style="stroke:#000000;stroke-width:0.8;" x="479.196429" xlink:href="#m45140b78ad" y="158.949159"/>
      </g>
     </g>
     <g id="text_28">
      <!-- 0.25 -->
      <g transform="translate(449.930804 162.748378)scale(0.1 -0.1)">
       <use xlink:href="#DejaVuSans-30"/>
       <use x="63.623047" xlink:href="#DejaVuSans-2e"/>
       <use x="95.410156" xlink:href="#DejaVuSans-32"/>
       <use x="159.033203" xlink:href="#DejaVuSans-35"/>
      </g>
     </g>
    </g>
    <g id="ytick_9">
     <g id="line2d_28">
      <g>
       <use style="stroke:#000000;stroke-width:0.8;" x="479.196429" xlink:href="#m45140b78ad" y="135.266261"/>
      </g>
     </g>
     <g id="text_29">
      <!-- 0.50 -->
      <g transform="translate(449.930804 139.06548)scale(0.1 -0.1)">
       <use xlink:href="#DejaVuSans-30"/>
       <use x="63.623047" xlink:href="#DejaVuSans-2e"/>
       <use x="95.410156" xlink:href="#DejaVuSans-35"/>
       <use x="159.033203" xlink:href="#DejaVuSans-30"/>
      </g>
     </g>
    </g>
    <g id="ytick_10">
     <g id="line2d_29">
      <g>
       <use style="stroke:#000000;stroke-width:0.8;" x="479.196429" xlink:href="#m45140b78ad" y="111.583364"/>
      </g>
     </g>
     <g id="text_30">
      <!-- 0.75 -->
      <g transform="translate(449.930804 115.382583)scale(0.1 -0.1)">
       <use xlink:href="#DejaVuSans-30"/>
       <use x="63.623047" xlink:href="#DejaVuSans-2e"/>
       <use x="95.410156" xlink:href="#DejaVuSans-37"/>
       <use x="159.033203" xlink:href="#DejaVuSans-35"/>
      </g>
     </g>
    </g>
    <g id="ytick_11">
     <g id="line2d_30">
      <g>
       <use style="stroke:#000000;stroke-width:0.8;" x="479.196429" xlink:href="#m45140b78ad" y="87.900467"/>
      </g>
     </g>
     <g id="text_31">
      <!-- 1.00 -->
      <g transform="translate(449.930804 91.699685)scale(0.1 -0.1)">
       <use xlink:href="#DejaVuSans-31"/>
       <use x="63.623047" xlink:href="#DejaVuSans-2e"/>
       <use x="95.410156" xlink:href="#DejaVuSans-30"/>
       <use x="159.033203" xlink:href="#DejaVuSans-30"/>
      </g>
     </g>
    </g>
    <g id="ytick_12">
     <g id="line2d_31">
      <g>
       <use style="stroke:#000000;stroke-width:0.8;" x="479.196429" xlink:href="#m45140b78ad" y="64.217569"/>
      </g>
     </g>
     <g id="text_32">
      <!-- 1.25 -->
      <g transform="translate(449.930804 68.016788)scale(0.1 -0.1)">
       <use xlink:href="#DejaVuSans-31"/>
       <use x="63.623047" xlink:href="#DejaVuSans-2e"/>
       <use x="95.410156" xlink:href="#DejaVuSans-32"/>
       <use x="159.033203" xlink:href="#DejaVuSans-35"/>
      </g>
     </g>
    </g>
    <g id="ytick_13">
     <g id="line2d_32">
      <g>
       <use style="stroke:#000000;stroke-width:0.8;" x="479.196429" xlink:href="#m45140b78ad" y="40.534672"/>
      </g>
     </g>
     <g id="text_33">
      <!-- 1.50 -->
      <g transform="translate(449.930804 44.33389)scale(0.1 -0.1)">
       <use xlink:href="#DejaVuSans-31"/>
       <use x="63.623047" xlink:href="#DejaVuSans-2e"/>
       <use x="95.410156" xlink:href="#DejaVuSans-35"/>
       <use x="159.033203" xlink:href="#DejaVuSans-30"/>
      </g>
     </g>
    </g>
    <g id="text_34">
     <!-- Posterior -->
     <g transform="translate(443.851116 127.627656)rotate(-90)scale(0.1 -0.1)">
      <use xlink:href="#DejaVuSans-50"/>
      <use x="56.677734" xlink:href="#DejaVuSans-6f"/>
      <use x="117.859375" xlink:href="#DejaVuSans-73"/>
      <use x="169.958984" xlink:href="#DejaVuSans-74"/>
      <use x="209.167969" xlink:href="#DejaVuSans-65"/>
      <use x="270.691406" xlink:href="#DejaVuSans-72"/>
      <use x="311.804688" xlink:href="#DejaVuSans-69"/>
      <use x="339.587891" xlink:href="#DejaVuSans-6f"/>
      <use x="400.769531" xlink:href="#DejaVuSans-72"/>
     </g>
    </g>
   </g>
   <g id="line2d_33">
    <path clip-path="url(#pde974f1e59)" d="M 479.196429 167.133764 
L 482.844756 163.791981 
L 486.493084 160.165192 
L 490.662602 155.691279 
L 494.832119 150.89437 
L 500.565205 143.907201 
L 507.861861 135.029685 
L 510.988999 131.576977 
L 513.594947 129.015138 
L 515.679706 127.230087 
L 517.764465 125.717911 
L 519.849224 124.504894 
L 521.933982 123.607104 
L 523.497551 123.143787 
L 525.06112 122.857944 
L 527.145879 122.741101 
L 529.230638 122.902064 
L 531.315397 123.304398 
L 533.921345 124.076715 
L 537.048483 125.259944 
L 543.302759 127.703294 
L 545.908708 128.4554 
L 547.993466 128.840964 
L 550.078225 128.986525 
L 552.162984 128.854665 
L 553.726553 128.554917 
L 555.290122 128.071006 
L 556.853691 127.394217 
L 558.41726 126.517597 
L 559.980829 125.435777 
L 562.065588 123.667452 
L 564.150346 121.521206 
L 566.235105 118.994013 
L 568.319864 116.085656 
L 570.404623 112.798823 
L 572.489381 109.139746 
L 575.09533 104.059858 
L 577.701278 98.452901 
L 580.828416 91.115932 
L 584.476744 81.933933 
L 591.773399 63.300421 
L 594.379348 57.31431 
L 596.464107 53.081352 
L 598.027676 50.327187 
L 599.591245 47.999614 
L 601.154814 46.153704 
L 602.197193 45.215208 
L 603.239572 44.525439 
L 604.281952 44.095363 
L 605.324331 43.934047 
L 606.36671 44.048499 
L 607.40909 44.443555 
L 608.451469 45.121784 
L 609.493849 46.083441 
L 610.536228 47.326448 
L 611.578607 48.84641 
L 613.142176 51.630494 
L 614.705745 54.990759 
L 616.269314 58.88572 
L 618.354073 64.822901 
L 620.438832 71.48238 
L 623.04478 80.587302 
L 626.693108 94.223479 
L 633.468574 119.70129 
L 635.032143 125.23387 
L 635.032143 125.23387 
" style="fill:none;stroke:#1f77b4;stroke-linecap:square;stroke-width:1.5;"/>
   </g>
   <g id="line2d_34">
    <path clip-path="url(#pde974f1e59)" d="M 619.342246 173.29375 
L 619.342246 37.774061 
" style="fill:none;stroke:#808080;stroke-dasharray:1.5,2.475;stroke-dashoffset:0;stroke-width:1.5;"/>
   </g>
   <g id="patch_9">
    <path d="M 479.196429 173.29375 
L 479.196429 37.774061 
" style="fill:none;stroke:#000000;stroke-linecap:square;stroke-linejoin:miter;stroke-width:0.8;"/>
   </g>
   <g id="patch_10">
    <path d="M 479.196429 173.29375 
L 635.032143 173.29375 
" style="fill:none;stroke:#000000;stroke-linecap:square;stroke-linejoin:miter;stroke-width:0.8;"/>
   </g>
  </g>
  <g id="axes_4">
   <g id="patch_11">
    <path d="M 694.957143 173.29375 
L 850.792857 173.29375 
L 850.792857 37.774061 
L 694.957143 37.774061 
z
" style="fill:#ffffff;"/>
   </g>
   <g id="matplotlib.axis_7">
    <g id="xtick_16">
     <g id="line2d_35">
      <g>
       <use style="stroke:#000000;stroke-width:0.8;" x="694.957143" xlink:href="#me8c6c7665a" y="173.29375"/>
      </g>
     </g>
     <g id="text_35">
      <!-- −5 -->
      <g transform="translate(687.586049 187.892188)scale(0.1 -0.1)">
       <use xlink:href="#DejaVuSans-2212"/>
       <use x="83.789062" xlink:href="#DejaVuSans-35"/>
      </g>
     </g>
    </g>
    <g id="xtick_17">
     <g id="line2d_36">
      <g>
       <use style="stroke:#000000;stroke-width:0.8;" x="726.124286" xlink:href="#me8c6c7665a" y="173.29375"/>
      </g>
     </g>
     <g id="text_36">
      <!-- −4 -->
      <g transform="translate(718.753192 187.892188)scale(0.1 -0.1)">
       <use xlink:href="#DejaVuSans-2212"/>
       <use x="83.789062" xlink:href="#DejaVuSans-34"/>
      </g>
     </g>
    </g>
    <g id="xtick_18">
     <g id="line2d_37">
      <g>
       <use style="stroke:#000000;stroke-width:0.8;" x="757.291429" xlink:href="#me8c6c7665a" y="173.29375"/>
      </g>
     </g>
     <g id="text_37">
      <!-- −3 -->
      <g transform="translate(749.920335 187.892188)scale(0.1 -0.1)">
       <use xlink:href="#DejaVuSans-2212"/>
       <use x="83.789062" xlink:href="#DejaVuSans-33"/>
      </g>
     </g>
    </g>
    <g id="xtick_19">
     <g id="line2d_38">
      <g>
       <use style="stroke:#000000;stroke-width:0.8;" x="788.458571" xlink:href="#me8c6c7665a" y="173.29375"/>
      </g>
     </g>
     <g id="text_38">
      <!-- −2 -->
      <g transform="translate(781.087478 187.892188)scale(0.1 -0.1)">
       <use xlink:href="#DejaVuSans-2212"/>
       <use x="83.789062" xlink:href="#DejaVuSans-32"/>
      </g>
     </g>
    </g>
    <g id="xtick_20">
     <g id="line2d_39">
      <g>
       <use style="stroke:#000000;stroke-width:0.8;" x="819.625714" xlink:href="#me8c6c7665a" y="173.29375"/>
      </g>
     </g>
     <g id="text_39">
      <!-- −1 -->
      <g transform="translate(812.254621 187.892188)scale(0.1 -0.1)">
       <use xlink:href="#DejaVuSans-2212"/>
       <use x="83.789062" xlink:href="#DejaVuSans-31"/>
      </g>
     </g>
    </g>
    <g id="xtick_21">
     <g id="line2d_40">
      <g>
       <use style="stroke:#000000;stroke-width:0.8;" x="850.792857" xlink:href="#me8c6c7665a" y="173.29375"/>
      </g>
     </g>
     <g id="text_40">
      <!-- 0 -->
      <g transform="translate(847.611607 187.892188)scale(0.1 -0.1)">
       <use xlink:href="#DejaVuSans-30"/>
      </g>
     </g>
    </g>
    <g id="text_41">
     <!-- log_initial_quiescent_cell_fraction -->
     <g transform="translate(689.325 201.570312)scale(0.1 -0.1)">
      <defs>
       <path d="M 947 1747 
Q 947 1113 1208 752 
Q 1469 391 1925 391 
Q 2381 391 2643 752 
Q 2906 1113 2906 1747 
Q 2906 2381 2643 2742 
Q 2381 3103 1925 3103 
Q 1469 3103 1208 2742 
Q 947 2381 947 1747 
z
M 2906 525 
Q 2725 213 2448 61 
Q 2172 -91 1784 -91 
Q 1150 -91 751 415 
Q 353 922 353 1747 
Q 353 2572 751 3078 
Q 1150 3584 1784 3584 
Q 2172 3584 2448 3432 
Q 2725 3281 2906 2969 
L 2906 3500 
L 3481 3500 
L 3481 -1331 
L 2906 -1331 
L 2906 525 
z
" id="DejaVuSans-71" transform="scale(0.015625)"/>
       <path d="M 3122 3366 
L 3122 2828 
Q 2878 2963 2633 3030 
Q 2388 3097 2138 3097 
Q 1578 3097 1268 2742 
Q 959 2388 959 1747 
Q 959 1106 1268 751 
Q 1578 397 2138 397 
Q 2388 397 2633 464 
Q 2878 531 3122 666 
L 3122 134 
Q 2881 22 2623 -34 
Q 2366 -91 2075 -91 
Q 1284 -91 818 406 
Q 353 903 353 1747 
Q 353 2603 823 3093 
Q 1294 3584 2113 3584 
Q 2378 3584 2631 3529 
Q 2884 3475 3122 3366 
z
" id="DejaVuSans-63" transform="scale(0.015625)"/>
       <path d="M 2375 4863 
L 2375 4384 
L 1825 4384 
Q 1516 4384 1395 4259 
Q 1275 4134 1275 3809 
L 1275 3500 
L 2222 3500 
L 2222 3053 
L 1275 3053 
L 1275 0 
L 697 0 
L 697 3053 
L 147 3053 
L 147 3500 
L 697 3500 
L 697 3744 
Q 697 4328 969 4595 
Q 1241 4863 1831 4863 
L 2375 4863 
z
" id="DejaVuSans-66" transform="scale(0.015625)"/>
      </defs>
      <use xlink:href="#DejaVuSans-6c"/>
      <use x="27.783203" xlink:href="#DejaVuSans-6f"/>
      <use x="88.964844" xlink:href="#DejaVuSans-67"/>
      <use x="152.441406" xlink:href="#DejaVuSans-5f"/>
      <use x="202.441406" xlink:href="#DejaVuSans-69"/>
      <use x="230.224609" xlink:href="#DejaVuSans-6e"/>
      <use x="293.603516" xlink:href="#DejaVuSans-69"/>
      <use x="321.386719" xlink:href="#DejaVuSans-74"/>
      <use x="360.595703" xlink:href="#DejaVuSans-69"/>
      <use x="388.378906" xlink:href="#DejaVuSans-61"/>
      <use x="449.658203" xlink:href="#DejaVuSans-6c"/>
      <use x="477.441406" xlink:href="#DejaVuSans-5f"/>
      <use x="527.441406" xlink:href="#DejaVuSans-71"/>
      <use x="590.917969" xlink:href="#DejaVuSans-75"/>
      <use x="654.296875" xlink:href="#DejaVuSans-69"/>
      <use x="682.080078" xlink:href="#DejaVuSans-65"/>
      <use x="743.603516" xlink:href="#DejaVuSans-73"/>
      <use x="795.703125" xlink:href="#DejaVuSans-63"/>
      <use x="850.683594" xlink:href="#DejaVuSans-65"/>
      <use x="912.207031" xlink:href="#DejaVuSans-6e"/>
      <use x="975.585938" xlink:href="#DejaVuSans-74"/>
      <use x="1014.794922" xlink:href="#DejaVuSans-5f"/>
      <use x="1064.794922" xlink:href="#DejaVuSans-63"/>
      <use x="1119.775391" xlink:href="#DejaVuSans-65"/>
      <use x="1181.298828" xlink:href="#DejaVuSans-6c"/>
      <use x="1209.082031" xlink:href="#DejaVuSans-6c"/>
      <use x="1236.865234" xlink:href="#DejaVuSans-5f"/>
      <use x="1286.865234" xlink:href="#DejaVuSans-66"/>
      <use x="1322.070312" xlink:href="#DejaVuSans-72"/>
      <use x="1363.183594" xlink:href="#DejaVuSans-61"/>
      <use x="1424.462891" xlink:href="#DejaVuSans-63"/>
      <use x="1479.443359" xlink:href="#DejaVuSans-74"/>
      <use x="1518.652344" xlink:href="#DejaVuSans-69"/>
      <use x="1546.435547" xlink:href="#DejaVuSans-6f"/>
      <use x="1607.617188" xlink:href="#DejaVuSans-6e"/>
     </g>
    </g>
   </g>
   <g id="matplotlib.axis_8">
    <g id="ytick_14">
     <g id="line2d_41">
      <g>
       <use style="stroke:#000000;stroke-width:0.8;" x="694.957143" xlink:href="#m45140b78ad" y="173.270592"/>
      </g>
     </g>
     <g id="text_42">
      <!-- 0.05 -->
      <g transform="translate(665.691518 177.069811)scale(0.1 -0.1)">
       <use xlink:href="#DejaVuSans-30"/>
       <use x="63.623047" xlink:href="#DejaVuSans-2e"/>
       <use x="95.410156" xlink:href="#DejaVuSans-30"/>
       <use x="159.033203" xlink:href="#DejaVuSans-35"/>
      </g>
     </g>
    </g>
    <g id="ytick_15">
     <g id="line2d_42">
      <g>
       <use style="stroke:#000000;stroke-width:0.8;" x="694.957143" xlink:href="#m45140b78ad" y="142.540074"/>
      </g>
     </g>
     <g id="text_43">
      <!-- 0.10 -->
      <g transform="translate(665.691518 146.339293)scale(0.1 -0.1)">
       <use xlink:href="#DejaVuSans-30"/>
       <use x="63.623047" xlink:href="#DejaVuSans-2e"/>
       <use x="95.410156" xlink:href="#DejaVuSans-31"/>
       <use x="159.033203" xlink:href="#DejaVuSans-30"/>
      </g>
     </g>
    </g>
    <g id="ytick_16">
     <g id="line2d_43">
      <g>
       <use style="stroke:#000000;stroke-width:0.8;" x="694.957143" xlink:href="#m45140b78ad" y="111.809557"/>
      </g>
     </g>
     <g id="text_44">
      <!-- 0.15 -->
      <g transform="translate(665.691518 115.608776)scale(0.1 -0.1)">
       <use xlink:href="#DejaVuSans-30"/>
       <use x="63.623047" xlink:href="#DejaVuSans-2e"/>
       <use x="95.410156" xlink:href="#DejaVuSans-31"/>
       <use x="159.033203" xlink:href="#DejaVuSans-35"/>
      </g>
     </g>
    </g>
    <g id="ytick_17">
     <g id="line2d_44">
      <g>
       <use style="stroke:#000000;stroke-width:0.8;" x="694.957143" xlink:href="#m45140b78ad" y="81.07904"/>
      </g>
     </g>
     <g id="text_45">
      <!-- 0.20 -->
      <g transform="translate(665.691518 84.878258)scale(0.1 -0.1)">
       <use xlink:href="#DejaVuSans-30"/>
       <use x="63.623047" xlink:href="#DejaVuSans-2e"/>
       <use x="95.410156" xlink:href="#DejaVuSans-32"/>
       <use x="159.033203" xlink:href="#DejaVuSans-30"/>
      </g>
     </g>
    </g>
    <g id="ytick_18">
     <g id="line2d_45">
      <g>
       <use style="stroke:#000000;stroke-width:0.8;" x="694.957143" xlink:href="#m45140b78ad" y="50.348522"/>
      </g>
     </g>
     <g id="text_46">
      <!-- 0.25 -->
      <g transform="translate(665.691518 54.147741)scale(0.1 -0.1)">
       <use xlink:href="#DejaVuSans-30"/>
       <use x="63.623047" xlink:href="#DejaVuSans-2e"/>
       <use x="95.410156" xlink:href="#DejaVuSans-32"/>
       <use x="159.033203" xlink:href="#DejaVuSans-35"/>
      </g>
     </g>
    </g>
    <g id="text_47">
     <!-- Posterior -->
     <g transform="translate(659.61183 127.627656)rotate(-90)scale(0.1 -0.1)">
      <use xlink:href="#DejaVuSans-50"/>
      <use x="56.677734" xlink:href="#DejaVuSans-6f"/>
      <use x="117.859375" xlink:href="#DejaVuSans-73"/>
      <use x="169.958984" xlink:href="#DejaVuSans-74"/>
      <use x="209.167969" xlink:href="#DejaVuSans-65"/>
      <use x="270.691406" xlink:href="#DejaVuSans-72"/>
      <use x="311.804688" xlink:href="#DejaVuSans-69"/>
      <use x="339.587891" xlink:href="#DejaVuSans-6f"/>
      <use x="400.769531" xlink:href="#DejaVuSans-72"/>
     </g>
    </g>
   </g>
   <g id="line2d_46">
    <path clip-path="url(#p91cba45b0c)" d="M 694.957143 167.133764 
L 697.563091 160.425337 
L 700.16904 153.140145 
L 703.296178 143.744692 
L 707.465695 130.392255 
L 720.495437 87.855979 
L 723.622575 78.672919 
L 726.228524 71.618717 
L 728.834472 65.208334 
L 730.919231 60.600455 
L 733.003989 56.497533 
L 735.088748 52.934205 
L 736.652317 50.633844 
L 738.215886 48.66403 
L 739.779455 47.032687 
L 741.343024 45.745014 
L 742.906593 44.80307 
L 744.470162 44.205375 
L 746.033731 43.946547 
L 747.597301 44.017027 
L 749.16087 44.402908 
L 750.724439 45.085904 
L 752.288008 46.043477 
L 753.851577 47.249127 
L 755.936335 49.190291 
L 758.021094 51.440164 
L 761.148232 55.208742 
L 770.008457 66.221597 
L 772.614405 69.04451 
L 775.220354 71.556203 
L 777.826302 73.7521 
L 780.43225 75.663042 
L 783.559388 77.662962 
L 788.250096 80.335512 
L 794.504372 83.922766 
L 798.673889 86.57203 
L 804.928165 90.851124 
L 810.661252 94.691051 
L 815.351959 97.542164 
L 824.733373 103.086822 
L 827.339322 104.992311 
L 829.42408 106.775531 
L 831.508839 108.850494 
L 833.593598 111.266567 
L 835.678356 114.06201 
L 837.763115 117.260803 
L 839.847874 120.870298 
L 841.932633 124.879915 
L 844.538581 130.409223 
L 847.665719 137.674991 
L 850.792857 145.412787 
L 850.792857 145.412787 
" style="fill:none;stroke:#1f77b4;stroke-linecap:square;stroke-width:1.5;"/>
   </g>
   <g id="line2d_47">
    <path clip-path="url(#p91cba45b0c)" d="M 846.898874 173.29375 
L 846.898874 37.774061 
" style="fill:none;stroke:#808080;stroke-dasharray:1.5,2.475;stroke-dashoffset:0;stroke-width:1.5;"/>
   </g>
   <g id="patch_12">
    <path d="M 694.957143 173.29375 
L 694.957143 37.774061 
" style="fill:none;stroke:#000000;stroke-linecap:square;stroke-linejoin:miter;stroke-width:0.8;"/>
   </g>
   <g id="patch_13">
    <path d="M 694.957143 173.29375 
L 850.792857 173.29375 
" style="fill:none;stroke:#000000;stroke-linecap:square;stroke-linejoin:miter;stroke-width:0.8;"/>
   </g>
  </g>
  <g id="axes_5">
   <g id="patch_14">
    <path d="M 910.717857 173.29375 
L 1066.553571 173.29375 
L 1066.553571 37.774061 
L 910.717857 37.774061 
z
" style="fill:#ffffff;"/>
   </g>
   <g id="matplotlib.axis_9">
    <g id="xtick_22">
     <g id="line2d_48">
      <g>
       <use style="stroke:#000000;stroke-width:0.8;" x="910.717857" xlink:href="#me8c6c7665a" y="173.29375"/>
      </g>
     </g>
     <g id="text_48">
      <!-- −5 -->
      <g transform="translate(903.346763 187.892188)scale(0.1 -0.1)">
       <use xlink:href="#DejaVuSans-2212"/>
       <use x="83.789062" xlink:href="#DejaVuSans-35"/>
      </g>
     </g>
    </g>
    <g id="xtick_23">
     <g id="line2d_49">
      <g>
       <use style="stroke:#000000;stroke-width:0.8;" x="941.885" xlink:href="#me8c6c7665a" y="173.29375"/>
      </g>
     </g>
     <g id="text_49">
      <!-- −4 -->
      <g transform="translate(934.513906 187.892188)scale(0.1 -0.1)">
       <use xlink:href="#DejaVuSans-2212"/>
       <use x="83.789062" xlink:href="#DejaVuSans-34"/>
      </g>
     </g>
    </g>
    <g id="xtick_24">
     <g id="line2d_50">
      <g>
       <use style="stroke:#000000;stroke-width:0.8;" x="973.052143" xlink:href="#me8c6c7665a" y="173.29375"/>
      </g>
     </g>
     <g id="text_50">
      <!-- −3 -->
      <g transform="translate(965.681049 187.892188)scale(0.1 -0.1)">
       <use xlink:href="#DejaVuSans-2212"/>
       <use x="83.789062" xlink:href="#DejaVuSans-33"/>
      </g>
     </g>
    </g>
    <g id="xtick_25">
     <g id="line2d_51">
      <g>
       <use style="stroke:#000000;stroke-width:0.8;" x="1004.219286" xlink:href="#me8c6c7665a" y="173.29375"/>
      </g>
     </g>
     <g id="text_51">
      <!-- −2 -->
      <g transform="translate(996.848192 187.892188)scale(0.1 -0.1)">
       <use xlink:href="#DejaVuSans-2212"/>
       <use x="83.789062" xlink:href="#DejaVuSans-32"/>
      </g>
     </g>
    </g>
    <g id="xtick_26">
     <g id="line2d_52">
      <g>
       <use style="stroke:#000000;stroke-width:0.8;" x="1035.386429" xlink:href="#me8c6c7665a" y="173.29375"/>
      </g>
     </g>
     <g id="text_52">
      <!-- −1 -->
      <g transform="translate(1028.015335 187.892188)scale(0.1 -0.1)">
       <use xlink:href="#DejaVuSans-2212"/>
       <use x="83.789062" xlink:href="#DejaVuSans-31"/>
      </g>
     </g>
    </g>
    <g id="xtick_27">
     <g id="line2d_53">
      <g>
       <use style="stroke:#000000;stroke-width:0.8;" x="1066.553571" xlink:href="#me8c6c7665a" y="173.29375"/>
      </g>
     </g>
     <g id="text_53">
      <!-- 0 -->
      <g transform="translate(1063.372321 187.892188)scale(0.1 -0.1)">
       <use xlink:href="#DejaVuSans-30"/>
      </g>
     </g>
    </g>
    <g id="text_54">
     <!-- log_ecm_production_rate -->
     <g transform="translate(925.814621 201.570312)scale(0.1 -0.1)">
      <defs>
       <path d="M 3328 2828 
Q 3544 3216 3844 3400 
Q 4144 3584 4550 3584 
Q 5097 3584 5394 3201 
Q 5691 2819 5691 2113 
L 5691 0 
L 5113 0 
L 5113 2094 
Q 5113 2597 4934 2840 
Q 4756 3084 4391 3084 
Q 3944 3084 3684 2787 
Q 3425 2491 3425 1978 
L 3425 0 
L 2847 0 
L 2847 2094 
Q 2847 2600 2669 2842 
Q 2491 3084 2119 3084 
Q 1678 3084 1418 2786 
Q 1159 2488 1159 1978 
L 1159 0 
L 581 0 
L 581 3500 
L 1159 3500 
L 1159 2956 
Q 1356 3278 1631 3431 
Q 1906 3584 2284 3584 
Q 2666 3584 2933 3390 
Q 3200 3197 3328 2828 
z
" id="DejaVuSans-6d" transform="scale(0.015625)"/>
      </defs>
      <use xlink:href="#DejaVuSans-6c"/>
      <use x="27.783203" xlink:href="#DejaVuSans-6f"/>
      <use x="88.964844" xlink:href="#DejaVuSans-67"/>
      <use x="152.441406" xlink:href="#DejaVuSans-5f"/>
      <use x="202.441406" xlink:href="#DejaVuSans-65"/>
      <use x="263.964844" xlink:href="#DejaVuSans-63"/>
      <use x="318.945312" xlink:href="#DejaVuSans-6d"/>
      <use x="416.357422" xlink:href="#DejaVuSans-5f"/>
      <use x="466.357422" xlink:href="#DejaVuSans-70"/>
      <use x="529.833984" xlink:href="#DejaVuSans-72"/>
      <use x="568.697266" xlink:href="#DejaVuSans-6f"/>
      <use x="629.878906" xlink:href="#DejaVuSans-64"/>
      <use x="693.355469" xlink:href="#DejaVuSans-75"/>
      <use x="756.734375" xlink:href="#DejaVuSans-63"/>
      <use x="811.714844" xlink:href="#DejaVuSans-74"/>
      <use x="850.923828" xlink:href="#DejaVuSans-69"/>
      <use x="878.707031" xlink:href="#DejaVuSans-6f"/>
      <use x="939.888672" xlink:href="#DejaVuSans-6e"/>
      <use x="1003.267578" xlink:href="#DejaVuSans-5f"/>
      <use x="1053.267578" xlink:href="#DejaVuSans-72"/>
      <use x="1094.380859" xlink:href="#DejaVuSans-61"/>
      <use x="1155.660156" xlink:href="#DejaVuSans-74"/>
      <use x="1194.869141" xlink:href="#DejaVuSans-65"/>
     </g>
    </g>
   </g>
   <g id="matplotlib.axis_10">
    <g id="ytick_19">
     <g id="line2d_54">
      <g>
       <use style="stroke:#000000;stroke-width:0.8;" x="910.717857" xlink:href="#m45140b78ad" y="167.133765"/>
      </g>
     </g>
     <g id="text_55">
      <!-- 0.0 -->
      <g transform="translate(887.814732 170.932984)scale(0.1 -0.1)">
       <use xlink:href="#DejaVuSans-30"/>
       <use x="63.623047" xlink:href="#DejaVuSans-2e"/>
       <use x="95.410156" xlink:href="#DejaVuSans-30"/>
      </g>
     </g>
    </g>
    <g id="ytick_20">
     <g id="line2d_55">
      <g>
       <use style="stroke:#000000;stroke-width:0.8;" x="910.717857" xlink:href="#m45140b78ad" y="143.089951"/>
      </g>
     </g>
     <g id="text_56">
      <!-- 0.1 -->
      <g transform="translate(887.814732 146.889169)scale(0.1 -0.1)">
       <use xlink:href="#DejaVuSans-30"/>
       <use x="63.623047" xlink:href="#DejaVuSans-2e"/>
       <use x="95.410156" xlink:href="#DejaVuSans-31"/>
      </g>
     </g>
    </g>
    <g id="ytick_21">
     <g id="line2d_56">
      <g>
       <use style="stroke:#000000;stroke-width:0.8;" x="910.717857" xlink:href="#m45140b78ad" y="119.046136"/>
      </g>
     </g>
     <g id="text_57">
      <!-- 0.2 -->
      <g transform="translate(887.814732 122.845355)scale(0.1 -0.1)">
       <use xlink:href="#DejaVuSans-30"/>
       <use x="63.623047" xlink:href="#DejaVuSans-2e"/>
       <use x="95.410156" xlink:href="#DejaVuSans-32"/>
      </g>
     </g>
    </g>
    <g id="ytick_22">
     <g id="line2d_57">
      <g>
       <use style="stroke:#000000;stroke-width:0.8;" x="910.717857" xlink:href="#m45140b78ad" y="95.002322"/>
      </g>
     </g>
     <g id="text_58">
      <!-- 0.3 -->
      <g transform="translate(887.814732 98.801541)scale(0.1 -0.1)">
       <use xlink:href="#DejaVuSans-30"/>
       <use x="63.623047" xlink:href="#DejaVuSans-2e"/>
       <use x="95.410156" xlink:href="#DejaVuSans-33"/>
      </g>
     </g>
    </g>
    <g id="ytick_23">
     <g id="line2d_58">
      <g>
       <use style="stroke:#000000;stroke-width:0.8;" x="910.717857" xlink:href="#m45140b78ad" y="70.958508"/>
      </g>
     </g>
     <g id="text_59">
      <!-- 0.4 -->
      <g transform="translate(887.814732 74.757726)scale(0.1 -0.1)">
       <use xlink:href="#DejaVuSans-30"/>
       <use x="63.623047" xlink:href="#DejaVuSans-2e"/>
       <use x="95.410156" xlink:href="#DejaVuSans-34"/>
      </g>
     </g>
    </g>
    <g id="ytick_24">
     <g id="line2d_59">
      <g>
       <use style="stroke:#000000;stroke-width:0.8;" x="910.717857" xlink:href="#m45140b78ad" y="46.914693"/>
      </g>
     </g>
     <g id="text_60">
      <!-- 0.5 -->
      <g transform="translate(887.814732 50.713912)scale(0.1 -0.1)">
       <use xlink:href="#DejaVuSans-30"/>
       <use x="63.623047" xlink:href="#DejaVuSans-2e"/>
       <use x="95.410156" xlink:href="#DejaVuSans-35"/>
      </g>
     </g>
    </g>
    <g id="text_61">
     <!-- Posterior -->
     <g transform="translate(881.735045 127.627656)rotate(-90)scale(0.1 -0.1)">
      <use xlink:href="#DejaVuSans-50"/>
      <use x="56.677734" xlink:href="#DejaVuSans-6f"/>
      <use x="117.859375" xlink:href="#DejaVuSans-73"/>
      <use x="169.958984" xlink:href="#DejaVuSans-74"/>
      <use x="209.167969" xlink:href="#DejaVuSans-65"/>
      <use x="270.691406" xlink:href="#DejaVuSans-72"/>
      <use x="311.804688" xlink:href="#DejaVuSans-69"/>
      <use x="339.587891" xlink:href="#DejaVuSans-6f"/>
      <use x="400.769531" xlink:href="#DejaVuSans-72"/>
     </g>
    </g>
   </g>
   <g id="line2d_60">
    <path clip-path="url(#pcc04e8c33f)" d="M 910.717857 167.133764 
L 936.777341 167.03365 
L 940.425669 166.818346 
L 943.031617 166.465849 
L 945.116376 165.965793 
L 946.679945 165.399708 
L 948.243514 164.611222 
L 949.807083 163.537763 
L 951.370652 162.109438 
L 952.934221 160.252115 
L 954.49779 157.891986 
L 956.061359 154.961494 
L 957.624928 151.40622 
L 959.188497 147.192081 
L 960.752066 142.311956 
L 962.315635 136.790728 
L 964.400394 128.539384 
L 967.006343 117.138393 
L 974.302998 84.169716 
L 976.387757 75.855075 
L 978.472516 68.409275 
L 980.557274 61.896641 
L 982.120843 57.631525 
L 983.684412 53.895912 
L 985.247981 50.695992 
L 986.81155 48.053659 
L 987.85393 46.621609 
L 988.896309 45.472611 
L 989.938688 44.626866 
L 990.981068 44.106493 
L 992.023447 43.934047 
L 993.065827 44.130788 
L 994.108206 44.714844 
L 995.150585 45.699391 
L 996.192965 47.09098 
L 997.235344 48.888155 
L 998.277723 51.080442 
L 999.841292 55.063242 
L 1001.404861 59.780021 
L 1003.48962 66.944015 
L 1011.307465 95.06492 
L 1012.871034 99.578501 
L 1014.434603 103.439366 
L 1015.998172 106.612864 
L 1017.561742 109.107295 
L 1018.604121 110.41387 
L 1019.6465 111.458478 
L 1020.68888 112.265736 
L 1021.731259 112.862988 
L 1022.773638 113.278933 
L 1024.337207 113.625589 
L 1025.900776 113.720528 
L 1027.985535 113.591813 
L 1031.112673 113.131567 
L 1036.84576 112.266307 
L 1038.930518 112.151311 
L 1040.494087 112.225976 
L 1042.057656 112.502775 
L 1043.621226 113.047775 
L 1045.184795 113.928253 
L 1046.227174 114.732067 
L 1047.790743 116.299198 
L 1049.354312 118.32607 
L 1050.917881 120.81731 
L 1052.48145 123.747549 
L 1054.566209 128.237653 
L 1057.172157 134.491165 
L 1062.384054 147.187474 
L 1064.468813 151.656202 
L 1066.553571 155.522767 
L 1066.553571 155.522767 
" style="fill:none;stroke:#1f77b4;stroke-linecap:square;stroke-width:1.5;"/>
   </g>
   <g id="line2d_61">
    <path clip-path="url(#pcc04e8c33f)" d="M 994.837041 173.29375 
L 994.837041 37.774061 
" style="fill:none;stroke:#808080;stroke-dasharray:1.5,2.475;stroke-dashoffset:0;stroke-width:1.5;"/>
   </g>
   <g id="patch_15">
    <path d="M 910.717857 173.29375 
L 910.717857 37.774061 
" style="fill:none;stroke:#000000;stroke-linecap:square;stroke-linejoin:miter;stroke-width:0.8;"/>
   </g>
   <g id="patch_16">
    <path d="M 910.717857 173.29375 
L 1066.553571 173.29375 
" style="fill:none;stroke:#000000;stroke-linecap:square;stroke-linejoin:miter;stroke-width:0.8;"/>
   </g>
  </g>
  <g id="axes_6">
   <g id="patch_17">
    <path d="M 1126.478571 173.29375 
L 1282.314286 173.29375 
L 1282.314286 37.774061 
L 1126.478571 37.774061 
z
" style="fill:#ffffff;"/>
   </g>
   <g id="matplotlib.axis_11">
    <g id="xtick_28">
     <g id="line2d_62">
      <g>
       <use style="stroke:#000000;stroke-width:0.8;" x="1126.478571" xlink:href="#me8c6c7665a" y="173.29375"/>
      </g>
     </g>
     <g id="text_62">
      <!-- −5 -->
      <g transform="translate(1119.107478 187.892188)scale(0.1 -0.1)">
       <use xlink:href="#DejaVuSans-2212"/>
       <use x="83.789062" xlink:href="#DejaVuSans-35"/>
      </g>
     </g>
    </g>
    <g id="xtick_29">
     <g id="line2d_63">
      <g>
       <use style="stroke:#000000;stroke-width:0.8;" x="1157.645714" xlink:href="#me8c6c7665a" y="173.29375"/>
      </g>
     </g>
     <g id="text_63">
      <!-- −4 -->
      <g transform="translate(1150.274621 187.892188)scale(0.1 -0.1)">
       <use xlink:href="#DejaVuSans-2212"/>
       <use x="83.789062" xlink:href="#DejaVuSans-34"/>
      </g>
     </g>
    </g>
    <g id="xtick_30">
     <g id="line2d_64">
      <g>
       <use style="stroke:#000000;stroke-width:0.8;" x="1188.812857" xlink:href="#me8c6c7665a" y="173.29375"/>
      </g>
     </g>
     <g id="text_64">
      <!-- −3 -->
      <g transform="translate(1181.441763 187.892188)scale(0.1 -0.1)">
       <use xlink:href="#DejaVuSans-2212"/>
       <use x="83.789062" xlink:href="#DejaVuSans-33"/>
      </g>
     </g>
    </g>
    <g id="xtick_31">
     <g id="line2d_65">
      <g>
       <use style="stroke:#000000;stroke-width:0.8;" x="1219.98" xlink:href="#me8c6c7665a" y="173.29375"/>
      </g>
     </g>
     <g id="text_65">
      <!-- −2 -->
      <g transform="translate(1212.608906 187.892188)scale(0.1 -0.1)">
       <use xlink:href="#DejaVuSans-2212"/>
       <use x="83.789062" xlink:href="#DejaVuSans-32"/>
      </g>
     </g>
    </g>
    <g id="xtick_32">
     <g id="line2d_66">
      <g>
       <use style="stroke:#000000;stroke-width:0.8;" x="1251.147143" xlink:href="#me8c6c7665a" y="173.29375"/>
      </g>
     </g>
     <g id="text_66">
      <!-- −1 -->
      <g transform="translate(1243.776049 187.892188)scale(0.1 -0.1)">
       <use xlink:href="#DejaVuSans-2212"/>
       <use x="83.789062" xlink:href="#DejaVuSans-31"/>
      </g>
     </g>
    </g>
    <g id="xtick_33">
     <g id="line2d_67">
      <g>
       <use style="stroke:#000000;stroke-width:0.8;" x="1282.314286" xlink:href="#me8c6c7665a" y="173.29375"/>
      </g>
     </g>
     <g id="text_67">
      <!-- 0 -->
      <g transform="translate(1279.133036 187.892188)scale(0.1 -0.1)">
       <use xlink:href="#DejaVuSans-30"/>
      </g>
     </g>
    </g>
    <g id="text_68">
     <!-- log_ecm_degradation_rate -->
     <g transform="translate(1138.061272 201.570312)scale(0.1 -0.1)">
      <use xlink:href="#DejaVuSans-6c"/>
      <use x="27.783203" xlink:href="#DejaVuSans-6f"/>
      <use x="88.964844" xlink:href="#DejaVuSans-67"/>
      <use x="152.441406" xlink:href="#DejaVuSans-5f"/>
      <use x="202.441406" xlink:href="#DejaVuSans-65"/>
      <use x="263.964844" xlink:href="#DejaVuSans-63"/>
      <use x="318.945312" xlink:href="#DejaVuSans-6d"/>
      <use x="416.357422" xlink:href="#DejaVuSans-5f"/>
      <use x="466.357422" xlink:href="#DejaVuSans-64"/>
      <use x="529.833984" xlink:href="#DejaVuSans-65"/>
      <use x="591.357422" xlink:href="#DejaVuSans-67"/>
      <use x="654.833984" xlink:href="#DejaVuSans-72"/>
      <use x="695.947266" xlink:href="#DejaVuSans-61"/>
      <use x="757.226562" xlink:href="#DejaVuSans-64"/>
      <use x="820.703125" xlink:href="#DejaVuSans-61"/>
      <use x="881.982422" xlink:href="#DejaVuSans-74"/>
      <use x="921.191406" xlink:href="#DejaVuSans-69"/>
      <use x="948.974609" xlink:href="#DejaVuSans-6f"/>
      <use x="1010.15625" xlink:href="#DejaVuSans-6e"/>
      <use x="1073.535156" xlink:href="#DejaVuSans-5f"/>
      <use x="1123.535156" xlink:href="#DejaVuSans-72"/>
      <use x="1164.648438" xlink:href="#DejaVuSans-61"/>
      <use x="1225.927734" xlink:href="#DejaVuSans-74"/>
      <use x="1265.136719" xlink:href="#DejaVuSans-65"/>
     </g>
    </g>
   </g>
   <g id="matplotlib.axis_12">
    <g id="ytick_25">
     <g id="line2d_68">
      <g>
       <use style="stroke:#000000;stroke-width:0.8;" x="1126.478571" xlink:href="#m45140b78ad" y="164.50386"/>
      </g>
     </g>
     <g id="text_69">
      <!-- 0.05 -->
      <g transform="translate(1097.212946 168.303078)scale(0.1 -0.1)">
       <use xlink:href="#DejaVuSans-30"/>
       <use x="63.623047" xlink:href="#DejaVuSans-2e"/>
       <use x="95.410156" xlink:href="#DejaVuSans-30"/>
       <use x="159.033203" xlink:href="#DejaVuSans-35"/>
      </g>
     </g>
    </g>
    <g id="ytick_26">
     <g id="line2d_69">
      <g>
       <use style="stroke:#000000;stroke-width:0.8;" x="1126.478571" xlink:href="#m45140b78ad" y="130.972947"/>
      </g>
     </g>
     <g id="text_70">
      <!-- 0.10 -->
      <g transform="translate(1097.212946 134.772166)scale(0.1 -0.1)">
       <use xlink:href="#DejaVuSans-30"/>
       <use x="63.623047" xlink:href="#DejaVuSans-2e"/>
       <use x="95.410156" xlink:href="#DejaVuSans-31"/>
       <use x="159.033203" xlink:href="#DejaVuSans-30"/>
      </g>
     </g>
    </g>
    <g id="ytick_27">
     <g id="line2d_70">
      <g>
       <use style="stroke:#000000;stroke-width:0.8;" x="1126.478571" xlink:href="#m45140b78ad" y="97.442035"/>
      </g>
     </g>
     <g id="text_71">
      <!-- 0.15 -->
      <g transform="translate(1097.212946 101.241253)scale(0.1 -0.1)">
       <use xlink:href="#DejaVuSans-30"/>
       <use x="63.623047" xlink:href="#DejaVuSans-2e"/>
       <use x="95.410156" xlink:href="#DejaVuSans-31"/>
       <use x="159.033203" xlink:href="#DejaVuSans-35"/>
      </g>
     </g>
    </g>
    <g id="ytick_28">
     <g id="line2d_71">
      <g>
       <use style="stroke:#000000;stroke-width:0.8;" x="1126.478571" xlink:href="#m45140b78ad" y="63.911122"/>
      </g>
     </g>
     <g id="text_72">
      <!-- 0.20 -->
      <g transform="translate(1097.212946 67.710341)scale(0.1 -0.1)">
       <use xlink:href="#DejaVuSans-30"/>
       <use x="63.623047" xlink:href="#DejaVuSans-2e"/>
       <use x="95.410156" xlink:href="#DejaVuSans-32"/>
       <use x="159.033203" xlink:href="#DejaVuSans-30"/>
      </g>
     </g>
    </g>
    <g id="text_73">
     <!-- Posterior -->
     <g transform="translate(1091.133259 127.627656)rotate(-90)scale(0.1 -0.1)">
      <use xlink:href="#DejaVuSans-50"/>
      <use x="56.677734" xlink:href="#DejaVuSans-6f"/>
      <use x="117.859375" xlink:href="#DejaVuSans-73"/>
      <use x="169.958984" xlink:href="#DejaVuSans-74"/>
      <use x="209.167969" xlink:href="#DejaVuSans-65"/>
      <use x="270.691406" xlink:href="#DejaVuSans-72"/>
      <use x="311.804688" xlink:href="#DejaVuSans-69"/>
      <use x="339.587891" xlink:href="#DejaVuSans-6f"/>
      <use x="400.769531" xlink:href="#DejaVuSans-72"/>
     </g>
    </g>
   </g>
   <g id="line2d_72">
    <path clip-path="url(#p349fd64331)" d="M 1126.478571 167.133764 
L 1129.60571 161.3716 
L 1133.254037 154.128198 
L 1137.423555 145.33121 
L 1143.677831 131.555233 
L 1155.144004 106.255548 
L 1161.91947 91.887214 
L 1167.652556 80.217055 
L 1172.343263 71.171282 
L 1175.991591 64.624506 
L 1179.118729 59.493932 
L 1181.724677 55.649404 
L 1183.809436 52.905768 
L 1185.894195 50.49232 
L 1187.978954 48.436301 
L 1190.063712 46.758259 
L 1191.627281 45.755578 
L 1193.19085 44.974565 
L 1194.754419 44.414056 
L 1196.317989 44.069783 
L 1197.881558 43.934428 
L 1199.445127 43.997755 
L 1201.008696 44.246841 
L 1203.093454 44.841154 
L 1205.178213 45.696574 
L 1207.784161 47.062225 
L 1210.9113 49.008702 
L 1222.377473 56.54567 
L 1224.983421 57.903388 
L 1227.589369 59.018477 
L 1230.195318 59.862071 
L 1232.280076 60.330049 
L 1234.364835 60.611157 
L 1236.449594 60.708734 
L 1239.055542 60.587964 
L 1241.661491 60.23046 
L 1244.788629 59.566162 
L 1252.606474 57.742803 
L 1254.691233 57.51911 
L 1256.775991 57.546821 
L 1258.33956 57.780672 
L 1259.903129 58.234651 
L 1261.466699 58.94157 
L 1263.030268 59.93246 
L 1264.593837 61.235685 
L 1266.157406 62.876045 
L 1267.720975 64.873905 
L 1269.284544 67.244397 
L 1270.848113 69.996698 
L 1272.411682 73.133451 
L 1274.496441 77.905332 
L 1276.581199 83.322035 
L 1278.665958 89.330794 
L 1281.271906 97.559594 
L 1282.314286 101.037164 
L 1282.314286 101.037164 
" style="fill:none;stroke:#1f77b4;stroke-linecap:square;stroke-width:1.5;"/>
   </g>
   <g id="line2d_73">
    <path clip-path="url(#p349fd64331)" d="M 1185.792449 173.29375 
L 1185.792449 37.774061 
" style="fill:none;stroke:#808080;stroke-dasharray:1.5,2.475;stroke-dashoffset:0;stroke-width:1.5;"/>
   </g>
   <g id="patch_18">
    <path d="M 1126.478571 173.29375 
L 1126.478571 37.774061 
" style="fill:none;stroke:#000000;stroke-linecap:square;stroke-linejoin:miter;stroke-width:0.8;"/>
   </g>
   <g id="patch_19">
    <path d="M 1126.478571 173.29375 
L 1282.314286 173.29375 
" style="fill:none;stroke:#000000;stroke-linecap:square;stroke-linejoin:miter;stroke-width:0.8;"/>
   </g>
  </g>
  <g id="axes_7">
   <g id="patch_20">
    <path d="M 1342.239286 173.29375 
L 1498.075 173.29375 
L 1498.075 37.774061 
L 1342.239286 37.774061 
z
" style="fill:#ffffff;"/>
   </g>
   <g id="matplotlib.axis_13">
    <g id="xtick_34">
     <g id="line2d_74">
      <g>
       <use style="stroke:#000000;stroke-width:0.8;" x="1342.239286" xlink:href="#me8c6c7665a" y="173.29375"/>
      </g>
     </g>
     <g id="text_74">
      <!-- −5 -->
      <g transform="translate(1334.868192 187.892188)scale(0.1 -0.1)">
       <use xlink:href="#DejaVuSans-2212"/>
       <use x="83.789062" xlink:href="#DejaVuSans-35"/>
      </g>
     </g>
    </g>
    <g id="xtick_35">
     <g id="line2d_75">
      <g>
       <use style="stroke:#000000;stroke-width:0.8;" x="1373.406429" xlink:href="#me8c6c7665a" y="173.29375"/>
      </g>
     </g>
     <g id="text_75">
      <!-- −4 -->
      <g transform="translate(1366.035335 187.892188)scale(0.1 -0.1)">
       <use xlink:href="#DejaVuSans-2212"/>
       <use x="83.789062" xlink:href="#DejaVuSans-34"/>
      </g>
     </g>
    </g>
    <g id="xtick_36">
     <g id="line2d_76">
      <g>
       <use style="stroke:#000000;stroke-width:0.8;" x="1404.573571" xlink:href="#me8c6c7665a" y="173.29375"/>
      </g>
     </g>
     <g id="text_76">
      <!-- −3 -->
      <g transform="translate(1397.202478 187.892188)scale(0.1 -0.1)">
       <use xlink:href="#DejaVuSans-2212"/>
       <use x="83.789062" xlink:href="#DejaVuSans-33"/>
      </g>
     </g>
    </g>
    <g id="xtick_37">
     <g id="line2d_77">
      <g>
       <use style="stroke:#000000;stroke-width:0.8;" x="1435.740714" xlink:href="#me8c6c7665a" y="173.29375"/>
      </g>
     </g>
     <g id="text_77">
      <!-- −2 -->
      <g transform="translate(1428.369621 187.892188)scale(0.1 -0.1)">
       <use xlink:href="#DejaVuSans-2212"/>
       <use x="83.789062" xlink:href="#DejaVuSans-32"/>
      </g>
     </g>
    </g>
    <g id="xtick_38">
     <g id="line2d_78">
      <g>
       <use style="stroke:#000000;stroke-width:0.8;" x="1466.907857" xlink:href="#me8c6c7665a" y="173.29375"/>
      </g>
     </g>
     <g id="text_78">
      <!-- −1 -->
      <g transform="translate(1459.536763 187.892188)scale(0.1 -0.1)">
       <use xlink:href="#DejaVuSans-2212"/>
       <use x="83.789062" xlink:href="#DejaVuSans-31"/>
      </g>
     </g>
    </g>
    <g id="xtick_39">
     <g id="line2d_79">
      <g>
       <use style="stroke:#000000;stroke-width:0.8;" x="1498.075" xlink:href="#me8c6c7665a" y="173.29375"/>
      </g>
     </g>
     <g id="text_79">
      <!-- 0 -->
      <g transform="translate(1494.89375 187.892188)scale(0.1 -0.1)">
       <use xlink:href="#DejaVuSans-30"/>
      </g>
     </g>
    </g>
    <g id="text_80">
     <!-- log_ecm_division_threshold -->
     <g transform="translate(1351.660268 201.570312)scale(0.1 -0.1)">
      <use xlink:href="#DejaVuSans-6c"/>
      <use x="27.783203" xlink:href="#DejaVuSans-6f"/>
      <use x="88.964844" xlink:href="#DejaVuSans-67"/>
      <use x="152.441406" xlink:href="#DejaVuSans-5f"/>
      <use x="202.441406" xlink:href="#DejaVuSans-65"/>
      <use x="263.964844" xlink:href="#DejaVuSans-63"/>
      <use x="318.945312" xlink:href="#DejaVuSans-6d"/>
      <use x="416.357422" xlink:href="#DejaVuSans-5f"/>
      <use x="466.357422" xlink:href="#DejaVuSans-64"/>
      <use x="529.833984" xlink:href="#DejaVuSans-69"/>
      <use x="557.617188" xlink:href="#DejaVuSans-76"/>
      <use x="616.796875" xlink:href="#DejaVuSans-69"/>
      <use x="644.580078" xlink:href="#DejaVuSans-73"/>
      <use x="696.679688" xlink:href="#DejaVuSans-69"/>
      <use x="724.462891" xlink:href="#DejaVuSans-6f"/>
      <use x="785.644531" xlink:href="#DejaVuSans-6e"/>
      <use x="849.023438" xlink:href="#DejaVuSans-5f"/>
      <use x="899.023438" xlink:href="#DejaVuSans-74"/>
      <use x="938.232422" xlink:href="#DejaVuSans-68"/>
      <use x="1001.611328" xlink:href="#DejaVuSans-72"/>
      <use x="1040.474609" xlink:href="#DejaVuSans-65"/>
      <use x="1101.998047" xlink:href="#DejaVuSans-73"/>
      <use x="1154.097656" xlink:href="#DejaVuSans-68"/>
      <use x="1217.476562" xlink:href="#DejaVuSans-6f"/>
      <use x="1278.658203" xlink:href="#DejaVuSans-6c"/>
      <use x="1306.441406" xlink:href="#DejaVuSans-64"/>
     </g>
    </g>
   </g>
   <g id="matplotlib.axis_14">
    <g id="ytick_29">
     <g id="line2d_80">
      <g>
       <use style="stroke:#000000;stroke-width:0.8;" x="1342.239286" xlink:href="#m45140b78ad" y="165.414558"/>
      </g>
     </g>
     <g id="text_81">
      <!-- 0.05 -->
      <g transform="translate(1312.973661 169.213777)scale(0.1 -0.1)">
       <use xlink:href="#DejaVuSans-30"/>
       <use x="63.623047" xlink:href="#DejaVuSans-2e"/>
       <use x="95.410156" xlink:href="#DejaVuSans-30"/>
       <use x="159.033203" xlink:href="#DejaVuSans-35"/>
      </g>
     </g>
    </g>
    <g id="ytick_30">
     <g id="line2d_81">
      <g>
       <use style="stroke:#000000;stroke-width:0.8;" x="1342.239286" xlink:href="#m45140b78ad" y="133.676023"/>
      </g>
     </g>
     <g id="text_82">
      <!-- 0.10 -->
      <g transform="translate(1312.973661 137.475242)scale(0.1 -0.1)">
       <use xlink:href="#DejaVuSans-30"/>
       <use x="63.623047" xlink:href="#DejaVuSans-2e"/>
       <use x="95.410156" xlink:href="#DejaVuSans-31"/>
       <use x="159.033203" xlink:href="#DejaVuSans-30"/>
      </g>
     </g>
    </g>
    <g id="ytick_31">
     <g id="line2d_82">
      <g>
       <use style="stroke:#000000;stroke-width:0.8;" x="1342.239286" xlink:href="#m45140b78ad" y="101.937488"/>
      </g>
     </g>
     <g id="text_83">
      <!-- 0.15 -->
      <g transform="translate(1312.973661 105.736706)scale(0.1 -0.1)">
       <use xlink:href="#DejaVuSans-30"/>
       <use x="63.623047" xlink:href="#DejaVuSans-2e"/>
       <use x="95.410156" xlink:href="#DejaVuSans-31"/>
       <use x="159.033203" xlink:href="#DejaVuSans-35"/>
      </g>
     </g>
    </g>
    <g id="ytick_32">
     <g id="line2d_83">
      <g>
       <use style="stroke:#000000;stroke-width:0.8;" x="1342.239286" xlink:href="#m45140b78ad" y="70.198953"/>
      </g>
     </g>
     <g id="text_84">
      <!-- 0.20 -->
      <g transform="translate(1312.973661 73.998171)scale(0.1 -0.1)">
       <use xlink:href="#DejaVuSans-30"/>
       <use x="63.623047" xlink:href="#DejaVuSans-2e"/>
       <use x="95.410156" xlink:href="#DejaVuSans-32"/>
       <use x="159.033203" xlink:href="#DejaVuSans-30"/>
      </g>
     </g>
    </g>
    <g id="ytick_33">
     <g id="line2d_84">
      <g>
       <use style="stroke:#000000;stroke-width:0.8;" x="1342.239286" xlink:href="#m45140b78ad" y="38.460417"/>
      </g>
     </g>
     <g id="text_85">
      <!-- 0.25 -->
      <g transform="translate(1312.973661 42.259636)scale(0.1 -0.1)">
       <use xlink:href="#DejaVuSans-30"/>
       <use x="63.623047" xlink:href="#DejaVuSans-2e"/>
       <use x="95.410156" xlink:href="#DejaVuSans-32"/>
       <use x="159.033203" xlink:href="#DejaVuSans-35"/>
      </g>
     </g>
    </g>
    <g id="text_86">
     <!-- Posterior -->
     <g transform="translate(1306.893973 127.627656)rotate(-90)scale(0.1 -0.1)">
      <use xlink:href="#DejaVuSans-50"/>
      <use x="56.677734" xlink:href="#DejaVuSans-6f"/>
      <use x="117.859375" xlink:href="#DejaVuSans-73"/>
      <use x="169.958984" xlink:href="#DejaVuSans-74"/>
      <use x="209.167969" xlink:href="#DejaVuSans-65"/>
      <use x="270.691406" xlink:href="#DejaVuSans-72"/>
      <use x="311.804688" xlink:href="#DejaVuSans-69"/>
      <use x="339.587891" xlink:href="#DejaVuSans-6f"/>
      <use x="400.769531" xlink:href="#DejaVuSans-72"/>
     </g>
    </g>
   </g>
   <g id="line2d_85">
    <path clip-path="url(#p39f3be108f)" d="M 1342.239286 114.49375 
L 1349.014752 87.226284 
L 1351.6207 77.550524 
L 1354.226648 68.753085 
L 1356.311407 62.510153 
L 1358.396166 57.084788 
L 1359.959735 53.599765 
L 1361.523304 50.641538 
L 1363.086873 48.224178 
L 1364.650442 46.352783 
L 1365.692821 45.406984 
L 1366.735201 44.699065 
L 1367.77758 44.224127 
L 1368.819959 43.97572 
L 1369.862339 43.945932 
L 1370.904718 44.125507 
L 1371.947097 44.503957 
L 1372.989477 45.069702 
L 1374.553046 46.241835 
L 1376.116615 47.761356 
L 1377.680184 49.579633 
L 1379.764943 52.381224 
L 1382.370891 56.318351 
L 1392.794685 72.668384 
L 1394.879443 75.386777 
L 1396.964202 77.767961 
L 1399.048961 79.773617 
L 1400.61253 81.015686 
L 1402.176099 82.025702 
L 1403.739668 82.800805 
L 1405.303237 83.341227 
L 1406.866806 83.649952 
L 1408.430375 83.732373 
L 1409.993944 83.595979 
L 1411.557513 83.250074 
L 1413.121082 82.705539 
L 1415.205841 81.691903 
L 1417.2906 80.379638 
L 1419.375358 78.804982 
L 1421.981307 76.528814 
L 1425.108445 73.461099 
L 1435.532238 62.825062 
L 1437.616997 61.075892 
L 1439.701756 59.600662 
L 1441.265325 58.710326 
L 1442.828894 58.031515 
L 1444.392463 57.585684 
L 1445.956032 57.391812 
L 1447.519601 57.466064 
L 1449.08317 57.821541 
L 1450.646739 58.468124 
L 1452.210308 59.412408 
L 1453.773877 60.657732 
L 1455.337446 62.204292 
L 1456.901015 64.049316 
L 1458.464584 66.187294 
L 1460.549343 69.479504 
L 1462.634102 73.253123 
L 1464.71886 77.477274 
L 1467.324809 83.335896 
L 1469.930757 89.76249 
L 1473.057895 98.09836 
L 1476.706223 108.467392 
L 1484.002879 130.112673 
L 1488.693586 143.686135 
L 1492.341914 153.543363 
L 1495.469052 161.282427 
L 1498.075 167.133764 
L 1498.075 167.133764 
" style="fill:none;stroke:#1f77b4;stroke-linecap:square;stroke-width:1.5;"/>
   </g>
   <g id="line2d_86">
    <path clip-path="url(#p39f3be108f)" d="M 1435.740714 173.29375 
L 1435.740714 37.774061 
" style="fill:none;stroke:#808080;stroke-dasharray:1.5,2.475;stroke-dashoffset:0;stroke-width:1.5;"/>
   </g>
   <g id="patch_21">
    <path d="M 1342.239286 173.29375 
L 1342.239286 37.774061 
" style="fill:none;stroke:#000000;stroke-linecap:square;stroke-linejoin:miter;stroke-width:0.8;"/>
   </g>
   <g id="patch_22">
    <path d="M 1342.239286 173.29375 
L 1498.075 173.29375 
" style="fill:none;stroke:#000000;stroke-linecap:square;stroke-linejoin:miter;stroke-width:0.8;"/>
   </g>
  </g>
  <g id="text_87">
   <!-- CalibratedEuclidean -->
   <g transform="translate(695.787187 13.438125)scale(0.12 -0.12)">
    <defs>
     <path d="M 4122 4306 
L 4122 3641 
Q 3803 3938 3442 4084 
Q 3081 4231 2675 4231 
Q 1875 4231 1450 3742 
Q 1025 3253 1025 2328 
Q 1025 1406 1450 917 
Q 1875 428 2675 428 
Q 3081 428 3442 575 
Q 3803 722 4122 1019 
L 4122 359 
Q 3791 134 3420 21 
Q 3050 -91 2638 -91 
Q 1578 -91 968 557 
Q 359 1206 359 2328 
Q 359 3453 968 4101 
Q 1578 4750 2638 4750 
Q 3056 4750 3426 4639 
Q 3797 4528 4122 4306 
z
" id="DejaVuSans-43" transform="scale(0.015625)"/>
     <path d="M 3116 1747 
Q 3116 2381 2855 2742 
Q 2594 3103 2138 3103 
Q 1681 3103 1420 2742 
Q 1159 2381 1159 1747 
Q 1159 1113 1420 752 
Q 1681 391 2138 391 
Q 2594 391 2855 752 
Q 3116 1113 3116 1747 
z
M 1159 2969 
Q 1341 3281 1617 3432 
Q 1894 3584 2278 3584 
Q 2916 3584 3314 3078 
Q 3713 2572 3713 1747 
Q 3713 922 3314 415 
Q 2916 -91 2278 -91 
Q 1894 -91 1617 61 
Q 1341 213 1159 525 
L 1159 0 
L 581 0 
L 581 4863 
L 1159 4863 
L 1159 2969 
z
" id="DejaVuSans-62" transform="scale(0.015625)"/>
     <path d="M 628 4666 
L 3578 4666 
L 3578 4134 
L 1259 4134 
L 1259 2753 
L 3481 2753 
L 3481 2222 
L 1259 2222 
L 1259 531 
L 3634 531 
L 3634 0 
L 628 0 
L 628 4666 
z
" id="DejaVuSans-45" transform="scale(0.015625)"/>
    </defs>
    <use xlink:href="#DejaVuSans-43"/>
    <use x="69.824219" xlink:href="#DejaVuSans-61"/>
    <use x="131.103516" xlink:href="#DejaVuSans-6c"/>
    <use x="158.886719" xlink:href="#DejaVuSans-69"/>
    <use x="186.669922" xlink:href="#DejaVuSans-62"/>
    <use x="250.146484" xlink:href="#DejaVuSans-72"/>
    <use x="291.259766" xlink:href="#DejaVuSans-61"/>
    <use x="352.539062" xlink:href="#DejaVuSans-74"/>
    <use x="391.748047" xlink:href="#DejaVuSans-65"/>
    <use x="453.271484" xlink:href="#DejaVuSans-64"/>
    <use x="516.748047" xlink:href="#DejaVuSans-45"/>
    <use x="579.931641" xlink:href="#DejaVuSans-75"/>
    <use x="643.310547" xlink:href="#DejaVuSans-63"/>
    <use x="698.291016" xlink:href="#DejaVuSans-6c"/>
    <use x="726.074219" xlink:href="#DejaVuSans-69"/>
    <use x="753.857422" xlink:href="#DejaVuSans-64"/>
    <use x="817.333984" xlink:href="#DejaVuSans-65"/>
    <use x="878.857422" xlink:href="#DejaVuSans-61"/>
    <use x="940.136719" xlink:href="#DejaVuSans-6e"/>
   </g>
  </g>
 </g>
 <defs>
  <clipPath id="p4c5aa937ee">
   <rect height="135.519689" width="155.835714" x="47.675" y="37.774061"/>
  </clipPath>
  <clipPath id="pd73ac3dcec">
   <rect height="135.519689" width="155.835714" x="263.435714" y="37.774061"/>
  </clipPath>
  <clipPath id="pde974f1e59">
   <rect height="135.519689" width="155.835714" x="479.196429" y="37.774061"/>
  </clipPath>
  <clipPath id="p91cba45b0c">
   <rect height="135.519689" width="155.835714" x="694.957143" y="37.774061"/>
  </clipPath>
  <clipPath id="pcc04e8c33f">
   <rect height="135.519689" width="155.835714" x="910.717857" y="37.774061"/>
  </clipPath>
  <clipPath id="p349fd64331">
   <rect height="135.519689" width="155.835714" x="1126.478571" y="37.774061"/>
  </clipPath>
  <clipPath id="p39f3be108f">
   <rect height="135.519689" width="155.835714" x="1342.239286" y="37.774061"/>
  </clipPath>
 </defs>
</svg>
