<?xml version="1.0" encoding="utf-8" standalone="no"?>
<!DOCTYPE svg PUBLIC "-//W3C//DTD SVG 1.1//EN"
  "http://www.w3.org/Graphics/SVG/1.1/DTD/svg11.dtd">
<svg height="216pt" version="1.1" viewBox="0 0 1512 216" width="1512pt" xmlns="http://www.w3.org/2000/svg" xmlns:xlink="http://www.w3.org/1999/xlink">
 <metadata>
  <rdf:RDF xmlns:cc="http://creativecommons.org/ns#" xmlns:dc="http://purl.org/dc/elements/1.1/" xmlns:rdf="http://www.w3.org/1999/02/22-rdf-syntax-ns#">
   <cc:Work>
    <dc:type rdf:resource="http://purl.org/dc/dcmitype/StillImage"/>
    <dc:date>2021-04-22T12:16:36.752297</dc:date>
    <dc:format>image/svg+xml</dc:format>
    <dc:creator>
     <cc:Agent>
      <dc:title>Matplotlib v3.4.1, https://matplotlib.org/</dc:title>
     </cc:Agent>
    </dc:creator>
   </cc:Work>
  </rdf:RDF>
 </metadata>
 <defs>
  <style type="text/css">*{stroke-linecap:butt;stroke-linejoin:round;}</style>
 </defs>
 <g id="figure_1">
  <g id="patch_1">
   <path d="M 0 216 
L 1512 216 
L 1512 0 
L 0 0 
z
" style="fill:none;"/>
  </g>
  <g id="axes_1">
   <g id="patch_2">
    <path d="M 47.675 173.29375 
L 203.082143 173.29375 
L 203.082143 38.201637 
L 47.675 38.201637 
z
" style="fill:#ffffff;"/>
   </g>
   <g id="matplotlib.axis_1">
    <g id="xtick_1">
     <g id="line2d_1">
      <defs>
       <path d="M 0 0 
L 0 3.5 
" id="m04c852cd2e" style="stroke:#000000;stroke-width:0.8;"/>
      </defs>
      <g>
       <use style="stroke:#000000;stroke-width:0.8;" x="47.675" xlink:href="#m04c852cd2e" y="173.29375"/>
      </g>
     </g>
     <g id="text_1">
      <!-- −3.0 -->
      <g transform="translate(35.533594 187.892188)scale(0.1 -0.1)">
       <defs>
        <path d="M 678 2272 
L 4684 2272 
L 4684 1741 
L 678 1741 
L 678 2272 
z
" id="DejaVuSans-2212" transform="scale(0.015625)"/>
        <path d="M 2597 2516 
Q 3050 2419 3304 2112 
Q 3559 1806 3559 1356 
Q 3559 666 3084 287 
Q 2609 -91 1734 -91 
Q 1441 -91 1130 -33 
Q 819 25 488 141 
L 488 750 
Q 750 597 1062 519 
Q 1375 441 1716 441 
Q 2309 441 2620 675 
Q 2931 909 2931 1356 
Q 2931 1769 2642 2001 
Q 2353 2234 1838 2234 
L 1294 2234 
L 1294 2753 
L 1863 2753 
Q 2328 2753 2575 2939 
Q 2822 3125 2822 3475 
Q 2822 3834 2567 4026 
Q 2313 4219 1838 4219 
Q 1578 4219 1281 4162 
Q 984 4106 628 3988 
L 628 4550 
Q 988 4650 1302 4700 
Q 1616 4750 1894 4750 
Q 2613 4750 3031 4423 
Q 3450 4097 3450 3541 
Q 3450 3153 3228 2886 
Q 3006 2619 2597 2516 
z
" id="DejaVuSans-33" transform="scale(0.015625)"/>
        <path d="M 684 794 
L 1344 794 
L 1344 0 
L 684 0 
L 684 794 
z
" id="DejaVuSans-2e" transform="scale(0.015625)"/>
        <path d="M 2034 4250 
Q 1547 4250 1301 3770 
Q 1056 3291 1056 2328 
Q 1056 1369 1301 889 
Q 1547 409 2034 409 
Q 2525 409 2770 889 
Q 3016 1369 3016 2328 
Q 3016 3291 2770 3770 
Q 2525 4250 2034 4250 
z
M 2034 4750 
Q 2819 4750 3233 4129 
Q 3647 3509 3647 2328 
Q 3647 1150 3233 529 
Q 2819 -91 2034 -91 
Q 1250 -91 836 529 
Q 422 1150 422 2328 
Q 422 3509 836 4129 
Q 1250 4750 2034 4750 
z
" id="DejaVuSans-30" transform="scale(0.015625)"/>
       </defs>
       <use xlink:href="#DejaVuSans-2212"/>
       <use x="83.789062" xlink:href="#DejaVuSans-33"/>
       <use x="147.412109" xlink:href="#DejaVuSans-2e"/>
       <use x="179.199219" xlink:href="#DejaVuSans-30"/>
      </g>
     </g>
    </g>
    <g id="xtick_2">
     <g id="line2d_2">
      <g>
       <use style="stroke:#000000;stroke-width:0.8;" x="86.526786" xlink:href="#m04c852cd2e" y="173.29375"/>
      </g>
     </g>
     <g id="text_2">
      <!-- −2.5 -->
      <g transform="translate(74.385379 187.892188)scale(0.1 -0.1)">
       <defs>
        <path d="M 1228 531 
L 3431 531 
L 3431 0 
L 469 0 
L 469 531 
Q 828 903 1448 1529 
Q 2069 2156 2228 2338 
Q 2531 2678 2651 2914 
Q 2772 3150 2772 3378 
Q 2772 3750 2511 3984 
Q 2250 4219 1831 4219 
Q 1534 4219 1204 4116 
Q 875 4013 500 3803 
L 500 4441 
Q 881 4594 1212 4672 
Q 1544 4750 1819 4750 
Q 2544 4750 2975 4387 
Q 3406 4025 3406 3419 
Q 3406 3131 3298 2873 
Q 3191 2616 2906 2266 
Q 2828 2175 2409 1742 
Q 1991 1309 1228 531 
z
" id="DejaVuSans-32" transform="scale(0.015625)"/>
        <path d="M 691 4666 
L 3169 4666 
L 3169 4134 
L 1269 4134 
L 1269 2991 
Q 1406 3038 1543 3061 
Q 1681 3084 1819 3084 
Q 2600 3084 3056 2656 
Q 3513 2228 3513 1497 
Q 3513 744 3044 326 
Q 2575 -91 1722 -91 
Q 1428 -91 1123 -41 
Q 819 9 494 109 
L 494 744 
Q 775 591 1075 516 
Q 1375 441 1709 441 
Q 2250 441 2565 725 
Q 2881 1009 2881 1497 
Q 2881 1984 2565 2268 
Q 2250 2553 1709 2553 
Q 1456 2553 1204 2497 
Q 953 2441 691 2322 
L 691 4666 
z
" id="DejaVuSans-35" transform="scale(0.015625)"/>
       </defs>
       <use xlink:href="#DejaVuSans-2212"/>
       <use x="83.789062" xlink:href="#DejaVuSans-32"/>
       <use x="147.412109" xlink:href="#DejaVuSans-2e"/>
       <use x="179.199219" xlink:href="#DejaVuSans-35"/>
      </g>
     </g>
    </g>
    <g id="xtick_3">
     <g id="line2d_3">
      <g>
       <use style="stroke:#000000;stroke-width:0.8;" x="125.378571" xlink:href="#m04c852cd2e" y="173.29375"/>
      </g>
     </g>
     <g id="text_3">
      <!-- −2.0 -->
      <g transform="translate(113.237165 187.892188)scale(0.1 -0.1)">
       <use xlink:href="#DejaVuSans-2212"/>
       <use x="83.789062" xlink:href="#DejaVuSans-32"/>
       <use x="147.412109" xlink:href="#DejaVuSans-2e"/>
       <use x="179.199219" xlink:href="#DejaVuSans-30"/>
      </g>
     </g>
    </g>
    <g id="xtick_4">
     <g id="line2d_4">
      <g>
       <use style="stroke:#000000;stroke-width:0.8;" x="164.230357" xlink:href="#m04c852cd2e" y="173.29375"/>
      </g>
     </g>
     <g id="text_4">
      <!-- −1.5 -->
      <g transform="translate(152.088951 187.892188)scale(0.1 -0.1)">
       <defs>
        <path d="M 794 531 
L 1825 531 
L 1825 4091 
L 703 3866 
L 703 4441 
L 1819 4666 
L 2450 4666 
L 2450 531 
L 3481 531 
L 3481 0 
L 794 0 
L 794 531 
z
" id="DejaVuSans-31" transform="scale(0.015625)"/>
       </defs>
       <use xlink:href="#DejaVuSans-2212"/>
       <use x="83.789062" xlink:href="#DejaVuSans-31"/>
       <use x="147.412109" xlink:href="#DejaVuSans-2e"/>
       <use x="179.199219" xlink:href="#DejaVuSans-35"/>
      </g>
     </g>
    </g>
    <g id="xtick_5">
     <g id="line2d_5">
      <g>
       <use style="stroke:#000000;stroke-width:0.8;" x="203.082143" xlink:href="#m04c852cd2e" y="173.29375"/>
      </g>
     </g>
     <g id="text_5">
      <!-- −1.0 -->
      <g transform="translate(190.940737 187.892188)scale(0.1 -0.1)">
       <use xlink:href="#DejaVuSans-2212"/>
       <use x="83.789062" xlink:href="#DejaVuSans-31"/>
       <use x="147.412109" xlink:href="#DejaVuSans-2e"/>
       <use x="179.199219" xlink:href="#DejaVuSans-30"/>
      </g>
     </g>
    </g>
    <g id="text_6">
     <!-- log_division_rate -->
     <g transform="translate(83.466071 201.570312)scale(0.1 -0.1)">
      <defs>
       <path d="M 603 4863 
L 1178 4863 
L 1178 0 
L 603 0 
L 603 4863 
z
" id="DejaVuSans-6c" transform="scale(0.015625)"/>
       <path d="M 1959 3097 
Q 1497 3097 1228 2736 
Q 959 2375 959 1747 
Q 959 1119 1226 758 
Q 1494 397 1959 397 
Q 2419 397 2687 759 
Q 2956 1122 2956 1747 
Q 2956 2369 2687 2733 
Q 2419 3097 1959 3097 
z
M 1959 3584 
Q 2709 3584 3137 3096 
Q 3566 2609 3566 1747 
Q 3566 888 3137 398 
Q 2709 -91 1959 -91 
Q 1206 -91 779 398 
Q 353 888 353 1747 
Q 353 2609 779 3096 
Q 1206 3584 1959 3584 
z
" id="DejaVuSans-6f" transform="scale(0.015625)"/>
       <path d="M 2906 1791 
Q 2906 2416 2648 2759 
Q 2391 3103 1925 3103 
Q 1463 3103 1205 2759 
Q 947 2416 947 1791 
Q 947 1169 1205 825 
Q 1463 481 1925 481 
Q 2391 481 2648 825 
Q 2906 1169 2906 1791 
z
M 3481 434 
Q 3481 -459 3084 -895 
Q 2688 -1331 1869 -1331 
Q 1566 -1331 1297 -1286 
Q 1028 -1241 775 -1147 
L 775 -588 
Q 1028 -725 1275 -790 
Q 1522 -856 1778 -856 
Q 2344 -856 2625 -561 
Q 2906 -266 2906 331 
L 2906 616 
Q 2728 306 2450 153 
Q 2172 0 1784 0 
Q 1141 0 747 490 
Q 353 981 353 1791 
Q 353 2603 747 3093 
Q 1141 3584 1784 3584 
Q 2172 3584 2450 3431 
Q 2728 3278 2906 2969 
L 2906 3500 
L 3481 3500 
L 3481 434 
z
" id="DejaVuSans-67" transform="scale(0.015625)"/>
       <path d="M 3263 -1063 
L 3263 -1509 
L -63 -1509 
L -63 -1063 
L 3263 -1063 
z
" id="DejaVuSans-5f" transform="scale(0.015625)"/>
       <path d="M 2906 2969 
L 2906 4863 
L 3481 4863 
L 3481 0 
L 2906 0 
L 2906 525 
Q 2725 213 2448 61 
Q 2172 -91 1784 -91 
Q 1150 -91 751 415 
Q 353 922 353 1747 
Q 353 2572 751 3078 
Q 1150 3584 1784 3584 
Q 2172 3584 2448 3432 
Q 2725 3281 2906 2969 
z
M 947 1747 
Q 947 1113 1208 752 
Q 1469 391 1925 391 
Q 2381 391 2643 752 
Q 2906 1113 2906 1747 
Q 2906 2381 2643 2742 
Q 2381 3103 1925 3103 
Q 1469 3103 1208 2742 
Q 947 2381 947 1747 
z
" id="DejaVuSans-64" transform="scale(0.015625)"/>
       <path d="M 603 3500 
L 1178 3500 
L 1178 0 
L 603 0 
L 603 3500 
z
M 603 4863 
L 1178 4863 
L 1178 4134 
L 603 4134 
L 603 4863 
z
" id="DejaVuSans-69" transform="scale(0.015625)"/>
       <path d="M 191 3500 
L 800 3500 
L 1894 563 
L 2988 3500 
L 3597 3500 
L 2284 0 
L 1503 0 
L 191 3500 
z
" id="DejaVuSans-76" transform="scale(0.015625)"/>
       <path d="M 2834 3397 
L 2834 2853 
Q 2591 2978 2328 3040 
Q 2066 3103 1784 3103 
Q 1356 3103 1142 2972 
Q 928 2841 928 2578 
Q 928 2378 1081 2264 
Q 1234 2150 1697 2047 
L 1894 2003 
Q 2506 1872 2764 1633 
Q 3022 1394 3022 966 
Q 3022 478 2636 193 
Q 2250 -91 1575 -91 
Q 1294 -91 989 -36 
Q 684 19 347 128 
L 347 722 
Q 666 556 975 473 
Q 1284 391 1588 391 
Q 1994 391 2212 530 
Q 2431 669 2431 922 
Q 2431 1156 2273 1281 
Q 2116 1406 1581 1522 
L 1381 1569 
Q 847 1681 609 1914 
Q 372 2147 372 2553 
Q 372 3047 722 3315 
Q 1072 3584 1716 3584 
Q 2034 3584 2315 3537 
Q 2597 3491 2834 3397 
z
" id="DejaVuSans-73" transform="scale(0.015625)"/>
       <path d="M 3513 2113 
L 3513 0 
L 2938 0 
L 2938 2094 
Q 2938 2591 2744 2837 
Q 2550 3084 2163 3084 
Q 1697 3084 1428 2787 
Q 1159 2491 1159 1978 
L 1159 0 
L 581 0 
L 581 3500 
L 1159 3500 
L 1159 2956 
Q 1366 3272 1645 3428 
Q 1925 3584 2291 3584 
Q 2894 3584 3203 3211 
Q 3513 2838 3513 2113 
z
" id="DejaVuSans-6e" transform="scale(0.015625)"/>
       <path d="M 2631 2963 
Q 2534 3019 2420 3045 
Q 2306 3072 2169 3072 
Q 1681 3072 1420 2755 
Q 1159 2438 1159 1844 
L 1159 0 
L 581 0 
L 581 3500 
L 1159 3500 
L 1159 2956 
Q 1341 3275 1631 3429 
Q 1922 3584 2338 3584 
Q 2397 3584 2469 3576 
Q 2541 3569 2628 3553 
L 2631 2963 
z
" id="DejaVuSans-72" transform="scale(0.015625)"/>
       <path d="M 2194 1759 
Q 1497 1759 1228 1600 
Q 959 1441 959 1056 
Q 959 750 1161 570 
Q 1363 391 1709 391 
Q 2188 391 2477 730 
Q 2766 1069 2766 1631 
L 2766 1759 
L 2194 1759 
z
M 3341 1997 
L 3341 0 
L 2766 0 
L 2766 531 
Q 2569 213 2275 61 
Q 1981 -91 1556 -91 
Q 1019 -91 701 211 
Q 384 513 384 1019 
Q 384 1609 779 1909 
Q 1175 2209 1959 2209 
L 2766 2209 
L 2766 2266 
Q 2766 2663 2505 2880 
Q 2244 3097 1772 3097 
Q 1472 3097 1187 3025 
Q 903 2953 641 2809 
L 641 3341 
Q 956 3463 1253 3523 
Q 1550 3584 1831 3584 
Q 2591 3584 2966 3190 
Q 3341 2797 3341 1997 
z
" id="DejaVuSans-61" transform="scale(0.015625)"/>
       <path d="M 1172 4494 
L 1172 3500 
L 2356 3500 
L 2356 3053 
L 1172 3053 
L 1172 1153 
Q 1172 725 1289 603 
Q 1406 481 1766 481 
L 2356 481 
L 2356 0 
L 1766 0 
Q 1100 0 847 248 
Q 594 497 594 1153 
L 594 3053 
L 172 3053 
L 172 3500 
L 594 3500 
L 594 4494 
L 1172 4494 
z
" id="DejaVuSans-74" transform="scale(0.015625)"/>
       <path d="M 3597 1894 
L 3597 1613 
L 953 1613 
Q 991 1019 1311 708 
Q 1631 397 2203 397 
Q 2534 397 2845 478 
Q 3156 559 3463 722 
L 3463 178 
Q 3153 47 2828 -22 
Q 2503 -91 2169 -91 
Q 1331 -91 842 396 
Q 353 884 353 1716 
Q 353 2575 817 3079 
Q 1281 3584 2069 3584 
Q 2775 3584 3186 3129 
Q 3597 2675 3597 1894 
z
M 3022 2063 
Q 3016 2534 2758 2815 
Q 2500 3097 2075 3097 
Q 1594 3097 1305 2825 
Q 1016 2553 972 2059 
L 3022 2063 
z
" id="DejaVuSans-65" transform="scale(0.015625)"/>
      </defs>
      <use xlink:href="#DejaVuSans-6c"/>
      <use x="27.783203" xlink:href="#DejaVuSans-6f"/>
      <use x="88.964844" xlink:href="#DejaVuSans-67"/>
      <use x="152.441406" xlink:href="#DejaVuSans-5f"/>
      <use x="202.441406" xlink:href="#DejaVuSans-64"/>
      <use x="265.917969" xlink:href="#DejaVuSans-69"/>
      <use x="293.701172" xlink:href="#DejaVuSans-76"/>
      <use x="352.880859" xlink:href="#DejaVuSans-69"/>
      <use x="380.664062" xlink:href="#DejaVuSans-73"/>
      <use x="432.763672" xlink:href="#DejaVuSans-69"/>
      <use x="460.546875" xlink:href="#DejaVuSans-6f"/>
      <use x="521.728516" xlink:href="#DejaVuSans-6e"/>
      <use x="585.107422" xlink:href="#DejaVuSans-5f"/>
      <use x="635.107422" xlink:href="#DejaVuSans-72"/>
      <use x="676.220703" xlink:href="#DejaVuSans-61"/>
      <use x="737.5" xlink:href="#DejaVuSans-74"/>
      <use x="776.708984" xlink:href="#DejaVuSans-65"/>
     </g>
    </g>
   </g>
   <g id="matplotlib.axis_2">
    <g id="ytick_1">
     <g id="line2d_6">
      <defs>
       <path d="M 0 0 
L -3.5 0 
" id="m8f03ff8b3c" style="stroke:#000000;stroke-width:0.8;"/>
      </defs>
      <g>
       <use style="stroke:#000000;stroke-width:0.8;" x="47.675" xlink:href="#m8f03ff8b3c" y="159.05499"/>
      </g>
     </g>
     <g id="text_7">
      <!-- 0.2 -->
      <g transform="translate(24.771875 162.854209)scale(0.1 -0.1)">
       <use xlink:href="#DejaVuSans-30"/>
       <use x="63.623047" xlink:href="#DejaVuSans-2e"/>
       <use x="95.410156" xlink:href="#DejaVuSans-32"/>
      </g>
     </g>
    </g>
    <g id="ytick_2">
     <g id="line2d_7">
      <g>
       <use style="stroke:#000000;stroke-width:0.8;" x="47.675" xlink:href="#m8f03ff8b3c" y="133.895337"/>
      </g>
     </g>
     <g id="text_8">
      <!-- 0.3 -->
      <g transform="translate(24.771875 137.694555)scale(0.1 -0.1)">
       <use xlink:href="#DejaVuSans-30"/>
       <use x="63.623047" xlink:href="#DejaVuSans-2e"/>
       <use x="95.410156" xlink:href="#DejaVuSans-33"/>
      </g>
     </g>
    </g>
    <g id="ytick_3">
     <g id="line2d_8">
      <g>
       <use style="stroke:#000000;stroke-width:0.8;" x="47.675" xlink:href="#m8f03ff8b3c" y="108.735683"/>
      </g>
     </g>
     <g id="text_9">
      <!-- 0.4 -->
      <g transform="translate(24.771875 112.534902)scale(0.1 -0.1)">
       <defs>
        <path d="M 2419 4116 
L 825 1625 
L 2419 1625 
L 2419 4116 
z
M 2253 4666 
L 3047 4666 
L 3047 1625 
L 3713 1625 
L 3713 1100 
L 3047 1100 
L 3047 0 
L 2419 0 
L 2419 1100 
L 313 1100 
L 313 1709 
L 2253 4666 
z
" id="DejaVuSans-34" transform="scale(0.015625)"/>
       </defs>
       <use xlink:href="#DejaVuSans-30"/>
       <use x="63.623047" xlink:href="#DejaVuSans-2e"/>
       <use x="95.410156" xlink:href="#DejaVuSans-34"/>
      </g>
     </g>
    </g>
    <g id="ytick_4">
     <g id="line2d_9">
      <g>
       <use style="stroke:#000000;stroke-width:0.8;" x="47.675" xlink:href="#m8f03ff8b3c" y="83.57603"/>
      </g>
     </g>
     <g id="text_10">
      <!-- 0.5 -->
      <g transform="translate(24.771875 87.375248)scale(0.1 -0.1)">
       <use xlink:href="#DejaVuSans-30"/>
       <use x="63.623047" xlink:href="#DejaVuSans-2e"/>
       <use x="95.410156" xlink:href="#DejaVuSans-35"/>
      </g>
     </g>
    </g>
    <g id="ytick_5">
     <g id="line2d_10">
      <g>
       <use style="stroke:#000000;stroke-width:0.8;" x="47.675" xlink:href="#m8f03ff8b3c" y="58.416376"/>
      </g>
     </g>
     <g id="text_11">
      <!-- 0.6 -->
      <g transform="translate(24.771875 62.215595)scale(0.1 -0.1)">
       <defs>
        <path d="M 2113 2584 
Q 1688 2584 1439 2293 
Q 1191 2003 1191 1497 
Q 1191 994 1439 701 
Q 1688 409 2113 409 
Q 2538 409 2786 701 
Q 3034 994 3034 1497 
Q 3034 2003 2786 2293 
Q 2538 2584 2113 2584 
z
M 3366 4563 
L 3366 3988 
Q 3128 4100 2886 4159 
Q 2644 4219 2406 4219 
Q 1781 4219 1451 3797 
Q 1122 3375 1075 2522 
Q 1259 2794 1537 2939 
Q 1816 3084 2150 3084 
Q 2853 3084 3261 2657 
Q 3669 2231 3669 1497 
Q 3669 778 3244 343 
Q 2819 -91 2113 -91 
Q 1303 -91 875 529 
Q 447 1150 447 2328 
Q 447 3434 972 4092 
Q 1497 4750 2381 4750 
Q 2619 4750 2861 4703 
Q 3103 4656 3366 4563 
z
" id="DejaVuSans-36" transform="scale(0.015625)"/>
       </defs>
       <use xlink:href="#DejaVuSans-30"/>
       <use x="63.623047" xlink:href="#DejaVuSans-2e"/>
       <use x="95.410156" xlink:href="#DejaVuSans-36"/>
      </g>
     </g>
    </g>
    <g id="text_12">
     <!-- Posterior -->
     <g transform="translate(18.692187 127.841444)rotate(-90)scale(0.1 -0.1)">
      <defs>
       <path d="M 1259 4147 
L 1259 2394 
L 2053 2394 
Q 2494 2394 2734 2622 
Q 2975 2850 2975 3272 
Q 2975 3691 2734 3919 
Q 2494 4147 2053 4147 
L 1259 4147 
z
M 628 4666 
L 2053 4666 
Q 2838 4666 3239 4311 
Q 3641 3956 3641 3272 
Q 3641 2581 3239 2228 
Q 2838 1875 2053 1875 
L 1259 1875 
L 1259 0 
L 628 0 
L 628 4666 
z
" id="DejaVuSans-50" transform="scale(0.015625)"/>
      </defs>
      <use xlink:href="#DejaVuSans-50"/>
      <use x="56.677734" xlink:href="#DejaVuSans-6f"/>
      <use x="117.859375" xlink:href="#DejaVuSans-73"/>
      <use x="169.958984" xlink:href="#DejaVuSans-74"/>
      <use x="209.167969" xlink:href="#DejaVuSans-65"/>
      <use x="270.691406" xlink:href="#DejaVuSans-72"/>
      <use x="311.804688" xlink:href="#DejaVuSans-69"/>
      <use x="339.587891" xlink:href="#DejaVuSans-6f"/>
      <use x="400.769531" xlink:href="#DejaVuSans-72"/>
     </g>
    </g>
   </g>
   <g id="line2d_11">
    <path clip-path="url(#p668e3595ab)" d="M 47.675 167.153199 
L 52.352807 156.86145 
L 60.149152 139.656852 
L 63.26769 133.27419 
L 65.866472 128.355502 
L 68.465253 123.886351 
L 70.544279 120.679198 
L 72.623304 117.827748 
L 74.702329 115.350154 
L 76.781355 113.256286 
L 78.86038 111.547212 
L 80.419649 110.513414 
L 81.978918 109.684871 
L 83.538187 109.051832 
L 85.617212 108.489775 
L 87.696237 108.215543 
L 89.775263 108.184696 
L 92.374044 108.411298 
L 95.492582 108.930651 
L 102.249415 110.137709 
L 104.848196 110.365054 
L 107.446978 110.358857 
L 110.04576 110.084564 
L 112.644541 109.530422 
L 115.243323 108.70382 
L 117.842105 107.625235 
L 120.440886 106.320659 
L 123.559424 104.489523 
L 126.677962 102.388626 
L 129.7965 100.010077 
L 132.915038 97.31407 
L 135.51382 94.779433 
L 138.112602 91.939099 
L 140.711383 88.757415 
L 143.310165 85.213915 
L 145.908946 81.312063 
L 149.027484 76.207197 
L 153.185535 68.902145 
L 159.422611 57.931205 
L 162.021393 53.81887 
L 164.100418 50.905464 
L 166.179443 48.426145 
L 167.738712 46.90389 
L 169.297981 45.708496 
L 170.85725 44.870795 
L 171.896763 44.524729 
L 172.936276 44.357078 
L 173.975788 44.374232 
L 175.015301 44.581743 
L 176.054814 44.984297 
L 177.094326 45.58569 
L 178.133839 46.388803 
L 179.173352 47.395589 
L 180.732621 49.289595 
L 182.29189 51.643278 
L 183.851159 54.451142 
L 185.410428 57.70282 
L 186.969697 61.383111 
L 189.048722 66.921745 
L 191.127747 73.126405 
L 193.726529 81.705528 
L 196.845067 92.979626 
L 200.483361 107.04993 
L 203.082143 117.395532 
L 203.082143 117.395532 
" style="fill:none;stroke:#1f77b4;stroke-linecap:square;stroke-width:1.5;"/>
   </g>
   <g id="line2d_12">
    <path clip-path="url(#p668e3595ab)" d="M 173.565358 173.29375 
L 173.565358 38.201637 
" style="fill:none;stroke:#808080;stroke-dasharray:1.5,2.475;stroke-dashoffset:0;stroke-width:1.5;"/>
   </g>
   <g id="patch_3">
    <path d="M 47.675 173.29375 
L 47.675 38.201637 
" style="fill:none;stroke:#000000;stroke-linecap:square;stroke-linejoin:miter;stroke-width:0.8;"/>
   </g>
   <g id="patch_4">
    <path d="M 47.675 173.29375 
L 203.082143 173.29375 
" style="fill:none;stroke:#000000;stroke-linecap:square;stroke-linejoin:miter;stroke-width:0.8;"/>
   </g>
  </g>
  <g id="axes_2">
   <g id="patch_5">
    <path d="M 263.507143 173.29375 
L 418.914286 173.29375 
L 418.914286 38.201637 
L 263.507143 38.201637 
z
" style="fill:#ffffff;"/>
   </g>
   <g id="matplotlib.axis_3">
    <g id="xtick_6">
     <g id="line2d_13">
      <g>
       <use style="stroke:#000000;stroke-width:0.8;" x="263.507143" xlink:href="#m04c852cd2e" y="173.29375"/>
      </g>
     </g>
     <g id="text_13">
      <!-- 1.0 -->
      <g transform="translate(255.55558 187.892188)scale(0.1 -0.1)">
       <use xlink:href="#DejaVuSans-31"/>
       <use x="63.623047" xlink:href="#DejaVuSans-2e"/>
       <use x="95.410156" xlink:href="#DejaVuSans-30"/>
      </g>
     </g>
    </g>
    <g id="xtick_7">
     <g id="line2d_14">
      <g>
       <use style="stroke:#000000;stroke-width:0.8;" x="302.358929" xlink:href="#m04c852cd2e" y="173.29375"/>
      </g>
     </g>
     <g id="text_14">
      <!-- 1.5 -->
      <g transform="translate(294.407366 187.892188)scale(0.1 -0.1)">
       <use xlink:href="#DejaVuSans-31"/>
       <use x="63.623047" xlink:href="#DejaVuSans-2e"/>
       <use x="95.410156" xlink:href="#DejaVuSans-35"/>
      </g>
     </g>
    </g>
    <g id="xtick_8">
     <g id="line2d_15">
      <g>
       <use style="stroke:#000000;stroke-width:0.8;" x="341.210714" xlink:href="#m04c852cd2e" y="173.29375"/>
      </g>
     </g>
     <g id="text_15">
      <!-- 2.0 -->
      <g transform="translate(333.259152 187.892188)scale(0.1 -0.1)">
       <use xlink:href="#DejaVuSans-32"/>
       <use x="63.623047" xlink:href="#DejaVuSans-2e"/>
       <use x="95.410156" xlink:href="#DejaVuSans-30"/>
      </g>
     </g>
    </g>
    <g id="xtick_9">
     <g id="line2d_16">
      <g>
       <use style="stroke:#000000;stroke-width:0.8;" x="380.0625" xlink:href="#m04c852cd2e" y="173.29375"/>
      </g>
     </g>
     <g id="text_16">
      <!-- 2.5 -->
      <g transform="translate(372.110937 187.892188)scale(0.1 -0.1)">
       <use xlink:href="#DejaVuSans-32"/>
       <use x="63.623047" xlink:href="#DejaVuSans-2e"/>
       <use x="95.410156" xlink:href="#DejaVuSans-35"/>
      </g>
     </g>
    </g>
    <g id="xtick_10">
     <g id="line2d_17">
      <g>
       <use style="stroke:#000000;stroke-width:0.8;" x="418.914286" xlink:href="#m04c852cd2e" y="173.29375"/>
      </g>
     </g>
     <g id="text_17">
      <!-- 3.0 -->
      <g transform="translate(410.962723 187.892188)scale(0.1 -0.1)">
       <use xlink:href="#DejaVuSans-33"/>
       <use x="63.623047" xlink:href="#DejaVuSans-2e"/>
       <use x="95.410156" xlink:href="#DejaVuSans-30"/>
      </g>
     </g>
    </g>
    <g id="text_18">
     <!-- log_division_depth -->
     <g transform="translate(294.900558 201.570312)scale(0.1 -0.1)">
      <defs>
       <path d="M 1159 525 
L 1159 -1331 
L 581 -1331 
L 581 3500 
L 1159 3500 
L 1159 2969 
Q 1341 3281 1617 3432 
Q 1894 3584 2278 3584 
Q 2916 3584 3314 3078 
Q 3713 2572 3713 1747 
Q 3713 922 3314 415 
Q 2916 -91 2278 -91 
Q 1894 -91 1617 61 
Q 1341 213 1159 525 
z
M 3116 1747 
Q 3116 2381 2855 2742 
Q 2594 3103 2138 3103 
Q 1681 3103 1420 2742 
Q 1159 2381 1159 1747 
Q 1159 1113 1420 752 
Q 1681 391 2138 391 
Q 2594 391 2855 752 
Q 3116 1113 3116 1747 
z
" id="DejaVuSans-70" transform="scale(0.015625)"/>
       <path d="M 3513 2113 
L 3513 0 
L 2938 0 
L 2938 2094 
Q 2938 2591 2744 2837 
Q 2550 3084 2163 3084 
Q 1697 3084 1428 2787 
Q 1159 2491 1159 1978 
L 1159 0 
L 581 0 
L 581 4863 
L 1159 4863 
L 1159 2956 
Q 1366 3272 1645 3428 
Q 1925 3584 2291 3584 
Q 2894 3584 3203 3211 
Q 3513 2838 3513 2113 
z
" id="DejaVuSans-68" transform="scale(0.015625)"/>
      </defs>
      <use xlink:href="#DejaVuSans-6c"/>
      <use x="27.783203" xlink:href="#DejaVuSans-6f"/>
      <use x="88.964844" xlink:href="#DejaVuSans-67"/>
      <use x="152.441406" xlink:href="#DejaVuSans-5f"/>
      <use x="202.441406" xlink:href="#DejaVuSans-64"/>
      <use x="265.917969" xlink:href="#DejaVuSans-69"/>
      <use x="293.701172" xlink:href="#DejaVuSans-76"/>
      <use x="352.880859" xlink:href="#DejaVuSans-69"/>
      <use x="380.664062" xlink:href="#DejaVuSans-73"/>
      <use x="432.763672" xlink:href="#DejaVuSans-69"/>
      <use x="460.546875" xlink:href="#DejaVuSans-6f"/>
      <use x="521.728516" xlink:href="#DejaVuSans-6e"/>
      <use x="585.107422" xlink:href="#DejaVuSans-5f"/>
      <use x="635.107422" xlink:href="#DejaVuSans-64"/>
      <use x="698.583984" xlink:href="#DejaVuSans-65"/>
      <use x="760.107422" xlink:href="#DejaVuSans-70"/>
      <use x="823.583984" xlink:href="#DejaVuSans-74"/>
      <use x="862.792969" xlink:href="#DejaVuSans-68"/>
     </g>
    </g>
   </g>
   <g id="matplotlib.axis_4">
    <g id="ytick_6">
     <g id="line2d_18">
      <g>
       <use style="stroke:#000000;stroke-width:0.8;" x="263.507143" xlink:href="#m8f03ff8b3c" y="147.643178"/>
      </g>
     </g>
     <g id="text_19">
      <!-- 0.2 -->
      <g transform="translate(240.604018 151.442397)scale(0.1 -0.1)">
       <use xlink:href="#DejaVuSans-30"/>
       <use x="63.623047" xlink:href="#DejaVuSans-2e"/>
       <use x="95.410156" xlink:href="#DejaVuSans-32"/>
      </g>
     </g>
    </g>
    <g id="ytick_7">
     <g id="line2d_19">
      <g>
       <use style="stroke:#000000;stroke-width:0.8;" x="263.507143" xlink:href="#m8f03ff8b3c" y="110.465068"/>
      </g>
     </g>
     <g id="text_20">
      <!-- 0.4 -->
      <g transform="translate(240.604018 114.264287)scale(0.1 -0.1)">
       <use xlink:href="#DejaVuSans-30"/>
       <use x="63.623047" xlink:href="#DejaVuSans-2e"/>
       <use x="95.410156" xlink:href="#DejaVuSans-34"/>
      </g>
     </g>
    </g>
    <g id="ytick_8">
     <g id="line2d_20">
      <g>
       <use style="stroke:#000000;stroke-width:0.8;" x="263.507143" xlink:href="#m8f03ff8b3c" y="73.286958"/>
      </g>
     </g>
     <g id="text_21">
      <!-- 0.6 -->
      <g transform="translate(240.604018 77.086177)scale(0.1 -0.1)">
       <use xlink:href="#DejaVuSans-30"/>
       <use x="63.623047" xlink:href="#DejaVuSans-2e"/>
       <use x="95.410156" xlink:href="#DejaVuSans-36"/>
      </g>
     </g>
    </g>
    <g id="text_22">
     <!-- Posterior -->
     <g transform="translate(234.52433 127.841444)rotate(-90)scale(0.1 -0.1)">
      <use xlink:href="#DejaVuSans-50"/>
      <use x="56.677734" xlink:href="#DejaVuSans-6f"/>
      <use x="117.859375" xlink:href="#DejaVuSans-73"/>
      <use x="169.958984" xlink:href="#DejaVuSans-74"/>
      <use x="209.167969" xlink:href="#DejaVuSans-65"/>
      <use x="270.691406" xlink:href="#DejaVuSans-72"/>
      <use x="311.804688" xlink:href="#DejaVuSans-69"/>
      <use x="339.587891" xlink:href="#DejaVuSans-6f"/>
      <use x="400.769531" xlink:href="#DejaVuSans-72"/>
     </g>
    </g>
   </g>
   <g id="line2d_21">
    <path clip-path="url(#p05bc75ceb0)" d="M 263.507143 157.437099 
L 265.586168 152.973436 
L 268.18495 146.809599 
L 270.783731 140.004544 
L 273.382513 132.583044 
L 276.501051 122.933646 
L 280.139345 110.84168 
L 291.054228 73.666057 
L 293.65301 65.977281 
L 295.732035 60.518676 
L 297.811061 55.790614 
L 299.37033 52.770792 
L 300.929599 50.224097 
L 302.488868 48.157025 
L 304.048137 46.563254 
L 305.087649 45.754851 
L 306.127162 45.140116 
L 307.166675 44.708391 
L 308.206187 44.44713 
L 309.765456 44.343555 
L 311.324725 44.538611 
L 312.883994 44.975724 
L 314.96302 45.835825 
L 318.081558 47.460859 
L 323.798877 50.50114 
L 327.437172 52.12277 
L 335.233516 55.388041 
L 337.832298 56.808691 
L 339.911323 58.1873 
L 341.990349 59.819255 
L 344.069374 61.723846 
L 346.148399 63.906037 
L 348.747181 67.012319 
L 351.345963 70.507225 
L 354.464501 75.147793 
L 357.583039 80.186971 
L 361.741089 87.347759 
L 373.175729 107.378778 
L 376.294267 112.314834 
L 379.412805 116.847631 
L 382.531343 120.971827 
L 386.169637 125.351238 
L 391.3672 131.169911 
L 396.564763 137.067265 
L 400.203058 141.51414 
L 403.841352 146.294311 
L 408.519159 152.828956 
L 416.315504 163.781278 
L 418.914286 167.153199 
L 418.914286 167.153199 
" style="fill:none;stroke:#1f77b4;stroke-linecap:square;stroke-width:1.5;"/>
   </g>
   <g id="line2d_22">
    <path clip-path="url(#p05bc75ceb0)" d="M 341.210714 173.29375 
L 341.210714 38.201637 
" style="fill:none;stroke:#808080;stroke-dasharray:1.5,2.475;stroke-dashoffset:0;stroke-width:1.5;"/>
   </g>
   <g id="patch_6">
    <path d="M 263.507143 173.29375 
L 263.507143 38.201637 
" style="fill:none;stroke:#000000;stroke-linecap:square;stroke-linejoin:miter;stroke-width:0.8;"/>
   </g>
   <g id="patch_7">
    <path d="M 263.507143 173.29375 
L 418.914286 173.29375 
" style="fill:none;stroke:#000000;stroke-linecap:square;stroke-linejoin:miter;stroke-width:0.8;"/>
   </g>
  </g>
  <g id="axes_3">
   <g id="patch_8">
    <path d="M 479.339286 173.29375 
L 634.746429 173.29375 
L 634.746429 38.201637 
L 479.339286 38.201637 
z
" style="fill:#ffffff;"/>
   </g>
   <g id="matplotlib.axis_5">
    <g id="xtick_11">
     <g id="line2d_23">
      <g>
       <use style="stroke:#000000;stroke-width:0.8;" x="479.339286" xlink:href="#m04c852cd2e" y="173.29375"/>
      </g>
     </g>
     <g id="text_23">
      <!-- 0.00 -->
      <g transform="translate(468.206473 187.892188)scale(0.1 -0.1)">
       <use xlink:href="#DejaVuSans-30"/>
       <use x="63.623047" xlink:href="#DejaVuSans-2e"/>
       <use x="95.410156" xlink:href="#DejaVuSans-30"/>
       <use x="159.033203" xlink:href="#DejaVuSans-30"/>
      </g>
     </g>
    </g>
    <g id="xtick_12">
     <g id="line2d_24">
      <g>
       <use style="stroke:#000000;stroke-width:0.8;" x="511.715774" xlink:href="#m04c852cd2e" y="173.29375"/>
      </g>
     </g>
     <g id="text_24">
      <!-- 0.25 -->
      <g transform="translate(500.582961 187.892188)scale(0.1 -0.1)">
       <use xlink:href="#DejaVuSans-30"/>
       <use x="63.623047" xlink:href="#DejaVuSans-2e"/>
       <use x="95.410156" xlink:href="#DejaVuSans-32"/>
       <use x="159.033203" xlink:href="#DejaVuSans-35"/>
      </g>
     </g>
    </g>
    <g id="xtick_13">
     <g id="line2d_25">
      <g>
       <use style="stroke:#000000;stroke-width:0.8;" x="544.092262" xlink:href="#m04c852cd2e" y="173.29375"/>
      </g>
     </g>
     <g id="text_25">
      <!-- 0.50 -->
      <g transform="translate(532.959449 187.892188)scale(0.1 -0.1)">
       <use xlink:href="#DejaVuSans-30"/>
       <use x="63.623047" xlink:href="#DejaVuSans-2e"/>
       <use x="95.410156" xlink:href="#DejaVuSans-35"/>
       <use x="159.033203" xlink:href="#DejaVuSans-30"/>
      </g>
     </g>
    </g>
    <g id="xtick_14">
     <g id="line2d_26">
      <g>
       <use style="stroke:#000000;stroke-width:0.8;" x="576.46875" xlink:href="#m04c852cd2e" y="173.29375"/>
      </g>
     </g>
     <g id="text_26">
      <!-- 0.75 -->
      <g transform="translate(565.335938 187.892188)scale(0.1 -0.1)">
       <defs>
        <path d="M 525 4666 
L 3525 4666 
L 3525 4397 
L 1831 0 
L 1172 0 
L 2766 4134 
L 525 4134 
L 525 4666 
z
" id="DejaVuSans-37" transform="scale(0.015625)"/>
       </defs>
       <use xlink:href="#DejaVuSans-30"/>
       <use x="63.623047" xlink:href="#DejaVuSans-2e"/>
       <use x="95.410156" xlink:href="#DejaVuSans-37"/>
       <use x="159.033203" xlink:href="#DejaVuSans-35"/>
      </g>
     </g>
    </g>
    <g id="xtick_15">
     <g id="line2d_27">
      <g>
       <use style="stroke:#000000;stroke-width:0.8;" x="608.845238" xlink:href="#m04c852cd2e" y="173.29375"/>
      </g>
     </g>
     <g id="text_27">
      <!-- 1.00 -->
      <g transform="translate(597.712426 187.892188)scale(0.1 -0.1)">
       <use xlink:href="#DejaVuSans-31"/>
       <use x="63.623047" xlink:href="#DejaVuSans-2e"/>
       <use x="95.410156" xlink:href="#DejaVuSans-30"/>
       <use x="159.033203" xlink:href="#DejaVuSans-30"/>
      </g>
     </g>
    </g>
    <g id="text_28">
     <!-- log_initial_spheroid_radius -->
     <g transform="translate(491.124888 201.570312)scale(0.1 -0.1)">
      <defs>
       <path d="M 544 1381 
L 544 3500 
L 1119 3500 
L 1119 1403 
Q 1119 906 1312 657 
Q 1506 409 1894 409 
Q 2359 409 2629 706 
Q 2900 1003 2900 1516 
L 2900 3500 
L 3475 3500 
L 3475 0 
L 2900 0 
L 2900 538 
Q 2691 219 2414 64 
Q 2138 -91 1772 -91 
Q 1169 -91 856 284 
Q 544 659 544 1381 
z
M 1991 3584 
L 1991 3584 
z
" id="DejaVuSans-75" transform="scale(0.015625)"/>
      </defs>
      <use xlink:href="#DejaVuSans-6c"/>
      <use x="27.783203" xlink:href="#DejaVuSans-6f"/>
      <use x="88.964844" xlink:href="#DejaVuSans-67"/>
      <use x="152.441406" xlink:href="#DejaVuSans-5f"/>
      <use x="202.441406" xlink:href="#DejaVuSans-69"/>
      <use x="230.224609" xlink:href="#DejaVuSans-6e"/>
      <use x="293.603516" xlink:href="#DejaVuSans-69"/>
      <use x="321.386719" xlink:href="#DejaVuSans-74"/>
      <use x="360.595703" xlink:href="#DejaVuSans-69"/>
      <use x="388.378906" xlink:href="#DejaVuSans-61"/>
      <use x="449.658203" xlink:href="#DejaVuSans-6c"/>
      <use x="477.441406" xlink:href="#DejaVuSans-5f"/>
      <use x="527.441406" xlink:href="#DejaVuSans-73"/>
      <use x="579.541016" xlink:href="#DejaVuSans-70"/>
      <use x="643.017578" xlink:href="#DejaVuSans-68"/>
      <use x="706.396484" xlink:href="#DejaVuSans-65"/>
      <use x="767.919922" xlink:href="#DejaVuSans-72"/>
      <use x="806.783203" xlink:href="#DejaVuSans-6f"/>
      <use x="867.964844" xlink:href="#DejaVuSans-69"/>
      <use x="895.748047" xlink:href="#DejaVuSans-64"/>
      <use x="959.224609" xlink:href="#DejaVuSans-5f"/>
      <use x="1009.224609" xlink:href="#DejaVuSans-72"/>
      <use x="1050.337891" xlink:href="#DejaVuSans-61"/>
      <use x="1111.617188" xlink:href="#DejaVuSans-64"/>
      <use x="1175.09375" xlink:href="#DejaVuSans-69"/>
      <use x="1202.876953" xlink:href="#DejaVuSans-75"/>
      <use x="1266.255859" xlink:href="#DejaVuSans-73"/>
     </g>
    </g>
   </g>
   <g id="matplotlib.axis_6">
    <g id="ytick_9">
     <g id="line2d_28">
      <g>
       <use style="stroke:#000000;stroke-width:0.8;" x="479.339286" xlink:href="#m8f03ff8b3c" y="134.848976"/>
      </g>
     </g>
     <g id="text_29">
      <!-- 0.5 -->
      <g transform="translate(456.436161 138.648195)scale(0.1 -0.1)">
       <use xlink:href="#DejaVuSans-30"/>
       <use x="63.623047" xlink:href="#DejaVuSans-2e"/>
       <use x="95.410156" xlink:href="#DejaVuSans-35"/>
      </g>
     </g>
    </g>
    <g id="ytick_10">
     <g id="line2d_29">
      <g>
       <use style="stroke:#000000;stroke-width:0.8;" x="479.339286" xlink:href="#m8f03ff8b3c" y="91.068366"/>
      </g>
     </g>
     <g id="text_30">
      <!-- 1.0 -->
      <g transform="translate(456.436161 94.867584)scale(0.1 -0.1)">
       <use xlink:href="#DejaVuSans-31"/>
       <use x="63.623047" xlink:href="#DejaVuSans-2e"/>
       <use x="95.410156" xlink:href="#DejaVuSans-30"/>
      </g>
     </g>
    </g>
    <g id="ytick_11">
     <g id="line2d_30">
      <g>
       <use style="stroke:#000000;stroke-width:0.8;" x="479.339286" xlink:href="#m8f03ff8b3c" y="47.287755"/>
      </g>
     </g>
     <g id="text_31">
      <!-- 1.5 -->
      <g transform="translate(456.436161 51.086974)scale(0.1 -0.1)">
       <use xlink:href="#DejaVuSans-31"/>
       <use x="63.623047" xlink:href="#DejaVuSans-2e"/>
       <use x="95.410156" xlink:href="#DejaVuSans-35"/>
      </g>
     </g>
    </g>
    <g id="text_32">
     <!-- Posterior -->
     <g transform="translate(450.356473 127.841444)rotate(-90)scale(0.1 -0.1)">
      <use xlink:href="#DejaVuSans-50"/>
      <use x="56.677734" xlink:href="#DejaVuSans-6f"/>
      <use x="117.859375" xlink:href="#DejaVuSans-73"/>
      <use x="169.958984" xlink:href="#DejaVuSans-74"/>
      <use x="209.167969" xlink:href="#DejaVuSans-65"/>
      <use x="270.691406" xlink:href="#DejaVuSans-72"/>
      <use x="311.804688" xlink:href="#DejaVuSans-69"/>
      <use x="339.587891" xlink:href="#DejaVuSans-6f"/>
      <use x="400.769531" xlink:href="#DejaVuSans-72"/>
     </g>
    </g>
   </g>
   <g id="line2d_31">
    <path clip-path="url(#pd6eaad6691)" d="M 479.339286 167.153199 
L 483.497336 164.068436 
L 490.254169 158.715296 
L 497.011001 153.432677 
L 501.688808 150.044182 
L 506.366615 146.94257 
L 511.564178 143.795537 
L 520.400036 138.792522 
L 527.156868 134.852725 
L 533.9137 130.636461 
L 548.466878 121.444843 
L 554.184197 117.796026 
L 557.302735 115.572867 
L 559.901517 113.482448 
L 562.500299 111.095346 
L 564.579324 108.923512 
L 566.658349 106.483158 
L 568.737375 103.747728 
L 570.8164 100.698399 
L 573.415182 96.432132 
L 576.013963 91.66856 
L 578.612745 86.447424 
L 581.731283 79.690355 
L 592.126409 56.647258 
L 594.205435 52.80111 
L 595.764704 50.283004 
L 597.323973 48.14305 
L 598.883242 46.435223 
L 599.922754 45.561091 
L 600.962267 44.913654 
L 602.00178 44.504176 
L 603.041292 44.342188 
L 604.080805 44.435328 
L 605.120318 44.78922 
L 606.15983 45.407378 
L 607.199343 46.291141 
L 608.238856 47.439653 
L 609.278368 48.849862 
L 610.837637 51.443921 
L 612.396906 54.588447 
L 613.956175 58.247662 
L 616.035201 63.849744 
L 618.114226 70.163667 
L 620.713008 78.84359 
L 624.351302 91.942685 
L 632.147647 120.404354 
L 634.746429 129.157476 
L 634.746429 129.157476 
" style="fill:none;stroke:#1f77b4;stroke-linecap:square;stroke-width:1.5;"/>
   </g>
   <g id="line2d_32">
    <path clip-path="url(#pd6eaad6691)" d="M 619.099681 173.29375 
L 619.099681 38.201637 
" style="fill:none;stroke:#808080;stroke-dasharray:1.5,2.475;stroke-dashoffset:0;stroke-width:1.5;"/>
   </g>
   <g id="patch_9">
    <path d="M 479.339286 173.29375 
L 479.339286 38.201637 
" style="fill:none;stroke:#000000;stroke-linecap:square;stroke-linejoin:miter;stroke-width:0.8;"/>
   </g>
   <g id="patch_10">
    <path d="M 479.339286 173.29375 
L 634.746429 173.29375 
" style="fill:none;stroke:#000000;stroke-linecap:square;stroke-linejoin:miter;stroke-width:0.8;"/>
   </g>
  </g>
  <g id="axes_4">
   <g id="patch_11">
    <path d="M 695.171429 173.29375 
L 850.578571 173.29375 
L 850.578571 38.201637 
L 695.171429 38.201637 
z
" style="fill:#ffffff;"/>
   </g>
   <g id="matplotlib.axis_7">
    <g id="xtick_16">
     <g id="line2d_33">
      <g>
       <use style="stroke:#000000;stroke-width:0.8;" x="695.171429" xlink:href="#m04c852cd2e" y="173.29375"/>
      </g>
     </g>
     <g id="text_33">
      <!-- −5 -->
      <g transform="translate(687.800335 187.892188)scale(0.1 -0.1)">
       <use xlink:href="#DejaVuSans-2212"/>
       <use x="83.789062" xlink:href="#DejaVuSans-35"/>
      </g>
     </g>
    </g>
    <g id="xtick_17">
     <g id="line2d_34">
      <g>
       <use style="stroke:#000000;stroke-width:0.8;" x="726.252857" xlink:href="#m04c852cd2e" y="173.29375"/>
      </g>
     </g>
     <g id="text_34">
      <!-- −4 -->
      <g transform="translate(718.881763 187.892188)scale(0.1 -0.1)">
       <use xlink:href="#DejaVuSans-2212"/>
       <use x="83.789062" xlink:href="#DejaVuSans-34"/>
      </g>
     </g>
    </g>
    <g id="xtick_18">
     <g id="line2d_35">
      <g>
       <use style="stroke:#000000;stroke-width:0.8;" x="757.334286" xlink:href="#m04c852cd2e" y="173.29375"/>
      </g>
     </g>
     <g id="text_35">
      <!-- −3 -->
      <g transform="translate(749.963192 187.892188)scale(0.1 -0.1)">
       <use xlink:href="#DejaVuSans-2212"/>
       <use x="83.789062" xlink:href="#DejaVuSans-33"/>
      </g>
     </g>
    </g>
    <g id="xtick_19">
     <g id="line2d_36">
      <g>
       <use style="stroke:#000000;stroke-width:0.8;" x="788.415714" xlink:href="#m04c852cd2e" y="173.29375"/>
      </g>
     </g>
     <g id="text_36">
      <!-- −2 -->
      <g transform="translate(781.044621 187.892188)scale(0.1 -0.1)">
       <use xlink:href="#DejaVuSans-2212"/>
       <use x="83.789062" xlink:href="#DejaVuSans-32"/>
      </g>
     </g>
    </g>
    <g id="xtick_20">
     <g id="line2d_37">
      <g>
       <use style="stroke:#000000;stroke-width:0.8;" x="819.497143" xlink:href="#m04c852cd2e" y="173.29375"/>
      </g>
     </g>
     <g id="text_37">
      <!-- −1 -->
      <g transform="translate(812.126049 187.892188)scale(0.1 -0.1)">
       <use xlink:href="#DejaVuSans-2212"/>
       <use x="83.789062" xlink:href="#DejaVuSans-31"/>
      </g>
     </g>
    </g>
    <g id="xtick_21">
     <g id="line2d_38">
      <g>
       <use style="stroke:#000000;stroke-width:0.8;" x="850.578571" xlink:href="#m04c852cd2e" y="173.29375"/>
      </g>
     </g>
     <g id="text_38">
      <!-- 0 -->
      <g transform="translate(847.397321 187.892188)scale(0.1 -0.1)">
       <use xlink:href="#DejaVuSans-30"/>
      </g>
     </g>
    </g>
    <g id="text_39">
     <!-- log_initial_quiescent_cell_fraction -->
     <g transform="translate(689.325 201.570312)scale(0.1 -0.1)">
      <defs>
       <path d="M 947 1747 
Q 947 1113 1208 752 
Q 1469 391 1925 391 
Q 2381 391 2643 752 
Q 2906 1113 2906 1747 
Q 2906 2381 2643 2742 
Q 2381 3103 1925 3103 
Q 1469 3103 1208 2742 
Q 947 2381 947 1747 
z
M 2906 525 
Q 2725 213 2448 61 
Q 2172 -91 1784 -91 
Q 1150 -91 751 415 
Q 353 922 353 1747 
Q 353 2572 751 3078 
Q 1150 3584 1784 3584 
Q 2172 3584 2448 3432 
Q 2725 3281 2906 2969 
L 2906 3500 
L 3481 3500 
L 3481 -1331 
L 2906 -1331 
L 2906 525 
z
" id="DejaVuSans-71" transform="scale(0.015625)"/>
       <path d="M 3122 3366 
L 3122 2828 
Q 2878 2963 2633 3030 
Q 2388 3097 2138 3097 
Q 1578 3097 1268 2742 
Q 959 2388 959 1747 
Q 959 1106 1268 751 
Q 1578 397 2138 397 
Q 2388 397 2633 464 
Q 2878 531 3122 666 
L 3122 134 
Q 2881 22 2623 -34 
Q 2366 -91 2075 -91 
Q 1284 -91 818 406 
Q 353 903 353 1747 
Q 353 2603 823 3093 
Q 1294 3584 2113 3584 
Q 2378 3584 2631 3529 
Q 2884 3475 3122 3366 
z
" id="DejaVuSans-63" transform="scale(0.015625)"/>
       <path d="M 2375 4863 
L 2375 4384 
L 1825 4384 
Q 1516 4384 1395 4259 
Q 1275 4134 1275 3809 
L 1275 3500 
L 2222 3500 
L 2222 3053 
L 1275 3053 
L 1275 0 
L 697 0 
L 697 3053 
L 147 3053 
L 147 3500 
L 697 3500 
L 697 3744 
Q 697 4328 969 4595 
Q 1241 4863 1831 4863 
L 2375 4863 
z
" id="DejaVuSans-66" transform="scale(0.015625)"/>
      </defs>
      <use xlink:href="#DejaVuSans-6c"/>
      <use x="27.783203" xlink:href="#DejaVuSans-6f"/>
      <use x="88.964844" xlink:href="#DejaVuSans-67"/>
      <use x="152.441406" xlink:href="#DejaVuSans-5f"/>
      <use x="202.441406" xlink:href="#DejaVuSans-69"/>
      <use x="230.224609" xlink:href="#DejaVuSans-6e"/>
      <use x="293.603516" xlink:href="#DejaVuSans-69"/>
      <use x="321.386719" xlink:href="#DejaVuSans-74"/>
      <use x="360.595703" xlink:href="#DejaVuSans-69"/>
      <use x="388.378906" xlink:href="#DejaVuSans-61"/>
      <use x="449.658203" xlink:href="#DejaVuSans-6c"/>
      <use x="477.441406" xlink:href="#DejaVuSans-5f"/>
      <use x="527.441406" xlink:href="#DejaVuSans-71"/>
      <use x="590.917969" xlink:href="#DejaVuSans-75"/>
      <use x="654.296875" xlink:href="#DejaVuSans-69"/>
      <use x="682.080078" xlink:href="#DejaVuSans-65"/>
      <use x="743.603516" xlink:href="#DejaVuSans-73"/>
      <use x="795.703125" xlink:href="#DejaVuSans-63"/>
      <use x="850.683594" xlink:href="#DejaVuSans-65"/>
      <use x="912.207031" xlink:href="#DejaVuSans-6e"/>
      <use x="975.585938" xlink:href="#DejaVuSans-74"/>
      <use x="1014.794922" xlink:href="#DejaVuSans-5f"/>
      <use x="1064.794922" xlink:href="#DejaVuSans-63"/>
      <use x="1119.775391" xlink:href="#DejaVuSans-65"/>
      <use x="1181.298828" xlink:href="#DejaVuSans-6c"/>
      <use x="1209.082031" xlink:href="#DejaVuSans-6c"/>
      <use x="1236.865234" xlink:href="#DejaVuSans-5f"/>
      <use x="1286.865234" xlink:href="#DejaVuSans-66"/>
      <use x="1322.070312" xlink:href="#DejaVuSans-72"/>
      <use x="1363.183594" xlink:href="#DejaVuSans-61"/>
      <use x="1424.462891" xlink:href="#DejaVuSans-63"/>
      <use x="1479.443359" xlink:href="#DejaVuSans-74"/>
      <use x="1518.652344" xlink:href="#DejaVuSans-69"/>
      <use x="1546.435547" xlink:href="#DejaVuSans-6f"/>
      <use x="1607.617188" xlink:href="#DejaVuSans-6e"/>
     </g>
    </g>
   </g>
   <g id="matplotlib.axis_8">
    <g id="ytick_12">
     <g id="line2d_39">
      <g>
       <use style="stroke:#000000;stroke-width:0.8;" x="695.171429" xlink:href="#m8f03ff8b3c" y="148.488074"/>
      </g>
     </g>
     <g id="text_40">
      <!-- 0.10 -->
      <g transform="translate(665.905804 152.287292)scale(0.1 -0.1)">
       <use xlink:href="#DejaVuSans-30"/>
       <use x="63.623047" xlink:href="#DejaVuSans-2e"/>
       <use x="95.410156" xlink:href="#DejaVuSans-31"/>
       <use x="159.033203" xlink:href="#DejaVuSans-30"/>
      </g>
     </g>
    </g>
    <g id="ytick_13">
     <g id="line2d_40">
      <g>
       <use style="stroke:#000000;stroke-width:0.8;" x="695.171429" xlink:href="#m8f03ff8b3c" y="109.120411"/>
      </g>
     </g>
     <g id="text_41">
      <!-- 0.15 -->
      <g transform="translate(665.905804 112.91963)scale(0.1 -0.1)">
       <use xlink:href="#DejaVuSans-30"/>
       <use x="63.623047" xlink:href="#DejaVuSans-2e"/>
       <use x="95.410156" xlink:href="#DejaVuSans-31"/>
       <use x="159.033203" xlink:href="#DejaVuSans-35"/>
      </g>
     </g>
    </g>
    <g id="ytick_14">
     <g id="line2d_41">
      <g>
       <use style="stroke:#000000;stroke-width:0.8;" x="695.171429" xlink:href="#m8f03ff8b3c" y="69.752748"/>
      </g>
     </g>
     <g id="text_42">
      <!-- 0.20 -->
      <g transform="translate(665.905804 73.551967)scale(0.1 -0.1)">
       <use xlink:href="#DejaVuSans-30"/>
       <use x="63.623047" xlink:href="#DejaVuSans-2e"/>
       <use x="95.410156" xlink:href="#DejaVuSans-32"/>
       <use x="159.033203" xlink:href="#DejaVuSans-30"/>
      </g>
     </g>
    </g>
    <g id="text_43">
     <!-- Posterior -->
     <g transform="translate(659.826116 127.841444)rotate(-90)scale(0.1 -0.1)">
      <use xlink:href="#DejaVuSans-50"/>
      <use x="56.677734" xlink:href="#DejaVuSans-6f"/>
      <use x="117.859375" xlink:href="#DejaVuSans-73"/>
      <use x="169.958984" xlink:href="#DejaVuSans-74"/>
      <use x="209.167969" xlink:href="#DejaVuSans-65"/>
      <use x="270.691406" xlink:href="#DejaVuSans-72"/>
      <use x="311.804688" xlink:href="#DejaVuSans-69"/>
      <use x="339.587891" xlink:href="#DejaVuSans-6f"/>
      <use x="400.769531" xlink:href="#DejaVuSans-72"/>
     </g>
    </g>
   </g>
   <g id="line2d_42">
    <path clip-path="url(#pf6f30ab80a)" d="M 695.171429 148.006475 
L 703.48753 118.443123 
L 706.606068 108.121664 
L 709.204849 100.126933 
L 711.803631 92.808925 
L 713.882656 87.504474 
L 715.961682 82.726522 
L 718.040707 78.496066 
L 720.119732 74.820114 
L 722.198758 71.691022 
L 723.758027 69.690106 
L 725.317296 67.969591 
L 726.876565 66.51026 
L 728.435834 65.288905 
L 730.514859 63.98402 
L 732.593884 62.983447 
L 735.192666 62.043376 
L 738.83096 61.032372 
L 742.989011 59.863037 
L 745.587793 58.932987 
L 748.186574 57.769514 
L 750.785356 56.353601 
L 753.903894 54.356984 
L 758.581701 51.009635 
L 762.739752 48.120459 
L 765.338533 46.58317 
L 767.417559 45.593303 
L 769.496584 44.868434 
L 771.055853 44.52132 
L 772.615122 44.355656 
L 774.174391 44.37911 
L 775.73366 44.595728 
L 777.292929 45.006143 
L 778.852198 45.607924 
L 780.931223 46.698884 
L 783.010248 48.102999 
L 785.089274 49.797781 
L 787.168299 51.758077 
L 789.767081 54.542224 
L 792.365862 57.651331 
L 795.4844 61.748122 
L 799.122695 66.948377 
L 803.280745 73.340751 
L 807.958552 80.980875 
L 813.675872 90.795191 
L 820.432704 102.873537 
L 826.66978 114.4565 
L 831.867344 124.586699 
L 836.025394 133.162807 
L 840.183445 142.266521 
L 844.341495 151.9179 
L 849.539059 164.578759 
L 850.578571 167.153199 
L 850.578571 167.153199 
" style="fill:none;stroke:#1f77b4;stroke-linecap:square;stroke-width:1.5;"/>
   </g>
   <g id="line2d_43">
    <path clip-path="url(#pf6f30ab80a)" d="M 846.695297 173.29375 
L 846.695297 38.201637 
" style="fill:none;stroke:#808080;stroke-dasharray:1.5,2.475;stroke-dashoffset:0;stroke-width:1.5;"/>
   </g>
   <g id="patch_12">
    <path d="M 695.171429 173.29375 
L 695.171429 38.201637 
" style="fill:none;stroke:#000000;stroke-linecap:square;stroke-linejoin:miter;stroke-width:0.8;"/>
   </g>
   <g id="patch_13">
    <path d="M 695.171429 173.29375 
L 850.578571 173.29375 
" style="fill:none;stroke:#000000;stroke-linecap:square;stroke-linejoin:miter;stroke-width:0.8;"/>
   </g>
  </g>
  <g id="axes_5">
   <g id="patch_14">
    <path d="M 911.003571 173.29375 
L 1066.410714 173.29375 
L 1066.410714 38.201637 
L 911.003571 38.201637 
z
" style="fill:#ffffff;"/>
   </g>
   <g id="matplotlib.axis_9">
    <g id="xtick_22">
     <g id="line2d_44">
      <g>
       <use style="stroke:#000000;stroke-width:0.8;" x="911.003571" xlink:href="#m04c852cd2e" y="173.29375"/>
      </g>
     </g>
     <g id="text_44">
      <!-- −5 -->
      <g transform="translate(903.632478 187.892188)scale(0.1 -0.1)">
       <use xlink:href="#DejaVuSans-2212"/>
       <use x="83.789062" xlink:href="#DejaVuSans-35"/>
      </g>
     </g>
    </g>
    <g id="xtick_23">
     <g id="line2d_45">
      <g>
       <use style="stroke:#000000;stroke-width:0.8;" x="942.085" xlink:href="#m04c852cd2e" y="173.29375"/>
      </g>
     </g>
     <g id="text_45">
      <!-- −4 -->
      <g transform="translate(934.713906 187.892188)scale(0.1 -0.1)">
       <use xlink:href="#DejaVuSans-2212"/>
       <use x="83.789062" xlink:href="#DejaVuSans-34"/>
      </g>
     </g>
    </g>
    <g id="xtick_24">
     <g id="line2d_46">
      <g>
       <use style="stroke:#000000;stroke-width:0.8;" x="973.166429" xlink:href="#m04c852cd2e" y="173.29375"/>
      </g>
     </g>
     <g id="text_46">
      <!-- −3 -->
      <g transform="translate(965.795335 187.892188)scale(0.1 -0.1)">
       <use xlink:href="#DejaVuSans-2212"/>
       <use x="83.789062" xlink:href="#DejaVuSans-33"/>
      </g>
     </g>
    </g>
    <g id="xtick_25">
     <g id="line2d_47">
      <g>
       <use style="stroke:#000000;stroke-width:0.8;" x="1004.247857" xlink:href="#m04c852cd2e" y="173.29375"/>
      </g>
     </g>
     <g id="text_47">
      <!-- −2 -->
      <g transform="translate(996.876763 187.892188)scale(0.1 -0.1)">
       <use xlink:href="#DejaVuSans-2212"/>
       <use x="83.789062" xlink:href="#DejaVuSans-32"/>
      </g>
     </g>
    </g>
    <g id="xtick_26">
     <g id="line2d_48">
      <g>
       <use style="stroke:#000000;stroke-width:0.8;" x="1035.329286" xlink:href="#m04c852cd2e" y="173.29375"/>
      </g>
     </g>
     <g id="text_48">
      <!-- −1 -->
      <g transform="translate(1027.958192 187.892188)scale(0.1 -0.1)">
       <use xlink:href="#DejaVuSans-2212"/>
       <use x="83.789062" xlink:href="#DejaVuSans-31"/>
      </g>
     </g>
    </g>
    <g id="xtick_27">
     <g id="line2d_49">
      <g>
       <use style="stroke:#000000;stroke-width:0.8;" x="1066.410714" xlink:href="#m04c852cd2e" y="173.29375"/>
      </g>
     </g>
     <g id="text_49">
      <!-- 0 -->
      <g transform="translate(1063.229464 187.892188)scale(0.1 -0.1)">
       <use xlink:href="#DejaVuSans-30"/>
      </g>
     </g>
    </g>
    <g id="text_50">
     <!-- log_ecm_production_rate -->
     <g transform="translate(925.886049 201.570312)scale(0.1 -0.1)">
      <defs>
       <path d="M 3328 2828 
Q 3544 3216 3844 3400 
Q 4144 3584 4550 3584 
Q 5097 3584 5394 3201 
Q 5691 2819 5691 2113 
L 5691 0 
L 5113 0 
L 5113 2094 
Q 5113 2597 4934 2840 
Q 4756 3084 4391 3084 
Q 3944 3084 3684 2787 
Q 3425 2491 3425 1978 
L 3425 0 
L 2847 0 
L 2847 2094 
Q 2847 2600 2669 2842 
Q 2491 3084 2119 3084 
Q 1678 3084 1418 2786 
Q 1159 2488 1159 1978 
L 1159 0 
L 581 0 
L 581 3500 
L 1159 3500 
L 1159 2956 
Q 1356 3278 1631 3431 
Q 1906 3584 2284 3584 
Q 2666 3584 2933 3390 
Q 3200 3197 3328 2828 
z
" id="DejaVuSans-6d" transform="scale(0.015625)"/>
      </defs>
      <use xlink:href="#DejaVuSans-6c"/>
      <use x="27.783203" xlink:href="#DejaVuSans-6f"/>
      <use x="88.964844" xlink:href="#DejaVuSans-67"/>
      <use x="152.441406" xlink:href="#DejaVuSans-5f"/>
      <use x="202.441406" xlink:href="#DejaVuSans-65"/>
      <use x="263.964844" xlink:href="#DejaVuSans-63"/>
      <use x="318.945312" xlink:href="#DejaVuSans-6d"/>
      <use x="416.357422" xlink:href="#DejaVuSans-5f"/>
      <use x="466.357422" xlink:href="#DejaVuSans-70"/>
      <use x="529.833984" xlink:href="#DejaVuSans-72"/>
      <use x="568.697266" xlink:href="#DejaVuSans-6f"/>
      <use x="629.878906" xlink:href="#DejaVuSans-64"/>
      <use x="693.355469" xlink:href="#DejaVuSans-75"/>
      <use x="756.734375" xlink:href="#DejaVuSans-63"/>
      <use x="811.714844" xlink:href="#DejaVuSans-74"/>
      <use x="850.923828" xlink:href="#DejaVuSans-69"/>
      <use x="878.707031" xlink:href="#DejaVuSans-6f"/>
      <use x="939.888672" xlink:href="#DejaVuSans-6e"/>
      <use x="1003.267578" xlink:href="#DejaVuSans-5f"/>
      <use x="1053.267578" xlink:href="#DejaVuSans-72"/>
      <use x="1094.380859" xlink:href="#DejaVuSans-61"/>
      <use x="1155.660156" xlink:href="#DejaVuSans-74"/>
      <use x="1194.869141" xlink:href="#DejaVuSans-65"/>
     </g>
    </g>
   </g>
   <g id="matplotlib.axis_10">
    <g id="ytick_15">
     <g id="line2d_50">
      <g>
       <use style="stroke:#000000;stroke-width:0.8;" x="911.003571" xlink:href="#m8f03ff8b3c" y="146.91761"/>
      </g>
     </g>
     <g id="text_51">
      <!-- 0.10 -->
      <g transform="translate(881.737946 150.716829)scale(0.1 -0.1)">
       <use xlink:href="#DejaVuSans-30"/>
       <use x="63.623047" xlink:href="#DejaVuSans-2e"/>
       <use x="95.410156" xlink:href="#DejaVuSans-31"/>
       <use x="159.033203" xlink:href="#DejaVuSans-30"/>
      </g>
     </g>
    </g>
    <g id="ytick_16">
     <g id="line2d_51">
      <g>
       <use style="stroke:#000000;stroke-width:0.8;" x="911.003571" xlink:href="#m8f03ff8b3c" y="120.159954"/>
      </g>
     </g>
     <g id="text_52">
      <!-- 0.15 -->
      <g transform="translate(881.737946 123.959173)scale(0.1 -0.1)">
       <use xlink:href="#DejaVuSans-30"/>
       <use x="63.623047" xlink:href="#DejaVuSans-2e"/>
       <use x="95.410156" xlink:href="#DejaVuSans-31"/>
       <use x="159.033203" xlink:href="#DejaVuSans-35"/>
      </g>
     </g>
    </g>
    <g id="ytick_17">
     <g id="line2d_52">
      <g>
       <use style="stroke:#000000;stroke-width:0.8;" x="911.003571" xlink:href="#m8f03ff8b3c" y="93.402298"/>
      </g>
     </g>
     <g id="text_53">
      <!-- 0.20 -->
      <g transform="translate(881.737946 97.201517)scale(0.1 -0.1)">
       <use xlink:href="#DejaVuSans-30"/>
       <use x="63.623047" xlink:href="#DejaVuSans-2e"/>
       <use x="95.410156" xlink:href="#DejaVuSans-32"/>
       <use x="159.033203" xlink:href="#DejaVuSans-30"/>
      </g>
     </g>
    </g>
    <g id="ytick_18">
     <g id="line2d_53">
      <g>
       <use style="stroke:#000000;stroke-width:0.8;" x="911.003571" xlink:href="#m8f03ff8b3c" y="66.644642"/>
      </g>
     </g>
     <g id="text_54">
      <!-- 0.25 -->
      <g transform="translate(881.737946 70.443861)scale(0.1 -0.1)">
       <use xlink:href="#DejaVuSans-30"/>
       <use x="63.623047" xlink:href="#DejaVuSans-2e"/>
       <use x="95.410156" xlink:href="#DejaVuSans-32"/>
       <use x="159.033203" xlink:href="#DejaVuSans-35"/>
      </g>
     </g>
    </g>
    <g id="ytick_19">
     <g id="line2d_54">
      <g>
       <use style="stroke:#000000;stroke-width:0.8;" x="911.003571" xlink:href="#m8f03ff8b3c" y="39.886986"/>
      </g>
     </g>
     <g id="text_55">
      <!-- 0.30 -->
      <g transform="translate(881.737946 43.686205)scale(0.1 -0.1)">
       <use xlink:href="#DejaVuSans-30"/>
       <use x="63.623047" xlink:href="#DejaVuSans-2e"/>
       <use x="95.410156" xlink:href="#DejaVuSans-33"/>
       <use x="159.033203" xlink:href="#DejaVuSans-30"/>
      </g>
     </g>
    </g>
    <g id="text_56">
     <!-- Posterior -->
     <g transform="translate(875.658259 127.841444)rotate(-90)scale(0.1 -0.1)">
      <use xlink:href="#DejaVuSans-50"/>
      <use x="56.677734" xlink:href="#DejaVuSans-6f"/>
      <use x="117.859375" xlink:href="#DejaVuSans-73"/>
      <use x="169.958984" xlink:href="#DejaVuSans-74"/>
      <use x="209.167969" xlink:href="#DejaVuSans-65"/>
      <use x="270.691406" xlink:href="#DejaVuSans-72"/>
      <use x="311.804688" xlink:href="#DejaVuSans-69"/>
      <use x="339.587891" xlink:href="#DejaVuSans-6f"/>
      <use x="400.769531" xlink:href="#DejaVuSans-72"/>
     </g>
    </g>
   </g>
   <g id="line2d_55">
    <path clip-path="url(#p7b5de943c1)" d="M 911.003571 167.153199 
L 915.681378 159.330312 
L 918.799916 154.569694 
L 921.398698 151.06658 
L 923.477723 148.635271 
L 925.556749 146.565166 
L 927.635774 144.865357 
L 929.714799 143.525333 
L 931.793825 142.515281 
L 933.87285 141.787529 
L 936.471632 141.177592 
L 940.629682 140.534829 
L 943.74822 139.964682 
L 945.827246 139.38199 
L 947.906271 138.54596 
L 949.46554 137.711772 
L 951.024809 136.67318 
L 952.584078 135.410869 
L 954.143347 133.910406 
L 955.702616 132.162529 
L 957.781641 129.441233 
L 959.860667 126.279839 
L 961.939692 122.70189 
L 964.538473 117.707363 
L 967.657011 111.10543 
L 972.334818 100.530165 
L 977.012625 90.127369 
L 979.611407 84.834229 
L 981.690432 80.991692 
L 983.769458 77.562879 
L 985.848483 74.582759 
L 987.927508 72.059007 
L 990.006534 69.970728 
L 992.085559 68.269491 
L 994.164584 66.882797 
L 996.763366 65.452311 
L 1003.520198 61.959137 
L 1006.11898 60.23923 
L 1008.198005 58.611646 
L 1010.796787 56.26976 
L 1014.435081 52.593849 
L 1018.593132 48.42981 
L 1020.672157 46.670539 
L 1022.231426 45.610259 
L 1023.790695 44.838551 
L 1024.830208 44.512114 
L 1025.86972 44.35389 
L 1026.909233 44.377539 
L 1027.948746 44.595084 
L 1028.988258 45.016731 
L 1030.027771 45.650725 
L 1031.067284 46.503251 
L 1032.106796 47.578364 
L 1033.666065 49.611955 
L 1035.225334 52.147558 
L 1036.784603 55.172183 
L 1038.343872 58.663212 
L 1040.422898 63.988501 
L 1042.501923 69.993534 
L 1045.100705 78.287538 
L 1048.219243 89.084408 
L 1053.936562 109.978638 
L 1059.134126 128.657122 
L 1062.77242 140.861063 
L 1065.890958 150.502028 
L 1066.410714 152.025939 
L 1066.410714 152.025939 
" style="fill:none;stroke:#1f77b4;stroke-linecap:square;stroke-width:1.5;"/>
   </g>
   <g id="line2d_56">
    <path clip-path="url(#p7b5de943c1)" d="M 994.891415 173.29375 
L 994.891415 38.201637 
" style="fill:none;stroke:#808080;stroke-dasharray:1.5,2.475;stroke-dashoffset:0;stroke-width:1.5;"/>
   </g>
   <g id="patch_15">
    <path d="M 911.003571 173.29375 
L 911.003571 38.201637 
" style="fill:none;stroke:#000000;stroke-linecap:square;stroke-linejoin:miter;stroke-width:0.8;"/>
   </g>
   <g id="patch_16">
    <path d="M 911.003571 173.29375 
L 1066.410714 173.29375 
" style="fill:none;stroke:#000000;stroke-linecap:square;stroke-linejoin:miter;stroke-width:0.8;"/>
   </g>
  </g>
  <g id="axes_6">
   <g id="patch_17">
    <path d="M 1126.835714 173.29375 
L 1282.242857 173.29375 
L 1282.242857 38.201637 
L 1126.835714 38.201637 
z
" style="fill:#ffffff;"/>
   </g>
   <g id="matplotlib.axis_11">
    <g id="xtick_28">
     <g id="line2d_57">
      <g>
       <use style="stroke:#000000;stroke-width:0.8;" x="1126.835714" xlink:href="#m04c852cd2e" y="173.29375"/>
      </g>
     </g>
     <g id="text_57">
      <!-- −5 -->
      <g transform="translate(1119.464621 187.892188)scale(0.1 -0.1)">
       <use xlink:href="#DejaVuSans-2212"/>
       <use x="83.789062" xlink:href="#DejaVuSans-35"/>
      </g>
     </g>
    </g>
    <g id="xtick_29">
     <g id="line2d_58">
      <g>
       <use style="stroke:#000000;stroke-width:0.8;" x="1157.917143" xlink:href="#m04c852cd2e" y="173.29375"/>
      </g>
     </g>
     <g id="text_58">
      <!-- −4 -->
      <g transform="translate(1150.546049 187.892188)scale(0.1 -0.1)">
       <use xlink:href="#DejaVuSans-2212"/>
       <use x="83.789062" xlink:href="#DejaVuSans-34"/>
      </g>
     </g>
    </g>
    <g id="xtick_30">
     <g id="line2d_59">
      <g>
       <use style="stroke:#000000;stroke-width:0.8;" x="1188.998571" xlink:href="#m04c852cd2e" y="173.29375"/>
      </g>
     </g>
     <g id="text_59">
      <!-- −3 -->
      <g transform="translate(1181.627478 187.892188)scale(0.1 -0.1)">
       <use xlink:href="#DejaVuSans-2212"/>
       <use x="83.789062" xlink:href="#DejaVuSans-33"/>
      </g>
     </g>
    </g>
    <g id="xtick_31">
     <g id="line2d_60">
      <g>
       <use style="stroke:#000000;stroke-width:0.8;" x="1220.08" xlink:href="#m04c852cd2e" y="173.29375"/>
      </g>
     </g>
     <g id="text_60">
      <!-- −2 -->
      <g transform="translate(1212.708906 187.892188)scale(0.1 -0.1)">
       <use xlink:href="#DejaVuSans-2212"/>
       <use x="83.789062" xlink:href="#DejaVuSans-32"/>
      </g>
     </g>
    </g>
    <g id="xtick_32">
     <g id="line2d_61">
      <g>
       <use style="stroke:#000000;stroke-width:0.8;" x="1251.161429" xlink:href="#m04c852cd2e" y="173.29375"/>
      </g>
     </g>
     <g id="text_61">
      <!-- −1 -->
      <g transform="translate(1243.790335 187.892188)scale(0.1 -0.1)">
       <use xlink:href="#DejaVuSans-2212"/>
       <use x="83.789062" xlink:href="#DejaVuSans-31"/>
      </g>
     </g>
    </g>
    <g id="xtick_33">
     <g id="line2d_62">
      <g>
       <use style="stroke:#000000;stroke-width:0.8;" x="1282.242857" xlink:href="#m04c852cd2e" y="173.29375"/>
      </g>
     </g>
     <g id="text_62">
      <!-- 0 -->
      <g transform="translate(1279.061607 187.892188)scale(0.1 -0.1)">
       <use xlink:href="#DejaVuSans-30"/>
      </g>
     </g>
    </g>
    <g id="text_63">
     <!-- log_ecm_degradation_rate -->
     <g transform="translate(1138.204129 201.570312)scale(0.1 -0.1)">
      <use xlink:href="#DejaVuSans-6c"/>
      <use x="27.783203" xlink:href="#DejaVuSans-6f"/>
      <use x="88.964844" xlink:href="#DejaVuSans-67"/>
      <use x="152.441406" xlink:href="#DejaVuSans-5f"/>
      <use x="202.441406" xlink:href="#DejaVuSans-65"/>
      <use x="263.964844" xlink:href="#DejaVuSans-63"/>
      <use x="318.945312" xlink:href="#DejaVuSans-6d"/>
      <use x="416.357422" xlink:href="#DejaVuSans-5f"/>
      <use x="466.357422" xlink:href="#DejaVuSans-64"/>
      <use x="529.833984" xlink:href="#DejaVuSans-65"/>
      <use x="591.357422" xlink:href="#DejaVuSans-67"/>
      <use x="654.833984" xlink:href="#DejaVuSans-72"/>
      <use x="695.947266" xlink:href="#DejaVuSans-61"/>
      <use x="757.226562" xlink:href="#DejaVuSans-64"/>
      <use x="820.703125" xlink:href="#DejaVuSans-61"/>
      <use x="881.982422" xlink:href="#DejaVuSans-74"/>
      <use x="921.191406" xlink:href="#DejaVuSans-69"/>
      <use x="948.974609" xlink:href="#DejaVuSans-6f"/>
      <use x="1010.15625" xlink:href="#DejaVuSans-6e"/>
      <use x="1073.535156" xlink:href="#DejaVuSans-5f"/>
      <use x="1123.535156" xlink:href="#DejaVuSans-72"/>
      <use x="1164.648438" xlink:href="#DejaVuSans-61"/>
      <use x="1225.927734" xlink:href="#DejaVuSans-74"/>
      <use x="1265.136719" xlink:href="#DejaVuSans-65"/>
     </g>
    </g>
   </g>
   <g id="matplotlib.axis_12">
    <g id="ytick_20">
     <g id="line2d_63">
      <g>
       <use style="stroke:#000000;stroke-width:0.8;" x="1126.835714" xlink:href="#m8f03ff8b3c" y="159.193035"/>
      </g>
     </g>
     <g id="text_64">
      <!-- 0.10 -->
      <g transform="translate(1097.570089 162.992254)scale(0.1 -0.1)">
       <use xlink:href="#DejaVuSans-30"/>
       <use x="63.623047" xlink:href="#DejaVuSans-2e"/>
       <use x="95.410156" xlink:href="#DejaVuSans-31"/>
       <use x="159.033203" xlink:href="#DejaVuSans-30"/>
      </g>
     </g>
    </g>
    <g id="ytick_21">
     <g id="line2d_64">
      <g>
       <use style="stroke:#000000;stroke-width:0.8;" x="1126.835714" xlink:href="#m8f03ff8b3c" y="125.632098"/>
      </g>
     </g>
     <g id="text_65">
      <!-- 0.15 -->
      <g transform="translate(1097.570089 129.431317)scale(0.1 -0.1)">
       <use xlink:href="#DejaVuSans-30"/>
       <use x="63.623047" xlink:href="#DejaVuSans-2e"/>
       <use x="95.410156" xlink:href="#DejaVuSans-31"/>
       <use x="159.033203" xlink:href="#DejaVuSans-35"/>
      </g>
     </g>
    </g>
    <g id="ytick_22">
     <g id="line2d_65">
      <g>
       <use style="stroke:#000000;stroke-width:0.8;" x="1126.835714" xlink:href="#m8f03ff8b3c" y="92.071161"/>
      </g>
     </g>
     <g id="text_66">
      <!-- 0.20 -->
      <g transform="translate(1097.570089 95.87038)scale(0.1 -0.1)">
       <use xlink:href="#DejaVuSans-30"/>
       <use x="63.623047" xlink:href="#DejaVuSans-2e"/>
       <use x="95.410156" xlink:href="#DejaVuSans-32"/>
       <use x="159.033203" xlink:href="#DejaVuSans-30"/>
      </g>
     </g>
    </g>
    <g id="ytick_23">
     <g id="line2d_66">
      <g>
       <use style="stroke:#000000;stroke-width:0.8;" x="1126.835714" xlink:href="#m8f03ff8b3c" y="58.510225"/>
      </g>
     </g>
     <g id="text_67">
      <!-- 0.25 -->
      <g transform="translate(1097.570089 62.309443)scale(0.1 -0.1)">
       <use xlink:href="#DejaVuSans-30"/>
       <use x="63.623047" xlink:href="#DejaVuSans-2e"/>
       <use x="95.410156" xlink:href="#DejaVuSans-32"/>
       <use x="159.033203" xlink:href="#DejaVuSans-35"/>
      </g>
     </g>
    </g>
    <g id="text_68">
     <!-- Posterior -->
     <g transform="translate(1091.490402 127.841444)rotate(-90)scale(0.1 -0.1)">
      <use xlink:href="#DejaVuSans-50"/>
      <use x="56.677734" xlink:href="#DejaVuSans-6f"/>
      <use x="117.859375" xlink:href="#DejaVuSans-73"/>
      <use x="169.958984" xlink:href="#DejaVuSans-74"/>
      <use x="209.167969" xlink:href="#DejaVuSans-65"/>
      <use x="270.691406" xlink:href="#DejaVuSans-72"/>
      <use x="311.804688" xlink:href="#DejaVuSans-69"/>
      <use x="339.587891" xlink:href="#DejaVuSans-6f"/>
      <use x="400.769531" xlink:href="#DejaVuSans-72"/>
     </g>
    </g>
   </g>
   <g id="line2d_67">
    <path clip-path="url(#p6919e227ad)" d="M 1126.835714 160.501108 
L 1129.954252 147.612058 
L 1134.632059 127.169614 
L 1140.349379 102.218061 
L 1143.467917 89.529647 
L 1146.066699 79.835626 
L 1148.145724 72.797405 
L 1150.224749 66.481689 
L 1152.303774 60.94481 
L 1153.863043 57.324706 
L 1155.422312 54.168747 
L 1156.981581 51.476574 
L 1158.54085 49.241592 
L 1160.100119 47.451573 
L 1161.659388 46.089378 
L 1163.218657 45.133776 
L 1164.25817 44.71062 
L 1165.297683 44.449492 
L 1166.856952 44.343589 
L 1168.416221 44.555184 
L 1169.97549 45.055359 
L 1171.534759 45.815561 
L 1173.094028 46.808237 
L 1175.173053 48.448718 
L 1177.252078 50.400252 
L 1179.85086 53.203282 
L 1182.449642 56.338064 
L 1185.56818 60.455102 
L 1189.206474 65.661701 
L 1192.844768 71.240534 
L 1197.002819 78.023936 
L 1201.680626 86.112763 
L 1207.917702 97.41665 
L 1214.674534 109.626733 
L 1218.312828 115.760416 
L 1221.431366 120.547933 
L 1224.030148 124.101948 
L 1226.109173 126.611942 
L 1228.188199 128.797653 
L 1230.267224 130.642497 
L 1232.346249 132.139912 
L 1234.425275 133.294081 
L 1236.5043 134.120197 
L 1238.583325 134.644286 
L 1240.662351 134.902605 
L 1242.741376 134.9407 
L 1245.340158 134.760903 
L 1254.176015 133.877831 
L 1256.255041 133.996287 
L 1258.334066 134.376745 
L 1259.893335 134.869162 
L 1261.452604 135.563342 
L 1263.011873 136.477949 
L 1264.571142 137.628245 
L 1266.130411 139.025679 
L 1267.68968 140.67755 
L 1269.248949 142.586722 
L 1271.327974 145.528822 
L 1273.407 148.907517 
L 1275.486025 152.691001 
L 1278.084806 157.918992 
L 1281.203344 164.768457 
L 1282.242857 167.153199 
L 1282.242857 167.153199 
" style="fill:none;stroke:#1f77b4;stroke-linecap:square;stroke-width:1.5;"/>
   </g>
   <g id="line2d_68">
    <path clip-path="url(#p6919e227ad)" d="M 1185.98647 173.29375 
L 1185.98647 38.201637 
" style="fill:none;stroke:#808080;stroke-dasharray:1.5,2.475;stroke-dashoffset:0;stroke-width:1.5;"/>
   </g>
   <g id="patch_18">
    <path d="M 1126.835714 173.29375 
L 1126.835714 38.201637 
" style="fill:none;stroke:#000000;stroke-linecap:square;stroke-linejoin:miter;stroke-width:0.8;"/>
   </g>
   <g id="patch_19">
    <path d="M 1126.835714 173.29375 
L 1282.242857 173.29375 
" style="fill:none;stroke:#000000;stroke-linecap:square;stroke-linejoin:miter;stroke-width:0.8;"/>
   </g>
  </g>
  <g id="axes_7">
   <g id="patch_20">
    <path d="M 1342.667857 173.29375 
L 1498.075 173.29375 
L 1498.075 38.201637 
L 1342.667857 38.201637 
z
" style="fill:#ffffff;"/>
   </g>
   <g id="matplotlib.axis_13">
    <g id="xtick_34">
     <g id="line2d_69">
      <g>
       <use style="stroke:#000000;stroke-width:0.8;" x="1342.667857" xlink:href="#m04c852cd2e" y="173.29375"/>
      </g>
     </g>
     <g id="text_69">
      <!-- −5 -->
      <g transform="translate(1335.296763 187.892188)scale(0.1 -0.1)">
       <use xlink:href="#DejaVuSans-2212"/>
       <use x="83.789062" xlink:href="#DejaVuSans-35"/>
      </g>
     </g>
    </g>
    <g id="xtick_35">
     <g id="line2d_70">
      <g>
       <use style="stroke:#000000;stroke-width:0.8;" x="1373.749286" xlink:href="#m04c852cd2e" y="173.29375"/>
      </g>
     </g>
     <g id="text_70">
      <!-- −4 -->
      <g transform="translate(1366.378192 187.892188)scale(0.1 -0.1)">
       <use xlink:href="#DejaVuSans-2212"/>
       <use x="83.789062" xlink:href="#DejaVuSans-34"/>
      </g>
     </g>
    </g>
    <g id="xtick_36">
     <g id="line2d_71">
      <g>
       <use style="stroke:#000000;stroke-width:0.8;" x="1404.830714" xlink:href="#m04c852cd2e" y="173.29375"/>
      </g>
     </g>
     <g id="text_71">
      <!-- −3 -->
      <g transform="translate(1397.459621 187.892188)scale(0.1 -0.1)">
       <use xlink:href="#DejaVuSans-2212"/>
       <use x="83.789062" xlink:href="#DejaVuSans-33"/>
      </g>
     </g>
    </g>
    <g id="xtick_37">
     <g id="line2d_72">
      <g>
       <use style="stroke:#000000;stroke-width:0.8;" x="1435.912143" xlink:href="#m04c852cd2e" y="173.29375"/>
      </g>
     </g>
     <g id="text_72">
      <!-- −2 -->
      <g transform="translate(1428.541049 187.892188)scale(0.1 -0.1)">
       <use xlink:href="#DejaVuSans-2212"/>
       <use x="83.789062" xlink:href="#DejaVuSans-32"/>
      </g>
     </g>
    </g>
    <g id="xtick_38">
     <g id="line2d_73">
      <g>
       <use style="stroke:#000000;stroke-width:0.8;" x="1466.993571" xlink:href="#m04c852cd2e" y="173.29375"/>
      </g>
     </g>
     <g id="text_73">
      <!-- −1 -->
      <g transform="translate(1459.622478 187.892188)scale(0.1 -0.1)">
       <use xlink:href="#DejaVuSans-2212"/>
       <use x="83.789062" xlink:href="#DejaVuSans-31"/>
      </g>
     </g>
    </g>
    <g id="xtick_39">
     <g id="line2d_74">
      <g>
       <use style="stroke:#000000;stroke-width:0.8;" x="1498.075" xlink:href="#m04c852cd2e" y="173.29375"/>
      </g>
     </g>
     <g id="text_74">
      <!-- 0 -->
      <g transform="translate(1494.89375 187.892188)scale(0.1 -0.1)">
       <use xlink:href="#DejaVuSans-30"/>
      </g>
     </g>
    </g>
    <g id="text_75">
     <!-- log_ecm_division_threshold -->
     <g transform="translate(1351.874554 201.570312)scale(0.1 -0.1)">
      <use xlink:href="#DejaVuSans-6c"/>
      <use x="27.783203" xlink:href="#DejaVuSans-6f"/>
      <use x="88.964844" xlink:href="#DejaVuSans-67"/>
      <use x="152.441406" xlink:href="#DejaVuSans-5f"/>
      <use x="202.441406" xlink:href="#DejaVuSans-65"/>
      <use x="263.964844" xlink:href="#DejaVuSans-63"/>
      <use x="318.945312" xlink:href="#DejaVuSans-6d"/>
      <use x="416.357422" xlink:href="#DejaVuSans-5f"/>
      <use x="466.357422" xlink:href="#DejaVuSans-64"/>
      <use x="529.833984" xlink:href="#DejaVuSans-69"/>
      <use x="557.617188" xlink:href="#DejaVuSans-76"/>
      <use x="616.796875" xlink:href="#DejaVuSans-69"/>
      <use x="644.580078" xlink:href="#DejaVuSans-73"/>
      <use x="696.679688" xlink:href="#DejaVuSans-69"/>
      <use x="724.462891" xlink:href="#DejaVuSans-6f"/>
      <use x="785.644531" xlink:href="#DejaVuSans-6e"/>
      <use x="849.023438" xlink:href="#DejaVuSans-5f"/>
      <use x="899.023438" xlink:href="#DejaVuSans-74"/>
      <use x="938.232422" xlink:href="#DejaVuSans-68"/>
      <use x="1001.611328" xlink:href="#DejaVuSans-72"/>
      <use x="1040.474609" xlink:href="#DejaVuSans-65"/>
      <use x="1101.998047" xlink:href="#DejaVuSans-73"/>
      <use x="1154.097656" xlink:href="#DejaVuSans-68"/>
      <use x="1217.476562" xlink:href="#DejaVuSans-6f"/>
      <use x="1278.658203" xlink:href="#DejaVuSans-6c"/>
      <use x="1306.441406" xlink:href="#DejaVuSans-64"/>
     </g>
    </g>
   </g>
   <g id="matplotlib.axis_14">
    <g id="ytick_24">
     <g id="line2d_75">
      <g>
       <use style="stroke:#000000;stroke-width:0.8;" x="1342.667857" xlink:href="#m8f03ff8b3c" y="144.549394"/>
      </g>
     </g>
     <g id="text_76">
      <!-- 0.10 -->
      <g transform="translate(1313.402232 148.348613)scale(0.1 -0.1)">
       <use xlink:href="#DejaVuSans-30"/>
       <use x="63.623047" xlink:href="#DejaVuSans-2e"/>
       <use x="95.410156" xlink:href="#DejaVuSans-31"/>
       <use x="159.033203" xlink:href="#DejaVuSans-30"/>
      </g>
     </g>
    </g>
    <g id="ytick_25">
     <g id="line2d_76">
      <g>
       <use style="stroke:#000000;stroke-width:0.8;" x="1342.667857" xlink:href="#m8f03ff8b3c" y="100.823793"/>
      </g>
     </g>
     <g id="text_77">
      <!-- 0.15 -->
      <g transform="translate(1313.402232 104.623012)scale(0.1 -0.1)">
       <use xlink:href="#DejaVuSans-30"/>
       <use x="63.623047" xlink:href="#DejaVuSans-2e"/>
       <use x="95.410156" xlink:href="#DejaVuSans-31"/>
       <use x="159.033203" xlink:href="#DejaVuSans-35"/>
      </g>
     </g>
    </g>
    <g id="ytick_26">
     <g id="line2d_77">
      <g>
       <use style="stroke:#000000;stroke-width:0.8;" x="1342.667857" xlink:href="#m8f03ff8b3c" y="57.098192"/>
      </g>
     </g>
     <g id="text_78">
      <!-- 0.20 -->
      <g transform="translate(1313.402232 60.897411)scale(0.1 -0.1)">
       <use xlink:href="#DejaVuSans-30"/>
       <use x="63.623047" xlink:href="#DejaVuSans-2e"/>
       <use x="95.410156" xlink:href="#DejaVuSans-32"/>
       <use x="159.033203" xlink:href="#DejaVuSans-30"/>
      </g>
     </g>
    </g>
    <g id="text_79">
     <!-- Posterior -->
     <g transform="translate(1307.322545 127.841444)rotate(-90)scale(0.1 -0.1)">
      <use xlink:href="#DejaVuSans-50"/>
      <use x="56.677734" xlink:href="#DejaVuSans-6f"/>
      <use x="117.859375" xlink:href="#DejaVuSans-73"/>
      <use x="169.958984" xlink:href="#DejaVuSans-74"/>
      <use x="209.167969" xlink:href="#DejaVuSans-65"/>
      <use x="270.691406" xlink:href="#DejaVuSans-72"/>
      <use x="311.804688" xlink:href="#DejaVuSans-69"/>
      <use x="339.587891" xlink:href="#DejaVuSans-6f"/>
      <use x="400.769531" xlink:href="#DejaVuSans-72"/>
     </g>
    </g>
   </g>
   <g id="line2d_78">
    <path clip-path="url(#pe75db20ac5)" d="M 1342.667857 139.245865 
L 1349.424689 112.405882 
L 1353.062984 98.925146 
L 1356.181522 88.283625 
L 1358.780303 80.187329 
L 1361.379085 72.86426 
L 1363.45811 67.593303 
L 1365.537136 62.861636 
L 1367.616161 58.679629 
L 1369.695186 55.05394 
L 1371.254455 52.702098 
L 1372.813724 50.665909 
L 1374.372993 48.945011 
L 1375.932262 47.537925 
L 1377.491531 46.44179 
L 1379.0508 45.652036 
L 1380.610069 45.162032 
L 1382.169338 44.962728 
L 1383.728607 45.042344 
L 1385.287876 45.386114 
L 1386.847145 45.976131 
L 1388.406414 46.791304 
L 1390.48544 48.186218 
L 1392.564465 49.87296 
L 1395.163247 52.280689 
L 1405.038617 61.851051 
L 1407.117642 63.455849 
L 1409.196667 64.784577 
L 1411.275693 65.798879 
L 1412.834962 66.337248 
L 1414.394231 66.677674 
L 1415.9535 66.817676 
L 1417.512769 66.758358 
L 1419.072038 66.504132 
L 1420.631307 66.062396 
L 1422.710332 65.19944 
L 1424.789357 64.051339 
L 1426.868383 62.654178 
L 1429.467164 60.620286 
L 1432.585702 57.876079 
L 1442.461073 48.925277 
L 1445.059854 47.034457 
L 1447.13888 45.81779 
L 1448.698149 45.117612 
L 1450.257418 44.627317 
L 1451.816687 44.371344 
L 1453.375956 44.37321 
L 1454.935225 44.655215 
L 1456.494494 45.238123 
L 1458.053763 46.140834 
L 1459.613032 47.380058 
L 1461.172301 48.969982 
L 1462.73157 50.921951 
L 1464.290839 53.244166 
L 1465.850108 55.941399 
L 1467.409376 59.014749 
L 1469.488402 63.692235 
L 1471.567427 69.015175 
L 1473.646452 74.952729 
L 1476.245234 83.171038 
L 1478.844016 92.167712 
L 1481.962554 103.793104 
L 1486.120604 120.232032 
L 1494.956462 155.547683 
L 1498.075 167.153199 
L 1498.075 167.153199 
" style="fill:none;stroke:#1f77b4;stroke-linecap:square;stroke-width:1.5;"/>
   </g>
   <g id="line2d_79">
    <path clip-path="url(#pe75db20ac5)" d="M 1435.912143 173.29375 
L 1435.912143 38.201637 
" style="fill:none;stroke:#808080;stroke-dasharray:1.5,2.475;stroke-dashoffset:0;stroke-width:1.5;"/>
   </g>
   <g id="patch_21">
    <path d="M 1342.667857 173.29375 
L 1342.667857 38.201637 
" style="fill:none;stroke:#000000;stroke-linecap:square;stroke-linejoin:miter;stroke-width:0.8;"/>
   </g>
   <g id="patch_22">
    <path d="M 1342.667857 173.29375 
L 1498.075 173.29375 
" style="fill:none;stroke:#000000;stroke-linecap:square;stroke-linejoin:miter;stroke-width:0.8;"/>
   </g>
  </g>
  <g id="text_80">
   <!-- Adaptive_LLtt_nf5 -->
   <g transform="translate(702.320625 13.438125)scale(0.12 -0.12)">
    <defs>
     <path d="M 2188 4044 
L 1331 1722 
L 3047 1722 
L 2188 4044 
z
M 1831 4666 
L 2547 4666 
L 4325 0 
L 3669 0 
L 3244 1197 
L 1141 1197 
L 716 0 
L 50 0 
L 1831 4666 
z
" id="DejaVuSans-41" transform="scale(0.015625)"/>
     <path d="M 628 4666 
L 1259 4666 
L 1259 531 
L 3531 531 
L 3531 0 
L 628 0 
L 628 4666 
z
" id="DejaVuSans-4c" transform="scale(0.015625)"/>
    </defs>
    <use xlink:href="#DejaVuSans-41"/>
    <use x="66.658203" xlink:href="#DejaVuSans-64"/>
    <use x="130.134766" xlink:href="#DejaVuSans-61"/>
    <use x="191.414062" xlink:href="#DejaVuSans-70"/>
    <use x="254.890625" xlink:href="#DejaVuSans-74"/>
    <use x="294.099609" xlink:href="#DejaVuSans-69"/>
    <use x="321.882812" xlink:href="#DejaVuSans-76"/>
    <use x="381.0625" xlink:href="#DejaVuSans-65"/>
    <use x="442.585938" xlink:href="#DejaVuSans-5f"/>
    <use x="492.585938" xlink:href="#DejaVuSans-4c"/>
    <use x="548.298828" xlink:href="#DejaVuSans-4c"/>
    <use x="604.011719" xlink:href="#DejaVuSans-74"/>
    <use x="643.220703" xlink:href="#DejaVuSans-74"/>
    <use x="682.429688" xlink:href="#DejaVuSans-5f"/>
    <use x="732.429688" xlink:href="#DejaVuSans-6e"/>
    <use x="795.808594" xlink:href="#DejaVuSans-66"/>
    <use x="831.013672" xlink:href="#DejaVuSans-35"/>
   </g>
  </g>
 </g>
 <defs>
  <clipPath id="p668e3595ab">
   <rect height="135.092113" width="155.407143" x="47.675" y="38.201637"/>
  </clipPath>
  <clipPath id="p05bc75ceb0">
   <rect height="135.092113" width="155.407143" x="263.507143" y="38.201637"/>
  </clipPath>
  <clipPath id="pd6eaad6691">
   <rect height="135.092113" width="155.407143" x="479.339286" y="38.201637"/>
  </clipPath>
  <clipPath id="pf6f30ab80a">
   <rect height="135.092113" width="155.407143" x="695.171429" y="38.201637"/>
  </clipPath>
  <clipPath id="p7b5de943c1">
   <rect height="135.092113" width="155.407143" x="911.003571" y="38.201637"/>
  </clipPath>
  <clipPath id="p6919e227ad">
   <rect height="135.092113" width="155.407143" x="1126.835714" y="38.201637"/>
  </clipPath>
  <clipPath id="pe75db20ac5">
   <rect height="135.092113" width="155.407143" x="1342.667857" y="38.201637"/>
  </clipPath>
 </defs>
</svg>
